<?xml version="1.0" encoding="utf-8"?>
<!-- Generator: Adobe Illustrator 27.1.1, SVG Export Plug-In . SVG Version: 6.00 Build 0)  -->
<svg version="1.1" id="layer" xmlns="http://www.w3.org/2000/svg" xmlns:xlink="http://www.w3.org/1999/xlink" x="0px" y="0px"
	 viewBox="0 0 652 652" style="enable-background:new 0 0 652 652;" xml:space="preserve">
<style type="text/css">
	.st0{fill:#FFC700;}
</style>
<g>
	<path class="st0" d="M326,0C148.1,0,3.3,144.8,3.3,326c0,179.3,144.8,326,322.7,326s322.7-146.2,322.7-326
		C648.3,144.8,503.4,0,326,0z M363.7,48l49.4,13v70.8L469,85.7l41,29.8l-105.3,88.9h-41V48z M120.2,469l-49.4-42.9V235.2l49.4-46.1
		V469z M217,530l-49.3,44.2V80.6l49.3,44.7V530z M265,41.4h49.4v204h101.9l123.5-100.6l31.2,39.6L434.5,294.8H265V41.4z M469,572.8
		l-55.9-46.1v70.8l-49.4,13.1V454.1h41L510,543L469,572.8z M541.2,505.3L417.7,404.7h-102v204h-49.4V355.3h169.5l136.5,110.4
		C572.8,465.7,541.2,505.3,541.2,505.3z M580.7,409.8l-101.9-85.7l101.9-85.7l31.2,39.6l-55.8,46.1l55.8,46.1L580.7,409.8z"/>
</g>
</svg>
