<svg version="1.1" viewBox="0 0 100 100" xmlns="http://www.w3.org/2000/svg">
 <defs>
  <style>.st0 {
        fill: #196ff0;
      }</style>
 </defs>
 <path class="st0" d="M60.8,1.19h-.33c-2.02-.25-4.05-.33-6.07-.23-2.65.09-5.28.54-7.82,1.33-2.82.86-5.45,2.26-7.73,4.14-.82.69-1.59,1.43-2.31,2.23-1.39,1.51-2.41,3.26-3.27,5.1-.47.99-.89,2.01-1.33,3.01-.06.14-.11.28-.16.43-.15.48-.28.96-.45,1.43-.46,1.43-.81,2.89-1.07,4.36-.26,1.36-.44,2.74-.53,4.13-.07,1.01-.13,2.03-.13,3.04,0,1.75.1,3.5.3,5.24.25,2.25.67,4.47,1.14,6.69.53,2.52,1.31,4.96,2.07,7.42.76,2.46,1.65,4.83,2.52,7.23.7,1.95,1.36,3.91,1.89,5.91.32,1.18.55,2.38.69,3.6.21,1.73.14,3.48-.21,5.18-.05.22-.1.43-.17.65-.26.86-.57,1.71-.92,2.54-.24.56-.54,1.1-.89,1.6-1.24,1.82-2.77,3.42-4.52,4.75-2.06,1.53-4.45,2.55-6.98,2.98-1.07.19-2.15.29-3.23.3-3.65.05-7.19-1.19-10-3.52-.62-.49-1.2-1.03-1.73-1.62-.07-.08-.16-.16-.25-.23-.09-.08-.1-.02-.15,0-.09-.05-.13-.15-.18-.23-.67-1.04-1.37-2.06-1.99-3.13-.92-1.55-1.75-3.16-2.51-4.8-.88-1.95-1.65-3.95-2.28-5.99-.52-1.7-.96-3.42-1.29-5.17-.22-1.16-.41-2.32-.54-3.49-.1-.91-.19-1.82-.25-2.74-.05-.68-.05-1.36-.08-2.04-.03-.57-.05-1.14-.04-1.71.02-.82.03-1.64.08-2.46.06-.94.13-1.88.25-2.82.35-3.03.97-6.03,1.86-8.95.57-1.86,1.25-3.68,2.03-5.46,1.26-2.88,2.79-5.63,4.57-8.21,2.12-3.08,4.58-5.92,7.33-8.46,3.56-3.28,7.57-6.03,11.92-8.16,3.16-1.56,6.48-2.77,9.91-3.61,1.48-.36,2.97-.67,4.49-.9.77-.12,1.54-.21,2.31-.29.83-.08,1.66-.13,2.49-.21.29-.03.58-.02.88-.03,1.48-.03,2.94-.03,4.42.02.57.02,1.14.09,1.7.13.33.02.66.06.99.09,1.19.11,2.37.28,3.54.49.6.11,1.2.23,1.8.34.09,0,.18.03.24.09Z"/>
 <path class="st0" d="M20.32,90.16c.09.02.18.07.25.13,1.4.96,2.86,1.82,4.38,2.58,2.73,1.46,5.61,2.64,8.58,3.52,1.87.54,3.77.95,5.69,1.24,2.63.38,5.29.51,7.94.38,1.65-.08,3.3-.25,4.93-.54.92-.16,1.83-.34,2.73-.55,2.49-.58,4.93-1.37,7.28-2.36,2.02-.83,3.97-1.81,5.85-2.92,2.32-1.36,4.39-3.1,6.15-5.13,1.76-2,3.34-4.16,4.71-6.46,2.1-3.58,3.59-7.48,4.41-11.55.27-1.33.47-2.68.58-4.04.14-1.52.18-3.05.13-4.58-.16-4.62-1.09-9.18-2.78-13.48-.33-.84-.68-1.67-1.02-2.51-.07-.17-.15-.33-.23-.49-1.68-3.19-3.76-6.15-6.18-8.81-1.57-1.75-3.28-3.36-4.99-4.97-1.24-1.15-2.55-2.19-3.87-3.23-.93-.74-1.89-1.42-2.77-2.2-.29-.28-.6-.54-.92-.78-.1-.07-.2-.15-.28-.25-.4-.42-.82-.83-1.2-1.27-1.26-1.37-2.1-3.07-2.43-4.9-.34-2.02-.14-4.09.58-6.01,1.17-3.01,3.32-5.02,6.33-6.11,2.01-.74,4.19-.88,6.28-.4.12.03.25.04.37.06,0,0,.01.02.02.02,0,0,.02,0,.03.01,0,0,.02,0,.03,0,0,0,.02,0,.03-.01.29.09.56.22.83.38,3.01,1.46,5.87,3.21,8.53,5.23,1.13.86,2.22,1.76,3.27,2.72,1.11,1.01,2.18,2.06,3.2,3.16,5.5,5.93,9.48,13.12,11.58,20.94.39,1.44.7,2.89.97,4.35.15.86.28,1.73.38,2.59.1.93.19,1.85.24,2.78.04.58.06,1.16.08,1.75.01.49.05.97.04,1.46-.01.97-.02,1.95-.08,2.92-.07,1.08-.17,2.16-.29,3.23-.73,6.12-2.59,12.06-5.49,17.5-.8,1.51-1.69,2.97-2.65,4.38-.08.11-.14.24-.17.37-.03.13-.03.27,0,.41.11.7.2,1.4.3,2.1.1.7.19,1.43.28,2.14.1.77.2,1.54.3,2.31.07.54.12,1.08.19,1.61.07.59.15,1.18.22,1.78.07.59.13,1.13.2,1.69.07.56.13,1.08.19,1.61.07.58.14,1.16.21,1.73.08.63.16,1.27.23,1.9.07.55.13,1.1.19,1.65.04.29.07.58.11.87.03.29-.04.37-.35.29-.27-.07-.54-.14-.8-.22l-6.23-1.67c-1.98-.53-3.94-1.05-5.91-1.58-1.5-.4-3-.82-4.5-1.24-.28-.08-.56-.15-.84-.25-.08-.03-.16-.04-.24-.03-.08,0-.16.04-.23.08-1.06.61-2.15,1.16-3.25,1.69-1.57.74-3.17,1.4-4.81,1.98-1.74.61-3.52,1.12-5.32,1.54-1.09.25-2.19.48-3.31.63-.7.1-1.4.23-2.1.3-.77.08-1.55.15-2.32.21-1.44.09-2.89.16-4.33.13-.74-.01-1.47-.04-2.21-.08-.67-.04-1.33-.09-1.99-.16-.95-.11-1.9-.23-2.84-.38-1.08-.17-2.16-.37-3.21-.62-2.79-.64-5.52-1.51-8.16-2.61-1.5-.63-2.97-1.33-4.4-2.1-2.02-1.09-3.96-2.31-5.81-3.66-.1-.05-.21-.1-.24-.22Z"/>
</svg>
