<?xml version="1.0" encoding="UTF-8" standalone="no"?>
<svg
   clip-rule="evenodd"
   fill-rule="evenodd"
   stroke-linejoin="round"
   stroke-miterlimit="2"
   viewBox="0 0 1024 1024"
   version="1.1"
   id="svg1"
   xmlns="http://www.w3.org/2000/svg"
   xmlns:svg="http://www.w3.org/2000/svg">
  <defs
     id="defs1" />
  <g
     stroke="none"
     fill="none"
     fill-rule="evenodd"
     class="logo_fill"
     style="fill:#f52936;fill-opacity:1"
     id="g1"
     transform="matrix(4.1415546,0,0,4.1415546,93.910065,265.16335)">
    <path
       d="m 92.655112,-33.815242 c 42.829358,0 83.298058,33.38667484 83.298058,81.94911 0,27.31637 -12.81509,49.574153 -31.026,64.412672 5.39582,8.76822 12.14061,14.83853 20.23435,14.83853 9.44269,0 13.48956,-7.41927 14.16404,-13.48957 v 0 h 12.14061 c 0.67448,8.09374 -3.37239,39.11974 -37.09631,39.11974 -20.90882,0 -31.70047,-12.14061 -39.79421,-25.63017 -6.74479,1.34895 -14.16405,2.69791 -21.583299,2.69791 -41.480413,0 -82.623588,-33.386676 -82.623588,-81.949112 0,-48.56243516 41.143175,-81.94911 82.286349,-81.94911 z m 0.337239,13.152327 c -31.026,0 -44.515566,23.2695001 -44.515566,68.459544 0,45.190044 13.489566,68.459541 44.515566,68.459541 5.733055,0 10.791639,-1.34895 14.838509,-2.69791 -6.0703,-14.164043 -14.16403,-27.653608 -29.677031,-27.653608 -2.697913,0 -5.395826,0.674478 -8.093739,2.023434 v 0 l -4.721348,-9.442695 c 6.744783,-5.733066 15.85024,-10.117174 28.328088,-10.117174 19.55986,0 29.67703,9.442695 37.77077,21.583304 4.72135,-10.117174 6.74479,-24.281218 6.74479,-42.154892 0,-45.1900439 -13.48957,-68.459544 -45.190039,-68.459544 z"
       id="path1"
       style="fill:#f52936;fill-opacity:1;stroke-width:3.37239"/>
  </g>
</svg>
