<svg xmlns="http://www.w3.org/2000/svg" width="273.067" height="273.067" viewBox="0 0 256 256"><path style="fill:#fdfdfd" d="M14.143 309.505v-128h256v256h-256v-128z" transform="translate(-14.143 -181.505)"/><path style="fill:#d0d0d0" d="M96.866 366.711c-37.251-16.769-43.735-19.994-43.5-21.638.202-1.409 3.293-3.263 11.414-6.85l11.138-4.918 32.71 14.716c26.887 12.097 33.093 14.544 34.862 13.747 1.184-.533 15.961-7.158 32.838-14.723l30.685-13.754 11.61 5.248c8.56 3.869 11.53 5.671 11.303 6.857-.203 1.055-15.42 8.407-44.212 21.36-24.146 10.862-44.165 19.73-44.486 19.705-.322-.024-20.285-8.911-44.362-19.75zm-.012-35.96c-36.847-16.59-43.743-20.014-43.5-21.6.205-1.34 3.509-3.318 11.423-6.84l11.134-4.954 32.38 14.574c17.81 8.016 32.711 14.574 33.115 14.574.403 0 14.346-6.127 30.985-13.616 16.638-7.488 31.311-14.02 32.606-14.514 1.876-.717 4.665.148 13.75 4.263 6.268 2.839 11.396 5.759 11.396 6.489 0 .73-1.398 2.05-3.106 2.933-5.086 2.63-84.982 38.447-85.717 38.426-.372-.01-20.382-8.89-44.466-19.734zm-.503-36.064c-36.143-16.367-43.244-19.911-43-21.463.22-1.404 10.884-6.623 43.497-21.29 23.763-10.686 43.823-19.429 44.58-19.429 2.017 0 85.957 37.877 87.68 39.565 1.285 1.26 1.285 1.6 0 2.781-1.876 1.724-86.573 39.69-88.225 39.547-.682-.059-20.722-8.93-44.532-19.711z" transform="translate(-14.143 -181.505)"/><path style="fill:#afafaf" d="M97.643 366.143c-25.826-11.614-43.117-19.932-43.292-20.825-.203-1.031 2.96-2.92 10.293-6.15 5.821-2.565 10.929-4.663 11.35-4.663.42 0 15.315 6.556 33.098 14.57l32.333 14.57 32.351-14.57c17.794-8.014 32.733-14.57 33.197-14.57 1.424 0 20.284 8.714 21.506 9.936.863.863.777 1.378-.345 2.079-2.288 1.428-85.875 38.987-86.735 38.973-.416-.007-20.106-8.715-43.756-19.35zm-.5-36.072c-24.66-11.17-42.62-19.858-42.783-20.7-.24-1.226 10.139-6.612 20.13-10.446.91-.349 15.315 5.582 34.237 14.095l32.667 14.697 17.125-7.695c9.418-4.233 24.224-10.883 32.902-14.778l15.778-7.081 10.722 4.968c5.897 2.732 10.722 5.547 10.722 6.256 0 1.327-84.779 40.063-87.5 39.979-.825-.026-20.625-8.708-44-19.295zm.005-35.93c-24.953-11.288-42.606-19.824-42.766-20.68-.193-1.033 12.17-7.043 42.592-20.706 23.574-10.587 43.72-19.221 44.766-19.186 3.37.112 86.903 38.384 86.903 39.816 0 1.388-84.688 40.133-87.5 40.031-.825-.03-20.623-8.704-43.995-19.276z" transform="translate(-14.143 -181.505)"/><path style="fill:#8f8f8f" d="M97.143 365.492c-22.908-10.378-41.629-19.43-41.787-20.205-.299-1.46 17.29-9.782 20.673-9.782.955 0 15.713 6.3 32.796 14 17.082 7.7 31.745 14 32.585 14 .84 0 15.521-6.3 32.627-14 17.105-7.7 31.97-14 33.033-14 2.555 0 21.073 8.62 21.073 9.81 0 1.336-84.547 39.21-87.244 39.084-1.241-.058-20.931-8.566-43.756-18.907zm0-35.968c-22.825-10.337-41.624-19.408-41.775-20.157-.287-1.421 17.34-9.868 20.567-9.856.94.004 15.656 6.304 32.703 14 17.048 7.697 31.747 13.994 32.665 13.994.919 0 15.713-6.3 32.875-14 17.163-7.7 32.02-14 33.015-14 2.4 0 20.95 8.639 20.95 9.757 0 1.088.895.665-46.016 21.75-21.405 9.621-39.945 17.451-41.201 17.4-1.256-.051-20.958-8.55-43.783-18.888zm0-35.93c-23.552-10.65-41.608-19.377-41.749-20.178-.17-.97 13.229-7.45 42.892-20.742l43.14-19.331 43.109 19.39c23.71 10.664 43.108 19.953 43.108 20.64 0 1.592-83.143 39.119-86.5 39.043-1.375-.031-21.175-8.501-44-18.822z" transform="translate(-14.143 -181.505)"/><path style="fill:#6e6e6e" d="M98.809 365.635C75.8 355.24 56.504 346.266 55.929 345.69c-.992-.99 4.83-4.13 16.426-8.858l3.713-1.514 32.684 14.668 32.685 14.667 31.603-14.218c17.382-7.82 32.298-14.406 33.147-14.636 1.836-.499 20.956 8.18 20.956 9.511 0 .806-81.087 37.862-85 38.845-.825.207-20.325-8.127-43.334-18.52zm-.413-36.032C75.711 319.323 56.632 310.394 56 309.76c-1.15-1.15.017-1.792 15.31-8.41l4.667-2.02 32.68 14.703c26.762 12.04 33.071 14.53 34.834 13.746 1.184-.527 15.95-7.15 32.813-14.718l30.66-13.76 9.761 4.365c5.37 2.402 9.925 4.857 10.125 5.456.366 1.098-83.612 39.473-85.95 39.276-.691-.058-19.817-8.516-42.503-18.796zm.033-35.939c-22.668-10.262-41.74-19.19-42.382-19.84-.894-.905-.374-1.518 2.214-2.616 1.86-.789 20.993-9.37 42.519-19.069 21.525-9.699 39.816-17.634 40.646-17.634 2.71 0 85.217 37.646 85.217 38.883 0 1.224-83.403 39.192-85.728 39.026-.7-.05-19.818-8.487-42.486-18.75z" transform="translate(-14.143 -181.505)"/><path style="fill:#4d4d4d" d="M98.16 364.732c-22.816-10.3-41.406-19.126-41.312-19.613.217-1.122 16.706-8.614 18.958-8.614.923 0 15.668 6.3 32.767 14 17.099 7.7 31.834 14 32.745 14 .91 0 15.697-6.3 32.86-14s32.007-14 32.986-14c2.373 0 18.979 7.673 18.979 8.77 0 1.052-82.618 38.24-84.885 38.207-.888-.012-20.283-8.45-43.098-18.75zm.135-35.73c-22.191-10.06-40.772-18.716-41.29-19.234-.982-.983 15.833-9.263 18.81-9.263.873 0 15.564 6.3 32.646 14 17.083 7.7 31.892 14 32.91 14 1.016 0 15.894-6.325 33.06-14.056 22.102-9.954 31.941-13.913 33.712-13.567 3.663.717 18 7.428 18 8.426 0 1.282-82.657 38.213-85.254 38.093-1.236-.058-20.403-8.337-42.594-18.398zM97.4 292.66c-22.684-10.26-41.247-18.933-41.25-19.274-.004-.34 19.157-9.246 42.579-19.791l42.586-19.173 15.664 6.991c48.163 21.495 68.611 30.934 68.901 31.804.425 1.275-81.963 38.317-84.95 38.193-1.258-.052-20.847-8.49-43.53-18.75z" transform="translate(-14.143 -181.505)"/><path style="fill:#2b2b2b" d="M100.18 365.028c-22.254-10.066-41.107-18.708-41.895-19.205-1.049-.662 1.127-2.031 8.117-5.11l9.551-4.204 32.194 14.498c17.707 7.974 32.672 14.498 33.256 14.498.584 0 15.563-6.524 33.287-14.498l32.226-14.499 8.843 3.938c4.864 2.165 8.95 4.302 9.079 4.748.194.669-77.866 36.243-82.695 37.686-.825.247-19.708-7.787-41.962-17.852zm2.963-34.557c-20.625-9.301-39.525-17.876-42-19.055l-4.5-2.145 8.5-3.974c4.675-2.186 9.4-3.98 10.5-3.986 1.1-.007 16.098 6.334 33.328 14.09 17.23 7.758 31.849 14.104 32.485 14.104.636 0 15.656-6.526 33.376-14.501l32.22-14.502 9.045 4.144c4.975 2.28 9.04 4.417 9.034 4.751-.01.544-79.32 36.406-82.988 37.526-.825.252-18.375-7.151-39-16.452zm-3.5-37.576c-22.55-10.18-41.323-18.827-41.717-19.216-1.168-1.153 82.919-38.5 84.954-37.732 6.308 2.38 82.262 36.964 82.256 37.452-.006.583-82.972 38.18-83.993 38.062-.275-.031-18.95-8.386-41.5-18.566z" transform="translate(-14.143 -181.505)"/><path style="fill:#1f1f1f" d="M101.195 364.558c-21.697-9.797-40.093-18.22-40.88-18.717-1.054-.664.813-1.904 7.052-4.684l8.485-3.78 30.395 13.69c16.718 7.53 31.59 14.112 33.05 14.629 2.294.81 7.085-1.055 35.172-13.697l32.516-14.634 8.53 3.785c4.691 2.083 8.345 3.97 8.12 4.197-.614.614-81.912 37.168-82.492 37.09-.275-.036-18.252-8.081-39.948-17.879zm-.552-36.165c-22-9.913-40.335-18.351-40.745-18.75-.41-.4 3.002-2.415 7.582-4.477l8.326-3.75 32.34 14.544c17.787 8 32.762 14.545 33.278 14.545.517 0 15.48-6.542 33.252-14.538l32.314-14.538 8.824 3.986 8.823 3.985-3.497 1.474c-1.923.81-20.557 9.159-41.409 18.552-20.85 9.394-38.176 17.06-38.5 17.035-.323-.024-18.588-8.154-40.588-18.068zm0-35.962c-22-9.926-40.327-18.37-40.728-18.764-.58-.571 69.115-32.64 79.347-36.511 2.294-.868 7.674 1.286 43.25 17.315 22.347 10.068 40.629 18.582 40.627 18.92-.004.607-78.94 36.393-81.283 36.85-.667.13-19.213-7.884-41.213-17.81z" transform="translate(-14.143 -181.505)"/></svg>