<?xml version="1.0" encoding="UTF-8" standalone="no"?>
<svg
   viewBox="0 0 91.999997 92"
   version="1.1"
   id="svg8"
   width="92"
   height="92"
   xmlns="http://www.w3.org/2000/svg"
   xmlns:svg="http://www.w3.org/2000/svg">
  <defs
     id="defs12" />
  <g
     id="g277">
    <circle
       fill="#2bb673"
       cx="46"
       cy="46"
       r="46"
       id="circle4" />
    <path
       fill="#ffffff"
       d="m 55.1,52.2 c -1.9,0 -3.4,1.7 -3.1,3.7 0.3,1.5 1.7,2.5 3.2,2.5 H 60 L 62.8,58 c -4.5,6.6 -12.2,9.6 -20.7,8.2 -6.9,-1.1 -12.8,-5.8 -15.3,-12.3 -5.7,-14.8 5.1,-29 19.2,-29 7.3,0 13.8,4.3 17.5,9.5 v 0.1 c 1,1.4 2.9,1.8 4.3,0.8 1.3,-0.9 1.7,-2.7 0.9,-4.1 C 63.6,23.2 54.4,18.1 44.1,18.8 30.7,19.9 19.8,30.9 19,44.4 c -0.9,15.7 11.5,28.4 27,28.4 8.1,0 15.4,-3.5 20.3,-9.3 l -0.6,3.3 v 3 c 0,1.5 1,2.9 2.5,3.2 2,0.4 3.7,-1.2 3.7,-3.1 V 52.2 Z"
       id="path6" />
  </g>
</svg>
