<svg id="Layer_1" data-name="Layer 1" xmlns="http://www.w3.org/2000/svg" xmlns:xlink="http://www.w3.org/1999/xlink" viewBox="0 0 1024 1024"><defs><style>.cls-1,.cls-2{fill:none;}.cls-2{opacity:0;}.cls-3{clip-path:url(#clip-path);}.cls-4{fill:#38f;}.cls-5{fill:#005de0;}.cls-6{clip-path:url(#clip-path-2);}.cls-7{fill:#46ebd5;}.cls-8{fill:#00d0b6;}</style><clipPath id="clip-path"><path class="cls-1" d="M816.92,219.71,663.13,385.92a5.73,5.73,0,0,0-1.4,5A34.52,34.52,0,0,1,603,421.85L468.81,556.06A20,20,0,0,0,463,571.71l13.22,176.68L619.85,892a12,12,0,0,0,20-5.15L831,227.49C833.25,219.13,822.8,213.36,816.92,219.71Z"/></clipPath><clipPath id="clip-path-2"><path class="cls-1" d="M805.16,208,639,361.73a5.72,5.72,0,0,1-5,1.41A34.52,34.52,0,0,0,603,421.85L468.81,556.06a20,20,0,0,1-15.65,5.81L276.47,548.65,132.85,405A12,12,0,0,1,138,385L797.38,193.86C805.74,191.62,811.51,202.07,805.16,208Z"/></clipPath></defs><title>larklogo</title><rect class="cls-2" x="-0.18" y="0.48" width="1024" height="1024"/><g class="cls-3"><path class="cls-4" d="M841.84,190.26,663.36,383.15a5.69,5.69,0,0,0-1.43,5,34.9,34.9,0,0,1-59.34,31.3L460.36,561.7l14.05,187.87L634.14,909.29Z"/><path class="cls-5" d="M839.69,195.1,663.13,385.92a5.71,5.71,0,0,0-1.4,5A34.52,34.52,0,0,1,603,421.85L463.23,561.64a2.81,2.81,0,0,0-.82,2.19l13.81,184.56,356-537.11Z"/></g><g class="cls-6"><path class="cls-7" d="M834.61,183,641.72,361.51a5.73,5.73,0,0,1-5,1.43,34.9,34.9,0,0,0-31.31,59.34L463.16,564.51,275.3,550.45,115.58,390.73Z"/><path class="cls-8" d="M829.76,185.18,639,361.73a5.73,5.73,0,0,1-5,1.41A34.52,34.52,0,0,0,603,421.85L463.23,561.64a2.77,2.77,0,0,1-2.2.81L276.48,548.64l537.11-356Z"/></g></svg>