<svg id="Layer_1" data-name="Layer 1" xmlns="http://www.w3.org/2000/svg" viewBox="0 0 1024 1024"><defs><clipPath id="clip-path"><path class="cls-1" d="M816.92 219.71 663.13 385.92a5.73 5.73 0 0 0-1.4 5A34.52 34.52 0 0 1 603 421.85L468.81 556.06a20 20 0 0 0-5.81 15.65l13.22 176.68L619.85 892a12 12 0 0 0 20-5.15L831 227.49c2.25-8.36-8.2-14.13-14.08-7.78z"/></clipPath><clipPath id="clip-path-2"><path class="cls-1" d="M805.16 208 639 361.73a5.72 5.72 0 0 1-5 1.41 34.52 34.52 0 0 0-31 58.71L468.81 556.06a20 20 0 0 1-15.65 5.81l-176.69-13.22L132.85 405a12 12 0 0 1 5.15-20l659.38-191.14c8.36-2.24 14.13 8.21 7.78 14.14z"/></clipPath><style>.cls-1{fill:none}</style></defs><g style="clip-path:url(#clip-path)"><path d="M841.84 190.26 663.36 383.15a5.69 5.69 0 0 0-1.43 5 34.9 34.9 0 0 1-59.34 31.3L460.36 561.7l14.05 187.87 159.73 159.72z" style="fill:#38f"/><path d="M839.69 195.1 663.13 385.92a5.71 5.71 0 0 0-1.4 5A34.52 34.52 0 0 1 603 421.85L463.23 561.64a2.81 2.81 0 0 0-.82 2.19l13.81 184.56 356-537.11z" style="fill:#005de0"/></g><g style="clip-path:url(#clip-path-2)"><path d="M834.61 183 641.72 361.51a5.73 5.73 0 0 1-5 1.43 34.9 34.9 0 0 0-31.31 59.34L463.16 564.51 275.3 550.45 115.58 390.73z" style="fill:#46ebd5"/><path d="M829.76 185.18 639 361.73a5.73 5.73 0 0 1-5 1.41 34.52 34.52 0 0 0-31 58.71L463.23 561.64a2.77 2.77 0 0 1-2.2.81l-184.55-13.81 537.11-356z" style="fill:#00d0b6"/></g></svg>