<svg version="1.1" viewBox="0 0 100 100" xmlns="http://www.w3.org/2000/svg">
 <defs>
  <style>.st0 {
        fill: #4c3683;
      }

      .st1 {
        fill: #e74b50;
      }

      .st2 {
        fill: #7db425;
      }

      .st3 {
        fill: #fff;
      }

      .st4 {
        fill: #0f68a0;
      }

      .st5 {
        fill: #35ac9d;
      }

      .st6 {
        fill: #f1f1f1;
      }

      .st7 {
        fill: #ef7414;
      }

      .st8 {
        fill: #49bdca;
      }

      .st9 {
        fill: #59d6bd;
      }

      .st10 {
        fill: #e4e4e4;
      }

      .st11 {
        fill: #794387;
      }

      .st12 {
        fill: #b8ce01;
      }

      .st13 {
        fill: #f6a925;
      }</style>
 </defs>
 <path class="st12" d="M49.7,0h.32c.09,7.87-.05,23.65-.05,23.65-7.52-4.22-15.1-8.34-22.62-12.58,4.93-2.8,9.86-5.6,14.79-8.38C44.49,1.38,47,.25,49.7,0h0Z"/>
 <path class="st2" d="M50.01,0h.55c2.93.26,5.57,1.66,8.09,3.07,4.69,2.65,9.38,5.31,14.07,7.98-7.55,4.19-15.18,8.44-22.74,12.61-.06-7.87.12-15.79.03-23.66h0Z"/>
 <path class="st13" d="M27.37,11.07l22.62,12.58-22.78,13.31s-.01-8.44.01-12.65c-.02-4.37.14-13.23.14-13.23Z"/>
 <path class="st5" d="M72.74,11.05l.06.03c-.02,7.84,0,15.69,0,23.53-.01.77-.02,2.35-.02,2.35l-22.8-13.32s15.21-8.41,22.76-12.6h0Z"/>
 <path class="st9" d="m72.79 11.09c5.02 2.86 10.01 5.77 15 8.69 2.41 1.36 4.97 2.86 6.29 5.41-7.07 3.91-21.3 11.79-21.3 11.79s-0.01-1.59 0-2.35c0-7.84-0.01-15.69 0-23.53z"/>
 <path class="st7" d="M12.95,19.34c4.72-2.76,14.4-8.26,14.4-8.26l-.13,25.87s-14.18-7.82-21.22-11.73c1.54-2.73,4.31-4.39,6.96-5.88Z"/>
 <path class="st3" d="m49.97 23.65 22.8 13.31s-7.34 4.06-10.98 6.01c-3.89 2.21-11.8 6.6-11.8 6.6l-22.77-12.62 22.75-13.3z"/>
 <path class="st1" d="M4.39,35.55c.02-3.47-.04-7.16,1.59-10.33,7.05,3.91,21.22,11.73,21.22,11.73-7.62,4.4-15.2,8.88-22.81,13.29-.01-4.9,0-9.79,0-14.69h0Z"/>
 <path class="st11" d="m94.08 25.19c1.39 2.6 1.59 5.62 1.51 8.51v16.59l-22.81-13.32s14.23-7.87 21.3-11.78z"/>
 <path class="st10" d="M27.21,36.95s22.77,12.62,22.77,12.62c0,0,0,13.2.01,19.66.04,2.08-.01,6.28-.01,6.28-7.6-4.19-15.16-8.43-22.76-12.62v-.06c-.01-8.63-.01-17.26-.01-25.88h0Z"/>
 <path class="st11" d="m4.39 50.24c7.61-4.42 15.2-8.88 22.81-13.29v25.88c-1.17-0.49-2.23-1.18-3.35-1.78-6.49-3.57-12.95-7.22-19.47-10.75v-0.07z"/>
 <path class="st6" d="M72.78,36.97v15.87c-.02,3.36.08,6.72,0,10.08-7.59,4.12-22.8,12.6-22.8,12.6,0,0,.05-4.2.01-6.28,0-6.46-.01-19.66-.01-19.66l22.8-12.6Z"/>
 <path class="st0" d="m72.78 36.97s22.81 13.28 22.81 13.32c-7.58 4.2-22.81 12.63-22.81 12.63 0.08-3.36-0.02-6.71 0-10.08v-15.87z"/>
 <path class="st0" d="M4.39,50.31c6.51,3.54,12.97,7.18,19.46,10.75,1.12.59,2.18,1.29,3.35,1.78v.06c-6.98,4.08-13.98,8.16-20.97,12.24-.74-1.12-1.1-2.43-1.38-3.73-.44-2.17-.46-4.39-.46-6.59v-14.51h0Z"/>
 <path class="st1" d="m95.59 50.29c0.01 5.09 0 10.18 0 15.28 0.07 3.26-0.02 6.74-1.76 9.62-6.3-3.68-21.05-12.26-21.05-12.26s15.23-8.43 22.82-12.63z"/>
 <path class="st4" d="M6.24,75.14c6.99-4.09,13.98-8.17,20.98-12.24-.05,8.62.01,17.25-.03,25.87-4.95-2.79-9.89-5.61-14.82-8.45-2.3-1.36-4.66-2.88-6.13-5.18h0Z"/>
 <path class="st8" d="M27.22,62.89c7.6,4.19,15.16,8.43,22.76,12.62-7.59,4.42-22.78,13.26-22.79,13.25.04-8.62-.02-17.25.03-25.87h0Z"/>
 <path class="st13" d="M72.75,62.93l.04-.02c.02,8.63-.05,17.25.03,25.88l-.06.03c-6.01-3.59-12.1-7.07-18.14-10.62-1.52-.87-4.64-2.69-4.64-2.69,0,0,15.18-8.45,22.76-12.58Z"/>
 <path class="st7" d="M72.78,62.92h0c.67.46,14.76,8.59,21.05,12.26-.89,1.53-2.31,2.65-3.74,3.65-2.31,1.55-4.77,2.85-7.16,4.24-3.37,1.91-6.72,3.85-10.11,5.71-.08-8.63-.01-17.25-.03-25.88h0Z"/>
 <path class="st2" d="M49.98,75.51v24.48c-1.89-.28-3.94-.71-5.62-1.67-5.73-3.18-11.47-6.34-17.17-9.56,7.59-4.43,15.2-8.82,22.79-13.25Z"/>
 <path class="st12" d="M49.98,75.51s3.12,1.82,4.64,2.69c6.04,3.55,12.13,7.03,18.14,10.62-5.87,3.25-11.73,6.5-17.6,9.76-1.47.81-3.09,1.3-4.76,1.42h-.42v-24.49Z"/>
</svg>
