<svg version="1.0" xmlns="http://www.w3.org/2000/svg" width="170.667" height="170.667" viewBox="0 0 128 128"><path fill="#1974fc" d="M1 64v63h126V1H1v63zm76.4-51c10.9 2.7 16.9 6.3 25.7 15 5.8 5.7 8.5 9.4 11.3 15.2 8.8 18.4 6.8 40.2-5.2 56.1-4 5.3-15.5 15.8-17.2 15.7-.3 0-1.8-2.2-3.3-4.7l-2.9-4.7 2.4-1.9c6.9-5.4 12.2-11.7 15.6-18.6 3.6-7.2 3.7-7.9 3.7-18-.1-8.6-.5-11.7-2.3-16.1-4.4-11.1-14.1-20.8-25.2-25.2-4.5-1.9-7.5-2.3-16.6-2.3-10.7 0-11.2.1-18.5 3.7-29 14.4-34.4 50.3-10.8 72.2l7 6.5-2.6 4.5-2.6 4.5-3.3-2c-4.5-2.6-12.9-11.1-16.6-16.7-5.4-8.2-7.3-14.6-7.8-26.8-.7-17.9 3.9-29.8 16.2-41.9C38.9 13.2 58 8 77.4 13zm.1 23.4c17.4 7.9 24.7 28.1 16.4 45.3C92 85.6 82.7 96 81.1 96c-.7 0-6.1-8.7-6.1-9.9 0-.4 1.4-1.8 3.1-3 3.6-2.7 7.9-11.2 7.9-15.7C86 55.7 75.6 45.1 63.9 45c-6.4 0-14.6 4.3-18.3 9.8-6.1 8.7-4.2 22.4 3.9 28.9l3.3 2.6-3 4.9-3 4.8-2.8-2c-4.3-3-9.1-8.9-11.4-13.9-1.6-3.6-2.1-6.5-2.1-13.6 0-8.3.3-9.5 3.5-15.3 3.2-6 8.4-11.3 14-14.3 8.3-4.3 20.7-4.5 29.5-.5zm-10.1 20c11 4.6 9.6 19.7-2 21.3-14 1.9-18.3-17.6-4.8-21.7 1.6-.4 3-.9 3.2-.9.1-.1 1.7.5 3.6 1.3z"/></svg>