<?xml version="1.0" standalone="no"?>
<!DOCTYPE svg PUBLIC "-//W3C//DTD SVG 20010904//EN"
 "http://www.w3.org/TR/2001/REC-SVG-20010904/DTD/svg10.dtd">
<svg version="1.0" xmlns="http://www.w3.org/2000/svg"
 width="128.000000pt" height="128.000000pt" viewBox="0 0 128.000000 128.000000"
 preserveAspectRatio="xMidYMid meet">
<g transform="translate(0.000000,128.000000) scale(0.100000,-0.100000)"
fill="#000000" stroke="none">
<path fill="#1974fc" d="M10 640 l0 -630 630 0 630 0 0 630 0 630 -630 0 -630 0 0 -630z m764
510 c109 -27 169 -63 257 -150 58 -57 85 -94 113 -152 88 -184 68 -402 -52
-561 -40 -53 -155 -158 -172 -157 -3 0 -18 22 -33 47 l-29 47 24 19 c69 54
122 117 156 186 36 72 37 79 37 180 -1 86 -5 117 -23 161 -44 111 -141 208
-252 252 -45 19 -75 23 -166 23 -107 0 -112 -1 -185 -37 -290 -144 -344 -503
-108 -722 l70 -65 -26 -45 -26 -45 -33 20 c-45 26 -129 111 -166 167 -54 82
-73 146 -78 268 -7 179 39 298 162 419 145 143 336 195 530 145z m1 -234 c174
-79 247 -281 164 -453 -19 -39 -112 -143 -128 -143 -7 0 -61 87 -61 99 0 4 14
18 31 30 36 27 79 112 79 157 0 117 -104 223 -221 224 -64 0 -146 -43 -183
-98 -61 -87 -42 -224 39 -289 l33 -26 -30 -49 -30 -48 -28 20 c-43 30 -91 89
-114 139 -16 36 -21 65 -21 136 0 83 3 95 35 153 32 60 84 113 140 143 83 43
207 45 295 5z m-101 -200 c110 -46 96 -197 -20 -213 -140 -19 -183 176 -48
217 16 4 30 9 32 9 1 1 17 -5 36 -13z"/>
</g>
</svg>
