<?xml version="1.0" encoding="utf-8"?>
<!-- Generator: Adobe Illustrator 28.3.0, SVG Export Plug-In . SVG Version: 6.00 Build 0)  -->
<svg version="1.1" id="layer" xmlns="http://www.w3.org/2000/svg" xmlns:xlink="http://www.w3.org/1999/xlink" x="0px" y="0px"
	 viewBox="0 0 652 652" style="enable-background:new 0 0 652 652;" xml:space="preserve">
<style type="text/css">
	.st0{fill:#FF5043;}
</style>
<path class="st0" d="M326,1C145.85,1,1,145.85,1,326s144.85,325,325,325s325-144.85,325-325S505.69,1,326,1z M468.1,371.84
	L309.5,493.77c-2.75,2.75-8.25,4.13-12.38,2.75c-6.88-1.38-11-9.63-8.25-16.04l20.17-90.76c0-1.38,0-2.75-1.38-4.13l-124.68-79.76
	c-1.38-1.38-4.13-2.75-5.5-4.13c-5.5-6.88-4.13-17.42,4.13-22.92l158.6-121.93c2.75-2.75,8.25-4.13,12.38-2.75
	c6.88,1.38,11,9.63,8.25,16.04l-20.17,90.76c0,1.38,0,2.75,1.38,4.13l124.68,79.76c1.38,1.38,4.13,2.75,5.5,4.13
	C477.27,357.17,475.89,366.8,468.1,371.84z"/>
</svg>
