<svg height="80" viewBox="0 0 80 80" width="80" xmlns="http://www.w3.org/2000/svg" xmlns:xlink="http://www.w3.org/1999/xlink"><linearGradient id="a" x1="50%" x2="50%" y1="0%" y2="78.332%"><stop offset="0" stop-color="#00c4ff"/><stop offset="1" stop-color="#007fff"/></linearGradient><path d="m38.3913705 20.309578c-1.8520548.1285179-5.1136724-.2664647-9.1025457-3.3876946-6.2881551-4.9209122-5.6108784-9.97712625-5.4657137-10.80039839.141663-.8034122 6.0242893-1.9829806 12.1523425 2.53366484-.96011 2.40038925-.9750589 4.62070405-.7557695 6.22804745.1766822-2.9206342 1.4522046-6.68950559 5.8505761-10.07568015 8.7900215-6.76690903 17.3918792-5.12648983 17.590556-3.9997353s1.1201276 8.04780631-7.6693752 14.81504115c-5.4997288 4.2339105-10.0009024 4.8321374-12.6000705 4.686755zm11.5365596 23.8143341c2.3396463 2.4915201 5.5422956 4.151024 9.1256211 4.4922794.8750904 1.4989998 1.3770014 3.2459505 1.3770014 5.1110782 0 5.573482-4.481907 10.0916819-10.0106194 10.0916819s-10.0106193-4.5181999-10.0106193-10.0916819c0-1.9351792.5403211-3.7431376 1.4771753-5.2789229 1.5435894-.2813384 3.0019347-.8096786 4.3333066-1.5429535 1.3815852-.7240339 2.6326127-1.6662984 3.7081343-2.7814812zm1.6042942-18.3367228c2.2415343-2.5503944 5.5149716-4.1579847 9.1608658-4.1579847 6.7573152 0 12.2352015 5.5222443 12.2352015 12.3342779s-5.4778863 12.3342779-12.2352015 12.3342779c-3.6458942 0-6.9193315-1.6075903-9.1608658-4.1579847.641242-.9523908 1.1735962-1.9853234 1.5790283-3.0806178 1.5189769 2.6518634 4.3531536 4.4353575 7.598732 4.4353575 3.872568 0 7.1594298-2.5391339 8.3252883-6.0628641-2.0119425 2.3525924-4.9833939 3.8408542-8.2981452 3.8408542-2.8472696 0-5.4412428-1.0980816-7.3913838-2.8988149.4375513-1.3912737.6735999-2.8729516.6735999-4.4102081 0-3.0303216-.9172468-5.8446739-2.4871195-8.1762932zm-24.2078655 16.3525864c-2.2415343 2.5503944-5.5149716 4.1579847-9.1608658 4.1579847-6.7573152 0-12.23520145-5.5222443-12.23520145-12.3342779s5.47788625-12.3342779 12.23520145-12.3342779c3.6458942 0 6.9193315 1.6075903 9.1608658 4.1579847-1.5698727 2.3316193-2.4871195 5.1459716-2.4871195 8.1762932 0 1.5603007.2431786 3.0633441.6934129 4.4727147-1.9422146 1.7636052-4.508947 2.8363083-7.3231215 2.8363083-3.3634629 0-6.3734619-1.5323244-8.3862205-3.945129 1.1350374 3.5778036 4.4484142 6.1671389 8.3590773 6.1671389 3.2310087 0 6.0543011-1.7675175 7.5781961-4.3996968.403754 1.0820583.9314967 2.1029087 1.5657752 3.0449571zm9.3831977 6.3085711c.9368541 1.5357853 1.4771753 3.3437437 1.4771753 5.2789229 0 5.573482-4.481907 10.0916819-10.0106194 10.0916819s-10.0106194-4.5181999-10.0106194-10.0916819c0-1.8651277.5019111-3.6120784 1.3770015-5.1110782 3.6161828-.3443845 6.8446763-2.0313039 9.1897634-4.5610271 2.0796161 2.2433508 4.8539508 3.8239133 7.9772986 4.3931824zm12.1809163 17.8373288c.2726803.9181773.4191694 1.8913084.4191694 2.8989309 0 5.5734821-4.481907 10.0916819-10.0106194 10.0916819s-10.0106194-4.5181998-10.0106194-10.0916819c0-1.0076225.1464892-1.9807536.4191694-2.8989309 4.2722603-.5377989 7.8602247-3.2961073 9.59145-7.0929884 1.7312254 3.7968811 5.3191897 6.5551895 9.59145 7.0929884zm-16.4212891 5.6108047c.9080299 2.9272939 3.5587313 5.045841 6.6872618 5.045841 3.0980545 0 5.7275439-2.0774732 6.6602307-4.9605252-1.609554 1.9248483-3.9867151 3.1425171-6.6385162 3.1425171-2.6907702 0-5.0987694-1.25372-6.7089763-3.2278329zm-10.9668176-15.3659656c.90803 2.9272938 3.5587314 5.0458409 6.6872619 5.0458409 3.0980544 0 5.7275438-2.0774732 6.6602306-4.9605252-1.609554 1.9248483-3.9867151 3.1425172-6.6385161 3.1425172-2.6907703 0-5.0987694-1.2537201-6.7089764-3.2278329zm22.2458209 0c.9080299 2.9272938 3.5587313 5.0458409 6.6872618 5.0458409 3.0980545 0 5.7275439-2.0774732 6.6602307-4.9605252-1.609554 1.9248483-3.9867151 3.1425172-6.6385162 3.1425172-2.6907702 0-5.0987694-1.2537201-6.7089763-3.2278329zm-4.4491642-10.2327543c6.7573152 0 12.2352015-5.5222443 12.2352015-12.3342779s-5.4778863-12.3342779-12.2352015-12.3342779-12.2352014 5.5222443-12.2352014 12.3342779 5.4778862 12.3342779 12.2352014 12.3342779zm-8.3421828-8.9703839c1.1350374 3.5778036 4.4484142 6.1671389 8.3590773 6.1671389 3.8725681 0 7.1594298-2.5391339 8.3252883-6.0628641-2.0119425 2.3525924-4.9833939 3.8408542-8.2981452 3.8408542-3.3634628 0-6.3734618-1.5323244-8.3862204-3.945129z" fill="url(#a)" fill-rule="evenodd"/></svg>