<svg viewBox="0 0 80 80" xmlns="http://www.w3.org/2000/svg" xmlns:xlink="http://www.w3.org/1999/xlink"><clipPath id="a"><path d="m46.59 17.41-.48 59.52a37 37 0 1 1 17.63-69.5z"/></clipPath><path d="m46.59 78.49h-.66a29.26 29.26 0 0 1 -5.28-.49 38.49 38.49 0 1 1 24.29-71.84l.18.12a28.72 28.72 0 0 1 5.88 4.25 2.08 2.08 0 0 1 .25 3.17l-5 6.22a2.1 2.1 0 0 1 -1.63.91 2.22 2.22 0 0 1 -1.45-.63 5.35 5.35 0 0 0 -3.27-1.2h-.76a7.64 7.64 0 0 0 -1.43.12 2.93 2.93 0 0 0 -2.59 2.94c-.08.78-.08 1.58-.09 2.43v.19h8.82a2.07 2.07 0 0 1 2.35 2.35q0 5 0 9.94a2.09 2.09 0 0 1 -2.35 2.36h-8.85v36a2.2 2.2 0 0 1 -2.18 2.56 48.86 48.86 0 0 1 -6.07.56z" fill="#4d4d4d"/><path d="m46.59 3a36.82 36.82 0 0 1 17.63 4.48 27.32 27.32 0 0 1 5.78 4.16c.49.45.5.6.09 1.11l-5 6.22c-.19.24-.32.35-.45.35s-.26-.09-.47-.27a6.9 6.9 0 0 0 -4.17-1.51h-.85a9.22 9.22 0 0 0 -1.71.15 4.42 4.42 0 0 0 -3.81 4.28c-.12 1.22-.08 2.45-.11 3.68a.53.53 0 0 0 .53.58h9.81c.74 0 .84.1.84.85q0 5 0 9.94c0 .74-.11.85-.84.85h-9.5c-.73 0-.84.11-.84.85q0 18.33 0 36.66c0 .85-.07.94-.89 1.07a47 47 0 0 1 -6 .55h-.65a28 28 0 0 1 -5-.43 37 37 0 0 1 5.61-73.57m0-3a40 40 0 0 0 -6.21 79.52 30.75 30.75 0 0 0 5.55.48h.94a50.49 50.49 0 0 0 6.19-.58 4 4 0 0 0 2.63-1.32 4 4 0 0 0 .83-2.73v-34.5h7.32a3.57 3.57 0 0 0 3.87-3.87q0-5 0-9.94a3.8 3.8 0 0 0 -1-2.83 3.84 3.84 0 0 0 -2.84-1h-7.31c0-.33 0-.65.06-1 .11-1.16.55-1.45 1.37-1.6a6.26 6.26 0 0 1 1.15-.09h.67a3.94 3.94 0 0 1 2.41.81 3.67 3.67 0 0 0 2.42 1 3.57 3.57 0 0 0 2.8-1.48l5-6.23a3.78 3.78 0 0 0 .94-2.72 3.82 3.82 0 0 0 -1.34-2.5 30.71 30.71 0 0 0 -6.12-4.42l-.26-.16a40.06 40.06 0 0 0 -19.07-4.84z" fill="#f2f2f2"/><g clip-path="url(#a)"><path d="m46.59 17.41-.48 59.52a37 37 0 1 1 17.63-69.5z" fill="#009ffd"/><path d="m38.76 26.27a147.27 147.27 0 0 1 -26.1-4.62c-12.07-3.55 10.48-18.65 10.48-18.65l34.08-4.87 5.41 3.55z" fill="#fc4188"/><path d="m38.94 40s-13.28-.15-29.81 7.57.6-28.94.6-28.94l29.2 5.5z" fill="#dffb6c"/><path d="m38.5 55.29s-18.55-.71-27.87-2.4-4-9-4-9l32.31-6.75z" fill="#72fbfe"/></g><path d="m45.47 77.55a28.4 28.4 0 0 1 -5.13-.44l-1.21-.22v-13.78q0-19.15 0-38.31a27.24 27.24 0 0 1 1.64-10.1 14.59 14.59 0 0 1 8-8.63 17.57 17.57 0 0 1 6.84-1.45 16.62 16.62 0 0 1 6.15 1.21 26.48 26.48 0 0 1 8.24 5.31 1.2 1.2 0 0 1 .16 2l-5 6.22a1.24 1.24 0 0 1 -.94.58 1.37 1.37 0 0 1 -.87-.42 6.27 6.27 0 0 0 -3.81-1.37h-.81a8.51 8.51 0 0 0 -1.59.13 3.8 3.8 0 0 0 -3.38 3.72c-.08.82-.09 1.68-.09 2.5v1.08h9.72c1.08 0 1.46.38 1.46 1.47q0 5 0 9.94c0 1.09-.38 1.47-1.46 1.47h-9.73v.23 36.62c0 1.17-.29 1.51-1.42 1.68a45.3 45.3 0 0 1 -6.77.56z" fill="#4d4d4d"/><path d="m55.57 5.25a15.93 15.93 0 0 1 5.92 1.16 26 26 0 0 1 8 5.18c.49.45.5.6.09 1.11l-5 6.22c-.19.24-.32.35-.45.35s-.26-.09-.47-.27a6.9 6.9 0 0 0 -4.18-1.51h-.85a9.21 9.21 0 0 0 -1.71.15 4.42 4.42 0 0 0 -3.81 4.28c-.12 1.22-.08 2.45-.11 3.68a.53.53 0 0 0 .53.58h9.81c.74 0 .84.1.84.85q0 5 0 9.94c0 .74-.11.85-.84.85h-9.5c-.73 0-.84.11-.84.85q0 18.33 0 36.64c0 .85-.07.94-.89 1.07a45.26 45.26 0 0 1 -6.68.56 28 28 0 0 1 -5-.43l-.7-.13c0-.22 0-.4 0-.58q0-25.49 0-51a26.9 26.9 0 0 1 1.6-9.87 13.93 13.93 0 0 1 7.67-8.28 16.89 16.89 0 0 1 6.59-1.4m0-1.24v-.01a18.19 18.19 0 0 0 -7.09 1.5 15.19 15.19 0 0 0 -8.3 9 27.84 27.84 0 0 0 -1.69 10.32q0 18.88 0 37.75v14.84l1 .19h.26l.44.08a29 29 0 0 0 5.24.45 45.88 45.88 0 0 0 6.86-.57 2.28 2.28 0 0 0 1.53-.7 2.34 2.34 0 0 0 .42-1.6v-36.26h9.1a2.1 2.1 0 0 0 1.64-.47 2.13 2.13 0 0 0 .51-1.58q0-5 0-9.94a1.82 1.82 0 0 0 -2.08-2.09h-9.14c0-.15 0-.31 0-.46 0-.85 0-1.66.09-2.45a3.2 3.2 0 0 1 2.81-3.18 7.91 7.91 0 0 1 1.48-.12h.78a5.68 5.68 0 0 1 3.44 1.29 2 2 0 0 0 1.27.57 1.83 1.83 0 0 0 1.42-.82l5-6.22a1.81 1.81 0 0 0 -.22-2.8 27.09 27.09 0 0 0 -8.43-5.42 17.24 17.24 0 0 0 -6.36-1.31z" fill="#f2f2f2"/></svg>