<svg xmlns="http://www.w3.org/2000/svg" xmlns:xlink="http://www.w3.org/1999/xlink" viewBox="0 0 80 80"><defs><style>.cls-1{fill:none;}.cls-2{fill:#4d4d4d;}.cls-3{fill:#f2f2f2;}.cls-4{clip-path:url(#clip-path);}.cls-5{fill:#009ffd;}.cls-6{fill:#fc4188;}.cls-7{fill:#dffb6c;}.cls-8{fill:#72fbfe;}</style><clipPath id="clip-path"><path class="cls-1" d="M46.59,17.41l-.48,59.52A37,37,0,1,1,63.74,7.43Z"/></clipPath></defs><title>icon</title><g id="Ebene_1" data-name="Ebene 1"><path class="cls-2" d="M46.59,78.49h-.66A29.26,29.26,0,0,1,40.65,78h0A38.49,38.49,0,1,1,64.94,6.16l.18.12A28.72,28.72,0,0,1,71,10.53a2.08,2.08,0,0,1,.25,3.17l-5,6.22a2.1,2.1,0,0,1-1.63.91h0a2.22,2.22,0,0,1-1.45-.63A5.35,5.35,0,0,0,59.9,19l-.76,0a7.64,7.64,0,0,0-1.43.12,2.93,2.93,0,0,0-2.59,2.94c-.08.78-.08,1.58-.09,2.43v.19h8.82a2.07,2.07,0,0,1,2.35,2.35q0,5,0,9.94a2.09,2.09,0,0,1-2.35,2.36H55v36a2.2,2.2,0,0,1-2.18,2.56,48.86,48.86,0,0,1-6.07.56Z"/><path class="cls-3" d="M46.59,3A36.82,36.82,0,0,1,64.22,7.48h0A27.32,27.32,0,0,1,70,11.64c.49.45.5.6.09,1.11l-5,6.22c-.19.24-.32.35-.45.35s-.26-.09-.47-.27A6.9,6.9,0,0,0,60,17.54l-.85,0a9.22,9.22,0,0,0-1.71.15,4.42,4.42,0,0,0-3.81,4.28c-.12,1.22-.08,2.45-.11,3.68a.53.53,0,0,0,.53.58h9.81c.74,0,.84.1.84.85q0,5,0,9.94c0,.74-.11.85-.84.85h-9.5c-.73,0-.84.11-.84.85q0,18.33,0,36.66c0,.85-.07.94-.89,1.07a47,47,0,0,1-6,.55h-.65a28,28,0,0,1-5-.43h0A37,37,0,0,1,46.59,3m0-3a40,40,0,0,0-6.21,79.52h0a30.75,30.75,0,0,0,5.55.48h.94a50.49,50.49,0,0,0,6.19-.58,4,4,0,0,0,2.63-1.32,4,4,0,0,0,.83-2.73V40.87h7.32A3.57,3.57,0,0,0,67.71,37q0-5,0-9.94a3.8,3.8,0,0,0-1-2.83,3.84,3.84,0,0,0-2.84-1H56.56c0-.33,0-.65.06-1,.11-1.16.55-1.45,1.37-1.6a6.26,6.26,0,0,1,1.15-.09l.67,0a3.94,3.94,0,0,1,2.41.81,3.67,3.67,0,0,0,2.42,1,3.57,3.57,0,0,0,2.8-1.48l5-6.23a3.78,3.78,0,0,0,.94-2.72,3.82,3.82,0,0,0-1.34-2.5A30.71,30.71,0,0,0,65.92,5l-.26-.16A40.06,40.06,0,0,0,46.59,0Z"/><g class="cls-4"><path class="cls-5" d="M46.59,17.41l-.48,59.52A37,37,0,1,1,63.74,7.43Z"/><path class="cls-6" d="M38.76,26.27a147.27,147.27,0,0,1-26.1-4.62C.59,18.1,23.14,3,23.14,3L57.22-1.87l5.41,3.55Z"/><path class="cls-7" d="M38.94,40s-13.28-.15-29.81,7.57.6-28.94.6-28.94l29.2,5.5Z"/><path class="cls-8" d="M38.5,55.29s-18.55-.71-27.87-2.4-4-9-4-9l32.31-6.75Z"/></g><path class="cls-2" d="M45.47,77.55a28.4,28.4,0,0,1-5.13-.44l-1.21-.22V63.11q0-19.15,0-38.31a27.24,27.24,0,0,1,1.64-10.1,14.59,14.59,0,0,1,8-8.63,17.57,17.57,0,0,1,6.84-1.45,16.62,16.62,0,0,1,6.15,1.21A26.48,26.48,0,0,1,70,11.14a1.2,1.2,0,0,1,.16,2l-5,6.22a1.24,1.24,0,0,1-.94.58,1.37,1.37,0,0,1-.87-.42,6.27,6.27,0,0,0-3.81-1.37l-.81,0a8.51,8.51,0,0,0-1.59.13A3.8,3.8,0,0,0,53.76,22c-.08.82-.09,1.68-.09,2.5,0,.36,0,.72,0,1.08h9.72c1.08,0,1.46.38,1.46,1.47q0,5,0,9.94c0,1.09-.38,1.47-1.46,1.47H53.66c0,.05,0,.12,0,.23V75.31c0,1.17-.29,1.51-1.42,1.68A45.3,45.3,0,0,1,45.47,77.55Z"/><path class="cls-3" d="M55.57,5.25a15.93,15.93,0,0,1,5.92,1.16,26,26,0,0,1,8,5.18c.49.45.5.6.09,1.11l-5,6.22c-.19.24-.32.35-.45.35s-.26-.09-.47-.27a6.9,6.9,0,0,0-4.18-1.51l-.85,0a9.21,9.21,0,0,0-1.71.15,4.42,4.42,0,0,0-3.81,4.28c-.12,1.22-.08,2.45-.11,3.68a.53.53,0,0,0,.53.58h9.81c.74,0,.84.1.84.85q0,5,0,9.94c0,.74-.11.85-.84.85h-9.5c-.73,0-.84.11-.84.85Q53,57,53,75.31c0,.85-.07.94-.89,1.07a45.26,45.26,0,0,1-6.68.56,28,28,0,0,1-5-.43l-.7-.13c0-.22,0-.4,0-.58q0-25.49,0-51a26.9,26.9,0,0,1,1.6-9.87A13.93,13.93,0,0,1,49,6.65a16.89,16.89,0,0,1,6.59-1.4m0-1.24V4A18.19,18.19,0,0,0,48.5,5.5a15.19,15.19,0,0,0-8.3,9,27.84,27.84,0,0,0-1.69,10.32q0,18.88,0,37.75V77.41l1,.19.26,0,.44.08a29,29,0,0,0,5.24.45,45.88,45.88,0,0,0,6.86-.57,2.28,2.28,0,0,0,1.53-.7,2.34,2.34,0,0,0,.42-1.6V39h9.1A2.1,2.1,0,0,0,65,38.53a2.13,2.13,0,0,0,.51-1.58q0-5,0-9.94a1.82,1.82,0,0,0-2.08-2.09H54.29c0-.15,0-.31,0-.46,0-.85,0-1.66.09-2.45a3.2,3.2,0,0,1,2.81-3.18,7.91,7.91,0,0,1,1.48-.12l.78,0A5.68,5.68,0,0,1,62.89,20a2,2,0,0,0,1.27.57,1.83,1.83,0,0,0,1.42-.82l5-6.22a1.81,1.81,0,0,0-.22-2.8,27.09,27.09,0,0,0-8.43-5.42A17.24,17.24,0,0,0,55.57,4Z"/></g></svg>