<?xml version="1.0" encoding="UTF-8"?>
<!DOCTYPE svg PUBLIC "-//W3C//DTD SVG 1.1//EN" "http://www.w3.org/Graphics/SVG/1.1/DTD/svg11.dtd">
<svg xmlns="http://www.w3.org/2000/svg" version="1.1" width="128px" height="128px" style="shape-rendering:geometricPrecision; text-rendering:geometricPrecision; image-rendering:optimizeQuality; fill-rule:evenodd; clip-rule:evenodd" xmlns:xlink="http://www.w3.org/1999/xlink">
<g><path style="opacity:0.011" fill="#dddddd" d="M 79.5,3.5 C 78.1667,3.5 76.8333,3.5 75.5,3.5C 73.3926,2.53178 71.0593,2.19845 68.5,2.5C 65.1667,1.16667 61.8333,1.16667 58.5,2.5C 55.9407,2.19845 53.6074,2.53178 51.5,3.5C 50.1667,3.5 48.8333,3.5 47.5,3.5C 58.1667,-0.5 68.8333,-0.5 79.5,3.5 Z"/></g>
<g><path style="opacity:0.994" fill="#fbfafa" d="M 58.5,2.5 C 61.8333,2.5 65.1667,2.5 68.5,2.5C 70.6074,3.46822 72.9407,3.80155 75.5,3.5C 76.5676,4.43448 77.901,4.76781 79.5,4.5C 80.209,5.40397 81.209,5.73731 82.5,5.5C 82.8417,6.33825 83.5084,6.67158 84.5,6.5C 84.5,7.16667 84.8333,7.5 85.5,7.5C 86.1667,7.5 86.8333,7.5 87.5,7.5C 87.8417,8.33825 88.5084,8.67158 89.5,8.5C 89.8417,9.33825 90.5084,9.67158 91.5,9.5C 91.8417,10.3382 92.5084,10.6716 93.5,10.5C 93.5,11.1667 93.8333,11.5 94.5,11.5C 94.8417,12.3382 95.5084,12.6716 96.5,12.5C 96.5,13.1667 96.8333,13.5 97.5,13.5C 97.5,14.1667 97.8333,14.5 98.5,14.5C 98.5,15.1667 98.8333,15.5 99.5,15.5C 99.8333,15.5 100.167,15.5 100.5,15.5C 100.5,16.1667 100.833,16.5 101.5,16.5C 101.5,17.1667 101.833,17.5 102.5,17.5C 102.5,18.1667 102.833,18.5 103.5,18.5C 103.5,19.1667 103.833,19.5 104.5,19.5C 104.5,20.1667 104.833,20.5 105.5,20.5C 105.5,21.1667 105.833,21.5 106.5,21.5C 106.5,22.1667 106.833,22.5 107.5,22.5C 107.5,23.1667 107.833,23.5 108.5,23.5C 108.5,24.1667 108.833,24.5 109.5,24.5C 109.5,24.8333 109.5,25.1667 109.5,25.5C 109.5,26.1667 109.833,26.5 110.5,26.5C 110.5,27.1667 110.833,27.5 111.5,27.5C 111.5,28.1667 111.833,28.5 112.5,28.5C 112.5,28.8333 112.5,29.1667 112.5,29.5C 112.5,30.1667 112.833,30.5 113.5,30.5C 113.5,30.8333 113.5,31.1667 113.5,31.5C 113.5,32.1667 113.833,32.5 114.5,32.5C 114.5,33.1667 114.833,33.5 115.5,33.5C 115.328,34.4916 115.662,35.1583 116.5,35.5C 116.328,36.4916 116.662,37.1583 117.5,37.5C 117.5,37.8333 117.5,38.1667 117.5,38.5C 117.5,38.8333 117.5,39.1667 117.5,39.5C 117.932,40.7095 118.599,41.7095 119.5,42.5C 122.673,57.0359 122.006,71.3693 117.5,85.5C 112.605,93.7296 106.605,101.063 99.5,107.5C 85.5985,118.058 69.9318,121.892 52.5,119C 45.9355,117.312 39.6022,115.146 33.5,112.5C 24.2319,115.15 14.8986,117.484 5.5,119.5C 5.5,118.833 5.5,118.167 5.5,117.5C 5.5,117.167 5.5,116.833 5.5,116.5C 7.59686,107.613 9.9302,98.7797 12.5,90C 11.9341,89.0053 11.2674,88.172 10.5,87.5C 10.6716,86.5084 10.3382,85.8417 9.5,85.5C 3.61456,70.9011 3.28122,56.2345 8.5,41.5C 8.5,41.1667 8.5,40.8333 8.5,40.5C 9.16667,40.5 9.5,40.1667 9.5,39.5C 9.5,39.1667 9.5,38.8333 9.5,38.5C 9.5,38.1667 9.5,37.8333 9.5,37.5C 10.3382,37.1583 10.6716,36.4916 10.5,35.5C 11.1667,35.5 11.5,35.1667 11.5,34.5C 12.1667,34.5 12.5,34.1667 12.5,33.5C 12.5,33.1667 12.5,32.8333 12.5,32.5C 13.1667,32.5 13.5,32.1667 13.5,31.5C 13.5,31.1667 13.5,30.8333 13.5,30.5C 14.1667,30.5 14.5,30.1667 14.5,29.5C 15.1667,29.5 15.5,29.1667 15.5,28.5C 15.5,28.1667 15.5,27.8333 15.5,27.5C 16.1667,27.5 16.5,27.1667 16.5,26.5C 17.1667,26.5 17.5,26.1667 17.5,25.5C 17.5,25.1667 17.5,24.8333 17.5,24.5C 18.1667,24.5 18.5,24.1667 18.5,23.5C 19.1667,23.5 19.5,23.1667 19.5,22.5C 20.1667,22.5 20.5,22.1667 20.5,21.5C 21.1667,21.5 21.5,21.1667 21.5,20.5C 22.1667,20.5 22.5,20.1667 22.5,19.5C 23.1667,19.5 23.5,19.1667 23.5,18.5C 24.1667,18.5 24.5,18.1667 24.5,17.5C 25.1667,17.5 25.5,17.1667 25.5,16.5C 26.1667,16.5 26.5,16.1667 26.5,15.5C 26.8333,15.5 27.1667,15.5 27.5,15.5C 28.1667,15.5 28.5,15.1667 28.5,14.5C 29.1667,14.5 29.5,14.1667 29.5,13.5C 30.1667,13.5 30.5,13.1667 30.5,12.5C 31.4916,12.6716 32.1583,12.3382 32.5,11.5C 33.1667,11.5 33.5,11.1667 33.5,10.5C 34.4916,10.6716 35.1583,10.3382 35.5,9.5C 36.4916,9.67158 37.1583,9.33825 37.5,8.5C 38.4916,8.67158 39.1583,8.33825 39.5,7.5C 40.1667,7.5 40.8333,7.5 41.5,7.5C 42.1667,7.5 42.5,7.16667 42.5,6.5C 43.4916,6.67158 44.1583,6.33825 44.5,5.5C 45.791,5.73731 46.791,5.40397 47.5,4.5C 49.099,4.76781 50.4324,4.43448 51.5,3.5C 54.0593,3.80155 56.3926,3.46822 58.5,2.5 Z"/></g>
<g><path style="opacity:0.024" fill="#bbbbbb" d="M 79.5,4.5 C 79.5,4.16667 79.5,3.83333 79.5,3.5C 84.9369,3.88959 89.6036,5.88959 93.5,9.5C 92.8333,9.5 92.1667,9.5 91.5,9.5C 91.1583,8.66175 90.4916,8.32842 89.5,8.5C 89.1583,7.66175 88.4916,7.32842 87.5,7.5C 86.8333,6.16667 86.1667,6.16667 85.5,7.5C 84.8333,7.5 84.5,7.16667 84.5,6.5C 84.1583,5.66175 83.4916,5.32842 82.5,5.5C 81.791,4.59603 80.791,4.26269 79.5,4.5 Z"/></g>
<g><path style="opacity:0.02" fill="#bdbdbd" d="M 47.5,3.5 C 47.5,3.83333 47.5,4.16667 47.5,4.5C 46.209,4.26269 45.209,4.59603 44.5,5.5C 43.5084,5.32842 42.8417,5.66175 42.5,6.5C 42.5,7.16667 42.1667,7.5 41.5,7.5C 40.8333,6.16667 40.1667,6.16667 39.5,7.5C 38.5084,7.32842 37.8417,7.66175 37.5,8.5C 36.5084,8.32842 35.8417,8.66175 35.5,9.5C 34.8333,9.5 34.1667,9.5 33.5,9.5C 37.3964,5.88959 42.0631,3.88959 47.5,3.5 Z"/></g>
<g><path style="opacity:0.02" fill="#bfbfbf" d="M 33.5,9.5 C 33.5,9.83333 33.5,10.1667 33.5,10.5C 32.8333,10.5 32.5,10.8333 32.5,11.5C 31.8333,11.5 31.1667,11.5 30.5,11.5C 30.9731,10.0937 31.9731,9.42702 33.5,9.5 Z"/></g>
<g><path style="opacity:0.016" fill="#8a8a8a" d="M 30.5,11.5 C 30.5,11.8333 30.5,12.1667 30.5,12.5C 29.8333,12.5 29.5,12.8333 29.5,13.5C 28.8333,13.5 28.5,13.8333 28.5,14.5C 28.5,15.1667 28.1667,15.5 27.5,15.5C 27.1667,14.1667 26.8333,14.1667 26.5,15.5C 25.8333,15.5 25.5,15.8333 25.5,16.5C 24.8333,16.5 24.5,16.8333 24.5,17.5C 23.8333,17.5 23.5,17.8333 23.5,18.5C 22.8333,18.5 22.5,18.8333 22.5,19.5C 21.8333,19.5 21.5,19.8333 21.5,20.5C 20.8333,20.5 20.5,20.8333 20.5,21.5C 19.8333,21.5 19.5,21.8333 19.5,22.5C 18.8333,22.5 18.5,22.8333 18.5,23.5C 18.1667,23.5 17.8333,23.5 17.5,23.5C 17.5,22.8333 17.5,22.1667 17.5,21.5C 20.4257,18.6828 23.4257,15.8494 26.5,13C 27.745,12.2086 29.0783,11.7086 30.5,11.5 Z"/></g>
<g><path style="opacity:0.02" fill="#737373" d="M 93.5,10.5 C 93.5,10.1667 93.5,9.83333 93.5,9.5C 100.026,12.6903 105.692,17.0236 110.5,22.5C 110.5,23.1667 110.5,23.8333 110.5,24.5C 110.167,24.5 109.833,24.5 109.5,24.5C 108.833,24.5 108.5,24.1667 108.5,23.5C 107.833,23.5 107.5,23.1667 107.5,22.5C 106.833,22.5 106.5,22.1667 106.5,21.5C 105.833,21.5 105.5,21.1667 105.5,20.5C 104.833,20.5 104.5,20.1667 104.5,19.5C 103.833,19.5 103.5,19.1667 103.5,18.5C 102.833,18.5 102.5,18.1667 102.5,17.5C 101.833,17.5 101.5,17.1667 101.5,16.5C 100.833,16.5 100.5,16.1667 100.5,15.5C 100.167,14.1667 99.8333,14.1667 99.5,15.5C 98.8333,15.5 98.5,15.1667 98.5,14.5C 97.8333,14.5 97.5,14.1667 97.5,13.5C 96.8333,13.5 96.5,13.1667 96.5,12.5C 96.1583,11.6618 95.4916,11.3284 94.5,11.5C 93.8333,11.5 93.5,11.1667 93.5,10.5 Z"/></g>
<g><path style="opacity:1" fill="#ed3c36" d="M 80.5,24.5 C 77.3052,31.4179 74.3052,38.4179 71.5,45.5C 66.6518,43.2703 61.6518,42.937 56.5,44.5C 55.8333,44.1667 55.1667,43.8333 54.5,43.5C 52.3003,36.768 49.3003,30.4347 45.5,24.5C 50.6718,21.5642 56.3385,20.2308 62.5,20.5C 68.9695,20.2871 74.9695,21.6204 80.5,24.5 Z"/></g>
<g><path style="opacity:0.005" fill="#171717" d="M 110.5,22.5 C 112.262,23.2623 113.262,24.5956 113.5,26.5C 112.604,25.4937 111.938,25.4937 111.5,26.5C 111.167,26.5 110.833,26.5 110.5,26.5C 109.833,26.5 109.5,26.1667 109.5,25.5C 110.167,25.5 110.5,25.1667 110.5,24.5C 110.5,23.8333 110.5,23.1667 110.5,22.5 Z"/></g>
<g><path style="opacity:1" fill="#6f5aa4" d="M 45.5,24.5 C 49.3003,30.4347 52.3003,36.768 54.5,43.5C 46.5947,42.9494 42.9281,46.6161 43.5,54.5C 42.6009,55.4715 41.4343,56.1382 40,56.5C 34.8968,55.0984 29.7301,54.0984 24.5,53.5C 24.7373,52.209 24.404,51.209 23.5,50.5C 26.8739,38.4612 34.2073,29.7945 45.5,24.5 Z"/></g>
<g><path style="opacity:1" fill="#f5a539" d="M 80.5,24.5 C 93.2486,29.5884 100.915,38.9217 103.5,52.5C 95.9966,53.5431 88.6633,55.2098 81.5,57.5C 79.9601,51.9638 76.6268,47.9638 71.5,45.5C 74.3052,38.4179 77.3052,31.4179 80.5,24.5 Z"/></g>
<g><path style="opacity:0.005" fill="#000000" d="M 113.5,26.5 C 114.906,26.9731 115.573,27.9731 115.5,29.5C 114.094,29.0269 113.427,28.0269 113.5,26.5 Z"/></g>
<g><path style="opacity:0.031" fill="#484848" d="M 17.5,21.5 C 17.5,22.1667 17.5,22.8333 17.5,23.5C 17.5,23.8333 17.5,24.1667 17.5,24.5C 16.1667,24.8333 16.1667,25.1667 17.5,25.5C 17.5,26.1667 17.1667,26.5 16.5,26.5C 15.8333,26.5 15.5,26.8333 15.5,27.5C 14.1667,27.8333 14.1667,28.1667 15.5,28.5C 15.5,29.1667 15.1667,29.5 14.5,29.5C 13.8333,29.5 13.5,29.8333 13.5,30.5C 12.1667,30.8333 12.1667,31.1667 13.5,31.5C 13.5,32.1667 13.1667,32.5 12.5,32.5C 11.1667,32.8333 11.1667,33.1667 12.5,33.5C 12.5,34.1667 12.1667,34.5 11.5,34.5C 10.8333,34.5 10.5,34.8333 10.5,35.5C 9.66175,35.8417 9.32842,36.5084 9.5,37.5C 9.5,37.8333 9.5,38.1667 9.5,38.5C 8.16667,38.8333 8.16667,39.1667 9.5,39.5C 9.5,40.1667 9.16667,40.5 8.5,40.5C 7.83333,40.5 7.5,40.8333 7.5,41.5C 7.16667,41.5 6.83333,41.5 6.5,41.5C 6.5,40.5 6.5,39.5 6.5,38.5C 8.92426,31.9735 12.5909,26.3068 17.5,21.5 Z"/></g>
<g><path style="opacity:0.035" fill="#5d5d5d" d="M 113.5,26.5 C 113.427,28.0269 114.094,29.0269 115.5,29.5C 119.773,34.7195 122.44,40.7195 123.5,47.5C 123.667,52.1743 124.001,56.841 124.5,61.5C 124.46,65.7397 123.794,69.7397 122.5,73.5C 124.326,62.7663 123.326,52.433 119.5,42.5C 118.599,41.7095 117.932,40.7095 117.5,39.5C 118.833,39.1667 118.833,38.8333 117.5,38.5C 117.5,38.1667 117.5,37.8333 117.5,37.5C 117.672,36.5084 117.338,35.8417 116.5,35.5C 116.672,34.5084 116.338,33.8417 115.5,33.5C 114.833,33.5 114.5,33.1667 114.5,32.5C 113.833,32.5 113.5,32.1667 113.5,31.5C 114.833,31.1667 114.833,30.8333 113.5,30.5C 112.833,30.5 112.5,30.1667 112.5,29.5C 112.5,29.1667 112.5,28.8333 112.5,28.5C 111.833,28.5 111.5,28.1667 111.5,27.5C 111.5,27.1667 111.5,26.8333 111.5,26.5C 111.938,25.4937 112.604,25.4937 113.5,26.5 Z"/></g>
<g><path style="opacity:0.005" fill="#000000" d="M 6.5,38.5 C 6.5,39.5 6.5,40.5 6.5,41.5C 5.83333,42.1667 5.16667,42.8333 4.5,43.5C 4.40206,41.4471 5.06873,39.7804 6.5,38.5 Z"/></g>
<g><path style="opacity:0.049" fill="#0f0f0f" d="M 119.5,42.5 C 123.326,52.433 124.326,62.7663 122.5,73.5C 121.13,76.6189 120.13,79.9523 119.5,83.5C 118.833,84.1667 118.167,84.8333 117.5,85.5C 122.006,71.3693 122.673,57.0359 119.5,42.5 Z"/></g>
<g><path style="opacity:0.016" fill="#767676" d="M 6.5,41.5 C 5.12904,48.096 4.12904,54.7627 3.5,61.5C 4.29618,68.2324 5.12952,74.8991 6,81.5C 2.54158,70.3733 1.70824,59.0399 3.5,47.5C 3.23219,45.901 3.56552,44.5676 4.5,43.5C 5.16667,42.8333 5.83333,42.1667 6.5,41.5 Z"/></g>
<g><path style="opacity:1" fill="#f4f3f5" d="M 54.5,43.5 C 55.1667,43.8333 55.8333,44.1667 56.5,44.5C 60.7085,48.1046 61.5418,52.4379 59,57.5C 54.6873,61.0203 50.1873,61.3536 45.5,58.5C 44.3995,57.3951 43.7329,56.0618 43.5,54.5C 42.9281,46.6161 46.5947,42.9494 54.5,43.5 Z"/></g>
<g><path style="opacity:1" fill="#050403" d="M 71.5,45.5 C 76.6268,47.9638 79.9601,51.9638 81.5,57.5C 81.8798,62.8192 80.8798,67.8192 78.5,72.5C 74.6755,77.2444 69.6755,79.5777 63.5,79.5C 57.6575,79.08 52.6575,76.7467 48.5,72.5C 46.3068,68.1051 45.3068,63.4385 45.5,58.5C 50.1873,61.3536 54.6873,61.0203 59,57.5C 61.5418,52.4379 60.7085,48.1046 56.5,44.5C 61.6518,42.937 66.6518,43.2703 71.5,45.5 Z"/></g>
<g><path style="opacity:0.01" fill="#060606" d="M 6.5,41.5 C 6.83333,41.5 7.16667,41.5 7.5,41.5C 7.83333,41.5 8.16667,41.5 8.5,41.5C 3.28122,56.2345 3.61456,70.9011 9.5,85.5C 8.77842,85.0825 8.27842,84.4158 8,83.5C 7.83333,84 7.66667,84.5 7.5,85C 8.62783,86.4681 9.2945,88.1348 9.5,90C 8.35272,96.1057 6.68605,101.939 4.5,107.5C 5.11315,102.434 6.11315,97.4343 7.5,92.5C 0.490551,77.8296 -0.842782,62.8296 3.5,47.5C 1.70824,59.0399 2.54158,70.3733 6,81.5C 5.12952,74.8991 4.29618,68.2324 3.5,61.5C 4.12904,54.7627 5.12904,48.096 6.5,41.5 Z"/></g>
<g><path style="opacity:0.027" fill="#0d0d0d" d="M 123.5,47.5 C 130.339,76.677 121.339,99.8437 96.5,117C 75.7704,128.622 54.6037,129.456 33,119.5C 24.4774,121.396 15.9774,123.396 7.5,125.5C 1.90317,124.474 0.0698387,121.141 2,115.5C 2.54603,112.621 3.37936,109.954 4.5,107.5C 3.91965,111.879 3.41965,116.212 3,120.5C 3.66667,117.833 4.33333,117.833 5,120.5C 5.39877,120.272 5.56544,119.938 5.5,119.5C 14.8986,117.484 24.2319,115.15 33.5,112.5C 39.6022,115.146 45.9355,117.312 52.5,119C 69.9318,121.892 85.5985,118.058 99.5,107.5C 100.789,108.501 102.122,108.334 103.5,107C 110.972,100.535 116.305,92.7018 119.5,83.5C 121.68,80.619 122.68,77.2856 122.5,73.5C 123.794,69.7397 124.46,65.7397 124.5,61.5C 124.001,56.841 123.667,52.1743 123.5,47.5 Z"/></g>
<g><path style="opacity:1" fill="#f1d02f" d="M 103.5,52.5 C 106.635,65.441 103.969,77.1076 95.5,87.5C 89.4912,82.8207 83.8246,77.8207 78.5,72.5C 80.8798,67.8192 81.8798,62.8192 81.5,57.5C 88.6633,55.2098 95.9966,53.5431 103.5,52.5 Z"/></g>
<g><path style="opacity:1" fill="#494d9d" d="M 23.5,50.5 C 24.404,51.209 24.7373,52.209 24.5,53.5C 29.7301,54.0984 34.8968,55.0984 40,56.5C 41.4343,56.1382 42.6009,55.4715 43.5,54.5C 43.7329,56.0618 44.3995,57.3951 45.5,58.5C 45.3068,63.4385 46.3068,68.1051 48.5,72.5C 43.2325,78.1308 37.2325,82.7975 30.5,86.5C 23.0435,75.5496 20.7102,63.5496 23.5,50.5 Z"/></g>
<g><path style="opacity:1" fill="#10a1cf" d="M 48.5,72.5 C 52.6575,76.7467 57.6575,79.08 63.5,79.5C 63.5,87.1667 63.5,94.8333 63.5,102.5C 49.7519,102.792 38.7519,97.4591 30.5,86.5C 37.2325,82.7975 43.2325,78.1308 48.5,72.5 Z"/></g>
<g><path style="opacity:1" fill="#7fbd5e" d="M 78.5,72.5 C 83.8246,77.8207 89.4912,82.8207 95.5,87.5C 87.2803,97.4738 76.6136,102.474 63.5,102.5C 63.5,94.8333 63.5,87.1667 63.5,79.5C 69.6755,79.5777 74.6755,77.2444 78.5,72.5 Z"/></g>
<g><path style="opacity:0.059" fill="#656565" d="M 122.5,73.5 C 122.68,77.2856 121.68,80.619 119.5,83.5C 120.13,79.9523 121.13,76.6189 122.5,73.5 Z"/></g>
<g><path style="opacity:0.039" fill="#040404" d="M 10.5,87.5 C 11.2674,88.172 11.9341,89.0053 12.5,90C 9.9302,98.7797 7.59686,107.613 5.5,116.5C 5.16667,116.5 4.83333,116.5 4.5,116.5C 6.97609,106.929 8.97609,97.2627 10.5,87.5 Z"/></g>
<g><path style="opacity:0.051" fill="#7c7c7c" d="M 9.5,85.5 C 10.3382,85.8417 10.6716,86.5084 10.5,87.5C 8.97609,97.2627 6.97609,106.929 4.5,116.5C 4.5,117.167 4.83333,117.5 5.5,117.5C 5.5,118.167 5.5,118.833 5.5,119.5C 5.56544,119.938 5.39877,120.272 5,120.5C 4.33333,117.833 3.66667,117.833 3,120.5C 3.41965,116.212 3.91965,111.879 4.5,107.5C 6.68605,101.939 8.35272,96.1057 9.5,90C 9.2945,88.1348 8.62783,86.4681 7.5,85C 7.66667,84.5 7.83333,84 8,83.5C 8.27842,84.4158 8.77842,85.0825 9.5,85.5 Z"/></g>
<g><path style="opacity:0.149" fill="#363636" d="M 119.5,83.5 C 116.305,92.7018 110.972,100.535 103.5,107C 102.122,108.334 100.789,108.501 99.5,107.5C 106.605,101.063 112.605,93.7296 117.5,85.5C 118.167,84.8333 118.833,84.1667 119.5,83.5 Z"/></g>
<g><path style="opacity:0.122" fill="#434343" d="M 50.5,121.5 C 59.0034,121.636 67.6701,121.469 76.5,121C 67.8699,122.831 59.2032,122.998 50.5,121.5 Z"/></g>
</svg>
