<svg xmlns="http://www.w3.org/2000/svg" width="600" height="600" fill="none"><path d="M588 480H12c-6.627 0-12 5.373-12 12v96c0 6.627 5.373 12 12 12h576c6.627 0 12-5.373 12-12v-96c0-6.627-5.373-12-12-12z" fill="#ffe697"/><path d="M360 480h207.92a239.94 239.94 0 0 1-87.864 87.869A239.92 239.92 0 0 1 360.02 600V480z" fill="#ffcf59"/><path d="M588 240H240v108c0 6.627 5.373 12 12 12h348V252c0-6.627-5.373-12-12-12zm-480 0H12c-6.627 0-12 5.373-12 12v96c0 6.627 5.373 12 12 12h96c6.627 0 12-5.373 12-12v-96c0-6.627-5.373-12-12-12z" fill="#aae7ed"/><path d="M588 0H12C5.373 0 0 5.373 0 12v96c0 6.627 5.373 12 12 12h576c6.627 0 12-5.373 12-12V12c0-6.627-5.373-12-12-12z" fill="#b0bbff"/><path d="M480 120H272.1c21.06-36.498 51.362-66.805 87.857-87.87S437.862-.018 480 0z" fill="#5168ec"/><path d="M479.92 120h.12V0h108c6.627 0 12 5.373 12 12v96c0 6.627-5.373 12-12 12H479.92a120 120 0 0 0-84.775 35.19 119.986 119.986 0 0 0-35.105 84.8h-120a238.957 238.957 0 0 1 32.1-120z" fill="#b0bbff"/><path d="M567.92 480H360a120.003 120.003 0 0 0 120-120h120a238.902 238.902 0 0 1-32.08 120z" fill="#ffe697"/></svg>