<?xml version="1.0" encoding="UTF-8"?>
<svg version="1.1" xmlns="http://www.w3.org/2000/svg" width="72" height="72">
<path d="M0 0 C6.86036613 5.546679 12.44552789 11.4524217 13.9375 20.375 C14.78623415 28.74109381 14.02467792 36.0308066 9.0859375 42.98046875 C3.14868539 50.08209363 -3.35865908 54.93707335 -12.6875 56.1875 C-14.358125 56.2803125 -14.358125 56.2803125 -16.0625 56.375 C-16.0625 58.025 -16.0625 59.675 -16.0625 61.375 C-25.98022632 61.0076768 -33.51464467 55.80088624 -40.23828125 48.72265625 C-46.31477691 40.90258368 -49.71226834 32.28396722 -49.0625 22.375 C-47.4404948 13.40188864 -43.06774213 7.49149886 -36.8125 1.0625 C-24.69394182 -6.37388797 -12.42728436 -6.59406925 0 0 Z " fill="#5DAF02" transform="translate(53.0625,7.625)"/>
<path d="M0 0 C4.00521387 2.88747977 7.46370991 6.48991981 9.6875 10.9375 C10.42151972 18.08516743 9.99277183 24.02474031 5.6875 29.9375 C1.39813845 34.11687792 -2.27500061 35.84047622 -8.25 36.125 C-10.74016059 36.06904133 -12.90785755 35.82814861 -15.375 35.375 C-18.88183189 34.85270589 -21.8398969 35.31243144 -25.3125 35.9375 C-25.27769531 34.94169922 -25.27769531 34.94169922 -25.2421875 33.92578125 C-25.14098719 28.97419476 -25.38079808 25.52529207 -27.3125 20.9375 C-27.92807618 14.67914221 -27.18282929 10.02122982 -23.3125 4.9375 C-16.47308265 -1.7316414 -8.98434171 -2.88176998 0 0 Z " fill="#EBF8EA" transform="translate(44.3125,15.0625)"/>
<path d="M0 0 C3.16192671 5.40424923 2.55555383 11.34059107 1.640625 17.3671875 C-0.4059935 25.13880639 -5.96229539 31.2770418 -12.53125 35.70703125 C-17.65839014 38.45258314 -22.21006943 39.67833719 -28 40 C-28 41.65 -28 43.3 -28 45 C-37.91772632 44.6326768 -45.45214467 39.42588624 -52.17578125 32.34765625 C-58.29877189 24.46774752 -61.54355511 15.96517698 -61 6 C-59.98828125 3.78515625 -59.98828125 3.78515625 -59 2 C-58.96261719 2.845625 -58.92523438 3.69125 -58.88671875 4.5625 C-58.20144598 16.3868144 -55.80109926 24.60988334 -46.99609375 32.8828125 C-41.4982723 37.42662916 -35.58445192 40.32929707 -29 43 C-29 41.02 -29 39.04 -29 37 C-28.23816406 36.85304687 -27.47632813 36.70609375 -26.69140625 36.5546875 C-17.27978522 34.51021552 -10.24240897 31.59649172 -4.5625 23.5625 C0.08500181 15.81237232 0.26124677 8.83884922 0 0 Z " fill="#050A00" transform="translate(65,24)"/>
<path d="M0 0 C0.66 0.99 1.32 1.98 2 3 C4.55183404 4.20450304 4.55183404 4.20450304 7 5 C6.67 5.66 6.34 6.32 6 7 C3.67843403 7.40729228 1.3431213 7.74438677 -1 8 C-0.67 5.36 -0.34 2.72 0 0 Z " fill="#B5DC99" transform="translate(20,43)"/>
<path d="M0 0 C-1.38188453 3.21043882 -2.92421903 5.04936365 -5.625 7.25 C-6.57246094 8.03117187 -6.57246094 8.03117187 -7.5390625 8.828125 C-8.02117188 9.21484375 -8.50328125 9.6015625 -9 10 C-7.6834994 5.81113445 -4.97532335 0 0 0 Z " fill="#599D00" transform="translate(18,9)"/>
</svg>
