<?xml version="1.0" encoding="UTF-8" standalone="no"?>
<!DOCTYPE svg PUBLIC "-//W3C//DTD SVG 1.1//EN" "http://www.w3.org/Graphics/SVG/1.1/DTD/svg11.dtd">
<svg width="100%" height="100%" viewBox="0 0 256 256" version="1.1" xmlns="http://www.w3.org/2000/svg" xmlns:xlink="http://www.w3.org/1999/xlink" xml:space="preserve" xmlns:serif="http://www.serif.com/" style="fill-rule:evenodd;clip-rule:evenodd;stroke-linejoin:round;stroke-miterlimit:2;">
    <g transform="matrix(1.05297,0,0,1,17.0412,-11.1978)">
        <circle cx="101.09" cy="122.221" r="109.771" style="fill:rgb(168,228,154);"/>
    </g>
    <path d="M20.782,171.139C12.122,155.338 7.29,137.698 7.29,118.795C7.29,56.981 59.466,6.797 123.733,6.797C187.999,6.797 240.176,56.981 240.176,118.795C240.176,180.362 188.414,230.393 124.5,230.79L124.5,253.5C102.402,248.27 83.141,237.615 65.681,224.494C47.285,210.671 30.484,188.84 20.782,171.139Z" style="fill:rgb(105,203,6);"/>
    <g transform="matrix(0.99871,0.0507683,-0.0507683,0.99871,5.13543,1.23985)">
        <path d="M65.03,159.096C57.048,147.49 52.374,133.435 52.374,118.297C52.374,78.49 84.692,46.173 124.498,46.173C164.304,46.173 196.622,78.49 196.622,118.297C196.622,146.831 180.015,171.518 155.948,183.211C155.799,183.307 155.649,183.404 155.5,183.5C155.178,183.628 154.856,183.755 154.533,183.879C145.387,188.079 135.214,190.421 124.498,190.421C113.667,190.421 103.39,188.028 94.167,183.742C93.945,183.662 93.723,183.581 93.5,183.5C89.56,185.677 85.074,187.896 80.5,189C75.667,190.167 67.833,190.667 64.5,190.5C62.93,190.421 59.395,190.516 61.078,186.844C63.284,182.03 67.624,170.354 65.03,159.096Z" style="fill:rgb(36,143,27);fill-opacity:0.5;"/>
    </g>
    <path d="M65.03,159.096C57.048,147.49 52.374,133.435 52.374,118.297C52.374,78.49 84.692,46.173 124.498,46.173C164.304,46.173 196.622,78.49 196.622,118.297C196.622,146.831 180.015,171.518 155.948,183.211C155.799,183.307 155.649,183.404 155.5,183.5C155.178,183.628 154.856,183.755 154.533,183.879C145.387,188.079 135.214,190.421 124.498,190.421C113.667,190.421 103.39,188.028 94.167,183.742C93.945,183.662 93.723,183.581 93.5,183.5C89.56,185.677 85.074,187.896 80.5,189C75.667,190.167 67.833,190.667 64.5,190.5C62.93,190.421 59.395,190.516 61.078,186.844C63.284,182.03 67.624,170.354 65.03,159.096Z" style="fill:rgb(250,254,250);"/>
    <g>
        <g>
            <g transform="matrix(1.38569,0,0,1.38569,-46.2666,-48.6627)">
                <circle cx="122.955" cy="120.831" r="5.808" style="fill:rgb(36,143,27);"/>
            </g>
            <g transform="matrix(1.32348,0,0,1.20218,-38.6431,-24.9957)">
                <circle cx="122.955" cy="120.831" r="5.808" style="fill:rgb(68,177,18);"/>
            </g>
        </g>
        <g transform="matrix(1,0,0,1,-34.1415,0)">
            <g transform="matrix(1.38569,0,0,1.38569,-46.2666,-48.6627)">
                <circle cx="122.955" cy="120.831" r="5.808" style="fill:rgb(36,143,27);"/>
            </g>
            <g transform="matrix(1.32348,0,0,1.20218,-38.6431,-24.9957)">
                <circle cx="122.955" cy="120.831" r="5.808" style="fill:rgb(68,177,18);"/>
            </g>
        </g>
        <g transform="matrix(1,0,0,1,35.6318,0)">
            <g transform="matrix(1.38569,0,0,1.38569,-46.2666,-48.6627)">
                <circle cx="122.955" cy="120.831" r="5.808" style="fill:rgb(36,143,27);"/>
            </g>
            <g transform="matrix(1.32348,0,0,1.20218,-38.6431,-24.9957)">
                <circle cx="122.955" cy="120.831" r="5.808" style="fill:rgb(68,177,18);"/>
            </g>
        </g>
    </g>
</svg>
