<svg width="114" height="114" viewBox="0 0 114 114" fill="none" xmlns="http://www.w3.org/2000/svg">
<path d="M113.424 94.3046C113.185 94.1452 112.947 94.0655 112.628 94.1452C106.659 85.2967 99.0173 76.9265 91.6945 68.7954L90.5005 67.4402C90.5005 67.2808 90.4209 67.1213 90.3413 67.0416C90.1821 66.8822 90.0229 66.8025 89.8637 66.7227L89.625 66.4836C89.5454 66.4039 89.5454 66.4039 89.4658 66.3242C89.227 65.8459 88.6698 65.527 88.1126 65.8459C85.8839 66.9619 83.8144 68.636 81.8245 70.2303C79.1978 72.3029 76.5712 74.3755 74.1037 76.6873C73.0689 77.6439 72.1138 78.6005 71.3178 79.6368C70.9198 80.1948 71.2382 80.6731 71.7158 80.9123C69.9647 82.666 68.2135 84.4198 66.4624 86.2533C66.3032 86.4127 66.2236 86.6519 66.2236 86.891C66.2236 87.1302 66.3828 87.3693 66.542 87.449L69.6463 89.8405C69.6463 89.8405 69.6463 89.8405 69.6463 89.9202C74.0241 94.3046 81.7449 100.283 89.9433 106.74C91.1373 107.697 92.4108 108.654 93.6048 109.61C94.162 110.248 94.7191 110.965 95.1967 111.603C95.4355 111.922 95.9927 112.002 96.3111 111.763C96.4702 111.922 96.709 112.081 96.8682 112.241C97.0274 112.321 97.1866 112.4 97.3458 112.4C97.5846 112.4 97.8234 112.321 97.9826 112.081C98.0622 111.922 98.1418 111.763 98.1418 111.603C98.2214 111.603 98.2214 111.683 98.301 111.683C98.5398 111.683 98.7786 111.603 98.9378 111.444L113.424 95.5801C113.822 95.1815 113.743 94.6235 113.424 94.3046ZM71.7158 88.8042C71.7954 88.9636 71.875 89.0434 72.0342 89.2028C73.7057 90.6377 75.4568 92.0726 77.2875 93.6669L69.9646 88.0868C69.9646 88.0868 69.4871 87.7679 69.2483 87.6085C69.0891 87.5287 68.9299 87.3693 68.7707 87.2896L68.2135 86.8113C68.2931 86.7316 68.2931 86.7316 68.3727 86.6519C68.4523 86.5721 68.4523 86.5722 68.5319 86.4924C68.6115 86.4127 68.7707 86.2533 68.8503 86.1736C71.3178 83.7024 75.5364 79.5571 77.6855 77.4845C75.3772 79.7962 70.7606 86.5721 71.7158 88.8042ZM96.709 108.574L90.6597 103.95C88.2718 101.479 85.8043 99.0876 83.1777 96.7759C86.4411 99.2471 89.227 101.399 89.625 101.798C92.8088 104.588 92.6496 104.11 94.7987 105.943L97.4254 107.856C97.2662 108.096 97.0274 108.335 96.709 108.574ZM98.301 109.77L98.1418 109.69C98.3806 109.53 98.6194 109.371 98.8582 109.132L98.301 109.77Z" fill="#6965DB"/>
<path d="M2.78587 16.4216C2.94507 17.4579 3.18386 18.4942 3.34306 19.4508C4.29821 24.7121 5.25338 29.4951 7.0045 33.0823L7.72086 35.7927C7.95965 36.829 8.35762 38.1044 8.7556 38.4233C12.815 42.0105 19.0235 47.3515 25.7096 52.4534C26.028 52.6925 26.426 52.6925 26.7444 52.4534C26.7444 52.4534 26.7444 52.5331 26.824 52.5331C26.9832 52.6925 27.1424 52.7723 27.3811 52.7723C27.6199 52.7723 27.8587 52.6925 28.0179 52.5331C36.5347 43.0469 42.9025 35.2346 47.4394 28.6979C47.7578 28.379 47.8374 27.9007 47.8374 27.5022C48.1558 27.1833 48.3946 26.7847 48.713 26.5455C49.0314 26.2267 49.0314 25.6687 48.713 25.4295L48.6334 25.3498C48.6334 25.1904 48.5538 24.9512 48.3946 24.8715C46.4047 22.9583 44.972 21.6031 43.4596 20.1682C40.8329 17.697 38.1267 15.1461 32.3957 9.40651L32.3161 9.3268C32.2365 9.24709 32.1569 9.16737 31.9978 9.16737C30.4058 8.60936 27.1424 8.05134 23.0829 7.33389C17.0336 6.29758 8.83521 4.86268 1.43275 2.63062C1.43275 2.63062 0.955161 2.63062 0.875565 2.71034C0.795969 2.79005 0.716382 2.86977 0.636786 2.94949C0.557189 3.0292 0.477578 3.10892 0 3.26835C0.0795964 3.26835 0.0796061 3.26835 0.159202 3.26835H0C0.0795964 3.74665 0.079611 4.06551 0.238804 4.62353C0.238804 4.78296 0.557184 6.05842 0.557184 6.21785L2.78587 16.4216ZM46.9619 25.8281L46.0067 24.8715C46.2455 25.1904 46.5639 25.4295 46.9619 25.8281ZM36.8531 39.2205C36.7735 39.3002 36.7735 39.3002 36.6939 39.3799C36.6939 39.3002 36.7735 39.2205 36.8531 39.2205ZM31.0426 10.5226C31.5202 11.0008 33.5101 12.914 33.9877 13.3126C31.9182 12.356 26.7444 9.96454 24.3565 9.16737C26.7444 9.64567 30.0078 10.124 31.0426 10.5226ZM3.74104 6.53673C4.93499 8.60936 5.89014 15.7838 6.84529 22.7989C6.28812 20.5668 5.89015 18.3348 5.41257 16.2621C4.6962 12.5952 3.97983 9.3268 3.02468 6.45701C3.18387 6.45701 3.42265 6.45701 3.74104 6.53673ZM3.26346 4.86268C2.94507 4.86268 2.62668 4.78297 2.38789 4.78297C2.38789 4.70325 2.38789 4.62353 2.30829 4.62353C2.70627 4.62353 2.94507 4.70325 3.26346 4.86268ZM0.159202 5.50041C0.159202 5.4207 0.159202 5.4207 0.159202 5.50041V5.50041Z" fill="#6965DB"/>
<path d="M112.151 3.74667C112.231 3.4278 110.56 1.99291 111.117 1.91319C112.311 1.83347 112.311 0 111.117 0C109.525 0.0797164 107.853 0.478294 106.341 0.717443C103.555 1.27546 100.69 1.83347 97.9037 2.4712C91.6156 3.82638 85.4071 5.26128 79.1985 6.93533C77.2882 7.49334 75.1391 7.89192 73.3084 8.84852C72.6716 9.16738 72.7513 9.80511 73.0696 10.2037C72.9104 10.2834 72.8308 10.2834 72.6717 10.3631C72.1145 10.4429 71.6369 10.5226 71.0797 10.6023C70.6021 10.682 70.3633 11.0806 70.4429 11.5589C70.4429 11.6386 70.5225 11.798 70.5225 11.8777C67.1795 16.3419 63.4385 21.0451 59.379 26.0673C55.3992 30.6908 51.1806 35.5535 46.962 40.5757C33.5102 56.3595 18.3073 74.2957 1.51246 90.0796C1.19407 90.3984 1.19407 90.8767 1.51246 91.1956C1.59205 91.2753 1.67167 91.355 1.75126 91.355C1.51247 91.5942 1.27369 91.7536 1.0349 91.9928C0.875707 92.1522 0.796096 92.3116 0.796096 92.4711C0.716499 92.5508 0.557312 92.7102 0.477715 92.8697C0.15933 93.1885 0.159334 93.7465 0.557316 93.9857C0.875702 94.3045 1.43287 94.3045 1.67166 93.906C1.75126 93.8262 1.75127 93.7465 1.83086 93.7465C2.30844 93.2682 3.10439 93.2682 3.58197 93.7465C4.53713 94.7829 5.49228 95.8191 6.36784 96.696L4.37793 95.022C4.05955 94.7031 3.50238 94.7828 3.26359 95.1017C2.9452 95.4206 3.0248 95.9786 3.34319 96.2177L24.5158 113.995C24.675 114.154 24.8342 114.154 25.073 114.154C25.3118 114.154 25.471 114.074 25.6302 113.915C25.7894 113.755 25.9486 113.596 26.1078 113.436C26.1874 113.516 26.3465 113.516 26.4261 113.516C26.6649 113.516 26.8241 113.436 26.9833 113.277C55.638 84.4197 78.721 62.6571 105.147 43.2063C105.386 43.0469 105.465 42.728 105.465 42.4889C105.784 42.4889 106.023 42.2497 106.182 41.9309C111.037 27.0239 111.992 13.7909 112.311 7.25419V7.17448C112.311 7.09476 112.39 7.01504 112.39 6.93533C112.47 6.77589 112.47 6.69618 112.47 6.69618C112.709 5.73958 112.549 4.62355 112.151 3.74667ZM60.8914 27.1833C62.1649 25.7484 63.4385 24.2338 64.712 22.8786C56.5136 33.72 42.9026 50.3808 23.6403 70.2302C36.7737 55.6421 49.9867 40.5757 60.8914 27.1833ZM14.4867 102.595C14.5663 102.595 14.7255 102.595 14.7255 102.595C14.6459 102.595 14.5663 102.595 14.4867 102.595ZM24.3566 111.762C24.277 111.683 24.277 111.683 24.3566 111.683C24.3566 111.683 24.3566 111.683 24.3566 111.762ZM36.2165 101.479C36.8533 100.762 37.49 100.124 38.2064 99.4064C38.2064 99.4064 38.2064 99.4861 38.286 99.4861C37.5696 100.124 36.9329 100.762 36.2165 101.479ZM39.4799 98.2904C39.8779 97.8918 40.2759 97.3338 40.7535 96.8555C40.7535 96.8555 40.7535 96.8555 40.8331 96.7757C45.5293 91.913 50.3846 87.0504 55.3196 82.1079L55.3992 82.0282C56.5932 81.0716 58.0259 80.0353 59.2994 79.0787C52.7725 85.2169 46.2456 91.5942 39.4799 98.2904ZM70.3633 18.4942C67.7367 21.922 64.7916 26.4658 62.3241 30.0531C54.5237 41.3728 29.4508 69.0344 28.8936 69.5127C24.9934 73.2594 13.3723 84.4197 5.96986 91.4347C5.81067 91.5942 5.65147 91.7536 5.49228 91.913C5.0943 91.4347 5.0943 90.7173 5.57188 90.3187C40.9923 56.9175 62.4833 29.0965 71.1593 16.8999C70.9205 17.4579 70.7613 17.9362 70.3633 18.4942ZM84.1335 34.8361C80.9497 33.0026 79.4373 30.1328 80.3129 27.3427L80.5517 26.3861C80.6313 26.147 80.7905 25.8281 80.9497 25.589C81.8252 24.1541 83.0988 22.9583 84.5315 22.2409C84.6111 22.2409 84.6907 22.2409 84.7703 22.1612C84.6907 22.0017 84.6907 21.7626 84.6907 21.5234C84.7703 21.0451 85.0887 20.7263 85.6459 20.7263C86.601 20.7263 89.5461 21.6031 90.6604 22.5597C90.9788 22.7989 91.2972 23.1178 91.6156 23.4366C92.0136 23.9149 92.6503 24.7121 92.9687 25.3498C93.1279 25.4295 93.2871 26.2267 93.5259 26.6253C93.6851 27.263 93.8443 27.9805 93.7647 28.6182C93.6851 28.6979 93.7647 29.1762 93.6851 29.1762C93.5259 30.2125 93.2075 31.2488 92.6503 32.1257C92.5707 32.2054 92.5707 32.2852 92.4911 32.3649C92.4911 32.3649 92.4911 32.3649 92.4115 32.4446C92.0136 33.0823 91.4564 33.6403 90.8992 34.0389C89.0685 35.3144 86.999 35.713 84.9295 35.155C84.9295 35.155 84.3723 34.9158 84.1335 34.8361ZM107.376 32.4446C106.659 35.3941 105.863 38.4233 104.829 41.5323C104.829 41.612 104.749 41.7714 104.829 41.8511C104.669 41.8511 104.59 41.9308 104.431 42.0105C98.1425 46.6341 92.0136 51.4968 85.8846 56.4392C91.138 51.736 96.3914 46.953 101.884 42.2497C103.475 40.8148 104.59 38.9813 104.908 36.9087L105.704 32.1257C105.704 32.046 105.704 32.046 105.704 31.9663C106.102 31.0097 107.614 31.4083 107.376 32.4446Z" fill="#6965DB"/>
</svg>
