<svg enable-background="new 0 0 595.275 311.111" height="128" viewBox="0 0 128 128" width="128" xmlns="http://www.w3.org/2000/svg"><rect fill="#0082c9" height="128" rx="20" width="128" y="0"/><path d="m-572.71 3.5765c-1.108 0-2 .892-2 2v4c0 1.108.892 2 2 2s2-.892 2-2v-4c0-1.108-.892-2-2-2zm16 0c-1.108 0-2 .892-2 2v4c0 1.108.892 2 2 2s2-.892 2-2v-4c0-1.108-.892-2-2-2zm-13 4v2c0 1.662-1.338 3-3 3s-3-1.338-3-3v-1.875c-1.728.44254-3 2.0052-3 3.875v16c0 2.216 1.784 4 4 4h20c2.216 0 4-1.784 4-4v-16c0-1.8698-1.272-3.4325-3-3.875v1.875c0 1.662-1.338 3-3 3s-3-1.338-3-3v-2zm-5.9062 9h21.812c.0554 0 .0937.03835.0937.09375v11.812c0 .0554-.0384.09375-.0937.09375h-21.812c-.0554 0-.0937-.03835-.0937-.09375v-11.812c0-.0554.0384-.09375.0937-.09375z" fill="#fff" transform="matrix(3.5714 0 0 3.5714 2080.8 -.77322)"/></svg>