<svg height="128" width="128" xmlns="http://www.w3.org/2000/svg"><rect fill="#0082c9" height="128" rx="20" width="128"/><path d="M35.424 12a7.127 7.127 0 0 0-7.143 7.143v14.285c0 3.957 3.185 7.143 7.143 7.143s7.142-3.186 7.142-7.143V19.143A7.127 7.127 0 0 0 35.424 12zm57.142 0a7.127 7.127 0 0 0-7.143 7.143v14.285c0 3.957 3.186 7.143 7.143 7.143s7.143-3.186 7.143-7.143V19.143A7.127 7.127 0 0 0 92.566 12zM46.138 26.285v7.143c0 5.936-4.779 10.714-10.714 10.714s-10.715-4.778-10.715-10.714v-6.696a14.262 14.262 0 0 0-10.714 13.84v57.141A14.254 14.254 0 0 0 28.281 112h71.428a14.254 14.254 0 0 0 14.285-14.286V40.571a14.261 14.261 0 0 0-10.714-13.84v6.697c0 5.936-4.778 10.714-10.714 10.714s-10.714-4.778-10.714-10.714v-7.143zM25.044 58.428h77.9a.32.32 0 0 1 .334.335v42.185a.32.32 0 0 1-.334.335h-77.9a.32.32 0 0 1-.334-.335V58.763a.32.32 0 0 1 .334-.335z" fill="#fff"/></svg>