<?xml version="1.0" encoding="UTF-8" standalone="no"?>
<svg
   clip-rule="evenodd"
   fill-rule="evenodd"
   stroke-linejoin="round"
   stroke-miterlimit="2"
   viewBox="0 0 1024 1024"
   version="1.1"
   id="svg33"
   xmlns="http://www.w3.org/2000/svg"
   xmlns:svg="http://www.w3.org/2000/svg">
  <defs
     id="defs2" />
  <rect
     style="fill:#000000"
     id="rect2"
     width="1024"
     height="1024"
     x="0"
     y="0" />
  <g
     id="g2"
     transform="matrix(18.765155,0,0,18.765155,257.94795,164.15033)">
    <path
       fill="#ffffff"
       d="M 25.376,9.984 H 19.777 C 19.690358,9.3072933 19.478049,8.6527303 19.151,8.054 18.844527,7.4939946 18.431831,6.9990993 17.936,6.597 17.426052,6.1881791 16.845447,5.8763538 16.223,5.677 15.550164,5.4585284 14.846387,5.3504629 14.139,5.357 c -1.355,0 -2.535,0.336 -3.541,1.01 -1.006,0.664 -1.786,1.636 -2.34,2.914 -0.553,1.27 -0.83,2.813 -0.83,4.628 0,1.867 0.277,3.435 0.83,4.705 0.563,1.27 1.347,2.228 2.353,2.876 1.005,0.648 2.169,0.972 3.49,0.972 0.741,0 1.427,-0.098 2.058,-0.294 0.612878,-0.182911 1.188458,-0.473071 1.7,-0.857 0.493811,-0.382424 0.910524,-0.855128 1.228,-1.393 0.343071,-0.574503 0.577,-1.207468 0.69,-1.867 l 5.6,0.026 c -0.149266,1.215159 -0.517552,2.393201 -1.087,3.477 -0.584279,1.125122 -1.36838,2.134557 -2.314,2.979 -0.963,0.869 -2.114,1.56 -3.452,2.07 -1.33,0.503 -2.834,0.755 -4.513,0.755 -2.335,0 -4.423,-0.528 -6.264,-1.585 C 5.915,24.716 4.466,23.186 3.401,21.183 2.344,19.18 1.815,16.756 1.815,13.909 1.815,11.054 2.352,8.625 3.426,6.622 4.5,4.62 5.957,3.094 7.798,2.045 9.64,0.99 11.71,0.46 14.011,0.46 c 1.517,0 2.924,0.213 4.22,0.64 1.260112,0.4024653 2.434643,1.0351662 3.464,1.866 1.011237,0.8166295 1.846107,1.8301087 2.454,2.979 0.64,1.176 1.048,2.522 1.227,4.04 z"
       id="path1"/>
    <path
       fill="#d4d4d8"
       d="m 0,34.16 h 27.077 v 2.454 H 0 v -2.455 z"
       id="path2" />
  </g>
</svg>
