<?xml version="1.0" encoding="utf-8"?>
<!-- Generator: Adobe Illustrator 27.1.1, SVG Export Plug-In . SVG Version: 6.00 Build 0)  -->
<svg version="1.1" id="layer" xmlns="http://www.w3.org/2000/svg" xmlns:xlink="http://www.w3.org/1999/xlink" x="0px" y="0px"
	 viewBox="0 0 652 652" style="enable-background:new 0 0 652 652;" xml:space="preserve">
<style type="text/css">
	.st0{fill:#003059;}
</style>
<path class="st0" d="M167,266.3c0,0,26.6-40.3,62.9-40.3c54.9-1.6,100.1,101.7,108.1,116.2c61.3-142,163-262.3,245.3-342.1H75
	c0,49.2,0,545.5,0,586.6c0,22.6-2.4,43.6-6.5,65.4c66.2-11.3,131.5-27.4,194.5-50c154.1-57.3,214.6-117.8,214.6-117.8l4-4l2.4,4.8
	c9.7,24.2,24.2,46,38.7,67.8c21,26.6,32.3,29,40.3,26.6c8.9-2.4,13.7-17.8,16.1-41.2c2.4-24.2,4-76.7,4-142v-351
	C435.7,234.8,325.2,518.9,325.2,518.9S251.8,265.5,167,266.3z"/>
</svg>
