<?xml version="1.0" encoding="UTF-8" standalone="yes"?>
<!-- Created with sK1/UniConvertor (http://sk1project.org/) -->
<svg xmlns="http://www.w3.org/2000/svg" xmlns:xlink="http://www.w3.org/1999/xlink"
  width="409.6pt" height="409.6pt" viewBox="0 0 409.6 409.6"
  fill-rule="evenodd">
<g>
<path style="stroke:none; fill:#ffffff" d="M 0 0L 0 409.6L 409.6 409.6L 409.6 0L 0 0z"/>
<path style="stroke:none; fill:#dfb8df" d="M 189.6 8.80002L 189.6 9.60001L 193.6 9.60001C 192.185 8.9769 191.171 8.87009 189.6 8.80002z"/>
<path style="stroke:none; fill:#c580c5" d="M 193.6 8.80002L 193.6 9.60001L 198.4 9.60001C 196.758 8.90063 195.402 8.83777 193.6 8.80002z"/>
<path style="stroke:none; fill:#b760b8" d="M 198.4 8.80002L 198.4 9.60001L 211.2 9.60001C 207.421 8.01425 202.472 8.80002 198.4 8.80002z"/>
<path style="stroke:none; fill:#d29bd2" d="M 211.2 8.80002L 211.2 9.60001L 216.8 9.60001C 214.934 8.81241 213.234 8.81497 211.2 8.80002z"/>
<path style="stroke:none; fill:#ebd2eb" d="M 216.8 8.80002L 216.8 9.60001L 219.2 9.60001C 218.202 9.05215 217.962 9.00098 216.8 8.80002M 182.134 9.86664C 181.778 10.2223 182.622 10.1777 182.666 10.1334C 183.022 9.77792 182.178 9.82217 182.134 9.86664z"/>
<path style="stroke:none; fill:#d29bd2" d="M 183.734 9.86664C 183.378 10.2223 184.222 10.1777 184.266 10.1334C 184.622 9.77792 183.778 9.82217 183.734 9.86664z"/>
<path style="stroke:none; fill:#c580c5" d="M 184.8 9.60001L 184.8 10.4L 187.2 10.4C 186.202 9.85217 185.962 9.80096 184.8 9.60001z"/>
<path style="stroke:none; fill:#ab46ac" d="M 190.4 402.4C 187.346 395.852 180.266 390.666 175.2 385.6L 144 354.4C 139.692 350.098 130.686 344.35 128.823 338.388C 127.28 333.45 130.548 325.851 131.2 320.8C 147.296 319.528 163.095 314.871 179.2 313.6L 179.2 261.6C 179.2 253.96 180.824 244.183 178.801 236.8C 175.964 226.448 167.038 215.644 161.609 206.4C 156.497 197.696 152.489 188.36 144 182.4C 144.35 185.254 145.294 187.752 146.4 190.4L 144.8 190.4C 144.69 193.544 143.306 194.99 140.8 196.8L 141.6 198.4C 137.333 200.586 133.935 205.866 130.803 209.455C 123.866 217.406 116.574 225.298 110.088 233.597C 105.893 238.966 100.736 246.743 94.4 249.6C 93.9912 251.162 93.8136 251.566 92.8 252.8L 93.6 254.4C 86.7656 257.736 83.6312 265.974 77.6 270.4L 78.4 272C 71.7437 275.37 68.064 283.323 62.4 288C 60.4242 295.64 50.377 301.12 46.4 308L 45.6 308C 22.768 271.002 7.10563 230.821 11.3358 186.4C 19.778 97.7488 92.968 26.9412 181.6 20.8716C 214.87 18.5933 249.13 27.7991 278.4 43.2L 274.4 46.4C 273.578 49.2679 270.947 50.6338 270.4 53.6L 267.2 54.4C 267.541 56.1045 253.935 72.4839 252 72C 246.831 82.7344 232.21 90.4048 228.8 101.6L 227.2 100.8C 225.622 104.521 223.152 107.117 220 109.6C 225.14 124.071 240.609 121.6 252.8 121.6L 312 121.6C 319.434 121.6 330.606 119.504 337.6 122.082C 344.497 124.626 350.89 134.066 356.001 139.2C 369.985 153.246 383.807 170.994 400 182.4C 399.818 160.418 390.677 136.959 380.998 117.6C 342.495 40.5959 258.026 -0.954285 173.6 11.542C 87.108 24.3441 18.1203 98.2336 9.4648 184.8C 6.4376 215.076 9.83464 246.677 20.6463 275.2C 32.7902 307.238 52.8321 335.738 79.2 357.663C 110.538 383.722 149.834 399.198 190.4 402.4z"/>
<path style="stroke:none; fill:#c580c5" d="M 222.934 9.86664C 222.578 10.2222 223.422 10.1779 223.466 10.1334C 223.822 9.77777 222.978 9.82224 222.934 9.86664z"/>
<path style="stroke:none; fill:#d29bd2" d="M 224 9.60001L 224 10.4L 226.4 10.4C 225.402 9.85217 225.162 9.80096 224 9.60001z"/>
<path style="stroke:none; fill:#ebd2eb" d="M 226.934 9.86664C 226.578 10.2221 227.422 10.1779 227.466 10.1334C 227.822 9.77777 226.978 9.82224 226.934 9.86664z"/>
<path style="stroke:none; fill:#dfb8df" d="M 176 10.4L 176 11.2L 178.4 11.2C 177.402 10.6522 177.162 10.601 176 10.4z"/>
<path style="stroke:none; fill:#b760b8" d="M 178.934 10.6667C 178.578 11.0224 179.422 10.9776 179.466 10.9334C 179.822 10.578 178.978 10.6221 178.934 10.6667z"/>
<path style="stroke:none; fill:#d29bd2" d="M 230.934 10.6667C 230.578 11.0222 231.422 10.9778 231.466 10.9334C 231.822 10.5778 230.978 10.6223 230.934 10.6667z"/>
<path style="stroke:none; fill:#dfb8df" d="M 232 10.4L 232 11.2L 234.4 11.2C 233.402 10.6522 233.162 10.601 232 10.4M 171.2 11.2L 171.2 12L 173.6 12C 172.602 11.4522 172.362 11.401 171.2 11.2z"/>
<path style="stroke:none; fill:#d29bd2" d="M 236 11.2L 236 12L 238.4 12C 237.402 11.4522 237.162 11.401 236 11.2M 167.734 12.2666C 167.378 12.6223 168.222 12.5777 168.266 12.5334C 168.622 12.1779 167.778 12.2222 167.734 12.2666M 240.8 12L 240.8 12.8L 243.2 12.8C 242.202 12.2522 241.962 12.201 240.8 12M 163.734 13.0667C 163.378 13.4223 164.222 13.3777 164.266 13.3334C 164.622 12.9779 163.778 13.0222 163.734 13.0667M 245.334 13.0667C 244.978 13.4222 245.822 13.3778 245.866 13.3334C 246.222 12.9778 245.378 13.0222 245.334 13.0667z"/>
<path style="stroke:none; fill:#c580c5" d="M 160.534 13.8666C 160.178 14.2223 161.022 14.1777 161.066 14.1334C 161.422 13.7779 160.578 13.8222 160.534 13.8666z"/>
<path style="stroke:none; fill:#dfb8df" d="M 249.334 13.8666C 248.978 14.2222 249.822 14.1779 249.866 14.1334C 250.222 13.7778 249.378 13.8223 249.334 13.8666z"/>
<path style="stroke:none; fill:#d29bd2" d="M 156.534 14.6667C 156.178 15.0223 157.022 14.9777 157.066 14.9334C 157.422 14.5779 156.578 14.6223 156.534 14.6667z"/>
<path style="stroke:none; fill:#dfb8df" d="M 252.534 14.6667C 252.178 15.0222 253.022 14.9778 253.066 14.9334C 253.422 14.5778 252.578 14.6223 252.534 14.6667z"/>
<path style="stroke:none; fill:#c580c5" d="M 154.134 15.4666C 153.778 15.8223 154.622 15.7777 154.666 15.7334C 155.022 15.3779 154.178 15.4222 154.134 15.4666z"/>
<path style="stroke:none; fill:#dfb8df" d="M 255.734 15.4666C 255.378 15.8222 256.222 15.7778 256.266 15.7334C 256.622 15.3778 255.778 15.4223 255.734 15.4666z"/>
<path style="stroke:none; fill:#c580c5" d="M 150.934 16.2666C 150.578 16.6223 151.422 16.5778 151.466 16.5334C 151.822 16.1779 150.978 16.2221 150.934 16.2666z"/>
<path style="stroke:none; fill:#ebd2eb" d="M 258.934 16.2666C 258.578 16.6221 259.422 16.5779 259.466 16.5334C 259.822 16.1779 258.978 16.2223 258.934 16.2666z"/>
<path style="stroke:none; fill:#b760b8" d="M 148.534 17.0667C 148.178 17.4223 149.022 17.3777 149.066 17.3334C 149.422 16.9779 148.578 17.0221 148.534 17.0667z"/>
<path style="stroke:none; fill:#dfb8df" d="M 261.334 17.0667C 260.978 17.4222 261.822 17.3778 261.866 17.3334C 262.222 16.9778 261.378 17.0223 261.334 17.0667M 268.8 19.2L 269.6 20L 268.8 19.2z"/>
<path style="stroke:none; fill:#d29bd2" d="M 138.4 20L 139.2 20.8L 138.4 20z"/>
<path style="stroke:none; fill:#dfb8df" d="M 271.2 20L 272 20.8L 271.2 20z"/>
<path style="stroke:none; fill:#d29bd2" d="M 136 20.8L 136.8 21.6L 136 20.8M 178.4 20.8C 175.685 25.9169 170.33 31.7747 165.6 35.2C 164.956 40.0775 157.245 45.9405 153.926 49.6716C 143.609 61.2672 130.256 87.004 113.6 88.8L 113.6 89.6C 123.345 89.6 136.284 91.8304 145.6 88.868C 162.928 83.3568 169.345 64.9596 181.321 53.0271C 190.405 43.9765 203.48 33.5368 208.8 21.6L 178.4 20.8z"/>
<path style="stroke:none; fill:#c580c5" d="M 197.6 20.8L 197.6 21.6L 204 21.6C 201.91 20.7218 199.868 20.8058 197.6 20.8z"/>
<path style="stroke:none; fill:#dfb8df" d="M 132 30.4L 132.8 32.8C 127.888 35.1977 124.972 40.6546 121.441 44.6642L 100.371 68.797C 93.1352 77.485 88.1016 86.0144 76.8 88.8L 76.8 89.6C 90.7552 89.6 110.474 93.188 123.033 86.0232C 132.956 80.3616 141.994 64.736 149.208 55.9685C 153.327 50.9623 165.293 41.5847 165.6 35.2C 170.554 32.7548 175.71 26.3263 178.4 21.6C 162.395 21.6106 147.478 27.3967 132 30.4z"/>
<path style="stroke:none; fill:#c580c5" d="M 208.8 21.6C 199.266 36.0132 185.654 47.0146 174.569 60C 165.01 71.197 159.614 83.4568 144.8 88.8L 144.8 89.6C 158.016 89.6 177.396 92.9504 189.36 86.1472C 192.998 84.0784 195.673 79.4848 198.42 76.3994L 219.456 52.1364C 225.466 45.1341 236.934 36.1685 239.2 27.2C 229.018 25.0996 219.131 22.9056 208.8 21.6z"/>
<path style="stroke:none; fill:#d29bd2" d="M 275.2 21.6L 276 22.4L 275.2 21.6M 132 22.4L 132.8 23.2L 132 22.4z"/>
<path style="stroke:none; fill:#b760b8" d="M 163.2 22.4L 163.2 23.2L 165.6 23.2C 164.602 22.6522 164.362 22.601 163.2 22.4z"/>
<path style="stroke:none; fill:#dfb8df" d="M 277.6 22.4L 278.4 23.2L 277.6 22.4z"/>
<path style="stroke:none; fill:#c580c5" d="M 159.2 23.2L 159.2 24L 161.6 24C 160.602 23.4522 160.362 23.401 159.2 23.2z"/>
<path style="stroke:none; fill:#d29bd2" d="M 279.2 23.2L 280 24L 279.2 23.2M 128 24L 128.8 24.8L 128 24z"/>
<path style="stroke:none; fill:#c580c5" d="M 155.734 24.2666C 155.378 24.6224 156.222 24.5777 156.266 24.5334C 156.622 24.1779 155.778 24.2221 155.734 24.2666M 126.4 24.8L 127.2 25.6L 126.4 24.8M 151.734 25.0667C 151.378 25.4223 152.222 25.3777 152.266 25.3334C 152.622 24.9779 151.778 25.0222 151.734 25.0667z"/>
<path style="stroke:none; fill:#dfb8df" d="M 283.2 24.8L 284 25.6L 283.2 24.8z"/>
<path style="stroke:none; fill:#c580c5" d="M 148.534 25.8666C 148.178 26.2223 149.022 26.1777 149.066 26.1334C 149.422 25.7779 148.578 25.8222 148.534 25.8666z"/>
<path style="stroke:none; fill:#d29bd2" d="M 284.8 25.6L 285.6 26.4L 284.8 25.6z"/>
<path style="stroke:none; fill:#dfb8df" d="M 122.4 26.4L 123.2 27.2L 122.4 26.4z"/>
<path style="stroke:none; fill:#d29bd2" d="M 145.334 26.6667C 144.978 27.0223 145.822 26.9778 145.866 26.9334C 146.222 26.5779 145.378 26.6222 145.334 26.6667z"/>
<path style="stroke:none; fill:#dfb8df" d="M 120.8 27.2L 121.6 28L 120.8 27.2z"/>
<path style="stroke:none; fill:#b760b8" d="M 239.2 27.2C 236.285 34.4139 228.92 40.4916 223.796 46.3043C 210.861 60.9798 198.03 84.3128 178.4 88.8L 178.4 89.6C 183.874 89.6 191.632 88.1856 196.8 90.0824C 203.9 92.6896 214.032 104.267 218.4 110.4C 222.75 108.69 226.008 105.356 227.2 100.8L 228.8 101.6C 234.218 90.8816 248.503 83.776 252 72C 256.426 71.0965 266.533 58.9723 267.2 54.4L 270.4 53.6C 271.244 50.7375 273.864 49.4227 274.4 46.4C 276.057 45.4881 277.159 44.626 278.4 43.2C 267.048 35.1184 252.31 31.3918 239.2 27.2z"/>
<path style="stroke:none; fill:#d29bd2" d="M 119.2 28L 120 28.8L 119.2 28M 139.734 28.2666C 139.378 28.6224 140.222 28.5776 140.266 28.5334C 140.622 28.1779 139.778 28.2222 139.734 28.2666M 117.6 28.8L 118.4 29.6L 117.6 28.8M 137.334 29.0667C 136.978 29.4223 137.822 29.3777 137.866 29.3334C 138.222 28.9779 137.378 29.0222 137.334 29.0667M 116 29.6L 116.8 30.4L 116 29.6M 114.4 30.4L 115.2 31.2L 114.4 30.4M 112.8 31.2L 113.6 32L 112.8 31.2z"/>
<path style="stroke:none; fill:#ebd2eb" d="M 13.6 176C 23.2266 168.299 31.0487 156.656 39.0315 147.272C 48.5808 136.046 63.3514 125.284 68.5895 111.2C 71.1214 104.392 70.4 96.7128 70.4 89.6C 91.584 89.5392 105.915 63.7704 118.304 48.8716C 122.961 43.2724 129.549 37.7195 132.8 31.2C 118.743 33.276 103.706 43.02 92 50.6753C 57.8126 73.0338 28.9548 109.587 18.8204 149.6C 16.6256 158.266 13.6249 166.993 13.6 176z"/>
<path style="stroke:none; fill:#dfb8df" d="M 111.2 32L 112 32.8L 111.2 32z"/>
<path style="stroke:none; fill:#c580c5" d="M 299.2 32.8L 300 33.6L 299.2 32.8z"/>
<path style="stroke:none; fill:#d29bd2" d="M 300.8 33.6L 301.6 34.4L 300.8 33.6z"/>
<path style="stroke:none; fill:#c580c5" d="M 107.2 34.4L 108 35.2L 107.2 34.4z"/>
<path style="stroke:none; fill:#dfb8df" d="M 302.4 34.4L 303.2 35.2L 302.4 34.4z"/>
<path style="stroke:none; fill:#d29bd2" d="M 105.6 35.2L 106.4 36L 105.6 35.2z"/>
<path style="stroke:none; fill:#c580c5" d="M 304.8 36L 305.6 36.8L 304.8 36z"/>
<path style="stroke:none; fill:#dfb8df" d="M 306.4 36.8L 307.2 37.6L 306.4 36.8z"/>
<path style="stroke:none; fill:#d29bd2" d="M 101.6 37.6L 102.4 38.4L 101.6 37.6z"/>
<path style="stroke:none; fill:#c580c5" d="M 112.8 38.4L 113.6 39.2L 112.8 38.4z"/>
<path style="stroke:none; fill:#d29bd2" d="M 308.8 38.4L 309.6 39.2L 308.8 38.4M 99.2 39.2L 100 40L 99.2 39.2z"/>
<path style="stroke:none; fill:#c580c5" d="M 111.2 39.2L 112 40L 111.2 39.2z"/>
<path style="stroke:none; fill:#dfb8df" d="M 310.4 39.2L 311.2 40L 310.4 39.2z"/>
<path style="stroke:none; fill:#c580c5" d="M 109.6 40L 110.4 40.8L 109.6 40M 96.8 40.8L 97.6 41.6L 96.8 40.8z"/>
<path style="stroke:none; fill:#dfb8df" d="M 312.8 40.8L 313.6 41.6L 312.8 40.8M 95.2 41.6L 96 42.4L 95.2 41.6M 315.2 42.4L 316 43.2L 315.2 42.4z"/>
<path style="stroke:none; fill:#d29bd2" d="M 92 44L 92.8 44.8L 92 44M 100.8 44.8L 101.6 45.6L 100.8 44.8z"/>
<path style="stroke:none; fill:#c580c5" d="M 318.4 44.8L 319.2 45.6L 318.4 44.8z"/>
<path style="stroke:none; fill:#d29bd2" d="M 89.6 45.6L 90.4 46.4L 89.6 45.6z"/>
<path style="stroke:none; fill:#dfb8df" d="M 320.8 46.4L 321.6 47.2L 320.8 46.4z"/>
<path style="stroke:none; fill:#d29bd2" d="M 96.8 47.2L 97.6 48L 96.8 47.2M 86.4 48L 87.2 48.8L 86.4 48z"/>
<path style="stroke:none; fill:#dfb8df" d="M 324 48.8L 324.8 49.6L 324 48.8M 83.2 50.4L 84 51.2L 83.2 50.4z"/>
<path style="stroke:none; fill:#c580c5" d="M 82.4 51.2L 83.2 52L 82.4 51.2z"/>
<path style="stroke:none; fill:#dfb8df" d="M 327.2 51.2L 328 52L 327.2 51.2z"/>
<path style="stroke:none; fill:#d29bd2" d="M 328 52L 328.8 52.8L 328 52z"/>
<path style="stroke:none; fill:#dfb8df" d="M 79.2 53.6L 80 54.4L 79.2 53.6z"/>
<path style="stroke:none; fill:#d29bd2" d="M 78.4 54.4L 79.2 55.2L 78.4 54.4z"/>
<path style="stroke:none; fill:#c580c5" d="M 84.8 55.2L 85.6 56L 84.8 55.2z"/>
<path style="stroke:none; fill:#dfb8df" d="M 332 55.2L 332.8 56L 332 55.2z"/>
<path style="stroke:none; fill:#d29bd2" d="M 332.8 56L 333.6 56.8L 332.8 56M 81.6 57.6L 82.4 58.4L 81.6 57.6z"/>
<path style="stroke:none; fill:#dfb8df" d="M 73.6 58.4L 74.4 59.2L 73.6 58.4z"/>
<path style="stroke:none; fill:#d29bd2" d="M 72.8 59.2L 73.6 60L 72.8 59.2M 72 60L 72.8 60.8L 72 60M 77.6 60.8L 78.4 61.6L 77.6 60.8z"/>
<path style="stroke:none; fill:#dfb8df" d="M 339.2 61.6L 340 62.4L 339.2 61.6M 340 62.4L 340.8 63.2L 340 62.4z"/>
<path style="stroke:none; fill:#d29bd2" d="M 340.8 63.2L 341.6 64L 340.8 63.2M 341.6 64L 342.4 64.8L 341.6 64M 72.8 64.8L 73.6 65.6L 72.8 64.8M 342.4 64.8L 343.2 65.6L 342.4 64.8M 343.2 65.6L 344 66.4L 343.2 65.6M 344 66.4L 344.8 67.2L 344 66.4M 344.8 67.2L 345.6 68L 344.8 67.2M 345.6 68L 346.4 68.8L 345.6 68M 346.4 68.8L 347.2 69.6L 346.4 68.8M 347.2 69.6L 348 70.4L 347.2 69.6z"/>
<path style="stroke:none; fill:#dfb8df" d="M 348 70.4L 348.8 71.2L 348 70.4M 348.8 71.2L 349.6 72L 348.8 71.2z"/>
<path style="stroke:none; fill:#c580c5" d="M 59.2 72.8L 60 73.6L 59.2 72.8z"/>
<path style="stroke:none; fill:#d29bd2" d="M 58.4 73.6L 59.2 74.4L 58.4 73.6z"/>
<path style="stroke:none; fill:#dfb8df" d="M 57.6 74.4L 58.4 75.2L 57.6 74.4z"/>
<path style="stroke:none; fill:#c580c5" d="M 353.6 76.8L 354.4 77.6L 353.6 76.8z"/>
<path style="stroke:none; fill:#d29bd2" d="M 354.4 77.6L 355.2 78.4L 354.4 77.6z"/>
<path style="stroke:none; fill:#dfb8df" d="M 355.2 78.4L 356 79.2L 355.2 78.4z"/>
<path style="stroke:none; fill:#d29bd2" d="M 53.6 79.2L 54.4 80L 53.6 79.2z"/>
<path style="stroke:none; fill:#dfb8df" d="M 52.8 80L 53.6 80.8L 52.8 80z"/>
<path style="stroke:none; fill:#c580c5" d="M 357.6 81.6L 358.4 82.4L 357.6 81.6z"/>
<path style="stroke:none; fill:#d29bd2" d="M 55.2 82.4L 56 83.2L 55.2 82.4z"/>
<path style="stroke:none; fill:#dfb8df" d="M 358.4 82.4L 359.2 83.2L 358.4 82.4z"/>
<path style="stroke:none; fill:#d29bd2" d="M 54.4 83.2L 55.2 84L 54.4 83.2M 49.6 84L 50.4 84.8L 49.6 84M 360.8 85.6L 361.6 86.4L 360.8 85.6z"/>
<path style="stroke:none; fill:#dfb8df" d="M 361.6 86.4L 362.4 87.2L 361.6 86.4z"/>
<path style="stroke:none; fill:#d29bd2" d="M 47.2 87.2L 48 88L 47.2 87.2z"/>
<path style="stroke:none; fill:#c580c5" d="M 50.4 88L 51.2 88.8L 50.4 88z"/>
<path style="stroke:none; fill:#d29bd2" d="M 363.2 88.8L 364 89.6L 363.2 88.8z"/>
<path style="stroke:none; fill:#ffffff" d="M 70.4 89.6L 70.4 108C 79.4974 109.714 88.576 111.621 97.6 113.695C 101.01 114.479 105.641 114.579 108.537 116.686C 112.473 119.549 115.002 126.235 117.375 130.4L 135.039 160.8L 164.68 212C 169.142 219.774 176.098 228.192 178.681 236.8C 182.335 248.982 179.2 266.478 179.2 279.2C 179.2 287.962 182.306 303.841 178.718 311.818C 177.097 315.418 170.509 315.174 167.2 315.663L 144 319.24C 140.929 319.591 134.955 319.68 132.471 321.619C 129.171 324.195 128.836 335.146 128 339.2C 176.509 338.198 225.034 336.8 273.6 336.8C 273.601 331.219 273.904 325.442 275.2 320C 260.223 320 245.358 316.924 230.4 316.8C 227.967 297.553 226.448 277.78 225.569 258.4C 225.29 252.264 222.456 243.482 224.471 237.6C 227.679 228.236 239.68 218.692 246.063 211.2C 263.486 190.75 280.232 169.037 298.863 149.687C 307.083 141.15 322.554 145.691 331.665 139.088C 335.767 136.115 337.407 126.246 339.2 121.6L 230.4 121.6C 231.479 126.133 229.97 134.946 232.822 138.618C 234.384 140.628 238.486 141.084 240.8 141.693L 262.4 147.2C 251.122 161.832 240.642 177.12 229.693 192C 223.803 200.003 215.861 208.422 212 217.6L 210.4 217.6C 206.367 203.601 197.114 189.833 190.598 176.8C 179.714 155.032 169.866 132.214 157.6 111.2C 171.061 109.498 184.831 105.88 198.4 105.6L 198.4 89.6L 70.4 89.6z"/>
<path style="stroke:none; fill:#dfb8df" d="M 364 89.6L 364.8 90.4L 364 89.6z"/>
<path style="stroke:none; fill:#d29bd2" d="M 44.8 90.4L 45.6 91.2L 44.8 90.4z"/>
<path style="stroke:none; fill:#8a398d" d="M 198.4 90.4C 198.4 94.14 199.77 101.267 197.578 104.453C 195.806 107.027 190.771 106.682 188 107.136C 178.4 108.707 168.11 110.999 158.4 111.2C 161.308 121.294 167.966 130.312 172 140L 174.4 139.2C 177.136 148.697 183.502 153.079 188.163 160.846C 197.874 177.024 207.147 195.378 214.4 212.8L 215.2 212.8C 224.182 197.036 236.864 182.756 247.432 168C 251.429 162.419 256.724 156.837 259.2 150.4C 253.442 148.877 246.598 149.037 241.963 145.366C 240.603 144.29 237.71 143.31 238.4 141.6L 238.4 140.8L 232 140C 231.231 133.916 232.309 114.601 222.48 114.565C 220.117 114.556 217.247 118.754 215.2 120C 215.32 123.365 204.046 135.78 200.8 136.8C 199.388 142.337 193.326 145.147 191.2 150.4C 177.851 145.446 172.034 131.006 166.4 119.2C 177.19 114.496 189.697 117.885 199.988 112.864C 210.222 107.871 205.526 95.3752 198.4 90.4z"/>
<path style="stroke:none; fill:#d29bd2" d="M 48 91.2L 48.8 92L 48 91.2M 365.6 92L 366.4 92.8L 365.6 92M 43.2 92.8L 44 93.6L 43.2 92.8M 45.6 94.4L 46.4 95.2L 45.6 94.4M 367.2 94.4L 368 95.2L 367.2 94.4z"/>
<path style="stroke:none; fill:#dfb8df" d="M 40.8 96L 41.6 96.8L 40.8 96z"/>
<path style="stroke:none; fill:#d29bd2" d="M 368.8 96.8L 369.6 97.6L 368.8 96.8z"/>
<path style="stroke:none; fill:#c580c5" d="M 43.2 97.6L 44 98.4L 43.2 97.6z"/>
<path style="stroke:none; fill:#924792" d="M 205.6 97.6C 205.6 100.668 206.102 104.299 204.914 107.197C 199.598 120.15 176.588 112.903 166.4 119.2C 170.289 130.571 178.294 147.306 191.2 150.4C 194.058 145.667 199.95 142.467 200.8 136.8C 205.366 135.327 214.666 124.776 215.2 120C 228.67 114.499 211.832 101.897 205.6 97.6z"/>
<path style="stroke:none; fill:#d29bd2" d="M 370.4 99.2L 371.2 100L 370.4 99.2M 38.4 100L 39.2 100.8L 38.4 100z"/>
<path style="stroke:none; fill:#c580c5" d="M 41.6 100L 42.4 100.8L 41.6 100z"/>
<path style="stroke:none; fill:#dfb8df" d="M 372 101.6L 372.8 102.4L 372 101.6z"/>
<path style="stroke:none; fill:#d29bd2" d="M 36.8 102.4L 37.6 103.2L 36.8 102.4M 40 102.4L 40.8 103.2L 40 102.4z"/>
<path style="stroke:none; fill:#dfb8df" d="M 69.6 104.8C 68.7058 115.734 58.932 125.038 51.5402 132.207C 43.483 140.022 35.9405 149.658 28.8086 158.36C 24.8378 163.205 18.9103 173.283 12.8 175.2C 12.2215 188.674 10.2914 201.681 12 215.2C 19.3195 210.372 24.691 200.522 30.5642 193.959C 40.7806 182.544 51.4267 171.164 61.1074 159.326C 69.519 149.038 77.6056 136.381 88 128C 85.4408 118.881 74.0712 113.29 69.6 104.8M 192.8 105.6L 192.8 106.4L 195.2 106.4C 194.202 105.852 193.962 105.801 192.8 105.6z"/>
<path style="stroke:none; fill:#9f679f" d="M 195.734 105.866C 195.378 106.222 196.222 106.178 196.266 106.134C 196.622 105.778 195.778 105.822 195.734 105.866z"/>
<path style="stroke:none; fill:#d29bd2" d="M 374.4 105.6L 375.2 106.4L 374.4 105.6M 34.4 106.4L 35.2 107.2L 34.4 106.4z"/>
<path style="stroke:none; fill:#dfb8df" d="M 187.734 106.666C 187.378 107.022 188.222 106.978 188.266 106.934C 188.622 106.578 187.778 106.622 187.734 106.666z"/>
<path style="stroke:none; fill:#b485b5" d="M 189.334 106.666C 188.978 107.022 189.822 106.978 189.866 106.934C 190.222 106.578 189.378 106.622 189.334 106.666z"/>
<path style="stroke:none; fill:#dfb8df" d="M 182.134 107.466C 181.778 107.822 182.622 107.778 182.666 107.734C 183.022 107.378 182.178 107.422 182.134 107.466z"/>
<path style="stroke:none; fill:#b485b5" d="M 183.2 107.2L 183.2 108L 185.6 108C 184.602 107.452 184.362 107.401 183.2 107.2z"/>
<path style="stroke:none; fill:#c580c5" d="M 33.6 108L 34.4 108.8L 33.6 108z"/>
<path style="stroke:none; fill:#bcbbbc" d="M 70.4 108L 71.2 109.6L 72 109.6L 72.8 108L 70.4 108z"/>
<path style="stroke:none; fill:#bd9ac0" d="M 176.8 108L 176.8 108.8L 179.2 108.8C 178.202 108.252 177.962 108.201 176.8 108z"/>
<path style="stroke:none; fill:#c580c5" d="M 36 108.8L 36.8 109.6L 36 108.8z"/>
<path style="stroke:none; fill:#aa7aaa" d="M 72 108.8C 75.8448 116.947 109.349 119.462 95.2 132C 97.12 136.118 102.645 143.098 107.168 144.502C 112.031 146.012 115.46 137.184 114.953 133.597C 113.55 123.67 104.867 123.473 100.8 116.8C 96.4928 116.8 85.872 113.312 86.4 111.2L 72 108.8z"/>
<path style="stroke:none; fill:#bcbbbc" d="M 75.2 108.8L 75.2 109.6L 77.6 109.6C 76.6013 109.052 76.3613 109.001 75.2 108.8M 171.734 109.066C 171.378 109.422 172.222 109.378 172.266 109.334C 172.622 108.978 171.778 109.022 171.734 109.066z"/>
<path style="stroke:none; fill:#aa7aaa" d="M 173.334 109.066C 172.978 109.422 173.822 109.378 173.866 109.334C 174.222 108.978 173.378 109.022 173.334 109.066z"/>
<path style="stroke:none; fill:#cfcfcf" d="M 79.7334 109.866C 79.3778 110.222 80.2224 110.178 80.2664 110.134C 80.6224 109.778 79.7778 109.822 79.7334 109.866z"/>
<path style="stroke:none; fill:#bcbbbc" d="M 165.6 109.6L 165.6 110.4L 168 110.4C 167.002 109.852 166.762 109.801 165.6 109.6z"/>
<path style="stroke:none; fill:#dfb8df" d="M 376.8 109.6L 377.6 110.4L 376.8 109.6z"/>
<path style="stroke:none; fill:#cfcfcf" d="M 83.7336 110.666C 83.3776 111.022 84.2224 110.978 84.2664 110.934C 84.6224 110.578 83.7776 110.622 83.7336 110.666z"/>
<path style="stroke:none; fill:#bcbbbc" d="M 160 110.4L 160 111.2L 162.4 111.2C 161.402 110.652 161.162 110.601 160 110.4z"/>
<path style="stroke:none; fill:#9f679f" d="M 162.934 110.666C 162.578 111.022 163.422 110.978 163.466 110.934C 163.822 110.578 162.978 110.622 162.934 110.666z"/>
<path style="stroke:none; fill:#bcbbbc" d="M 86.9336 111.466C 86.5776 111.822 87.4224 111.778 87.4664 111.734C 87.8224 111.378 86.9776 111.422 86.9336 111.466z"/>
<path style="stroke:none; fill:#dfb8df" d="M 157.6 111.2L 158.4 112L 157.6 111.2z"/>
<path style="stroke:none; fill:#d29bd2" d="M 377.6 111.2L 378.4 112L 377.6 111.2z"/>
<path style="stroke:none; fill:#dfb8df" d="M 31.2 112L 32 112.8L 31.2 112z"/>
<path style="stroke:none; fill:#9f679f" d="M 85.6 112L 85.6 112.8C 90.8768 113.942 95.2832 116.671 100.8 116.8C 101.842 120.366 106.01 120.249 108.578 122.659C 115.381 129.046 117.818 140.071 108 144.8C 112.084 153.558 124.127 164.054 132 169.6C 128.715 154.781 124.975 142.861 117.118 129.6C 114.787 125.669 112.526 119.345 108.632 116.75C 103.326 113.216 91.884 112.13 85.6 112z"/>
<path style="stroke:none; fill:#bcbbbc" d="M 90.9336 112.266C 90.5776 112.622 91.4224 112.578 91.4664 112.534C 91.8224 112.178 90.9776 112.222 90.9336 112.266z"/>
<path style="stroke:none; fill:#cfcfcf" d="M 94.9336 113.066C 94.5776 113.422 95.4224 113.378 95.4664 113.334C 95.8224 112.978 94.9776 113.022 94.9336 113.066z"/>
<path style="stroke:none; fill:#bd9ac0" d="M 158.4 112.8L 159.2 113.6L 158.4 112.8z"/>
<path style="stroke:none; fill:#d29bd2" d="M 378.4 112.8L 379.2 113.6L 378.4 112.8M 30.4 113.6L 31.2 114.4L 30.4 113.6z"/>
<path style="stroke:none; fill:#bcbbbc" d="M 98.1336 113.866C 97.7776 114.222 98.6224 114.178 98.6664 114.134C 99.0224 113.778 98.1776 113.822 98.1336 113.866z"/>
<path style="stroke:none; fill:#b485b5" d="M 76.8 114.4C 78.8892 117.366 81.436 119.834 84 122.4C 86.676 125.077 90.5104 130.701 94.328 131.631C 97.728 132.459 100.648 126.824 99.4496 124.034C 97.1592 118.706 82.0512 114.458 76.8 114.4z"/>
<path style="stroke:none; fill:#bcbbbc" d="M 102.134 114.666C 101.778 115.022 102.622 114.978 102.666 114.934C 103.022 114.578 102.178 114.622 102.134 114.666M 159.2 114.4L 160 115.2L 159.2 114.4z"/>
<path style="stroke:none; fill:#d29bd2" d="M 379.2 114.4L 380 115.2L 379.2 114.4M 29.6 115.2L 30.4 116L 29.6 115.2z"/>
<path style="stroke:none; fill:#dfb8df" d="M 106.134 115.466C 105.778 115.822 106.622 115.778 106.666 115.734C 107.022 115.378 106.178 115.422 106.134 115.466z"/>
<path style="stroke:none; fill:#d29bd2" d="M 32 116L 32.8 116.8L 32 116z"/>
<path style="stroke:none; fill:#bd9ac0" d="M 108.8 116L 109.6 116.8L 108.8 116z"/>
<path style="stroke:none; fill:#bcbbbc" d="M 160 116L 160.8 116.8L 160 116z"/>
<path style="stroke:none; fill:#c580c5" d="M 380 116L 380.8 116.8L 380 116z"/>
<path style="stroke:none; fill:#d29bd2" d="M 28.8 116.8L 29.6 117.6L 28.8 116.8M 31.2 117.6L 32 118.4L 31.2 117.6z"/>
<path style="stroke:none; fill:#bcbbbc" d="M 160.8 117.6L 161.6 118.4L 160.8 117.6z"/>
<path style="stroke:none; fill:#c580c5" d="M 380.8 117.6L 381.6 118.4L 380.8 117.6z"/>
<path style="stroke:none; fill:#d29bd2" d="M 28 118.4L 28.8 119.2L 28 118.4z"/>
<path style="stroke:none; fill:#dfb8df" d="M 110.4 118.4L 111.2 119.2L 110.4 118.4z"/>
<path style="stroke:none; fill:#d29bd2" d="M 30.4 119.2L 31.2 120L 30.4 119.2z"/>
<path style="stroke:none; fill:#bcbbbc" d="M 161.6 119.2L 162.4 120L 161.6 119.2z"/>
<path style="stroke:none; fill:#c580c5" d="M 381.6 119.2L 382.4 120L 381.6 119.2z"/>
<path style="stroke:none; fill:#d29bd2" d="M 27.2 120L 28 120.8L 27.2 120z"/>
<path style="stroke:none; fill:#bcbbbc" d="M 111.2 120L 112 120.8L 111.2 120z"/>
<path style="stroke:none; fill:#d29bd2" d="M 29.6 120.8L 30.4 121.6L 29.6 120.8z"/>
<path style="stroke:none; fill:#bcbbbc" d="M 162.4 120.8L 163.2 121.6L 162.4 120.8z"/>
<path style="stroke:none; fill:#d29bd2" d="M 382.4 120.8L 383.2 121.6L 382.4 120.8M 26.4 121.6L 27.2 122.4L 26.4 121.6z"/>
<path style="stroke:none; fill:#bcbbbc" d="M 163.2 122.4L 164 123.2L 163.2 122.4z"/>
<path style="stroke:none; fill:#ebd2eb" d="M 230.666 122.934C 230.622 122.978 230.578 123.822 230.934 123.466C 230.978 123.422 231.022 122.578 230.666 122.934z"/>
<path style="stroke:none; fill:#bd9ac0" d="M 338.4 122.4L 339.2 123.2L 338.4 122.4z"/>
<path style="stroke:none; fill:#7b2b7b" d="M 339.2 122.4C 337.005 127.094 335.886 136.049 331.666 139.25C 323.186 145.682 308.701 141.883 300.072 148.41C 293.23 153.586 287.754 162.291 282.183 168.8L 247.896 208.8C 241.073 216.727 229.213 226.342 225.19 236C 222.594 242.234 225.634 253.413 226.264 260C 228.022 278.402 230.398 297.519 230.4 316C 233.356 316.374 236.212 316.775 239.2 316.8C 236.014 310.462 236.522 303.705 235.864 296.8C 234.702 284.59 233.238 272.257 232.791 260C 232.564 253.762 230.665 247.023 233.34 241.028C 236.002 235.062 241.806 230.262 246.021 225.374L 270.615 196.676C 281.382 183.911 292.193 167.122 306.4 158.087C 315.665 152.195 328.084 152.986 337.528 147.758C 346.255 142.926 346.796 127.914 339.2 122.4z"/>
<path style="stroke:none; fill:#d29bd2" d="M 383.2 122.4L 384 123.2L 383.2 122.4z"/>
<path style="stroke:none; fill:#dfb8df" d="M 25.6 123.2L 26.4 124L 25.6 123.2z"/>
<path style="stroke:none; fill:#d29bd2" d="M 28 124L 28.8 124.8L 28 124z"/>
<path style="stroke:none; fill:#dfb8df" d="M 113.6 124L 114.4 124.8L 113.6 124z"/>
<path style="stroke:none; fill:#bcbbbc" d="M 164 124L 164.8 124.8L 164 124z"/>
<path style="stroke:none; fill:#dfb8df" d="M 230.666 124.534C 230.622 124.578 230.578 125.422 230.934 125.066C 230.978 125.022 231.022 124.178 230.666 124.534M 337.6 124L 338.4 124.8L 337.6 124M 384 124L 384.8 124.8L 384 124M 24.8 124.8L 25.6 125.6L 24.8 124.8z"/>
<path style="stroke:none; fill:#aa7aaa" d="M 337.6 124.8L 338.4 125.6L 337.6 124.8z"/>
<path style="stroke:none; fill:#bd9ac0" d="M 114.4 125.6L 115.2 126.4L 114.4 125.6z"/>
<path style="stroke:none; fill:#bcbbbc" d="M 164.8 125.6L 165.6 126.4L 164.8 125.6z"/>
<path style="stroke:none; fill:#b485b5" d="M 230.666 126.134C 230.622 126.178 230.578 127.022 230.934 126.666C 230.978 126.622 231.022 125.778 230.666 126.134z"/>
<path style="stroke:none; fill:#dfb8df" d="M 384.8 125.6L 385.6 126.4L 384.8 125.6z"/>
<path style="stroke:none; fill:#d29bd2" d="M 88 126.4C 71.9113 147.346 54.0609 167.83 36.3882 187.417C 29.0702 195.528 15.9179 205.589 12.4395 216.136C 9.55808 224.873 15.1092 238.482 16.8 247.2C 26.1989 242.69 33.6859 229.712 40.2315 221.84L 84.4608 170.516C 89.6672 164.36 103.52 153.469 105.01 145.597C 106.086 139.915 92.1984 129.357 88 126.4M 336.8 126.4L 337.6 127.2L 336.8 126.4z"/>
<path style="stroke:none; fill:#c580c5" d="M 24 127.2L 24.8 128L 24 127.2z"/>
<path style="stroke:none; fill:#bcbbbc" d="M 165.6 127.2L 166.4 128L 165.6 127.2z"/>
<path style="stroke:none; fill:#9f679f" d="M 230.666 127.734C 230.622 127.778 230.578 128.622 230.934 128.266C 230.978 128.222 231.022 127.378 230.666 127.734z"/>
<path style="stroke:none; fill:#8a398d" d="M 344 127.2C 348.841 154.49 314.146 149.753 299.551 162.628C 282.935 177.288 269.572 197.46 255.015 214.174C 248.166 222.038 236.886 231.273 233.043 241.028C 230.802 246.72 232.317 253.333 232.728 259.2C 233.626 272.014 234.646 284.811 235.864 297.6C 236.309 302.273 234.93 312.141 238.747 315.52C 241.41 317.878 246.304 317.43 249.6 317.671L 275.2 320C 276.494 327.634 287.18 332.136 278.633 341.378C 271.786 348.781 250.095 344.8 240.8 344.8C 205.626 344.8 170.43 346.4 135.2 346.4L 135.2 347.2C 149.782 358.31 162.242 373.442 175.2 386.4C 179.91 391.11 184.959 398.25 190.739 401.578C 195.871 404.532 206.961 402.4 212.8 402.4C 236.458 402.398 265.736 397.39 285.6 384C 284.602 383.452 284.361 383.401 283.2 383.2C 285.445 361.657 297.004 343.446 301.693 322.4C 303.572 313.963 303.664 302.249 311.339 296.652C 318.422 291.486 328.463 292.122 336.572 290.033C 354.444 285.429 374.674 278.224 389.6 267.2L 389.6 270.4L 390.4 270.4C 398.737 250.344 401.6 228.023 401.6 206.4C 401.6 199.746 402.909 189.628 400.318 183.428C 397.716 177.206 388.743 171.143 384 166.4C 371.253 153.653 358.778 137.516 344 127.2z"/>
<path style="stroke:none; fill:#cfcfcf" d="M 116 128L 116.8 128.8L 116 128z"/>
<path style="stroke:none; fill:#d29bd2" d="M 23.2 128.8L 24 129.6L 23.2 128.8z"/>
<path style="stroke:none; fill:#bcbbbc" d="M 166.4 128.8L 167.2 129.6L 166.4 128.8z"/>
<path style="stroke:none; fill:#b485b5" d="M 336 128.8L 336.8 129.6L 336 128.8z"/>
<path style="stroke:none; fill:#dfb8df" d="M 116.8 129.6L 117.6 130.4L 116.8 129.6z"/>
<path style="stroke:none; fill:#d29bd2" d="M 386.4 129.6L 387.2 130.4L 386.4 129.6z"/>
<path style="stroke:none; fill:#dfb8df" d="M 22.4 130.4L 23.2 131.2L 22.4 130.4z"/>
<path style="stroke:none; fill:#bcbbbc" d="M 167.2 130.4L 168 131.2L 167.2 130.4z"/>
<path style="stroke:none; fill:#cfcfcf" d="M 335.2 130.4L 336 131.2L 335.2 130.4z"/>
<path style="stroke:none; fill:#ebd2eb" d="M 231.466 131.734C 231.422 131.778 231.378 132.622 231.734 132.266C 231.778 132.222 231.822 131.378 231.466 131.734z"/>
<path style="stroke:none; fill:#9f679f" d="M 335.2 131.2L 336 132L 335.2 131.2z"/>
<path style="stroke:none; fill:#dfb8df" d="M 168 132L 168.8 132.8L 168 132z"/>
<path style="stroke:none; fill:#d29bd2" d="M 21.6 132.8L 22.4 133.6L 21.6 132.8z"/>
<path style="stroke:none; fill:#dfb8df" d="M 231.2 132.8L 231.2 135.2L 232 135.2C 231.799 134.038 231.748 133.798 231.2 132.8z"/>
<path style="stroke:none; fill:#d29bd2" d="M 334.4 132.8L 335.2 133.6L 334.4 132.8z"/>
<path style="stroke:none; fill:#dfb8df" d="M 119.2 133.6L 120 134.4L 119.2 133.6z"/>
<path style="stroke:none; fill:#bcbbbc" d="M 168.8 133.6L 169.6 134.4L 168.8 133.6z"/>
<path style="stroke:none; fill:#924792" d="M 334.4 133.6L 335.2 134.4L 334.4 133.6z"/>
<path style="stroke:none; fill:#d29bd2" d="M 388 133.6L 388.8 134.4L 388 133.6z"/>
<path style="stroke:none; fill:#dfb8df" d="M 20.8 134.4L 21.6 135.2L 20.8 134.4z"/>
<path style="stroke:none; fill:#bd9ac0" d="M 120 135.2L 120.8 136L 120 135.2z"/>
<path style="stroke:none; fill:#bcbbbc" d="M 169.6 135.2L 170.4 136L 169.6 135.2z"/>
<path style="stroke:none; fill:#aa7aaa" d="M 231.2 135.2L 231.2 137.6L 232 137.6C 231.799 136.438 231.748 136.198 231.2 135.2z"/>
<path style="stroke:none; fill:#bd9ac0" d="M 333.6 135.2L 334.4 136L 333.6 135.2z"/>
<path style="stroke:none; fill:#d29bd2" d="M 20 136.8L 20.8 137.6L 20 136.8z"/>
<path style="stroke:none; fill:#dfb8df" d="M 170.4 136.8L 171.2 137.6L 170.4 136.8z"/>
<path style="stroke:none; fill:#aa7aaa" d="M 332.8 137.6L 333.6 138.4L 332.8 137.6z"/>
<path style="stroke:none; fill:#dfb8df" d="M 389.6 137.6L 390.4 138.4L 389.6 137.6z"/>
<path style="stroke:none; fill:#bcbbbc" d="M 171.2 138.4L 172 139.2L 171.2 138.4z"/>
<path style="stroke:none; fill:#d29bd2" d="M 19.2 139.2L 20 140L 19.2 139.2z"/>
<path style="stroke:none; fill:#dfb8df" d="M 122.4 139.2L 123.2 140L 122.4 139.2z"/>
<path style="stroke:none; fill:#7b2b7b" d="M 172.8 139.2C 174.273 147.463 180.066 155.726 183.802 163.2C 192.666 180.927 202.784 198.507 210.4 216.8L 212 216.8C 216.117 209.923 209.782 202.368 206.598 196C 198.865 180.535 191.262 166.152 180.958 152.663C 177.79 148.516 177.341 142.174 172.8 139.2z"/>
<path style="stroke:none; fill:#cfcfcf" d="M 232.534 139.466C 232.178 139.822 233.022 139.778 233.066 139.734C 233.422 139.378 232.578 139.422 232.534 139.466z"/>
<path style="stroke:none; fill:#d29bd2" d="M 331.2 139.2L 332 140L 331.2 139.2z"/>
<path style="stroke:none; fill:#9f679f" d="M 332 139.2L 332.8 140L 332 139.2z"/>
<path style="stroke:none; fill:#bcbbbc" d="M 172 140L 172.8 140.8L 172 140z"/>
<path style="stroke:none; fill:#cfcfcf" d="M 235.734 140.266C 235.378 140.622 236.222 140.578 236.266 140.534C 236.622 140.178 235.778 140.222 235.734 140.266z"/>
<path style="stroke:none; fill:#bd9ac0" d="M 328 140L 328.8 140.8L 328 140z"/>
<path style="stroke:none; fill:#9f679f" d="M 328.8 140L 329.6 140.8L 328.8 140z"/>
<path style="stroke:none; fill:#d29bd2" d="M 390.4 140L 391.2 140.8L 390.4 140z"/>
<path style="stroke:none; fill:#bd9ac0" d="M 123.2 140.8L 124 141.6L 123.2 140.8M 238.4 140.8L 239.2 141.6L 238.4 140.8M 324.8 140.8L 325.6 141.6L 324.8 140.8z"/>
<path style="stroke:none; fill:#9f679f" d="M 325.6 140.8L 326.4 141.6L 325.6 140.8z"/>
<path style="stroke:none; fill:#dfb8df" d="M 172.8 141.6L 173.6 142.4L 172.8 141.6z"/>
<path style="stroke:none; fill:#7b2b7b" d="M 236.8 141.6C 240.87 146.3 257.495 154.572 261.6 147.2C 253.73 144.983 244.988 141.774 236.8 141.6z"/>
<path style="stroke:none; fill:#bd9ac0" d="M 241.6 141.6L 242.4 142.4L 241.6 141.6M 321.6 141.6L 322.4 142.4L 321.6 141.6z"/>
<path style="stroke:none; fill:#9f679f" d="M 322.4 141.6L 323.2 142.4L 322.4 141.6M 244 142.4L 244.8 143.2L 244 142.4z"/>
<path style="stroke:none; fill:#bd9ac0" d="M 244.8 142.4L 245.6 143.2L 244.8 142.4z"/>
<path style="stroke:none; fill:#cfcfcf" d="M 317.6 142.4L 318.4 143.2L 317.6 142.4z"/>
<path style="stroke:none; fill:#bd9ac0" d="M 318.4 142.4L 319.2 143.2L 318.4 142.4z"/>
<path style="stroke:none; fill:#9f679f" d="M 319.2 142.4L 320 143.2L 319.2 142.4z"/>
<path style="stroke:none; fill:#dfb8df" d="M 124.8 143.2L 125.6 144L 124.8 143.2M 173.6 143.2L 174.4 144L 173.6 143.2z"/>
<path style="stroke:none; fill:#9f679f" d="M 247.2 143.2L 248 144L 247.2 143.2z"/>
<path style="stroke:none; fill:#bd9ac0" d="M 248 143.2L 248.8 144L 248 143.2z"/>
<path style="stroke:none; fill:#cfcfcf" d="M 314.4 143.2L 315.2 144L 314.4 143.2z"/>
<path style="stroke:none; fill:#b485b5" d="M 315.2 143.2L 316 144L 315.2 143.2z"/>
<path style="stroke:none; fill:#c580c5" d="M 105.6 144C 99.5672 157.519 84.0624 170.114 74.3759 181.289C 62.5068 194.981 50.6134 208.606 39.0759 222.539C 32.2806 230.745 25.519 240.958 16.8 247.2C 20.0444 257.346 24.2866 267.409 27.2 277.6C 38.4995 271.124 48.0753 254.8 56.4463 244.803C 59.6879 240.932 63.9931 238.051 64.8 232.8C 72.8674 230.335 80.6096 217.046 85.6 210.607C 97.6432 195.07 111.69 178.681 125.6 164.8C 122.07 157.23 112.394 148.786 105.6 144z"/>
<path style="stroke:none; fill:#9f679f" d="M 250.4 144L 251.2 144.8L 250.4 144z"/>
<path style="stroke:none; fill:#bd9ac0" d="M 251.2 144L 252 144.8L 251.2 144z"/>
<path style="stroke:none; fill:#dfb8df" d="M 311.2 144L 312 144.8L 311.2 144z"/>
<path style="stroke:none; fill:#b485b5" d="M 312 144L 312.8 144.8L 312 144z"/>
<path style="stroke:none; fill:#bd9ac0" d="M 125.6 144.8L 126.4 145.6L 125.6 144.8z"/>
<path style="stroke:none; fill:#dfb8df" d="M 174.4 144.8L 175.2 145.6L 174.4 144.8z"/>
<path style="stroke:none; fill:#9f679f" d="M 253.6 144.8L 254.4 145.6L 253.6 144.8z"/>
<path style="stroke:none; fill:#bd9ac0" d="M 254.4 144.8L 255.2 145.6L 254.4 144.8z"/>
<path style="stroke:none; fill:#dfb8df" d="M 308 144.8L 308.8 145.6L 308 144.8z"/>
<path style="stroke:none; fill:#aa7aaa" d="M 308.8 144.8L 309.6 145.6L 308.8 144.8z"/>
<path style="stroke:none; fill:#9f679f" d="M 256.8 145.6L 257.6 146.4L 256.8 145.6z"/>
<path style="stroke:none; fill:#bd9ac0" d="M 257.6 145.6L 258.4 146.4L 257.6 145.6z"/>
<path style="stroke:none; fill:#dfb8df" d="M 304.8 145.6L 305.6 146.4L 304.8 145.6z"/>
<path style="stroke:none; fill:#aa7aaa" d="M 305.6 145.6L 306.4 146.4L 305.6 145.6z"/>
<path style="stroke:none; fill:#924792" d="M 125.6 146.4C 127.931 153.35 128.9 162.42 131.79 168.8C 134.958 175.791 144.209 183.638 150.4 188C 146.637 177.721 139.362 167.806 133.761 158.4C 131.428 154.484 129.474 148.93 125.6 146.4z"/>
<path style="stroke:none; fill:#dfb8df" d="M 175.2 146.4L 176 147.2L 175.2 146.4z"/>
<path style="stroke:none; fill:#9f679f" d="M 260 146.4L 260.8 147.2L 260 146.4z"/>
<path style="stroke:none; fill:#d29bd2" d="M 260.8 146.4L 261.6 147.2L 260.8 146.4M 301.6 146.4L 302.4 147.2L 301.6 146.4z"/>
<path style="stroke:none; fill:#9f679f" d="M 302.4 146.4L 303.2 147.2L 302.4 146.4M 261.6 147.2L 262.4 148L 261.6 147.2z"/>
<path style="stroke:none; fill:#bd9ac0" d="M 300 147.2L 300.8 148L 300 147.2z"/>
<path style="stroke:none; fill:#b760b8" d="M 393.066 147.734C 393.022 147.778 392.978 148.622 393.334 148.266C 393.378 148.222 393.422 147.378 393.066 147.734z"/>
<path style="stroke:none; fill:#dfb8df" d="M 176 148L 176.8 148.8L 176 148M 299.2 148L 300 148.8L 299.2 148z"/>
<path style="stroke:none; fill:#b760b8" d="M 16.2666 149.334C 16.2222 149.378 16.1778 150.222 16.5334 149.866C 16.5778 149.822 16.6222 148.978 16.2666 149.334z"/>
<path style="stroke:none; fill:#dfb8df" d="M 18.6666 149.334C 18.6222 149.378 18.5778 150.222 18.9334 149.866C 18.9778 149.822 19.0222 148.978 18.6666 149.334M 128 148.8L 128.8 149.6L 128 148.8M 176.8 149.6L 177.6 150.4L 176.8 149.6z"/>
<path style="stroke:none; fill:#bd9ac0" d="M 260 149.6L 260.8 150.4L 260 149.6z"/>
<path style="stroke:none; fill:#c580c5" d="M 393.866 150.134C 393.822 150.178 393.778 151.022 394.134 150.666C 394.178 150.622 394.222 149.778 393.866 150.134z"/>
<path style="stroke:none; fill:#bd9ac0" d="M 128.8 150.4L 129.6 151.2L 128.8 150.4z"/>
<path style="stroke:none; fill:#9f679f" d="M 259.2 150.4L 260 151.2L 259.2 150.4z"/>
<path style="stroke:none; fill:#c580c5" d="M 15.4666 151.734C 15.4222 151.778 15.3778 152.622 15.7334 152.266C 15.7778 152.222 15.8222 151.378 15.4666 151.734z"/>
<path style="stroke:none; fill:#d29bd2" d="M 17.8666 151.734C 17.8222 151.778 17.7778 152.622 18.1334 152.266C 18.1778 152.222 18.2222 151.378 17.8666 151.734z"/>
<path style="stroke:none; fill:#dfb8df" d="M 177.6 151.2L 178.4 152L 177.6 151.2z"/>
<path style="stroke:none; fill:#9f679f" d="M 296.8 151.2L 297.6 152L 296.8 151.2z"/>
<path style="stroke:none; fill:#dfb8df" d="M 258.4 152L 259.2 152.8L 258.4 152z"/>
<path style="stroke:none; fill:#aa7aaa" d="M 296 152L 296.8 152.8L 296 152z"/>
<path style="stroke:none; fill:#dfb8df" d="M 130.4 152.8L 131.2 153.6L 130.4 152.8M 178.4 152.8L 179.2 153.6L 178.4 152.8z"/>
<path style="stroke:none; fill:#b485b5" d="M 257.6 152.8L 258.4 153.6L 257.6 152.8z"/>
<path style="stroke:none; fill:#bd9ac0" d="M 295.2 152.8L 296 153.6L 295.2 152.8z"/>
<path style="stroke:none; fill:#b760b8" d="M 394.666 153.334C 394.622 153.378 394.578 154.222 394.934 153.866C 394.978 153.822 395.022 152.978 394.666 153.334z"/>
<path style="stroke:none; fill:#dfb8df" d="M 294.4 153.6L 295.2 154.4L 294.4 153.6z"/>
<path style="stroke:none; fill:#c580c5" d="M 14.6666 154.934C 14.6222 154.978 14.5778 155.822 14.9334 155.466C 14.9778 155.422 15.0222 154.578 14.6666 154.934z"/>
<path style="stroke:none; fill:#d29bd2" d="M 17.0666 154.934C 17.0222 154.978 16.9778 155.822 17.3334 155.466C 17.3778 155.422 17.4222 154.578 17.0666 154.934z"/>
<path style="stroke:none; fill:#bd9ac0" d="M 131.2 154.4L 132 155.2L 131.2 154.4z"/>
<path style="stroke:none; fill:#dfb8df" d="M 179.2 154.4L 180 155.2L 179.2 154.4M 256 155.2L 256.8 156L 256 155.2z"/>
<path style="stroke:none; fill:#c580c5" d="M 395.466 155.734C 395.422 155.778 395.378 156.622 395.734 156.266C 395.778 156.222 395.822 155.378 395.466 155.734z"/>
<path style="stroke:none; fill:#b485b5" d="M 132 156L 132.8 156.8L 132 156z"/>
<path style="stroke:none; fill:#dfb8df" d="M 180 156L 180.8 156.8L 180 156z"/>
<path style="stroke:none; fill:#b485b5" d="M 255.2 156L 256 156.8L 255.2 156z"/>
<path style="stroke:none; fill:#d29bd2" d="M 13.8666 157.334C 13.8222 157.378 13.7778 158.222 14.1334 157.866C 14.1778 157.822 14.2222 156.978 13.8666 157.334z"/>
<path style="stroke:none; fill:#9f679f" d="M 292 156.8L 292.8 157.6L 292 156.8z"/>
<path style="stroke:none; fill:#d29bd2" d="M 16.2666 158.134C 16.2222 158.178 16.1778 159.022 16.5334 158.666C 16.5778 158.622 16.6222 157.778 16.2666 158.134z"/>
<path style="stroke:none; fill:#dfb8df" d="M 180.8 157.6L 181.6 158.4L 180.8 157.6z"/>
<path style="stroke:none; fill:#aa7aaa" d="M 291.2 157.6L 292 158.4L 291.2 157.6z"/>
<path style="stroke:none; fill:#dfb8df" d="M 133.6 158.4L 134.4 159.2L 133.6 158.4z"/>
<path style="stroke:none; fill:#d29bd2" d="M 253.6 158.4L 254.4 159.2L 253.6 158.4z"/>
<path style="stroke:none; fill:#bd9ac0" d="M 290.4 158.4L 291.2 159.2L 290.4 158.4z"/>
<path style="stroke:none; fill:#d29bd2" d="M 396.266 158.934C 396.222 158.978 396.178 159.822 396.534 159.466C 396.578 159.422 396.622 158.578 396.266 158.934z"/>
<path style="stroke:none; fill:#dfb8df" d="M 181.6 159.2L 182.4 160L 181.6 159.2M 289.6 159.2L 290.4 160L 289.6 159.2z"/>
<path style="stroke:none; fill:#d29bd2" d="M 13.0666 160.534C 13.0222 160.578 12.9778 161.422 13.3334 161.066C 13.3778 161.022 13.4222 160.178 13.0666 160.534z"/>
<path style="stroke:none; fill:#bd9ac0" d="M 134.4 160L 135.2 160.8L 134.4 160z"/>
<path style="stroke:none; fill:#d29bd2" d="M 15.4666 161.334C 15.4222 161.378 15.3778 162.222 15.7334 161.866C 15.7778 161.822 15.8222 160.978 15.4666 161.334z"/>
<path style="stroke:none; fill:#dfb8df" d="M 182.4 160.8L 183.2 161.6L 182.4 160.8M 252 160.8L 252.8 161.6L 252 160.8z"/>
<path style="stroke:none; fill:#bd9ac0" d="M 251.2 161.6L 252 162.4L 251.2 161.6z"/>
<path style="stroke:none; fill:#d29bd2" d="M 396.8 161.6L 396.8 164L 397.6 164C 397.399 162.838 397.348 162.598 396.8 161.6z"/>
<path style="stroke:none; fill:#cfcfcf" d="M 136 162.4L 136.8 163.2L 136 162.4z"/>
<path style="stroke:none; fill:#dfb8df" d="M 183.2 162.4L 184 163.2L 183.2 162.4z"/>
<path style="stroke:none; fill:#9f679f" d="M 287.2 162.4L 288 163.2L 287.2 162.4z"/>
<path style="stroke:none; fill:#aa7aaa" d="M 286.4 163.2L 287.2 164L 286.4 163.2z"/>
<path style="stroke:none; fill:#d29bd2" d="M 12.2666 164.534C 12.2222 164.578 12.1778 165.422 12.5334 165.066C 12.5778 165.022 12.6222 164.178 12.2666 164.534z"/>
<path style="stroke:none; fill:#c580c5" d="M 14.4 164L 14.4 166.4L 15.2 166.4C 14.999 165.238 14.9478 164.998 14.4 164z"/>
<path style="stroke:none; fill:#b760b8" d="M 64.8 232.8C 63.4688 237.59 59.5662 240.454 56.4463 244.116C 50.3039 251.326 44.4429 258.86 38.0321 265.828C 35.1607 268.95 29.7353 273.338 28.7642 277.6C 28.0448 280.757 30.8722 284.597 32.3395 287.2C 36.366 294.342 40.2598 301.734 45.6 308L 46.4 308C 50.8742 302.505 61.3013 295.114 62.4 288C 68.7787 284.513 72.5731 276.456 78.4 272L 77.6 270.4C 84.2112 267.116 87.604 258.766 93.6 254.4L 92.8 252.8C 94.0944 251.749 94.1544 251.298 94.4 249.6C 100.974 247.773 106.098 239.168 110.181 234.08C 119.347 222.659 129.918 207.266 141.6 198.4L 140.8 196.8C 143.77 195.366 145.293 193.746 144.8 190.4L 146.4 190.4C 143.754 181.626 139.229 176.813 132.8 170.4C 131.13 168.734 127.962 164.345 125.165 165.194C 119.943 166.779 112.996 178.275 109.539 182.388L 80.1048 216.8C 75.6679 221.992 70.9601 229.676 64.8 232.8z"/>
<path style="stroke:none; fill:#d29bd2" d="M 136.8 164L 137.6 164.8L 136.8 164z"/>
<path style="stroke:none; fill:#dfb8df" d="M 184 164L 184.8 164.8L 184 164M 249.6 164L 250.4 164.8L 249.6 164z"/>
<path style="stroke:none; fill:#bd9ac0" d="M 285.6 164L 286.4 164.8L 285.6 164z"/>
<path style="stroke:none; fill:#b485b5" d="M 248.8 164.8L 249.6 165.6L 248.8 164.8z"/>
<path style="stroke:none; fill:#dfb8df" d="M 284.8 164.8L 285.6 165.6L 284.8 164.8z"/>
<path style="stroke:none; fill:#b485b5" d="M 137.6 165.6L 138.4 166.4L 137.6 165.6z"/>
<path style="stroke:none; fill:#dfb8df" d="M 184.8 165.6L 185.6 166.4L 184.8 165.6z"/>
<path style="stroke:none; fill:#d29bd2" d="M 397.866 166.134C 397.822 166.178 397.778 167.022 398.134 166.666C 398.178 166.622 398.222 165.778 397.866 166.134z"/>
<path style="stroke:none; fill:#dfb8df" d="M 11.2 167.2L 11.2 169.6L 12 169.6C 11.799 168.438 11.7478 168.198 11.2 167.2M 185.6 167.2L 186.4 168L 185.6 167.2z"/>
<path style="stroke:none; fill:#d29bd2" d="M 247.2 167.2L 248 168L 247.2 167.2z"/>
<path style="stroke:none; fill:#c580c5" d="M 13.8666 168.534C 13.8222 168.578 13.7778 169.422 14.1334 169.066C 14.1778 169.022 14.2222 168.178 13.8666 168.534z"/>
<path style="stroke:none; fill:#dfb8df" d="M 139.2 168L 140 168.8L 139.2 168z"/>
<path style="stroke:none; fill:#9f679f" d="M 282.4 168L 283.2 168.8L 282.4 168z"/>
<path style="stroke:none; fill:#dfb8df" d="M 186.4 168.8L 187.2 169.6L 186.4 168.8z"/>
<path style="stroke:none; fill:#aa7aaa" d="M 281.6 168.8L 282.4 169.6L 281.6 168.8z"/>
<path style="stroke:none; fill:#bd9ac0" d="M 140 169.6L 140.8 170.4L 140 169.6z"/>
<path style="stroke:none; fill:#dfb8df" d="M 245.6 169.6L 246.4 170.4L 245.6 169.6z"/>
<path style="stroke:none; fill:#bd9ac0" d="M 280.8 169.6L 281.6 170.4L 280.8 169.6z"/>
<path style="stroke:none; fill:#d29bd2" d="M 398.666 170.134C 398.622 170.178 398.578 171.022 398.934 170.666C 398.978 170.622 399.022 169.778 398.666 170.134z"/>
<path style="stroke:none; fill:#dfb8df" d="M 187.2 170.4L 188 171.2L 187.2 170.4z"/>
<path style="stroke:none; fill:#bd9ac0" d="M 244.8 170.4L 245.6 171.2L 244.8 170.4z"/>
<path style="stroke:none; fill:#dfb8df" d="M 280 170.4L 280.8 171.2L 280 170.4z"/>
<path style="stroke:none; fill:#d29bd2" d="M 10.4 172L 10.4 174.4L 11.2 174.4C 10.999 173.238 10.9478 172.998 10.4 172z"/>
<path style="stroke:none; fill:#dfb8df" d="M 188 172L 188.8 172.8L 188 172z"/>
<path style="stroke:none; fill:#c580c5" d="M 12.8 172.8L 12.8 175.2L 13.6 175.2C 13.399 174.038 13.3478 173.798 12.8 172.8z"/>
<path style="stroke:none; fill:#dfb8df" d="M 243.2 172.8L 244 173.6L 243.2 172.8M 142.4 173.6L 143.2 174.4L 142.4 173.6M 188.8 173.6L 189.6 174.4L 188.8 173.6z"/>
<path style="stroke:none; fill:#b485b5" d="M 242.4 173.6L 243.2 174.4L 242.4 173.6z"/>
<path style="stroke:none; fill:#9f679f" d="M 277.6 173.6L 278.4 174.4L 277.6 173.6z"/>
<path style="stroke:none; fill:#dfb8df" d="M 399.466 174.134C 399.422 174.178 399.378 175.022 399.734 174.666C 399.778 174.622 399.822 173.778 399.466 174.134z"/>
<path style="stroke:none; fill:#aa7aaa" d="M 276.8 174.4L 277.6 175.2L 276.8 174.4z"/>
<path style="stroke:none; fill:#b485b5" d="M 143.2 175.2L 144 176L 143.2 175.2z"/>
<path style="stroke:none; fill:#dfb8df" d="M 189.6 175.2L 190.4 176L 189.6 175.2z"/>
<path style="stroke:none; fill:#bd9ac0" d="M 276 175.2L 276.8 176L 276 175.2z"/>
<path style="stroke:none; fill:#c580c5" d="M 399.466 175.734C 399.422 175.778 399.378 176.622 399.734 176.266C 399.778 176.222 399.822 175.378 399.466 175.734z"/>
<path style="stroke:none; fill:#d29bd2" d="M 240.8 176L 241.6 176.8L 240.8 176z"/>
<path style="stroke:none; fill:#dfb8df" d="M 275.2 176L 276 176.8L 275.2 176M 9.6 176.8L 9.6 179.2L 10.4 179.2C 10.199 178.038 10.1478 177.798 9.6 176.8M 190.4 176.8L 191.2 177.6L 190.4 176.8z"/>
<path style="stroke:none; fill:#b760b8" d="M 12 177.6L 12 180L 12.8 180C 12.599 178.838 12.5478 178.598 12 177.6z"/>
<path style="stroke:none; fill:#dfb8df" d="M 144.8 177.6L 145.6 178.4L 144.8 177.6M 191.2 178.4L 192 179.2L 191.2 178.4M 239.2 178.4L 240 179.2L 239.2 178.4z"/>
<path style="stroke:none; fill:#ebd2eb" d="M 400.266 178.934C 400.222 178.978 400.178 179.822 400.534 179.466C 400.578 179.422 400.622 178.578 400.266 178.934z"/>
<path style="stroke:none; fill:#bd9ac0" d="M 145.6 179.2L 146.4 180L 145.6 179.2M 238.4 179.2L 239.2 180L 238.4 179.2z"/>
<path style="stroke:none; fill:#9f679f" d="M 272.8 179.2L 273.6 180L 272.8 179.2z"/>
<path style="stroke:none; fill:#dfb8df" d="M 192 180L 192.8 180.8L 192 180z"/>
<path style="stroke:none; fill:#aa7aaa" d="M 272 180L 272.8 180.8L 272 180z"/>
<path style="stroke:none; fill:#d29bd2" d="M 400 180L 400 182.4L 400.8 182.4C 400.599 181.238 400.548 180.998 400 180z"/>
<path style="stroke:none; fill:#aa7aaa" d="M 146.4 180.8L 147.2 181.6L 146.4 180.8z"/>
<path style="stroke:none; fill:#bd9ac0" d="M 271.2 180.8L 272 181.6L 271.2 180.8z"/>
<path style="stroke:none; fill:#dfb8df" d="M 192.8 181.6L 193.6 182.4L 192.8 181.6M 236.8 181.6L 237.6 182.4L 236.8 181.6M 270.4 181.6L 271.2 182.4L 270.4 181.6z"/>
<path style="stroke:none; fill:#ebd2eb" d="M 8.8 182.4L 8.8 184.8L 9.6 184.8C 9.39904 183.638 9.34784 183.398 8.8 182.4z"/>
<path style="stroke:none; fill:#b485b5" d="M 236 182.4L 236.8 183.2L 236 182.4z"/>
<path style="stroke:none; fill:#dfb8df" d="M 148 183.2L 148.8 184L 148 183.2M 193.6 183.2L 194.4 184L 193.6 183.2z"/>
<path style="stroke:none; fill:#c580c5" d="M 11.2 184L 11.2 189.6L 12 189.6C 11.985 187.566 11.9876 185.866 11.2 184M 8.8 184.8L 8.8 187.2L 9.6 187.2C 9.39904 186.038 9.34784 185.798 8.8 184.8z"/>
<path style="stroke:none; fill:#b485b5" d="M 148.8 184.8L 149.6 185.6L 148.8 184.8z"/>
<path style="stroke:none; fill:#dfb8df" d="M 194.4 184.8L 195.2 185.6L 194.4 184.8z"/>
<path style="stroke:none; fill:#d29bd2" d="M 234.4 184.8L 235.2 185.6L 234.4 184.8z"/>
<path style="stroke:none; fill:#9f679f" d="M 268 184.8L 268.8 185.6L 268 184.8z"/>
<path style="stroke:none; fill:#ebd2eb" d="M 400.8 184.8L 400.8 187.2L 401.6 187.2C 401.399 186.038 401.348 185.798 400.8 184.8z"/>
<path style="stroke:none; fill:#aa7aaa" d="M 267.2 185.6L 268 186.4L 267.2 185.6z"/>
<path style="stroke:none; fill:#dfb8df" d="M 195.2 186.4L 196 187.2L 195.2 186.4z"/>
<path style="stroke:none; fill:#bd9ac0" d="M 266.4 186.4L 267.2 187.2L 266.4 186.4z"/>
<path style="stroke:none; fill:#dfb8df" d="M 150.4 187.2L 151.2 188L 150.4 187.2M 265.6 187.2L 266.4 188L 265.6 187.2z"/>
<path style="stroke:none; fill:#bd9ac0" d="M 401.066 187.734C 401.022 187.778 400.978 188.622 401.334 188.266C 401.378 188.222 401.422 187.378 401.066 187.734z"/>
<path style="stroke:none; fill:#dfb8df" d="M 196 188L 196.8 188.8L 196 188z"/>
<path style="stroke:none; fill:#bd9ac0" d="M 232 188L 232.8 188.8L 232 188M 151.2 188.8L 152 189.6L 151.2 188.8z"/>
<path style="stroke:none; fill:#9f679f" d="M 400.8 188.8L 400.8 192.8L 401.6 192.8C 401.53 191.229 401.423 190.215 400.8 188.8z"/>
<path style="stroke:none; fill:#ebd2eb" d="M 8 189.6L 8 193.6L 8.8 193.6C 8.72992 192.029 8.62312 191.015 8 189.6z"/>
<path style="stroke:none; fill:#dfb8df" d="M 196.8 189.6L 197.6 190.4L 196.8 189.6z"/>
<path style="stroke:none; fill:#b485b5" d="M 152 190.4L 152.8 191.2L 152 190.4z"/>
<path style="stroke:none; fill:#dfb8df" d="M 230.4 190.4L 231.2 191.2L 230.4 190.4z"/>
<path style="stroke:none; fill:#9f679f" d="M 263.2 190.4L 264 191.2L 263.2 190.4z"/>
<path style="stroke:none; fill:#dfb8df" d="M 197.6 191.2L 198.4 192L 197.6 191.2z"/>
<path style="stroke:none; fill:#b485b5" d="M 229.6 191.2L 230.4 192L 229.6 191.2z"/>
<path style="stroke:none; fill:#aa7aaa" d="M 262.4 191.2L 263.2 192L 262.4 191.2z"/>
<path style="stroke:none; fill:#bd9ac0" d="M 261.6 192L 262.4 192.8L 261.6 192z"/>
<path style="stroke:none; fill:#dfb8df" d="M 153.6 192.8L 154.4 193.6L 153.6 192.8M 198.4 192.8L 199.2 193.6L 198.4 192.8M 260.8 192.8L 261.6 193.6L 260.8 192.8z"/>
<path style="stroke:none; fill:#d29bd2" d="M 8 193.6L 8 199.2L 8.8 199.2C 8.78504 197.166 8.7876 195.466 8 193.6M 228 193.6L 228.8 194.4L 228 193.6M 154.4 194.4L 155.2 195.2L 154.4 194.4z"/>
<path style="stroke:none; fill:#dfb8df" d="M 199.2 194.4L 200 195.2L 199.2 194.4z"/>
<path style="stroke:none; fill:#ebd2eb" d="M 401.6 194.4L 401.6 199.2L 402.4 199.2C 402.362 197.398 402.299 196.042 401.6 194.4z"/>
<path style="stroke:none; fill:#dfb8df" d="M 200 196L 200.8 196.8L 200 196z"/>
<path style="stroke:none; fill:#9f679f" d="M 258.4 196L 259.2 196.8L 258.4 196z"/>
<path style="stroke:none; fill:#bd9ac0" d="M 225.6 196.8L 226.4 197.6L 225.6 196.8z"/>
<path style="stroke:none; fill:#aa7aaa" d="M 257.6 196.8L 258.4 197.6L 257.6 196.8z"/>
<path style="stroke:none; fill:#dfb8df" d="M 200.8 197.6L 201.6 198.4L 200.8 197.6z"/>
<path style="stroke:none; fill:#bd9ac0" d="M 256.8 197.6L 257.6 198.4L 256.8 197.6z"/>
<path style="stroke:none; fill:#dfb8df" d="M 156.8 198.4L 157.6 199.2L 156.8 198.4M 256 198.4L 256.8 199.2L 256 198.4z"/>
<path style="stroke:none; fill:#b760b8" d="M 8 199.2L 8 211.2L 8.8 211.2C 8.8 207.346 9.50104 202.777 8 199.2z"/>
<path style="stroke:none; fill:#dfb8df" d="M 201.6 199.2L 202.4 200L 201.6 199.2M 224 199.2L 224.8 200L 224 199.2z"/>
<path style="stroke:none; fill:#d29bd2" d="M 401.6 199.2L 401.6 211.2L 402.4 211.2C 402.4 207.346 403.101 202.777 401.6 199.2z"/>
<path style="stroke:none; fill:#c580c5" d="M 157.6 200L 158.4 200.8L 157.6 200z"/>
<path style="stroke:none; fill:#b485b5" d="M 223.2 200L 224 200.8L 223.2 200z"/>
<path style="stroke:none; fill:#dfb8df" d="M 202.4 200.8L 203.2 201.6L 202.4 200.8z"/>
<path style="stroke:none; fill:#9f679f" d="M 253.6 201.6L 254.4 202.4L 253.6 201.6z"/>
<path style="stroke:none; fill:#dfb8df" d="M 159.2 202.4L 160 203.2L 159.2 202.4M 203.2 202.4L 204 203.2L 203.2 202.4z"/>
<path style="stroke:none; fill:#d29bd2" d="M 221.6 202.4L 222.4 203.2L 221.6 202.4z"/>
<path style="stroke:none; fill:#aa7aaa" d="M 252.8 202.4L 253.6 203.2L 252.8 202.4z"/>
<path style="stroke:none; fill:#bd9ac0" d="M 252 203.2L 252.8 204L 252 203.2z"/>
<path style="stroke:none; fill:#d29bd2" d="M 160 204L 160.8 204.8L 160 204z"/>
<path style="stroke:none; fill:#dfb8df" d="M 204 204L 204.8 204.8L 204 204M 251.2 204L 252 204.8L 251.2 204z"/>
<path style="stroke:none; fill:#c580c5" d="M 160.8 205.6L 161.6 206.4L 160.8 205.6z"/>
<path style="stroke:none; fill:#dfb8df" d="M 204.8 205.6L 205.6 206.4L 204.8 205.6z"/>
<path style="stroke:none; fill:#bd9ac0" d="M 219.2 205.6L 220 206.4L 219.2 205.6z"/>
<path style="stroke:none; fill:#dfb8df" d="M 205.6 207.2L 206.4 208L 205.6 207.2z"/>
<path style="stroke:none; fill:#9f679f" d="M 248.8 207.2L 249.6 208L 248.8 207.2z"/>
<path style="stroke:none; fill:#dfb8df" d="M 162.4 208L 163.2 208.8L 162.4 208M 217.6 208L 218.4 208.8L 217.6 208z"/>
<path style="stroke:none; fill:#aa7aaa" d="M 248 208L 248.8 208.8L 248 208z"/>
<path style="stroke:none; fill:#dfb8df" d="M 206.4 208.8L 207.2 209.6L 206.4 208.8z"/>
<path style="stroke:none; fill:#b485b5" d="M 216.8 208.8L 217.6 209.6L 216.8 208.8z"/>
<path style="stroke:none; fill:#bd9ac0" d="M 247.2 208.8L 248 209.6L 247.2 208.8z"/>
<path style="stroke:none; fill:#d29bd2" d="M 163.2 209.6L 164 210.4L 163.2 209.6z"/>
<path style="stroke:none; fill:#dfb8df" d="M 246.4 209.6L 247.2 210.4L 246.4 209.6M 207.2 210.4L 208 211.2L 207.2 210.4z"/>
<path style="stroke:none; fill:#c580c5" d="M 8 211.2L 8 217.6L 8.8 217.6C 8.79424 215.331 8.87816 213.29 8 211.2z"/>
<path style="stroke:none; fill:#bd9ac0" d="M 215.2 211.2L 216 212L 215.2 211.2z"/>
<path style="stroke:none; fill:#ebd2eb" d="M 401.6 211.2L 401.6 216.8L 402.4 216.8C 402.385 214.766 402.387 213.066 401.6 211.2z"/>
<path style="stroke:none; fill:#c580c5" d="M 11.2 212L 11.2 218.4L 12 218.4C 11.9942 216.131 12.0782 214.09 11.2 212z"/>
<path style="stroke:none; fill:#dfb8df" d="M 208 212L 208.8 212.8L 208 212z"/>
<path style="stroke:none; fill:#9f679f" d="M 244 212.8L 244.8 213.6L 244 212.8z"/>
<path style="stroke:none; fill:#d29bd2" d="M 165.6 213.6L 166.4 214.4L 165.6 213.6z"/>
<path style="stroke:none; fill:#cfcfcf" d="M 208.8 213.6L 209.6 214.4L 208.8 213.6z"/>
<path style="stroke:none; fill:#dfb8df" d="M 213.6 213.6L 214.4 214.4L 213.6 213.6z"/>
<path style="stroke:none; fill:#aa7aaa" d="M 243.2 213.6L 244 214.4L 243.2 213.6z"/>
<path style="stroke:none; fill:#b485b5" d="M 212.8 214.4L 213.6 215.2L 212.8 214.4z"/>
<path style="stroke:none; fill:#bd9ac0" d="M 242.4 214.4L 243.2 215.2L 242.4 214.4z"/>
<path style="stroke:none; fill:#c580c5" d="M 166.4 215.2L 167.2 216L 166.4 215.2z"/>
<path style="stroke:none; fill:#cfcfcf" d="M 209.6 215.2L 210.4 216L 209.6 215.2z"/>
<path style="stroke:none; fill:#dfb8df" d="M 241.6 215.2L 242.4 216L 241.6 215.2M 210.934 217.066C 210.578 217.422 211.422 217.378 211.466 217.334C 211.822 216.978 210.978 217.022 210.934 217.066M 8 217.6L 8 220L 8.8 220C 8.59904 218.838 8.54784 218.598 8 217.6M 168 217.6L 168.8 218.4L 168 217.6z"/>
<path style="stroke:none; fill:#9f679f" d="M 239.2 218.4L 240 219.2L 239.2 218.4z"/>
<path style="stroke:none; fill:#d29bd2" d="M 168.8 219.2L 169.6 220L 168.8 219.2z"/>
<path style="stroke:none; fill:#aa7aaa" d="M 238.4 219.2L 239.2 220L 238.4 219.2z"/>
<path style="stroke:none; fill:#9f679f" d="M 400.8 219.2L 400.8 221.6L 401.6 221.6C 401.399 220.438 401.348 220.198 400.8 219.2z"/>
<path style="stroke:none; fill:#bd9ac0" d="M 237.6 220L 238.4 220.8L 237.6 220z"/>
<path style="stroke:none; fill:#dfb8df" d="M 236.8 220.8L 237.6 221.6L 236.8 220.8z"/>
<path style="stroke:none; fill:#bd9ac0" d="M 400.8 221.6L 400.8 224L 401.6 224C 401.399 222.838 401.348 222.598 400.8 221.6z"/>
<path style="stroke:none; fill:#b760b8" d="M 12 223.2L 12 225.6L 12.8 225.6C 12.599 224.438 12.5478 224.198 12 223.2z"/>
<path style="stroke:none; fill:#dfb8df" d="M 171.2 223.2L 172 224L 171.2 223.2z"/>
<path style="stroke:none; fill:#c580c5" d="M 8.8 224L 8.8 226.4L 9.6 226.4C 9.39904 225.238 9.34784 224.998 8.8 224z"/>
<path style="stroke:none; fill:#9f679f" d="M 234.4 224L 235.2 224.8L 234.4 224z"/>
<path style="stroke:none; fill:#dfb8df" d="M 400.8 224L 400.8 226.4L 401.6 226.4C 401.399 225.238 401.348 224.998 400.8 224z"/>
<path style="stroke:none; fill:#c580c5" d="M 172 224.8L 172.8 225.6L 172 224.8z"/>
<path style="stroke:none; fill:#aa7aaa" d="M 233.6 224.8L 234.4 225.6L 233.6 224.8z"/>
<path style="stroke:none; fill:#bd9ac0" d="M 232.8 225.6L 233.6 226.4L 232.8 225.6z"/>
<path style="stroke:none; fill:#dfb8df" d="M 9.06664 226.934C 9.02224 226.978 8.97776 227.822 9.33336 227.466C 9.37784 227.422 9.42216 226.578 9.06664 226.934M 232 226.4L 232.8 227.2L 232 226.4M 173.6 227.2L 174.4 228L 173.6 227.2z"/>
<path style="stroke:none; fill:#9f679f" d="M 400.266 228.534C 400.222 228.578 400.178 229.422 400.534 229.066C 400.578 229.022 400.622 228.178 400.266 228.534z"/>
<path style="stroke:none; fill:#d29bd2" d="M 174.4 228.8L 175.2 229.6L 174.4 228.8z"/>
<path style="stroke:none; fill:#9f679f" d="M 229.6 229.6L 230.4 230.4L 229.6 229.6z"/>
<path style="stroke:none; fill:#bd9ac0" d="M 400 229.6L 400 232L 400.8 232C 400.599 230.838 400.548 230.598 400 229.6z"/>
<path style="stroke:none; fill:#c580c5" d="M 175.2 230.4L 176 231.2L 175.2 230.4z"/>
<path style="stroke:none; fill:#aa7aaa" d="M 228.8 230.4L 229.6 231.2L 228.8 230.4z"/>
<path style="stroke:none; fill:#c580c5" d="M 9.6 231.2L 9.6 233.6L 10.4 233.6C 10.199 232.438 10.1478 232.198 9.6 231.2z"/>
<path style="stroke:none; fill:#bd9ac0" d="M 228 231.2L 228.8 232L 228 231.2z"/>
<path style="stroke:none; fill:#dfb8df" d="M 227.2 232L 228 232.8L 227.2 232M 176.8 232.8L 177.6 233.6L 176.8 232.8z"/>
<path style="stroke:none; fill:#ebd2eb" d="M 9.86664 234.134C 9.82224 234.178 9.77776 235.022 10.1334 234.666C 10.1778 234.622 10.2222 233.778 9.86664 234.134z"/>
<path style="stroke:none; fill:#d29bd2" d="M 177.6 234.4L 178.4 235.2L 177.6 234.4z"/>
<path style="stroke:none; fill:#9f679f" d="M 224.8 235.2L 225.6 236L 224.8 235.2z"/>
<path style="stroke:none; fill:#bd9ac0" d="M 399.2 235.2L 399.2 237.6L 400 237.6C 399.799 236.438 399.748 236.198 399.2 235.2z"/>
<path style="stroke:none; fill:#aa7aaa" d="M 224 236L 224.8 236.8L 224 236z"/>
<path style="stroke:none; fill:#c580c5" d="M 10.4 236.8L 10.4 239.2L 11.2 239.2C 10.999 238.038 10.9478 237.798 10.4 236.8z"/>
<path style="stroke:none; fill:#924792" d="M 224 237.6L 224 240L 224.8 240C 224.599 238.839 224.548 238.598 224 237.6z"/>
<path style="stroke:none; fill:#aa7aaa" d="M 224 240L 224 242.4L 224.8 242.4C 224.599 241.238 224.548 240.998 224 240z"/>
<path style="stroke:none; fill:#bd9ac0" d="M 398.666 240.534C 398.622 240.578 398.578 241.422 398.934 241.066C 398.978 241.022 399.022 240.178 398.666 240.534z"/>
<path style="stroke:none; fill:#b760b8" d="M 15.4666 241.334C 15.4222 241.378 15.3778 242.222 15.7334 241.866C 15.7778 241.822 15.8222 240.978 15.4666 241.334z"/>
<path style="stroke:none; fill:#d29bd2" d="M 11.2 241.6L 11.2 244L 12 244C 11.799 242.838 11.7478 242.598 11.2 241.6z"/>
<path style="stroke:none; fill:#ebd2eb" d="M 398.666 242.134C 398.622 242.178 398.578 243.022 398.934 242.666C 398.978 242.622 399.022 241.778 398.666 242.134z"/>
<path style="stroke:none; fill:#dfb8df" d="M 224 242.4L 224 244.8L 224.8 244.8C 224.599 243.639 224.548 243.398 224 242.4z"/>
<path style="stroke:none; fill:#b485b5" d="M 397.6 244L 397.6 246.4L 398.4 246.4C 398.199 245.238 398.148 244.998 397.6 244z"/>
<path style="stroke:none; fill:#dfb8df" d="M 12.2666 246.934C 12.2222 246.978 12.1778 247.822 12.5334 247.466C 12.5778 247.422 12.6222 246.578 12.2666 246.934z"/>
<path style="stroke:none; fill:#8a398d" d="M 225.066 247.734C 225.022 247.778 224.978 248.622 225.334 248.266C 225.378 248.222 225.422 247.378 225.066 247.734z"/>
<path style="stroke:none; fill:#bd9ac0" d="M 396.8 248L 396.8 250.4L 397.6 250.4C 397.399 249.238 397.348 248.998 396.8 248z"/>
<path style="stroke:none; fill:#9f679f" d="M 224.8 248.8L 224.8 251.2L 225.6 251.2C 225.399 250.038 225.348 249.798 224.8 248.8z"/>
<path style="stroke:none; fill:#d29bd2" d="M 13.0666 250.134C 13.0222 250.178 12.9778 251.022 13.3334 250.666C 13.3778 250.622 13.4222 249.778 13.0666 250.134z"/>
<path style="stroke:none; fill:#bd9ac0" d="M 224.8 251.2L 224.8 253.6L 225.6 253.6C 225.399 252.438 225.348 252.198 224.8 251.2z"/>
<path style="stroke:none; fill:#dfb8df" d="M 396.266 252.534C 396.222 252.578 396.178 253.422 396.534 253.066C 396.578 253.022 396.622 252.178 396.266 252.534z"/>
<path style="stroke:none; fill:#d29bd2" d="M 13.8666 253.334C 13.8222 253.378 13.7778 254.222 14.1334 253.866C 14.1778 253.822 14.2222 252.978 13.8666 253.334z"/>
<path style="stroke:none; fill:#ebd2eb" d="M 225.066 254.134C 225.022 254.178 224.978 255.022 225.334 254.666C 225.378 254.622 225.422 253.778 225.066 254.134z"/>
<path style="stroke:none; fill:#dfb8df" d="M 395.466 255.734C 395.422 255.778 395.378 256.622 395.734 256.266C 395.778 256.222 395.822 255.378 395.466 255.734z"/>
<path style="stroke:none; fill:#ebd2eb" d="M 14.6666 257.334C 14.6222 257.378 14.5778 258.222 14.9334 257.866C 14.9778 257.822 15.0222 256.978 14.6666 257.334z"/>
<path style="stroke:none; fill:#924792" d="M 225.6 257.6L 225.6 260L 226.4 260C 226.199 258.838 226.148 258.598 225.6 257.6z"/>
<path style="stroke:none; fill:#ebd2eb" d="M 394.666 258.934C 394.622 258.978 394.578 259.822 394.934 259.466C 394.978 259.422 395.022 258.578 394.666 258.934z"/>
<path style="stroke:none; fill:#dfb8df" d="M 15.4666 259.734C 15.4222 259.778 15.3778 260.622 15.7334 260.266C 15.7778 260.222 15.8222 259.378 15.4666 259.734z"/>
<path style="stroke:none; fill:#aa7aaa" d="M 225.866 260.534C 225.822 260.578 225.778 261.422 226.134 261.066C 226.178 261.022 226.222 260.178 225.866 260.534z"/>
<path style="stroke:none; fill:#b485b5" d="M 393.6 260.8L 394.4 261.6L 393.6 260.8z"/>
<path style="stroke:none; fill:#bd9ac0" d="M 225.6 261.6L 225.6 264L 226.4 264C 226.199 262.838 226.148 262.598 225.6 261.6z"/>
<path style="stroke:none; fill:#dfb8df" d="M 393.6 261.6L 394.4 262.4L 393.6 261.6z"/>
<path style="stroke:none; fill:#ebd2eb" d="M 225.866 264.534C 225.822 264.578 225.778 265.422 226.134 265.066C 226.178 265.022 226.222 264.178 225.866 264.534M 17.0666 265.334C 17.0222 265.378 16.9778 266.222 17.3334 265.866C 17.3778 265.822 17.4222 264.978 17.0666 265.334z"/>
<path style="stroke:none; fill:#bd9ac0" d="M 392 265.6L 392.8 266.4L 392 265.6z"/>
<path style="stroke:none; fill:#ebd2eb" d="M 17.8666 267.734C 17.8222 267.778 17.7778 268.622 18.1334 268.266C 18.1778 268.222 18.2222 267.378 17.8666 267.734z"/>
<path style="stroke:none; fill:#8a398d" d="M 226.666 267.734C 226.622 267.778 226.578 268.622 226.934 268.266C 226.978 268.222 227.022 267.378 226.666 267.734z"/>
<path style="stroke:none; fill:#7b2b7b" d="M 388 267.2C 384.521 271.248 379.063 272.331 374.472 274.811C 362.358 281.354 348.934 287.587 335.129 290.193C 327.494 291.634 318.06 291.803 311.339 296.171C 303.737 301.112 303.572 312.824 301.871 320.8C 297.303 342.215 284.204 361.178 283.2 383.2C 291.228 382.6 297.279 374.039 301.663 368C 315.946 348.327 316 324.803 316 301.6C 335.198 301.547 359.289 296.461 375.2 285.436C 381.457 281.101 389.152 275.39 389.6 267.2L 388 267.2z"/>
<path style="stroke:none; fill:#b485b5" d="M 391.2 267.2L 392 268L 391.2 267.2z"/>
<path style="stroke:none; fill:#ebd2eb" d="M 391.466 268.534C 391.422 268.578 391.378 269.422 391.734 269.066C 391.778 269.022 391.822 268.178 391.466 268.534z"/>
<path style="stroke:none; fill:#9f679f" d="M 226.666 269.334C 226.622 269.378 226.578 270.222 226.934 269.866C 226.978 269.822 227.022 268.978 226.666 269.334z"/>
<path style="stroke:none; fill:#cfcfcf" d="M 390.4 268.8C 375.101 295.653 342.893 297.404 316 302.4C 317.431 335.735 310.998 366.341 281.6 386.4L 281.6 387.2C 286.867 385.683 291.746 382.902 296.8 380.8C 298.813 373.602 307.65 369.674 311.898 363.957C 328.749 341.275 348.823 320.636 368.489 300.436C 374.362 294.402 380.734 280.082 388.8 277.6C 389.732 274.734 391.275 271.76 390.4 268.8z"/>
<path style="stroke:none; fill:#d29bd2" d="M 18.4 269.6L 19.2 270.4L 18.4 269.6z"/>
<path style="stroke:none; fill:#b485b5" d="M 226.4 270.4L 226.4 272.8L 227.2 272.8C 226.999 271.638 226.948 271.398 226.4 270.4z"/>
<path style="stroke:none; fill:#d29bd2" d="M 19.2 272L 20 272.8L 19.2 272z"/>
<path style="stroke:none; fill:#dfb8df" d="M 226.4 272.8L 226.4 275.2L 227.2 275.2C 226.999 274.038 226.948 273.798 226.4 272.8M 20 274.4L 20.8 275.2L 20 274.4z"/>
<path style="stroke:none; fill:#aa7aaa" d="M 385.6 275.2L 386.4 276L 385.6 275.2z"/>
<path style="stroke:none; fill:#c580c5" d="M 20.8 276L 21.6 276.8L 20.8 276z"/>
<path style="stroke:none; fill:#bcbbbc" d="M 387.2 276.8C 362.786 306.886 336.07 335.382 310.705 364.696C 306.061 370.063 300.256 374.143 296 380C 304.535 378.047 312.968 371.181 320 366.167C 341.514 350.828 359.975 330.534 373.751 308C 377.801 301.376 389.942 284.706 387.2 276.8z"/>
<path style="stroke:none; fill:#924792" d="M 227.466 278.134C 227.422 278.178 227.378 279.022 227.734 278.666C 227.778 278.622 227.822 277.778 227.466 278.134z"/>
<path style="stroke:none; fill:#d29bd2" d="M 21.6 278.4L 22.4 279.2L 21.6 278.4z"/>
<path style="stroke:none; fill:#aa7aaa" d="M 227.2 279.2L 227.2 281.6L 228 281.6C 227.799 280.438 227.748 280.198 227.2 279.2z"/>
<path style="stroke:none; fill:#d29bd2" d="M 227.2 281.6L 227.2 284L 228 284C 227.799 282.838 227.748 282.598 227.2 281.6z"/>
<path style="stroke:none; fill:#aa7aaa" d="M 379.2 281.6L 380 282.4L 379.2 281.6z"/>
<path style="stroke:none; fill:#dfb8df" d="M 23.2 282.4L 24 283.2L 23.2 282.4z"/>
<path style="stroke:none; fill:#d29bd2" d="M 24 284L 24.8 284.8L 24 284z"/>
<path style="stroke:none; fill:#ebd2eb" d="M 227.466 284.534C 227.422 284.578 227.378 285.422 227.734 285.066C 227.778 285.022 227.822 284.178 227.466 284.534z"/>
<path style="stroke:none; fill:#9f679f" d="M 376 284L 376.8 284.8L 376 284z"/>
<path style="stroke:none; fill:#aa7aaa" d="M 371.2 287.2L 372 288L 371.2 287.2z"/>
<path style="stroke:none; fill:#924792" d="M 228 288L 228 290.4L 228.8 290.4C 228.599 289.238 228.548 288.998 228 288z"/>
<path style="stroke:none; fill:#dfb8df" d="M 26.4 289.6L 27.2 290.4L 26.4 289.6z"/>
<path style="stroke:none; fill:#b485b5" d="M 228 290.4L 228 292.8L 228.8 292.8C 228.599 291.638 228.548 291.398 228 290.4z"/>
<path style="stroke:none; fill:#dfb8df" d="M 27.2 291.2L 28 292L 27.2 291.2z"/>
<path style="stroke:none; fill:#d29bd2" d="M 28 292.8L 28.8 293.6L 28 292.8z"/>
<path style="stroke:none; fill:#cfcfcf" d="M 228.266 293.334C 228.222 293.378 228.178 294.222 228.534 293.866C 228.578 293.822 228.622 292.978 228.266 293.334z"/>
<path style="stroke:none; fill:#bd9ac0" d="M 359.734 293.066C 359.378 293.422 360.222 293.378 360.266 293.334C 360.622 292.978 359.778 293.022 359.734 293.066z"/>
<path style="stroke:none; fill:#d29bd2" d="M 28.8 294.4L 29.6 295.2L 28.8 294.4z"/>
<path style="stroke:none; fill:#bd9ac0" d="M 354.934 294.666C 354.578 295.022 355.422 294.978 355.466 294.934C 355.822 294.578 354.978 294.622 354.934 294.666M 352.534 295.466C 352.178 295.822 353.022 295.778 353.066 295.734C 353.422 295.378 352.578 295.422 352.534 295.466z"/>
<path style="stroke:none; fill:#dfb8df" d="M 29.6 296L 30.4 296.8L 29.6 296z"/>
<path style="stroke:none; fill:#b485b5" d="M 349.334 296.266C 348.978 296.622 349.822 296.578 349.866 296.534C 350.222 296.178 349.378 296.222 349.334 296.266M 346.134 297.066C 345.778 297.422 346.622 297.378 346.666 297.334C 347.022 296.978 346.178 297.022 346.134 297.066z"/>
<path style="stroke:none; fill:#dfb8df" d="M 30.4 297.6L 31.2 298.4L 30.4 297.6z"/>
<path style="stroke:none; fill:#924792" d="M 229.066 298.134C 229.022 298.178 228.978 299.022 229.334 298.666C 229.378 298.622 229.422 297.778 229.066 298.134z"/>
<path style="stroke:none; fill:#bd9ac0" d="M 342.934 297.866C 342.578 298.222 343.422 298.178 343.466 298.134C 343.822 297.778 342.978 297.822 342.934 297.866z"/>
<path style="stroke:none; fill:#9f679f" d="M 338.134 298.666C 337.778 299.022 338.622 298.978 338.666 298.934C 339.022 298.578 338.178 298.622 338.134 298.666z"/>
<path style="stroke:none; fill:#bcbbbc" d="M 339.734 298.666C 339.378 299.022 340.222 298.978 340.266 298.934C 340.622 298.578 339.778 298.622 339.734 298.666z"/>
<path style="stroke:none; fill:#dfb8df" d="M 31.2 299.2L 32 300L 31.2 299.2z"/>
<path style="stroke:none; fill:#aa7aaa" d="M 229.066 299.734C 229.022 299.778 228.978 300.622 229.334 300.266C 229.378 300.222 229.422 299.378 229.066 299.734z"/>
<path style="stroke:none; fill:#9f679f" d="M 332.8 299.2L 332.8 300L 335.2 300C 334.202 299.452 333.962 299.401 332.8 299.2M 327.2 300L 327.2 300.8L 329.6 300.8C 328.602 300.252 328.362 300.201 327.2 300z"/>
<path style="stroke:none; fill:#bd9ac0" d="M 330.134 300.266C 329.778 300.622 330.622 300.578 330.666 300.534C 331.022 300.178 330.178 300.222 330.134 300.266M 228.8 300.8L 228.8 303.2L 229.6 303.2C 229.399 302.038 229.348 301.798 228.8 300.8z"/>
<path style="stroke:none; fill:#b485b5" d="M 322.4 300.8L 322.4 301.6L 324.8 301.6C 323.802 301.052 323.562 301.001 322.4 300.8z"/>
<path style="stroke:none; fill:#bd9ac0" d="M 316 301.6L 316 302.4L 318.4 302.4C 317.402 301.852 317.162 301.801 316 301.6z"/>
<path style="stroke:none; fill:#d29bd2" d="M 33.6 303.2L 34.4 304L 33.6 303.2z"/>
<path style="stroke:none; fill:#ebd2eb" d="M 228.8 303.2L 228.8 305.6L 229.6 305.6C 229.399 304.438 229.348 304.198 228.8 303.2z"/>
<path style="stroke:none; fill:#dfb8df" d="M 34.4 304.8L 35.2 305.6L 34.4 304.8z"/>
<path style="stroke:none; fill:#aa7aaa" d="M 316 306.4L 316 321.6L 316.8 321.6C 316.8 316.879 317.836 310.775 316 306.4z"/>
<path style="stroke:none; fill:#c580c5" d="M 36 307.2L 36.8 308L 36 307.2z"/>
<path style="stroke:none; fill:#924792" d="M 229.6 307.2L 229.6 309.6L 230.4 309.6C 230.199 308.438 230.148 308.198 229.6 307.2z"/>
<path style="stroke:none; fill:#dfb8df" d="M 36.8 308.8L 37.6 309.6L 36.8 308.8z"/>
<path style="stroke:none; fill:#aa7aaa" d="M 229.6 309.6L 229.6 312L 230.4 312C 230.199 310.838 230.148 310.598 229.6 309.6z"/>
<path style="stroke:none; fill:#d29bd2" d="M 38.4 311.2L 39.2 312L 38.4 311.2z"/>
<path style="stroke:none; fill:#dfb8df" d="M 229.6 312L 229.6 314.4L 230.4 314.4C 230.199 313.238 230.148 312.998 229.6 312z"/>
<path style="stroke:none; fill:#d29bd2" d="M 40 313.6L 40.8 314.4L 40 313.6M 175.2 313.6L 175.2 314.4L 177.6 314.4C 176.602 313.852 176.362 313.801 175.2 313.6z"/>
<path style="stroke:none; fill:#c580c5" d="M 170.134 314.666C 169.778 315.022 170.622 314.978 170.666 314.934C 171.022 314.578 170.178 314.622 170.134 314.666z"/>
<path style="stroke:none; fill:#dfb8df" d="M 171.2 314.4L 171.2 315.2L 173.6 315.2C 172.602 314.652 172.362 314.601 171.2 314.4z"/>
<path style="stroke:none; fill:#d29bd2" d="M 165.334 315.466C 164.978 315.822 165.822 315.778 165.866 315.734C 166.222 315.378 165.378 315.422 165.334 315.466z"/>
<path style="stroke:none; fill:#ebd2eb" d="M 166.934 315.466C 166.578 315.822 167.422 315.778 167.466 315.734C 167.822 315.378 166.978 315.422 166.934 315.466z"/>
<path style="stroke:none; fill:#d29bd2" d="M 41.6 316L 42.4 316.8L 41.6 316M 160 316L 160 316.8L 162.4 316.8C 161.402 316.252 161.162 316.201 160 316z"/>
<path style="stroke:none; fill:#9f679f" d="M 230.934 316.266C 230.578 316.622 231.422 316.578 231.466 316.534C 231.822 316.178 230.978 316.222 230.934 316.266z"/>
<path style="stroke:none; fill:#924792" d="M 232.534 316.266C 232.178 316.622 233.022 316.578 233.066 316.534C 233.422 316.178 232.578 316.222 232.534 316.266z"/>
<path style="stroke:none; fill:#c580c5" d="M 154.934 317.066C 154.578 317.422 155.422 317.378 155.466 317.334C 155.822 316.978 154.978 317.022 154.934 317.066z"/>
<path style="stroke:none; fill:#dfb8df" d="M 156.534 317.066C 156.178 317.422 157.022 317.378 157.066 317.334C 157.422 316.978 156.578 317.022 156.534 317.066z"/>
<path style="stroke:none; fill:#ebd2eb" d="M 236 316.8L 236 317.6L 238.4 317.6C 237.402 317.052 237.162 317.001 236 316.8z"/>
<path style="stroke:none; fill:#d29bd2" d="M 238.934 317.066C 238.578 317.422 239.422 317.378 239.466 317.334C 239.822 316.978 238.978 317.022 238.934 317.066z"/>
<path style="stroke:none; fill:#b485b5" d="M 240.534 317.066C 240.178 317.422 241.022 317.378 241.066 317.334C 241.422 316.978 240.578 317.022 240.534 317.066z"/>
<path style="stroke:none; fill:#9f679f" d="M 241.6 316.8L 241.6 317.6L 244 317.6C 243.002 317.052 242.762 317.001 241.6 316.8z"/>
<path style="stroke:none; fill:#d29bd2" d="M 149.6 317.6L 149.6 318.4L 152 318.4C 151.002 317.852 150.762 317.801 149.6 317.6z"/>
<path style="stroke:none; fill:#ebd2eb" d="M 246.4 317.6L 246.4 318.4L 248.8 318.4C 247.802 317.852 247.562 317.801 246.4 317.6z"/>
<path style="stroke:none; fill:#bd9ac0" d="M 249.334 317.866C 248.978 318.222 249.822 318.178 249.866 318.134C 250.222 317.778 249.378 317.822 249.334 317.866z"/>
<path style="stroke:none; fill:#b485b5" d="M 250.4 317.6L 250.4 318.4L 252.8 318.4C 251.802 317.852 251.562 317.801 250.4 317.6z"/>
<path style="stroke:none; fill:#d29bd2" d="M 43.2 318.4L 44 319.2L 43.2 318.4z"/>
<path style="stroke:none; fill:#c580c5" d="M 144 318.4L 144 319.2L 146.4 319.2C 145.402 318.652 145.162 318.601 144 318.4z"/>
<path style="stroke:none; fill:#ebd2eb" d="M 146.934 318.666C 146.578 319.022 147.422 318.978 147.466 318.934C 147.822 318.578 146.978 318.622 146.934 318.666M 256.534 318.666C 256.178 319.022 257.022 318.978 257.066 318.934C 257.422 318.578 256.578 318.622 256.534 318.666z"/>
<path style="stroke:none; fill:#dfb8df" d="M 257.6 318.4L 257.6 319.2L 260 319.2C 259.002 318.652 258.762 318.601 257.6 318.4z"/>
<path style="stroke:none; fill:#b485b5" d="M 260.534 318.666C 260.178 319.022 261.022 318.978 261.066 318.934C 261.422 318.578 260.578 318.622 260.534 318.666z"/>
<path style="stroke:none; fill:#9f679f" d="M 261.6 318.4L 261.6 319.2L 264 319.2C 263.002 318.652 262.762 318.601 261.6 318.4z"/>
<path style="stroke:none; fill:#d29bd2" d="M 139.2 319.2L 139.2 320L 141.6 320C 140.602 319.452 140.362 319.401 139.2 319.2z"/>
<path style="stroke:none; fill:#ebd2eb" d="M 266.134 319.466C 265.778 319.822 266.622 319.778 266.666 319.734C 267.022 319.378 266.178 319.422 266.134 319.466z"/>
<path style="stroke:none; fill:#dfb8df" d="M 267.2 319.2L 267.2 320L 269.6 320C 268.602 319.452 268.362 319.401 267.2 319.2z"/>
<path style="stroke:none; fill:#b485b5" d="M 269.6 319.2L 269.6 320L 272 320C 271.002 319.452 270.762 319.401 269.6 319.2z"/>
<path style="stroke:none; fill:#d29bd2" d="M 134.934 320.266C 134.578 320.622 135.422 320.578 135.466 320.534C 135.822 320.178 134.978 320.222 134.934 320.266z"/>
<path style="stroke:none; fill:#ebd2eb" d="M 136.534 320.266C 136.178 320.622 137.022 320.578 137.066 320.534C 137.422 320.178 136.578 320.222 136.534 320.266z"/>
<path style="stroke:none; fill:#dfb8df" d="M 44.8 320.8L 45.6 321.6L 44.8 320.8z"/>
<path style="stroke:none; fill:#d29bd2" d="M 131.2 320.8L 132 321.6L 131.2 320.8z"/>
<path style="stroke:none; fill:#cfcfcf" d="M 274.4 320.8L 274.4 323.2L 275.2 323.2C 274.999 322.038 274.948 321.798 274.4 320.8z"/>
<path style="stroke:none; fill:#c580c5" d="M 45.6 321.6L 46.4 322.4L 45.6 321.6z"/>
<path style="stroke:none; fill:#d29bd2" d="M 130.4 323.2L 130.4 325.6L 131.2 325.6C 130.999 324.438 130.948 324.198 130.4 323.2z"/>
<path style="stroke:none; fill:#b485b5" d="M 274.666 323.734C 274.622 323.778 274.578 324.622 274.934 324.266C 274.978 324.222 275.022 323.378 274.666 323.734z"/>
<path style="stroke:none; fill:#7b2b7b" d="M 275.2 323.2C 274.629 327.718 273.795 332.246 273.6 336.8C 225.363 336.806 177.088 339.2 128.8 339.2C 135.034 350.266 152.345 346.4 163.2 346.4C 187.717 346.4 212.304 345.094 236.8 344.803C 248.379 344.666 264.155 347.682 275.169 343.953C 284.583 340.766 284.05 326.277 275.2 323.2z"/>
<path style="stroke:none; fill:#dfb8df" d="M 47.2 324L 48 324.8L 47.2 324z"/>
<path style="stroke:none; fill:#c580c5" d="M 48 324.8L 48.8 325.6L 48 324.8z"/>
<path style="stroke:none; fill:#924792" d="M 274.666 325.334C 274.622 325.378 274.578 326.222 274.934 325.866C 274.978 325.822 275.022 324.978 274.666 325.334z"/>
<path style="stroke:none; fill:#dfb8df" d="M 49.6 327.2L 50.4 328L 49.6 327.2z"/>
<path style="stroke:none; fill:#d29bd2" d="M 129.866 327.734C 129.822 327.778 129.778 328.622 130.134 328.266C 130.178 328.222 130.222 327.378 129.866 327.734z"/>
<path style="stroke:none; fill:#9f679f" d="M 315.466 327.734C 315.422 327.778 315.378 328.622 315.734 328.266C 315.778 328.222 315.822 327.378 315.466 327.734z"/>
<path style="stroke:none; fill:#d29bd2" d="M 50.4 328L 51.2 328.8L 50.4 328z"/>
<path style="stroke:none; fill:#cfcfcf" d="M 273.6 328L 273.6 330.4L 274.4 330.4C 274.199 329.238 274.148 328.998 273.6 328z"/>
<path style="stroke:none; fill:#ebd2eb" d="M 129.866 329.334C 129.822 329.378 129.778 330.222 130.134 329.866C 130.178 329.822 130.222 328.978 129.866 329.334z"/>
<path style="stroke:none; fill:#b485b5" d="M 315.466 329.334C 315.422 329.378 315.378 330.222 315.734 329.866C 315.778 329.822 315.822 328.978 315.466 329.334z"/>
<path style="stroke:none; fill:#aa7aaa" d="M 273.6 330.4L 273.6 332.8L 274.4 332.8C 274.199 331.638 274.148 331.398 273.6 330.4z"/>
<path style="stroke:none; fill:#bcbbbc" d="M 315.466 330.934C 315.422 330.978 315.378 331.822 315.734 331.466C 315.778 331.422 315.822 330.578 315.466 330.934z"/>
<path style="stroke:none; fill:#d29bd2" d="M 53.6 332L 54.4 332.8L 53.6 332z"/>
<path style="stroke:none; fill:#dfb8df" d="M 128.8 332L 128.8 334.4L 129.6 334.4C 129.399 333.238 129.348 332.998 128.8 332z"/>
<path style="stroke:none; fill:#c580c5" d="M 54.4 332.8L 55.2 333.6L 54.4 332.8z"/>
<path style="stroke:none; fill:#aa7aaa" d="M 314.4 333.6L 314.4 336L 315.2 336C 314.999 334.838 314.948 334.598 314.4 333.6z"/>
<path style="stroke:none; fill:#d29bd2" d="M 128.266 336.534C 128.222 336.578 128.178 337.422 128.534 337.066C 128.578 337.022 128.622 336.178 128.266 336.534z"/>
<path style="stroke:none; fill:#ebd2eb" d="M 229.6 336.8L 229.6 337.6L 236 337.6C 233.91 336.722 231.869 336.806 229.6 336.8z"/>
<path style="stroke:none; fill:#dfb8df" d="M 236 336.8L 236 337.6L 246.4 337.6C 243.233 336.271 239.41 336.8 236 336.8z"/>
<path style="stroke:none; fill:#b485b5" d="M 246.4 336.8L 246.4 337.6L 256 337.6C 253.042 336.358 249.586 336.8 246.4 336.8z"/>
<path style="stroke:none; fill:#924792" d="M 256 336.8L 256 337.6L 265.6 337.6C 262.642 336.358 259.186 336.8 256 336.8z"/>
<path style="stroke:none; fill:#dfb8df" d="M 58.4 337.6L 59.2 338.4L 58.4 337.6z"/>
<path style="stroke:none; fill:#ebd2eb" d="M 181.6 337.6L 181.6 338.4L 188 338.4C 185.91 337.522 183.868 337.606 181.6 337.6z"/>
<path style="stroke:none; fill:#dfb8df" d="M 188 337.6L 188 338.4L 194.4 338.4C 192.31 337.522 190.268 337.606 188 337.6z"/>
<path style="stroke:none; fill:#bd9ac0" d="M 194.4 337.6L 194.4 338.4L 200.8 338.4C 198.71 337.522 196.669 337.606 194.4 337.6z"/>
<path style="stroke:none; fill:#aa7aaa" d="M 200.8 337.6L 200.8 338.4L 210.4 338.4C 207.442 337.158 203.986 337.6 200.8 337.6z"/>
<path style="stroke:none; fill:#924792" d="M 210.4 337.6L 210.4 338.4L 220 338.4C 217.042 337.158 213.586 337.6 210.4 337.6z"/>
<path style="stroke:none; fill:#d29bd2" d="M 59.2 338.4L 60 339.2L 59.2 338.4z"/>
<path style="stroke:none; fill:#ebd2eb" d="M 132.8 338.4L 132.8 339.2L 139.2 339.2C 137.11 338.322 135.068 338.406 132.8 338.4z"/>
<path style="stroke:none; fill:#dfb8df" d="M 139.2 338.4L 139.2 339.2L 148.8 339.2C 145.842 337.958 142.386 338.4 139.2 338.4z"/>
<path style="stroke:none; fill:#b485b5" d="M 148.8 338.4L 148.8 339.2L 158.4 339.2C 155.442 337.958 151.986 338.4 148.8 338.4z"/>
<path style="stroke:none; fill:#924792" d="M 158.4 338.4L 158.4 339.2L 168.8 339.2C 165.633 337.871 161.81 338.4 158.4 338.4z"/>
<path style="stroke:none; fill:#b485b5" d="M 313.866 338.934C 313.822 338.978 313.778 339.822 314.134 339.466C 314.178 339.422 314.222 338.578 313.866 338.934z"/>
<path style="stroke:none; fill:#d29bd2" d="M 60 339.2L 60.8 340L 60 339.2M 60.8 340L 61.6 340.8L 60.8 340z"/>
<path style="stroke:none; fill:#b485b5" d="M 313.066 342.134C 313.022 342.178 312.978 343.022 313.334 342.666C 313.378 342.622 313.422 341.778 313.066 342.134z"/>
<path style="stroke:none; fill:#bd9ac0" d="M 312.266 345.334C 312.222 345.378 312.178 346.222 312.534 345.866C 312.578 345.822 312.622 344.978 312.266 345.334z"/>
<path style="stroke:none; fill:#c580c5" d="M 69.6 348.8L 70.4 349.6L 69.6 348.8z"/>
<path style="stroke:none; fill:#d29bd2" d="M 70.4 349.6L 71.2 350.4L 70.4 349.6M 71.2 350.4L 72 351.2L 71.2 350.4z"/>
<path style="stroke:none; fill:#dfb8df" d="M 72 351.2L 72.8 352L 72 351.2M 72.8 352L 73.6 352.8L 72.8 352z"/>
<path style="stroke:none; fill:#aa7aaa" d="M 309.6 352L 310.4 352.8L 309.6 352z"/>
<path style="stroke:none; fill:#d29bd2" d="M 77.6 356L 78.4 356.8L 77.6 356z"/>
<path style="stroke:none; fill:#dfb8df" d="M 78.4 356.8L 79.2 357.6L 78.4 356.8z"/>
<path style="stroke:none; fill:#b485b5" d="M 307.2 357.6L 308 358.4L 307.2 357.6z"/>
<path style="stroke:none; fill:#d29bd2" d="M 82.4 360L 83.2 360.8L 82.4 360z"/>
<path style="stroke:none; fill:#c580c5" d="M 85.6 362.4L 86.4 363.2L 85.6 362.4z"/>
<path style="stroke:none; fill:#dfb8df" d="M 86.4 363.2L 87.2 364L 86.4 363.2z"/>
<path style="stroke:none; fill:#9f679f" d="M 304 363.2L 304.8 364L 304 363.2z"/>
<path style="stroke:none; fill:#d29bd2" d="M 88.8 364.8L 89.6 365.6L 88.8 364.8z"/>
<path style="stroke:none; fill:#dfb8df" d="M 92 367.2L 92.8 368L 92 367.2z"/>
<path style="stroke:none; fill:#9f679f" d="M 300.8 368L 301.6 368.8L 300.8 368z"/>
<path style="stroke:none; fill:#d29bd2" d="M 94.4 368.8L 95.2 369.6L 94.4 368.8M 96.8 370.4L 97.6 371.2L 96.8 370.4z"/>
<path style="stroke:none; fill:#aa7aaa" d="M 298.4 371.2L 299.2 372L 298.4 371.2z"/>
<path style="stroke:none; fill:#dfb8df" d="M 99.2 372L 100 372.8L 99.2 372z"/>
<path style="stroke:none; fill:#9f679f" d="M 297.6 372L 298.4 372.8L 297.6 372z"/>
<path style="stroke:none; fill:#d29bd2" d="M 103.2 374.4L 104 375.2L 103.2 374.4M 107.2 376.8L 108 377.6L 107.2 376.8M 108.8 377.6L 109.6 378.4L 108.8 377.6z"/>
<path style="stroke:none; fill:#aa7aaa" d="M 289.6 380L 290.4 380.8L 289.6 380z"/>
<path style="stroke:none; fill:#dfb8df" d="M 114.4 380.8L 115.2 381.6L 114.4 380.8M 116 381.6L 116.8 382.4L 116 381.6M 117.6 382.4L 118.4 383.2L 117.6 382.4M 119.2 383.2L 120 384L 119.2 383.2z"/>
<path style="stroke:none; fill:#b485b5" d="M 285.6 383.2L 286.4 384L 285.6 383.2z"/>
<path style="stroke:none; fill:#c580c5" d="M 123.2 384.8L 124 385.6L 123.2 384.8z"/>
<path style="stroke:none; fill:#b485b5" d="M 283.2 384.8L 284 385.6L 283.2 384.8z"/>
<path style="stroke:none; fill:#d29bd2" d="M 124.8 385.6L 125.6 386.4L 124.8 385.6z"/>
<path style="stroke:none; fill:#dfb8df" d="M 126.4 386.4L 127.2 387.2L 126.4 386.4z"/>
<path style="stroke:none; fill:#b485b5" d="M 280.8 386.4L 281.6 387.2L 280.8 386.4z"/>
<path style="stroke:none; fill:#dfb8df" d="M 128 387.2L 128.8 388L 128 387.2z"/>
<path style="stroke:none; fill:#ebd2eb" d="M 280.534 387.466C 280.178 387.822 281.022 387.778 281.066 387.734C 281.422 387.378 280.578 387.422 280.534 387.466z"/>
<path style="stroke:none; fill:#d29bd2" d="M 130.4 388L 131.2 388.8L 130.4 388z"/>
<path style="stroke:none; fill:#dfb8df" d="M 132 388.8L 132.8 389.6L 132 388.8z"/>
<path style="stroke:none; fill:#d29bd2" d="M 134.4 389.6L 135.2 390.4L 134.4 389.6z"/>
<path style="stroke:none; fill:#aa7aaa" d="M 274.4 389.6L 275.2 390.4L 274.4 389.6z"/>
<path style="stroke:none; fill:#bd9ac0" d="M 272.8 390.4L 273.6 391.2L 272.8 390.4z"/>
<path style="stroke:none; fill:#dfb8df" d="M 138.4 391.2L 139.2 392L 138.4 391.2z"/>
<path style="stroke:none; fill:#b485b5" d="M 270.4 391.2L 271.2 392L 270.4 391.2z"/>
<path style="stroke:none; fill:#dfb8df" d="M 140.8 392L 141.6 392.8L 140.8 392z"/>
<path style="stroke:none; fill:#aa7aaa" d="M 268 392L 268.8 392.8L 268 392z"/>
<path style="stroke:none; fill:#c580c5" d="M 143.734 393.066C 143.378 393.422 144.222 393.378 144.266 393.334C 144.622 392.978 143.778 393.022 143.734 393.066z"/>
<path style="stroke:none; fill:#b485b5" d="M 265.6 392.8L 266.4 393.6L 265.6 392.8z"/>
<path style="stroke:none; fill:#c580c5" d="M 146.134 393.866C 145.778 394.222 146.622 394.178 146.666 394.134C 147.022 393.778 146.178 393.822 146.134 393.866z"/>
<path style="stroke:none; fill:#b485b5" d="M 263.2 393.6L 264 394.4L 263.2 393.6z"/>
<path style="stroke:none; fill:#c580c5" d="M 148.534 394.666C 148.178 395.022 149.022 394.978 149.066 394.934C 149.422 394.578 148.578 394.622 148.534 394.666z"/>
<path style="stroke:none; fill:#bd9ac0" d="M 260.8 394.4L 261.6 395.2L 260.8 394.4z"/>
<path style="stroke:none; fill:#c580c5" d="M 151.734 395.466C 151.378 395.822 152.222 395.778 152.266 395.734C 152.622 395.378 151.778 395.422 151.734 395.466z"/>
<path style="stroke:none; fill:#dfb8df" d="M 258.134 395.466C 257.778 395.822 258.622 395.778 258.666 395.734C 259.022 395.378 258.178 395.422 258.134 395.466z"/>
<path style="stroke:none; fill:#d29bd2" d="M 154.134 396.266C 153.778 396.622 154.622 396.578 154.666 396.534C 155.022 396.178 154.178 396.222 154.134 396.266z"/>
<path style="stroke:none; fill:#ebd2eb" d="M 255.734 396.266C 255.378 396.622 256.222 396.578 256.266 396.534C 256.622 396.178 255.778 396.222 255.734 396.266z"/>
<path style="stroke:none; fill:#d29bd2" d="M 157.334 397.066C 156.978 397.422 157.822 397.378 157.866 397.334C 158.222 396.978 157.378 397.022 157.334 397.066z"/>
<path style="stroke:none; fill:#bd9ac0" d="M 251.734 397.066C 251.378 397.422 252.222 397.378 252.266 397.334C 252.622 396.978 251.778 397.022 251.734 397.066z"/>
<path style="stroke:none; fill:#d29bd2" d="M 160.534 397.866C 160.178 398.222 161.022 398.178 161.066 398.134C 161.422 397.778 160.578 397.822 160.534 397.866M 248.534 397.866C 248.178 398.222 249.022 398.178 249.066 398.134C 249.422 397.778 248.578 397.822 248.534 397.866z"/>
<path style="stroke:none; fill:#c580c5" d="M 164.534 398.666C 164.178 399.022 165.022 398.978 165.066 398.934C 165.422 398.578 164.578 398.622 164.534 398.666z"/>
<path style="stroke:none; fill:#bd9ac0" d="M 244.534 398.666C 244.178 399.022 245.022 398.978 245.066 398.934C 245.422 398.578 244.578 398.622 244.534 398.666z"/>
<path style="stroke:none; fill:#dfb8df" d="M 167.2 399.2L 167.2 400L 169.6 400C 168.602 399.452 168.362 399.401 167.2 399.2z"/>
<path style="stroke:none; fill:#bd9ac0" d="M 240 399.2L 240 400L 242.4 400C 241.402 399.452 241.162 399.401 240 399.2z"/>
<path style="stroke:none; fill:#d29bd2" d="M 172 400L 172 400.8L 174.4 400.8C 173.402 400.252 173.162 400.201 172 400z"/>
<path style="stroke:none; fill:#b485b5" d="M 235.734 400.266C 235.378 400.622 236.222 400.578 236.266 400.534C 236.622 400.178 235.778 400.222 235.734 400.266z"/>
<path style="stroke:none; fill:#ebd2eb" d="M 237.334 400.266C 236.978 400.622 237.822 400.578 237.866 400.534C 238.222 400.178 237.378 400.222 237.334 400.266z"/>
<path style="stroke:none; fill:#dfb8df" d="M 177.334 401.066C 176.978 401.422 177.822 401.378 177.866 401.334C 178.222 400.978 177.378 401.022 177.334 401.066z"/>
<path style="stroke:none; fill:#c580c5" d="M 178.934 401.066C 178.578 401.422 179.422 401.378 179.466 401.334C 179.822 400.978 178.978 401.022 178.934 401.066z"/>
<path style="stroke:none; fill:#aa7aaa" d="M 228.8 400.8L 228.8 401.6L 231.2 401.6C 230.202 401.052 229.962 401.001 228.8 400.8z"/>
<path style="stroke:none; fill:#dfb8df" d="M 231.734 401.066C 231.378 401.422 232.222 401.378 232.266 401.334C 232.622 400.978 231.778 401.022 231.734 401.066M 183.734 401.866C 183.378 402.222 184.222 402.178 184.266 402.134C 184.622 401.778 183.778 401.822 183.734 401.866z"/>
<path style="stroke:none; fill:#d29bd2" d="M 184.8 401.6L 184.8 402.4L 187.2 402.4C 186.202 401.852 185.962 401.801 184.8 401.6z"/>
<path style="stroke:none; fill:#9f679f" d="M 220.8 401.6L 220.8 402.4L 223.2 402.4C 222.202 401.852 221.962 401.801 220.8 401.6z"/>
<path style="stroke:none; fill:#bd9ac0" d="M 223.2 401.6L 223.2 402.4L 225.6 402.4C 224.602 401.852 224.362 401.801 223.2 401.6z"/>
<path style="stroke:none; fill:#ebd2eb" d="M 226.134 401.866C 225.778 402.222 226.622 402.178 226.666 402.134C 227.022 401.778 226.178 401.822 226.134 401.866z"/>
<path style="stroke:none; fill:#dfb8df" d="M 193.6 402.4L 193.6 403.2L 197.6 403.2C 196.185 402.577 195.171 402.47 193.6 402.4z"/>
<path style="stroke:none; fill:#bd9ac0" d="M 197.6 402.4L 197.6 403.2L 213.6 403.2C 209.028 401.282 202.535 402.4 197.6 402.4z"/>
<path style="stroke:none; fill:#ebd2eb" d="M 213.6 402.4L 213.6 403.2L 217.6 403.2C 216.185 402.577 215.171 402.47 213.6 402.4z"/>
</g>
</svg>