<?xml version="1.0" encoding="utf-8"?>
<!-- Generator: Adobe Illustrator 22.0.0, SVG Export Plug-In . SVG Version: 6.00 Build 0)  -->
<svg version="1.1" id="Layer_1" xmlns="http://www.w3.org/2000/svg" xmlns:xlink="http://www.w3.org/1999/xlink" x="0px" y="0px"
	 viewBox="0 0 409.6 409.6" style="enable-background:new 0 0 409.6 409.6;" xml:space="preserve">
<style type="text/css">
	.st0{fill:#DFB8DF;}
	.st1{fill:#C580C5;}
	.st2{fill:#B760B8;}
	.st3{fill:#D29BD2;}
	.st4{fill:#EBD2EB;}
	.st5{fill:#AB46AC;}
	.st6{fill:#FFFFFF;}
	.st7{fill:#8A398D;}
	.st8{fill:#924792;}
	.st9{fill:#9F679F;}
	.st10{fill:#B485B5;}
	.st11{fill:#BCBBBC;}
	.st12{fill:#BD9AC0;}
	.st13{fill:#AA7AAA;}
	.st14{fill:#CFCFCF;}
	.st15{fill:#7B2B7B;}
</style>
<path class="st0" d="M189.6,8.8v0.8h4C192.2,9,191.2,8.9,189.6,8.8z"/>
<path class="st1" d="M193.6,8.8v0.8h4.8C196.8,8.9,195.4,8.8,193.6,8.8z"/>
<path class="st2" d="M198.4,8.8v0.8h12.8C207.4,8,202.5,8.8,198.4,8.8z"/>
<path class="st3" d="M211.2,8.8v0.8h5.6C214.9,8.8,213.2,8.8,211.2,8.8z"/>
<path class="st4" d="M216.8,8.8v0.8h2.4C218.2,9.1,218,9,216.8,8.8 M182.1,9.9c-0.4,0.4,0.5,0.3,0.5,0.3
	C183,9.8,182.2,9.8,182.1,9.9z"/>
<path class="st3" d="M183.7,9.9c-0.4,0.4,0.5,0.3,0.5,0.3C184.6,9.8,183.8,9.8,183.7,9.9z"/>
<path class="st1" d="M184.8,9.6v0.8h2.4C186.2,9.9,186,9.8,184.8,9.6z"/>
<path class="st5" d="M190.4,402.4c-3.1-6.5-10.1-11.7-15.2-16.8L144,354.4c-4.3-4.3-13.3-10-15.2-16c-1.5-4.9,1.7-12.5,2.4-17.6
	c16.1-1.3,31.9-5.9,48-7.2v-52c0-7.6,1.6-17.4-0.4-24.8c-2.8-10.4-11.8-21.2-17.2-30.4c-5.1-8.7-9.1-18-17.6-24
	c0.4,2.9,1.3,5.4,2.4,8h-1.6c-0.1,3.1-1.5,4.6-4,6.4l0.8,1.6c-4.3,2.2-7.7,7.5-10.8,11.1c-6.9,8-14.2,15.8-20.7,24.1
	c-4.2,5.4-9.4,13.1-15.7,16c-0.4,1.6-0.6,2-1.6,3.2l0.8,1.6c-6.8,3.3-10,11.6-16,16l0.8,1.6c-6.7,3.4-10.3,11.3-16,16
	c-2,7.6-12,13.1-16,20h-0.8c-22.8-37-38.5-77.2-34.3-121.6C19.8,97.7,93,26.9,181.6,20.9c33.3-2.3,67.5,6.9,96.8,22.3l-4,3.2
	c-0.8,2.9-3.5,4.2-4,7.2l-3.2,0.8c0.3,1.7-13.3,18.1-15.2,17.6c-5.2,10.7-19.8,18.4-23.2,29.6l-1.6-0.8c-1.6,3.7-4,6.3-7.2,8.8
	c5.1,14.5,20.6,12,32.8,12H312c7.4,0,18.6-2.1,25.6,0.5c6.9,2.5,13.3,12,18.4,17.1c14,14,27.8,31.8,44,43.2
	c-0.2-22-9.3-45.4-19-64.8C342.5,40.6,258-1,173.6,11.5C87.1,24.3,18.1,98.2,9.5,184.8c-3,30.3,0.4,61.9,11.2,90.4
	c12.1,32,32.2,60.5,58.6,82.5C110.5,383.7,149.8,399.2,190.4,402.4L190.4,402.4z"/>
<path class="st1" d="M222.9,9.9c-0.4,0.4,0.5,0.3,0.5,0.3C223.8,9.8,223,9.8,222.9,9.9z"/>
<path class="st3" d="M224,9.6v0.8h2.4C225.4,9.9,225.2,9.8,224,9.6z"/>
<path class="st4" d="M226.9,9.9c-0.4,0.4,0.5,0.3,0.5,0.3C227.8,9.8,227,9.8,226.9,9.9z"/>
<path class="st0" d="M176,10.4v0.8h2.4C177.4,10.7,177.2,10.6,176,10.4z"/>
<path class="st2" d="M178.9,10.7c-0.4,0.4,0.5,0.3,0.5,0.3C179.8,10.6,179,10.6,178.9,10.7z"/>
<path class="st3" d="M230.9,10.7c-0.4,0.4,0.5,0.3,0.5,0.3C231.8,10.6,231,10.6,230.9,10.7z"/>
<path class="st0" d="M232,10.4v0.8h2.4C233.4,10.7,233.2,10.6,232,10.4 M171.2,11.2V12h2.4C172.6,11.5,172.4,11.4,171.2,11.2z"/>
<path class="st3" d="M236,11.2V12h2.4C237.4,11.5,237.2,11.4,236,11.2 M167.7,12.3c-0.4,0.4,0.5,0.3,0.5,0.3
	C168.6,12.2,167.8,12.2,167.7,12.3 M240.8,12v0.8h2.4C242.2,12.3,242,12.2,240.8,12 M163.7,13.1c-0.4,0.4,0.5,0.3,0.5,0.3
	C164.6,13,163.8,13,163.7,13.1 M245.3,13.1c-0.4,0.4,0.5,0.3,0.5,0.3C246.2,13,245.4,13,245.3,13.1z"/>
<path class="st1" d="M160.5,13.9c-0.4,0.4,0.5,0.3,0.5,0.3C161.4,13.8,160.6,13.8,160.5,13.9z"/>
<path class="st0" d="M249.3,13.9c-0.4,0.4,0.5,0.3,0.5,0.3C250.2,13.8,249.4,13.8,249.3,13.9z"/>
<path class="st3" d="M156.5,14.7c-0.4,0.4,0.5,0.3,0.5,0.3C157.4,14.6,156.6,14.6,156.5,14.7z"/>
<path class="st0" d="M252.5,14.7c-0.4,0.4,0.5,0.3,0.5,0.3C253.4,14.6,252.6,14.6,252.5,14.7z"/>
<path class="st1" d="M154.1,15.5c-0.4,0.4,0.5,0.3,0.5,0.3C155,15.4,154.2,15.4,154.1,15.5z"/>
<path class="st0" d="M255.7,15.5c-0.4,0.4,0.5,0.3,0.5,0.3C256.6,15.4,255.8,15.4,255.7,15.5z"/>
<path class="st1" d="M150.9,16.3c-0.4,0.4,0.5,0.3,0.5,0.3C151.8,16.2,151,16.2,150.9,16.3z"/>
<path class="st4" d="M258.9,16.3c-0.4,0.4,0.5,0.3,0.5,0.3C259.8,16.2,259,16.2,258.9,16.3z"/>
<path class="st2" d="M148.5,17.1c-0.4,0.4,0.5,0.3,0.5,0.3C149.4,17,148.6,17,148.5,17.1z"/>
<path class="st0" d="M261.3,17.1c-0.4,0.4,0.5,0.3,0.5,0.3C262.2,17,261.4,17,261.3,17.1 M268.8,19.2l0.8,0.8L268.8,19.2z"/>
<path class="st3" d="M138.4,20l0.8,0.8L138.4,20z"/>
<path class="st0" d="M271.2,20l0.8,0.8L271.2,20z"/>
<path class="st3" d="M136,20.8l0.8,0.8L136,20.8 M178.4,20.8c-2.7,5.1-8.1,11-12.8,14.4c-0.6,4.9-8.4,10.7-11.7,14.5
	c-10.3,11.6-23.7,37.3-40.3,39.1v0.8c9.7,0,22.7,2.2,32-0.7c17.3-5.5,23.7-23.9,35.7-35.8c9.1-9.1,22.2-19.5,27.5-31.4
	C208.8,21.6,178.4,20.8,178.4,20.8z"/>
<path class="st1" d="M197.6,20.8v0.8h6.4C201.9,20.7,199.9,20.8,197.6,20.8z"/>
<path class="st0" d="M132,30.4l0.8,2.4c-4.9,2.4-7.8,7.9-11.4,11.9l-21.1,24.1c-7.2,8.7-12.3,17.2-23.6,20v0.8
	c14,0,33.7,3.6,46.2-3.6c9.9-5.7,19-21.3,26.2-30.1c4.1-5,16.1-14.4,16.4-20.8c5-2.4,10.1-8.9,12.8-13.6
	C162.4,21.6,147.5,27.4,132,30.4z"/>
<path class="st1" d="M208.8,21.6C199.3,36,185.7,47,174.6,60c-9.6,11.2-15,23.5-29.8,28.8v0.8c13.2,0,32.6,3.3,44.6-3.5
	c3.6-2.1,6.3-6.7,9.1-9.7l21-24.3c6-7,17.5-16,19.7-24.9C229,25.1,219.1,22.9,208.8,21.6z"/>
<path class="st3" d="M275.2,21.6l0.8,0.8L275.2,21.6 M132,22.4l0.8,0.8L132,22.4z"/>
<path class="st2" d="M163.2,22.4v0.8h2.4C164.6,22.7,164.4,22.6,163.2,22.4z"/>
<path class="st0" d="M277.6,22.4l0.8,0.8L277.6,22.4z"/>
<path class="st1" d="M159.2,23.2V24h2.4C160.6,23.5,160.4,23.4,159.2,23.2z"/>
<path class="st3" d="M279.2,23.2L280,24L279.2,23.2 M128,24l0.8,0.8L128,24z"/>
<path class="st1" d="M155.7,24.3c-0.4,0.4,0.5,0.3,0.5,0.3C156.6,24.2,155.8,24.2,155.7,24.3 M126.4,24.8l0.8,0.8L126.4,24.8
	 M151.7,25.1c-0.4,0.4,0.5,0.3,0.5,0.3C152.6,25,151.8,25,151.7,25.1z"/>
<path class="st0" d="M283.2,24.8l0.8,0.8L283.2,24.8z"/>
<path class="st1" d="M148.5,25.9c-0.4,0.4,0.5,0.3,0.5,0.3C149.4,25.8,148.6,25.8,148.5,25.9z"/>
<path class="st3" d="M284.8,25.6l0.8,0.8L284.8,25.6z"/>
<path class="st0" d="M122.4,26.4l0.8,0.8L122.4,26.4z"/>
<path class="st3" d="M145.3,26.7c-0.4,0.4,0.5,0.3,0.5,0.3C146.2,26.6,145.4,26.6,145.3,26.7z"/>
<path class="st0" d="M120.8,27.2l0.8,0.8L120.8,27.2z"/>
<path class="st2" d="M239.2,27.2c-2.9,7.2-10.3,13.3-15.4,19.1c-12.9,14.7-25.8,38-45.4,42.5v0.8c5.5,0,13.2-1.4,18.4,0.5
	c7.1,2.6,17.2,14.2,21.6,20.3c4.4-1.7,7.6-5,8.8-9.6l1.6,0.8c5.4-10.7,19.7-17.8,23.2-29.6c4.4-0.9,14.5-13,15.2-17.6l3.2-0.8
	c0.8-2.9,3.5-4.2,4-7.2c1.7-0.9,2.8-1.8,4-3.2C267,35.1,252.3,31.4,239.2,27.2L239.2,27.2z"/>
<path class="st3" d="M119.2,28l0.8,0.8L119.2,28 M139.7,28.3c-0.4,0.4,0.5,0.3,0.5,0.3C140.6,28.2,139.8,28.2,139.7,28.3
	 M117.6,28.8l0.8,0.8L117.6,28.8 M137.3,29.1c-0.4,0.4,0.5,0.3,0.5,0.3C138.2,29,137.4,29,137.3,29.1 M116,29.6l0.8,0.8L116,29.6
	 M114.4,30.4l0.8,0.8L114.4,30.4 M112.8,31.2l0.8,0.8L112.8,31.2z"/>
<path class="st4" d="M13.6,176c9.6-7.7,17.4-19.3,25.4-28.7c9.5-11.2,24.3-22,29.6-36.1c2.5-6.8,1.8-14.5,1.8-21.6
	c21.2-0.1,35.5-25.8,47.9-40.7c4.7-5.6,11.2-11.2,14.5-17.7C118.7,33.3,103.7,43,92,50.7C57.8,73,29,109.6,18.8,149.6
	C16.6,158.3,13.6,167,13.6,176L13.6,176z"/>
<path class="st0" d="M111.2,32l0.8,0.8L111.2,32z"/>
<path class="st1" d="M299.2,32.8l0.8,0.8L299.2,32.8z"/>
<path class="st3" d="M300.8,33.6l0.8,0.8L300.8,33.6z"/>
<path class="st1" d="M107.2,34.4l0.8,0.8L107.2,34.4z"/>
<path class="st0" d="M302.4,34.4l0.8,0.8L302.4,34.4z"/>
<path class="st3" d="M105.6,35.2l0.8,0.8L105.6,35.2z"/>
<path class="st1" d="M304.8,36l0.8,0.8L304.8,36z"/>
<path class="st0" d="M306.4,36.8l0.8,0.8L306.4,36.8z"/>
<path class="st3" d="M101.6,37.6l0.8,0.8L101.6,37.6z"/>
<path class="st1" d="M112.8,38.4l0.8,0.8L112.8,38.4z"/>
<path class="st3" d="M308.8,38.4l0.8,0.8L308.8,38.4 M99.2,39.2L100,40L99.2,39.2z"/>
<path class="st1" d="M111.2,39.2L112,40L111.2,39.2z"/>
<path class="st0" d="M310.4,39.2l0.8,0.8L310.4,39.2z"/>
<path class="st1" d="M109.6,40l0.8,0.8L109.6,40 M96.8,40.8l0.8,0.8L96.8,40.8z"/>
<path class="st0" d="M312.8,40.8l0.8,0.8L312.8,40.8 M95.2,41.6l0.8,0.8L95.2,41.6 M315.2,42.4l0.8,0.8L315.2,42.4z"/>
<path class="st3" d="M92,44l0.8,0.8L92,44 M100.8,44.8l0.8,0.8L100.8,44.8z"/>
<path class="st1" d="M318.4,44.8l0.8,0.8L318.4,44.8z"/>
<path class="st3" d="M89.6,45.6l0.8,0.8L89.6,45.6z"/>
<path class="st0" d="M320.8,46.4l0.8,0.8L320.8,46.4z"/>
<path class="st3" d="M96.8,47.2l0.8,0.8L96.8,47.2 M86.4,48l0.8,0.8L86.4,48z"/>
<path class="st0" d="M324,48.8l0.8,0.8L324,48.8 M83.2,50.4l0.8,0.8L83.2,50.4z"/>
<path class="st1" d="M82.4,51.2l0.8,0.8L82.4,51.2z"/>
<path class="st0" d="M327.2,51.2L328,52L327.2,51.2z"/>
<path class="st3" d="M328,52l0.8,0.8L328,52z"/>
<path class="st0" d="M79.2,53.6l0.8,0.8L79.2,53.6z"/>
<path class="st3" d="M78.4,54.4l0.8,0.8L78.4,54.4z"/>
<path class="st1" d="M84.8,55.2l0.8,0.8L84.8,55.2z"/>
<path class="st0" d="M332,55.2l0.8,0.8L332,55.2z"/>
<path class="st3" d="M332.8,56l0.8,0.8L332.8,56 M81.6,57.6l0.8,0.8L81.6,57.6z"/>
<path class="st0" d="M73.6,58.4l0.8,0.8L73.6,58.4z"/>
<path class="st3" d="M72.8,59.2l0.8,0.8L72.8,59.2 M72,60l0.8,0.8L72,60 M77.6,60.8l0.8,0.8L77.6,60.8z"/>
<path class="st0" d="M339.2,61.6l0.8,0.8L339.2,61.6 M340,62.4l0.8,0.8L340,62.4z"/>
<path class="st3" d="M340.8,63.2l0.8,0.8L340.8,63.2 M341.6,64l0.8,0.8L341.6,64 M72.8,64.8l0.8,0.8L72.8,64.8 M342.4,64.8l0.8,0.8
	L342.4,64.8 M343.2,65.6l0.8,0.8L343.2,65.6 M344,66.4l0.8,0.8L344,66.4 M344.8,67.2l0.8,0.8L344.8,67.2 M345.6,68l0.8,0.8L345.6,68
	 M346.4,68.8l0.8,0.8L346.4,68.8 M347.2,69.6l0.8,0.8L347.2,69.6z"/>
<path class="st0" d="M348,70.4l0.8,0.8L348,70.4 M348.8,71.2l0.8,0.8L348.8,71.2z"/>
<path class="st1" d="M59.2,72.8l0.8,0.8L59.2,72.8z"/>
<path class="st3" d="M58.4,73.6l0.8,0.8L58.4,73.6z"/>
<path class="st0" d="M57.6,74.4l0.8,0.8L57.6,74.4z"/>
<path class="st1" d="M353.6,76.8l0.8,0.8L353.6,76.8z"/>
<path class="st3" d="M354.4,77.6l0.8,0.8L354.4,77.6z"/>
<path class="st0" d="M355.2,78.4l0.8,0.8L355.2,78.4z"/>
<path class="st3" d="M53.6,79.2l0.8,0.8L53.6,79.2z"/>
<path class="st0" d="M52.8,80l0.8,0.8L52.8,80z"/>
<path class="st1" d="M357.6,81.6l0.8,0.8L357.6,81.6z"/>
<path class="st3" d="M55.2,82.4l0.8,0.8L55.2,82.4z"/>
<path class="st0" d="M358.4,82.4l0.8,0.8L358.4,82.4z"/>
<path class="st3" d="M54.4,83.2l0.8,0.8L54.4,83.2 M49.6,84l0.8,0.8L49.6,84 M360.8,85.6l0.8,0.8L360.8,85.6z"/>
<path class="st0" d="M361.6,86.4l0.8,0.8L361.6,86.4z"/>
<path class="st3" d="M47.2,87.2L48,88L47.2,87.2z"/>
<path class="st1" d="M50.4,88l0.8,0.8L50.4,88z"/>
<path class="st3" d="M363.2,88.8l0.8,0.8L363.2,88.8z"/>
<path class="st6" d="M70.4,89.6V108c9.1,1.7,18.2,3.6,27.2,5.7c3.4,0.8,8,0.9,10.9,3c3.9,2.9,6.5,9.5,8.8,13.7l17.7,30.4l29.6,51.2
	c4.5,7.8,11.4,16.2,14,24.8c3.7,12.2,0.5,29.7,0.5,42.4c0,8.8,3.1,24.6-0.5,32.6c-1.6,3.6-8.2,3.4-11.5,3.8l-23.2,3.6
	c-3.1,0.4-9,0.4-11.5,2.4c-3.3,2.6-3.6,13.5-4.5,17.6c48.5-1,97-2.4,145.6-2.4c0-5.6,0.3-11.4,1.6-16.8c-15,0-29.8-3.1-44.8-3.2
	c-2.4-19.2-4-39-4.8-58.4c-0.3-6.1-3.1-14.9-1.1-20.8c3.2-9.4,15.2-18.9,21.6-26.4c17.4-20.4,34.2-42.2,52.8-61.5
	c8.2-8.5,23.7-4,32.8-10.6c4.1-3,5.7-12.8,7.5-17.5H230.4c1.1,4.5-0.4,13.3,2.4,17c1.6,2,5.7,2.5,8,3.1l21.6,5.5
	c-11.3,14.6-21.8,29.9-32.7,44.8c-5.9,8-13.8,16.4-17.7,25.6h-1.6c-4-14-13.3-27.8-19.8-40.8c-10.9-21.8-20.7-44.6-33-65.6
	c13.5-1.7,27.2-5.3,40.8-5.6v-16C198.4,89.6,70.4,89.6,70.4,89.6z"/>
<path class="st0" d="M364,89.6l0.8,0.8L364,89.6z"/>
<path class="st3" d="M44.8,90.4l0.8,0.8L44.8,90.4z"/>
<path class="st7" d="M198.4,90.4c0,3.7,1.4,10.9-0.8,14.1c-1.8,2.6-6.8,2.2-9.6,2.7c-9.6,1.6-19.9,3.9-29.6,4.1
	c2.9,10.1,9.6,19.1,13.6,28.8l2.4-0.8c2.7,9.5,9.1,13.9,13.8,21.6c9.7,16.2,19,34.5,26.2,52h0.8c9-15.8,21.7-30,32.2-44.8
	c4-5.6,9.3-11.2,11.8-17.6c-5.8-1.5-12.6-1.4-17.2-5c-1.4-1.1-4.3-2.1-3.6-3.8v-0.8L232,140c-0.8-6.1,0.3-25.4-9.5-25.4
	c-2.4,0-5.2,4.2-7.3,5.4c0.1,3.4-11.2,15.8-14.4,16.8c-1.4,5.5-7.5,8.3-9.6,13.6c-13.3-5-19.2-19.4-24.8-31.2
	c10.8-4.7,23.3-1.3,33.6-6.3C210.2,107.9,205.5,95.4,198.4,90.4L198.4,90.4z"/>
<path class="st3" d="M48,91.2l0.8,0.8L48,91.2 M365.6,92l0.8,0.8L365.6,92 M43.2,92.8l0.8,0.8L43.2,92.8 M45.6,94.4l0.8,0.8
	L45.6,94.4 M367.2,94.4l0.8,0.8L367.2,94.4z"/>
<path class="st0" d="M40.8,96l0.8,0.8L40.8,96z"/>
<path class="st3" d="M368.8,96.8l0.8,0.8L368.8,96.8z"/>
<path class="st1" d="M43.2,97.6l0.8,0.8L43.2,97.6z"/>
<path class="st8" d="M205.6,97.6c0,3.1,0.5,6.7-0.7,9.6c-5.3,13-28.3,5.7-38.5,12c3.9,11.4,11.9,28.1,24.8,31.2
	c2.9-4.7,8.8-7.9,9.6-13.6c4.6-1.5,13.9-12,14.4-16.8C228.7,114.5,211.8,101.9,205.6,97.6L205.6,97.6z"/>
<path class="st3" d="M370.4,99.2l0.8,0.8L370.4,99.2 M38.4,100l0.8,0.8L38.4,100z"/>
<path class="st1" d="M41.6,100l0.8,0.8L41.6,100z"/>
<path class="st0" d="M372,101.6l0.8,0.8L372,101.6z"/>
<path class="st3" d="M36.8,102.4l0.8,0.8L36.8,102.4 M40,102.4l0.8,0.8L40,102.4z"/>
<path class="st0" d="M69.6,104.8c-0.9,10.9-10.7,20.2-18.1,27.4c-8.1,7.8-15.6,17.5-22.7,26.2c-4,4.8-9.9,14.9-16,16.8
	c-0.6,13.5-2.5,26.5-0.8,40c7.3-4.8,12.7-14.7,18.6-21.2c10.2-11.4,20.9-22.8,30.5-34.6C69.5,149,77.6,136.4,88,128
	C85.4,118.9,74.1,113.3,69.6,104.8 M192.8,105.6v0.8h2.4C194.2,105.9,194,105.8,192.8,105.6z"/>
<path class="st9" d="M195.7,105.9c-0.4,0.4,0.5,0.3,0.5,0.3C196.6,105.8,195.8,105.8,195.7,105.9z"/>
<path class="st3" d="M374.4,105.6l0.8,0.8L374.4,105.6 M34.4,106.4l0.8,0.8L34.4,106.4z"/>
<path class="st0" d="M187.7,106.7c-0.4,0.4,0.5,0.3,0.5,0.3C188.6,106.6,187.8,106.6,187.7,106.7z"/>
<path class="st10" d="M189.3,106.7c-0.4,0.4,0.5,0.3,0.5,0.3C190.2,106.6,189.4,106.6,189.3,106.7z"/>
<path class="st0" d="M182.1,107.5c-0.4,0.4,0.5,0.3,0.5,0.3C183,107.4,182.2,107.4,182.1,107.5z"/>
<path class="st10" d="M183.2,107.2v0.8h2.4C184.6,107.5,184.4,107.4,183.2,107.2z"/>
<path class="st1" d="M33.6,108l0.8,0.8L33.6,108z"/>
<path class="st11" d="M70.4,108l0.8,1.6H72l0.8-1.6C72.8,108,70.4,108,70.4,108z"/>
<path class="st12" d="M176.8,108v0.8h2.4C178.2,108.3,178,108.2,176.8,108z"/>
<path class="st1" d="M36,108.8l0.8,0.8L36,108.8z"/>
<path class="st13" d="M72,108.8c3.8,8.1,37.3,10.7,23.2,23.2c1.9,4.1,7.4,11.1,12,12.5c4.9,1.5,8.3-7.3,7.8-10.9
	c-1.4-9.9-10.1-10.1-14.2-16.8c-4.3,0-14.9-3.5-14.4-5.6L72,108.8z"/>
<path class="st11" d="M75.2,108.8v0.8h2.4C76.6,109.1,76.4,109,75.2,108.8 M171.7,109.1c-0.4,0.4,0.5,0.3,0.5,0.3
	C172.6,109,171.8,109,171.7,109.1z"/>
<path class="st13" d="M173.3,109.1c-0.4,0.4,0.5,0.3,0.5,0.3C174.2,109,173.4,109,173.3,109.1z"/>
<path class="st14" d="M79.7,109.9c-0.4,0.4,0.5,0.3,0.5,0.3C80.6,109.8,79.8,109.8,79.7,109.9z"/>
<path class="st11" d="M165.6,109.6v0.8h2.4C167,109.9,166.8,109.8,165.6,109.6z"/>
<path class="st0" d="M376.8,109.6l0.8,0.8L376.8,109.6z"/>
<path class="st14" d="M83.7,110.7c-0.4,0.4,0.5,0.3,0.5,0.3C84.6,110.6,83.8,110.6,83.7,110.7z"/>
<path class="st11" d="M160,110.4v0.8h2.4C161.4,110.7,161.2,110.6,160,110.4z"/>
<path class="st9" d="M162.9,110.7c-0.4,0.4,0.5,0.3,0.5,0.3C163.8,110.6,163,110.6,162.9,110.7z"/>
<path class="st11" d="M86.9,111.5c-0.4,0.4,0.5,0.3,0.5,0.3C87.8,111.4,87,111.4,86.9,111.5z"/>
<path class="st0" d="M157.6,111.2l0.8,0.8L157.6,111.2z"/>
<path class="st3" d="M377.6,111.2l0.8,0.8L377.6,111.2z"/>
<path class="st0" d="M31.2,112l0.8,0.8L31.2,112z"/>
<path class="st9" d="M85.6,112v0.8c5.3,1.1,9.7,3.9,15.2,4c1,3.6,5.2,3.4,7.8,5.9c6.8,6.4,9.2,17.4-0.6,22.1
	c4.1,8.8,16.1,19.3,24,24.8c-3.3-14.8-7-26.7-14.9-40c-2.3-3.9-4.6-10.3-8.5-12.8C103.3,113.2,91.9,112.1,85.6,112z"/>
<path class="st11" d="M90.9,112.3c-0.4,0.4,0.5,0.3,0.5,0.3C91.8,112.2,91,112.2,90.9,112.3z"/>
<path class="st14" d="M94.9,113.1c-0.4,0.4,0.5,0.3,0.5,0.3C95.8,113,95,113,94.9,113.1z"/>
<path class="st12" d="M158.4,112.8l0.8,0.8L158.4,112.8z"/>
<path class="st3" d="M378.4,112.8l0.8,0.8L378.4,112.8 M30.4,113.6l0.8,0.8L30.4,113.6z"/>
<path class="st11" d="M98.1,113.9c-0.4,0.4,0.5,0.3,0.5,0.3C99,113.8,98.2,113.8,98.1,113.9z"/>
<path class="st10" d="M76.8,114.4c2.1,3,4.6,5.4,7.2,8c2.7,2.7,6.5,8.3,10.3,9.2c3.4,0.8,6.3-4.8,5.1-7.6
	C97.2,118.7,82.1,114.5,76.8,114.4z"/>
<path class="st11" d="M102.1,114.7c-0.4,0.4,0.5,0.3,0.5,0.3C103,114.6,102.2,114.6,102.1,114.7 M159.2,114.4l0.8,0.8L159.2,114.4z"
	/>
<path class="st3" d="M379.2,114.4l0.8,0.8L379.2,114.4 M29.6,115.2l0.8,0.8L29.6,115.2z"/>
<path class="st0" d="M106.1,115.5c-0.4,0.4,0.5,0.3,0.5,0.3C107,115.4,106.2,115.4,106.1,115.5z"/>
<path class="st3" d="M32,116l0.8,0.8L32,116z"/>
<path class="st12" d="M108.8,116l0.8,0.8L108.8,116z"/>
<path class="st11" d="M160,116l0.8,0.8L160,116z"/>
<path class="st1" d="M380,116l0.8,0.8L380,116z"/>
<path class="st3" d="M28.8,116.8l0.8,0.8L28.8,116.8 M31.2,117.6l0.8,0.8L31.2,117.6z"/>
<path class="st11" d="M160.8,117.6l0.8,0.8L160.8,117.6z"/>
<path class="st1" d="M380.8,117.6l0.8,0.8L380.8,117.6z"/>
<path class="st3" d="M28,118.4l0.8,0.8L28,118.4z"/>
<path class="st0" d="M110.4,118.4l0.8,0.8L110.4,118.4z"/>
<path class="st3" d="M30.4,119.2l0.8,0.8L30.4,119.2z"/>
<path class="st11" d="M161.6,119.2l0.8,0.8L161.6,119.2z"/>
<path class="st1" d="M381.6,119.2l0.8,0.8L381.6,119.2z"/>
<path class="st3" d="M27.2,120l0.8,0.8L27.2,120z"/>
<path class="st11" d="M111.2,120l0.8,0.8L111.2,120z"/>
<path class="st3" d="M29.6,120.8l0.8,0.8L29.6,120.8z"/>
<path class="st11" d="M162.4,120.8l0.8,0.8L162.4,120.8z"/>
<path class="st3" d="M382.4,120.8l0.8,0.8L382.4,120.8 M26.4,121.6l0.8,0.8L26.4,121.6z"/>
<path class="st11" d="M163.2,122.4l0.8,0.8L163.2,122.4z"/>
<path class="st4" d="M230.7,122.9c0,0-0.1,0.9,0.3,0.5C231,123.4,231,122.6,230.7,122.9z"/>
<path class="st12" d="M338.4,122.4l0.8,0.8L338.4,122.4z"/>
<path class="st15" d="M339.2,122.4c-2.2,4.7-3.3,13.6-7.5,16.8c-8.5,6.4-23,2.6-31.6,9.2c-6.8,5.2-12.3,13.9-17.9,20.4l-34.3,40
	c-6.8,7.9-18.7,17.5-22.7,27.2c-2.6,6.2,0.4,17.4,1.1,24c1.8,18.4,4.1,37.5,4.1,56c3,0.4,5.8,0.8,8.8,0.8c-3.2-6.3-2.7-13.1-3.3-20
	c-1.2-12.2-2.6-24.5-3.1-36.8c-0.2-6.2-2.1-13,0.5-19c2.7-6,8.5-10.8,12.7-15.7l24.6-28.7c10.8-12.8,21.6-29.6,35.8-38.6
	c9.3-5.9,21.7-5.1,31.1-10.3C346.3,142.9,346.8,127.9,339.2,122.4z"/>
<path class="st3" d="M383.2,122.4l0.8,0.8L383.2,122.4z"/>
<path class="st0" d="M25.6,123.2l0.8,0.8L25.6,123.2z"/>
<path class="st3" d="M28,124l0.8,0.8L28,124z"/>
<path class="st0" d="M113.6,124l0.8,0.8L113.6,124z"/>
<path class="st11" d="M164,124l0.8,0.8L164,124z"/>
<path class="st0" d="M230.7,124.5c0,0-0.1,0.9,0.3,0.5C231,125,231,124.2,230.7,124.5 M337.6,124l0.8,0.8L337.6,124 M384,124
	l0.8,0.8L384,124 M24.8,124.8l0.8,0.8L24.8,124.8z"/>
<path class="st13" d="M337.6,124.8l0.8,0.8L337.6,124.8z"/>
<path class="st12" d="M114.4,125.6l0.8,0.8L114.4,125.6z"/>
<path class="st11" d="M164.8,125.6l0.8,0.8L164.8,125.6z"/>
<path class="st10" d="M230.7,126.1c0,0-0.1,0.9,0.3,0.5C231,126.6,231,125.8,230.7,126.1z"/>
<path class="st0" d="M384.8,125.6l0.8,0.8L384.8,125.6z"/>
<path class="st3" d="M88,126.4c-16.1,20.9-33.9,41.4-51.6,61c-7.3,8.1-20.5,18.2-23.9,28.7c-2.9,8.7,2.7,22.3,4.4,31.1
	c9.4-4.5,16.9-17.5,23.4-25.4l44.2-51.3c5.2-6.2,19.1-17,20.5-24.9C106.1,139.9,92.2,129.4,88,126.4 M336.8,126.4l0.8,0.8
	L336.8,126.4z"/>
<path class="st1" d="M24,127.2l0.8,0.8L24,127.2z"/>
<path class="st11" d="M165.6,127.2l0.8,0.8L165.6,127.2z"/>
<path class="st9" d="M230.7,127.7c0,0-0.1,0.9,0.3,0.5C231,128.2,231,127.4,230.7,127.7z"/>
<path class="st7" d="M344,127.2c4.8,27.3-29.9,22.6-44.4,35.4c-16.6,14.7-30,34.8-44.5,51.5c-6.8,7.9-18.1,17.1-22,26.9
	c-2.2,5.7-0.7,12.3-0.3,18.2c0.9,12.8,1.9,25.6,3.1,38.4c0.4,4.7-0.9,14.5,2.9,17.9c2.7,2.4,7.6,1.9,10.9,2.2l25.6,2.3
	c1.3,7.6,12,12.1,3.4,21.4c-6.8,7.4-28.5,3.4-37.8,3.4c-35.2,0-70.4,1.6-105.6,1.6v0.8c14.6,11.1,27,26.2,40,39.2
	c4.7,4.7,9.8,11.9,15.5,15.2c5.1,3,16.2,0.8,22.1,0.8c23.7,0,52.9-5,72.8-18.4c-1-0.5-1.2-0.6-2.4-0.8c2.2-21.5,13.8-39.8,18.5-60.8
	c1.9-8.4,2-20.2,9.6-25.7c7.1-5.2,17.1-4.5,25.2-6.6c17.9-4.6,38.1-11.8,53-22.8v3.2h0.8c8.3-20.1,11.2-42.4,11.2-64
	c0-6.7,1.3-16.8-1.3-23c-2.6-6.2-11.6-12.3-16.3-17C371.3,153.7,358.8,137.5,344,127.2L344,127.2z"/>
<path class="st14" d="M116,128l0.8,0.8L116,128z"/>
<path class="st3" d="M23.2,128.8l0.8,0.8L23.2,128.8z"/>
<path class="st11" d="M166.4,128.8l0.8,0.8L166.4,128.8z"/>
<path class="st10" d="M336,128.8l0.8,0.8L336,128.8z"/>
<path class="st0" d="M116.8,129.6l0.8,0.8L116.8,129.6z"/>
<path class="st3" d="M386.4,129.6l0.8,0.8L386.4,129.6z"/>
<path class="st0" d="M22.4,130.4l0.8,0.8L22.4,130.4z"/>
<path class="st11" d="M167.2,130.4l0.8,0.8L167.2,130.4z"/>
<path class="st14" d="M335.2,130.4l0.8,0.8L335.2,130.4z"/>
<path class="st4" d="M231.5,131.7c0,0-0.1,0.9,0.3,0.5C231.8,132.2,231.8,131.4,231.5,131.7z"/>
<path class="st9" d="M335.2,131.2l0.8,0.8L335.2,131.2z"/>
<path class="st0" d="M168,132l0.8,0.8L168,132z"/>
<path class="st3" d="M21.6,132.8l0.8,0.8L21.6,132.8z"/>
<path class="st0" d="M231.2,132.8v2.4h0.8C231.8,134,231.7,133.8,231.2,132.8z"/>
<path class="st3" d="M334.4,132.8l0.8,0.8L334.4,132.8z"/>
<path class="st0" d="M119.2,133.6l0.8,0.8L119.2,133.6z"/>
<path class="st11" d="M168.8,133.6l0.8,0.8L168.8,133.6z"/>
<path class="st8" d="M334.4,133.6l0.8,0.8L334.4,133.6z"/>
<path class="st3" d="M388,133.6l0.8,0.8L388,133.6z"/>
<path class="st0" d="M20.8,134.4l0.8,0.8L20.8,134.4z"/>
<path class="st12" d="M120,135.2l0.8,0.8L120,135.2z"/>
<path class="st11" d="M169.6,135.2l0.8,0.8L169.6,135.2z"/>
<path class="st13" d="M231.2,135.2v2.4h0.8C231.8,136.4,231.7,136.2,231.2,135.2z"/>
<path class="st12" d="M333.6,135.2l0.8,0.8L333.6,135.2z"/>
<path class="st3" d="M20,136.8l0.8,0.8L20,136.8z"/>
<path class="st0" d="M170.4,136.8l0.8,0.8L170.4,136.8z"/>
<path class="st13" d="M332.8,137.6l0.8,0.8L332.8,137.6z"/>
<path class="st0" d="M389.6,137.6l0.8,0.8L389.6,137.6z"/>
<path class="st11" d="M171.2,138.4l0.8,0.8L171.2,138.4z"/>
<path class="st3" d="M19.2,139.2L20,140L19.2,139.2z"/>
<path class="st0" d="M122.4,139.2l0.8,0.8L122.4,139.2z"/>
<path class="st15" d="M172.8,139.2c1.5,8.3,7.3,16.5,11,24c8.9,17.7,19,35.3,26.6,53.6h1.6c4.1-6.9-2.2-14.4-5.4-20.8
	c-7.7-15.5-15.3-29.8-25.6-43.3C177.8,148.5,177.3,142.2,172.8,139.2L172.8,139.2z"/>
<path class="st14" d="M232.5,139.5c-0.4,0.4,0.5,0.3,0.5,0.3C233.4,139.4,232.6,139.4,232.5,139.5z"/>
<path class="st3" d="M331.2,139.2l0.8,0.8L331.2,139.2z"/>
<path class="st9" d="M332,139.2l0.8,0.8L332,139.2z"/>
<path class="st11" d="M172,140l0.8,0.8L172,140z"/>
<path class="st14" d="M235.7,140.3c-0.4,0.4,0.5,0.3,0.5,0.3C236.6,140.2,235.8,140.2,235.7,140.3z"/>
<path class="st12" d="M328,140l0.8,0.8L328,140z"/>
<path class="st9" d="M328.8,140l0.8,0.8L328.8,140z"/>
<path class="st3" d="M390.4,140l0.8,0.8L390.4,140z"/>
<path class="st12" d="M123.2,140.8l0.8,0.8L123.2,140.8 M238.4,140.8l0.8,0.8L238.4,140.8 M324.8,140.8l0.8,0.8L324.8,140.8z"/>
<path class="st9" d="M325.6,140.8l0.8,0.8L325.6,140.8z"/>
<path class="st0" d="M172.8,141.6l0.8,0.8L172.8,141.6z"/>
<path class="st15" d="M236.8,141.6c4.1,4.7,20.7,13,24.8,5.6C253.7,145,245,141.8,236.8,141.6z"/>
<path class="st12" d="M241.6,141.6l0.8,0.8L241.6,141.6 M321.6,141.6l0.8,0.8L321.6,141.6z"/>
<path class="st9" d="M322.4,141.6l0.8,0.8L322.4,141.6 M244,142.4l0.8,0.8L244,142.4z"/>
<path class="st12" d="M244.8,142.4l0.8,0.8L244.8,142.4z"/>
<path class="st14" d="M317.6,142.4l0.8,0.8L317.6,142.4z"/>
<path class="st12" d="M318.4,142.4l0.8,0.8L318.4,142.4z"/>
<path class="st9" d="M319.2,142.4l0.8,0.8L319.2,142.4z"/>
<path class="st0" d="M124.8,143.2l0.8,0.8L124.8,143.2 M173.6,143.2l0.8,0.8L173.6,143.2z"/>
<path class="st9" d="M247.2,143.2l0.8,0.8L247.2,143.2z"/>
<path class="st12" d="M248,143.2l0.8,0.8L248,143.2z"/>
<path class="st14" d="M314.4,143.2l0.8,0.8L314.4,143.2z"/>
<path class="st10" d="M315.2,143.2l0.8,0.8L315.2,143.2z"/>
<path class="st1" d="M105.6,144c-6,13.5-21.5,26.1-31.2,37.3c-11.9,13.7-23.8,27.3-35.3,41.2c-6.8,8.2-13.6,18.4-22.3,24.7
	c3.2,10.1,7.5,20.2,10.4,30.4c11.3-6.5,20.9-22.8,29.2-32.8c3.2-3.9,7.5-6.8,8.4-12c8.1-2.5,15.8-15.8,20.8-22.2
	c12-15.5,26.1-31.9,40-45.8C122.1,157.2,112.4,148.8,105.6,144L105.6,144z"/>
<path class="st9" d="M250.4,144l0.8,0.8L250.4,144z"/>
<path class="st12" d="M251.2,144l0.8,0.8L251.2,144z"/>
<path class="st0" d="M311.2,144l0.8,0.8L311.2,144z"/>
<path class="st10" d="M312,144l0.8,0.8L312,144z"/>
<path class="st12" d="M125.6,144.8l0.8,0.8L125.6,144.8z"/>
<path class="st0" d="M174.4,144.8l0.8,0.8L174.4,144.8z"/>
<path class="st9" d="M253.6,144.8l0.8,0.8L253.6,144.8z"/>
<path class="st12" d="M254.4,144.8l0.8,0.8L254.4,144.8z"/>
<path class="st0" d="M308,144.8l0.8,0.8L308,144.8z"/>
<path class="st13" d="M308.8,144.8l0.8,0.8L308.8,144.8z"/>
<path class="st9" d="M256.8,145.6l0.8,0.8L256.8,145.6z"/>
<path class="st12" d="M257.6,145.6l0.8,0.8L257.6,145.6z"/>
<path class="st0" d="M304.8,145.6l0.8,0.8L304.8,145.6z"/>
<path class="st13" d="M305.6,145.6l0.8,0.8L305.6,145.6z"/>
<path class="st8" d="M125.6,146.4c2.3,6.9,3.3,16,6.2,22.4c3.2,7,12.4,14.8,18.6,19.2c-3.8-10.3-11-20.2-16.6-29.6
	C131.4,154.5,129.5,148.9,125.6,146.4L125.6,146.4z"/>
<path class="st0" d="M175.2,146.4l0.8,0.8L175.2,146.4z"/>
<path class="st9" d="M260,146.4l0.8,0.8L260,146.4z"/>
<path class="st3" d="M260.8,146.4l0.8,0.8L260.8,146.4 M301.6,146.4l0.8,0.8L301.6,146.4z"/>
<path class="st9" d="M302.4,146.4l0.8,0.8L302.4,146.4 M261.6,147.2l0.8,0.8L261.6,147.2z"/>
<path class="st12" d="M300,147.2l0.8,0.8L300,147.2z"/>
<path class="st2" d="M393.1,147.7c0,0-0.1,0.9,0.3,0.5C393.4,148.2,393.4,147.4,393.1,147.7z"/>
<path class="st0" d="M176,148l0.8,0.8L176,148 M299.2,148l0.8,0.8L299.2,148z"/>
<path class="st2" d="M16.3,149.3c0,0-0.1,0.9,0.3,0.5C16.6,149.8,16.6,149,16.3,149.3z"/>
<path class="st0" d="M18.7,149.3c0,0-0.1,0.9,0.3,0.5C19,149.8,19,149,18.7,149.3 M128,148.8l0.8,0.8L128,148.8 M176.8,149.6
	l0.8,0.8L176.8,149.6z"/>
<path class="st12" d="M260,149.6l0.8,0.8L260,149.6z"/>
<path class="st1" d="M393.9,150.1c0,0-0.1,0.9,0.3,0.5C394.2,150.6,394.2,149.8,393.9,150.1z"/>
<path class="st12" d="M128.8,150.4l0.8,0.8L128.8,150.4z"/>
<path class="st9" d="M259.2,150.4l0.8,0.8L259.2,150.4z"/>
<path class="st1" d="M15.5,151.7c0,0-0.1,0.9,0.3,0.5C15.8,152.2,15.8,151.4,15.5,151.7z"/>
<path class="st3" d="M17.9,151.7c0,0-0.1,0.9,0.3,0.5C18.2,152.2,18.2,151.4,17.9,151.7z"/>
<path class="st0" d="M177.6,151.2l0.8,0.8L177.6,151.2z"/>
<path class="st9" d="M296.8,151.2l0.8,0.8L296.8,151.2z"/>
<path class="st0" d="M258.4,152l0.8,0.8L258.4,152z"/>
<path class="st13" d="M296,152l0.8,0.8L296,152z"/>
<path class="st0" d="M130.4,152.8l0.8,0.8L130.4,152.8 M178.4,152.8l0.8,0.8L178.4,152.8z"/>
<path class="st10" d="M257.6,152.8l0.8,0.8L257.6,152.8z"/>
<path class="st12" d="M295.2,152.8l0.8,0.8L295.2,152.8z"/>
<path class="st2" d="M394.7,153.3c0,0-0.1,0.9,0.3,0.5C395,153.8,395,153,394.7,153.3z"/>
<path class="st0" d="M294.4,153.6l0.8,0.8L294.4,153.6z"/>
<path class="st1" d="M14.7,154.9c0,0-0.1,0.9,0.3,0.5C15,155.4,15,154.6,14.7,154.9z"/>
<path class="st3" d="M17.1,154.9c0,0-0.1,0.9,0.3,0.5C17.4,155.4,17.4,154.6,17.1,154.9z"/>
<path class="st12" d="M131.2,154.4l0.8,0.8L131.2,154.4z"/>
<path class="st0" d="M179.2,154.4l0.8,0.8L179.2,154.4 M256,155.2l0.8,0.8L256,155.2L256,155.2z"/>
<path class="st1" d="M395.5,155.7c0,0-0.1,0.9,0.3,0.5C395.8,156.2,395.8,155.4,395.5,155.7z"/>
<path class="st10" d="M132,156l0.8,0.8L132,156z"/>
<path class="st0" d="M180,156l0.8,0.8L180,156z"/>
<path class="st10" d="M255.2,156l0.8,0.8L255.2,156z"/>
<path class="st3" d="M13.9,157.3c0,0-0.1,0.9,0.3,0.5C14.2,157.8,14.2,157,13.9,157.3z"/>
<path class="st9" d="M292,156.8l0.8,0.8L292,156.8z"/>
<path class="st3" d="M16.3,158.1c0,0-0.1,0.9,0.3,0.5C16.6,158.6,16.6,157.8,16.3,158.1z"/>
<path class="st0" d="M180.8,157.6l0.8,0.8L180.8,157.6z"/>
<path class="st13" d="M291.2,157.6l0.8,0.8L291.2,157.6z"/>
<path class="st0" d="M133.6,158.4l0.8,0.8L133.6,158.4z"/>
<path class="st3" d="M253.6,158.4l0.8,0.8L253.6,158.4z"/>
<path class="st12" d="M290.4,158.4l0.8,0.8L290.4,158.4z"/>
<path class="st3" d="M396.3,158.9c0,0-0.1,0.9,0.3,0.5C396.6,159.4,396.6,158.6,396.3,158.9z"/>
<path class="st0" d="M181.6,159.2l0.8,0.8L181.6,159.2 M289.6,159.2l0.8,0.8L289.6,159.2z"/>
<path class="st3" d="M13.1,160.5c0,0-0.1,0.9,0.3,0.5C13.4,161,13.4,160.2,13.1,160.5z"/>
<path class="st12" d="M134.4,160l0.8,0.8L134.4,160z"/>
<path class="st3" d="M15.5,161.3c0,0-0.1,0.9,0.3,0.5C15.8,161.8,15.8,161,15.5,161.3z"/>
<path class="st0" d="M182.4,160.8l0.8,0.8L182.4,160.8 M252,160.8l0.8,0.8L252,160.8z"/>
<path class="st12" d="M251.2,161.6l0.8,0.8L251.2,161.6z"/>
<path class="st3" d="M396.8,161.6v2.4h0.8C397.4,162.8,397.3,162.6,396.8,161.6z"/>
<path class="st14" d="M136,162.4l0.8,0.8L136,162.4z"/>
<path class="st0" d="M183.2,162.4l0.8,0.8L183.2,162.4z"/>
<path class="st9" d="M287.2,162.4l0.8,0.8L287.2,162.4z"/>
<path class="st13" d="M286.4,163.2l0.8,0.8L286.4,163.2z"/>
<path class="st3" d="M12.3,164.5c0,0-0.1,0.9,0.3,0.5C12.6,165,12.6,164.2,12.3,164.5z"/>
<path class="st1" d="M14.4,164v2.4h0.8C15,165.2,14.9,165,14.4,164z"/>
<path class="st2" d="M64.8,232.8c-1.3,4.8-5.2,7.7-8.4,11.3c-6.1,7.2-12,14.7-18.4,21.7c-2.9,3.1-8.3,7.5-9.3,11.8
	c-0.7,3.2,2.1,7,3.6,9.6c4,7.1,7.9,14.5,13.3,20.8h0.8c4.5-5.5,14.9-12.9,16-20c6.4-3.5,10.2-11.5,16-16l-0.8-1.6
	c6.6-3.3,10-11.6,16-16l-0.8-1.6c1.3-1.1,1.4-1.5,1.6-3.2c6.6-1.8,11.7-10.4,15.8-15.5c9.2-11.4,19.7-26.8,31.4-35.7l-0.8-1.6
	c3-1.4,4.5-3.1,4-6.4h1.6c-2.6-8.8-7.2-13.6-13.6-20c-1.7-1.7-4.8-6.1-7.6-5.2c-5.2,1.6-12.2,13.1-15.6,17.2l-29.4,34.4
	C75.7,222,71,229.7,64.8,232.8z"/>
<path class="st3" d="M136.8,164l0.8,0.8L136.8,164z"/>
<path class="st0" d="M184,164l0.8,0.8L184,164 M249.6,164l0.8,0.8L249.6,164z"/>
<path class="st12" d="M285.6,164l0.8,0.8L285.6,164z"/>
<path class="st10" d="M248.8,164.8l0.8,0.8L248.8,164.8z"/>
<path class="st0" d="M284.8,164.8l0.8,0.8L284.8,164.8z"/>
<path class="st10" d="M137.6,165.6l0.8,0.8L137.6,165.6z"/>
<path class="st0" d="M184.8,165.6l0.8,0.8L184.8,165.6z"/>
<path class="st3" d="M397.9,166.1c0,0-0.1,0.9,0.3,0.5C398.2,166.6,398.2,165.8,397.9,166.1z"/>
<path class="st0" d="M11.2,167.2v2.4H12C11.8,168.4,11.7,168.2,11.2,167.2 M185.6,167.2l0.8,0.8L185.6,167.2z"/>
<path class="st3" d="M247.2,167.2l0.8,0.8L247.2,167.2z"/>
<path class="st1" d="M13.9,168.5c0,0-0.1,0.9,0.3,0.5C14.2,169,14.2,168.2,13.9,168.5z"/>
<path class="st0" d="M139.2,168l0.8,0.8L139.2,168z"/>
<path class="st9" d="M282.4,168l0.8,0.8L282.4,168z"/>
<path class="st0" d="M186.4,168.8l0.8,0.8L186.4,168.8z"/>
<path class="st13" d="M281.6,168.8l0.8,0.8L281.6,168.8z"/>
<path class="st12" d="M140,169.6l0.8,0.8L140,169.6z"/>
<path class="st0" d="M245.6,169.6l0.8,0.8L245.6,169.6z"/>
<path class="st12" d="M280.8,169.6l0.8,0.8L280.8,169.6z"/>
<path class="st3" d="M398.7,170.1c0,0-0.1,0.9,0.3,0.5C399,170.6,399,169.8,398.7,170.1z"/>
<path class="st0" d="M187.2,170.4l0.8,0.8L187.2,170.4z"/>
<path class="st12" d="M244.8,170.4l0.8,0.8L244.8,170.4z"/>
<path class="st0" d="M280,170.4l0.8,0.8L280,170.4z"/>
<path class="st3" d="M10.4,172v2.4h0.8C11,173.2,10.9,173,10.4,172z"/>
<path class="st0" d="M188,172l0.8,0.8L188,172z"/>
<path class="st1" d="M12.8,172.8v2.4h0.8C13.4,174,13.3,173.8,12.8,172.8z"/>
<path class="st0" d="M243.2,172.8l0.8,0.8L243.2,172.8 M142.4,173.6l0.8,0.8L142.4,173.6 M188.8,173.6l0.8,0.8L188.8,173.6z"/>
<path class="st10" d="M242.4,173.6l0.8,0.8L242.4,173.6z"/>
<path class="st9" d="M277.6,173.6l0.8,0.8L277.6,173.6z"/>
<path class="st0" d="M399.5,174.1c0,0-0.1,0.9,0.3,0.5C399.8,174.6,399.8,173.8,399.5,174.1z"/>
<path class="st13" d="M276.8,174.4l0.8,0.8L276.8,174.4z"/>
<path class="st10" d="M143.2,175.2l0.8,0.8L143.2,175.2z"/>
<path class="st0" d="M189.6,175.2l0.8,0.8L189.6,175.2z"/>
<path class="st12" d="M276,175.2l0.8,0.8L276,175.2z"/>
<path class="st1" d="M399.5,175.7c0,0-0.1,0.9,0.3,0.5C399.8,176.2,399.8,175.4,399.5,175.7z"/>
<path class="st3" d="M240.8,176l0.8,0.8L240.8,176z"/>
<path class="st0" d="M275.2,176l0.8,0.8L275.2,176 M9.6,176.8v2.4h0.8C10.2,178,10.1,177.8,9.6,176.8 M190.4,176.8l0.8,0.8
	L190.4,176.8z"/>
<path class="st2" d="M12,177.6v2.4h0.8C12.6,178.8,12.5,178.6,12,177.6z"/>
<path class="st0" d="M144.8,177.6l0.8,0.8L144.8,177.6 M191.2,178.4l0.8,0.8L191.2,178.4 M239.2,178.4l0.8,0.8L239.2,178.4z"/>
<path class="st4" d="M400.3,178.9c0,0-0.1,0.9,0.3,0.5C400.6,179.4,400.6,178.6,400.3,178.9z"/>
<path class="st12" d="M145.6,179.2l0.8,0.8L145.6,179.2 M238.4,179.2l0.8,0.8L238.4,179.2z"/>
<path class="st9" d="M272.8,179.2l0.8,0.8L272.8,179.2z"/>
<path class="st0" d="M192,180l0.8,0.8L192,180z"/>
<path class="st13" d="M272,180l0.8,0.8L272,180z"/>
<path class="st3" d="M400,180v2.4h0.8C400.6,181.2,400.5,181,400,180z"/>
<path class="st13" d="M146.4,180.8l0.8,0.8L146.4,180.8z"/>
<path class="st12" d="M271.2,180.8l0.8,0.8L271.2,180.8z"/>
<path class="st0" d="M192.8,181.6l0.8,0.8L192.8,181.6 M236.8,181.6l0.8,0.8L236.8,181.6 M270.4,181.6l0.8,0.8L270.4,181.6z"/>
<path class="st4" d="M8.8,182.4v2.4h0.8C9.4,183.6,9.3,183.4,8.8,182.4z"/>
<path class="st10" d="M236,182.4l0.8,0.8L236,182.4z"/>
<path class="st0" d="M148,183.2l0.8,0.8L148,183.2 M193.6,183.2l0.8,0.8L193.6,183.2z"/>
<path class="st1" d="M11.2,184v5.6H12C12,187.6,12,185.9,11.2,184 M8.8,184.8v2.4h0.8C9.4,186,9.3,185.8,8.8,184.8z"/>
<path class="st10" d="M148.8,184.8l0.8,0.8L148.8,184.8z"/>
<path class="st0" d="M194.4,184.8l0.8,0.8L194.4,184.8z"/>
<path class="st3" d="M234.4,184.8l0.8,0.8L234.4,184.8z"/>
<path class="st9" d="M268,184.8l0.8,0.8L268,184.8z"/>
<path class="st4" d="M400.8,184.8v2.4h0.8C401.4,186,401.3,185.8,400.8,184.8z"/>
<path class="st13" d="M267.2,185.6l0.8,0.8L267.2,185.6z"/>
<path class="st0" d="M195.2,186.4l0.8,0.8L195.2,186.4z"/>
<path class="st12" d="M266.4,186.4l0.8,0.8L266.4,186.4z"/>
<path class="st0" d="M150.4,187.2l0.8,0.8L150.4,187.2 M265.6,187.2l0.8,0.8L265.6,187.2z"/>
<path class="st12" d="M401.1,187.7c0,0-0.1,0.9,0.3,0.5C401.4,188.2,401.4,187.4,401.1,187.7z"/>
<path class="st0" d="M196,188l0.8,0.8L196,188z"/>
<path class="st12" d="M232,188l0.8,0.8L232,188 M151.2,188.8l0.8,0.8L151.2,188.8z"/>
<path class="st9" d="M400.8,188.8v4h0.8C401.5,191.2,401.4,190.2,400.8,188.8z"/>
<path class="st4" d="M8,189.6v4h0.8C8.7,192,8.6,191,8,189.6z"/>
<path class="st0" d="M196.8,189.6l0.8,0.8L196.8,189.6z"/>
<path class="st10" d="M152,190.4l0.8,0.8L152,190.4z"/>
<path class="st0" d="M230.4,190.4l0.8,0.8L230.4,190.4z"/>
<path class="st9" d="M263.2,190.4l0.8,0.8L263.2,190.4z"/>
<path class="st0" d="M197.6,191.2l0.8,0.8L197.6,191.2z"/>
<path class="st10" d="M229.6,191.2l0.8,0.8L229.6,191.2z"/>
<path class="st13" d="M262.4,191.2l0.8,0.8L262.4,191.2z"/>
<path class="st12" d="M261.6,192l0.8,0.8L261.6,192z"/>
<path class="st0" d="M153.6,192.8l0.8,0.8L153.6,192.8 M198.4,192.8l0.8,0.8L198.4,192.8 M260.8,192.8l0.8,0.8L260.8,192.8z"/>
<path class="st3" d="M8,193.6v5.6h0.8C8.8,197.2,8.8,195.5,8,193.6 M228,193.6l0.8,0.8L228,193.6 M154.4,194.4l0.8,0.8L154.4,194.4z
	"/>
<path class="st0" d="M199.2,194.4l0.8,0.8L199.2,194.4z"/>
<path class="st4" d="M401.6,194.4v4.8h0.8C402.4,197.4,402.3,196,401.6,194.4z"/>
<path class="st0" d="M200,196l0.8,0.8L200,196z"/>
<path class="st9" d="M258.4,196l0.8,0.8L258.4,196z"/>
<path class="st12" d="M225.6,196.8l0.8,0.8L225.6,196.8z"/>
<path class="st13" d="M257.6,196.8l0.8,0.8L257.6,196.8z"/>
<path class="st0" d="M200.8,197.6l0.8,0.8L200.8,197.6z"/>
<path class="st12" d="M256.8,197.6l0.8,0.8L256.8,197.6z"/>
<path class="st0" d="M156.8,198.4l0.8,0.8L156.8,198.4 M256,198.4l0.8,0.8L256,198.4L256,198.4z"/>
<path class="st2" d="M8,199.2v12h0.8C8.8,207.3,9.5,202.8,8,199.2z"/>
<path class="st0" d="M201.6,199.2l0.8,0.8L201.6,199.2 M224,199.2l0.8,0.8L224,199.2z"/>
<path class="st3" d="M401.6,199.2v12h0.8C402.4,207.3,403.1,202.8,401.6,199.2z"/>
<path class="st1" d="M157.6,200l0.8,0.8L157.6,200z"/>
<path class="st10" d="M223.2,200l0.8,0.8L223.2,200z"/>
<path class="st0" d="M202.4,200.8l0.8,0.8L202.4,200.8z"/>
<path class="st9" d="M253.6,201.6l0.8,0.8L253.6,201.6z"/>
<path class="st0" d="M159.2,202.4l0.8,0.8L159.2,202.4 M203.2,202.4l0.8,0.8L203.2,202.4z"/>
<path class="st3" d="M221.6,202.4l0.8,0.8L221.6,202.4z"/>
<path class="st13" d="M252.8,202.4l0.8,0.8L252.8,202.4z"/>
<path class="st12" d="M252,203.2l0.8,0.8L252,203.2z"/>
<path class="st3" d="M160,204l0.8,0.8L160,204z"/>
<path class="st0" d="M204,204l0.8,0.8L204,204 M251.2,204l0.8,0.8L251.2,204z"/>
<path class="st1" d="M160.8,205.6l0.8,0.8L160.8,205.6z"/>
<path class="st0" d="M204.8,205.6l0.8,0.8L204.8,205.6z"/>
<path class="st12" d="M219.2,205.6l0.8,0.8L219.2,205.6z"/>
<path class="st0" d="M205.6,207.2l0.8,0.8L205.6,207.2z"/>
<path class="st9" d="M248.8,207.2l0.8,0.8L248.8,207.2z"/>
<path class="st0" d="M162.4,208l0.8,0.8L162.4,208 M217.6,208l0.8,0.8L217.6,208z"/>
<path class="st13" d="M248,208l0.8,0.8L248,208z"/>
<path class="st0" d="M206.4,208.8l0.8,0.8L206.4,208.8z"/>
<path class="st10" d="M216.8,208.8l0.8,0.8L216.8,208.8z"/>
<path class="st12" d="M247.2,208.8l0.8,0.8L247.2,208.8z"/>
<path class="st3" d="M163.2,209.6l0.8,0.8L163.2,209.6z"/>
<path class="st0" d="M246.4,209.6l0.8,0.8L246.4,209.6 M207.2,210.4l0.8,0.8L207.2,210.4z"/>
<path class="st1" d="M8,211.2v6.4h0.8C8.8,215.3,8.9,213.3,8,211.2z"/>
<path class="st12" d="M215.2,211.2l0.8,0.8L215.2,211.2z"/>
<path class="st4" d="M401.6,211.2v5.6h0.8C402.4,214.8,402.4,213.1,401.6,211.2z"/>
<path class="st1" d="M11.2,212v6.4H12C12,216.1,12.1,214.1,11.2,212z"/>
<path class="st0" d="M208,212l0.8,0.8L208,212z"/>
<path class="st9" d="M244,212.8l0.8,0.8L244,212.8z"/>
<path class="st3" d="M165.6,213.6l0.8,0.8L165.6,213.6z"/>
<path class="st14" d="M208.8,213.6l0.8,0.8L208.8,213.6z"/>
<path class="st0" d="M213.6,213.6l0.8,0.8L213.6,213.6z"/>
<path class="st13" d="M243.2,213.6l0.8,0.8L243.2,213.6z"/>
<path class="st10" d="M212.8,214.4l0.8,0.8L212.8,214.4z"/>
<path class="st12" d="M242.4,214.4l0.8,0.8L242.4,214.4z"/>
<path class="st1" d="M166.4,215.2l0.8,0.8L166.4,215.2z"/>
<path class="st14" d="M209.6,215.2l0.8,0.8L209.6,215.2z"/>
<path class="st0" d="M241.6,215.2l0.8,0.8L241.6,215.2 M210.9,217.1c-0.4,0.4,0.5,0.3,0.5,0.3C211.8,217,211,217,210.9,217.1
	 M8,217.6v2.4h0.8C8.6,218.8,8.5,218.6,8,217.6 M168,217.6l0.8,0.8L168,217.6z"/>
<path class="st9" d="M239.2,218.4l0.8,0.8L239.2,218.4z"/>
<path class="st3" d="M168.8,219.2l0.8,0.8L168.8,219.2z"/>
<path class="st13" d="M238.4,219.2l0.8,0.8L238.4,219.2z"/>
<path class="st9" d="M400.8,219.2v2.4h0.8C401.4,220.4,401.3,220.2,400.8,219.2z"/>
<path class="st12" d="M237.6,220l0.8,0.8L237.6,220z"/>
<path class="st0" d="M236.8,220.8l0.8,0.8L236.8,220.8z"/>
<path class="st12" d="M400.8,221.6v2.4h0.8C401.4,222.8,401.3,222.6,400.8,221.6z"/>
<path class="st2" d="M12,223.2v2.4h0.8C12.6,224.4,12.5,224.2,12,223.2z"/>
<path class="st0" d="M171.2,223.2l0.8,0.8L171.2,223.2z"/>
<path class="st1" d="M8.8,224v2.4h0.8C9.4,225.2,9.3,225,8.8,224z"/>
<path class="st9" d="M234.4,224l0.8,0.8L234.4,224z"/>
<path class="st0" d="M400.8,224v2.4h0.8C401.4,225.2,401.3,225,400.8,224z"/>
<path class="st1" d="M172,224.8l0.8,0.8L172,224.8z"/>
<path class="st13" d="M233.6,224.8l0.8,0.8L233.6,224.8z"/>
<path class="st12" d="M232.8,225.6l0.8,0.8L232.8,225.6z"/>
<path class="st0" d="M9.1,226.9c0,0-0.1,0.9,0.3,0.5C9.4,227.4,9.4,226.6,9.1,226.9 M232,226.4l0.8,0.8L232,226.4 M173.6,227.2
	l0.8,0.8L173.6,227.2z"/>
<path class="st9" d="M400.3,228.5c0,0-0.1,0.9,0.3,0.5C400.6,229,400.6,228.2,400.3,228.5z"/>
<path class="st3" d="M174.4,228.8l0.8,0.8L174.4,228.8z"/>
<path class="st9" d="M229.6,229.6l0.8,0.8L229.6,229.6z"/>
<path class="st12" d="M400,229.6v2.4h0.8C400.6,230.8,400.5,230.6,400,229.6z"/>
<path class="st1" d="M175.2,230.4l0.8,0.8L175.2,230.4z"/>
<path class="st13" d="M228.8,230.4l0.8,0.8L228.8,230.4z"/>
<path class="st1" d="M9.6,231.2v2.4h0.8C10.2,232.4,10.1,232.2,9.6,231.2z"/>
<path class="st12" d="M228,231.2l0.8,0.8L228,231.2z"/>
<path class="st0" d="M227.2,232l0.8,0.8L227.2,232 M176.8,232.8l0.8,0.8L176.8,232.8z"/>
<path class="st4" d="M9.9,234.1c0,0-0.1,0.9,0.3,0.5C10.2,234.6,10.2,233.8,9.9,234.1z"/>
<path class="st3" d="M177.6,234.4l0.8,0.8L177.6,234.4z"/>
<path class="st9" d="M224.8,235.2l0.8,0.8L224.8,235.2z"/>
<path class="st12" d="M399.2,235.2v2.4h0.8C399.8,236.4,399.7,236.2,399.2,235.2z"/>
<path class="st13" d="M224,236l0.8,0.8L224,236z"/>
<path class="st1" d="M10.4,236.8v2.4h0.8C11,238,10.9,237.8,10.4,236.8z"/>
<path class="st8" d="M224,237.6v2.4h0.8C224.6,238.8,224.5,238.6,224,237.6z"/>
<path class="st13" d="M224,240v2.4h0.8C224.6,241.2,224.5,241,224,240z"/>
<path class="st12" d="M398.7,240.5c0,0-0.1,0.9,0.3,0.5C399,241,399,240.2,398.7,240.5z"/>
<path class="st2" d="M15.5,241.3c0,0-0.1,0.9,0.3,0.5C15.8,241.8,15.8,241,15.5,241.3z"/>
<path class="st3" d="M11.2,241.6v2.4H12C11.8,242.8,11.7,242.6,11.2,241.6z"/>
<path class="st4" d="M398.7,242.1c0,0-0.1,0.9,0.3,0.5C399,242.6,399,241.8,398.7,242.1z"/>
<path class="st0" d="M224,242.4v2.4h0.8C224.6,243.6,224.5,243.4,224,242.4z"/>
<path class="st10" d="M397.6,244v2.4h0.8C398.2,245.2,398.1,245,397.6,244z"/>
<path class="st0" d="M12.3,246.9c0,0-0.1,0.9,0.3,0.5C12.6,247.4,12.6,246.6,12.3,246.9z"/>
<path class="st7" d="M225.1,247.7c0,0-0.1,0.9,0.3,0.5C225.4,248.2,225.4,247.4,225.1,247.7z"/>
<path class="st12" d="M396.8,248v2.4h0.8C397.4,249.2,397.3,249,396.8,248z"/>
<path class="st9" d="M224.8,248.8v2.4h0.8C225.4,250,225.3,249.8,224.8,248.8z"/>
<path class="st3" d="M13.1,250.1c0,0-0.1,0.9,0.3,0.5C13.4,250.6,13.4,249.8,13.1,250.1z"/>
<path class="st12" d="M224.8,251.2v2.4h0.8C225.4,252.4,225.3,252.2,224.8,251.2z"/>
<path class="st0" d="M396.3,252.5c0,0-0.1,0.9,0.3,0.5C396.6,253,396.6,252.2,396.3,252.5z"/>
<path class="st3" d="M13.9,253.3c0,0-0.1,0.9,0.3,0.5C14.2,253.8,14.2,253,13.9,253.3z"/>
<path class="st4" d="M225.1,254.1c0,0-0.1,0.9,0.3,0.5C225.4,254.6,225.4,253.8,225.1,254.1z"/>
<path class="st0" d="M395.5,255.7c0,0-0.1,0.9,0.3,0.5C395.8,256.2,395.8,255.4,395.5,255.7z"/>
<path class="st4" d="M14.7,257.3c0,0-0.1,0.9,0.3,0.5C15,257.8,15,257,14.7,257.3z"/>
<path class="st8" d="M225.6,257.6v2.4h0.8C226.2,258.8,226.1,258.6,225.6,257.6z"/>
<path class="st4" d="M394.7,258.9c0,0-0.1,0.9,0.3,0.5C395,259.4,395,258.6,394.7,258.9z"/>
<path class="st0" d="M15.5,259.7c0,0-0.1,0.9,0.3,0.5C15.8,260.2,15.8,259.4,15.5,259.7z"/>
<path class="st13" d="M225.9,260.5c0,0-0.1,0.9,0.3,0.5C226.2,261,226.2,260.2,225.9,260.5z"/>
<path class="st10" d="M393.6,260.8l0.8,0.8L393.6,260.8z"/>
<path class="st12" d="M225.6,261.6v2.4h0.8C226.2,262.8,226.1,262.6,225.6,261.6z"/>
<path class="st0" d="M393.6,261.6l0.8,0.8L393.6,261.6z"/>
<path class="st4" d="M225.9,264.5c0,0-0.1,0.9,0.3,0.5C226.2,265,226.2,264.2,225.9,264.5 M17.1,265.3c0,0-0.1,0.9,0.3,0.5
	C17.4,265.8,17.4,265,17.1,265.3L17.1,265.3z"/>
<path class="st12" d="M392,265.6l0.8,0.8L392,265.6z"/>
<path class="st4" d="M17.9,267.7c0,0-0.1,0.9,0.3,0.5C18.2,268.2,18.2,267.4,17.9,267.7z"/>
<path class="st7" d="M226.7,267.7c0,0-0.1,0.9,0.3,0.5C227,268.2,227,267.4,226.7,267.7z"/>
<path class="st15" d="M388,267.2c-3.5,4-8.9,5.1-13.5,7.6c-12.1,6.5-25.5,12.8-39.3,15.4c-7.6,1.4-17.1,1.6-23.8,6
	c-7.6,4.9-7.8,16.7-9.5,24.6c-4.6,21.4-17.7,40.4-18.7,62.4c8-0.6,14.1-9.2,18.5-15.2c14.3-19.7,14.3-43.2,14.3-66.4
	c19.2-0.1,43.3-5.1,59.2-16.2c6.3-4.3,14-10,14.4-18.2H388z"/>
<path class="st10" d="M391.2,267.2l0.8,0.8L391.2,267.2z"/>
<path class="st4" d="M391.5,268.5c0,0-0.1,0.9,0.3,0.5C391.8,269,391.8,268.2,391.5,268.5z"/>
<path class="st9" d="M226.7,269.3c0,0-0.1,0.9,0.3,0.5C227,269.8,227,269,226.7,269.3z"/>
<path class="st14" d="M390.4,268.8c-15.3,26.9-47.5,28.6-74.4,33.6c1.4,33.3-5,63.9-34.4,84v0.8c5.3-1.5,10.1-4.3,15.2-6.4
	c2-7.2,10.9-11.1,15.1-16.8c16.9-22.7,36.9-43.3,56.6-63.5c5.9-6,12.2-20.4,20.3-22.8C389.7,274.7,391.3,271.8,390.4,268.8
	L390.4,268.8z"/>
<path class="st3" d="M18.4,269.6l0.8,0.8L18.4,269.6z"/>
<path class="st10" d="M226.4,270.4v2.4h0.8C227,271.6,226.9,271.4,226.4,270.4z"/>
<path class="st3" d="M19.2,272l0.8,0.8L19.2,272z"/>
<path class="st0" d="M226.4,272.8v2.4h0.8C227,274,226.9,273.8,226.4,272.8 M20,274.4l0.8,0.8L20,274.4z"/>
<path class="st13" d="M385.6,275.2l0.8,0.8L385.6,275.2z"/>
<path class="st1" d="M20.8,276l0.8,0.8L20.8,276z"/>
<path class="st11" d="M387.2,276.8c-24.4,30.1-51.1,58.6-76.5,87.9c-4.6,5.4-10.4,9.4-14.7,15.3c8.5-2,17-8.8,24-13.8
	c21.5-15.3,40-35.6,53.8-58.2C377.8,301.4,389.9,284.7,387.2,276.8L387.2,276.8z"/>
<path class="st8" d="M227.5,278.1c0,0-0.1,0.9,0.3,0.5C227.8,278.6,227.8,277.8,227.5,278.1z"/>
<path class="st3" d="M21.6,278.4l0.8,0.8L21.6,278.4z"/>
<path class="st13" d="M227.2,279.2v2.4h0.8C227.8,280.4,227.7,280.2,227.2,279.2z"/>
<path class="st3" d="M227.2,281.6v2.4h0.8C227.8,282.8,227.7,282.6,227.2,281.6z"/>
<path class="st13" d="M379.2,281.6l0.8,0.8L379.2,281.6z"/>
<path class="st0" d="M23.2,282.4l0.8,0.8L23.2,282.4z"/>
<path class="st3" d="M24,284l0.8,0.8L24,284z"/>
<path class="st4" d="M227.5,284.5c0,0-0.1,0.9,0.3,0.5C227.8,285,227.8,284.2,227.5,284.5z"/>
<path class="st9" d="M376,284l0.8,0.8L376,284z"/>
<path class="st13" d="M371.2,287.2l0.8,0.8L371.2,287.2z"/>
<path class="st8" d="M228,288v2.4h0.8C228.6,289.2,228.5,289,228,288z"/>
<path class="st0" d="M26.4,289.6l0.8,0.8L26.4,289.6z"/>
<path class="st10" d="M228,290.4v2.4h0.8C228.6,291.6,228.5,291.4,228,290.4z"/>
<path class="st0" d="M27.2,291.2L28,292L27.2,291.2z"/>
<path class="st3" d="M28,292.8l0.8,0.8L28,292.8z"/>
<path class="st14" d="M228.3,293.3c0,0-0.1,0.9,0.3,0.5C228.6,293.8,228.6,293,228.3,293.3z"/>
<path class="st12" d="M359.7,293.1c-0.4,0.4,0.5,0.3,0.5,0.3C360.6,293,359.8,293,359.7,293.1z"/>
<path class="st3" d="M28.8,294.4l0.8,0.8L28.8,294.4z"/>
<path class="st12" d="M354.9,294.7c-0.4,0.4,0.5,0.3,0.5,0.3C355.8,294.6,355,294.6,354.9,294.7 M352.5,295.5
	c-0.4,0.4,0.5,0.3,0.5,0.3C353.4,295.4,352.6,295.4,352.5,295.5z"/>
<path class="st0" d="M29.6,296l0.8,0.8L29.6,296z"/>
<path class="st10" d="M349.3,296.3c-0.4,0.4,0.5,0.3,0.5,0.3C350.2,296.2,349.4,296.2,349.3,296.3 M346.1,297.1
	c-0.4,0.4,0.5,0.3,0.5,0.3C347,297,346.2,297,346.1,297.1z"/>
<path class="st0" d="M30.4,297.6l0.8,0.8L30.4,297.6z"/>
<path class="st8" d="M229.1,298.1c0,0-0.1,0.9,0.3,0.5C229.4,298.6,229.4,297.8,229.1,298.1z"/>
<path class="st12" d="M342.9,297.9c-0.4,0.4,0.5,0.3,0.5,0.3C343.8,297.8,343,297.8,342.9,297.9z"/>
<path class="st9" d="M338.1,298.7c-0.4,0.4,0.5,0.3,0.5,0.3C339,298.6,338.2,298.6,338.1,298.7z"/>
<path class="st11" d="M339.7,298.7c-0.4,0.4,0.5,0.3,0.5,0.3C340.6,298.6,339.8,298.6,339.7,298.7z"/>
<path class="st0" d="M31.2,299.2L32,300L31.2,299.2z"/>
<path class="st13" d="M229.1,299.7c0,0-0.1,0.9,0.3,0.5C229.4,300.2,229.4,299.4,229.1,299.7z"/>
<path class="st9" d="M332.8,299.2v0.8h2.4C334.2,299.5,334,299.4,332.8,299.2 M327.2,300v0.8h2.4C328.6,300.3,328.4,300.2,327.2,300
	z"/>
<path class="st12" d="M330.1,300.3c-0.4,0.4,0.5,0.3,0.5,0.3C331,300.2,330.2,300.2,330.1,300.3 M228.8,300.8v2.4h0.8
	C229.4,302,229.3,301.8,228.8,300.8z"/>
<path class="st10" d="M322.4,300.8v0.8h2.4C323.8,301.1,323.6,301,322.4,300.8z"/>
<path class="st12" d="M316,301.6v0.8h2.4C317.4,301.9,317.2,301.8,316,301.6z"/>
<path class="st3" d="M33.6,303.2l0.8,0.8L33.6,303.2z"/>
<path class="st4" d="M228.8,303.2v2.4h0.8C229.4,304.4,229.3,304.2,228.8,303.2z"/>
<path class="st0" d="M34.4,304.8l0.8,0.8L34.4,304.8z"/>
<path class="st13" d="M316,306.4v15.2h0.8C316.8,316.9,317.8,310.8,316,306.4z"/>
<path class="st1" d="M36,307.2l0.8,0.8L36,307.2z"/>
<path class="st8" d="M229.6,307.2v2.4h0.8C230.2,308.4,230.1,308.2,229.6,307.2z"/>
<path class="st0" d="M36.8,308.8l0.8,0.8L36.8,308.8z"/>
<path class="st13" d="M229.6,309.6v2.4h0.8C230.2,310.8,230.1,310.6,229.6,309.6z"/>
<path class="st3" d="M38.4,311.2l0.8,0.8L38.4,311.2z"/>
<path class="st0" d="M229.6,312v2.4h0.8C230.2,313.2,230.1,313,229.6,312z"/>
<path class="st3" d="M40,313.6l0.8,0.8L40,313.6 M175.2,313.6v0.8h2.4C176.6,313.9,176.4,313.8,175.2,313.6z"/>
<path class="st1" d="M170.1,314.7c-0.4,0.4,0.5,0.3,0.5,0.3C171,314.6,170.2,314.6,170.1,314.7z"/>
<path class="st0" d="M171.2,314.4v0.8h2.4C172.6,314.7,172.4,314.6,171.2,314.4z"/>
<path class="st3" d="M165.3,315.5c-0.4,0.4,0.5,0.3,0.5,0.3C166.2,315.4,165.4,315.4,165.3,315.5z"/>
<path class="st4" d="M166.9,315.5c-0.4,0.4,0.5,0.3,0.5,0.3C167.8,315.4,167,315.4,166.9,315.5z"/>
<path class="st3" d="M41.6,316l0.8,0.8L41.6,316 M160,316v0.8h2.4C161.4,316.3,161.2,316.2,160,316z"/>
<path class="st9" d="M230.9,316.3c-0.4,0.4,0.5,0.3,0.5,0.3C231.8,316.2,231,316.2,230.9,316.3z"/>
<path class="st8" d="M232.5,316.3c-0.4,0.4,0.5,0.3,0.5,0.3C233.4,316.2,232.6,316.2,232.5,316.3z"/>
<path class="st1" d="M154.9,317.1c-0.4,0.4,0.5,0.3,0.5,0.3C155.8,317,155,317,154.9,317.1z"/>
<path class="st0" d="M156.5,317.1c-0.4,0.4,0.5,0.3,0.5,0.3C157.4,317,156.6,317,156.5,317.1z"/>
<path class="st4" d="M236,316.8v0.8h2.4C237.4,317.1,237.2,317,236,316.8z"/>
<path class="st3" d="M238.9,317.1c-0.4,0.4,0.5,0.3,0.5,0.3C239.8,317,239,317,238.9,317.1z"/>
<path class="st10" d="M240.5,317.1c-0.4,0.4,0.5,0.3,0.5,0.3C241.4,317,240.6,317,240.5,317.1z"/>
<path class="st9" d="M241.6,316.8v0.8h2.4C243,317.1,242.8,317,241.6,316.8z"/>
<path class="st3" d="M149.6,317.6v0.8h2.4C151,317.9,150.8,317.8,149.6,317.6z"/>
<path class="st4" d="M246.4,317.6v0.8h2.4C247.8,317.9,247.6,317.8,246.4,317.6z"/>
<path class="st12" d="M249.3,317.9c-0.4,0.4,0.5,0.3,0.5,0.3C250.2,317.8,249.4,317.8,249.3,317.9z"/>
<path class="st10" d="M250.4,317.6v0.8h2.4C251.8,317.9,251.6,317.8,250.4,317.6z"/>
<path class="st3" d="M43.2,318.4l0.8,0.8L43.2,318.4z"/>
<path class="st1" d="M144,318.4v0.8h2.4C145.4,318.7,145.2,318.6,144,318.4z"/>
<path class="st4" d="M146.9,318.7c-0.4,0.4,0.5,0.3,0.5,0.3C147.8,318.6,147,318.6,146.9,318.7 M256.5,318.7
	c-0.4,0.4,0.5,0.3,0.5,0.3C257.4,318.6,256.6,318.6,256.5,318.7z"/>
<path class="st0" d="M257.6,318.4v0.8h2.4C259,318.7,258.8,318.6,257.6,318.4z"/>
<path class="st10" d="M260.5,318.7c-0.4,0.4,0.5,0.3,0.5,0.3C261.4,318.6,260.6,318.6,260.5,318.7z"/>
<path class="st9" d="M261.6,318.4v0.8h2.4C263,318.7,262.8,318.6,261.6,318.4z"/>
<path class="st3" d="M139.2,319.2v0.8h2.4C140.6,319.5,140.4,319.4,139.2,319.2z"/>
<path class="st4" d="M266.1,319.5c-0.4,0.4,0.5,0.3,0.5,0.3C267,319.4,266.2,319.4,266.1,319.5z"/>
<path class="st0" d="M267.2,319.2v0.8h2.4C268.6,319.5,268.4,319.4,267.2,319.2z"/>
<path class="st10" d="M269.6,319.2v0.8h2.4C271,319.5,270.8,319.4,269.6,319.2z"/>
<path class="st3" d="M134.9,320.3c-0.4,0.4,0.5,0.3,0.5,0.3C135.8,320.2,135,320.2,134.9,320.3z"/>
<path class="st4" d="M136.5,320.3c-0.4,0.4,0.5,0.3,0.5,0.3C137.4,320.2,136.6,320.2,136.5,320.3z"/>
<path class="st0" d="M44.8,320.8l0.8,0.8L44.8,320.8z"/>
<path class="st3" d="M131.2,320.8l0.8,0.8L131.2,320.8z"/>
<path class="st14" d="M274.4,320.8v2.4h0.8C275,322,274.9,321.8,274.4,320.8z"/>
<path class="st1" d="M45.6,321.6l0.8,0.8L45.6,321.6z"/>
<path class="st3" d="M130.4,323.2v2.4h0.8C131,324.4,130.9,324.2,130.4,323.2z"/>
<path class="st10" d="M274.7,323.7c0,0-0.1,0.9,0.3,0.5C275,324.2,275,323.4,274.7,323.7z"/>
<path class="st15" d="M275.2,323.2c-0.6,4.5-1.4,9-1.6,13.6c-48.2,0-96.5,2.4-144.8,2.4c6.2,11.1,23.5,7.2,34.4,7.2
	c24.5,0,49.1-1.3,73.6-1.6c11.6-0.1,27.4,2.9,38.4-0.9C284.6,340.8,284.1,326.3,275.2,323.2L275.2,323.2z"/>
<path class="st0" d="M47.2,324l0.8,0.8L47.2,324z"/>
<path class="st1" d="M48,324.8l0.8,0.8L48,324.8z"/>
<path class="st8" d="M274.7,325.3c0,0-0.1,0.9,0.3,0.5C275,325.8,275,325,274.7,325.3z"/>
<path class="st0" d="M49.6,327.2l0.8,0.8L49.6,327.2z"/>
<path class="st3" d="M129.9,327.7c0,0-0.1,0.9,0.3,0.5C130.2,328.2,130.2,327.4,129.9,327.7z"/>
<path class="st9" d="M315.5,327.7c0,0-0.1,0.9,0.3,0.5C315.8,328.2,315.8,327.4,315.5,327.7z"/>
<path class="st3" d="M50.4,328l0.8,0.8L50.4,328z"/>
<path class="st14" d="M273.6,328v2.4h0.8C274.2,329.2,274.1,329,273.6,328z"/>
<path class="st4" d="M129.9,329.3c0,0-0.1,0.9,0.3,0.5C130.2,329.8,130.2,329,129.9,329.3z"/>
<path class="st10" d="M315.5,329.3c0,0-0.1,0.9,0.3,0.5C315.8,329.8,315.8,329,315.5,329.3z"/>
<path class="st13" d="M273.6,330.4v2.4h0.8C274.2,331.6,274.1,331.4,273.6,330.4z"/>
<path class="st11" d="M315.5,330.9c0,0-0.1,0.9,0.3,0.5C315.8,331.4,315.8,330.6,315.5,330.9z"/>
<path class="st3" d="M53.6,332l0.8,0.8L53.6,332z"/>
<path class="st0" d="M128.8,332v2.4h0.8C129.4,333.2,129.3,333,128.8,332z"/>
<path class="st1" d="M54.4,332.8l0.8,0.8L54.4,332.8z"/>
<path class="st13" d="M314.4,333.6v2.4h0.8C315,334.8,314.9,334.6,314.4,333.6z"/>
<path class="st3" d="M128.3,336.5c0,0-0.1,0.9,0.3,0.5C128.6,337,128.6,336.2,128.3,336.5z"/>
<path class="st4" d="M229.6,336.8v0.8h6.4C233.9,336.7,231.9,336.8,229.6,336.8z"/>
<path class="st0" d="M236,336.8v0.8h10.4C243.2,336.3,239.4,336.8,236,336.8z"/>
<path class="st10" d="M246.4,336.8v0.8h9.6C253,336.4,249.6,336.8,246.4,336.8z"/>
<path class="st8" d="M256,336.8v0.8h9.6C262.6,336.4,259.2,336.8,256,336.8z"/>
<path class="st0" d="M58.4,337.6l0.8,0.8L58.4,337.6z"/>
<path class="st4" d="M181.6,337.6v0.8h6.4C185.9,337.5,183.9,337.6,181.6,337.6z"/>
<path class="st0" d="M188,337.6v0.8h6.4C192.3,337.5,190.3,337.6,188,337.6z"/>
<path class="st12" d="M194.4,337.6v0.8h6.4C198.7,337.5,196.7,337.6,194.4,337.6z"/>
<path class="st13" d="M200.8,337.6v0.8h9.6C207.4,337.2,204,337.6,200.8,337.6z"/>
<path class="st8" d="M210.4,337.6v0.8h9.6C217,337.2,213.6,337.6,210.4,337.6z"/>
<path class="st3" d="M59.2,338.4l0.8,0.8L59.2,338.4z"/>
<path class="st4" d="M132.8,338.4v0.8h6.4C137.1,338.3,135.1,338.4,132.8,338.4z"/>
<path class="st0" d="M139.2,338.4v0.8h9.6C145.8,338,142.4,338.4,139.2,338.4z"/>
<path class="st10" d="M148.8,338.4v0.8h9.6C155.4,338,152,338.4,148.8,338.4z"/>
<path class="st8" d="M158.4,338.4v0.8h10.4C165.6,337.9,161.8,338.4,158.4,338.4z"/>
<path class="st10" d="M313.9,338.9c0,0-0.1,0.9,0.3,0.5C314.2,339.4,314.2,338.6,313.9,338.9z"/>
<path class="st3" d="M60,339.2l0.8,0.8L60,339.2 M60.8,340l0.8,0.8L60.8,340z"/>
<path class="st10" d="M313.1,342.1c0,0-0.1,0.9,0.3,0.5C313.4,342.6,313.4,341.8,313.1,342.1z"/>
<path class="st12" d="M312.3,345.3c0,0-0.1,0.9,0.3,0.5C312.6,345.8,312.6,345,312.3,345.3z"/>
<path class="st1" d="M69.6,348.8l0.8,0.8L69.6,348.8z"/>
<path class="st3" d="M70.4,349.6l0.8,0.8L70.4,349.6 M71.2,350.4l0.8,0.8L71.2,350.4z"/>
<path class="st0" d="M72,351.2l0.8,0.8L72,351.2 M72.8,352l0.8,0.8L72.8,352z"/>
<path class="st13" d="M309.6,352l0.8,0.8L309.6,352z"/>
<path class="st3" d="M77.6,356l0.8,0.8L77.6,356z"/>
<path class="st0" d="M78.4,356.8l0.8,0.8L78.4,356.8z"/>
<path class="st10" d="M307.2,357.6l0.8,0.8L307.2,357.6z"/>
<path class="st3" d="M82.4,360l0.8,0.8L82.4,360z"/>
<path class="st1" d="M85.6,362.4l0.8,0.8L85.6,362.4z"/>
<path class="st0" d="M86.4,363.2l0.8,0.8L86.4,363.2z"/>
<path class="st9" d="M304,363.2l0.8,0.8L304,363.2z"/>
<path class="st3" d="M88.8,364.8l0.8,0.8L88.8,364.8z"/>
<path class="st0" d="M92,367.2l0.8,0.8L92,367.2z"/>
<path class="st9" d="M300.8,368l0.8,0.8L300.8,368z"/>
<path class="st3" d="M94.4,368.8l0.8,0.8L94.4,368.8 M96.8,370.4l0.8,0.8L96.8,370.4z"/>
<path class="st13" d="M298.4,371.2l0.8,0.8L298.4,371.2z"/>
<path class="st0" d="M99.2,372l0.8,0.8L99.2,372z"/>
<path class="st9" d="M297.6,372l0.8,0.8L297.6,372z"/>
<path class="st3" d="M103.2,374.4l0.8,0.8L103.2,374.4 M107.2,376.8l0.8,0.8L107.2,376.8 M108.8,377.6l0.8,0.8L108.8,377.6z"/>
<path class="st13" d="M289.6,380l0.8,0.8L289.6,380z"/>
<path class="st0" d="M114.4,380.8l0.8,0.8L114.4,380.8 M116,381.6l0.8,0.8L116,381.6 M117.6,382.4l0.8,0.8L117.6,382.4 M119.2,383.2
	l0.8,0.8L119.2,383.2z"/>
<path class="st10" d="M285.6,383.2l0.8,0.8L285.6,383.2z"/>
<path class="st1" d="M123.2,384.8l0.8,0.8L123.2,384.8z"/>
<path class="st10" d="M283.2,384.8l0.8,0.8L283.2,384.8z"/>
<path class="st3" d="M124.8,385.6l0.8,0.8L124.8,385.6z"/>
<path class="st0" d="M126.4,386.4l0.8,0.8L126.4,386.4z"/>
<path class="st10" d="M280.8,386.4l0.8,0.8L280.8,386.4z"/>
<path class="st0" d="M128,387.2l0.8,0.8L128,387.2z"/>
<path class="st4" d="M280.5,387.5c-0.4,0.4,0.5,0.3,0.5,0.3C281.4,387.4,280.6,387.4,280.5,387.5z"/>
<path class="st3" d="M130.4,388l0.8,0.8L130.4,388z"/>
<path class="st0" d="M132,388.8l0.8,0.8L132,388.8z"/>
<path class="st3" d="M134.4,389.6l0.8,0.8L134.4,389.6z"/>
<path class="st13" d="M274.4,389.6l0.8,0.8L274.4,389.6z"/>
<path class="st12" d="M272.8,390.4l0.8,0.8L272.8,390.4z"/>
<path class="st0" d="M138.4,391.2l0.8,0.8L138.4,391.2z"/>
<path class="st10" d="M270.4,391.2l0.8,0.8L270.4,391.2z"/>
<path class="st0" d="M140.8,392l0.8,0.8L140.8,392z"/>
<path class="st13" d="M268,392l0.8,0.8L268,392z"/>
<path class="st1" d="M143.7,393.1c-0.4,0.4,0.5,0.3,0.5,0.3C144.6,393,143.8,393,143.7,393.1z"/>
<path class="st10" d="M265.6,392.8l0.8,0.8L265.6,392.8z"/>
<path class="st1" d="M146.1,393.9c-0.4,0.4,0.5,0.3,0.5,0.3C147,393.8,146.2,393.8,146.1,393.9z"/>
<path class="st10" d="M263.2,393.6l0.8,0.8L263.2,393.6z"/>
<path class="st1" d="M148.5,394.7c-0.4,0.4,0.5,0.3,0.5,0.3C149.4,394.6,148.6,394.6,148.5,394.7z"/>
<path class="st12" d="M260.8,394.4l0.8,0.8L260.8,394.4z"/>
<path class="st1" d="M151.7,395.5c-0.4,0.4,0.5,0.3,0.5,0.3C152.6,395.4,151.8,395.4,151.7,395.5z"/>
<path class="st0" d="M258.1,395.5c-0.4,0.4,0.5,0.3,0.5,0.3C259,395.4,258.2,395.4,258.1,395.5z"/>
<path class="st3" d="M154.1,396.3c-0.4,0.4,0.5,0.3,0.5,0.3C155,396.2,154.2,396.2,154.1,396.3z"/>
<path class="st4" d="M255.7,396.3c-0.4,0.4,0.5,0.3,0.5,0.3C256.6,396.2,255.8,396.2,255.7,396.3z"/>
<path class="st3" d="M157.3,397.1c-0.4,0.4,0.5,0.3,0.5,0.3C158.2,397,157.4,397,157.3,397.1z"/>
<path class="st12" d="M251.7,397.1c-0.4,0.4,0.5,0.3,0.5,0.3C252.6,397,251.8,397,251.7,397.1z"/>
<path class="st3" d="M160.5,397.9c-0.4,0.4,0.5,0.3,0.5,0.3C161.4,397.8,160.6,397.8,160.5,397.9 M248.5,397.9
	c-0.4,0.4,0.5,0.3,0.5,0.3C249.4,397.8,248.6,397.8,248.5,397.9z"/>
<path class="st1" d="M164.5,398.7c-0.4,0.4,0.5,0.3,0.5,0.3C165.4,398.6,164.6,398.6,164.5,398.7z"/>
<path class="st12" d="M244.5,398.7c-0.4,0.4,0.5,0.3,0.5,0.3C245.4,398.6,244.6,398.6,244.5,398.7z"/>
<path class="st0" d="M167.2,399.2v0.8h2.4C168.6,399.5,168.4,399.4,167.2,399.2z"/>
<path class="st12" d="M240,399.2v0.8h2.4C241.4,399.5,241.2,399.4,240,399.2z"/>
<path class="st3" d="M172,400v0.8h2.4C173.4,400.3,173.2,400.2,172,400z"/>
<path class="st10" d="M235.7,400.3c-0.4,0.4,0.5,0.3,0.5,0.3C236.6,400.2,235.8,400.2,235.7,400.3z"/>
<path class="st4" d="M237.3,400.3c-0.4,0.4,0.5,0.3,0.5,0.3C238.2,400.2,237.4,400.2,237.3,400.3z"/>
<path class="st0" d="M177.3,401.1c-0.4,0.4,0.5,0.3,0.5,0.3C178.2,401,177.4,401,177.3,401.1z"/>
<path class="st1" d="M178.9,401.1c-0.4,0.4,0.5,0.3,0.5,0.3C179.8,401,179,401,178.9,401.1z"/>
<path class="st13" d="M228.8,400.8v0.8h2.4C230.2,401.1,230,401,228.8,400.8z"/>
<path class="st0" d="M231.7,401.1c-0.4,0.4,0.5,0.3,0.5,0.3C232.6,401,231.8,401,231.7,401.1 M183.7,401.9c-0.4,0.4,0.5,0.3,0.5,0.3
	C184.6,401.8,183.8,401.8,183.7,401.9z"/>
<path class="st3" d="M184.8,401.6v0.8h2.4C186.2,401.9,186,401.8,184.8,401.6z"/>
<path class="st9" d="M220.8,401.6v0.8h2.4C222.2,401.9,222,401.8,220.8,401.6z"/>
<path class="st12" d="M223.2,401.6v0.8h2.4C224.6,401.9,224.4,401.8,223.2,401.6z"/>
<path class="st4" d="M226.1,401.9c-0.4,0.4,0.5,0.3,0.5,0.3C227,401.8,226.2,401.8,226.1,401.9z"/>
<path class="st0" d="M193.6,402.4v0.8h4C196.2,402.6,195.2,402.5,193.6,402.4z"/>
<path class="st12" d="M197.6,402.4v0.8h16C209,401.3,202.5,402.4,197.6,402.4z"/>
<path class="st4" d="M213.6,402.4v0.8h4C216.2,402.6,215.2,402.5,213.6,402.4z"/>
</svg>
