<svg xmlns="http://www.w3.org/2000/svg" width="409.6pt" height="409.6pt" viewBox="0 0 409.6 409.6" fill-rule="evenodd"><path style="stroke:none;fill:#fff" d="M0 0v409.6h409.6V0H0z"/><path style="stroke:none;fill:#dfb8df" d="M189.6 8.8v.8h4c-1.415-.623-2.429-.73-4-.8z"/><path style="stroke:none;fill:#c580c5" d="M193.6 8.8v.8h4.8c-1.642-.7-2.998-.762-4.8-.8z"/><path style="stroke:none;fill:#b760b8" d="M198.4 8.8v.8h12.8c-3.779-1.586-8.728-.8-12.8-.8z"/><path style="stroke:none;fill:#d29bd2" d="M211.2 8.8v.8h5.6c-1.866-.788-3.566-.785-5.6-.8z"/><path style="stroke:none;fill:#ebd2eb" d="M216.8 8.8v.8h2.4c-.998-.548-1.238-.599-2.4-.8m-34.666 1.067c-.356.355.488.31.532.266.356-.355-.488-.31-.532-.266z"/><path style="stroke:none;fill:#d29bd2" d="M183.734 9.867c-.356.355.488.31.532.266.356-.355-.488-.31-.532-.266z"/><path style="stroke:none;fill:#c580c5" d="M184.8 9.6v.8h2.4c-.998-.548-1.238-.599-2.4-.8z"/><path style="stroke:none;fill:#ab46ac" d="M190.4 402.4c-3.054-6.548-10.134-11.734-15.2-16.8L144 354.4c-4.308-4.302-13.314-10.05-15.177-16.012-1.543-4.938 1.725-12.537 2.377-17.588 16.096-1.272 31.895-5.929 48-7.2v-52c0-7.64 1.624-17.417-.399-24.8-2.837-10.352-11.763-21.156-17.192-30.4-5.112-8.704-9.12-18.04-17.609-24 .35 2.854 1.294 5.352 2.4 8h-1.6c-.11 3.144-1.494 4.59-4 6.4l.8 1.6c-4.267 2.186-7.665 7.466-10.797 11.055-6.937 7.951-14.229 15.843-20.715 24.142-4.195 5.369-9.352 13.146-15.688 16.003-.409 1.562-.586 1.966-1.6 3.2l.8 1.6c-6.834 3.336-9.969 11.574-16 16l.8 1.6c-6.656 3.37-10.336 11.323-16 16-1.976 7.64-12.023 13.12-16 20h-.8c-22.832-36.998-38.494-77.179-34.264-121.6C19.778 97.749 92.968 26.941 181.6 20.872c33.27-2.279 67.53 6.927 96.8 22.328l-4 3.2c-.822 2.868-3.453 4.234-4 7.2l-3.2.8c.341 1.705-13.265 18.084-15.2 17.6-5.169 10.734-19.79 18.405-23.2 29.6l-1.6-.8c-1.578 3.721-4.048 6.317-7.2 8.8 5.14 14.471 20.609 12 32.8 12H312c7.434 0 18.606-2.096 25.6.482 6.897 2.544 13.29 11.984 18.401 17.118 13.984 14.046 27.806 31.794 43.999 43.2-.182-21.982-9.323-45.441-19.002-64.8C342.495 40.596 258.026-.954 173.6 11.542 87.108 24.344 18.12 98.234 9.465 184.8c-3.027 30.276.37 61.877 11.181 90.4 12.144 32.038 32.186 60.538 58.554 82.463 31.338 26.059 70.634 41.535 111.2 44.737z"/><path style="stroke:none;fill:#c580c5" d="M222.934 9.867c-.356.355.488.31.532.266.356-.355-.488-.31-.532-.266z"/><path style="stroke:none;fill:#d29bd2" d="M224 9.6v.8h2.4c-.998-.548-1.238-.599-2.4-.8z"/><path style="stroke:none;fill:#ebd2eb" d="M226.934 9.867c-.356.355.488.31.532.266.356-.355-.488-.31-.532-.266z"/><path style="stroke:none;fill:#dfb8df" d="M176 10.4v.8h2.4c-.998-.548-1.238-.599-2.4-.8z"/><path style="stroke:none;fill:#b760b8" d="M178.934 10.667c-.356.355.488.31.532.266.356-.355-.488-.31-.532-.266z"/><path style="stroke:none;fill:#d29bd2" d="M230.934 10.667c-.356.355.488.31.532.266.356-.355-.488-.31-.532-.266z"/><path style="stroke:none;fill:#dfb8df" d="M232 10.4v.8h2.4c-.998-.548-1.238-.599-2.4-.8m-60.8.8v.8h2.4c-.998-.548-1.238-.599-2.4-.8z"/><path style="stroke:none;fill:#d29bd2" d="M236 11.2v.8h2.4c-.998-.548-1.238-.599-2.4-.8m-68.266 1.067c-.356.355.488.31.532.266.356-.355-.488-.31-.532-.266M240.8 12v.8h2.4c-.998-.548-1.238-.599-2.4-.8m-77.066 1.067c-.356.355.488.31.532.266.356-.355-.488-.31-.532-.266m81.6 0c-.356.355.488.31.532.266.356-.355-.488-.31-.532-.266z"/><path style="stroke:none;fill:#c580c5" d="M160.534 13.867c-.356.355.488.31.532.266.356-.355-.488-.31-.532-.266z"/><path style="stroke:none;fill:#dfb8df" d="M249.334 13.867c-.356.355.488.31.532.266.356-.355-.488-.31-.532-.266z"/><path style="stroke:none;fill:#d29bd2" d="M156.534 14.667c-.356.355.488.31.532.266.356-.355-.488-.31-.532-.266z"/><path style="stroke:none;fill:#dfb8df" d="M252.534 14.667c-.356.355.488.31.532.266.356-.355-.488-.31-.532-.266z"/><path style="stroke:none;fill:#c580c5" d="M154.134 15.467c-.356.355.488.31.532.266.356-.355-.488-.31-.532-.266z"/><path style="stroke:none;fill:#dfb8df" d="M255.734 15.467c-.356.355.488.31.532.266.356-.355-.488-.31-.532-.266z"/><path style="stroke:none;fill:#c580c5" d="M150.934 16.267c-.356.355.488.31.532.266.356-.355-.488-.31-.532-.266z"/><path style="stroke:none;fill:#ebd2eb" d="M258.934 16.267c-.356.355.488.31.532.266.356-.355-.488-.31-.532-.266z"/><path style="stroke:none;fill:#b760b8" d="M148.534 17.067c-.356.355.488.31.532.266.356-.355-.488-.31-.532-.266z"/><path style="stroke:none;fill:#dfb8df" d="M261.334 17.067c-.356.355.488.31.532.266.356-.355-.488-.31-.532-.266M268.8 19.2l.8.8-.8-.8z"/><path style="stroke:none;fill:#d29bd2" d="m138.4 20 .8.8-.8-.8z"/><path style="stroke:none;fill:#dfb8df" d="m271.2 20 .8.8-.8-.8z"/><path style="stroke:none;fill:#d29bd2" d="m136 20.8.8.8-.8-.8m42.4 0c-2.715 5.117-8.07 10.975-12.8 14.4-.644 4.877-8.355 10.74-11.674 14.472-10.317 11.595-23.67 37.332-40.326 39.128v.8c9.745 0 22.684 2.23 32-.732 17.328-5.511 23.745-23.908 35.721-35.84 9.084-9.051 22.159-19.491 27.479-31.428l-30.4-.8z"/><path style="stroke:none;fill:#c580c5" d="M197.6 20.8v.8h6.4c-2.09-.878-4.132-.794-6.4-.8z"/><path style="stroke:none;fill:#dfb8df" d="m132 30.4.8 2.4c-4.912 2.398-7.828 7.855-11.359 11.864l-21.07 24.133C93.135 77.485 88.101 86.014 76.8 88.8v.8c13.955 0 33.674 3.588 46.233-3.577 9.923-5.661 18.961-21.287 26.175-30.054 4.119-5.007 16.085-14.384 16.392-20.769 4.954-2.445 10.11-8.874 12.8-13.6-16.005.01-30.922 5.797-46.4 8.8z"/><path style="stroke:none;fill:#c580c5" d="M208.8 21.6c-9.534 14.413-23.146 25.415-34.231 38.4-9.559 11.197-14.955 23.457-29.769 28.8v.8c13.216 0 32.596 3.35 44.56-3.453 3.638-2.069 6.313-6.662 9.06-9.748l21.036-24.263c6.01-7.002 17.478-15.968 19.744-24.936-10.182-2.1-20.069-4.294-30.4-5.6z"/><path style="stroke:none;fill:#d29bd2" d="m275.2 21.6.8.8-.8-.8m-143.2.8.8.8-.8-.8z"/><path style="stroke:none;fill:#b760b8" d="M163.2 22.4v.8h2.4c-.998-.548-1.238-.599-2.4-.8z"/><path style="stroke:none;fill:#dfb8df" d="m277.6 22.4.8.8-.8-.8z"/><path style="stroke:none;fill:#c580c5" d="M159.2 23.2v.8h2.4c-.998-.548-1.238-.599-2.4-.8z"/><path style="stroke:none;fill:#d29bd2" d="m279.2 23.2.8.8-.8-.8M128 24l.8.8-.8-.8z"/><path style="stroke:none;fill:#c580c5" d="M155.734 24.267c-.356.355.488.31.532.266.356-.355-.488-.31-.532-.266M126.4 24.8l.8.8-.8-.8m25.334.267c-.356.355.488.31.532.266.356-.355-.488-.31-.532-.266z"/><path style="stroke:none;fill:#dfb8df" d="m283.2 24.8.8.8-.8-.8z"/><path style="stroke:none;fill:#c580c5" d="M148.534 25.867c-.356.355.488.31.532.266.356-.355-.488-.31-.532-.266z"/><path style="stroke:none;fill:#d29bd2" d="m284.8 25.6.8.8-.8-.8z"/><path style="stroke:none;fill:#dfb8df" d="m122.4 26.4.8.8-.8-.8z"/><path style="stroke:none;fill:#d29bd2" d="M145.334 26.667c-.356.355.488.31.532.266.356-.355-.488-.31-.532-.266z"/><path style="stroke:none;fill:#dfb8df" d="m120.8 27.2.8.8-.8-.8z"/><path style="stroke:none;fill:#b760b8" d="M239.2 27.2c-2.915 7.214-10.28 13.292-15.404 19.104C210.861 60.98 198.03 84.313 178.4 88.8v.8c5.474 0 13.232-1.414 18.4.482 7.1 2.608 17.232 14.185 21.6 20.318 4.35-1.71 7.608-5.044 8.8-9.6l1.6.8c5.418-10.718 19.703-17.824 23.2-29.6 4.426-.903 14.533-13.028 15.2-17.6l3.2-.8c.844-2.863 3.464-4.177 4-7.2 1.657-.912 2.759-1.774 4-3.2-11.352-8.082-26.09-11.808-39.2-16z"/><path style="stroke:none;fill:#d29bd2" d="m119.2 28 .8.8-.8-.8m20.534.267c-.356.355.488.31.532.266.356-.355-.488-.31-.532-.266M117.6 28.8l.8.8-.8-.8m19.734.267c-.356.355.488.31.532.266.356-.355-.488-.31-.532-.266M116 29.6l.8.8-.8-.8m-1.6.8.8.8-.8-.8m-1.6.8.8.8-.8-.8z"/><path style="stroke:none;fill:#ebd2eb" d="M13.6 176c9.627-7.701 17.449-19.344 25.431-28.728 9.55-11.226 24.32-21.988 29.559-36.072 2.531-6.808 1.81-14.487 1.81-21.6 21.184-.06 35.515-25.83 47.904-40.728 4.657-5.6 11.245-11.153 14.496-17.672-14.057 2.076-29.094 11.82-40.8 19.475-34.187 22.359-63.045 58.912-73.18 98.925-2.194 8.666-5.195 17.393-5.22 26.4z"/><path style="stroke:none;fill:#dfb8df" d="m111.2 32 .8.8-.8-.8z"/><path style="stroke:none;fill:#c580c5" d="m299.2 32.8.8.8-.8-.8z"/><path style="stroke:none;fill:#d29bd2" d="m300.8 33.6.8.8-.8-.8z"/><path style="stroke:none;fill:#c580c5" d="m107.2 34.4.8.8-.8-.8z"/><path style="stroke:none;fill:#dfb8df" d="m302.4 34.4.8.8-.8-.8z"/><path style="stroke:none;fill:#d29bd2" d="m105.6 35.2.8.8-.8-.8z"/><path style="stroke:none;fill:#c580c5" d="m304.8 36 .8.8-.8-.8z"/><path style="stroke:none;fill:#dfb8df" d="m306.4 36.8.8.8-.8-.8z"/><path style="stroke:none;fill:#d29bd2" d="m101.6 37.6.8.8-.8-.8z"/><path style="stroke:none;fill:#c580c5" d="m112.8 38.4.8.8-.8-.8z"/><path style="stroke:none;fill:#d29bd2" d="m308.8 38.4.8.8-.8-.8m-209.6.8.8.8-.8-.8z"/><path style="stroke:none;fill:#c580c5" d="m111.2 39.2.8.8-.8-.8z"/><path style="stroke:none;fill:#dfb8df" d="m310.4 39.2.8.8-.8-.8z"/><path style="stroke:none;fill:#c580c5" d="m109.6 40 .8.8-.8-.8m-12.8.8.8.8-.8-.8z"/><path style="stroke:none;fill:#dfb8df" d="m312.8 40.8.8.8-.8-.8m-217.6.8.8.8-.8-.8m220 .8.8.8-.8-.8z"/><path style="stroke:none;fill:#d29bd2" d="m92 44 .8.8-.8-.8m8.8.8.8.8-.8-.8z"/><path style="stroke:none;fill:#c580c5" d="m318.4 44.8.8.8-.8-.8z"/><path style="stroke:none;fill:#d29bd2" d="m89.6 45.6.8.8-.8-.8z"/><path style="stroke:none;fill:#dfb8df" d="m320.8 46.4.8.8-.8-.8z"/><path style="stroke:none;fill:#d29bd2" d="m96.8 47.2.8.8-.8-.8m-10.4.8.8.8-.8-.8z"/><path style="stroke:none;fill:#dfb8df" d="m324 48.8.8.8-.8-.8M83.2 50.4l.8.8-.8-.8z"/><path style="stroke:none;fill:#c580c5" d="m82.4 51.2.8.8-.8-.8z"/><path style="stroke:none;fill:#dfb8df" d="m327.2 51.2.8.8-.8-.8z"/><path style="stroke:none;fill:#d29bd2" d="m328 52 .8.8-.8-.8z"/><path style="stroke:none;fill:#dfb8df" d="m79.2 53.6.8.8-.8-.8z"/><path style="stroke:none;fill:#d29bd2" d="m78.4 54.4.8.8-.8-.8z"/><path style="stroke:none;fill:#c580c5" d="m84.8 55.2.8.8-.8-.8z"/><path style="stroke:none;fill:#dfb8df" d="m332 55.2.8.8-.8-.8z"/><path style="stroke:none;fill:#d29bd2" d="m332.8 56 .8.8-.8-.8M81.6 57.6l.8.8-.8-.8z"/><path style="stroke:none;fill:#dfb8df" d="m73.6 58.4.8.8-.8-.8z"/><path style="stroke:none;fill:#d29bd2" d="m72.8 59.2.8.8-.8-.8m-.8.8.8.8-.8-.8m5.6.8.8.8-.8-.8z"/><path style="stroke:none;fill:#dfb8df" d="m339.2 61.6.8.8-.8-.8m.8.8.8.8-.8-.8z"/><path style="stroke:none;fill:#d29bd2" d="m340.8 63.2.8.8-.8-.8m.8.8.8.8-.8-.8m-268.8.8.8.8-.8-.8m269.6 0 .8.8-.8-.8m.8.8.8.8-.8-.8m.8.8.8.8-.8-.8m.8.8.8.8-.8-.8m.8.8.8.8-.8-.8m.8.8.8.8-.8-.8m.8.8.8.8-.8-.8z"/><path style="stroke:none;fill:#dfb8df" d="m348 70.4.8.8-.8-.8m.8.8.8.8-.8-.8z"/><path style="stroke:none;fill:#c580c5" d="m59.2 72.8.8.8-.8-.8z"/><path style="stroke:none;fill:#d29bd2" d="m58.4 73.6.8.8-.8-.8z"/><path style="stroke:none;fill:#dfb8df" d="m57.6 74.4.8.8-.8-.8z"/><path style="stroke:none;fill:#c580c5" d="m353.6 76.8.8.8-.8-.8z"/><path style="stroke:none;fill:#d29bd2" d="m354.4 77.6.8.8-.8-.8z"/><path style="stroke:none;fill:#dfb8df" d="m355.2 78.4.8.8-.8-.8z"/><path style="stroke:none;fill:#d29bd2" d="m53.6 79.2.8.8-.8-.8z"/><path style="stroke:none;fill:#dfb8df" d="m52.8 80 .8.8-.8-.8z"/><path style="stroke:none;fill:#c580c5" d="m357.6 81.6.8.8-.8-.8z"/><path style="stroke:none;fill:#d29bd2" d="m55.2 82.4.8.8-.8-.8z"/><path style="stroke:none;fill:#dfb8df" d="m358.4 82.4.8.8-.8-.8z"/><path style="stroke:none;fill:#d29bd2" d="m54.4 83.2.8.8-.8-.8m-4.8.8.8.8-.8-.8m311.2 1.6.8.8-.8-.8z"/><path style="stroke:none;fill:#dfb8df" d="m361.6 86.4.8.8-.8-.8z"/><path style="stroke:none;fill:#d29bd2" d="m47.2 87.2.8.8-.8-.8z"/><path style="stroke:none;fill:#c580c5" d="m50.4 88 .8.8-.8-.8z"/><path style="stroke:none;fill:#d29bd2" d="m363.2 88.8.8.8-.8-.8z"/><path style="stroke:none;fill:#fff" d="M70.4 89.6V108a700.731 700.731 0 0 1 27.2 5.695c3.41.784 8.041.884 10.937 2.991 3.936 2.863 6.465 9.549 8.838 13.714l17.664 30.4L164.68 212c4.462 7.774 11.418 16.192 14.001 24.8 3.654 12.182.519 29.678.519 42.4 0 8.762 3.106 24.641-.482 32.618-1.621 3.6-8.209 3.356-11.518 3.845L144 319.24c-3.071.351-9.045.44-11.529 2.379-3.3 2.576-3.635 13.527-4.471 17.581 48.509-1.002 97.034-2.4 145.6-2.4.001-5.581.304-11.358 1.6-16.8-14.977 0-29.842-3.076-44.8-3.2-2.433-19.247-3.952-39.02-4.831-58.4-.279-6.136-3.113-14.918-1.098-20.8 3.208-9.364 15.209-18.908 21.592-26.4 17.423-20.45 34.169-42.163 52.8-61.513 8.22-8.537 23.691-3.996 32.802-10.599 4.102-2.973 5.742-12.842 7.535-17.488H230.4c1.079 4.533-.43 13.346 2.422 17.018 1.562 2.01 5.664 2.466 7.978 3.075l21.6 5.507c-11.278 14.632-21.758 29.92-32.707 44.8-5.89 8.003-13.832 16.422-17.693 25.6h-1.6c-4.033-13.999-13.286-27.767-19.802-40.8-10.884-21.768-20.732-44.586-32.998-65.6 13.461-1.702 27.231-5.32 40.8-5.6v-16h-128z"/><path style="stroke:none;fill:#dfb8df" d="m364 89.6.8.8-.8-.8z"/><path style="stroke:none;fill:#d29bd2" d="m44.8 90.4.8.8-.8-.8z"/><path style="stroke:none;fill:#8a398d" d="M198.4 90.4c0 3.74 1.37 10.867-.822 14.053-1.772 2.574-6.807 2.229-9.578 2.683-9.6 1.571-19.89 3.863-29.6 4.064 2.908 10.094 9.566 19.112 13.6 28.8l2.4-.8c2.736 9.497 9.102 13.879 13.763 21.646 9.711 16.178 18.984 34.532 26.237 51.954h.8c8.982-15.764 21.664-30.044 32.232-44.8 3.997-5.581 9.292-11.163 11.768-17.6-5.758-1.523-12.602-1.363-17.237-5.034-1.36-1.076-4.253-2.056-3.563-3.766v-.8l-6.4-.8c-.769-6.084.309-25.399-9.52-25.435-2.363-.009-5.233 4.189-7.28 5.435.12 3.365-11.154 15.78-14.4 16.8-1.412 5.537-7.474 8.347-9.6 13.6-13.349-4.954-19.166-19.394-24.8-31.2 10.79-4.704 23.297-1.315 33.588-6.336 10.234-4.993 5.538-17.489-1.588-22.464z"/><path style="stroke:none;fill:#d29bd2" d="m48 91.2.8.8-.8-.8m317.6.8.8.8-.8-.8m-322.4.8.8.8-.8-.8m2.4 1.6.8.8-.8-.8m321.6 0 .8.8-.8-.8z"/><path style="stroke:none;fill:#dfb8df" d="m40.8 96 .8.8-.8-.8z"/><path style="stroke:none;fill:#d29bd2" d="m368.8 96.8.8.8-.8-.8z"/><path style="stroke:none;fill:#c580c5" d="m43.2 97.6.8.8-.8-.8z"/><path style="stroke:none;fill:#924792" d="M205.6 97.6c0 3.068.502 6.699-.686 9.597-5.316 12.953-28.326 5.706-38.514 12.003 3.889 11.371 11.894 28.106 24.8 31.2 2.858-4.733 8.75-7.933 9.6-13.6 4.566-1.473 13.866-12.024 14.4-16.8 13.47-5.501-3.368-18.103-9.6-22.4z"/><path style="stroke:none;fill:#d29bd2" d="m370.4 99.2.8.8-.8-.8m-332 .8.8.8-.8-.8z"/><path style="stroke:none;fill:#c580c5" d="m41.6 100 .8.8-.8-.8z"/><path style="stroke:none;fill:#dfb8df" d="m372 101.6.8.8-.8-.8z"/><path style="stroke:none;fill:#d29bd2" d="m36.8 102.4.8.8-.8-.8m3.2 0 .8.8-.8-.8z"/><path style="stroke:none;fill:#dfb8df" d="M69.6 104.8c-.894 10.934-10.668 20.238-18.06 27.407-8.057 7.815-15.6 17.451-22.731 26.153-3.971 4.845-9.899 14.923-16.009 16.84-.579 13.474-2.509 26.481-.8 40 7.32-4.828 12.691-14.678 18.564-21.241 10.217-11.415 20.863-22.795 30.543-34.633C69.52 149.038 77.606 136.381 88 128c-2.56-9.119-13.929-14.71-18.4-23.2m123.2.8v.8h2.4c-.998-.548-1.238-.599-2.4-.8z"/><path style="stroke:none;fill:#9f679f" d="M195.734 105.866c-.356.356.488.312.532.268.356-.356-.488-.312-.532-.268z"/><path style="stroke:none;fill:#d29bd2" d="m374.4 105.6.8.8-.8-.8m-340 .8.8.8-.8-.8z"/><path style="stroke:none;fill:#dfb8df" d="M187.734 106.666c-.356.356.488.312.532.268.356-.356-.488-.312-.532-.268z"/><path style="stroke:none;fill:#b485b5" d="M189.334 106.666c-.356.356.488.312.532.268.356-.356-.488-.312-.532-.268z"/><path style="stroke:none;fill:#dfb8df" d="M182.134 107.466c-.356.356.488.312.532.268.356-.356-.488-.312-.532-.268z"/><path style="stroke:none;fill:#b485b5" d="M183.2 107.2v.8h2.4c-.998-.548-1.238-.599-2.4-.8z"/><path style="stroke:none;fill:#c580c5" d="m33.6 108 .8.8-.8-.8z"/><path style="stroke:none;fill:#bcbbbc" d="m70.4 108 .8 1.6h.8l.8-1.6h-2.4z"/><path style="stroke:none;fill:#bd9ac0" d="M176.8 108v.8h2.4c-.998-.548-1.238-.599-2.4-.8z"/><path style="stroke:none;fill:#c580c5" d="m36 108.8.8.8-.8-.8z"/><path style="stroke:none;fill:#aa7aaa" d="M72 108.8c3.845 8.147 37.349 10.662 23.2 23.2 1.92 4.118 7.445 11.098 11.968 12.502 4.863 1.51 8.292-7.318 7.785-10.905-1.403-9.927-10.086-10.124-14.153-16.797-4.307 0-14.928-3.488-14.4-5.6L72 108.8z"/><path style="stroke:none;fill:#bcbbbc" d="M75.2 108.8v.8h2.4c-.999-.548-1.239-.599-2.4-.8m96.534.266c-.356.356.488.312.532.268.356-.356-.488-.312-.532-.268z"/><path style="stroke:none;fill:#aa7aaa" d="M173.334 109.066c-.356.356.488.312.532.268.356-.356-.488-.312-.532-.268z"/><path style="stroke:none;fill:#cfcfcf" d="M79.733 109.866c-.355.356.49.312.533.268.356-.356-.488-.312-.533-.268z"/><path style="stroke:none;fill:#bcbbbc" d="M165.6 109.6v.8h2.4c-.998-.548-1.238-.599-2.4-.8z"/><path style="stroke:none;fill:#dfb8df" d="m376.8 109.6.8.8-.8-.8z"/><path style="stroke:none;fill:#cfcfcf" d="M83.734 110.666c-.356.356.488.312.532.268.356-.356-.488-.312-.532-.268z"/><path style="stroke:none;fill:#bcbbbc" d="M160 110.4v.8h2.4c-.998-.548-1.238-.599-2.4-.8z"/><path style="stroke:none;fill:#9f679f" d="M162.934 110.666c-.356.356.488.312.532.268.356-.356-.488-.312-.532-.268z"/><path style="stroke:none;fill:#bcbbbc" d="M86.934 111.466c-.356.356.488.312.532.268.356-.356-.488-.312-.532-.268z"/><path style="stroke:none;fill:#dfb8df" d="m157.6 111.2.8.8-.8-.8z"/><path style="stroke:none;fill:#d29bd2" d="m377.6 111.2.8.8-.8-.8z"/><path style="stroke:none;fill:#dfb8df" d="m31.2 112 .8.8-.8-.8z"/><path style="stroke:none;fill:#9f679f" d="M85.6 112v.8c5.277 1.142 9.683 3.871 15.2 4 1.042 3.566 5.21 3.449 7.778 5.859 6.803 6.387 9.24 17.412-.578 22.141 4.084 8.758 16.127 19.254 24 24.8-3.285-14.819-7.025-26.739-14.882-40-2.331-3.931-4.592-10.255-8.486-12.85-5.306-3.534-16.748-4.62-23.032-4.75z"/><path style="stroke:none;fill:#bcbbbc" d="M90.934 112.266c-.356.356.488.312.532.268.356-.356-.488-.312-.532-.268z"/><path style="stroke:none;fill:#cfcfcf" d="M94.934 113.066c-.356.356.488.312.532.268.356-.356-.488-.312-.532-.268z"/><path style="stroke:none;fill:#bd9ac0" d="m158.4 112.8.8.8-.8-.8z"/><path style="stroke:none;fill:#d29bd2" d="m378.4 112.8.8.8-.8-.8m-348 .8.8.8-.8-.8z"/><path style="stroke:none;fill:#bcbbbc" d="M98.134 113.866c-.356.356.488.312.532.268.356-.356-.488-.312-.532-.268z"/><path style="stroke:none;fill:#b485b5" d="M76.8 114.4c2.09 2.966 4.636 5.434 7.2 8 2.676 2.677 6.51 8.301 10.328 9.231 3.4.828 6.32-4.807 5.122-7.597-2.29-5.328-17.399-9.576-22.65-9.634z"/><path style="stroke:none;fill:#bcbbbc" d="M102.134 114.666c-.356.356.488.312.532.268.356-.356-.488-.312-.532-.268m57.066-.266.8.8-.8-.8z"/><path style="stroke:none;fill:#d29bd2" d="m379.2 114.4.8.8-.8-.8m-349.6.8.8.8-.8-.8z"/><path style="stroke:none;fill:#dfb8df" d="M106.134 115.466c-.356.356.488.312.532.268.356-.356-.488-.312-.532-.268z"/><path style="stroke:none;fill:#d29bd2" d="m32 116 .8.8-.8-.8z"/><path style="stroke:none;fill:#bd9ac0" d="m108.8 116 .8.8-.8-.8z"/><path style="stroke:none;fill:#bcbbbc" d="m160 116 .8.8-.8-.8z"/><path style="stroke:none;fill:#c580c5" d="m380 116 .8.8-.8-.8z"/><path style="stroke:none;fill:#d29bd2" d="m28.8 116.8.8.8-.8-.8m2.4.8.8.8-.8-.8z"/><path style="stroke:none;fill:#bcbbbc" d="m160.8 117.6.8.8-.8-.8z"/><path style="stroke:none;fill:#c580c5" d="m380.8 117.6.8.8-.8-.8z"/><path style="stroke:none;fill:#d29bd2" d="m28 118.4.8.8-.8-.8z"/><path style="stroke:none;fill:#dfb8df" d="m110.4 118.4.8.8-.8-.8z"/><path style="stroke:none;fill:#d29bd2" d="m30.4 119.2.8.8-.8-.8z"/><path style="stroke:none;fill:#bcbbbc" d="m161.6 119.2.8.8-.8-.8z"/><path style="stroke:none;fill:#c580c5" d="m381.6 119.2.8.8-.8-.8z"/><path style="stroke:none;fill:#d29bd2" d="m27.2 120 .8.8-.8-.8z"/><path style="stroke:none;fill:#bcbbbc" d="m111.2 120 .8.8-.8-.8z"/><path style="stroke:none;fill:#d29bd2" d="m29.6 120.8.8.8-.8-.8z"/><path style="stroke:none;fill:#bcbbbc" d="m162.4 120.8.8.8-.8-.8z"/><path style="stroke:none;fill:#d29bd2" d="m382.4 120.8.8.8-.8-.8m-356 .8.8.8-.8-.8z"/><path style="stroke:none;fill:#bcbbbc" d="m163.2 122.4.8.8-.8-.8z"/><path style="stroke:none;fill:#ebd2eb" d="M230.666 122.934c-.044.044-.088.888.268.532.044-.044.088-.888-.268-.532z"/><path style="stroke:none;fill:#bd9ac0" d="m338.4 122.4.8.8-.8-.8z"/><path style="stroke:none;fill:#7b2b7b" d="M339.2 122.4c-2.195 4.694-3.314 13.649-7.534 16.85-8.48 6.432-22.965 2.633-31.594 9.16-6.842 5.176-12.318 13.881-17.889 20.39l-34.287 40c-6.823 7.927-18.683 17.542-22.706 27.2-2.596 6.234.444 17.413 1.074 24 1.758 18.402 4.134 37.519 4.136 56 2.956.374 5.812.775 8.8.8-3.186-6.338-2.678-13.095-3.336-20-1.162-12.21-2.626-24.543-3.073-36.8-.227-6.238-2.126-12.977.549-18.972 2.662-5.966 8.466-10.766 12.681-15.654l24.594-28.698c10.767-12.765 21.578-29.554 35.785-38.589 9.265-5.892 21.684-5.101 31.128-10.329 8.727-4.832 9.268-19.844 1.672-25.358z"/><path style="stroke:none;fill:#d29bd2" d="m383.2 122.4.8.8-.8-.8z"/><path style="stroke:none;fill:#dfb8df" d="m25.6 123.2.8.8-.8-.8z"/><path style="stroke:none;fill:#d29bd2" d="m28 124 .8.8-.8-.8z"/><path style="stroke:none;fill:#dfb8df" d="m113.6 124 .8.8-.8-.8z"/><path style="stroke:none;fill:#bcbbbc" d="m164 124 .8.8-.8-.8z"/><path style="stroke:none;fill:#dfb8df" d="M230.666 124.534c-.044.044-.088.888.268.532.044-.044.088-.888-.268-.532M337.6 124l.8.8-.8-.8m46.4 0 .8.8-.8-.8m-359.2.8.8.8-.8-.8z"/><path style="stroke:none;fill:#aa7aaa" d="m337.6 124.8.8.8-.8-.8z"/><path style="stroke:none;fill:#bd9ac0" d="m114.4 125.6.8.8-.8-.8z"/><path style="stroke:none;fill:#bcbbbc" d="m164.8 125.6.8.8-.8-.8z"/><path style="stroke:none;fill:#b485b5" d="M230.666 126.134c-.044.044-.088.888.268.532.044-.044.088-.888-.268-.532z"/><path style="stroke:none;fill:#dfb8df" d="m384.8 125.6.8.8-.8-.8z"/><path style="stroke:none;fill:#d29bd2" d="M88 126.4c-16.089 20.946-33.94 41.43-51.612 61.017-7.318 8.111-20.47 18.172-23.948 28.719-2.882 8.737 2.67 22.346 4.36 31.064 9.399-4.51 16.886-17.488 23.431-25.36l44.23-51.324c5.206-6.156 19.059-17.047 20.549-24.919 1.076-5.682-12.812-16.24-17.01-19.197m248.8 0 .8.8-.8-.8z"/><path style="stroke:none;fill:#c580c5" d="m24 127.2.8.8-.8-.8z"/><path style="stroke:none;fill:#bcbbbc" d="m165.6 127.2.8.8-.8-.8z"/><path style="stroke:none;fill:#9f679f" d="M230.666 127.734c-.044.044-.088.888.268.532.044-.044.088-.888-.268-.532z"/><path style="stroke:none;fill:#8a398d" d="M344 127.2c4.841 27.29-29.854 22.553-44.449 35.428-16.616 14.66-29.979 34.832-44.536 51.546-6.849 7.864-18.129 17.099-21.972 26.854-2.241 5.692-.726 12.305-.315 18.172.898 12.814 1.918 25.611 3.136 38.4.445 4.673-.934 14.541 2.883 17.92 2.663 2.358 7.557 1.91 10.853 2.151L275.2 320c1.294 7.634 11.98 12.136 3.433 21.378-6.847 7.403-28.538 3.422-37.833 3.422-35.174 0-70.37 1.6-105.6 1.6v.8c14.582 11.11 27.042 26.242 40 39.2 4.71 4.71 9.759 11.85 15.539 15.178 5.132 2.954 16.222.822 22.061.822 23.658-.002 52.936-5.01 72.8-18.4-.998-.548-1.239-.599-2.4-.8 2.245-21.543 13.804-39.754 18.493-60.8 1.879-8.437 1.971-20.151 9.646-25.748 7.083-5.166 17.124-4.53 25.233-6.619 17.872-4.604 38.102-11.809 53.028-22.833v3.2h.8c8.337-20.056 11.2-42.377 11.2-64 0-6.654 1.309-16.772-1.282-22.972-2.602-6.222-11.575-12.285-16.318-17.028-12.747-12.747-25.222-28.884-40-39.2z"/><path style="stroke:none;fill:#cfcfcf" d="m116 128 .8.8-.8-.8z"/><path style="stroke:none;fill:#d29bd2" d="m23.2 128.8.8.8-.8-.8z"/><path style="stroke:none;fill:#bcbbbc" d="m166.4 128.8.8.8-.8-.8z"/><path style="stroke:none;fill:#b485b5" d="m336 128.8.8.8-.8-.8z"/><path style="stroke:none;fill:#dfb8df" d="m116.8 129.6.8.8-.8-.8z"/><path style="stroke:none;fill:#d29bd2" d="m386.4 129.6.8.8-.8-.8z"/><path style="stroke:none;fill:#dfb8df" d="m22.4 130.4.8.8-.8-.8z"/><path style="stroke:none;fill:#bcbbbc" d="m167.2 130.4.8.8-.8-.8z"/><path style="stroke:none;fill:#cfcfcf" d="m335.2 130.4.8.8-.8-.8z"/><path style="stroke:none;fill:#ebd2eb" d="M231.466 131.734c-.044.044-.088.888.268.532.044-.044.088-.888-.268-.532z"/><path style="stroke:none;fill:#9f679f" d="m335.2 131.2.8.8-.8-.8z"/><path style="stroke:none;fill:#dfb8df" d="m168 132 .8.8-.8-.8z"/><path style="stroke:none;fill:#d29bd2" d="m21.6 132.8.8.8-.8-.8z"/><path style="stroke:none;fill:#dfb8df" d="M231.2 132.8v2.4h.8c-.201-1.162-.252-1.402-.8-2.4z"/><path style="stroke:none;fill:#d29bd2" d="m334.4 132.8.8.8-.8-.8z"/><path style="stroke:none;fill:#dfb8df" d="m119.2 133.6.8.8-.8-.8z"/><path style="stroke:none;fill:#bcbbbc" d="m168.8 133.6.8.8-.8-.8z"/><path style="stroke:none;fill:#924792" d="m334.4 133.6.8.8-.8-.8z"/><path style="stroke:none;fill:#d29bd2" d="m388 133.6.8.8-.8-.8z"/><path style="stroke:none;fill:#dfb8df" d="m20.8 134.4.8.8-.8-.8z"/><path style="stroke:none;fill:#bd9ac0" d="m120 135.2.8.8-.8-.8z"/><path style="stroke:none;fill:#bcbbbc" d="m169.6 135.2.8.8-.8-.8z"/><path style="stroke:none;fill:#aa7aaa" d="M231.2 135.2v2.4h.8c-.201-1.162-.252-1.402-.8-2.4z"/><path style="stroke:none;fill:#bd9ac0" d="m333.6 135.2.8.8-.8-.8z"/><path style="stroke:none;fill:#d29bd2" d="m20 136.8.8.8-.8-.8z"/><path style="stroke:none;fill:#dfb8df" d="m170.4 136.8.8.8-.8-.8z"/><path style="stroke:none;fill:#aa7aaa" d="m332.8 137.6.8.8-.8-.8z"/><path style="stroke:none;fill:#dfb8df" d="m389.6 137.6.8.8-.8-.8z"/><path style="stroke:none;fill:#bcbbbc" d="m171.2 138.4.8.8-.8-.8z"/><path style="stroke:none;fill:#d29bd2" d="m19.2 139.2.8.8-.8-.8z"/><path style="stroke:none;fill:#dfb8df" d="m122.4 139.2.8.8-.8-.8z"/><path style="stroke:none;fill:#7b2b7b" d="M172.8 139.2c1.473 8.263 7.266 16.526 11.002 24 8.864 17.727 18.982 35.307 26.598 53.6h1.6c4.117-6.877-2.218-14.432-5.402-20.8-7.733-15.465-15.336-29.848-25.64-43.337-3.168-4.147-3.617-10.489-8.158-13.463z"/><path style="stroke:none;fill:#cfcfcf" d="M232.534 139.466c-.356.356.488.312.532.268.356-.356-.488-.312-.532-.268z"/><path style="stroke:none;fill:#d29bd2" d="m331.2 139.2.8.8-.8-.8z"/><path style="stroke:none;fill:#9f679f" d="m332 139.2.8.8-.8-.8z"/><path style="stroke:none;fill:#bcbbbc" d="m172 140 .8.8-.8-.8z"/><path style="stroke:none;fill:#cfcfcf" d="M235.734 140.266c-.356.356.488.312.532.268.356-.356-.488-.312-.532-.268z"/><path style="stroke:none;fill:#bd9ac0" d="m328 140 .8.8-.8-.8z"/><path style="stroke:none;fill:#9f679f" d="m328.8 140 .8.8-.8-.8z"/><path style="stroke:none;fill:#d29bd2" d="m390.4 140 .8.8-.8-.8z"/><path style="stroke:none;fill:#bd9ac0" d="m123.2 140.8.8.8-.8-.8m115.2 0 .8.8-.8-.8m86.4 0 .8.8-.8-.8z"/><path style="stroke:none;fill:#9f679f" d="m325.6 140.8.8.8-.8-.8z"/><path style="stroke:none;fill:#dfb8df" d="m172.8 141.6.8.8-.8-.8z"/><path style="stroke:none;fill:#7b2b7b" d="M236.8 141.6c4.07 4.7 20.695 12.972 24.8 5.6-7.87-2.217-16.612-5.426-24.8-5.6z"/><path style="stroke:none;fill:#bd9ac0" d="m241.6 141.6.8.8-.8-.8m80 0 .8.8-.8-.8z"/><path style="stroke:none;fill:#9f679f" d="m322.4 141.6.8.8-.8-.8m-78.4.8.8.8-.8-.8z"/><path style="stroke:none;fill:#bd9ac0" d="m244.8 142.4.8.8-.8-.8z"/><path style="stroke:none;fill:#cfcfcf" d="m317.6 142.4.8.8-.8-.8z"/><path style="stroke:none;fill:#bd9ac0" d="m318.4 142.4.8.8-.8-.8z"/><path style="stroke:none;fill:#9f679f" d="m319.2 142.4.8.8-.8-.8z"/><path style="stroke:none;fill:#dfb8df" d="m124.8 143.2.8.8-.8-.8m48.8 0 .8.8-.8-.8z"/><path style="stroke:none;fill:#9f679f" d="m247.2 143.2.8.8-.8-.8z"/><path style="stroke:none;fill:#bd9ac0" d="m248 143.2.8.8-.8-.8z"/><path style="stroke:none;fill:#cfcfcf" d="m314.4 143.2.8.8-.8-.8z"/><path style="stroke:none;fill:#b485b5" d="m315.2 143.2.8.8-.8-.8z"/><path style="stroke:none;fill:#c580c5" d="M105.6 144c-6.033 13.519-21.538 26.114-31.224 37.289-11.87 13.692-23.763 27.317-35.3 41.25-6.795 8.206-13.557 18.419-22.276 24.661 3.244 10.146 7.487 20.209 10.4 30.4 11.3-6.476 20.875-22.8 29.246-32.797 3.242-3.871 7.547-6.752 8.354-12.003 8.067-2.465 15.81-15.754 20.8-22.193 12.043-15.537 26.09-31.926 40-45.807-3.53-7.57-13.206-16.014-20-20.8z"/><path style="stroke:none;fill:#9f679f" d="m250.4 144 .8.8-.8-.8z"/><path style="stroke:none;fill:#bd9ac0" d="m251.2 144 .8.8-.8-.8z"/><path style="stroke:none;fill:#dfb8df" d="m311.2 144 .8.8-.8-.8z"/><path style="stroke:none;fill:#b485b5" d="m312 144 .8.8-.8-.8z"/><path style="stroke:none;fill:#bd9ac0" d="m125.6 144.8.8.8-.8-.8z"/><path style="stroke:none;fill:#dfb8df" d="m174.4 144.8.8.8-.8-.8z"/><path style="stroke:none;fill:#9f679f" d="m253.6 144.8.8.8-.8-.8z"/><path style="stroke:none;fill:#bd9ac0" d="m254.4 144.8.8.8-.8-.8z"/><path style="stroke:none;fill:#dfb8df" d="m308 144.8.8.8-.8-.8z"/><path style="stroke:none;fill:#aa7aaa" d="m308.8 144.8.8.8-.8-.8z"/><path style="stroke:none;fill:#9f679f" d="m256.8 145.6.8.8-.8-.8z"/><path style="stroke:none;fill:#bd9ac0" d="m257.6 145.6.8.8-.8-.8z"/><path style="stroke:none;fill:#dfb8df" d="m304.8 145.6.8.8-.8-.8z"/><path style="stroke:none;fill:#aa7aaa" d="m305.6 145.6.8.8-.8-.8z"/><path style="stroke:none;fill:#924792" d="M125.6 146.4c2.331 6.95 3.3 16.02 6.19 22.4 3.168 6.991 12.419 14.838 18.61 19.2-3.763-10.279-11.038-20.194-16.639-29.6-2.333-3.916-4.287-9.47-8.161-12z"/><path style="stroke:none;fill:#dfb8df" d="m175.2 146.4.8.8-.8-.8z"/><path style="stroke:none;fill:#9f679f" d="m260 146.4.8.8-.8-.8z"/><path style="stroke:none;fill:#d29bd2" d="m260.8 146.4.8.8-.8-.8m40.8 0 .8.8-.8-.8z"/><path style="stroke:none;fill:#9f679f" d="m302.4 146.4.8.8-.8-.8m-40.8.8.8.8-.8-.8z"/><path style="stroke:none;fill:#bd9ac0" d="m300 147.2.8.8-.8-.8z"/><path style="stroke:none;fill:#b760b8" d="M393.066 147.734c-.044.044-.088.888.268.532.044-.044.088-.888-.268-.532z"/><path style="stroke:none;fill:#dfb8df" d="m176 148 .8.8-.8-.8m123.2 0 .8.8-.8-.8z"/><path style="stroke:none;fill:#b760b8" d="M16.267 149.334c-.045.044-.09.888.266.532.045-.044.09-.888-.266-.532z"/><path style="stroke:none;fill:#dfb8df" d="M18.667 149.334c-.045.044-.09.888.266.532.045-.044.09-.888-.266-.532M128 148.8l.8.8-.8-.8m48.8.8.8.8-.8-.8z"/><path style="stroke:none;fill:#bd9ac0" d="m260 149.6.8.8-.8-.8z"/><path style="stroke:none;fill:#c580c5" d="M393.866 150.134c-.044.044-.088.888.268.532.044-.044.088-.888-.268-.532z"/><path style="stroke:none;fill:#bd9ac0" d="m128.8 150.4.8.8-.8-.8z"/><path style="stroke:none;fill:#9f679f" d="m259.2 150.4.8.8-.8-.8z"/><path style="stroke:none;fill:#c580c5" d="M15.467 151.734c-.045.044-.09.888.266.532.045-.044.09-.888-.266-.532z"/><path style="stroke:none;fill:#d29bd2" d="M17.867 151.734c-.045.044-.09.888.266.532.045-.044.09-.888-.266-.532z"/><path style="stroke:none;fill:#dfb8df" d="m177.6 151.2.8.8-.8-.8z"/><path style="stroke:none;fill:#9f679f" d="m296.8 151.2.8.8-.8-.8z"/><path style="stroke:none;fill:#dfb8df" d="m258.4 152 .8.8-.8-.8z"/><path style="stroke:none;fill:#aa7aaa" d="m296 152 .8.8-.8-.8z"/><path style="stroke:none;fill:#dfb8df" d="m130.4 152.8.8.8-.8-.8m48 0 .8.8-.8-.8z"/><path style="stroke:none;fill:#b485b5" d="m257.6 152.8.8.8-.8-.8z"/><path style="stroke:none;fill:#bd9ac0" d="m295.2 152.8.8.8-.8-.8z"/><path style="stroke:none;fill:#b760b8" d="M394.666 153.334c-.044.044-.088.888.268.532.044-.044.088-.888-.268-.532z"/><path style="stroke:none;fill:#dfb8df" d="m294.4 153.6.8.8-.8-.8z"/><path style="stroke:none;fill:#c580c5" d="M14.667 154.934c-.045.044-.09.888.266.532.045-.044.09-.888-.266-.532z"/><path style="stroke:none;fill:#d29bd2" d="M17.067 154.934c-.045.044-.09.888.266.532.045-.044.09-.888-.266-.532z"/><path style="stroke:none;fill:#bd9ac0" d="m131.2 154.4.8.8-.8-.8z"/><path style="stroke:none;fill:#dfb8df" d="m179.2 154.4.8.8-.8-.8m76.8.8.8.8-.8-.8z"/><path style="stroke:none;fill:#c580c5" d="M395.466 155.734c-.044.044-.088.888.268.532.044-.044.088-.888-.268-.532z"/><path style="stroke:none;fill:#b485b5" d="m132 156 .8.8-.8-.8z"/><path style="stroke:none;fill:#dfb8df" d="m180 156 .8.8-.8-.8z"/><path style="stroke:none;fill:#b485b5" d="m255.2 156 .8.8-.8-.8z"/><path style="stroke:none;fill:#d29bd2" d="M13.867 157.334c-.045.044-.09.888.266.532.045-.044.09-.888-.266-.532z"/><path style="stroke:none;fill:#9f679f" d="m292 156.8.8.8-.8-.8z"/><path style="stroke:none;fill:#d29bd2" d="M16.267 158.134c-.045.044-.09.888.266.532.045-.044.09-.888-.266-.532z"/><path style="stroke:none;fill:#dfb8df" d="m180.8 157.6.8.8-.8-.8z"/><path style="stroke:none;fill:#aa7aaa" d="m291.2 157.6.8.8-.8-.8z"/><path style="stroke:none;fill:#dfb8df" d="m133.6 158.4.8.8-.8-.8z"/><path style="stroke:none;fill:#d29bd2" d="m253.6 158.4.8.8-.8-.8z"/><path style="stroke:none;fill:#bd9ac0" d="m290.4 158.4.8.8-.8-.8z"/><path style="stroke:none;fill:#d29bd2" d="M396.266 158.934c-.044.044-.088.888.268.532.044-.044.088-.888-.268-.532z"/><path style="stroke:none;fill:#dfb8df" d="m181.6 159.2.8.8-.8-.8m108 0 .8.8-.8-.8z"/><path style="stroke:none;fill:#d29bd2" d="M13.067 160.534c-.045.044-.09.888.266.532.045-.044.09-.888-.266-.532z"/><path style="stroke:none;fill:#bd9ac0" d="m134.4 160 .8.8-.8-.8z"/><path style="stroke:none;fill:#d29bd2" d="M15.467 161.334c-.045.044-.09.888.266.532.045-.044.09-.888-.266-.532z"/><path style="stroke:none;fill:#dfb8df" d="m182.4 160.8.8.8-.8-.8m69.6 0 .8.8-.8-.8z"/><path style="stroke:none;fill:#bd9ac0" d="m251.2 161.6.8.8-.8-.8z"/><path style="stroke:none;fill:#d29bd2" d="M396.8 161.6v2.4h.8c-.201-1.162-.252-1.402-.8-2.4z"/><path style="stroke:none;fill:#cfcfcf" d="m136 162.4.8.8-.8-.8z"/><path style="stroke:none;fill:#dfb8df" d="m183.2 162.4.8.8-.8-.8z"/><path style="stroke:none;fill:#9f679f" d="m287.2 162.4.8.8-.8-.8z"/><path style="stroke:none;fill:#aa7aaa" d="m286.4 163.2.8.8-.8-.8z"/><path style="stroke:none;fill:#d29bd2" d="M12.267 164.534c-.045.044-.09.888.266.532.045-.044.09-.888-.266-.532z"/><path style="stroke:none;fill:#c580c5" d="M14.4 164v2.4h.8c-.201-1.162-.252-1.402-.8-2.4z"/><path style="stroke:none;fill:#b760b8" d="M64.8 232.8c-1.331 4.79-5.234 7.654-8.354 11.316-6.142 7.21-12.003 14.744-18.414 21.712-2.871 3.122-8.297 7.51-9.268 11.772-.72 3.157 2.108 6.997 3.576 9.6 4.026 7.142 7.92 14.534 13.26 20.8h.8c4.474-5.495 14.901-12.886 16-20 6.379-3.487 10.173-11.544 16-16l-.8-1.6c6.611-3.284 10.004-11.634 16-16l-.8-1.6c1.294-1.051 1.354-1.502 1.6-3.2 6.574-1.827 11.698-10.432 15.781-15.52 9.166-11.421 19.737-26.814 31.419-35.68l-.8-1.6c2.97-1.434 4.493-3.054 4-6.4h1.6c-2.646-8.774-7.171-13.587-13.6-20-1.67-1.666-4.838-6.055-7.635-5.206-5.222 1.585-12.169 13.081-15.626 17.194L80.105 216.8c-4.437 5.192-9.145 12.876-15.305 16z"/><path style="stroke:none;fill:#d29bd2" d="m136.8 164 .8.8-.8-.8z"/><path style="stroke:none;fill:#dfb8df" d="m184 164 .8.8-.8-.8m65.6 0 .8.8-.8-.8z"/><path style="stroke:none;fill:#bd9ac0" d="m285.6 164 .8.8-.8-.8z"/><path style="stroke:none;fill:#b485b5" d="m248.8 164.8.8.8-.8-.8z"/><path style="stroke:none;fill:#dfb8df" d="m284.8 164.8.8.8-.8-.8z"/><path style="stroke:none;fill:#b485b5" d="m137.6 165.6.8.8-.8-.8z"/><path style="stroke:none;fill:#dfb8df" d="m184.8 165.6.8.8-.8-.8z"/><path style="stroke:none;fill:#d29bd2" d="M397.866 166.134c-.044.044-.088.888.268.532.044-.044.088-.888-.268-.532z"/><path style="stroke:none;fill:#dfb8df" d="M11.2 167.2v2.4h.8c-.201-1.162-.252-1.402-.8-2.4m174.4 0 .8.8-.8-.8z"/><path style="stroke:none;fill:#d29bd2" d="m247.2 167.2.8.8-.8-.8z"/><path style="stroke:none;fill:#c580c5" d="M13.867 168.534c-.045.044-.09.888.266.532.045-.044.09-.888-.266-.532z"/><path style="stroke:none;fill:#dfb8df" d="m139.2 168 .8.8-.8-.8z"/><path style="stroke:none;fill:#9f679f" d="m282.4 168 .8.8-.8-.8z"/><path style="stroke:none;fill:#dfb8df" d="m186.4 168.8.8.8-.8-.8z"/><path style="stroke:none;fill:#aa7aaa" d="m281.6 168.8.8.8-.8-.8z"/><path style="stroke:none;fill:#bd9ac0" d="m140 169.6.8.8-.8-.8z"/><path style="stroke:none;fill:#dfb8df" d="m245.6 169.6.8.8-.8-.8z"/><path style="stroke:none;fill:#bd9ac0" d="m280.8 169.6.8.8-.8-.8z"/><path style="stroke:none;fill:#d29bd2" d="M398.666 170.134c-.044.044-.088.888.268.532.044-.044.088-.888-.268-.532z"/><path style="stroke:none;fill:#dfb8df" d="m187.2 170.4.8.8-.8-.8z"/><path style="stroke:none;fill:#bd9ac0" d="m244.8 170.4.8.8-.8-.8z"/><path style="stroke:none;fill:#dfb8df" d="m280 170.4.8.8-.8-.8z"/><path style="stroke:none;fill:#d29bd2" d="M10.4 172v2.4h.8c-.201-1.162-.252-1.402-.8-2.4z"/><path style="stroke:none;fill:#dfb8df" d="m188 172 .8.8-.8-.8z"/><path style="stroke:none;fill:#c580c5" d="M12.8 172.8v2.4h.8c-.201-1.162-.252-1.402-.8-2.4z"/><path style="stroke:none;fill:#dfb8df" d="m243.2 172.8.8.8-.8-.8m-100.8.8.8.8-.8-.8m46.4 0 .8.8-.8-.8z"/><path style="stroke:none;fill:#b485b5" d="m242.4 173.6.8.8-.8-.8z"/><path style="stroke:none;fill:#9f679f" d="m277.6 173.6.8.8-.8-.8z"/><path style="stroke:none;fill:#dfb8df" d="M399.466 174.134c-.044.044-.088.888.268.532.044-.044.088-.888-.268-.532z"/><path style="stroke:none;fill:#aa7aaa" d="m276.8 174.4.8.8-.8-.8z"/><path style="stroke:none;fill:#b485b5" d="m143.2 175.2.8.8-.8-.8z"/><path style="stroke:none;fill:#dfb8df" d="m189.6 175.2.8.8-.8-.8z"/><path style="stroke:none;fill:#bd9ac0" d="m276 175.2.8.8-.8-.8z"/><path style="stroke:none;fill:#c580c5" d="M399.466 175.734c-.044.044-.088.888.268.532.044-.044.088-.888-.268-.532z"/><path style="stroke:none;fill:#d29bd2" d="m240.8 176 .8.8-.8-.8z"/><path style="stroke:none;fill:#dfb8df" d="m275.2 176 .8.8-.8-.8m-265.6.8v2.4h.8c-.201-1.162-.252-1.402-.8-2.4m180.8 0 .8.8-.8-.8z"/><path style="stroke:none;fill:#b760b8" d="M12 177.6v2.4h.8c-.201-1.162-.252-1.402-.8-2.4z"/><path style="stroke:none;fill:#dfb8df" d="m144.8 177.6.8.8-.8-.8m46.4.8.8.8-.8-.8m48 0 .8.8-.8-.8z"/><path style="stroke:none;fill:#ebd2eb" d="M400.266 178.934c-.044.044-.088.888.268.532.044-.044.088-.888-.268-.532z"/><path style="stroke:none;fill:#bd9ac0" d="m145.6 179.2.8.8-.8-.8m92.8 0 .8.8-.8-.8z"/><path style="stroke:none;fill:#9f679f" d="m272.8 179.2.8.8-.8-.8z"/><path style="stroke:none;fill:#dfb8df" d="m192 180 .8.8-.8-.8z"/><path style="stroke:none;fill:#aa7aaa" d="m272 180 .8.8-.8-.8z"/><path style="stroke:none;fill:#d29bd2" d="M400 180v2.4h.8c-.201-1.162-.252-1.402-.8-2.4z"/><path style="stroke:none;fill:#aa7aaa" d="m146.4 180.8.8.8-.8-.8z"/><path style="stroke:none;fill:#bd9ac0" d="m271.2 180.8.8.8-.8-.8z"/><path style="stroke:none;fill:#dfb8df" d="m192.8 181.6.8.8-.8-.8m44 0 .8.8-.8-.8m33.6 0 .8.8-.8-.8z"/><path style="stroke:none;fill:#ebd2eb" d="M8.8 182.4v2.4h.8c-.201-1.162-.252-1.402-.8-2.4z"/><path style="stroke:none;fill:#b485b5" d="m236 182.4.8.8-.8-.8z"/><path style="stroke:none;fill:#dfb8df" d="m148 183.2.8.8-.8-.8m45.6 0 .8.8-.8-.8z"/><path style="stroke:none;fill:#c580c5" d="M11.2 184v5.6h.8c-.015-2.034-.012-3.734-.8-5.6m-2.4.8v2.4h.8c-.201-1.162-.252-1.402-.8-2.4z"/><path style="stroke:none;fill:#b485b5" d="m148.8 184.8.8.8-.8-.8z"/><path style="stroke:none;fill:#dfb8df" d="m194.4 184.8.8.8-.8-.8z"/><path style="stroke:none;fill:#d29bd2" d="m234.4 184.8.8.8-.8-.8z"/><path style="stroke:none;fill:#9f679f" d="m268 184.8.8.8-.8-.8z"/><path style="stroke:none;fill:#ebd2eb" d="M400.8 184.8v2.4h.8c-.201-1.162-.252-1.402-.8-2.4z"/><path style="stroke:none;fill:#aa7aaa" d="m267.2 185.6.8.8-.8-.8z"/><path style="stroke:none;fill:#dfb8df" d="m195.2 186.4.8.8-.8-.8z"/><path style="stroke:none;fill:#bd9ac0" d="m266.4 186.4.8.8-.8-.8z"/><path style="stroke:none;fill:#dfb8df" d="m150.4 187.2.8.8-.8-.8m115.2 0 .8.8-.8-.8z"/><path style="stroke:none;fill:#bd9ac0" d="M401.066 187.734c-.044.044-.088.888.268.532.044-.044.088-.888-.268-.532z"/><path style="stroke:none;fill:#dfb8df" d="m196 188 .8.8-.8-.8z"/><path style="stroke:none;fill:#bd9ac0" d="m232 188 .8.8-.8-.8m-80.8.8.8.8-.8-.8z"/><path style="stroke:none;fill:#9f679f" d="M400.8 188.8v4h.8c-.07-1.571-.177-2.585-.8-4z"/><path style="stroke:none;fill:#ebd2eb" d="M8 189.6v4h.8c-.07-1.571-.177-2.585-.8-4z"/><path style="stroke:none;fill:#dfb8df" d="m196.8 189.6.8.8-.8-.8z"/><path style="stroke:none;fill:#b485b5" d="m152 190.4.8.8-.8-.8z"/><path style="stroke:none;fill:#dfb8df" d="m230.4 190.4.8.8-.8-.8z"/><path style="stroke:none;fill:#9f679f" d="m263.2 190.4.8.8-.8-.8z"/><path style="stroke:none;fill:#dfb8df" d="m197.6 191.2.8.8-.8-.8z"/><path style="stroke:none;fill:#b485b5" d="m229.6 191.2.8.8-.8-.8z"/><path style="stroke:none;fill:#aa7aaa" d="m262.4 191.2.8.8-.8-.8z"/><path style="stroke:none;fill:#bd9ac0" d="m261.6 192 .8.8-.8-.8z"/><path style="stroke:none;fill:#dfb8df" d="m153.6 192.8.8.8-.8-.8m44.8 0 .8.8-.8-.8m62.4 0 .8.8-.8-.8z"/><path style="stroke:none;fill:#d29bd2" d="M8 193.6v5.6h.8c-.015-2.034-.012-3.734-.8-5.6m220 0 .8.8-.8-.8m-73.6.8.8.8-.8-.8z"/><path style="stroke:none;fill:#dfb8df" d="m199.2 194.4.8.8-.8-.8z"/><path style="stroke:none;fill:#ebd2eb" d="M401.6 194.4v4.8h.8c-.038-1.802-.101-3.158-.8-4.8z"/><path style="stroke:none;fill:#dfb8df" d="m200 196 .8.8-.8-.8z"/><path style="stroke:none;fill:#9f679f" d="m258.4 196 .8.8-.8-.8z"/><path style="stroke:none;fill:#bd9ac0" d="m225.6 196.8.8.8-.8-.8z"/><path style="stroke:none;fill:#aa7aaa" d="m257.6 196.8.8.8-.8-.8z"/><path style="stroke:none;fill:#dfb8df" d="m200.8 197.6.8.8-.8-.8z"/><path style="stroke:none;fill:#bd9ac0" d="m256.8 197.6.8.8-.8-.8z"/><path style="stroke:none;fill:#dfb8df" d="m156.8 198.4.8.8-.8-.8m99.2 0 .8.8-.8-.8z"/><path style="stroke:none;fill:#b760b8" d="M8 199.2v12h.8c0-3.854.701-8.423-.8-12z"/><path style="stroke:none;fill:#dfb8df" d="m201.6 199.2.8.8-.8-.8m22.4 0 .8.8-.8-.8z"/><path style="stroke:none;fill:#d29bd2" d="M401.6 199.2v12h.8c0-3.854.701-8.423-.8-12z"/><path style="stroke:none;fill:#c580c5" d="m157.6 200 .8.8-.8-.8z"/><path style="stroke:none;fill:#b485b5" d="m223.2 200 .8.8-.8-.8z"/><path style="stroke:none;fill:#dfb8df" d="m202.4 200.8.8.8-.8-.8z"/><path style="stroke:none;fill:#9f679f" d="m253.6 201.6.8.8-.8-.8z"/><path style="stroke:none;fill:#dfb8df" d="m159.2 202.4.8.8-.8-.8m44 0 .8.8-.8-.8z"/><path style="stroke:none;fill:#d29bd2" d="m221.6 202.4.8.8-.8-.8z"/><path style="stroke:none;fill:#aa7aaa" d="m252.8 202.4.8.8-.8-.8z"/><path style="stroke:none;fill:#bd9ac0" d="m252 203.2.8.8-.8-.8z"/><path style="stroke:none;fill:#d29bd2" d="m160 204 .8.8-.8-.8z"/><path style="stroke:none;fill:#dfb8df" d="m204 204 .8.8-.8-.8m47.2 0 .8.8-.8-.8z"/><path style="stroke:none;fill:#c580c5" d="m160.8 205.6.8.8-.8-.8z"/><path style="stroke:none;fill:#dfb8df" d="m204.8 205.6.8.8-.8-.8z"/><path style="stroke:none;fill:#bd9ac0" d="m219.2 205.6.8.8-.8-.8z"/><path style="stroke:none;fill:#dfb8df" d="m205.6 207.2.8.8-.8-.8z"/><path style="stroke:none;fill:#9f679f" d="m248.8 207.2.8.8-.8-.8z"/><path style="stroke:none;fill:#dfb8df" d="m162.4 208 .8.8-.8-.8m55.2 0 .8.8-.8-.8z"/><path style="stroke:none;fill:#aa7aaa" d="m248 208 .8.8-.8-.8z"/><path style="stroke:none;fill:#dfb8df" d="m206.4 208.8.8.8-.8-.8z"/><path style="stroke:none;fill:#b485b5" d="m216.8 208.8.8.8-.8-.8z"/><path style="stroke:none;fill:#bd9ac0" d="m247.2 208.8.8.8-.8-.8z"/><path style="stroke:none;fill:#d29bd2" d="m163.2 209.6.8.8-.8-.8z"/><path style="stroke:none;fill:#dfb8df" d="m246.4 209.6.8.8-.8-.8m-39.2.8.8.8-.8-.8z"/><path style="stroke:none;fill:#c580c5" d="M8 211.2v6.4h.8c-.006-2.269.078-4.31-.8-6.4z"/><path style="stroke:none;fill:#bd9ac0" d="m215.2 211.2.8.8-.8-.8z"/><path style="stroke:none;fill:#ebd2eb" d="M401.6 211.2v5.6h.8c-.015-2.034-.013-3.734-.8-5.6z"/><path style="stroke:none;fill:#c580c5" d="M11.2 212v6.4h.8c-.006-2.269.078-4.31-.8-6.4z"/><path style="stroke:none;fill:#dfb8df" d="m208 212 .8.8-.8-.8z"/><path style="stroke:none;fill:#9f679f" d="m244 212.8.8.8-.8-.8z"/><path style="stroke:none;fill:#d29bd2" d="m165.6 213.6.8.8-.8-.8z"/><path style="stroke:none;fill:#cfcfcf" d="m208.8 213.6.8.8-.8-.8z"/><path style="stroke:none;fill:#dfb8df" d="m213.6 213.6.8.8-.8-.8z"/><path style="stroke:none;fill:#aa7aaa" d="m243.2 213.6.8.8-.8-.8z"/><path style="stroke:none;fill:#b485b5" d="m212.8 214.4.8.8-.8-.8z"/><path style="stroke:none;fill:#bd9ac0" d="m242.4 214.4.8.8-.8-.8z"/><path style="stroke:none;fill:#c580c5" d="m166.4 215.2.8.8-.8-.8z"/><path style="stroke:none;fill:#cfcfcf" d="m209.6 215.2.8.8-.8-.8z"/><path style="stroke:none;fill:#dfb8df" d="m241.6 215.2.8.8-.8-.8m-30.666 1.866c-.356.356.488.312.532.268.356-.356-.488-.312-.532-.268M8 217.6v2.4h.8c-.201-1.162-.252-1.402-.8-2.4m160 0 .8.8-.8-.8z"/><path style="stroke:none;fill:#9f679f" d="m239.2 218.4.8.8-.8-.8z"/><path style="stroke:none;fill:#d29bd2" d="m168.8 219.2.8.8-.8-.8z"/><path style="stroke:none;fill:#aa7aaa" d="m238.4 219.2.8.8-.8-.8z"/><path style="stroke:none;fill:#9f679f" d="M400.8 219.2v2.4h.8c-.201-1.162-.252-1.402-.8-2.4z"/><path style="stroke:none;fill:#bd9ac0" d="m237.6 220 .8.8-.8-.8z"/><path style="stroke:none;fill:#dfb8df" d="m236.8 220.8.8.8-.8-.8z"/><path style="stroke:none;fill:#bd9ac0" d="M400.8 221.6v2.4h.8c-.201-1.162-.252-1.402-.8-2.4z"/><path style="stroke:none;fill:#b760b8" d="M12 223.2v2.4h.8c-.201-1.162-.252-1.402-.8-2.4z"/><path style="stroke:none;fill:#dfb8df" d="m171.2 223.2.8.8-.8-.8z"/><path style="stroke:none;fill:#c580c5" d="M8.8 224v2.4h.8c-.201-1.162-.252-1.402-.8-2.4z"/><path style="stroke:none;fill:#9f679f" d="m234.4 224 .8.8-.8-.8z"/><path style="stroke:none;fill:#dfb8df" d="M400.8 224v2.4h.8c-.201-1.162-.252-1.402-.8-2.4z"/><path style="stroke:none;fill:#c580c5" d="m172 224.8.8.8-.8-.8z"/><path style="stroke:none;fill:#aa7aaa" d="m233.6 224.8.8.8-.8-.8z"/><path style="stroke:none;fill:#bd9ac0" d="m232.8 225.6.8.8-.8-.8z"/><path style="stroke:none;fill:#dfb8df" d="M9.067 226.934c-.045.044-.09.888.266.532.045-.044.09-.888-.266-.532M232 226.4l.8.8-.8-.8m-58.4.8.8.8-.8-.8z"/><path style="stroke:none;fill:#9f679f" d="M400.266 228.534c-.044.044-.088.888.268.532.044-.044.088-.888-.268-.532z"/><path style="stroke:none;fill:#d29bd2" d="m174.4 228.8.8.8-.8-.8z"/><path style="stroke:none;fill:#9f679f" d="m229.6 229.6.8.8-.8-.8z"/><path style="stroke:none;fill:#bd9ac0" d="M400 229.6v2.4h.8c-.201-1.162-.252-1.402-.8-2.4z"/><path style="stroke:none;fill:#c580c5" d="m175.2 230.4.8.8-.8-.8z"/><path style="stroke:none;fill:#aa7aaa" d="m228.8 230.4.8.8-.8-.8z"/><path style="stroke:none;fill:#c580c5" d="M9.6 231.2v2.4h.8c-.201-1.162-.252-1.402-.8-2.4z"/><path style="stroke:none;fill:#bd9ac0" d="m228 231.2.8.8-.8-.8z"/><path style="stroke:none;fill:#dfb8df" d="m227.2 232 .8.8-.8-.8m-50.4.8.8.8-.8-.8z"/><path style="stroke:none;fill:#ebd2eb" d="M9.867 234.134c-.045.044-.09.888.266.532.045-.044.09-.888-.266-.532z"/><path style="stroke:none;fill:#d29bd2" d="m177.6 234.4.8.8-.8-.8z"/><path style="stroke:none;fill:#9f679f" d="m224.8 235.2.8.8-.8-.8z"/><path style="stroke:none;fill:#bd9ac0" d="M399.2 235.2v2.4h.8c-.201-1.162-.252-1.402-.8-2.4z"/><path style="stroke:none;fill:#aa7aaa" d="m224 236 .8.8-.8-.8z"/><path style="stroke:none;fill:#c580c5" d="M10.4 236.8v2.4h.8c-.201-1.162-.252-1.402-.8-2.4z"/><path style="stroke:none;fill:#924792" d="M224 237.6v2.4h.8c-.201-1.161-.252-1.402-.8-2.4z"/><path style="stroke:none;fill:#aa7aaa" d="M224 240v2.4h.8c-.201-1.162-.252-1.402-.8-2.4z"/><path style="stroke:none;fill:#bd9ac0" d="M398.666 240.534c-.044.044-.088.888.268.532.044-.044.088-.888-.268-.532z"/><path style="stroke:none;fill:#b760b8" d="M15.467 241.334c-.045.044-.09.888.266.532.045-.044.09-.888-.266-.532z"/><path style="stroke:none;fill:#d29bd2" d="M11.2 241.6v2.4h.8c-.201-1.162-.252-1.402-.8-2.4z"/><path style="stroke:none;fill:#ebd2eb" d="M398.666 242.134c-.044.044-.088.888.268.532.044-.044.088-.888-.268-.532z"/><path style="stroke:none;fill:#dfb8df" d="M224 242.4v2.4h.8c-.201-1.161-.252-1.402-.8-2.4z"/><path style="stroke:none;fill:#b485b5" d="M397.6 244v2.4h.8c-.201-1.162-.252-1.402-.8-2.4z"/><path style="stroke:none;fill:#dfb8df" d="M12.267 246.934c-.045.044-.09.888.266.532.045-.044.09-.888-.266-.532z"/><path style="stroke:none;fill:#8a398d" d="M225.066 247.734c-.044.044-.088.888.268.532.044-.044.088-.888-.268-.532z"/><path style="stroke:none;fill:#bd9ac0" d="M396.8 248v2.4h.8c-.201-1.162-.252-1.402-.8-2.4z"/><path style="stroke:none;fill:#9f679f" d="M224.8 248.8v2.4h.8c-.201-1.162-.252-1.402-.8-2.4z"/><path style="stroke:none;fill:#d29bd2" d="M13.067 250.134c-.045.044-.09.888.266.532.045-.044.09-.888-.266-.532z"/><path style="stroke:none;fill:#bd9ac0" d="M224.8 251.2v2.4h.8c-.201-1.162-.252-1.402-.8-2.4z"/><path style="stroke:none;fill:#dfb8df" d="M396.266 252.534c-.044.044-.088.888.268.532.044-.044.088-.888-.268-.532z"/><path style="stroke:none;fill:#d29bd2" d="M13.867 253.334c-.045.044-.09.888.266.532.045-.044.09-.888-.266-.532z"/><path style="stroke:none;fill:#ebd2eb" d="M225.066 254.134c-.044.044-.088.888.268.532.044-.044.088-.888-.268-.532z"/><path style="stroke:none;fill:#dfb8df" d="M395.466 255.734c-.044.044-.088.888.268.532.044-.044.088-.888-.268-.532z"/><path style="stroke:none;fill:#ebd2eb" d="M14.667 257.334c-.045.044-.09.888.266.532.045-.044.09-.888-.266-.532z"/><path style="stroke:none;fill:#924792" d="M225.6 257.6v2.4h.8c-.201-1.162-.252-1.402-.8-2.4z"/><path style="stroke:none;fill:#ebd2eb" d="M394.666 258.934c-.044.044-.088.888.268.532.044-.044.088-.888-.268-.532z"/><path style="stroke:none;fill:#dfb8df" d="M15.467 259.734c-.045.044-.09.888.266.532.045-.044.09-.888-.266-.532z"/><path style="stroke:none;fill:#aa7aaa" d="M225.866 260.534c-.044.044-.088.888.268.532.044-.044.088-.888-.268-.532z"/><path style="stroke:none;fill:#b485b5" d="m393.6 260.8.8.8-.8-.8z"/><path style="stroke:none;fill:#bd9ac0" d="M225.6 261.6v2.4h.8c-.201-1.162-.252-1.402-.8-2.4z"/><path style="stroke:none;fill:#dfb8df" d="m393.6 261.6.8.8-.8-.8z"/><path style="stroke:none;fill:#ebd2eb" d="M225.866 264.534c-.044.044-.088.888.268.532.044-.044.088-.888-.268-.532m-208.8.8c-.044.044-.088.888.267.532.045-.044.09-.888-.266-.532z"/><path style="stroke:none;fill:#bd9ac0" d="m392 265.6.8.8-.8-.8z"/><path style="stroke:none;fill:#ebd2eb" d="M17.867 267.734c-.045.044-.09.888.266.532.045-.044.09-.888-.266-.532z"/><path style="stroke:none;fill:#8a398d" d="M226.666 267.734c-.044.044-.088.888.268.532.044-.044.088-.888-.268-.532z"/><path style="stroke:none;fill:#7b2b7b" d="M388 267.2c-3.479 4.048-8.937 5.131-13.528 7.611-12.114 6.543-25.538 12.776-39.343 15.382-7.635 1.441-17.069 1.61-23.79 5.978-7.602 4.941-7.767 16.653-9.468 24.629-4.568 21.415-17.667 40.378-18.671 62.4 8.028-.6 14.079-9.161 18.463-15.2C315.946 348.327 316 324.803 316 301.6c19.198-.053 43.289-5.139 59.2-16.164 6.257-4.335 13.952-10.046 14.4-18.236H388z"/><path style="stroke:none;fill:#b485b5" d="m391.2 267.2.8.8-.8-.8z"/><path style="stroke:none;fill:#ebd2eb" d="M391.466 268.534c-.044.044-.088.888.268.532.044-.044.088-.888-.268-.532z"/><path style="stroke:none;fill:#9f679f" d="M226.666 269.334c-.044.044-.088.888.268.532.044-.044.088-.888-.268-.532z"/><path style="stroke:none;fill:#cfcfcf" d="M390.4 268.8c-15.299 26.853-47.507 28.604-74.4 33.6 1.431 33.335-5.002 63.941-34.4 84v.8c5.267-1.517 10.146-4.298 15.2-6.4 2.013-7.198 10.85-11.126 15.098-16.843 16.851-22.682 36.925-43.321 56.591-63.521 5.873-6.034 12.245-20.354 20.311-22.836.932-2.866 2.475-5.84 1.6-8.8z"/><path style="stroke:none;fill:#d29bd2" d="m18.4 269.6.8.8-.8-.8z"/><path style="stroke:none;fill:#b485b5" d="M226.4 270.4v2.4h.8c-.201-1.162-.252-1.402-.8-2.4z"/><path style="stroke:none;fill:#d29bd2" d="m19.2 272 .8.8-.8-.8z"/><path style="stroke:none;fill:#dfb8df" d="M226.4 272.8v2.4h.8c-.201-1.162-.252-1.402-.8-2.4M20 274.4l.8.8-.8-.8z"/><path style="stroke:none;fill:#aa7aaa" d="m385.6 275.2.8.8-.8-.8z"/><path style="stroke:none;fill:#c580c5" d="m20.8 276 .8.8-.8-.8z"/><path style="stroke:none;fill:#bcbbbc" d="M387.2 276.8c-24.414 30.086-51.13 58.582-76.495 87.896-4.644 5.367-10.449 9.447-14.705 15.304 8.535-1.953 16.968-8.819 24-13.833 21.514-15.339 39.975-35.633 53.751-58.167 4.05-6.624 16.191-23.294 13.449-31.2z"/><path style="stroke:none;fill:#924792" d="M227.466 278.134c-.044.044-.088.888.268.532.044-.044.088-.888-.268-.532z"/><path style="stroke:none;fill:#d29bd2" d="m21.6 278.4.8.8-.8-.8z"/><path style="stroke:none;fill:#aa7aaa" d="M227.2 279.2v2.4h.8c-.201-1.162-.252-1.402-.8-2.4z"/><path style="stroke:none;fill:#d29bd2" d="M227.2 281.6v2.4h.8c-.201-1.162-.252-1.402-.8-2.4z"/><path style="stroke:none;fill:#aa7aaa" d="m379.2 281.6.8.8-.8-.8z"/><path style="stroke:none;fill:#dfb8df" d="m23.2 282.4.8.8-.8-.8z"/><path style="stroke:none;fill:#d29bd2" d="m24 284 .8.8-.8-.8z"/><path style="stroke:none;fill:#ebd2eb" d="M227.466 284.534c-.044.044-.088.888.268.532.044-.044.088-.888-.268-.532z"/><path style="stroke:none;fill:#9f679f" d="m376 284 .8.8-.8-.8z"/><path style="stroke:none;fill:#aa7aaa" d="m371.2 287.2.8.8-.8-.8z"/><path style="stroke:none;fill:#924792" d="M228 288v2.4h.8c-.201-1.162-.252-1.402-.8-2.4z"/><path style="stroke:none;fill:#dfb8df" d="m26.4 289.6.8.8-.8-.8z"/><path style="stroke:none;fill:#b485b5" d="M228 290.4v2.4h.8c-.201-1.162-.252-1.402-.8-2.4z"/><path style="stroke:none;fill:#dfb8df" d="m27.2 291.2.8.8-.8-.8z"/><path style="stroke:none;fill:#d29bd2" d="m28 292.8.8.8-.8-.8z"/><path style="stroke:none;fill:#cfcfcf" d="M228.266 293.334c-.044.044-.088.888.268.532.044-.044.088-.888-.268-.532z"/><path style="stroke:none;fill:#bd9ac0" d="M359.734 293.066c-.356.356.488.312.532.268.356-.356-.488-.312-.532-.268z"/><path style="stroke:none;fill:#d29bd2" d="m28.8 294.4.8.8-.8-.8z"/><path style="stroke:none;fill:#bd9ac0" d="M354.934 294.666c-.356.356.488.312.532.268.356-.356-.488-.312-.532-.268m-2.4.8c-.356.356.488.312.532.268.356-.356-.488-.312-.532-.268z"/><path style="stroke:none;fill:#dfb8df" d="m29.6 296 .8.8-.8-.8z"/><path style="stroke:none;fill:#b485b5" d="M349.334 296.266c-.356.356.488.312.532.268.356-.356-.488-.312-.532-.268m-3.2.8c-.356.356.488.312.532.268.356-.356-.488-.312-.532-.268z"/><path style="stroke:none;fill:#dfb8df" d="m30.4 297.6.8.8-.8-.8z"/><path style="stroke:none;fill:#924792" d="M229.066 298.134c-.044.044-.088.888.268.532.044-.044.088-.888-.268-.532z"/><path style="stroke:none;fill:#bd9ac0" d="M342.934 297.866c-.356.356.488.312.532.268.356-.356-.488-.312-.532-.268z"/><path style="stroke:none;fill:#9f679f" d="M338.134 298.666c-.356.356.488.312.532.268.356-.356-.488-.312-.532-.268z"/><path style="stroke:none;fill:#bcbbbc" d="M339.734 298.666c-.356.356.488.312.532.268.356-.356-.488-.312-.532-.268z"/><path style="stroke:none;fill:#dfb8df" d="m31.2 299.2.8.8-.8-.8z"/><path style="stroke:none;fill:#aa7aaa" d="M229.066 299.734c-.044.044-.088.888.268.532.044-.044.088-.888-.268-.532z"/><path style="stroke:none;fill:#9f679f" d="M332.8 299.2v.8h2.4c-.998-.548-1.238-.599-2.4-.8m-5.6.8v.8h2.4c-.998-.548-1.238-.599-2.4-.8z"/><path style="stroke:none;fill:#bd9ac0" d="M330.134 300.266c-.356.356.488.312.532.268.356-.356-.488-.312-.532-.268M228.8 300.8v2.4h.8c-.201-1.162-.252-1.402-.8-2.4z"/><path style="stroke:none;fill:#b485b5" d="M322.4 300.8v.8h2.4c-.998-.548-1.238-.599-2.4-.8z"/><path style="stroke:none;fill:#bd9ac0" d="M316 301.6v.8h2.4c-.998-.548-1.238-.599-2.4-.8z"/><path style="stroke:none;fill:#d29bd2" d="m33.6 303.2.8.8-.8-.8z"/><path style="stroke:none;fill:#ebd2eb" d="M228.8 303.2v2.4h.8c-.201-1.162-.252-1.402-.8-2.4z"/><path style="stroke:none;fill:#dfb8df" d="m34.4 304.8.8.8-.8-.8z"/><path style="stroke:none;fill:#aa7aaa" d="M316 306.4v15.2h.8c0-4.721 1.036-10.825-.8-15.2z"/><path style="stroke:none;fill:#c580c5" d="m36 307.2.8.8-.8-.8z"/><path style="stroke:none;fill:#924792" d="M229.6 307.2v2.4h.8c-.201-1.162-.252-1.402-.8-2.4z"/><path style="stroke:none;fill:#dfb8df" d="m36.8 308.8.8.8-.8-.8z"/><path style="stroke:none;fill:#aa7aaa" d="M229.6 309.6v2.4h.8c-.201-1.162-.252-1.402-.8-2.4z"/><path style="stroke:none;fill:#d29bd2" d="m38.4 311.2.8.8-.8-.8z"/><path style="stroke:none;fill:#dfb8df" d="M229.6 312v2.4h.8c-.201-1.162-.252-1.402-.8-2.4z"/><path style="stroke:none;fill:#d29bd2" d="m40 313.6.8.8-.8-.8m135.2 0v.8h2.4c-.998-.548-1.238-.599-2.4-.8z"/><path style="stroke:none;fill:#c580c5" d="M170.134 314.666c-.356.356.488.312.532.268.356-.356-.488-.312-.532-.268z"/><path style="stroke:none;fill:#dfb8df" d="M171.2 314.4v.8h2.4c-.998-.548-1.238-.599-2.4-.8z"/><path style="stroke:none;fill:#d29bd2" d="M165.334 315.466c-.356.356.488.312.532.268.356-.356-.488-.312-.532-.268z"/><path style="stroke:none;fill:#ebd2eb" d="M166.934 315.466c-.356.356.488.312.532.268.356-.356-.488-.312-.532-.268z"/><path style="stroke:none;fill:#d29bd2" d="m41.6 316 .8.8-.8-.8m118.4 0v.8h2.4c-.998-.548-1.238-.599-2.4-.8z"/><path style="stroke:none;fill:#9f679f" d="M230.934 316.266c-.356.356.488.312.532.268.356-.356-.488-.312-.532-.268z"/><path style="stroke:none;fill:#924792" d="M232.534 316.266c-.356.356.488.312.532.268.356-.356-.488-.312-.532-.268z"/><path style="stroke:none;fill:#c580c5" d="M154.934 317.066c-.356.356.488.312.532.268.356-.356-.488-.312-.532-.268z"/><path style="stroke:none;fill:#dfb8df" d="M156.534 317.066c-.356.356.488.312.532.268.356-.356-.488-.312-.532-.268z"/><path style="stroke:none;fill:#ebd2eb" d="M236 316.8v.8h2.4c-.998-.548-1.238-.599-2.4-.8z"/><path style="stroke:none;fill:#d29bd2" d="M238.934 317.066c-.356.356.488.312.532.268.356-.356-.488-.312-.532-.268z"/><path style="stroke:none;fill:#b485b5" d="M240.534 317.066c-.356.356.488.312.532.268.356-.356-.488-.312-.532-.268z"/><path style="stroke:none;fill:#9f679f" d="M241.6 316.8v.8h2.4c-.998-.548-1.238-.599-2.4-.8z"/><path style="stroke:none;fill:#d29bd2" d="M149.6 317.6v.8h2.4c-.998-.548-1.238-.599-2.4-.8z"/><path style="stroke:none;fill:#ebd2eb" d="M246.4 317.6v.8h2.4c-.998-.548-1.238-.599-2.4-.8z"/><path style="stroke:none;fill:#bd9ac0" d="M249.334 317.866c-.356.356.488.312.532.268.356-.356-.488-.312-.532-.268z"/><path style="stroke:none;fill:#b485b5" d="M250.4 317.6v.8h2.4c-.998-.548-1.238-.599-2.4-.8z"/><path style="stroke:none;fill:#d29bd2" d="m43.2 318.4.8.8-.8-.8z"/><path style="stroke:none;fill:#c580c5" d="M144 318.4v.8h2.4c-.998-.548-1.238-.599-2.4-.8z"/><path style="stroke:none;fill:#ebd2eb" d="M146.934 318.666c-.356.356.488.312.532.268.356-.356-.488-.312-.532-.268m109.6 0c-.356.356.488.312.532.268.356-.356-.488-.312-.532-.268z"/><path style="stroke:none;fill:#dfb8df" d="M257.6 318.4v.8h2.4c-.998-.548-1.238-.599-2.4-.8z"/><path style="stroke:none;fill:#b485b5" d="M260.534 318.666c-.356.356.488.312.532.268.356-.356-.488-.312-.532-.268z"/><path style="stroke:none;fill:#9f679f" d="M261.6 318.4v.8h2.4c-.998-.548-1.238-.599-2.4-.8z"/><path style="stroke:none;fill:#d29bd2" d="M139.2 319.2v.8h2.4c-.998-.548-1.238-.599-2.4-.8z"/><path style="stroke:none;fill:#ebd2eb" d="M266.134 319.466c-.356.356.488.312.532.268.356-.356-.488-.312-.532-.268z"/><path style="stroke:none;fill:#dfb8df" d="M267.2 319.2v.8h2.4c-.998-.548-1.238-.599-2.4-.8z"/><path style="stroke:none;fill:#b485b5" d="M269.6 319.2v.8h2.4c-.998-.548-1.238-.599-2.4-.8z"/><path style="stroke:none;fill:#d29bd2" d="M134.934 320.266c-.356.356.488.312.532.268.356-.356-.488-.312-.532-.268z"/><path style="stroke:none;fill:#ebd2eb" d="M136.534 320.266c-.356.356.488.312.532.268.356-.356-.488-.312-.532-.268z"/><path style="stroke:none;fill:#dfb8df" d="m44.8 320.8.8.8-.8-.8z"/><path style="stroke:none;fill:#d29bd2" d="m131.2 320.8.8.8-.8-.8z"/><path style="stroke:none;fill:#cfcfcf" d="M274.4 320.8v2.4h.8c-.201-1.162-.252-1.402-.8-2.4z"/><path style="stroke:none;fill:#c580c5" d="m45.6 321.6.8.8-.8-.8z"/><path style="stroke:none;fill:#d29bd2" d="M130.4 323.2v2.4h.8c-.201-1.162-.252-1.402-.8-2.4z"/><path style="stroke:none;fill:#b485b5" d="M274.666 323.734c-.044.044-.088.888.268.532.044-.044.088-.888-.268-.532z"/><path style="stroke:none;fill:#7b2b7b" d="M275.2 323.2c-.571 4.518-1.405 9.046-1.6 13.6-48.237.006-96.512 2.4-144.8 2.4 6.234 11.066 23.545 7.2 34.4 7.2 24.517 0 49.104-1.306 73.6-1.597 11.579-.137 27.355 2.879 38.369-.85 9.414-3.187 8.881-17.676.031-20.753z"/><path style="stroke:none;fill:#dfb8df" d="m47.2 324 .8.8-.8-.8z"/><path style="stroke:none;fill:#c580c5" d="m48 324.8.8.8-.8-.8z"/><path style="stroke:none;fill:#924792" d="M274.666 325.334c-.044.044-.088.888.268.532.044-.044.088-.888-.268-.532z"/><path style="stroke:none;fill:#dfb8df" d="m49.6 327.2.8.8-.8-.8z"/><path style="stroke:none;fill:#d29bd2" d="M129.866 327.734c-.044.044-.088.888.268.532.044-.044.088-.888-.268-.532z"/><path style="stroke:none;fill:#9f679f" d="M315.466 327.734c-.044.044-.088.888.268.532.044-.044.088-.888-.268-.532z"/><path style="stroke:none;fill:#d29bd2" d="m50.4 328 .8.8-.8-.8z"/><path style="stroke:none;fill:#cfcfcf" d="M273.6 328v2.4h.8c-.201-1.162-.252-1.402-.8-2.4z"/><path style="stroke:none;fill:#ebd2eb" d="M129.866 329.334c-.044.044-.088.888.268.532.044-.044.088-.888-.268-.532z"/><path style="stroke:none;fill:#b485b5" d="M315.466 329.334c-.044.044-.088.888.268.532.044-.044.088-.888-.268-.532z"/><path style="stroke:none;fill:#aa7aaa" d="M273.6 330.4v2.4h.8c-.201-1.162-.252-1.402-.8-2.4z"/><path style="stroke:none;fill:#bcbbbc" d="M315.466 330.934c-.044.044-.088.888.268.532.044-.044.088-.888-.268-.532z"/><path style="stroke:none;fill:#d29bd2" d="m53.6 332 .8.8-.8-.8z"/><path style="stroke:none;fill:#dfb8df" d="M128.8 332v2.4h.8c-.201-1.162-.252-1.402-.8-2.4z"/><path style="stroke:none;fill:#c580c5" d="m54.4 332.8.8.8-.8-.8z"/><path style="stroke:none;fill:#aa7aaa" d="M314.4 333.6v2.4h.8c-.201-1.162-.252-1.402-.8-2.4z"/><path style="stroke:none;fill:#d29bd2" d="M128.266 336.534c-.044.044-.088.888.268.532.044-.044.088-.888-.268-.532z"/><path style="stroke:none;fill:#ebd2eb" d="M229.6 336.8v.8h6.4c-2.09-.878-4.131-.794-6.4-.8z"/><path style="stroke:none;fill:#dfb8df" d="M236 336.8v.8h10.4c-3.167-1.329-6.99-.8-10.4-.8z"/><path style="stroke:none;fill:#b485b5" d="M246.4 336.8v.8h9.6c-2.958-1.242-6.414-.8-9.6-.8z"/><path style="stroke:none;fill:#924792" d="M256 336.8v.8h9.6c-2.958-1.242-6.414-.8-9.6-.8z"/><path style="stroke:none;fill:#dfb8df" d="m58.4 337.6.8.8-.8-.8z"/><path style="stroke:none;fill:#ebd2eb" d="M181.6 337.6v.8h6.4c-2.09-.878-4.132-.794-6.4-.8z"/><path style="stroke:none;fill:#dfb8df" d="M188 337.6v.8h6.4c-2.09-.878-4.132-.794-6.4-.8z"/><path style="stroke:none;fill:#bd9ac0" d="M194.4 337.6v.8h6.4c-2.09-.878-4.131-.794-6.4-.8z"/><path style="stroke:none;fill:#aa7aaa" d="M200.8 337.6v.8h9.6c-2.958-1.242-6.414-.8-9.6-.8z"/><path style="stroke:none;fill:#924792" d="M210.4 337.6v.8h9.6c-2.958-1.242-6.414-.8-9.6-.8z"/><path style="stroke:none;fill:#d29bd2" d="m59.2 338.4.8.8-.8-.8z"/><path style="stroke:none;fill:#ebd2eb" d="M132.8 338.4v.8h6.4c-2.09-.878-4.132-.794-6.4-.8z"/><path style="stroke:none;fill:#dfb8df" d="M139.2 338.4v.8h9.6c-2.958-1.242-6.414-.8-9.6-.8z"/><path style="stroke:none;fill:#b485b5" d="M148.8 338.4v.8h9.6c-2.958-1.242-6.414-.8-9.6-.8z"/><path style="stroke:none;fill:#924792" d="M158.4 338.4v.8h10.4c-3.167-1.329-6.99-.8-10.4-.8z"/><path style="stroke:none;fill:#b485b5" d="M313.866 338.934c-.044.044-.088.888.268.532.044-.044.088-.888-.268-.532z"/><path style="stroke:none;fill:#d29bd2" d="m60 339.2.8.8-.8-.8m.8.8.8.8-.8-.8z"/><path style="stroke:none;fill:#b485b5" d="M313.066 342.134c-.044.044-.088.888.268.532.044-.044.088-.888-.268-.532z"/><path style="stroke:none;fill:#bd9ac0" d="M312.266 345.334c-.044.044-.088.888.268.532.044-.044.088-.888-.268-.532z"/><path style="stroke:none;fill:#c580c5" d="m69.6 348.8.8.8-.8-.8z"/><path style="stroke:none;fill:#d29bd2" d="m70.4 349.6.8.8-.8-.8m.8.8.8.8-.8-.8z"/><path style="stroke:none;fill:#dfb8df" d="m72 351.2.8.8-.8-.8m.8.8.8.8-.8-.8z"/><path style="stroke:none;fill:#aa7aaa" d="m309.6 352 .8.8-.8-.8z"/><path style="stroke:none;fill:#d29bd2" d="m77.6 356 .8.8-.8-.8z"/><path style="stroke:none;fill:#dfb8df" d="m78.4 356.8.8.8-.8-.8z"/><path style="stroke:none;fill:#b485b5" d="m307.2 357.6.8.8-.8-.8z"/><path style="stroke:none;fill:#d29bd2" d="m82.4 360 .8.8-.8-.8z"/><path style="stroke:none;fill:#c580c5" d="m85.6 362.4.8.8-.8-.8z"/><path style="stroke:none;fill:#dfb8df" d="m86.4 363.2.8.8-.8-.8z"/><path style="stroke:none;fill:#9f679f" d="m304 363.2.8.8-.8-.8z"/><path style="stroke:none;fill:#d29bd2" d="m88.8 364.8.8.8-.8-.8z"/><path style="stroke:none;fill:#dfb8df" d="m92 367.2.8.8-.8-.8z"/><path style="stroke:none;fill:#9f679f" d="m300.8 368 .8.8-.8-.8z"/><path style="stroke:none;fill:#d29bd2" d="m94.4 368.8.8.8-.8-.8m2.4 1.6.8.8-.8-.8z"/><path style="stroke:none;fill:#aa7aaa" d="m298.4 371.2.8.8-.8-.8z"/><path style="stroke:none;fill:#dfb8df" d="m99.2 372 .8.8-.8-.8z"/><path style="stroke:none;fill:#9f679f" d="m297.6 372 .8.8-.8-.8z"/><path style="stroke:none;fill:#d29bd2" d="m103.2 374.4.8.8-.8-.8m4 2.4.8.8-.8-.8m1.6.8.8.8-.8-.8z"/><path style="stroke:none;fill:#aa7aaa" d="m289.6 380 .8.8-.8-.8z"/><path style="stroke:none;fill:#dfb8df" d="m114.4 380.8.8.8-.8-.8m1.6.8.8.8-.8-.8m1.6.8.8.8-.8-.8m1.6.8.8.8-.8-.8z"/><path style="stroke:none;fill:#b485b5" d="m285.6 383.2.8.8-.8-.8z"/><path style="stroke:none;fill:#c580c5" d="m123.2 384.8.8.8-.8-.8z"/><path style="stroke:none;fill:#b485b5" d="m283.2 384.8.8.8-.8-.8z"/><path style="stroke:none;fill:#d29bd2" d="m124.8 385.6.8.8-.8-.8z"/><path style="stroke:none;fill:#dfb8df" d="m126.4 386.4.8.8-.8-.8z"/><path style="stroke:none;fill:#b485b5" d="m280.8 386.4.8.8-.8-.8z"/><path style="stroke:none;fill:#dfb8df" d="m128 387.2.8.8-.8-.8z"/><path style="stroke:none;fill:#ebd2eb" d="M280.534 387.466c-.356.356.488.312.532.268.356-.356-.488-.312-.532-.268z"/><path style="stroke:none;fill:#d29bd2" d="m130.4 388 .8.8-.8-.8z"/><path style="stroke:none;fill:#dfb8df" d="m132 388.8.8.8-.8-.8z"/><path style="stroke:none;fill:#d29bd2" d="m134.4 389.6.8.8-.8-.8z"/><path style="stroke:none;fill:#aa7aaa" d="m274.4 389.6.8.8-.8-.8z"/><path style="stroke:none;fill:#bd9ac0" d="m272.8 390.4.8.8-.8-.8z"/><path style="stroke:none;fill:#dfb8df" d="m138.4 391.2.8.8-.8-.8z"/><path style="stroke:none;fill:#b485b5" d="m270.4 391.2.8.8-.8-.8z"/><path style="stroke:none;fill:#dfb8df" d="m140.8 392 .8.8-.8-.8z"/><path style="stroke:none;fill:#aa7aaa" d="m268 392 .8.8-.8-.8z"/><path style="stroke:none;fill:#c580c5" d="M143.734 393.066c-.356.356.488.312.532.268.356-.356-.488-.312-.532-.268z"/><path style="stroke:none;fill:#b485b5" d="m265.6 392.8.8.8-.8-.8z"/><path style="stroke:none;fill:#c580c5" d="M146.134 393.866c-.356.356.488.312.532.268.356-.356-.488-.312-.532-.268z"/><path style="stroke:none;fill:#b485b5" d="m263.2 393.6.8.8-.8-.8z"/><path style="stroke:none;fill:#c580c5" d="M148.534 394.666c-.356.356.488.312.532.268.356-.356-.488-.312-.532-.268z"/><path style="stroke:none;fill:#bd9ac0" d="m260.8 394.4.8.8-.8-.8z"/><path style="stroke:none;fill:#c580c5" d="M151.734 395.466c-.356.356.488.312.532.268.356-.356-.488-.312-.532-.268z"/><path style="stroke:none;fill:#dfb8df" d="M258.134 395.466c-.356.356.488.312.532.268.356-.356-.488-.312-.532-.268z"/><path style="stroke:none;fill:#d29bd2" d="M154.134 396.266c-.356.356.488.312.532.268.356-.356-.488-.312-.532-.268z"/><path style="stroke:none;fill:#ebd2eb" d="M255.734 396.266c-.356.356.488.312.532.268.356-.356-.488-.312-.532-.268z"/><path style="stroke:none;fill:#d29bd2" d="M157.334 397.066c-.356.356.488.312.532.268.356-.356-.488-.312-.532-.268z"/><path style="stroke:none;fill:#bd9ac0" d="M251.734 397.066c-.356.356.488.312.532.268.356-.356-.488-.312-.532-.268z"/><path style="stroke:none;fill:#d29bd2" d="M160.534 397.866c-.356.356.488.312.532.268.356-.356-.488-.312-.532-.268m88 0c-.356.356.488.312.532.268.356-.356-.488-.312-.532-.268z"/><path style="stroke:none;fill:#c580c5" d="M164.534 398.666c-.356.356.488.312.532.268.356-.356-.488-.312-.532-.268z"/><path style="stroke:none;fill:#bd9ac0" d="M244.534 398.666c-.356.356.488.312.532.268.356-.356-.488-.312-.532-.268z"/><path style="stroke:none;fill:#dfb8df" d="M167.2 399.2v.8h2.4c-.998-.548-1.238-.599-2.4-.8z"/><path style="stroke:none;fill:#bd9ac0" d="M240 399.2v.8h2.4c-.998-.548-1.238-.599-2.4-.8z"/><path style="stroke:none;fill:#d29bd2" d="M172 400v.8h2.4c-.998-.548-1.238-.599-2.4-.8z"/><path style="stroke:none;fill:#b485b5" d="M235.734 400.266c-.356.356.488.312.532.268.356-.356-.488-.312-.532-.268z"/><path style="stroke:none;fill:#ebd2eb" d="M237.334 400.266c-.356.356.488.312.532.268.356-.356-.488-.312-.532-.268z"/><path style="stroke:none;fill:#dfb8df" d="M177.334 401.066c-.356.356.488.312.532.268.356-.356-.488-.312-.532-.268z"/><path style="stroke:none;fill:#c580c5" d="M178.934 401.066c-.356.356.488.312.532.268.356-.356-.488-.312-.532-.268z"/><path style="stroke:none;fill:#aa7aaa" d="M228.8 400.8v.8h2.4c-.998-.548-1.238-.599-2.4-.8z"/><path style="stroke:none;fill:#dfb8df" d="M231.734 401.066c-.356.356.488.312.532.268.356-.356-.488-.312-.532-.268m-48 .8c-.356.356.488.312.532.268.356-.356-.488-.312-.532-.268z"/><path style="stroke:none;fill:#d29bd2" d="M184.8 401.6v.8h2.4c-.998-.548-1.238-.599-2.4-.8z"/><path style="stroke:none;fill:#9f679f" d="M220.8 401.6v.8h2.4c-.998-.548-1.238-.599-2.4-.8z"/><path style="stroke:none;fill:#bd9ac0" d="M223.2 401.6v.8h2.4c-.998-.548-1.238-.599-2.4-.8z"/><path style="stroke:none;fill:#ebd2eb" d="M226.134 401.866c-.356.356.488.312.532.268.356-.356-.488-.312-.532-.268z"/><path style="stroke:none;fill:#dfb8df" d="M193.6 402.4v.8h4c-1.415-.623-2.429-.73-4-.8z"/><path style="stroke:none;fill:#bd9ac0" d="M197.6 402.4v.8h16c-4.572-1.918-11.065-.8-16-.8z"/><path style="stroke:none;fill:#ebd2eb" d="M213.6 402.4v.8h4c-1.415-.623-2.429-.73-4-.8z"/></svg>