<svg width="552" height="552" viewBox="0 0 552 552" fill="none" xmlns="http://www.w3.org/2000/svg">
<path d="M0 130C0 58.203 58.203 0 130 0H422C493.797 0 552 58.203 552 130V422C552 493.797 493.797 552 422 552H130C58.203 552 0 493.797 0 422V130Z" fill="white"/>
<path d="M102 384V168C102 148.118 118.118 132 138 132H205.514C212.327 132 218.961 134.174 224.452 138.205L247.048 154.795C252.539 158.826 259.173 161 265.986 161H414C433.882 161 450 177.118 450 197V384C450 403.882 433.882 420 414 420H138C118.118 420 102 403.882 102 384Z" fill="url(#paint0_linear_5497_105462)"/>
<path d="M102 384V168C102 148.118 118.118 132 138 132H205.514C212.327 132 218.961 134.174 224.452 138.205L247.048 154.795C252.539 158.826 259.173 161 265.986 161H414C433.882 161 450 177.118 450 197V384C450 403.882 433.882 420 414 420H138C118.118 420 102 403.882 102 384Z" fill="url(#paint1_radial_5497_105462)"/>
<path fill-rule="evenodd" clip-rule="evenodd" d="M265.986 161H414C433.882 161 450 177.117 450 197V384C450 403.883 433.882 420 414 420H376V232.162C376 216.635 363.365 204.073 347.839 204.162L211.529 204.947C205.659 204.982 199.926 203.17 195.141 199.768L164.786 178.182C160.047 174.811 154.375 173 148.559 173H102V168C102 148.117 118.118 132 138 132H205.514C212.327 132 218.961 134.174 224.452 138.205L247.048 154.795C252.539 158.826 259.173 161 265.986 161Z" fill="url(#paint2_linear_5497_105462)"/>
<defs>
<linearGradient id="paint0_linear_5497_105462" x1="276.25" y1="-13.7704" x2="303.22" y2="365.775" gradientUnits="userSpaceOnUse">
<stop offset="0.988738" stop-color="#6D4AFF"/>
</linearGradient>
<radialGradient id="paint1_radial_5497_105462" cx="0" cy="0" r="1" gradientUnits="userSpaceOnUse" gradientTransform="translate(387.589 5.75312) rotate(116.076) scale(501.829 780.735)">
<stop offset="0.556057" stop-color="#FF62C0" stop-opacity="0"/>
<stop offset="0.994421" stop-color="#FF62C0"/>
</radialGradient>
<linearGradient id="paint2_linear_5497_105462" x1="-15" y1="84" x2="420" y2="562" gradientUnits="userSpaceOnUse">
<stop stop-color="#6D4AFF"/>
<stop offset="0.35934" stop-color="#AE8CFF"/>
<stop offset="1" stop-color="#F8CCFF"/>
</linearGradient>
</defs>
</svg>
