<svg xmlns="http://www.w3.org/2000/svg" width="1024mm" height="1024mm" viewBox="0 0 302.835 165.959"><path d="m-198.563 952.104-30.423-37.317 30.461-37.39c3.85-4.931 2.747-11.818-2.57-15.477-5.323-3.69-12.791-2.744-16.91 2.042v-.008l-26.205 32.117-26.183-32.117v.008c-4.076-4.786-11.59-5.732-16.897-2.042-5.307 3.662-6.416 10.546-2.546 15.478h-.01l30.405 37.39-30.406 37.316h.01c-3.87 4.947-2.76 11.813 2.547 15.487 5.306 3.675 12.821 2.74 16.897-2.054l26.183-32.072 26.168 32.072c4.123 4.793 11.59 5.73 16.912 2.054 5.317-3.674 6.426-10.54 2.568-15.487m-142.816-3.67c-18.547 0-33.587-15.026-33.587-33.574 0-18.532 15.04-33.553 33.587-33.553 18.54 0 33.571 15.021 33.571 33.553 0 18.548-15.03 33.573-33.571 33.573m-98.896 0c-18.544 0-33.594-15.021-33.594-33.566 0-18.539 15.05-33.561 33.594-33.561 18.541 0 33.56 15.022 33.56 33.554 0 18.547-15.019 33.573-33.56 33.573m98.896-89.535c-21.418 0-40.056 12.047-49.443 29.736-9.389-17.689-28.018-29.736-49.451-29.736-12.586 0-24.212 4.163-33.594 11.195v-47.155c-.11-6.09-5.08-10.967-11.194-10.967-6.114 0-11.035 4.878-11.175 10.97V915.8h.012c.493 30.484 25.338 55.044 55.952 55.044 21.433 0 40.062-12.058 49.452-29.73 9.386 17.672 28.025 29.73 49.443 29.73 30.9 0 55.967-25.058 55.967-55.983 0-30.91-25.068-55.962-55.967-55.962" style="fill:#52afe6" transform="translate(497.652 -808.428)"/></svg>