<?xml version="1.0" encoding="utf-8"?>
<!-- Generator: Adobe Illustrator 28.3.0, SVG Export Plug-In . SVG Version: 6.00 Build 0)  -->
<svg version="1.1" id="Layer_1" xmlns="http://www.w3.org/2000/svg" xmlns:xlink="http://www.w3.org/1999/xlink" x="0px" y="0px"
	 viewBox="0 0 95.13 95.13" style="enable-background:new 0 0 95.13 95.13;" xml:space="preserve">
<style type="text/css">
	.st0{fill:#00BDFF;}
	.st1{fill:#ED1E79;}
	.st2{fill:#6DDC00;}
</style>
<g>
	<path class="st0" d="M85.79,8.94l-6.08,3.12c7.41,14.13,2.35,34.78-13.32,49.78C55.05,72.72,40.67,78.6,20.77,78.72v14.17
		c23.38,0,41.11-9.6,54.32-22.52C94.1,51.72,98.7,24.94,85.79,8.94z"/>
	<circle class="st1" cx="11.71" cy="52.66" r="9.68"/>
	<path class="st2" d="M44.53,37.89c5.84-5.72,6.75-14.11,2-18.73s-13.26-3.74-19.1,2s-6.74,14.11-2,18.73S38.7,43.62,44.53,37.89z"
		/>
	<path class="st0" d="M66.94,9.14c-11.2-10.97-33.42-8.65-47.93,5.58c-4.05,4-7.11,8.89-8.94,14.28h4.45
		c1.12-4.22,3.92-8.35,7.52-11.88C32.37,6.98,47.9,5.25,55.87,13.06s6.56,22.52-3.77,32.66c-6.19,6.08-14.44,9.19-21.42,9v12.57
		c11.23-0.54,21.92-4.95,30.26-12.48C75.88,41.02,78.13,20.11,66.94,9.14z"/>
</g>
</svg>
