<svg height="80" viewBox="0 0 80 80" width="80" xmlns="http://www.w3.org/2000/svg"><path d="m74.19944 20.9142425c3.5420621 5.1991354 5.288812 10.5593103 5.7065454 16.3622194 1.3404138 18.6422008-11.8020833 35.2153172-29.8488596 38.1469355-20.805898 3.3798369-39.1747701-11.6970573-41.16135748-31.469028-.66054402-6.5727083-.29385042-13.2615843-.20366361-19.8941215.04707553-3.471076-.28988616-6.5781925-3.30916204-8.8840998-1.43307826-1.0943711-2.61194866-2.5327587-3.8676265-3.8519869-1.20414252-1.2648837-1.98708293-2.68831399-1.19522295-4.49365241.81168126-1.85120728 2.21304548-2.81096328 4.26107883-2.80797184 6.85122405.0099715 13.70244815.00049858 20.55367225-.00049857 6.0256679-.00049857 12.0518314-.05783465 18.0770038.01445866 9.2416699.11068355 17.443714 3.0652363 24.5015749 9.17277446 1.4400157 1.2464364 1.686295 2.0611072.1992038 3.5333978-8.4721089 8.387021-16.8872317 16.8343695-25.2285202 25.3530142-1.4563683 1.4877464-2.2948082 1.2464363-3.5757582-.1027064-2.9637763-3.1220738-6.0444982-6.1324669-9.1034166-9.1618058-1.856758-1.8392415-4.2506726-2.0521329-5.6827598-.5688736-1.4236632 1.4742849-1.1709419 3.8420155.683834 5.71865 4.131745 4.1810462 8.2813291 8.3451408 12.4442926 12.4952753 2.6763679 2.6683709 4.465238 2.6947954 7.1653914-.0079772 9.0702159-9.0785439 18.1047535-18.1934837 27.1591124-27.2884806.6897804-.69252 1.4271319-1.3361797 2.4246376-2.2655227" fill="#0078d6" fill-rule="evenodd"/></svg>