<svg height="80" width="80" xmlns="http://www.w3.org/2000/svg"><path d="M74.2 20.914c3.542 5.2 5.288 10.56 5.706 16.362 1.34 18.643-11.802 35.216-29.849 38.147-20.806 3.38-39.175-11.697-41.161-31.469-.66-6.572-.294-13.261-.204-19.894.047-3.47-.29-6.578-3.31-8.884-1.432-1.094-2.611-2.533-3.867-3.852C.311 10.06-.472 8.636.32 6.831c.812-1.852 2.213-2.811 4.261-2.808 6.851.01 13.703 0 20.554-.001 6.026 0 12.052-.058 18.077.014 9.242.111 17.444 3.066 24.501 9.173 1.44 1.247 1.687 2.061.2 3.534a2297.866 2297.866 0 0 0-25.229 25.353c-1.456 1.487-2.295 1.246-3.576-.103-2.963-3.122-6.044-6.132-9.103-9.162-1.857-1.84-4.25-2.052-5.683-.569-1.423 1.475-1.17 3.842.684 5.719 4.132 4.181 8.281 8.345 12.444 12.495 2.677 2.669 4.466 2.695 7.166-.008 9.07-9.078 18.104-18.193 27.159-27.288.69-.693 1.427-1.336 2.424-2.266" fill="#0078d6" fill-rule="evenodd"/></svg>