<?xml version="1.0" standalone="no"?>
<!DOCTYPE svg PUBLIC "-//W3C//DTD SVG 20010904//EN"
 "http://www.w3.org/TR/2001/REC-SVG-20010904/DTD/svg10.dtd">
<svg version="1.0" xmlns="http://www.w3.org/2000/svg"
 width="1024.000000pt" height="1024.000000pt" viewBox="0 0 1024.000000 1024.000000"
 preserveAspectRatio="xMidYMid meet">
<metadata>
Created by potrace 1.16, written by Peter Selinger 2001-2019
</metadata>
<g transform="translate(0.000000,1024.000000) scale(0.100000,-0.100000)"
fill="#60f95c" stroke="none">
<path d="M0 5120 l0 -5120 5125 0 5125 0 0 5120 0 5120 -5125 0 -5125 0 0
-5120z m5580 3235 c474 -54 870 -167 1297 -370 574 -273 1061 -712 1354 -1221
339 -588 404 -1317 174 -1939 -86 -233 -259 -528 -440 -753 -358 -443 -892
-909 -1630 -1422 -498 -346 -1015 -663 -1209 -740 -146 -59 -236 -63 -282 -13
-39 42 -39 92 -3 305 27 155 34 220 34 333 0 163 -9 189 -87 241 -67 45 -150
70 -328 100 -410 68 -845 211 -1195 393 -155 80 -412 248 -553 360 -126 100
-345 317 -435 431 -89 112 -208 284 -268 388 -144 252 -254 596 -290 911 -17
155 -7 475 21 631 119 674 498 1237 1155 1717 253 185 721 408 1064 507 299
87 525 126 931 160 98 8 563 -4 690 -19z"/>
<path d="M2853 6313 l-23 -22 0 -761 0 -761 25 -24 24 -25 496 0 496 0 24 25
c24 23 25 29 25 165 0 127 -2 142 -20 160 -19 19 -33 20 -360 20 l-340 0 0
603 c0 467 -3 607 -12 620 -11 14 -37 17 -163 19 -143 3 -151 2 -172 -19z"/>
<path d="M4140 6311 c-7 -13 -10 -277 -10 -785 0 -753 0 -766 20 -786 18 -18
33 -20 158 -20 108 0 142 3 160 16 l22 15 0 778 c0 591 -3 780 -12 789 -8 8
-60 12 -170 12 -145 0 -158 -1 -168 -19z"/>
<path d="M4746 6308 c-14 -20 -16 -111 -16 -781 l0 -758 25 -24 c23 -24 29
-25 158 -25 121 0 137 2 161 21 l26 20 0 450 c0 247 3 449 8 449 8 -1 88 -107
310 -412 207 -283 371 -501 390 -515 25 -20 281 -18 310 3 l22 15 0 778 c0
591 -3 780 -12 789 -8 8 -60 12 -168 12 -108 0 -160 -4 -168 -12 -9 -9 -12
-126 -12 -465 0 -255 -4 -453 -9 -453 -5 0 -37 39 -72 88 -34 48 -115 157
-180 242 -64 85 -181 243 -259 350 -78 107 -154 207 -168 223 l-26 27 -152 0
c-147 0 -154 -1 -168 -22z"/>
<path d="M6397 6312 c-16 -17 -17 -86 -17 -783 0 -420 4 -769 8 -775 21 -32
52 -34 539 -34 426 0 491 2 511 16 21 14 22 21 22 168 0 135 -2 155 -18 169
-17 15 -56 17 -355 17 l-337 0 0 130 0 130 339 0 c295 0 342 2 355 16 13 13
16 43 16 169 0 112 -3 156 -12 162 -7 4 -166 10 -353 13 l-340 5 -3 128 -3
127 339 0 c316 0 340 1 355 18 14 16 17 43 17 168 0 103 -4 154 -12 162 -9 9
-139 12 -523 12 -483 0 -513 -1 -528 -18z"/>
</g>
</svg>
