<?xml version="1.0" encoding="UTF-8"?>
<svg id="Layer_2" data-name="Layer 2" xmlns="http://www.w3.org/2000/svg" viewBox="0 0 259.78 259.78">
  <defs>
    <style>
      .cls-1 {
        stroke: #231f20;
        stroke-linecap: round;
        stroke-miterlimit: 10;
        stroke-width: .49px;
      }

      .cls-2 {
        fill: #fff;
      }

      .cls-3 {
        fill: none;
      }
    </style>
  </defs>
  <g id="Layer_1-2" data-name="Layer 1">
    <rect class="cls-3" width="259.78" height="259.78"/>
    <g>
      <circle class="cls-1" cx="129.89" cy="129.89" r="112.65"/>
      <g>
        <path class="cls-2" d="m110.9,137.22c-20.8,9.26-41,18.25-62.11,27.65v-67.09c20.86,13.25,41.16,26.14,62.11,39.44Z"/>
        <path class="cls-2" d="m68.45,100.6c3.91.96,7.87,1.83,11.74,2.93,4.58,1.3,9.09,2.82,14.19,4.42-1.77,2.22-3.33,4.17-4.87,6.11-5.66-2.4-17.27-9.85-21.06-13.46Z"/>
        <path class="cls-2" d="m110.16,113.27c6.55,1.18,12.81,3.16,19.08,3.19,6.09.03,12.19-1.93,18.63-3.08.43,3.94-.34,8.64,4.71,11.58-3.87,2.58-7.2,5.04-10.76,7.06-1.29.73-3.29.91-4.75.52-5.17-1.37-10.21-1.28-15.39-.02-1.63.39-3.79.01-5.3-.78-3.48-1.81-6.71-4.09-10.76-6.63,4.17-3.43,6.13-7.04,4.54-11.84Z"/>
        <path class="cls-2" d="m163.95,107.98c9.29-2.84,18.48-5.65,27.67-8.45.1.22.2.45.31.67-7.43,4.71-14.86,9.42-22.46,14.24-2.12-2.49-3.67-4.29-5.52-6.46Z"/>
        <path class="cls-2" d="m55.77,90.15c-.74-.2-1.4-.72-3.03-1.58h152.66l.15.57c-4.98,1.36-9.96,2.72-14.93,4.1-18.01,4.99-36.01,10-54.02,14.97-5.11,1.41-10.22,1.31-15.36-.11-21.82-6.01-43.65-11.95-65.47-17.95Z"/>
        <path class="cls-2" d="m202.26,169.19c1.14.5,2.24,1.07,4.21,2.02H51.64c7.34-3.22,13.63-5.98,19.92-8.73,16.39-7.18,32.81-14.3,49.16-21.57,5.95-2.64,11.72-2.35,17.52.16,6.69,2.89,13.35,5.83,20.02,8.76,14.67,6.44,29.34,12.9,44,19.36Z"/>
        <path class="cls-2" d="m210.99,98.12v65.37c-4.93-.73-56.71-22.73-62.72-26.7,20.87-12.87,41.52-25.6,62.72-38.67Z"/>
      </g>
    </g>
  </g>
</svg>