<?xml version="1.0" encoding="UTF-8" standalone="no"?>
<!DOCTYPE svg PUBLIC "-//W3C//DTD SVG 1.1//EN" "http://www.w3.org/Graphics/SVG/1.1/DTD/svg11.dtd">
<svg width="100%" height="100%" viewBox="0 0 1024 1024" version="1.1" xmlns="http://www.w3.org/2000/svg" xmlns:xlink="http://www.w3.org/1999/xlink" xml:space="preserve" xmlns:serif="http://www.serif.com/" style="fill-rule:evenodd;clip-rule:evenodd;stroke-linejoin:round;stroke-miterlimit:1.41421;">
    <g transform="matrix(5.68077,0,0,5.68077,-131.915,-132.199)">
        <path d="M156.3,30.1C152.7,30.1 151.2,32.4 149.9,34.7C149.9,34.7 98.2,126.4 96.5,129.5C96.6,129.7 130.6,192.1 130.6,192.1C131.8,194.2 133.6,196.7 137.3,196.7L161.3,196.7C162.7,196.7 163.9,196.2 164.5,195.2C165.1,194.2 165.1,192.8 164.4,191.5L130.5,129.7C130.5,129.6 130.5,129.6 130.5,129.5L183.7,35.5C184.4,34.2 184.4,32.8 183.7,31.8C183.1,30.8 182,30.3 180.5,30.3L156.3,30.3L156.3,30.1Z" style="fill:rgb(176,212,0);fill-rule:nonzero;"/>
        <path d="M55.4,63C54,63 52.8,63.5 52.2,64.5C51.6,65.5 51.6,66.9 52.3,68.2L68.6,96.2C68.6,96.3 68.6,96.3 68.6,96.4L43,141.5C42.3,142.8 42.3,144.2 43,145.2C43.6,146.2 44.7,146.7 46.2,146.7L70.3,146.7C73.9,146.7 75.5,144.3 76.7,142.1C76.7,142.1 101.7,98 102.7,96.3C102.6,96.1 86.1,67.5 86.1,67.5C84.9,65.4 83.1,62.9 79.4,62.9L55.4,62.9L55.4,63Z" style="fill:rgb(0,101,103);fill-rule:nonzero;"/>
    </g>
</svg>
