<svg xmlns="http://www.w3.org/2000/svg" viewBox="0 0 302 302"><defs><style>.a{fill:#0abe51;}.b{fill:#fff;}</style></defs><title>flock</title><path class="a" d="M299.9579,275.2787c-9.41-7.2-21.1238-17-22.276-34.2-.5761-9.2,1.92-19.5,4.4168-27,1.5363-3.5,2.8805-7.1,4.1287-10.7v-.1h0c26.9809-79.3-12.8663-166.4-89.1041-194.5s-159.6768,13.5-186.6577,92.8,12.8663,166.4,89.1041,194.5a141.1855,141.1855,0,0,0,126.4548-14.5c3.8407-1.9,7.1053-3,8.93-2.2a105.1736,105.1736,0,0,0,61.3551,7.3C299.9579,286.0787,309.2716,282.4787,299.9579,275.2787Z" transform="translate(-2.0263)"/><path class="b" d="M105.2347,83.2787h98.3218c9.1216,0,16.515,7.7,16.515,17.2v.7c0,9.5-7.3933,17.2-16.515,17.2H105.2347c-9.1216,0-16.515-7.7-16.515-17.2v-.7C88.72,90.9787,96.1131,83.2787,105.2347,83.2787Z" transform="translate(-2.0263)"/><path class="b" d="M105.2347,135.3787h62.1232c9.1216,0,16.515,7.7,16.515,17.2v.8c0,9.5-7.3933,17.2-16.515,17.2H105.2347c-9.1216,0-16.515-7.7-16.515-17.2v-.8C88.72,143.0787,96.1131,135.3787,105.2347,135.3787Z" transform="translate(-2.0263)"/><path class="b" d="M105.2347,186.5787h11.234c9.1216,0,16.515,7.7,16.515,17.2v.7c0,9.5-7.3933,17.2-16.515,17.2h-11.234c-9.1216,0-16.515-7.7-16.515-17.2v-.7C88.72,194.2787,96.1131,186.5787,105.2347,186.5787Z" transform="translate(-2.0263)"/></svg>
