<svg height="1024" width="1024" xmlns="http://www.w3.org/2000/svg"><g fill="#0d1f33"><path d="M479 85.1c-28.5 3-27.2 2.9-45.2 6-3.5.6-8.3 1.5-10.8 2-2.5.6-6.5 1.5-9 2-12.7 2.8-22.8 5.7-39.5 11.1-11.6 3.8-15 5-18.7 6.9-1 .5-2.2.9-2.8.9s-3.2 1-5.8 2.1c-2.6 1.2-6.3 2.8-8.2 3.6-15.4 6.5-34.8 16.5-50.9 26.2-17.9 10.7-43.5 29-52.6 37.4-1.6 1.5-4.9 4.2-7.2 6-5.5 4.2-41.4 40.4-47.9 48.2-2.7 3.3-5.1 6.2-5.4 6.5-.8.8-6 7.5-12.7 16.5-18.7 25.1-36.3 55.6-48.6 84.5-.8 1.9-2.2 5.1-3 7s-2.3 5.5-3.2 8-2.1 5.4-2.5 6.5c-1.1 2.5-8.3 24.6-10 30.5-.7 2.5-1.6 5.6-2 7-.5 1.4-1.3 4.7-2 7.5-.6 2.7-1.5 6.6-2 8.5s-1.4 6.2-2 9.5-1.5 7.8-2 10-1.4 7.6-2 12-1.5 10.9-2 14.5c-3.1 22.1-4 62.8-1.9 84.5 3.3 34.5 6.7 53.9 15.3 85.8 4.1 14.9 15 45.2 21.3 58.7 4.2 9 13.2 27.3 15.1 30.5.9 1.6 3.4 5.8 5.4 9.3 2.1 3.5 3.8 6.6 3.8 6.8 0 .7 19.8 30.1 23.7 35.2 7.6 10.1 7.3 10.4 7.3-8.2 0-23.7 2.7-41 10.1-63.6 2.6-8 3.9-11.2 9.5-22.3 6.1-12.1 11.4-19.7 20.8-29.5 16.5-17.2 30-23.3 45.7-20.6 15.2 2.6 24.1 6.6 45.4 20.8 8.3 5.4 15.2 10.2 15.5 10.5s1.2 1 2.1 1.6c.9.5 4.4 2.9 7.7 5.3 3.4 2.3 6.6 4.2 7.1 4.2.6 0 1.1.4 1.1 1 0 .5.5 1 1.1 1s2.3.8 3.7 1.9c6.5 4.6 21.3 12.1 23.9 12.1 4.9 0 12.1-14.4 15.3-30.7 1.3-6.3.9-8.3-1.5-8.3-5.5 0-22.8-14.2-31.8-26-2.3-3-5-6.4-5.9-7.4-1-1.1-1.8-2.5-1.8-3.2s-.4-1.4-.8-1.6c-2-.8-11.5-19.1-16.6-31.8-5.3-13.3-7.4-20.2-11.1-37.5-4.8-22-4.6-49.8.4-69.5 6.6-25.9 26.5-51.9 50.9-66.3 23.1-13.7 50-22.6 86-28.7 14.7-2.4 18.8-3.2 21.3-4.2 2.9-1 2.9.2-.1-13.3-6.1-27.9-5.4-49.7 3.2-89.5 6-28 14.6-41.4 33.3-52 11.9-6.8 18.2-10 41-21.4 26.3-13 35.5-18.2 44.5-25 15.6-11.7 24.2-21.2 29.9-33.1 4.2-8.5 5.2-12 7.1-23 .6-3.9 1.6-8.9 2.1-11.2 1.3-6.2 1.2-7-1.8-7.6-1.6-.3-4.6-1-6.8-1.6-3.8-.9-8.8-2.1-18-4.2-14.2-3.2-33.2-6.1-52-8-13.6-1.4-62-1.9-72.5-.8z"/><path d="M671.8 115.6c-.4.3-.2 2 .4 3.7 7.9 25.3 7.7 46-.7 70.2-3.2 9.2-12.9 27.3-16.5 30.5-.3.3-2.1 2.5-4 5s-3.8 4.6-4.2 4.8c-1.4.6-.9 3.3 1 6 1.7 2.5 9.3 17.8 11.3 22.7 1.4 3.6 4.6 13.9 5.8 18.9 2.6 10.7 2.4 33.9-.5 43.3l-.6 2.3h12.9c18.4 0 32.5 2.5 45 8.1 2.4 1.1 4.5 1.9 4.8 1.9.4 0 4.4 2.5 9 5.6 15.9 10.5 26 24.1 32.4 43.4 3.3 10 3.8 12 5.1 19.5.6 3.8 1.6 9.4 2.1 12.4 1.2 7.3 1.2 55.8-.1 67.9-3.1 28.7-3.2 29.6-6.1 47.9-2 12.7-5.8 30.5-10.1 46.8-3.4 12.8-10.6 34.4-14.3 43-.7 1.6-2.1 5-3.1 7.5-2 5.1-13.1 27.2-17 34-3.5 5.9-17.8 26.9-20.1 29.5-1 1.1-3.9 4.5-6.4 7.5-9.1 10.9-22.9 23.3-33.9 30.6-4.8 3.2-13.3 7.4-15 7.4-2.2 0-7.3-3.2-12.6-8.1-5.2-4.7-5.7-4.9-7-3.2-.7 1-1.4 2.2-1.4 2.6 0 .5-1.3 2.8-3 5.2-1.6 2.4-3 4.8-3 5.2 0 .5-.8 1.8-1.7 2.9-1 1-3.5 4.3-5.5 7.3-11.7 16.9-37.8 41.5-53.3 50.1-2.2 1.2-5.1 3-6.5 3.9-3.3 2.3-20.1 10.5-27 13.1-8.9 3.5-23.1 8-31.5 9.9-2.7.7-6.6 1.6-8.5 2.1-1.9.4-6.6 1.3-10.5 2-3.8.6-9.2 1.5-11.8 2.1-2.7.5-6.5.9-8.5.9s-7.2.4-11.6 1c-13.8 1.7-64 3.1-67.8 1.9-4.2-1.4-12-5.1-17.6-8.4-5.3-3.1-22.5-14.6-23.2-15.5-.3-.3-6.3-4.5-13.4-9.3l-12.9-8.6-3.1 1.6c-1.7.9-3.3 1.9-3.6 2.3-.3.3-3.4 2.6-7 5-18.2 12.1-33.5 25.6-42.1 37-6 8-11.2 17.6-10.6 19.4.3.8 3.8 3.8 7.9 6.8 8.3 6.3 34.4 23.8 35.4 23.8.3 0 1.9.9 3.4 2 4.8 3.4 33.2 18.2 43.1 22.4 2.4 1 6.4 2.8 8.9 3.8 2.5 1.1 5.5 2.4 6.8 2.9 1.2.5 3.2 1.3 4.5 1.8 1.2.5 3.8 1.4 5.7 2.1s4.4 1.6 5.5 2c2 .9 8.9 3.1 19.5 6.5 23.7 7.4 52.7 13.2 83 16.6 14.8 1.7 63.8 2.3 77 1 18.9-1.9 37-4.3 45.5-6.1 2.2-.5 6.7-1.4 10-2 7.2-1.4 13.1-2.8 25.3-6 8.5-2.3 27.6-8.2 31.7-10 1.1-.4 3.6-1.3 5.5-2s4.5-1.6 5.8-2.1c1.2-.5 3.2-1.3 4.5-1.8 8.8-3.5 18.7-8 31.2-14.2 13.8-6.8 23.6-12.1 27.5-14.9 1.6-1.1 3.1-2 3.4-2 1 0 30.5-19.9 37.6-25.4 32.5-25 59.9-52.3 84.7-84.6 5.4-7.1 25.3-36.6 25.3-37.6 0-.3.9-1.9 2-3.4 3.5-4.9 18.1-33 22.9-44.1 5.5-12.8 12.9-32.2 15.8-41.4.9-2.8 2.2-7 3-9.5 4-12.1 9.5-35.6 12.4-53 4-23.7 5.4-43 5.4-72.5 0-27.1-.5-36.8-2.6-52.5-3.5-26.6-6.2-39.9-13.3-66.3-3.5-12.7-13-39.6-18.3-51.7-9.4-21.4-21.6-44.9-27.4-53.2-1.1-1.4-1.9-2.9-1.9-3.2 0-1.6-18.9-28.9-26.3-38-1.7-2.1-4.3-5.4-5.7-7.2s-4.3-5.5-6.5-8.3c-5.2-6.5-44.4-45.4-51.5-51.1-3-2.5-5.7-4.7-6-5-.7-.7-7.3-5.8-16.5-12.7-10.6-7.9-20.8-14.7-33.5-22.4-9.4-5.6-13.4-7.8-28.5-15.7-4-2.1-15.7-7.6-22.5-10.5-1.9-.8-5.1-2.2-7.2-3.1-4-1.8-4.2-1.8-5-1z"/><path d="M652.2 142.5c-3.1 14.9-6.3 29.4-8.2 36-.6 2.2-1.5 5.3-1.9 7-.5 1.6-1.6 5.2-2.5 7.8-1 2.7-1.5 5.4-1.2 6 .2.7.5.5.5-.5.1-.9.4-1.8.9-2 .7-.3 4.5-7.9 6.2-12.3 4.6-11.8 7.4-26.8 6.8-36.5-.2-3.6-.5-6.1-.6-5.5zM612 191.3c-8 7.4-38.8 25-55.5 31.7-7.5 3-16.7 7.3-21 9.8-20.4 11.8-27.7 17.4-29.9 22.6-3.2 7.6-6.8 19.5-8.5 28.1-.6 2.7-1.5 7.1-2.1 9.7-1.8 8.2-1.9 8.2 9.8 2.3 13-6.5 16.2-7.9 32.7-14.5 23.5-9.3 30.2-13 38.1-21.2 3.8-4 8.1-8.9 9.4-10.8 1.4-1.9 3.2-4.3 4.1-5.3.9-.9 2.2-3 3-4.5.7-1.5 2.5-4.5 4-6.7 2.2-3.4 11.4-21.9 13.9-28 5.7-13.9 6.2-17.1 2-13.2zM628.5 261.7c-5.7 4.1-8.6 6.4-16.5 13-15.1 12.5-17.6 22.7-9.4 38.6 3.8 7.2 10.8 11.7 18.2 11.7 5.1 0 5.6-.2 10.5-5.3 3.8-3.7 5.8-6.8 7.1-10.7 2.4-7.2 3.2-21.6 1.6-28.9-1.4-6.2-6.9-18.8-8.5-19.5-.6-.2-2 .3-3 1.1zM565.5 298.1c-2.8.6-15.6 5-20 6.9-1.1.4-5.8 2.3-10.5 4-12.5 4.8-31.8 14.4-37.4 18.7-6.4 4.9-8.2 10.4-6.6 20.3 2.7 16.3 6.6 26.1 15.5 38.5 5.8 8.1 21.4 24.4 27.2 28.3 4.4 3.1 9.3 2.8 17.2-1 5.6-2.7 20.6-11.9 22.1-13.7.3-.3 3.4-3.1 7-6.1s9-8 12-11.1c5-5 7.1-8 16.7-23.3 3.1-4.9 3.3-7.6.7-7.6-2.2 0-10.4-4-16.5-8.1-6.6-4.5-12.6-11-15.7-17.1-2.6-5.2-6.2-16.4-6.2-19.2 0-1.2-.6-3.9-1.3-6.1-1.1-3.9-1.4-4.1-4.2-3.4zM699.6 358.5c-.9 1.3-1.6 2.9-1.6 3.5s-.4 1.8-.9 2.8c-3.1 6.2-4.4 25.7-2.1 32.6 8.8 27 12.6 38.1 19.9 58.1 3.9 10.8 13 38.4 15.1 46 4.4 15.7 6.1 22.7 8.7 34.7 1 4.9 2.3 8.8 2.9 8.8s1.4-2.1 1.7-4.8c.3-2.6 1.1-7.9 1.7-11.7 1.9-12.2 2.8-21.4 4-41.5 1.4-22 .7-61.8-1-69.5-6.1-25.9-13-40.7-24.4-52.1-7-6.9-11.6-9.4-17.5-9.4-4.1 0-5.1.4-6.5 2.5z"/><path d="M667 362.7c-4.1 1.5-8.9 3.9-12.7 6.5-2.3 1.5-4.4 2.8-4.8 2.8-.5 0-4.6 2.8-8.4 5.7-8.3 6.4-15.4 12.2-19.1 15.6-2.5 2.3-7 6.2-10 8.7s-5.7 4.7-6 5.1c-.3.3-3.6 2.9-7.5 5.7-3.8 2.8-7.4 5.5-8 6-9.9 8-30.6 19.3-42.9 23.3-6 1.9-7.3 2-11 .9-5-1.5-13-5.2-13.4-6.3-.2-.4-.8-.7-1.3-.7-1.9 0-13.9-10-23.8-19.9l-10.5-10.3-9 1.1c-10.3 1.4-19.1 2.8-25.3 4.2-16.4 3.6-22.4 5-25.3 5.9-1.4.4-4.5 1.3-7 2-5.7 1.6-15.9 4.9-18.5 6-1.1.4-3.6 1.4-5.5 2-4.6 1.7-24.4 11.1-25 11.9-.3.4-2.1 1.8-4 3-1.9 1.3-7.1 6-11.5 10.5-12.2 12.3-16.3 22-19 45-4.5 37.1 11.9 89.2 35.6 113.6 10.7 11.1 16.1 12.9 32.2 11.1 5.6-.7 12.6-1.6 15.5-2.1 9.4-1.8 16.6-3.1 20.7-4 11.6-2.6 15.1-3.4 28-6.6 7.7-2 15.6-4 17.5-4.4 1.9-.5 5.1-1.3 7-1.9 1.9-.5 7.1-1.9 11.5-3.1s9.5-2.6 11.3-3.1c1.7-.5 4.8-1.4 6.7-1.9 1.9-.6 5.1-1.5 7-2 1.9-.6 5-1.4 6.8-1.9 1.7-.6 4.8-1.4 6.8-1.9 6.9-1.8 7.4-2.5 3.7-5.8-13.6-12.3-37.7-24.2-61.3-30.3-18.9-4.8-49.2-3.7-79 3-10.3 2.3-12.2 2.8-19.5 4.9-4.1 1.3-10.5 2.5-14.1 2.7-6.5.4-6.7.4-8.8-2.5-3.4-4.8-2.8-7.8 2.7-13.1 4.9-4.9 12.3-11 15.1-12.5.9-.5 1.8-1.2 2.1-1.6.7-.9 11.9-8.4 16.6-11.1 8.9-5.1 22.4-11.7 30.4-14.8 4.7-1.8 9.4-3.7 10.5-4.1 4.6-1.9 5.6-2.2 20-6 24.1-6.3 50.3-8.6 70-6 17.9 2.4 32.2 5.1 42 8.1 5.9 1.7 16 5 18 5.9 1.1.4 3.6 1.4 5.5 2.1 8.8 3.2 31 13.8 39.5 18.9 2.8 1.7 5.7 3.3 6.5 3.7 1.5.7 30.5 19.9 32.5 21.5.5.5 5.1 3.8 10 7.4 5 3.5 9.8 7.1 10.8 7.9.9.8 2.1 1.5 2.5 1.5.5 0 1.7.8 2.8 1.7 2 1.8 3.1 2.5 10.2 6.5 3.8 2.1 4.6 1.7 5.8-3 1.2-4.4-4.4-31.5-11.7-57-.5-1.7-1.3-4.7-1.8-6.5-.5-1.7-1.5-5.2-2.3-7.7s-2.5-7.9-3.8-12c-4.7-15.2-14.8-45.2-17-50.5-.4-1.1-1.8-4.7-3-8s-2.7-7.1-3.2-8.5c-.6-1.4-1.4-3.4-1.9-4.5-1.1-2.6-4.3-13.7-5.8-19.8-1.4-5.9-1.5-33.2-.1-35.8.6-1 .9-1.9.8-1.8-.2 0-1 .3-1.8.6z"/><path d="M492.5 519.6c-4.4.4-17.1 2.4-27.5 4.3l-3.5.7 3.5.6c1.9.4 7.1 1 11.5 1.3 23.7 1.8 48.3 10.9 71.7 26.6 5.1 3.4 9.5 6.5 9.8 6.8s3 2.6 6 5.1c3 2.4 9.6 8.7 14.5 13.9 17.9 18.9 21 21.7 26.7 24.5 10.3 5.1 27.3 6.8 44.3 4.6 12-1.6 20.7-3.1 23.5-4 1.4-.4 4.5-1.3 7-2s5.5-1.7 6.8-2.3c2.1-1 2.1-1.2.5-2-1.7-1-39.6-29.4-45.4-34.1-2.9-2.4-13.8-9.6-14.4-9.6-.4 0-1.9-.8-3.3-1.9-11.9-8.4-37.5-19.8-56.2-25.1-2.5-.7-5.6-1.6-7-2s-5-1.3-8-1.8l-11-2.2c-5.7-1.1-40.6-2.1-49.5-1.4zM563 610.2c-42.1 13.9-58.4 19.4-68 22.8-6.3 2.3-13.5 4.8-16 5.6s-5.4 1.9-6.5 2.3c-1.1.5-3.6 1.4-5.5 2.1s-4.4 1.6-5.5 2-4.5 1.7-7.5 2.8-13.6 5.2-23.6 9.2l-18.1 7.1-1.3 4.2c-.7 2.3-1.6 5.1-2 6.2s-1.4 3.6-2.1 5.5c-2.6 7.3-9.2 19.6-15.1 28.2-6.3 9.3-20.2 24.1-27.3 29.4-2.2 1.6-4.2 3.2-4.5 3.5-1.6 2-22.9 15.1-30.7 18.9-5 2.5-9.2 5-9.2 5.5-.1.6 1.2 1.9 2.9 2.8 1.6 1 3.5 2.3 4.2 3.1.7.7 6.9 5 13.8 9.6s12.7 8.6 13 8.9 1.7 1.2 3.3 2c1.5.8 2.7 1.8 2.7 2.3 0 .4.5.8 1 .8.6 0 4.4 2.2 8.4 5 14.3 9.6 11.9 9 36.9 9 12.2 0 26-.5 30.7-1 29.1-3.6 30-3.7 48.8-8.1 9.5-2.3 29.3-8.7 30.7-10 .5-.5 1.5-.9 2.3-.9 1.4 0 17-7.6 24.9-12.1 21.9-12.4 47.2-37.4 59.5-58.7 9.2-15.8 18.1-38.9 20.8-53.7.7-3.9 1.6-8.3 2.1-9.9s.9-6.9.9-11.7V634h-4.6c-5.5 0-18.1-2.7-24.4-5.2-10-4.1-15.3-7.4-23.9-15.4l-5.6-5zM715 617.7c-9.2 4.2-15.2 6.4-22.5 8.3-10.7 2.9-14.7 3.8-20 4.9-3.3.7-7.6 1.7-9.6 2.2s-4.8.9-6.1.9c-2.3 0-2.6.4-3.2 6.2-3 27.5-5.4 39.8-10 52.8-2.3 6.4-2.1 7.3 2.4 11.4 3.9 3.5 4.2 3.6 6.8 2.2 7.1-3.7 26.5-22.7 35.7-35.1 1.7-2.2 3.3-4.2 3.6-4.5.9-.8 10.4-15.1 13.4-20.1 3.7-6.4 15.8-31 15.4-31.3-.2-.2-2.9.7-5.9 2.1zM245.1 668.8c-5.1 2.4-18.1 15.7-23.8 24.2-10.5 15.7-19.2 38.5-22.2 58-.6 3.6-1.5 9.5-2.1 13.1-1.3 8.8-1.3 31.6.1 43.7 1.1 9.4 1.3 9.9 5.3 14.1 8.3 8.7 20 18.5 20.5 17 .2-.8 3.1-5.5 6.4-10.4 10-15.1 33.8-37.5 51.9-49 2.7-1.7 4.8-3.3 4.8-3.6 0-.4-3.3-3.3-7.2-6.4-4-3.2-10.9-9.5-15.3-14-10.4-10.6-11.2-12.9-9.6-26.5 2.7-24.1.4-57-4.3-61-.7-.5-2.4-.3-4.5.8zM290.5 685.2c-.2.7-.6 5.3-.9 10.3-.4 4.9-1.1 11.9-1.6 15.5-.6 3.6-1.3 9.9-1.6 14.1-.6 7-.4 7.9 1.9 11.6 2.6 4.1 7.5 8.3 9.7 8.3 1.1 0 9.9-4.5 19.5-10 7.5-4.2 17.3-11.3 24.2-17.4l3.2-2.9-5.5-2.8c-8.4-4.4-14.6-7.9-17.6-10-1.4-1.1-2.9-1.9-3.3-1.9-.3 0-3.3-1.8-6.5-4s-6.2-4-6.5-4-3.3-1.8-6.5-4c-6.3-4.2-7.8-4.8-8.5-2.8z"/></g></svg>