<svg version="1.1" viewBox="0 0 100 100" xmlns="http://www.w3.org/2000/svg">
 <defs>
  <style>.st0 {
        fill: #fff;
      }

      .st1 {
        fill: url(#linear-gradient);
      }</style>
  <linearGradient id="linear-gradient" x1="8.79" x2="91.21" y1="8.79" y2="91.21" gradientUnits="userSpaceOnUse">
   <stop stop-color="#00b1e8" offset="0"/>
   <stop stop-color="#00c1a0" offset="1"/>
  </linearGradient>
 </defs>
 <rect class="st1" width="100" height="100" rx="30" ry="30"/>
 <path class="st0" d="m59.05 30.41v40.3c0 5.37-1.34 9.66-4 12.87-2.67 3.21-6.26 5.06-10.77 5.56l-3.9-11.12c4.23-0.64 6.35-4.07 6.35-10.29v-37.32h12.33zm-12.99-12.74c0-1.88 0.66-3.49 1.99-4.81s2.93-1.99 4.81-1.99 3.44 0.66 4.77 1.99 1.99 2.93 1.99 4.81-0.66 3.45-1.99 4.79-2.92 2.01-4.77 2.01-3.49-0.67-4.81-2.01c-1.33-1.34-1.99-2.94-1.99-4.79z"/>
</svg>
