<svg id="svg" version="1.1" xmlns="http://www.w3.org/2000/svg" xmlns:xlink="http://www.w3.org/1999/xlink" width="400" height="400" viewBox="0, 0, 400,400"><g id="svgg"><path id="path0" d="M230.327 0.900 C 230.226 1.609,229.964 1.784,229.090 1.723 C 228.481 1.681,228.086 1.816,228.214 2.023 C 228.342 2.231,228.274 2.400,228.063 2.400 C 227.483 2.400,226.800 4.698,226.800 6.647 C 226.800 8.094,226.692 8.333,226.134 8.119 C 225.687 7.948,225.564 8.017,225.758 8.332 C 225.917 8.589,225.847 8.800,225.603 8.800 C 224.924 8.800,223.917 11.509,223.633 14.100 C 223.615 14.265,223.330 14.400,223.000 14.400 C 222.670 14.400,222.400 14.574,222.400 14.787 C 222.400 15.001,222.672 15.071,223.005 14.943 C 223.436 14.777,223.539 14.894,223.363 15.353 C 223.227 15.706,222.943 15.888,222.731 15.757 C 222.519 15.627,222.245 15.908,222.121 16.382 C 221.988 16.890,221.675 17.161,221.360 17.040 C 221.066 16.927,220.702 17.035,220.551 17.279 C 220.385 17.548,220.459 17.611,220.738 17.438 C 220.992 17.281,221.200 17.343,221.200 17.576 C 221.200 17.809,221.063 18.000,220.896 18.000 C 220.729 18.000,220.575 18.495,220.555 19.100 C 220.534 19.705,220.491 20.965,220.459 21.900 C 220.413 23.227,220.247 23.601,219.700 23.606 C 219.102 23.611,219.087 23.669,219.600 24.000 C 220.109 24.329,220.091 24.389,219.480 24.394 C 218.294 24.404,217.255 27.748,217.215 31.686 C 217.202 32.945,216.973 33.325,215.707 34.186 C 214.886 34.744,214.442 35.200,214.721 35.200 C 215.123 35.200,215.128 35.387,214.746 36.100 C 214.482 36.595,214.295 37.045,214.332 37.100 C 214.933 37.989,214.280 45.984,213.589 46.203 C 211.482 46.872,211.267 48.030,211.230 58.900 C 211.202 66.902,211.144 67.601,210.500 67.614 C 208.093 67.663,208.200 66.709,208.200 88.062 C 208.200 98.766,208.335 107.440,208.500 107.338 C 208.665 107.236,208.801 107.388,208.801 107.676 C 208.802 107.964,209.341 108.560,210.000 109.000 C 210.968 109.646,211.198 110.083,211.199 111.271 C 211.200 112.952,212.038 114.000,213.379 114.000 C 214.188 114.000,215.015 115.535,214.887 116.800 C 214.865 117.011,215.401 117.042,220.733 117.139 C 223.173 117.184,224.023 117.332,223.903 117.692 C 223.374 119.278,226.199 120.332,231.100 120.380 C 233.118 120.399,233.200 120.443,233.206 121.500 C 233.215 123.030,233.586 123.392,235.200 123.449 C 235.970 123.476,237.290 123.521,238.133 123.549 C 239.170 123.584,239.611 123.762,239.494 124.100 C 239.136 125.139,241.011 126.266,243.227 126.345 C 245.745 126.434,245.563 126.307,245.695 128.066 C 245.753 128.842,245.980 129.476,246.200 129.475 C 248.801 129.466,249.080 129.602,249.823 131.250 C 250.232 132.158,250.637 132.690,250.722 132.433 C 250.825 132.125,251.036 132.098,251.344 132.353 C 251.600 132.566,252.523 132.799,253.393 132.870 C 254.903 132.994,254.978 133.065,255.002 134.387 C 255.025 135.645,255.136 135.775,256.213 135.798 C 257.882 135.834,258.507 136.330,258.292 137.451 C 258.131 138.294,258.289 138.437,259.614 138.649 C 261.132 138.891,262.059 140.534,261.336 141.703 C 261.193 141.934,261.266 142.007,261.497 141.864 C 262.514 141.235,264.313 142.066,264.555 143.275 C 264.725 144.124,265.140 144.598,265.997 144.921 C 266.659 145.171,267.223 145.516,267.250 145.688 C 267.581 147.758,268.049 148.400,269.227 148.400 C 270.225 148.400,270.409 148.564,270.461 149.500 C 270.494 150.105,270.544 150.870,270.570 151.200 C 270.599 151.549,270.924 151.747,271.350 151.673 C 271.751 151.604,272.001 151.694,271.904 151.873 C 271.661 152.321,273.061 153.598,273.430 153.267 C 273.594 153.120,273.614 153.315,273.476 153.700 C 273.336 154.091,273.417 154.400,273.659 154.400 C 273.907 154.400,274.011 154.830,273.902 155.400 C 273.797 155.950,273.866 156.400,274.055 156.400 C 274.245 156.400,274.400 156.591,274.400 156.824 C 274.400 157.057,274.175 157.112,273.900 156.947 C 273.503 156.708,273.501 156.771,273.892 157.255 C 274.209 157.646,274.817 157.800,275.592 157.686 C 276.717 157.521,276.800 157.595,276.800 158.767 C 276.800 160.631,277.820 162.735,278.979 163.263 C 279.837 163.654,280.000 163.996,280.000 165.405 C 280.000 167.310,280.689 169.600,281.263 169.600 C 281.474 169.600,281.532 169.787,281.390 170.016 C 281.223 170.286,281.496 170.341,282.166 170.173 L 283.200 169.913 283.200 172.933 C 283.200 174.632,283.386 176.068,283.625 176.215 C 283.858 176.360,284.218 176.921,284.424 177.463 C 284.630 178.005,284.960 178.348,285.157 178.226 C 285.355 178.104,285.627 178.294,285.763 178.647 C 285.939 179.106,285.836 179.223,285.405 179.057 C 285.072 178.929,284.800 178.999,284.800 179.213 C 284.800 179.426,285.070 179.600,285.400 179.600 C 285.820 179.600,286.012 180.051,286.040 181.100 C 286.102 183.451,286.383 186.552,286.583 187.087 C 286.683 187.355,286.593 187.681,286.383 187.811 C 286.172 187.941,286.000 188.227,286.000 188.447 C 286.000 188.667,286.211 188.717,286.468 188.558 C 286.780 188.365,286.853 188.484,286.688 188.914 C 286.506 189.389,286.611 189.494,287.086 189.312 C 287.441 189.175,287.640 189.230,287.529 189.432 C 287.289 189.869,288.629 191.238,288.967 190.900 C 289.095 190.772,289.200 190.898,289.200 191.180 C 289.200 191.496,288.893 191.613,288.399 191.484 C 287.959 191.369,287.700 191.438,287.823 191.637 C 287.946 191.837,288.307 192.000,288.624 192.000 C 289.113 192.000,289.200 193.896,289.200 204.600 C 289.200 216.331,289.152 217.200,288.500 217.206 C 287.902 217.211,287.887 217.269,288.400 217.600 C 288.843 217.886,288.862 217.989,288.471 217.994 C 287.790 218.002,286.802 218.990,286.794 219.671 C 286.789 220.062,286.686 220.043,286.400 219.600 C 286.069 219.087,286.011 219.102,286.006 219.700 C 286.003 220.085,286.202 220.400,286.449 220.400 C 286.735 220.400,286.766 220.582,286.535 220.900 C 285.974 221.674,285.835 239.596,286.381 240.800 C 287.137 242.467,287.884 243.652,288.157 243.617 C 288.299 243.598,288.806 243.947,289.283 244.392 C 289.792 244.865,290.699 245.200,291.475 245.200 C 292.204 245.200,292.764 245.335,292.721 245.500 C 292.395 246.732,293.530 247.866,295.458 248.236 C 296.418 248.420,298.800 250.491,298.800 251.141 C 298.800 251.379,299.341 251.494,300.044 251.405 C 301.030 251.280,301.331 251.415,301.499 252.057 C 301.661 252.677,301.791 252.742,302.049 252.334 C 302.327 251.895,302.389 251.894,302.394 252.329 C 302.402 253.010,303.390 253.998,304.071 254.006 C 304.463 254.011,304.444 254.115,304.000 254.409 C 303.542 254.711,303.685 254.787,304.600 254.729 C 307.697 254.534,308.426 254.741,308.241 255.765 C 308.015 257.009,310.227 257.876,313.909 257.985 C 314.188 257.993,314.613 258.430,314.853 258.956 C 315.418 260.197,316.794 260.800,319.062 260.800 C 320.824 260.800,320.878 260.835,320.627 261.834 C 320.459 262.504,320.514 262.777,320.784 262.610 C 321.013 262.468,321.200 262.526,321.200 262.737 C 321.200 263.337,323.524 264.000,325.629 264.000 C 327.445 264.000,330.386 265.892,330.097 266.875 C 330.053 267.027,330.411 267.075,330.894 266.982 C 332.676 266.639,336.000 267.271,336.006 267.955 C 336.011 268.518,336.062 268.523,336.400 268.000 C 336.686 267.557,336.789 267.538,336.794 267.929 C 336.802 268.610,337.790 269.598,338.471 269.606 C 338.883 269.611,338.875 269.692,338.435 269.970 C 338.060 270.207,338.533 270.318,339.835 270.297 C 344.317 270.227,345.600 270.384,345.600 271.000 C 345.600 271.330,345.774 271.600,345.987 271.600 C 346.201 271.600,346.271 271.328,346.143 270.995 C 345.977 270.564,346.094 270.461,346.553 270.637 C 346.906 270.773,347.107 271.027,346.999 271.202 C 346.253 272.408,351.203 273.524,357.509 273.572 C 361.063 273.599,361.236 273.642,361.672 274.599 C 362.418 276.237,364.023 276.396,379.800 276.396 C 396.430 276.396,397.299 276.290,398.059 274.187 C 398.378 273.304,398.822 272.800,399.280 272.800 C 399.970 272.800,400.000 270.285,400.000 212.400 C 400.000 152.267,399.996 152.000,399.200 152.000 C 398.590 152.000,398.400 151.733,398.400 150.880 C 398.400 149.419,397.736 148.800,396.170 148.800 C 395.084 148.800,394.866 148.629,394.665 147.623 C 394.348 146.042,392.680 145.605,386.950 145.602 L 382.500 145.600 382.265 144.423 C 381.992 143.061,380.319 142.406,377.100 142.402 C 376.017 142.401,375.200 142.216,375.200 141.971 C 375.200 141.343,374.143 140.391,373.810 140.719 C 373.652 140.874,373.586 140.652,373.662 140.226 C 373.779 139.567,373.570 139.455,372.249 139.475 C 371.035 139.493,370.654 139.328,370.494 138.715 C 370.336 138.113,370.211 138.056,369.951 138.466 C 369.673 138.905,369.611 138.906,369.606 138.471 C 369.598 137.790,368.610 136.802,367.929 136.794 C 367.536 136.789,367.555 136.683,368.000 136.382 C 368.476 136.061,368.393 135.992,367.600 136.051 C 364.846 136.254,364.000 136.025,364.000 135.080 C 364.000 133.873,363.285 133.200,362.003 133.200 C 361.178 133.200,360.887 132.934,360.583 131.900 C 360.295 130.923,359.877 130.505,358.900 130.217 C 357.986 129.948,357.598 129.592,357.594 129.017 C 357.585 127.857,357.172 127.376,355.800 126.929 C 355.053 126.685,354.553 126.221,354.476 125.698 C 354.326 124.680,353.541 123.976,352.465 123.895 C 351.631 123.832,351.019 122.136,351.438 121.045 C 351.557 120.735,351.434 120.345,351.165 120.179 C 350.854 119.986,350.779 120.043,350.959 120.334 C 351.141 120.627,351.024 120.707,350.633 120.557 C 350.299 120.429,350.041 120.206,350.060 120.062 C 350.165 119.270,349.916 118.871,349.200 118.684 C 348.555 118.515,348.400 118.138,348.399 116.737 C 348.399 115.229,348.188 114.802,346.799 113.495 C 345.425 112.202,345.199 111.751,345.194 110.295 C 345.191 109.363,345.020 108.335,344.815 108.011 C 344.577 107.634,344.593 107.328,344.861 107.162 C 345.091 107.020,344.568 106.565,343.699 106.152 L 342.118 105.400 341.843 97.344 C 341.366 83.409,341.905 72.416,343.087 71.967 C 343.616 71.766,343.948 71.440,343.826 71.243 C 343.704 71.045,343.894 70.773,344.247 70.637 C 344.706 70.461,344.823 70.564,344.657 70.995 C 344.529 71.328,344.593 71.600,344.797 71.600 C 345.013 71.600,345.166 68.493,345.162 64.177 C 345.154 56.170,344.899 55.200,342.800 55.200 C 342.195 55.200,341.999 54.931,341.994 54.100 C 341.986 52.611,341.459 51.884,340.337 51.811 C 339.706 51.771,339.218 51.345,338.841 50.507 C 338.287 49.273,337.441 48.816,335.690 48.805 C 335.085 48.802,334.650 48.457,334.391 47.776 C 334.177 47.213,333.830 46.858,333.621 46.987 C 333.411 47.117,333.045 46.857,332.806 46.411 C 332.490 45.821,331.968 45.599,330.886 45.597 C 329.663 45.595,329.282 45.388,328.735 44.426 C 328.068 43.253,326.112 42.407,324.057 42.402 C 323.469 42.401,323.186 42.212,323.304 41.900 C 323.674 40.922,321.513 39.406,319.600 39.302 C 317.054 39.163,316.678 38.953,316.900 37.791 C 317.071 36.894,316.932 36.767,315.545 36.545 C 314.390 36.360,314.000 36.109,314.000 35.549 C 314.000 35.137,313.826 34.800,313.613 34.800 C 313.399 34.800,313.329 35.072,313.457 35.405 C 313.623 35.836,313.506 35.939,313.047 35.763 C 312.694 35.627,312.504 35.355,312.626 35.157 C 312.748 34.960,312.387 34.623,311.824 34.409 C 311.261 34.195,310.800 33.835,310.800 33.610 C 310.800 33.384,310.035 33.195,309.100 33.190 C 307.505 33.180,307.354 33.079,306.648 31.550 C 306.235 30.654,305.780 30.109,305.638 30.339 C 305.472 30.607,305.166 30.623,304.789 30.385 C 304.465 30.180,303.525 30.009,302.700 30.006 C 301.522 30.001,301.200 29.845,301.200 29.276 C 301.200 27.578,299.942 26.894,296.700 26.830 C 295.495 26.806,295.200 26.648,295.200 26.029 C 295.200 24.967,294.138 24.000,292.971 24.000 C 292.277 24.000,292.000 23.779,292.000 23.224 C 292.000 22.797,291.837 22.346,291.637 22.223 C 291.438 22.100,291.369 22.359,291.484 22.799 C 291.613 23.293,291.496 23.600,291.180 23.600 C 290.898 23.600,290.772 23.495,290.900 23.367 C 291.217 23.049,289.883 21.682,289.473 21.904 C 289.294 22.001,289.204 21.759,289.273 21.366 C 289.378 20.779,289.125 20.656,287.849 20.675 C 286.635 20.693,286.254 20.528,286.094 19.915 C 285.936 19.313,285.811 19.256,285.551 19.666 C 285.273 20.105,285.211 20.106,285.206 19.671 C 285.196 18.796,284.205 18.076,282.557 17.747 C 281.701 17.576,280.865 17.405,280.700 17.368 C 280.535 17.331,280.216 17.277,279.991 17.250 C 279.767 17.223,279.379 16.753,279.131 16.208 C 278.744 15.359,278.032 14.879,276.700 14.570 C 276.535 14.531,275.680 14.478,274.800 14.450 C 273.424 14.407,273.199 14.274,273.194 13.500 C 273.184 12.065,272.632 11.555,270.826 11.313 C 269.518 11.137,269.054 10.868,268.769 10.119 C 268.567 9.587,268.234 9.255,268.030 9.382 C 267.825 9.508,267.551 9.277,267.422 8.868 C 267.239 8.292,266.848 8.146,265.693 8.220 C 264.088 8.322,262.811 7.688,263.618 7.189 C 264.423 6.691,260.498 5.086,257.857 4.833 C 257.669 4.815,257.600 4.575,257.704 4.300 C 258.003 3.509,255.931 1.806,254.600 1.749 C 253.940 1.720,252.905 1.675,252.300 1.649 C 251.483 1.613,251.200 1.394,251.200 0.800 C 251.200 0.021,250.933 0.000,240.828 0.000 L 230.456 0.000 230.327 0.900 " stroke="none" fill="#5cbcfc" fill-rule="evenodd"></path><path id="path1" d="M169.600 0.800 C 169.600 1.240,169.780 1.600,170.000 1.600 C 170.220 1.600,170.400 1.240,170.400 0.800 C 170.400 0.360,170.220 0.000,170.000 0.000 C 169.780 0.000,169.600 0.360,169.600 0.800 M130.700 8.276 C 130.270 8.388,130.000 8.842,130.000 9.453 C 130.000 10.025,130.173 10.340,130.407 10.196 C 130.630 10.058,130.722 9.798,130.611 9.618 C 130.369 9.226,131.377 8.310,131.697 8.630 C 131.819 8.753,132.039 8.661,132.184 8.427 C 132.451 7.994,131.967 7.945,130.700 8.276 M224.198 8.802 C 223.175 9.932,223.610 10.037,224.686 8.920 C 225.173 8.414,225.426 8.000,225.248 8.000 C 225.070 8.000,224.597 8.361,224.198 8.802 M268.823 9.028 C 269.080 9.338,269.462 9.485,269.672 9.356 C 270.138 9.068,269.792 8.675,268.966 8.554 C 268.484 8.483,268.454 8.583,268.823 9.028 M124.392 11.810 C 124.114 12.145,123.995 12.529,124.129 12.662 C 124.263 12.796,124.192 13.242,123.972 13.653 C 123.701 14.159,123.706 14.400,123.986 14.400 C 124.214 14.400,124.400 14.130,124.400 13.800 C 124.400 13.470,124.760 12.840,125.200 12.400 C 125.640 11.960,126.000 11.510,126.000 11.400 C 126.000 10.952,124.864 11.241,124.392 11.810 M222.000 14.757 C 222.000 15.027,221.832 15.144,221.628 15.017 C 221.423 14.891,221.150 14.957,221.021 15.166 C 220.892 15.374,220.949 15.645,221.148 15.768 C 221.588 16.040,222.618 14.885,222.257 14.524 C 222.116 14.382,222.000 14.487,222.000 14.757 M114.584 17.627 C 114.439 17.861,114.438 18.171,114.582 18.315 C 114.726 18.459,114.969 18.378,115.122 18.135 C 115.275 17.892,115.760 17.603,116.200 17.493 C 116.825 17.337,116.764 17.283,115.924 17.246 C 115.332 17.221,114.729 17.392,114.584 17.627 M177.654 17.720 C 177.922 18.006,178.514 18.266,178.970 18.297 C 179.785 18.352,179.786 18.343,179.024 17.777 C 178.004 17.019,176.960 16.976,177.654 17.720 M108.900 20.665 C 108.625 20.776,108.400 21.002,108.400 21.167 C 108.400 21.659,109.398 21.507,109.933 20.933 C 110.465 20.365,109.966 20.235,108.900 20.665 M104.200 23.978 C 103.760 24.155,103.285 24.234,103.145 24.154 C 103.005 24.074,102.668 24.277,102.396 24.604 C 102.124 24.932,102.020 25.200,102.165 25.200 C 102.310 25.200,102.235 25.560,102.000 26.000 C 101.759 26.450,101.734 26.800,101.943 26.800 C 102.146 26.800,102.422 26.365,102.556 25.834 C 102.728 25.149,103.295 24.691,104.499 24.265 C 105.435 23.934,105.930 23.662,105.600 23.660 C 105.270 23.658,104.640 23.801,104.200 23.978 M180.597 27.196 C 180.753 27.447,180.981 27.553,181.103 27.430 C 181.423 27.110,182.431 28.026,182.189 28.418 C 182.078 28.598,182.184 28.866,182.424 29.015 C 182.711 29.192,182.816 28.892,182.731 28.143 C 182.625 27.221,182.379 26.975,181.457 26.869 C 180.679 26.780,180.405 26.884,180.597 27.196 M86.624 33.639 C 86.728 33.807,86.630 34.058,86.407 34.196 C 86.183 34.334,86.014 34.752,86.032 35.124 C 86.057 35.673,86.105 35.687,86.284 35.200 C 86.405 34.870,86.752 34.315,87.054 33.967 C 87.522 33.427,87.517 33.333,87.019 33.333 C 86.698 33.333,86.520 33.471,86.624 33.639 M312.632 33.548 C 312.360 33.988,313.515 35.018,313.876 34.657 C 314.018 34.516,313.913 34.400,313.643 34.400 C 313.373 34.400,313.256 34.232,313.383 34.028 C 313.509 33.823,313.443 33.550,313.234 33.421 C 313.026 33.292,312.755 33.349,312.632 33.548 M82.679 36.254 C 82.540 36.394,82.057 36.529,81.608 36.554 C 81.158 36.579,80.807 36.760,80.829 36.955 C 80.851 37.151,80.633 37.456,80.346 37.634 C 80.058 37.811,79.955 38.088,80.116 38.249 C 80.277 38.410,80.631 38.252,80.904 37.899 C 81.177 37.545,82.030 36.988,82.800 36.660 C 83.570 36.333,83.915 36.051,83.567 36.033 C 83.218 36.015,82.819 36.114,82.679 36.254 M182.800 36.291 C 182.800 36.467,183.202 36.788,183.693 37.005 C 184.184 37.222,184.787 37.808,185.033 38.307 C 185.709 39.677,186.106 39.930,185.635 38.692 C 185.407 38.091,185.327 37.600,185.459 37.600 C 185.590 37.600,185.470 37.326,185.192 36.990 C 184.914 36.655,184.598 36.469,184.490 36.576 C 184.383 36.684,183.958 36.592,183.547 36.372 C 183.136 36.152,182.800 36.116,182.800 36.291 M70.554 42.977 C 70.432 43.294,70.417 43.879,70.520 44.277 C 70.668 44.850,70.717 44.813,70.754 44.100 C 70.779 43.605,70.980 43.200,71.200 43.200 C 71.420 43.200,71.600 43.020,71.600 42.800 C 71.600 42.189,70.804 42.324,70.554 42.977 M64.667 45.867 C 64.231 46.302,64.359 48.072,64.807 47.796 C 65.030 47.658,65.117 47.390,65.000 47.200 C 64.797 46.872,65.498 46.219,66.067 46.206 C 66.893 46.187,66.764 45.600,65.933 45.600 C 65.383 45.600,64.813 45.720,64.667 45.867 M334.006 45.851 C 333.997 46.526,335.081 47.317,335.371 46.847 C 335.504 46.632,335.430 46.342,335.207 46.204 C 334.983 46.066,334.797 46.098,334.794 46.276 C 334.791 46.454,334.613 46.330,334.400 46.000 C 334.187 45.670,334.009 45.603,334.006 45.851 M58.900 49.065 C 58.625 49.176,58.400 49.625,58.400 50.062 C 58.400 50.785,58.457 50.800,59.029 50.229 C 59.374 49.883,59.824 49.600,60.029 49.600 C 60.233 49.600,60.400 49.420,60.400 49.200 C 60.400 48.781,59.749 48.722,58.900 49.065 M57.400 51.978 C 56.960 52.155,56.477 52.229,56.328 52.143 C 56.030 51.973,55.463 52.734,55.354 53.451 C 55.316 53.698,55.171 54.328,55.032 54.851 C 54.882 55.413,55.068 55.234,55.489 54.411 C 55.880 53.647,56.608 52.819,57.107 52.571 C 58.687 51.784,58.887 51.380,57.400 51.978 M187.192 52.114 C 187.738 52.390,188.410 53.062,188.686 53.608 C 189.036 54.300,189.190 54.395,189.194 53.924 C 189.197 53.552,189.017 53.134,188.793 52.996 C 188.570 52.858,188.508 52.549,188.655 52.311 C 188.809 52.061,188.739 51.991,188.489 52.145 C 188.251 52.292,187.942 52.230,187.804 52.007 C 187.666 51.783,187.248 51.603,186.876 51.606 C 186.405 51.610,186.500 51.764,187.192 52.114 M344.030 72.164 C 343.735 72.520,343.706 72.819,343.953 72.971 C 344.168 73.104,344.458 73.030,344.596 72.807 C 344.734 72.583,344.702 72.397,344.524 72.394 C 344.346 72.391,344.470 72.213,344.800 72.000 C 345.130 71.787,345.197 71.609,344.949 71.606 C 344.701 71.603,344.287 71.854,344.030 72.164 M54.800 74.508 C 54.800 74.804,55.060 75.396,55.377 75.824 C 55.943 76.586,55.952 76.585,55.897 75.770 C 55.831 74.801,54.800 73.614,54.800 74.508 M208.510 109.599 C 208.541 110.009,208.693 110.266,208.849 110.170 C 209.004 110.074,209.212 110.221,209.311 110.498 C 209.410 110.774,209.620 110.880,209.779 110.733 C 209.937 110.587,209.704 110.104,209.260 109.660 C 208.499 108.899,208.457 108.895,208.510 109.599 M346.400 111.400 C 346.400 111.863,348.089 113.242,348.333 112.979 C 348.480 112.820,348.374 112.610,348.098 112.511 C 347.821 112.412,347.714 112.139,347.859 111.904 C 348.016 111.651,347.935 111.593,347.662 111.762 C 347.408 111.919,347.200 111.857,347.200 111.624 C 347.200 111.391,347.020 111.200,346.800 111.200 C 346.580 111.200,346.400 111.290,346.400 111.400 M188.854 112.267 C 188.825 112.743,188.575 113.214,188.300 113.312 C 188.025 113.410,187.938 113.638,188.107 113.819 C 188.613 114.361,189.281 113.360,189.088 112.346 C 188.922 111.467,188.905 111.461,188.854 112.267 M174.454 119.880 C 173.760 120.624,174.804 120.581,175.824 119.823 C 176.586 119.257,176.585 119.248,175.770 119.303 C 175.314 119.334,174.722 119.594,174.454 119.880 M46.176 120.977 C 45.414 121.543,45.415 121.552,46.230 121.497 C 47.199 121.431,48.386 120.400,47.492 120.400 C 47.196 120.400,46.604 120.660,46.176 120.977 M160.200 124.877 C 159.980 125.385,159.590 125.800,159.333 125.800 C 159.077 125.800,158.732 125.935,158.567 126.100 C 158.402 126.265,158.752 126.400,159.346 126.400 C 160.456 126.400,160.969 125.735,160.734 124.600 C 160.631 124.104,160.507 124.168,160.200 124.877 M154.454 127.867 C 154.425 128.343,154.175 128.814,153.900 128.912 C 153.625 129.010,153.538 129.238,153.707 129.419 C 154.213 129.961,154.881 128.960,154.688 127.946 C 154.522 127.067,154.505 127.061,154.454 127.867 M33.526 133.889 C 33.293 134.170,33.210 134.400,33.341 134.400 C 33.473 134.400,33.393 134.891,33.165 135.492 C 32.696 136.725,33.087 136.481,33.767 135.115 C 34.014 134.620,34.662 133.989,35.208 133.712 L 36.200 133.208 35.075 133.293 C 34.456 133.340,33.759 133.608,33.526 133.889 M138.938 139.417 C 138.808 139.757,138.813 140.147,138.951 140.284 C 139.088 140.421,139.200 140.247,139.200 139.896 C 139.200 139.545,139.515 139.176,139.900 139.076 C 140.556 138.904,140.555 138.890,139.887 138.846 C 139.496 138.821,139.068 139.078,138.938 139.417 M23.949 139.900 C 23.472 140.509,23.478 140.540,24.000 140.143 C 24.330 139.892,24.960 139.598,25.400 139.489 C 26.160 139.303,26.157 139.290,25.349 139.246 C 24.881 139.221,24.251 139.515,23.949 139.900 M374.958 140.439 C 375.554 140.907,376.153 141.181,376.288 141.046 C 376.423 140.911,376.323 140.800,376.067 140.800 C 375.810 140.800,375.645 140.600,375.700 140.355 C 375.755 140.110,375.367 139.837,374.837 139.748 C 373.876 139.586,373.876 139.587,374.958 140.439 M15.029 143.029 C 14.453 143.604,14.151 144.800,14.582 144.800 C 14.819 144.800,16.800 142.819,16.800 142.582 C 16.800 142.151,15.604 142.453,15.029 143.029 M131.900 147.667 C 131.308 148.287,131.294 148.400,131.813 148.400 C 132.149 148.400,132.532 148.122,132.662 147.783 C 133.009 146.879,132.698 146.831,131.900 147.667 M125.452 156.210 C 125.323 156.545,124.809 156.992,124.309 157.203 C 123.472 157.557,123.495 157.580,124.600 157.494 C 125.311 157.438,125.759 157.196,125.700 156.900 C 125.645 156.625,125.780 156.400,126.000 156.400 C 126.220 156.400,126.400 156.220,126.400 156.000 C 126.400 155.378,125.713 155.530,125.452 156.210 M120.054 165.467 C 120.025 165.943,119.775 166.414,119.500 166.512 C 119.225 166.610,119.095 166.795,119.212 166.923 C 119.681 167.440,120.459 166.452,120.289 165.555 C 120.123 164.676,120.105 164.669,120.054 165.467 M115.643 175.223 C 114.564 176.122,114.724 176.605,115.970 176.210 C 116.433 176.063,116.800 175.604,116.800 175.173 C 116.800 174.237,116.829 174.236,115.643 175.223 M283.429 178.353 C 283.296 178.568,283.370 178.858,283.593 178.996 C 283.817 179.134,284.003 179.102,284.006 178.924 C 284.009 178.746,284.187 178.870,284.400 179.200 C 284.613 179.530,284.791 179.597,284.794 179.349 C 284.803 178.674,283.719 177.883,283.429 178.353 M112.054 185.480 C 111.360 186.224,112.404 186.181,113.424 185.423 C 114.186 184.857,114.185 184.848,113.370 184.903 C 112.914 184.934,112.322 185.194,112.054 185.480 M112.200 223.893 C 112.640 224.003,113.125 224.292,113.278 224.535 C 113.431 224.778,113.674 224.859,113.818 224.715 C 114.318 224.215,113.547 223.600,112.476 223.646 C 111.636 223.683,111.575 223.737,112.200 223.893 M286.629 243.953 C 286.496 244.168,286.570 244.458,286.793 244.596 C 287.017 244.734,287.203 244.702,287.206 244.524 C 287.209 244.346,287.387 244.470,287.600 244.800 C 287.813 245.130,287.991 245.197,287.994 244.949 C 288.003 244.274,286.919 243.483,286.629 243.953 M107.200 245.800 C 107.200 246.130,106.825 246.775,106.367 247.233 C 105.908 247.692,105.648 248.181,105.788 248.322 C 105.929 248.462,106.189 248.342,106.366 248.054 C 106.544 247.767,106.849 247.549,107.045 247.571 C 107.240 247.593,107.419 247.272,107.443 246.860 C 107.466 246.447,107.612 245.904,107.766 245.654 C 107.921 245.404,107.857 245.200,107.624 245.200 C 107.391 245.200,107.200 245.470,107.200 245.800 M101.232 250.113 C 101.214 250.505,100.795 250.989,100.300 251.188 C 99.691 251.432,99.610 251.557,100.051 251.575 C 100.874 251.607,101.741 250.590,101.469 249.913 C 101.342 249.596,101.251 249.672,101.232 250.113 M295.934 249.951 C 296.228 250.137,296.453 250.404,296.434 250.545 C 296.415 250.685,296.490 250.800,296.600 250.800 C 296.710 250.800,296.912 250.800,297.049 250.800 C 297.186 250.800,297.074 250.530,296.800 250.200 C 296.526 249.870,296.099 249.603,295.851 249.606 C 295.580 249.610,295.613 249.747,295.934 249.951 M97.460 252.988 C 97.336 253.312,96.777 253.691,96.217 253.831 C 95.658 253.972,95.200 254.258,95.200 254.467 C 95.200 254.676,95.404 254.721,95.654 254.566 C 95.904 254.412,96.489 254.259,96.954 254.227 C 97.419 254.194,97.755 253.950,97.700 253.684 C 97.645 253.418,97.780 253.200,98.000 253.200 C 98.220 253.200,98.400 253.020,98.400 252.800 C 98.400 252.188,97.714 252.325,97.460 252.988 M90.400 257.433 C 89.842 257.743,89.665 257.985,90.000 257.981 C 90.330 257.978,90.949 257.710,91.376 257.387 C 92.339 256.659,91.745 256.687,90.400 257.433 M85.400 258.915 C 85.180 259.182,84.950 259.760,84.889 260.200 C 84.780 260.989,84.786 260.990,85.389 260.224 C 86.251 259.128,86.261 257.871,85.400 258.915 M115.029 261.829 C 114.683 262.174,114.400 262.894,114.400 263.429 C 114.400 264.295,114.227 264.400,112.800 264.400 C 111.238 264.400,111.200 264.433,111.200 265.800 L 111.200 267.200 108.629 267.200 C 105.811 267.200,104.800 267.773,104.800 269.372 C 104.800 270.199,104.562 270.311,102.300 270.544 C 99.739 270.809,98.800 271.428,98.800 272.852 C 98.800 273.372,98.414 273.584,97.300 273.676 C 95.881 273.793,95.793 273.881,95.676 275.300 L 95.552 276.800 92.790 276.800 C 89.860 276.800,89.200 277.232,89.200 279.150 C 89.200 279.788,88.893 279.977,87.700 280.076 C 86.285 280.193,86.193 280.284,86.077 281.682 L 85.954 283.165 83.277 283.282 C 80.638 283.398,80.595 283.419,80.217 284.700 C 79.963 285.563,79.585 286.000,79.091 286.000 C 77.685 286.000,76.800 286.778,76.800 288.014 C 76.800 289.003,76.639 289.200,75.829 289.200 C 74.594 289.200,73.600 290.184,73.600 291.404 C 73.600 292.210,73.376 292.370,72.100 292.476 C 70.686 292.593,70.593 292.685,70.477 294.077 C 70.362 295.465,70.265 295.562,68.877 295.677 C 67.485 295.793,67.393 295.886,67.276 297.300 C 67.158 298.719,67.077 298.800,65.776 298.800 C 64.475 298.800,64.400 298.875,64.400 300.176 C 64.400 301.477,64.319 301.558,62.900 301.676 C 61.486 301.793,61.393 301.885,61.277 303.277 C 61.162 304.665,61.065 304.762,59.677 304.877 C 58.289 304.993,58.193 305.089,58.077 306.477 C 57.962 307.865,57.865 307.962,56.477 308.077 C 55.085 308.193,54.993 308.286,54.876 309.700 C 54.759 311.108,54.670 311.200,53.419 311.200 C 52.016 311.200,51.600 311.705,51.600 313.407 C 51.600 314.178,51.363 314.372,50.300 314.475 L 49.000 314.600 48.882 317.500 L 48.765 320.400 47.182 320.400 C 45.607 320.400,45.600 320.407,45.600 321.976 C 45.600 323.508,45.558 323.555,44.100 323.676 C 42.698 323.792,42.592 323.893,42.480 325.223 C 42.378 326.436,42.173 326.701,41.080 327.023 C 39.411 327.515,39.306 328.076,39.247 336.867 C 39.192 345.075,39.219 345.200,41.043 345.200 C 42.360 345.200,42.400 345.248,42.400 346.800 C 42.400 348.396,42.404 348.400,43.976 348.400 C 45.508 348.400,45.555 348.442,45.676 349.900 L 45.800 351.400 48.677 351.517 L 51.554 351.634 51.677 353.117 C 51.796 354.553,51.854 354.604,53.500 354.723 C 54.976 354.830,55.200 354.968,55.200 355.774 C 55.200 357.113,55.967 357.567,58.720 357.855 C 61.092 358.103,61.161 358.143,61.279 359.355 L 61.400 360.600 64.277 360.717 L 67.154 360.834 67.277 362.317 L 67.400 363.800 70.477 363.916 L 73.554 364.033 73.677 365.516 C 73.793 366.916,73.885 367.007,75.300 367.124 C 76.414 367.216,76.800 367.428,76.800 367.948 C 76.800 369.426,77.726 370.005,80.500 370.264 L 83.200 370.516 83.200 371.815 C 83.200 373.376,83.653 373.600,86.807 373.600 L 89.149 373.600 89.275 374.900 L 89.400 376.200 92.500 376.317 L 95.600 376.434 95.600 378.017 C 95.600 379.593,95.607 379.600,97.176 379.600 C 98.708 379.600,98.755 379.642,98.876 381.100 L 99.000 382.600 101.900 382.718 C 104.770 382.834,104.800 382.846,104.800 383.938 C 104.800 385.616,105.480 386.000,108.456 386.000 L 111.152 386.000 111.276 387.500 C 111.393 388.919,111.481 389.007,112.900 389.124 C 114.054 389.220,114.400 389.421,114.400 389.996 C 114.400 391.390,115.505 392.000,118.029 392.000 C 120.158 392.000,120.400 392.084,120.400 392.826 C 120.400 394.774,121.049 395.200,124.014 395.200 L 126.800 395.200 126.800 396.800 L 126.800 398.400 130.000 398.400 C 132.933 398.400,133.200 398.467,133.200 399.200 C 133.200 399.980,133.467 400.000,144.000 400.000 C 154.533 400.000,154.800 399.980,154.800 399.200 C 154.800 398.580,155.067 398.400,155.986 398.400 C 157.247 398.400,158.000 397.512,158.000 396.026 C 158.000 395.477,158.258 395.200,158.771 395.200 C 159.825 395.200,160.800 394.141,160.800 392.996 C 160.800 392.190,161.024 392.030,162.300 391.924 C 163.669 391.811,163.811 391.687,163.925 390.500 C 164.039 389.319,164.172 389.200,165.383 389.200 C 166.777 389.200,167.200 388.693,167.200 387.024 C 167.200 386.204,167.443 386.089,169.659 385.857 C 172.367 385.574,173.090 385.177,173.276 383.871 C 173.386 383.098,173.705 382.978,176.115 382.800 C 178.969 382.590,179.582 382.184,179.594 380.500 C 179.600 379.628,179.723 379.600,183.524 379.600 C 187.775 379.600,188.657 379.270,188.872 377.600 L 189.000 376.600 200.075 376.494 L 211.151 376.387 211.275 377.894 L 211.400 379.400 215.900 379.513 C 220.344 379.625,220.400 379.638,220.400 380.580 C 220.400 382.611,220.691 382.800,223.819 382.800 L 226.752 382.800 226.876 384.300 L 227.000 385.800 230.100 385.917 L 233.200 386.034 233.200 387.617 C 233.200 389.154,233.240 389.200,234.575 389.200 C 235.833 389.200,235.960 389.310,236.075 390.500 C 236.189 391.683,236.333 391.811,237.677 391.923 C 239.065 392.038,239.162 392.135,239.277 393.523 C 239.393 394.915,239.486 395.007,240.900 395.124 C 242.358 395.245,242.400 395.292,242.400 396.824 C 242.400 398.396,242.404 398.400,244.000 398.400 C 245.333 398.400,245.600 398.533,245.600 399.200 C 245.600 399.980,245.867 400.000,256.400 400.000 C 266.933 400.000,267.200 399.980,267.200 399.200 C 267.200 398.477,267.467 398.400,269.986 398.400 C 272.951 398.400,273.600 397.974,273.600 396.026 C 273.600 395.284,273.842 395.200,275.971 395.200 C 278.606 395.200,279.600 394.590,279.600 392.971 C 279.600 392.105,279.773 392.000,281.200 392.000 C 282.762 392.000,282.800 391.967,282.800 390.600 L 282.800 389.200 285.520 389.200 C 288.505 389.200,289.200 388.818,289.200 387.177 C 289.200 386.167,289.325 386.101,291.700 385.856 C 294.273 385.590,295.200 384.972,295.200 383.524 C 295.200 382.946,295.523 382.800,296.800 382.800 C 298.397 382.800,298.400 382.797,298.400 381.217 L 298.400 379.634 301.500 379.517 L 304.600 379.400 304.723 377.917 L 304.846 376.434 307.723 376.317 L 310.600 376.200 310.721 374.956 C 310.840 373.733,310.886 373.708,313.437 373.469 C 316.591 373.175,316.800 373.059,316.800 371.599 C 316.800 370.528,316.921 370.437,318.500 370.323 C 320.146 370.204,320.204 370.153,320.323 368.717 L 320.446 367.234 323.323 367.117 L 326.200 367.000 326.323 365.516 L 326.446 364.033 329.523 363.916 L 332.600 363.800 332.724 362.300 L 332.848 360.800 335.050 360.800 C 337.728 360.800,338.800 360.288,338.800 359.010 C 338.800 358.187,339.017 358.030,340.300 357.924 C 341.715 357.807,341.807 357.716,341.923 356.316 L 342.046 354.833 345.123 354.716 L 348.200 354.600 348.321 353.155 L 348.442 351.710 350.880 351.455 C 353.567 351.174,354.290 350.775,354.476 349.471 C 354.572 348.798,354.918 348.570,355.997 348.467 C 357.578 348.317,357.985 347.876,357.994 346.300 C 357.998 345.482,358.198 345.200,358.771 345.200 C 360.600 345.200,360.800 344.389,360.800 336.971 L 360.800 330.000 359.400 330.000 L 358.000 330.000 358.000 327.429 C 358.000 324.595,357.427 323.600,355.796 323.600 C 354.990 323.600,354.830 323.376,354.724 322.100 C 354.608 320.693,354.511 320.593,353.155 320.479 L 351.710 320.358 351.454 317.879 C 351.191 315.340,350.568 314.400,349.148 314.400 C 348.628 314.400,348.416 314.014,348.324 312.900 C 348.207 311.481,348.119 311.393,346.700 311.276 C 345.292 311.159,345.200 311.070,345.200 309.819 C 345.200 308.416,344.695 308.000,342.991 308.000 C 342.190 308.000,342.030 307.774,341.924 306.500 C 341.811 305.137,341.684 304.989,340.523 304.876 C 339.366 304.764,339.234 304.613,339.123 303.276 C 339.007 301.890,338.910 301.793,337.524 301.677 C 336.187 301.566,336.036 301.434,335.924 300.277 C 335.811 299.116,335.663 298.989,334.300 298.876 C 332.842 298.755,332.800 298.708,332.800 297.176 C 332.800 295.604,332.796 295.600,331.200 295.600 L 329.600 295.600 329.600 294.000 L 329.600 292.400 328.000 292.400 C 326.448 292.400,326.400 292.360,326.400 291.043 C 326.400 289.609,325.904 289.200,324.167 289.200 C 323.415 289.200,323.200 288.988,323.200 288.249 C 323.200 286.884,322.444 286.434,319.659 286.143 L 317.200 285.886 317.200 284.543 C 317.200 283.243,317.149 283.200,315.600 283.200 L 314.000 283.200 314.000 281.600 L 314.000 280.000 312.400 280.000 C 310.973 280.000,310.800 279.895,310.800 279.029 C 310.800 277.410,309.806 276.800,307.171 276.800 C 304.841 276.800,304.800 276.781,304.800 275.680 C 304.800 274.207,304.134 273.600,302.520 273.600 C 301.397 273.600,301.200 273.458,301.200 272.649 C 301.200 271.269,300.339 270.755,297.615 270.508 C 295.201 270.289,295.200 270.288,295.200 268.987 C 295.200 267.424,294.748 267.200,291.593 267.200 L 289.251 267.200 289.125 265.900 L 289.000 264.600 285.900 264.483 L 282.800 264.366 282.800 262.783 L 282.800 261.200 274.229 261.200 C 264.928 261.200,264.400 261.320,264.400 263.429 C 264.400 264.167,264.185 264.401,263.500 264.406 C 262.211 264.415,261.610 264.904,261.254 266.234 C 261.021 267.108,260.649 267.451,259.771 267.603 C 258.791 267.773,258.567 268.034,258.400 269.203 C 258.240 270.322,258.001 270.628,257.200 270.738 C 255.825 270.929,255.200 271.525,255.200 272.649 C 255.200 273.434,254.995 273.600,254.029 273.600 C 252.604 273.600,251.600 274.521,251.600 275.829 C 251.600 276.672,251.416 276.800,250.200 276.800 C 248.836 276.800,248.800 276.840,248.800 278.383 L 248.800 279.966 245.700 280.083 L 242.600 280.200 242.476 281.700 L 242.352 283.200 239.394 283.200 L 236.436 283.200 236.177 284.583 L 235.917 285.967 233.059 286.083 L 230.200 286.200 230.076 287.700 L 229.952 289.200 225.656 289.200 C 220.984 289.200,220.400 289.431,220.400 291.280 L 220.400 292.400 200.000 292.400 L 179.600 292.400 179.600 291.214 C 179.600 289.547,178.681 289.200,174.271 289.200 L 170.489 289.200 170.235 287.844 C 169.922 286.176,169.412 286.013,164.500 286.005 L 160.800 286.000 160.800 284.624 C 160.800 283.323,160.719 283.242,159.300 283.124 C 158.042 283.020,157.779 282.839,157.672 282.000 C 157.481 280.516,156.513 280.000,153.924 280.000 C 151.733 280.000,151.600 279.945,151.600 279.033 C 151.600 277.296,151.191 276.800,149.757 276.800 C 148.595 276.800,148.400 276.663,148.400 275.849 C 148.400 274.456,147.605 274.008,144.646 273.731 L 142.000 273.484 142.000 271.942 C 142.000 270.452,141.954 270.400,140.624 270.400 C 139.323 270.400,139.242 270.319,139.124 268.900 C 139.007 267.486,138.915 267.393,137.524 267.277 C 136.187 267.166,136.036 267.034,135.924 265.877 C 135.811 264.716,135.663 264.589,134.300 264.476 C 132.842 264.355,132.800 264.308,132.800 262.776 L 132.800 261.200 124.229 261.200 C 116.970 261.200,115.561 261.296,115.029 261.829 M78.100 262.656 C 77.048 263.793,76.997 264.000,77.771 264.000 C 78.508 264.000,79.600 262.908,79.600 262.171 C 79.600 261.376,79.152 261.521,78.100 262.656 M326.800 265.600 C 326.800 265.820,326.991 266.000,327.224 266.000 C 327.457 266.000,327.559 266.143,327.451 266.317 C 327.344 266.491,327.591 266.659,328.001 266.690 C 328.717 266.744,328.716 266.716,327.973 265.973 C 327.108 265.108,326.800 265.010,326.800 265.600 M345.934 271.951 C 346.228 272.137,346.453 272.404,346.434 272.545 C 346.415 272.685,346.490 272.800,346.600 272.800 C 346.710 272.800,346.912 272.800,347.049 272.800 C 347.186 272.800,347.074 272.530,346.800 272.200 C 346.526 271.870,346.099 271.603,345.851 271.606 C 345.580 271.610,345.613 271.747,345.934 271.951 M38.600 274.515 C 38.380 274.782,38.150 275.360,38.089 275.800 C 37.980 276.589,37.986 276.590,38.589 275.824 C 39.451 274.728,39.461 273.471,38.600 274.515 " stroke="none" fill="#2c4cfc" fill-rule="evenodd"></path><path id="path2" d="M146.000 0.800 C 146.000 1.392,145.733 1.600,144.974 1.600 C 143.295 1.600,142.400 2.300,142.400 3.614 C 142.400 4.735,142.307 4.803,140.700 4.847 C 137.498 4.936,136.627 5.292,136.400 6.599 C 136.217 7.656,135.990 7.824,134.397 8.082 C 131.095 8.617,130.663 8.781,130.565 9.533 C 130.416 10.684,129.788 11.200,128.537 11.200 C 126.681 11.200,124.865 12.200,124.568 13.386 C 124.366 14.190,124.039 14.379,122.675 14.479 C 121.212 14.586,120.985 14.741,120.670 15.848 C 120.334 17.027,120.183 17.109,117.967 17.309 C 115.499 17.533,114.400 18.214,114.400 19.520 C 114.400 20.172,114.016 20.340,112.000 20.568 C 110.680 20.718,109.600 21.011,109.600 21.220 C 109.600 21.429,109.375 21.555,109.100 21.500 C 108.819 21.444,108.545 21.881,108.473 22.500 C 108.377 23.337,108.132 23.600,107.445 23.600 C 105.517 23.600,102.805 24.841,102.555 25.838 C 102.363 26.603,102.051 26.800,101.037 26.800 C 99.464 26.800,98.800 27.418,98.800 28.880 C 98.800 29.961,98.726 30.001,96.700 30.031 C 92.829 30.087,92.581 30.242,92.431 32.700 C 92.410 33.039,91.649 33.200,90.062 33.200 C 87.611 33.200,86.400 33.905,86.400 35.331 C 86.400 35.772,86.070 36.000,85.433 36.000 C 83.940 36.000,80.901 37.453,80.634 38.294 C 80.479 38.780,79.793 39.181,78.697 39.424 C 77.168 39.763,76.988 39.928,76.875 41.100 L 76.749 42.400 74.346 42.400 C 71.743 42.400,71.095 42.770,70.660 44.504 C 70.412 45.492,70.210 45.600,68.616 45.600 C 67.643 45.600,66.734 45.783,66.596 46.007 C 66.458 46.230,66.198 46.322,66.018 46.211 C 65.712 46.022,64.495 47.164,64.689 47.457 C 65.078 48.043,64.109 48.800,62.971 48.800 C 61.093 48.800,58.823 49.969,58.544 51.079 C 58.418 51.584,57.839 52.225,57.258 52.504 C 55.016 53.578,54.722 55.151,54.868 65.276 C 54.970 72.369,55.120 74.504,55.534 74.760 C 55.828 74.941,56.042 75.249,56.011 75.445 C 55.979 75.640,56.368 75.898,56.876 76.018 L 57.800 76.236 57.906 89.118 L 58.011 102.000 57.055 102.000 C 55.484 102.000,55.091 102.946,54.885 107.215 L 54.693 111.200 53.537 111.200 C 52.145 111.200,51.600 112.309,51.600 115.143 C 51.600 116.932,51.529 117.055,50.300 117.417 C 49.169 117.750,48.984 117.995,48.876 119.300 C 48.779 120.475,48.584 120.800,47.976 120.800 C 47.549 120.800,47.200 120.980,47.200 121.200 C 47.200 121.420,46.991 121.555,46.735 121.500 C 46.152 121.374,45.692 122.888,45.640 125.100 C 45.603 126.686,45.525 126.800,44.480 126.800 C 43.864 126.800,43.144 127.016,42.880 127.280 C 42.616 127.544,42.400 128.264,42.400 128.880 C 42.400 129.893,42.267 130.000,41.000 130.000 C 40.230 130.000,39.578 130.180,39.550 130.400 C 39.523 130.620,39.455 130.980,39.400 131.200 C 39.345 131.420,39.278 131.960,39.250 132.400 C 39.210 133.048,38.915 133.201,37.700 133.206 C 35.815 133.213,34.354 133.938,33.740 135.170 C 33.415 135.821,32.849 136.169,31.953 136.267 C 30.507 136.425,30.015 136.939,30.006 138.300 C 30.001 139.042,29.771 139.205,28.700 139.228 C 24.990 139.306,24.173 139.634,23.867 141.166 L 23.620 142.400 20.710 142.401 C 17.529 142.403,15.493 143.246,15.013 144.760 C 14.775 145.510,14.380 145.584,10.077 145.688 L 5.400 145.800 5.029 147.300 C 4.715 148.571,4.494 148.800,3.579 148.800 C 2.986 148.800,1.937 148.913,1.250 149.050 L 0.000 149.300 0.000 211.450 C 0.000 271.718,0.022 273.600,0.742 273.600 C 1.236 273.600,1.609 274.034,1.857 274.900 L 2.230 276.200 18.942 276.304 C 35.099 276.405,38.312 276.230,38.100 275.258 C 38.045 275.006,38.180 274.800,38.400 274.800 C 38.620 274.800,38.800 274.530,38.800 274.200 C 38.800 273.709,39.510 273.596,42.700 273.577 C 49.845 273.535,51.200 273.187,51.200 271.395 C 51.200 270.517,51.338 270.484,55.619 270.337 C 60.281 270.178,60.781 269.966,60.794 268.144 C 60.800 267.332,61.021 267.281,65.172 267.139 C 70.052 266.972,69.989 266.996,70.112 265.256 L 70.200 264.002 73.200 263.999 C 76.484 263.997,78.502 263.170,78.991 261.628 C 79.205 260.955,79.604 260.793,81.127 260.760 C 83.494 260.710,85.029 260.264,84.900 259.665 C 84.845 259.409,84.980 259.200,85.200 259.200 C 85.420 259.200,85.600 258.956,85.600 258.657 C 85.600 258.286,86.381 258.032,88.059 257.857 C 90.767 257.574,91.490 257.177,91.676 255.871 C 91.759 255.285,92.127 254.959,92.800 254.876 C 94.847 254.622,97.247 253.462,97.762 252.478 C 98.094 251.845,98.693 251.437,99.402 251.361 C 100.805 251.211,101.264 250.757,101.340 249.440 C 101.392 248.544,101.581 248.401,102.713 248.400 C 104.760 248.400,106.733 247.406,107.029 246.226 C 107.238 245.393,107.526 245.200,108.563 245.200 C 110.136 245.200,110.800 244.582,110.800 243.120 C 110.800 242.413,111.021 241.982,111.400 241.950 C 112.144 241.888,112.413 241.813,113.314 241.417 C 113.969 241.130,114.025 240.425,113.983 233.091 C 113.934 224.556,113.889 224.360,111.896 223.860 L 110.800 223.585 110.800 204.592 C 110.800 185.867,110.811 185.600,111.600 185.600 C 112.040 185.600,112.400 185.420,112.400 185.200 C 112.400 184.980,112.605 184.845,112.855 184.900 C 113.526 185.048,113.866 183.420,113.964 179.600 C 114.012 177.730,114.232 176.136,114.452 176.058 C 116.202 175.437,116.817 174.180,117.107 170.625 L 117.400 167.049 118.650 166.726 C 120.002 166.377,120.400 165.388,120.400 162.375 C 120.400 160.948,120.483 160.843,121.700 160.725 C 122.868 160.613,123.038 160.430,123.371 158.928 C 123.612 157.843,124.000 157.189,124.476 157.064 C 125.335 156.840,126.400 154.525,126.400 152.883 C 126.400 151.896,126.603 151.691,127.900 151.371 C 129.182 151.054,129.417 150.822,129.520 149.777 C 129.616 148.790,129.886 148.482,130.920 148.177 C 131.857 147.901,132.298 147.469,132.565 146.565 C 132.827 145.674,133.274 145.227,134.165 144.965 C 135.173 144.667,135.423 144.361,135.525 143.300 C 135.626 142.257,135.828 142.000,136.549 142.000 C 137.783 142.000,138.718 141.194,138.872 140.000 C 138.964 139.278,139.278 138.964,140.000 138.872 C 141.169 138.722,142.000 137.788,142.001 136.624 C 142.001 135.984,142.285 135.780,143.271 135.711 C 144.658 135.613,145.184 135.070,145.194 133.724 C 145.199 133.002,145.463 132.826,146.700 132.724 C 148.119 132.607,148.207 132.519,148.324 131.100 L 148.448 129.600 150.853 129.600 C 153.457 129.600,154.105 129.230,154.540 127.496 C 154.770 126.578,155.042 126.392,156.208 126.350 C 157.553 126.302,158.180 126.210,158.600 126.000 C 158.710 125.945,159.020 125.878,159.288 125.850 C 159.557 125.822,160.000 125.350,160.274 124.800 C 160.703 123.939,161.178 123.744,163.686 123.400 C 166.556 123.006,166.602 122.981,166.721 121.753 L 166.843 120.507 170.665 120.307 C 173.042 120.183,174.601 119.923,174.788 119.619 C 174.954 119.351,175.249 119.158,175.445 119.189 C 175.640 119.221,175.898 118.832,176.017 118.324 C 176.222 117.452,176.474 117.385,180.499 117.135 C 185.411 116.829,185.600 116.756,185.600 115.176 C 185.600 114.180,185.757 114.000,186.629 114.000 C 189.123 114.000,189.000 115.599,189.000 83.170 C 189.000 50.889,189.081 52.000,186.738 52.000 C 186.064 52.000,185.998 51.591,185.971 47.300 C 185.926 39.804,185.481 37.789,183.698 37.005 C 182.861 36.637,182.800 36.361,182.800 32.929 C 182.800 30.866,182.621 29.137,182.393 28.996 C 182.170 28.858,182.078 28.598,182.189 28.418 C 182.300 28.238,182.096 27.845,181.734 27.545 C 181.373 27.245,181.060 27.057,181.039 27.126 C 181.017 27.195,180.685 27.131,180.300 26.983 C 179.718 26.760,179.593 26.167,179.560 23.457 C 179.516 19.824,179.160 18.150,178.465 18.300 C 178.209 18.355,178.000 18.220,178.000 18.000 C 178.000 17.780,177.640 17.600,177.200 17.600 C 176.505 17.600,176.396 17.323,176.369 15.500 C 176.318 11.948,175.967 11.221,174.300 11.206 C 173.724 11.201,173.599 10.829,173.595 9.100 C 173.586 5.881,173.308 5.257,171.756 4.965 C 170.778 4.782,170.400 4.498,170.400 3.949 C 170.400 3.530,170.176 2.470,169.903 1.594 L 169.405 0.000 157.703 0.000 C 146.267 0.000,146.000 0.018,146.000 0.800 M227.188 2.822 C 226.946 3.274,226.836 3.859,226.942 4.122 C 227.052 4.392,227.151 4.308,227.168 3.929 C 227.186 3.559,227.483 2.974,227.829 2.629 C 228.174 2.283,228.271 2.000,228.043 2.000 C 227.815 2.000,227.430 2.370,227.188 2.822 M261.600 5.484 C 261.930 5.605,262.515 5.979,262.900 6.314 C 263.285 6.650,263.600 6.752,263.600 6.542 C 263.600 5.881,262.673 5.199,261.820 5.232 C 261.243 5.254,261.178 5.329,261.600 5.484 M224.480 8.880 C 224.216 9.144,224.011 9.729,224.025 10.180 C 224.048 10.904,224.097 10.884,224.445 10.011 C 224.662 9.468,225.056 8.885,225.320 8.717 C 225.597 8.541,225.623 8.410,225.380 8.406 C 225.149 8.403,224.744 8.616,224.480 8.880 M268.142 9.381 C 268.724 9.920,269.200 10.550,269.200 10.781 C 269.200 11.011,269.363 11.200,269.563 11.200 C 270.190 11.200,269.539 9.602,268.661 8.988 C 267.323 8.051,266.983 8.308,268.142 9.381 M222.139 15.388 C 221.677 15.711,221.197 16.386,221.071 16.888 L 220.841 17.800 221.644 16.827 C 222.085 16.292,222.751 15.623,223.123 15.340 C 224.066 14.623,223.168 14.667,222.139 15.388 M283.909 18.016 C 284.410 18.217,284.983 18.790,285.184 19.291 C 285.443 19.935,285.557 20.004,285.575 19.529 C 285.607 18.664,284.536 17.593,283.671 17.625 C 283.196 17.643,283.265 17.757,283.909 18.016 M290.076 22.113 C 291.561 23.556,291.786 23.615,291.420 22.464 C 291.281 22.025,290.624 21.477,289.960 21.246 L 288.753 20.825 290.076 22.113 M218.300 24.432 C 217.915 24.656,217.611 25.236,217.625 25.720 L 217.651 26.600 218.016 25.691 C 218.217 25.190,218.790 24.617,219.291 24.416 C 219.791 24.215,219.930 24.045,219.600 24.038 C 219.270 24.030,218.685 24.208,218.300 24.432 M306.486 31.100 C 306.821 31.485,307.195 32.070,307.316 32.400 C 307.471 32.822,307.546 32.757,307.568 32.180 C 307.601 31.327,306.919 30.400,306.258 30.400 C 306.048 30.400,306.150 30.715,306.486 31.100 M215.192 33.810 C 214.424 34.735,214.879 34.829,215.944 33.966 C 216.588 33.444,216.699 33.200,216.293 33.200 C 215.966 33.200,215.470 33.474,215.192 33.810 M310.800 33.637 C 310.800 33.837,310.989 34.000,311.219 34.000 C 311.450 34.000,312.080 34.476,312.619 35.058 C 313.692 36.217,313.949 35.877,313.012 34.539 C 312.398 33.661,310.800 33.010,310.800 33.637 M327.454 42.941 C 328.145 43.262,328.909 44.033,329.156 44.661 L 329.605 45.800 329.374 44.600 C 329.088 43.110,328.897 42.918,327.400 42.609 L 326.200 42.360 327.454 42.941 M212.677 45.880 C 211.926 46.075,211.174 47.560,211.236 48.726 C 211.256 49.097,211.444 48.803,211.655 48.073 C 211.921 47.148,212.425 46.577,213.318 46.189 C 214.546 45.655,214.197 45.486,212.677 45.880 M333.441 46.683 C 334.124 47.324,334.774 48.107,334.887 48.424 C 334.999 48.741,335.184 48.910,335.299 48.800 C 335.786 48.332,334.740 46.791,333.521 46.180 L 332.200 45.519 333.441 46.683 M344.033 71.139 C 343.795 71.583,343.241 72.060,342.800 72.200 C 341.741 72.536,341.764 73.187,342.826 72.909 C 343.690 72.683,345.070 70.936,344.687 70.553 C 344.565 70.431,344.270 70.695,344.033 71.139 M342.800 105.484 C 343.130 105.605,343.715 105.979,344.100 106.314 C 344.485 106.650,344.800 106.752,344.800 106.542 C 344.800 105.881,343.873 105.199,343.020 105.232 C 342.443 105.254,342.378 105.329,342.800 105.484 M208.400 108.124 C 208.400 109.011,209.811 110.402,210.700 110.391 C 211.272 110.384,211.221 110.245,210.425 109.633 C 209.889 109.221,209.214 108.561,208.925 108.165 C 208.449 107.513,208.400 107.510,208.400 108.124 M345.871 112.309 C 346.350 112.689,347.112 113.450,347.565 114.000 L 348.388 115.000 347.952 113.692 C 347.524 112.409,346.572 111.591,345.526 111.609 C 345.219 111.614,345.363 111.906,345.871 112.309 M348.400 117.986 C 348.400 118.184,348.760 118.460,349.200 118.600 C 349.640 118.740,350.000 118.987,350.000 119.151 C 350.000 119.314,350.274 119.796,350.610 120.224 C 351.166 120.931,351.173 120.879,350.697 119.641 C 350.226 118.416,348.400 117.100,348.400 117.986 M248.992 130.600 C 249.138 131.260,249.421 131.968,249.622 132.173 C 250.308 132.875,250.240 132.202,249.483 130.800 C 248.735 129.414,248.730 129.412,248.992 130.600 M368.309 136.816 C 368.810 137.017,369.383 137.590,369.584 138.091 C 369.843 138.735,369.957 138.804,369.975 138.329 C 370.007 137.464,368.936 136.393,368.071 136.425 C 367.596 136.443,367.665 136.557,368.309 136.816 M374.535 140.989 C 375.231 141.701,375.869 142.226,375.954 142.155 C 376.293 141.870,374.801 140.094,374.061 139.900 C 373.439 139.737,373.540 139.969,374.535 140.989 M380.600 142.689 C 381.743 142.970,382.327 143.529,382.522 144.529 L 382.691 145.400 382.746 144.529 C 382.815 143.414,381.792 142.387,380.671 142.446 C 379.860 142.490,379.855 142.506,380.600 142.689 M393.000 145.889 C 394.143 146.170,394.727 146.729,394.922 147.729 L 395.091 148.600 395.146 147.729 C 395.215 146.614,394.192 145.587,393.071 145.646 C 392.260 145.690,392.255 145.706,393.000 145.889 M270.400 150.446 C 270.400 151.720,272.199 153.992,273.200 153.982 C 273.670 153.977,273.649 153.888,273.101 153.569 C 272.717 153.345,271.952 152.499,271.401 151.688 C 270.851 150.878,270.400 150.318,270.400 150.446 M277.009 161.800 C 277.318 163.297,277.510 163.488,279.000 163.774 L 280.200 164.005 279.061 163.556 C 278.433 163.309,277.662 162.545,277.341 161.854 L 276.760 160.600 277.009 161.800 M280.025 167.926 C 279.986 168.739,280.772 170.001,281.314 169.994 C 281.690 169.989,281.692 169.919,281.320 169.683 C 281.056 169.515,280.662 168.932,280.445 168.389 C 280.228 167.845,280.039 167.637,280.025 167.926 M283.427 176.800 C 283.677 177.833,284.974 179.200,285.703 179.200 C 285.930 179.200,285.686 178.783,285.158 178.274 C 284.631 177.765,283.971 177.000,283.692 176.574 C 283.223 175.859,283.202 175.876,283.427 176.800 M286.093 186.000 C 286.093 186.770,286.175 187.085,286.276 186.700 C 286.376 186.315,286.376 185.685,286.276 185.300 C 286.175 184.915,286.093 185.230,286.093 186.000 M286.557 188.933 C 286.691 189.336,286.800 189.818,286.800 190.004 C 286.800 190.591,288.029 191.601,288.729 191.588 C 289.324 191.577,289.317 191.528,288.673 191.153 C 288.273 190.920,287.579 190.161,287.130 189.465 C 286.682 188.769,286.424 188.530,286.557 188.933 M287.029 218.229 C 286.683 218.574,286.411 219.159,286.425 219.529 C 286.443 220.004,286.557 219.935,286.816 219.291 C 287.017 218.790,287.590 218.217,288.091 218.016 C 288.735 217.757,288.804 217.643,288.329 217.625 C 287.959 217.611,287.374 217.883,287.029 218.229 M286.093 222.800 C 286.093 223.570,286.175 223.885,286.276 223.500 C 286.376 223.115,286.376 222.485,286.276 222.100 C 286.175 221.715,286.093 222.030,286.093 222.800 M286.695 242.841 C 286.816 243.303,287.474 244.022,288.157 244.439 C 289.840 245.465,290.531 245.398,288.918 244.365 C 288.213 243.914,287.526 243.197,287.391 242.772 C 287.058 241.723,286.419 241.786,286.695 242.841 M296.000 248.880 C 296.000 249.544,297.029 250.547,298.100 250.927 C 298.485 251.063,298.800 251.001,298.800 250.787 C 298.800 250.574,298.611 250.400,298.381 250.400 C 298.150 250.400,297.520 249.924,296.981 249.342 C 296.318 248.626,296.000 248.477,296.000 248.880 M302.025 252.471 C 302.011 252.841,302.283 253.426,302.629 253.771 C 302.974 254.117,303.559 254.389,303.929 254.375 C 304.404 254.357,304.335 254.243,303.691 253.984 C 303.190 253.783,302.617 253.210,302.416 252.709 C 302.157 252.065,302.043 251.996,302.025 252.471 M320.800 262.757 C 320.800 263.312,322.322 264.102,322.922 263.858 C 323.192 263.748,323.108 263.649,322.729 263.632 C 322.359 263.614,321.774 263.317,321.429 262.971 C 321.083 262.626,320.800 262.529,320.800 262.757 M327.213 264.500 C 327.196 265.401,328.595 266.803,329.500 266.791 C 330.096 266.784,330.068 266.680,329.312 266.091 C 328.823 265.711,328.154 265.040,327.825 264.600 C 327.290 263.887,327.224 263.876,327.213 264.500 M336.425 268.071 C 336.411 268.441,336.683 269.026,337.029 269.371 C 337.374 269.717,337.959 269.989,338.329 269.975 C 338.804 269.957,338.735 269.843,338.091 269.584 C 337.590 269.383,337.017 268.810,336.816 268.309 C 336.557 267.665,336.443 267.596,336.425 268.071 M346.000 270.697 C 346.000 271.426,347.367 272.723,348.400 272.973 C 349.324 273.198,349.341 273.177,348.626 272.708 C 348.200 272.429,347.435 271.769,346.926 271.242 C 346.417 270.714,346.000 270.470,346.000 270.697 M361.206 274.471 C 361.198 275.424,362.303 276.407,363.329 276.360 C 364.125 276.324,364.114 276.296,363.203 276.043 C 362.655 275.890,361.983 275.323,361.709 274.783 C 361.364 274.101,361.210 274.005,361.206 274.471 M397.795 274.887 C 397.578 275.375,396.950 275.897,396.400 276.047 C 395.490 276.296,395.479 276.324,396.271 276.360 C 397.250 276.405,398.400 275.439,398.400 274.571 C 398.400 273.779,398.254 273.855,397.795 274.887 " stroke="none" fill="#1c94fc" fill-rule="evenodd"></path><path id="path3" d="M208.140 73.600 C 208.140 75.470,208.209 76.235,208.293 75.300 C 208.377 74.365,208.377 72.835,208.293 71.900 C 208.209 70.965,208.140 71.730,208.140 73.600 M208.140 101.600 C 208.140 103.470,208.209 104.235,208.293 103.300 C 208.377 102.365,208.377 100.835,208.293 99.900 C 208.209 98.965,208.140 99.730,208.140 101.600 " stroke="none" fill="#4858fc" fill-rule="evenodd"></path><path id="path4" d="M208.154 87.600 C 208.154 90.350,208.218 91.475,208.296 90.100 C 208.374 88.725,208.374 86.475,208.296 85.100 C 208.218 83.725,208.154 84.850,208.154 87.600 M341.763 89.200 C 341.763 92.830,341.823 94.315,341.898 92.500 C 341.972 90.685,341.972 87.715,341.898 85.900 C 341.823 84.085,341.763 85.570,341.763 89.200 " stroke="none" fill="#4088fc" fill-rule="evenodd"></path></g></svg>