<svg clip-rule="evenodd" fill-rule="evenodd" stroke-linejoin="round" stroke-miterlimit="1.414" viewBox="0 0 1024 1024" xmlns="http://www.w3.org/2000/svg"><g fill-rule="nonzero"><path d="M755.99 38.792c-20.451 0-28.973 13.066-36.358 26.132 0 0-293.695 520.926-303.353 538.537.568 1.136 193.715 355.616 193.715 355.616 6.816 11.93 17.042 26.131 38.06 26.131h136.34c7.952 0 14.77-2.84 18.178-8.52s3.408-13.635-.568-21.02L609.425 604.597v-1.136L911.642 69.468c3.977-7.385 3.977-15.338 0-21.019-3.408-5.68-9.657-8.52-18.178-8.52H755.989z" fill="#b0d400"/><path d="M182.8 225.69c-7.953 0-14.77 2.84-18.179 8.52s-3.408 13.635.568 21.02l92.597 159.061v1.136L112.358 671.63c-3.976 7.385-3.976 15.338 0 21.019 3.409 5.68 9.657 8.521 18.179 8.521h136.906c20.45 0 29.54-13.634 36.357-26.132 0 0 142.02-250.522 147.7-260.179-.568-1.136-94.3-163.606-94.3-163.606-6.818-11.93-17.043-26.132-38.062-26.132H182.8z" fill="#006567"/></g></svg>