<svg clip-rule="evenodd" fill-rule="evenodd" stroke-linejoin="round" stroke-miterlimit="1.41421" viewBox="0 0 1024 1024" xmlns="http://www.w3.org/2000/svg"><g fill-rule="nonzero" transform="matrix(5.68077 0 0 5.68077 -131.915 -132.199)"><path d="m156.3 30.1c-3.6 0-5.1 2.3-6.4 4.6 0 0-51.7 91.7-53.4 94.8.1.2 34.1 62.6 34.1 62.6 1.2 2.1 3 4.6 6.7 4.6h24c1.4 0 2.6-.5 3.2-1.5s.6-2.4-.1-3.7l-33.9-61.8c0-.1 0-.1 0-.2l53.2-94c.7-1.3.7-2.7 0-3.7-.6-1-1.7-1.5-3.2-1.5h-24.2z" fill="#b0d400"/><path d="m55.4 63c-1.4 0-2.6.5-3.2 1.5s-.6 2.4.1 3.7l16.3 28v.2l-25.6 45.1c-.7 1.3-.7 2.7 0 3.7.6 1 1.7 1.5 3.2 1.5h24.1c3.6 0 5.2-2.4 6.4-4.6 0 0 25-44.1 26-45.8-.1-.2-16.6-28.8-16.6-28.8-1.2-2.1-3-4.6-6.7-4.6h-24z" fill="#006567"/></g></svg>