<svg height="80" viewBox="0 0 80 80" width="80" xmlns="http://www.w3.org/2000/svg"><path d="m76.5037587 45.6980046c.2979118-1.8849188.4547564-3.8132714.4547564-5.7815313 0-20.4575406-16.5832019-37.04037121-37.0412993-37.04037121-1.9630627 0-3.8969838.16167053-5.780232.4562413-3.4114154-2.11081207-7.4377727-3.33234339-11.7527611-3.33234339-12.3617633 0-22.38329463 10.020232-22.38329463 22.3832947 0 4.3140603 1.22227379 8.3370765 3.33215778 11.7553596-.29197216 1.8880742-.45271462 3.8103016-.45271462 5.7785615 0 20.4590255 16.58283067 37.0368445 37.03610207 37.0368445 1.9647332 0 3.8992112-.1514617 5.7822738-.4486311 3.414942 2.1067286 7.4379582 3.331601 11.7520186 3.331601 12.3651044 0 22.385522-10.0228307 22.385522-22.3855221.0009281-4.3157308-1.2206032-8.337819-3.332529-11.7535035zm-19.0000928 11.0648724c-1.5669606 2.2557773-3.8687703 4.0185615-6.8764733 5.2861253-3.0138283 1.2709049-6.5759629 1.9032947-10.6895592 1.9032947-4.9303016 0-9.0123434-.8627378-12.2344315-2.6049188-2.2839908-1.2475174-4.1416242-2.9210209-5.5697448-5.0078886-1.4310905-2.0885383-2.156659-4.1338283-2.156659-6.1280743 0-1.1764269.4486311-2.1995359 1.321949-3.0336891.882413-.8402784 2.0189327-1.2614385 3.3603712-1.2614385 1.0988399 0 2.0426914.3309513 2.8111369.9867285.7626914.6555917 1.4025058 1.6087239 1.9257541 2.8664502.6271926 1.4570765 1.3083991 2.6750812 2.033225 3.6469605.7203713.9598144 1.7341996 1.7611137 3.047239 2.3883063 1.2985615.6288631 3.0268214.9432946 5.18942.9432946 2.9596287 0 5.3514617-.6401856 7.1819953-1.903109 1.8398144-1.2744316 2.7235267-2.825058 2.7235267-4.6986543 0-1.4943851-.4764733-2.6812065-1.4535499-3.6064965-.985986-.937355-2.2593039-1.6512297-3.8394431-2.1492344-1.5862645-.5032018-3.7160093-1.0368445-6.3849652-1.5990719-3.5838515-.782181-6.5811601-1.6926218-9.0084455-2.7381902-2.4304408-1.0494664-4.3660325-2.4840836-5.8006497-4.2962413-1.437587-1.8299768-2.1544315-4.1045012-2.1544315-6.7985151 0-2.5689095.7567517-4.8662645 2.2717401-6.8657077 1.514246-2.0050116 3.705058-3.5396751 6.5616706-4.6086311 2.8465893-1.0685847 6.1978654-1.6031554 10.0371229-1.6031554 3.0702553 0 5.7260325.3552668 7.974014 1.0620881 2.2418561.7120186 4.1106264 1.651601 5.6048259 2.8306265 1.4847332 1.1764269 2.5772622 2.4172622 3.2692344 3.7193503.6914153 1.3059861 1.0396288 2.5815314 1.0396288 3.8262645 0 1.1573086-.4486311 2.2069606-1.3228771 3.1268678-.8740603.9212065-1.9922042 1.3908121-3.2980046 1.3865429-1.1771694 0-2.1006033-.2715545-2.7409745-.8464037-.6236659-.5561021-1.2787007-1.4414849-1.9871926-2.6754524-.8955916-1.7217634-1.9682598-3.0632019-3.2155916-4.022645-1.214478-.9416242-3.2181903-1.431833-6.0063109-1.4258933-2.5796752 0-4.6437123.5271462-6.2015777 1.558051-1.5675175 1.0474246-2.3168446 2.262645-2.3203713 3.6864966.0025986.8922505.2591184 1.6445475.7753132 2.2878886.5241764.6492807 1.2534571 1.2118793 2.1908121 1.6861253.9377262.4816705 1.8916009.8541995 2.850116 1.1222274.9698376.2748955 2.5789327.6722969 4.8155917 1.198515 2.8050116.6045476 5.3492343 1.28 7.6354524 2.0161485 2.2817633.7398608 4.2290487 1.6321114 5.8377726 2.6951276 1.6215313 1.0598608 2.8889095 2.4111369 3.7935963 4.0432483.9111833 1.63471 1.3650116 3.6313689 1.3650116 5.9808817.0035267 2.8291415-.784594 5.3735499-2.3552668 7.6258004z" fill="#12a5f4" fill-rule="evenodd"/></svg>