<?xml version="1.0" encoding="UTF-8" standalone="no"?>
<svg
   height="80"
   width="80"
   version="1.1"
   id="svg4"
   sodipodi:docname="icon.svg"
   inkscape:version="1.2.2 (b0a8486541, 2022-12-01)"
   xmlns:inkscape="http://www.inkscape.org/namespaces/inkscape"
   xmlns:sodipodi="http://sodipodi.sourceforge.net/DTD/sodipodi-0.dtd"
   xmlns="http://www.w3.org/2000/svg"
   xmlns:svg="http://www.w3.org/2000/svg">
  <defs
     id="defs8">
    <linearGradient
       id="a"
       x1="8.3929996"
       y1="1.1059999"
       x2="11.125"
       y2="18.354"
       gradientUnits="userSpaceOnUse">
      <stop
         offset=".012"
         stop-color="#00b7f0"
         id="stop1154" />
      <stop
         offset=".339"
         stop-color="#009de5"
         id="stop1156" />
      <stop
         offset=".755"
         stop-color="#0082d9"
         id="stop1158" />
      <stop
         offset="1"
         stop-color="#0078d4"
         id="stop1160" />
    </linearGradient>
    <linearGradient
       id="b"
       x1="14.379"
       y1="26.645"
       x2="29.546"
       y2="17.889"
       gradientUnits="userSpaceOnUse">
      <stop
         offset="0"
         stop-color="#0078d4"
         id="stop1163" />
      <stop
         offset=".37"
         stop-color="#007ad5"
         id="stop1165" />
      <stop
         offset=".573"
         stop-color="#0082d9"
         id="stop1167" />
      <stop
         offset=".735"
         stop-color="#0090df"
         id="stop1169" />
      <stop
         offset=".875"
         stop-color="#00a3e7"
         id="stop1171" />
      <stop
         offset="1"
         stop-color="#00bcf2"
         id="stop1173" />
    </linearGradient>
    <linearGradient
       id="c"
       x1="10.45"
       y1="6.6890001"
       x2="24.291"
       y2="30.662001"
       gradientUnits="userSpaceOnUse">
      <stop
         offset="0"
         stop-color="#00b7f0"
         id="stop1176" />
      <stop
         offset="1"
         stop-color="#007cc1"
         id="stop1178" />
    </linearGradient>
  </defs>
  <sodipodi:namedview
     id="namedview6"
     pagecolor="#ffffff"
     bordercolor="#000000"
     borderopacity="0.25"
     inkscape:showpageshadow="2"
     inkscape:pageopacity="0.0"
     inkscape:pagecheckerboard="0"
     inkscape:deskcolor="#d1d1d1"
     showgrid="false"
     inkscape:zoom="5.3"
     inkscape:cx="71.415094"
     inkscape:cy="18.773585"
     inkscape:window-width="1856"
     inkscape:window-height="1043"
     inkscape:window-x="64"
     inkscape:window-y="0"
     inkscape:window-maximized="1"
     inkscape:current-layer="svg4" />
  <g
     transform="matrix(0.07943588,0,0,0.07943588,-29.430423,-26.333708)"
     id="g1203">
    <path
       d="M 18.518,9.7299995 A 8.7589998,8.7299995 0 0 1 9.7589998,18.459999 8.7589998,8.7299995 0 0 1 1,9.7299995 8.7589998,8.7299995 0 0 1 9.7589998,1 8.7589998,8.7299995 0 0 1 18.518,9.7299995"
       transform="matrix(33.333333,0,0,33.333333,348.39287,303.80952)"
       style="fill:url(#a)"
       id="path1183" />
    <path
       d="m 30.724999,22.267 a 8.7620001,8.7329998 0 0 1 -8.762,8.733 8.7620001,8.7329998 0 0 1 -8.762,-8.733 8.7620001,8.7329998 0 0 1 8.762,-8.733 8.7620001,8.7329998 0 0 1 8.762,8.733"
       transform="matrix(33.333333,0,0,33.333333,348.39287,303.80952)"
       style="fill:url(#b)"
       id="path1185" />
    <path
       d="m 1.032,10.477 a 8.758,8.758 0 1 0 9.817,-9.41 15.915,15.915 0 0 0 -9.817,9.41 z"
       fill-rule="evenodd"
       opacity="0.05"
       transform="matrix(33.333333,0,0,33.333333,348.39287,303.80952)"
       id="path1187" />
    <path
       d="m 30.702,21.64 a 8.761,8.761 0 1 0 -9.533,9.324 15.915,15.915 0 0 0 9.533,-9.325 z"
       fill-rule="evenodd"
       opacity="0.05"
       transform="matrix(33.333333,0,0,33.333333,348.39287,303.80952)"
       id="path1189" />
    <path
       d="M 1.442,12.473 A 8.755,8.755 0 1 0 12.84,1.556 14.893,14.893 0 0 0 1.442,12.473 Z"
       fill-rule="evenodd"
       opacity="0.1"
       transform="matrix(33.333333,0,0,33.333333,348.39287,303.80952)"
       id="path1191" />
    <path
       d="M 30.304,19.588 A 8.758,8.758 0 1 0 19.112,30.527 14.893,14.893 0 0 0 30.304,19.588 Z"
       fill-rule="evenodd"
       opacity="0.1"
       transform="matrix(33.333333,0,0,33.333333,348.39287,303.80952)"
       id="path1193" />
    <path
       d="M 1.764,13.301 A 8.753,8.753 0 1 0 13.658,1.911 14.387,14.387 0 0 0 1.764,13.301 Z"
       fill-rule="evenodd"
       opacity="0.1"
       transform="matrix(33.333333,0,0,33.333333,348.39287,303.80952)"
       id="path1195" />
    <path
       d="M 29.981,18.743 A 8.756,8.756 0 1 0 18.268,30.187 14.386,14.386 0 0 0 29.981,18.743 Z"
       fill-rule="evenodd"
       opacity="0.1"
       transform="matrix(33.333333,0,0,33.333333,348.39287,303.80952)"
       id="path1197" />
    <path
       d="M 29.737,16.065001 A 13.873,13.827 0 0 1 15.864,29.892 13.873,13.827 0 0 1 1.9910002,16.065001 13.873,13.827 0 0 1 15.864,2.2380009 13.873,13.827 0 0 1 29.737,16.065001"
       transform="matrix(33.333333,0,0,33.333333,348.39287,303.80952)"
       style="fill:url(#c)"
       id="path1199" />
    <path
       d="m 11.963,15.585 a 4.358,4.358 0 0 1 -1.367,-1.442 3.986,3.986 0 0 1 -0.468,-1.993 3.582,3.582 0 0 1 0.844,-2.412 5.08,5.08 0 0 1 2.2,-1.47 8.495,8.495 0 0 1 2.88,-0.485 11.184,11.184 0 0 1 1.916,0.147 6.918,6.918 0 0 1 1.329,0.343 2.576,2.576 0 0 1 1.04,0.664 1.344,1.344 0 0 1 0.321,0.893 1.294,1.294 0 0 1 -0.338,0.931 1.124,1.124 0 0 1 -0.849,0.354 1.529,1.529 0 0 1 -0.631,-0.142 11.434,11.434 0 0 0 -1.503,-0.55 5.455,5.455 0 0 0 -1.448,-0.18 3.305,3.305 0 0 0 -1.814,0.464 1.509,1.509 0 0 0 -0.724,1.355 1.363,1.363 0 0 0 0.376,0.953 3.426,3.426 0 0 0 1.013,0.725 q 0.637,0.316 1.9,0.838 a 1.97,1.97 0 0 1 0.272,0.109 13.497,13.497 0 0 1 2.352,1.209 4.742,4.742 0 0 1 1.448,1.486 3.92,3.92 0 0 1 0.523,2.064 4.151,4.151 0 0 1 -0.724,2.488 4.304,4.304 0 0 1 -2.025,1.503 8.537,8.537 0 0 1 -3.044,0.496 9.59,9.59 0 0 1 -4.149,-0.785 2.258,2.258 0 0 1 -0.854,-0.664 1.493,1.493 0 0 1 -0.278,-0.904 1.181,1.181 0 0 1 0.365,-0.92 1.345,1.345 0 0 1 0.941,-0.332 2.407,2.407 0 0 1 1.1,0.283 q 0.632,0.316 0.997,0.474 a 5.008,5.008 0 0 0 0.86,0.272 4.92,4.92 0 0 0 1.105,0.114 2.95,2.95 0 0 0 1.857,-0.495 1.635,1.635 0 0 0 0.626,-1.356 1.44,1.44 0 0 0 -0.392,-0.99 4.167,4.167 0 0 0 -1.154,-0.84 Q 15.703,17.388 14.32,16.81 a 13.291,13.291 0 0 1 -2.357,-1.225"
       fill="#ffffff"
       fill-rule="evenodd"
       transform="matrix(33.333333,0,0,33.333333,348.39287,303.80952)"
       id="path1201" />
  </g>
</svg>
