<svg height="80" width="80" xmlns="http://www.w3.org/2000/svg"><path d="M76.504 45.698a36.99 36.99 0 0 0 .455-5.782c0-20.457-16.584-37.04-37.042-37.04-1.963 0-3.897.162-5.78.456A22.264 22.264 0 0 0 22.384 0C10.022 0 .001 10.02.001 22.383c0 4.314 1.222 8.337 3.332 11.756a37.717 37.717 0 0 0-.453 5.778c0 20.46 16.583 37.037 37.036 37.037 1.965 0 3.9-.151 5.783-.449a22.31 22.31 0 0 0 11.752 3.332c12.365 0 22.385-10.023 22.385-22.385.001-4.316-1.22-8.338-3.332-11.754zm-19 11.065c-1.567 2.256-3.87 4.018-6.877 5.286-3.014 1.27-6.576 1.903-10.69 1.903-4.93 0-9.012-.862-12.234-2.605-2.284-1.247-4.141-2.92-5.57-5.008-1.43-2.088-2.156-4.133-2.156-6.128 0-1.176.448-2.2 1.322-3.033.882-.84 2.019-1.262 3.36-1.262 1.099 0 2.043.331 2.811.987.763.656 1.403 1.609 1.926 2.866.627 1.458 1.308 2.676 2.033 3.647.72.96 1.734 1.762 3.047 2.389 1.299.629 3.027.943 5.19.943 2.96 0 5.351-.64 7.182-1.903 1.84-1.275 2.723-2.825 2.723-4.699 0-1.494-.476-2.68-1.453-3.606-.986-.938-2.26-1.651-3.84-2.15-1.586-.503-3.716-1.036-6.385-1.599-3.583-.782-6.58-1.692-9.008-2.738-2.43-1.05-4.366-2.484-5.8-4.296-1.438-1.83-2.155-4.104-2.155-6.798 0-2.57.757-4.867 2.272-6.866 1.514-2.005 3.705-3.54 6.561-4.609 2.847-1.068 6.198-1.603 10.037-1.603 3.07 0 5.726.355 7.974 1.062 2.242.712 4.111 1.652 5.605 2.83 1.485 1.177 2.578 2.418 3.27 3.72.691 1.306 1.04 2.582 1.04 3.826 0 1.158-.45 2.207-1.324 3.127-.874.921-1.992 1.391-3.298 1.387-1.177 0-2.1-.272-2.74-.847-.624-.556-1.28-1.441-1.988-2.675-.895-1.722-1.968-3.063-3.215-4.023-1.215-.941-3.219-1.432-6.007-1.426-2.58 0-4.643.528-6.201 1.558-1.568 1.048-2.317 2.263-2.32 3.687.002.892.258 1.644.775 2.288.524.65 1.253 1.212 2.19 1.686.938.482 1.892.854 2.85 1.122.97.275 2.58.672 4.816 1.199 2.805.604 5.35 1.28 7.636 2.016 2.281.74 4.229 1.632 5.837 2.695 1.622 1.06 2.89 2.411 3.794 4.043.911 1.635 1.365 3.632 1.365 5.981.003 2.83-.785 5.374-2.355 7.626z" fill="#12a5f4" fill-rule="evenodd"/></svg>