<svg viewBox="0 0 32 32" xmlns="http://www.w3.org/2000/svg"><circle cx="17" cy="6" fill="#7b83eb" r="4.667"/><path d="m16.66663 7h-4.22553q.01017.04669.0213.09326l.00189.00781c.00684.02857.0141.05707.02143.08551a4.671 4.671 0 0 0 5.51428 3.37226v-2.22553a1.33727 1.33727 0 0 0 -1.33337-1.33331z" opacity=".1"/><path d="m15.66663 8h-2.88392a4.667 4.667 0 0 0 4.21729 2.66663v-1.33332a1.33727 1.33727 0 0 0 -1.33337-1.33331z" opacity=".2"/><circle cx="27.5" cy="7.5" fill="#5059c9" r="3.5"/><path d="m30.49976 12h-7.86094a.63906.63906 0 0 0 -.63906.63906v8.11026a5.12132 5.12132 0 0 0 3.96624 5.08458 5.00551 5.00551 0 0 0 6.03372-4.89636v-7.43754a1.5 1.5 0 0 0 -1.49996-1.5z" fill="#5059c9"/><path d="m25 13.5v9.5a7.99479 7.99479 0 0 1 -14.92 4 7.17277 7.17277 0 0 1 -.5-1 8.36694 8.36694 0 0 1 -.33-1 8.24022 8.24022 0 0 1 -.25-2v-9.5a1.498 1.498 0 0 1 1.5-1.5h13a1.498 1.498 0 0 1 1.5 1.5z" fill="#7b83eb"/><path d="m15.66663 8h-2.88392a4.667 4.667 0 0 0 4.21729 2.66663v-1.33332a1.33727 1.33727 0 0 0 -1.33337-1.33331z" opacity=".2"/><path d="m18 12v12.67a1.32024 1.32024 0 0 1 -1.04 1.29.966.966 0 0 1 -.29.04h-7.09a8.36694 8.36694 0 0 1 -.33-1 8.24022 8.24022 0 0 1 -.25-2v-9.5a1.498 1.498 0 0 1 1.5-1.5z" opacity=".1"/><path d="m17 12v13.67a.96746.96746 0 0 1 -.04.29 1.3203 1.3203 0 0 1 -1.29 1.04h-5.59a7.17277 7.17277 0 0 1 -.5-1 8.36694 8.36694 0 0 1 -.33-1 8.24022 8.24022 0 0 1 -.25-2v-9.5a1.498 1.498 0 0 1 1.5-1.5z" opacity=".2"/><path d="m17 12v11.67a1.33588 1.33588 0 0 1 -1.33 1.33h-6.42a8.24022 8.24022 0 0 1 -.25-2v-9.5a1.498 1.498 0 0 1 1.5-1.5z" opacity=".2"/><path d="m10.5 12a1.498 1.498 0 0 0 -1.5 1.5v9.5a8.24022 8.24022 0 0 0 .25 2h5.42a1.33588 1.33588 0 0 0 1.33-1.33v-11.67z" opacity=".2"/><path d="m1.33334 8h13.33336a1.33333 1.33333 0 0 1 1.3333 1.33333v13.33333a1.33333 1.33333 0 0 1 -1.3333 1.33334h-13.33336a1.33334 1.33334 0 0 1 -1.33334-1.33334v-13.33332a1.33334 1.33334 0 0 1 1.33334-1.33334z" fill="#4b53bc"/><path d="m11.97961 12.975h-2.9888v8.0203h-1.96427v-8.0203h-3.00612v-1.97034h7.95919z" fill="#fff"/><path d="m0 0h32v32h-32z" fill="none"/></svg>