<svg xmlns="http://www.w3.org/2000/svg" fill="none" viewBox="0 0 24 24"><path fill="url(#prefix__a)" d="M11 10h7.5a3.5 3.5 0 013.5 3.5V19a4 4 0 01-8 0v-6a3 3 0 00-3-3z"/><path fill="url(#prefix__b)" d="M2 11.5A3.5 3.5 0 015.5 8h5a3.5 3.5 0 013.5 3.5V19a4 4 0 004 4H8a6 6 0 01-6-6v-5.5z"/><path fill="url(#prefix__c)" fill-opacity=".7" d="M2 11.5A3.5 3.5 0 015.5 8h5a3.5 3.5 0 013.5 3.5V19a4 4 0 004 4H8a6 6 0 01-6-6v-5.5z"/><path fill="url(#prefix__d)" fill-opacity=".7" d="M2 11.5A3.5 3.5 0 015.5 8h5a3.5 3.5 0 013.5 3.5V19a4 4 0 004 4H8a6 6 0 01-6-6v-5.5z"/><path fill="url(#prefix__e)" d="M18 9a3 3 0 100-6 3 3 0 000 6z"/><path fill="url(#prefix__f)" fill-opacity=".46" d="M18 9a3 3 0 100-6 3 3 0 000 6z"/><path fill="url(#prefix__g)" fill-opacity=".4" d="M18 9a3 3 0 100-6 3 3 0 000 6z"/><path fill="url(#prefix__h)" d="M8.5 7a3.5 3.5 0 100-7 3.5 3.5 0 000 7z"/><path fill="url(#prefix__i)" fill-opacity=".6" d="M8.5 7a3.5 3.5 0 100-7 3.5 3.5 0 000 7z"/><path fill="url(#prefix__j)" fill-opacity=".5" d="M8.5 7a3.5 3.5 0 100-7 3.5 3.5 0 000 7z"/><rect width="10" height="10" y="11" fill="url(#prefix__k)" rx="2.25"/><rect width="10" height="10" y="11" fill="url(#prefix__l)" fill-opacity=".7" rx="2.25"/><path fill="#fff" d="M7.28 14.1H5.676V19H4.324v-4.9H2.72V13h4.56v1.1z"/><defs><radialGradient id="prefix__a" cx="0" cy="0" r="1" gradientTransform="matrix(8.15795 0 0 20.1367 21.246 11)" gradientUnits="userSpaceOnUse"><stop stop-color="#A98AFF"/><stop offset=".14" stop-color="#8C75FF"/><stop offset=".565" stop-color="#5F50E2"/><stop offset=".9" stop-color="#3C2CB8"/></radialGradient><radialGradient id="prefix__b" cx="0" cy="0" r="1" gradientTransform="matrix(7.5 19 -19 7.5 2.5 7)" gradientUnits="userSpaceOnUse"><stop stop-color="#85C2FF"/><stop offset=".69" stop-color="#7588FF"/><stop offset="1" stop-color="#6459FE"/></radialGradient><radialGradient id="prefix__d" cx="0" cy="0" r="1" gradientTransform="rotate(113.005 4.518 8.383) scale(11.9828 9.51653)" gradientUnits="userSpaceOnUse"><stop stop-color="#BD96FF"/><stop offset=".687" stop-color="#BD96FF" stop-opacity="0"/></radialGradient><radialGradient id="prefix__e" cx="0" cy="0" r="1" gradientTransform="matrix(0 -6 7.57298 0 18 5.143)" gradientUnits="userSpaceOnUse"><stop offset=".268" stop-color="#6868F7"/><stop offset="1" stop-color="#3923B1"/></radialGradient><radialGradient id="prefix__f" cx="0" cy="0" r="1" gradientTransform="matrix(3.28212 2.7591 -3.99072 4.7472 15.52 4.527)" gradientUnits="userSpaceOnUse"><stop offset=".271" stop-color="#A1D3FF"/><stop offset=".813" stop-color="#A1D3FF" stop-opacity="0"/></radialGradient><radialGradient id="prefix__g" cx="0" cy="0" r="1" gradientTransform="matrix(3.81605 -3.39497 8.32816 9.3611 20.39 4.421)" gradientUnits="userSpaceOnUse"><stop stop-color="#E3ACFD"/><stop offset=".816" stop-color="#9FA2FF" stop-opacity="0"/></radialGradient><radialGradient id="prefix__h" cx="0" cy="0" r="1" gradientTransform="matrix(0 -7 8.83514 0 8.5 2.5)" gradientUnits="userSpaceOnUse"><stop offset=".268" stop-color="#8282FF"/><stop offset="1" stop-color="#3923B1"/></radialGradient><radialGradient id="prefix__i" cx="0" cy="0" r="1" gradientTransform="matrix(3.82916 3.21893 -4.6558 5.53843 5.607 1.78)" gradientUnits="userSpaceOnUse"><stop offset=".271" stop-color="#A1D3FF"/><stop offset=".813" stop-color="#A1D3FF" stop-opacity="0"/></radialGradient><radialGradient id="prefix__j" cx="0" cy="0" r="1" gradientTransform="rotate(-41.658 7.823 -14.006) scale(5.95892 14.6177)" gradientUnits="userSpaceOnUse"><stop stop-color="#E3ACFD"/><stop offset=".816" stop-color="#9FA2FF" stop-opacity="0"/></radialGradient><radialGradient id="prefix__k" cx="0" cy="0" r="1" gradientTransform="rotate(45 -13.278 5.5) scale(14.1421)" gradientUnits="userSpaceOnUse"><stop offset=".047" stop-color="#688EFF"/><stop offset=".947" stop-color="#230F94"/></radialGradient><radialGradient id="prefix__l" cx="0" cy="0" r="1" gradientTransform="matrix(0 7 -8.16888 0 5 17)" gradientUnits="userSpaceOnUse"><stop offset=".571" stop-color="#6965F6" stop-opacity="0"/><stop offset="1" stop-color="#8F8FFF"/></radialGradient><linearGradient id="prefix__c" x1="9.75" x2="9.75" y1="8" y2="23" gradientUnits="userSpaceOnUse"><stop offset=".801" stop-color="#6864F6" stop-opacity="0"/><stop offset="1" stop-color="#5149DE"/></linearGradient></defs></svg>
