<svg height="80" viewBox="0 0 80 80" width="80" xmlns="http://www.w3.org/2000/svg"><g fill="#00a0e9" fill-rule="evenodd" transform="translate(5)"><path d="m32.167247 21.928188h5.310871v5.311812h-5.310871z"/><path d="m54.4220235.03134118h-39.1974588c-8.38061176 0-15.17402352 6.79397647-15.17402352 15.17402352v39.1978353c0 8.3797647 6.79331764 15.1737412 15.17402352 15.1737412h13.0463059l6.4850823 10.3919059 6.4865883-10.3919059h13.1793882c8.379953 0 15.1744941-6.7939765 15.1744941-15.1737412v-39.1979294c.0000941-8.38004707-6.794447-15.17392942-15.1744-15.17392942zm-33.6077176 27.20856472h5.6243765v-5.3118118h-5.6243765v-5.7278117h5.6243765v-5.6242824h5.7285647v5.6242824h5.3108705v-5.6242824h5.7282824v5.6242824h5.6237176v5.7278117h-5.6237176v5.3118118h5.6237176v5.7274353h-5.6237176v5.6244706h-5.7282824v-5.6244706h-5.3108705v5.6244706h-5.7285647v-5.6244706h-5.6243765zm40.2857412 17.5299765s-7.5617883 14.2418823-25.5161412 14.2418823c-.2485647 0-.4937412-.0031059-.7380706-.0075294-.2438588.0044235-.4894118.0075294-.7377882.0075294-17.9538824 0-25.51567063-14.2418823-25.51567063-14.2418823s-.48941176-.9274353-.48941176-1.9272471c-.03087059-.7215059.32197647-1.7558588 1.248-2.3650824.51501176-.338447 1.00178819-.5059764 1.45317649-.5583058 2.1618823-.2293647 3.4147764 1.1783529 4.4450823 2.7858823 1.1378824 1.7737412 7.7021177 9.5452235 19.5964236 9.8426353 11.8948705-.2974118 18.4593882-8.0688941 19.5968941-9.8426353 1.0304941-1.6075294 2.3286588-3.0176 4.4453647-2.7858823.4512941.0523294.938447.2198588 1.4529882.5583058.9264941.6092236 1.2869647 1.4674824 1.2544 2.3643295-.0722823 1.3197176-.495247 1.928-.495247 1.928z"/></g></svg>