<svg height="80" width="80" xmlns="http://www.w3.org/2000/svg"><g fill="#00a0e9" fill-rule="evenodd"><path d="M37.167 21.928h5.311v5.312h-5.31z"/><path d="M59.422.031H20.225C11.844.031 5.05 6.825 5.05 15.205v39.198c0 8.38 6.793 15.174 15.174 15.174H33.27l6.485 10.392 6.487-10.392h13.179c8.38 0 15.174-6.794 15.174-15.174V15.205c0-8.38-6.794-15.174-15.174-15.174zM25.814 27.24h5.625v-5.312h-5.625V16.2h5.625v-5.624h5.728V16.2h5.311v-5.624h5.728V16.2h5.624v5.728h-5.624v5.312h5.624v5.727h-5.624v5.625h-5.728v-5.625h-5.31v5.625h-5.73v-5.625h-5.624zM66.1 44.77s-7.562 14.242-25.516 14.242c-.249 0-.494-.003-.738-.008-.244.005-.49.008-.738.008-17.954 0-25.516-14.242-25.516-14.242s-.489-.928-.489-1.927c-.03-.722.322-1.756 1.248-2.365.515-.339 1.002-.506 1.453-.559 2.162-.23 3.415 1.179 4.445 2.786 1.138 1.774 7.702 9.545 19.597 9.843 11.895-.298 18.459-8.07 19.597-9.843 1.03-1.607 2.328-3.017 4.445-2.786.451.053.938.22 1.453.559.926.609 1.287 1.467 1.254 2.364-.072 1.32-.495 1.928-.495 1.928z"/></g></svg>