<svg xmlns="http://www.w3.org/2000/svg" width="1023.967" height="1023.967" viewBox="0 0 665 665">
  <defs>
    <style>
      .cls-1 {
        fill-rule: evenodd;
      }
    </style>
  </defs>
  <path id="P" class="cls-1" d="M328.057,363.563A423.331,423.331,0,0,0,379.838,367q97.663,0,151.156-50.812T584.479,184.25q0-59.625-35.2-103.109T462.744,19.328Q411.415,1,322.447,1H79.479V19h24.969q37.712,0,56.813,21.453Q174.478,55.594,174.479,118V547q0,56.579-9.8,71.688Q146.565,646.015,104.447,646H79.479v18h284V646H338.15q-37.522,0-56.031-21.453Q268.478,609.43,268.479,547V353.219Q300.213,360.11,328.057,363.563Zm-59.578-313.3Q307.431,41.008,332.26,41q40.875,0,73.015,18.281t49.672,55.094q17.532,36.82,17.532,79.719,0,62.414-36.766,101.656-36.75,39.258-87.391,39.25a287.9,287.9,0,0,1-34.078-2.437q-19.968-2.437-45.765-7.313V50.266Z"/>
</svg>
