<?xml version="1.0" encoding="UTF-8"?>
<svg version="1.1" viewBox="0 0 250 250" xmlns="http://www.w3.org/2000/svg">
<g fill="#00832D">
<path d="m130 50v60c0 3.7 3 6.7 6.7 6.7h60c0-18.4-4.1-38.4-16.2-50.5s-32.1-16.2-50.5-16.2z"/>
<path d="m195.4 248.8c-28 4.6-61.9-3.7-94.4-23.1l10.9-24.3 24.7-11.4 38.7 22.1 20.1 36.7z"/>
<path d="M1.2,54.6c-4.6,28,3.6,61.9,23.1,94.4l25-11.7L60,113.3L39,79L1.2,54.6z"/>
</g>
<g fill="#34A853">
<path d="M140,0c-5.5,0-10,4.5-10,10v40c36.8,0,66.7,29.9,66.7,66.7h40c5.5,0,10-4.5,10-10C246.7,47.8,198.9,0,140,0z"/>
<path d="m237.2 225.8c5.3-5.1 5.5-13.4 0.5-18.7l-48.2-51.4c-5.3-5-13.5-4.9-18.6 0.2l-34.2 34.1 58.7 58.7c15.9-2.3 27.8-9.1 38.6-19.9l3.2-3z"/>
<path d="m24.4 149c8.8 14.6 20.5 29.3 33.8 42.6s28.3 25.2 42.9 34l35.7-35.6-76.8-76.7"/>
<path d="m85.7 88.4 5.5-5.3c6.5-6.5 6.5-17.2 0-23.7l-45.3-45.3c-6.5-6.5-17.2-6.5-23.7 0l-1.6 1.1c-10.5 10.5-16.8 24.1-19.4 39.4l58.8 58.7 25.7-24.9z"/>
</g>
</svg>
