<svg height="297mm" viewBox="0 0 744.094 1052.362" width="297mm" xmlns="http://www.w3.org/2000/svg"><path d="M41.857 824.215c-1.615-.888-3.072-5.62-3.072-5.62l.698-295.091c.685-289.54.735-295.204 2.661-301.091 5.365-16.4 20.1-29.22 37.308-32.46 4.396-.828 84.034-1.051 298-.835l292 .295 5.792 2.21c18.13 6.92 29.066 18.7 32.574 35.089.825 3.856 1.134 62.904 1.134 216.781v211.483l-2.084 6.218c-6.091 18.181-19.318 30.637-35.803 33.713-3.51.655-84.908 1.006-233.631 1.006H209.188L173.82 724.22C76.126 802.41 48.665 823.913 46.5 823.913c-.767 0-3.028 1.19-4.643.302zM559.86 634.478c7.902-5.48 7.54-2.502 7.554-62.065l.012-53-2.23-3.608c-3.752-6.067-8.486-7.66-26.244-8.825-23.699-1.557-37.833-4.288-69.04-13.342-8.255-2.394-8.9-1.93-39.448 28.35-15.494 15.358-28.63 27.925-29.192 27.925-1.73 0-19.23-10.87-31.224-19.395-40.317-28.658-77.527-69.174-97.936-106.64l-4.105-7.535 27.039-26.965c14.87-14.831 27.683-28.18 28.472-29.666 1.872-3.525 1.828-10.919-.091-15.513-5.042-12.068-9.847-39.807-11.343-65.493-1.016-17.431-2.192-20.865-8.433-24.616-3.012-1.81-6.245-1.957-55.2-2.5-55.032-.611-56.718-.502-61.672 3.977-1.122 1.015-2.95 3.63-4.063 5.81-1.859 3.642-1.968 5.104-1.34 18 1.88 38.681 7.857 73.942 17.533 103.438 5.223 15.921 19.35 47.632 29.671 66.598 21.524 39.554 58.372 82.14 97.613 112.818 27.29 21.334 61.657 39.725 99.53 53.264 37.905 13.55 86.296 22.408 120.318 22.025 8.89-.1 9.897-.321 13.82-3.042z" fill="#4e8df5"/></svg>