<?xml version="1.0" encoding="UTF-8"?>
<svg width="80px" height="80px" viewBox="0 0 80 80" version="1.1" xmlns="http://www.w3.org/2000/svg" xmlns:xlink="http://www.w3.org/1999/xlink">
    <!-- Generator: Sketch 59.1 (86144) - https://sketch.com -->
    <title>instagram</title>
    <desc>Created with Sketch.</desc>
    <defs>
        <radialGradient cx="20.6715778%" cy="120.207827%" fx="20.6715778%" fy="120.207827%" r="151.403352%" id="radialGradient-1">
            <stop stop-color="#EACC7B" offset="7.3%"></stop>
            <stop stop-color="#ECAA59" offset="18.4%"></stop>
            <stop stop-color="#EF802E" offset="30.7%"></stop>
            <stop stop-color="#EF6D3A" offset="35.8%"></stop>
            <stop stop-color="#F04B50" offset="46%"></stop>
            <stop stop-color="#F03E58" offset="51.6%"></stop>
            <stop stop-color="#DB359E" offset="68.9%"></stop>
            <stop stop-color="#CE37A4" offset="72.4%"></stop>
            <stop stop-color="#AC3CB4" offset="78.9%"></stop>
            <stop stop-color="#7544CF" offset="87.7%"></stop>
            <stop stop-color="#2B4FF2" offset="98%"></stop>
        </radialGradient>
    </defs>
    <g id="instagram" stroke="none" stroke-width="1" fill="none" fill-rule="evenodd">
        <g id="icons8-instagram" fill-rule="nonzero">
            <path d="M62.6086957,80 L17.3913043,80 C7.82608696,80 0,72.173913 0,62.6086957 L0,17.3913043 C0,7.82608696 7.82608696,0 17.3913043,0 L62.6086957,0 C72.173913,0 80,7.82608696 80,17.3913043 L80,62.6086957 C80,72.173913 72.173913,80 62.6086957,80 Z" id="Path" fill="url(#radialGradient-1)"></path>
            <path d="M40,15.6521739 C48,15.6521739 48.8695652,15.6521739 52,15.826087 C54.9565217,16 56.5217391,16.5217391 57.5652174,16.8695652 C58.9565217,17.3913043 60,18.0869565 61.0434783,19.1304348 C62.0869565,20.173913 62.7826087,21.2173913 63.3043478,22.6086957 C63.6521739,23.6521739 64.173913,25.2173913 64.3478261,28.173913 C64.3478261,31.1304348 64.3478261,32 64.3478261,40 C64.3478261,48 64.3478261,48.8695652 64.173913,52 C64,54.9565217 63.4782609,56.5217391 63.1304348,57.5652174 C62.6086957,58.9565217 61.9130435,60 60.8695652,61.0434783 C59.826087,62.0869565 58.7826087,62.7826087 57.3913043,63.3043478 C56.3478261,63.6521739 54.7826087,64.173913 51.826087,64.3478261 C48.8695652,64.3478261 48,64.3478261 40,64.3478261 C32,64.3478261 31.1304348,64.3478261 28,64.173913 C25.0434783,64 23.4782609,63.4782609 22.4347826,63.1304348 C21.0434783,62.6086957 20,61.9130435 18.9565217,60.8695652 C17.9130435,59.826087 17.2173913,58.7826087 16.6956522,57.3913043 C16.3478261,56.3478261 15.826087,54.7826087 15.6521739,51.826087 C15.6521739,48.8695652 15.6521739,48 15.6521739,40 C15.6521739,32 15.6521739,31.1304348 15.826087,28 C16,25.0434783 16.5217391,23.4782609 16.8695652,22.4347826 C17.3913043,21.0434783 18.0869565,20 19.1304348,18.9565217 C20.173913,17.9130435 21.2173913,17.2173913 22.6086957,16.6956522 C23.6521739,16.3478261 25.2173913,15.826087 28.173913,15.6521739 C31.1304348,15.6521739 32,15.6521739 40,15.6521739 M40,10.4347826 C32,10.4347826 30.9565217,10.4347826 27.826087,10.6086957 C24.6956522,10.7826087 22.6086957,11.3043478 20.6956522,12 C18.7826087,12.6956522 17.0434783,13.7391304 15.4782609,15.4782609 C13.9130435,17.2173913 12.8695652,18.7826087 12,20.6956522 C11.3043478,22.6086957 10.7826087,24.6956522 10.6086957,27.826087 C10.4347826,30.9565217 10.4347826,32 10.4347826,40 C10.4347826,48 10.4347826,49.0434783 10.6086957,52.173913 C10.7826087,55.3043478 11.3043478,57.3913043 12,59.3043478 C12.6956522,61.2173913 13.7391304,62.9565217 15.4782609,64.5217391 C17.0434783,66.0869565 18.7826087,67.1304348 20.6956522,68 C22.6086957,68.6956522 24.6956522,69.2173913 27.826087,69.3913043 C30.9565217,69.5652174 32,69.5652174 40,69.5652174 C48,69.5652174 49.0434783,69.5652174 52.173913,69.3913043 C55.3043478,69.2173913 57.3913043,68.6956522 59.3043478,68 C61.2173913,67.3043478 62.9565217,66.2608696 64.5217391,64.5217391 C66.0869565,62.9565217 67.1304348,61.2173913 68,59.3043478 C68.6956522,57.3913043 69.2173913,55.3043478 69.3913043,52.173913 C69.5652174,49.0434783 69.5652174,48 69.5652174,40 C69.5652174,32 69.5652174,30.9565217 69.3913043,27.826087 C69.2173913,24.6956522 68.6956522,22.6086957 68,20.6956522 C67.3043478,18.7826087 66.2608696,17.0434783 64.5217391,15.4782609 C62.7826087,13.9130435 61.2173913,12.8695652 59.3043478,12 C57.3913043,11.3043478 55.3043478,10.7826087 52.173913,10.6086957 C49.0434783,10.4347826 48,10.4347826 40,10.4347826 L40,10.4347826 Z" id="Shape" fill="#FFFFFF"></path>
            <path d="M40,24.3478261 C31.3043478,24.3478261 24.3478261,31.3043478 24.3478261,40 C24.3478261,48.6956522 31.3043478,55.6521739 40,55.6521739 C48.6956522,55.6521739 55.6521739,48.6956522 55.6521739,40 C55.6521739,31.3043478 48.6956522,24.3478261 40,24.3478261 Z M40,50.4347826 C34.2608696,50.4347826 29.5652174,45.7391304 29.5652174,40 C29.5652174,34.2608696 34.2608696,29.5652174 40,29.5652174 C45.7391304,29.5652174 50.4347826,34.2608696 50.4347826,40 C50.4347826,45.7391304 45.7391304,50.4347826 40,50.4347826 Z" id="Shape" fill="#FFFFFF"></path>
            <circle id="Oval" fill="#FFFFFF" cx="55.6521739" cy="24.3478261" r="3.47826087"></circle>
        </g>
    </g>
</svg>