<?xml version="1.0" encoding="utf-8"?>
<!-- Generator: Adobe Illustrator 26.0.3, SVG Export Plug-In . SVG Version: 6.00 Build 0)  -->
<svg version="1.1" id="Layer_1" xmlns="http://www.w3.org/2000/svg" xmlns:xlink="http://www.w3.org/1999/xlink" x="0px" y="0px"
	 viewBox="0 0 1000 1000" style="enable-background:new 0 0 1000 1000;" xml:space="preserve">
<style type="text/css">
	.st0{fill:url(#SVGID_1_);}
	.st1{fill:#662113;}
	.st2{fill:#C1694F;}
	.st3{fill-opacity:0.2;}
	.st4{fill:#FFE8B6;}
	.st5{fill:#FFCC4D;}
	.st6{fill:#7E6EF1;}
	.st7{fill:#B38FF8;}
	.st8{fill:#7A6BF1;}
	.st9{fill:#CA9CFB;}
	.st10{fill:#AA8DD8;}
	.st11{fill-rule:evenodd;clip-rule:evenodd;fill:#FFFFFF;}
</style>
<g>
	
		<linearGradient id="SVGID_1_" gradientUnits="userSpaceOnUse" x1="243.6479" y1="756.6514" x2="244.6479" y2="756.6514" gradientTransform="matrix(693.0196 0 0 -374.5771 -168698.1719 284216.9688)">
		<stop  offset="0" style="stop-color:#CE9FFC"/>
		<stop  offset="1" style="stop-color:#7568F0"/>
	</linearGradient>
	<path class="st0" d="M154.6,605.4c0,0,42.4,152.7,53.3,226.1C220.3,914.4,303.1,980,501.1,980S782,914.4,794.3,831.5
		c11-73.4,53.3-226.1,53.3-226.1H154.6z"/>
	<path class="st1" d="M157.1,607.9c6.7,32.5,18.5,53.1,35.8,42.5c17.3-10.7,44-5.1,35.8,16.7c-7.5,20,25.8,29.2,40,17.5
		c13.6-11.2,41.4-23.5,44.1,1.7c2.5,23.3,31.1,29.6,44.1,12.5c13.3-17.5,50-10.5,56.6,10.8c6.7,21.3,42.5,18.3,52.5,3.3
		c9.5-14.2,19-23.6,35-23.6v-0.6c16,0,25.5,9.9,35,24.1c10,15,45.8,18,52.5-3.3c6.7-21.3,43.3-28.3,56.6-10.8
		c13,17.1,41.6,10.8,44.1-12.5c2.7-25.1,30.6-12.8,44.1-1.7c14.2,11.7,47.5,2.5,40-17.5c-8.2-21.8,18.5-27.3,35.8-16.7
		c17.3,10.7,29.2-10,35.8-42.5H157.1z"/>
	<path class="st2" d="M900.9,527.9c0-131.1-179.4-237.4-400.7-237.4c-221.3,0-400.7,106.3-400.7,237.4
		c0,105.8,239.9,160.8,400.7,160.8S900.9,635.4,900.9,527.9z"/>
	<path class="st3" d="M501.1,968.6c-7.4,0-13.3-6-13.3-13.3V724.8c0-7.4,6-13.3,13.3-13.3c7.4,0,13.3,6,13.3,13.3v230.5
		C514.5,962.6,508.5,968.6,501.1,968.6z M322.6,934.8c-6.6,0-12.3-4.9-13.2-11.6l-27.5-212.8c-0.9-7.3,4.2-14,11.5-15
		c7.3-1.1,14,4.2,14.9,11.5l27.5,212.8c0.9,7.3-4.2,14-11.5,15C323.7,934.7,323.1,934.8,322.6,934.8z M407.3,960.8
		c-6.9,0-12.7-5.3-13.3-12.2l-18.9-227.1c-0.6-7.3,4.9-13.8,12.2-14.4c7.5-0.6,13.8,4.9,14.4,12.2l18.9,227.1
		c0.6,7.3-4.9,13.8-12.2,14.4L407.3,960.8z M248.5,879.7c-4.7,0-8.8-3.3-9.8-8l-40-198.3c-1.1-5.4,2.4-10.7,7.8-11.8
		c5.3-1.3,10.7,2.4,11.8,7.8l40,198.3c1.1,5.4-2.4,10.7-7.8,11.8C249.8,879.7,249.1,879.7,248.5,879.7z M677.6,931.8
		c-0.6,0-1.3-0.1-1.9-0.1c-7.3-1-12.3-7.8-11.3-15.1l30.1-209.7c1-7.3,7.9-12.2,15.1-11.3c7.3,1,12.3,7.8,11.3,15.1l-30.1,209.7
		C689.8,927,684.1,931.8,677.6,931.8z M596.5,960.8l-1.1-0.1c-7.3-0.6-12.8-7.1-12.2-14.4l18.9-227.1c0.6-7.4,7.8-12.6,14.4-12.2
		c7.3,0.6,12.8,7.1,12.2,14.4l-18.9,227.1C609.2,955.5,603.4,960.8,596.5,960.8z M756,880.8c-0.6,0-1.3-0.1-1.9-0.2
		c-5.4-1-9-6.3-7.9-11.7l38.3-199.3c1-5.4,6.4-9,11.7-7.9c5.4,1,9,6.3,7.9,11.7l-38.3,199.3C764.9,877.5,760.7,880.8,756,880.8z"/>
	<path class="st4" d="M472.1,22c0,0,29,30.5,58,31.1c60.5,1.3,116.1,35.1,116.1,93.5c0,0,140.2,0,145.1,124.6c0,0,70.8,1.2,87,124.5
		c12.1,92.1-81,219.3-377.1,218C240,612.5,106.5,519.8,124,395.8c16.9-119.4,116.1-124.6,116.1-124.6s-17-155.7,174-155.7
		C414.1,115.5,433.4,53.2,472.1,22L472.1,22z"/>
	<path class="st5" d="M498.7,302.3c78.3-29.5,149.9-83,147.5-155.7c0-22.9-8.7-41.8-22.7-56.6c17.1,74.8-97.3,159.9-223.9,173.4
		c-158.4,16.9-140.2-76.6-140.2-76.6l-0.2,0.2c-23.5,40.9-19.1,84.2-19.1,84.2C264.2,334.7,388.7,343.8,498.7,302.3L498.7,302.3z"/>
	<path class="st5" d="M791.3,271.2c-0.2-3.8-0.8-7.1-1.2-10.7c-3.1-18-12.1-40.1-20.6-57c-5.1-7.1-10.7-13.3-16.8-18.7
		c29.6,118-148.3,259.9-318,292.7C213.4,520.3,124,395.8,124,395.8c-9.1,64.4,22.9,120.2,91.9,159.3
		C488.5,666.2,793.6,392.6,791.3,271.2L791.3,271.2z"/>
	<path class="st6" d="M252.9,400.8l-31.5,43c-8.7,11.8-25.4,14.4-37.3,5.8c-11.8-8.7-14.4-25.4-5.8-37.3l31.5-43
		c8.7-11.8,25.4-14.4,37.3-5.8C259,372.2,261.6,389,252.9,400.8z"/>
	<path class="st6" d="M457.8,64.2l53.3-0.5c14.7-0.1,26.8,11.8,26.9,26.4c0.1,14.7-11.8,26.8-26.4,26.9l-53.3,0.5
		c-14.7,0.1-26.8-11.8-26.9-26.4C431.2,76.4,443.1,64.3,457.8,64.2z"/>
	<path class="st7" d="M419.4,240.5l-52.1-11.2c-14.3-3.1-23.6-17.3-20.5-31.6c3.1-14.3,17.3-23.6,31.6-20.5l52.1,11.2
		c14.3,3.1,23.6,17.3,20.5,31.6C448,234.4,433.8,243.6,419.4,240.5L419.4,240.5z"/>
	<path class="st7" d="M694.6,548.4l-16.1-50.8c-4.4-14,3.4-29.1,17.3-33.5c14-4.4,29.1,3.4,33.5,17.3l16.1,50.8
		c4.4,14-3.4,29.1-17.3,33.5C714.1,570.2,699,562.4,694.6,548.4L694.6,548.4z"/>
	<path class="st8" d="M459.3,400.1l35,40.2c9.6,11.1,8.4,28-2.6,37.6c-11.1,9.6-28,8.4-37.6-2.6l-35-40.2c-9.6-11.1-8.4-28,2.6-37.6
		C432.8,387.9,449.7,389,459.3,400.1z"/>
	<path class="st8" d="M719.2,183.1l11.1,52.1c3.1,14.3-6.2,28.6-20.5,31.6c-14.3,3.1-28.6-6.2-31.6-20.5l-11.1-52.1
		c-3.1-14.3,6.2-28.6,20.5-31.6C701.9,159.5,716.1,168.7,719.2,183.1z"/>
	<path class="st9" d="M615,351.8l-49.9,18.8c-13.7,5.2-29.2-1.8-34.4-15.5c-5.2-13.7,1.8-29.2,15.5-34.4l49.9-18.8
		c13.7-5.2,29.2,1.8,34.4,15.5C635.7,331.2,628.7,346.6,615,351.8L615,351.8z"/>
	<path class="st10" d="M830.7,396.8L804.1,443c-7.3,12.7-23.7,17.1-36.4,9.8c-12.7-7.3-17.1-23.7-9.8-36.4l26.7-46.2
		c7.3-12.7,23.7-17.1,36.4-9.8S838.1,384.1,830.7,396.8z"/>
</g>
<image style="display:none;overflow:visible;enable-background:new    ;" width="333" height="275" xlink:href="85D10BCD182BF32E.png"  transform="matrix(1 0 0 1 333 699)">
</image>
<g>
	<path class="st11" d="M501.1,770.7c-14.3,0-82.7,53.3-94.4,53.3c-12.6,0-91.8-30.6-100.9-24.5c-5.1,11,77.6,97.6,100.1,97.6
		c22.1,0,87.6-46.1,95.2-46.1s73.1,46.1,95.2,46.1c22.5,0,105.2-86.6,100.1-97.6c-9.1-6.2-88.3,24.5-100.9,24.5
		C583.8,824,515.4,770.7,501.1,770.7z"/>
</g>
</svg>
