<svg height="80" viewBox="0 0 80 80" width="80" xmlns="http://www.w3.org/2000/svg"><path d="m76.1710084 22.92625c-2.641875-5.705625-6.46625-10.5053125-11.53125-14.53625.135 2.73625.429375 8.58875.429375 8.58875s.3153125.4146875.44375.5940625c5.1184375 7.14875 6.9890625 15.0721875 5.2840625 23.6784375-3.41875 17.256875-20.2409375 27.784375-37.28875 23.480625-14.9662498-3.7784375-24.96187481-19.08125-22.1315623-34.2528125 2.234375-11.9771875 9.313125-19.9559375 20.8078123-24.0103125l.4165625-.1575.326875-.241875c1.393125-1.97 2.7525-3.9640625 4.2028125-6.069375-17.4209373.863125-34.94187482 14.84-36.94937482 36.100625-1.9425 20.5725 11.92781252 38.9190625 31.74874982 42.945 20.655 4.1953125 40.3178125-7.990625 46.2596875-27.4925 2.97125-9.751875 2.2759375-19.35125-2.01875-28.626875zm-49.1596873 12.86625c.87125 8.2771875 8.0456248 13.918125 16.3446873 13.0009375 8.15375-.90125 14.114375-8.8778125 12.5709375-16.9475-1.203125-6.291875-2.5328125-12.559375-3.80875-18.8371875-.5278125-2.5978125-1.061875-5.1946875-1.6221875-7.9346875-.220625.1940625-.323125.2759375-.4165625.3675-2.79375 2.73875-5.5859375 5.4790625-8.3796875 8.2178125-3.401875 3.3353125-6.7990625 6.675-10.2090625 10.001875-3.4199998 3.3365625-4.9768748 7.4084375-4.4793748 12.13125z" fill="#0072c6" fill-rule="evenodd"/></svg>