<svg height="80" width="80" xmlns="http://www.w3.org/2000/svg"><path d="M76.171 22.926C73.529 17.221 69.705 12.421 64.64 8.39c.135 2.736.43 8.589.43 8.589s.314.414.443.594c5.118 7.149 6.989 15.072 5.284 23.678-3.419 17.257-20.241 27.785-37.289 23.48-14.966-3.778-24.962-19.08-22.131-34.252C13.61 18.502 20.69 10.523 32.184 6.47l.417-.158.327-.242C34.32 4.1 35.68 2.105 37.13 0 19.71.863 2.189 14.84.18 36.1-1.76 56.674 12.11 75.02 31.931 79.047c20.654 4.195 40.317-7.991 46.259-27.493 2.971-9.752 2.276-19.351-2.019-28.627zm-49.16 12.867c.872 8.277 8.046 13.918 16.345 13 8.154-.9 14.114-8.877 12.57-16.947-1.202-6.292-2.532-12.56-3.808-18.837-.528-2.598-1.062-5.195-1.622-7.935-.22.194-.323.276-.417.368-2.793 2.738-5.585 5.479-8.38 8.217-3.401 3.336-6.798 6.675-10.208 10.002-3.42 3.337-4.977 7.409-4.48 12.132z" fill="#0072c6" fill-rule="evenodd"/></svg>