<svg version="1.1" viewBox="0 0 100 100" xmlns="http://www.w3.org/2000/svg">
 <defs>
  <style>.st0 {
        fill: none;
      }

      .st1 {
        fill: #0060ff;
      }

      .st1, .st2 {
        fill-rule: evenodd;
      }

      .st2 {
        fill: url(#linear-gradient);
      }</style>
  <linearGradient id="linear-gradient" x1="1741.9" x2="1724" y1="-434.34" y2="-481.73" gradientTransform="translate(-843.52 -171.24) scale(.51 -.51)" gradientUnits="userSpaceOnUse">
   <stop stop-color="#0084ff" offset="0"/>
   <stop stop-color="#0060ff" offset="1"/>
  </linearGradient>
 </defs>
 <g image-rendering="optimizeQuality" shape-rendering="geometricPrecision" text-rendering="geometricPrecision">
  <path class="st0" d="m39.31 89.35c13.03 4.9 27.56-1.7 32.45-14.72 4.9-13.03-1.7-27.56-14.72-32.45l-4.34 11.56c6.64 2.5 10.01 9.91 7.51 16.55s-9.91 10.01-16.55 7.51l-4.34 11.56z"/>
  <path class="st1" d="M86.65,53.31l-29.61-11.13-4.34,11.56h0s0,0,0,0c-6.64-2.5-14.06.86-16.55,7.51-2.5,6.64.86,14.06,7.51,16.55l-4.34,11.56c-13.03-4.9-19.62-19.43-14.72-32.45,4.9-13.03,19.43-19.62,32.45-14.72,8.63,3.24,14.44,10.72,15.95,19.18l9.32,3.5-1.68,4.46c-.35.94.13,2,1.07,2.36l8.13,3.05c.94.35,2-.13,2.36-1.07l7.7-20.48c.35-.94-.13-2-1.07-2.36l-8.13-3.05c-.94-.35-2,.13-2.36,1.07l-1.68,4.46h0Z"/>
  <path class="st2" d="M57.04,42.18l-16.87-6.34L19.86,11.19c-.53-.65-1.23-1.71-2.05-2.02-1.15-.43-2.43.15-2.86,1.3v.04h-.01l-7.39,19.66L.16,49.84H.16s-.01.04-.01.04c-.43,1.15.15,2.43,1.3,2.86.82.31,2.04-.03,2.87-.17l31.51-5.17,16.87,6.34h0c6.64,2.5,10,9.91,7.5,16.55-2.5,6.64-9.91,10.01-16.55,7.51l-4.34,11.56c13.03,4.9,27.56-1.7,32.45-14.72,1.65-4.39,2-8.96,1.23-13.27h0c-1.51-8.46-7.32-15.94-15.95-19.18h0ZM52.7,53.74l4.34-11.56"/>
 </g>
</svg>
