<?xml version="1.0" encoding="utf-8"?>
<!-- Generator: Adobe Illustrator 27.1.1, SVG Export Plug-In . SVG Version: 6.00 Build 0)  -->
<svg version="1.1" id="svg5" xmlns:svg="http://www.w3.org/2000/svg"
	 xmlns="http://www.w3.org/2000/svg" xmlns:xlink="http://www.w3.org/1999/xlink" x="0px" y="0px" viewBox="0 0 1280 1280"
	 style="enable-background:new 0 0 1280 1280;" xml:space="preserve">
<style type="text/css">
	.st0{fill:#0081FB;}
	.st1{fill:url(#Logo1_00000158744399230407573250000016073108122180156332_);}
	.st2{fill:url(#Logo2_00000172399760339615717640000008608732088824981937_);}
</style>
<g id="layer1" transform="translate(1809.6205,-3011.4315)">
	<g id="g2714" transform="matrix(0.25199933,0,0,0.25199933,-1353.5974,2252.5528)">
		<path id="Logo0" class="st0" d="M-1261,6089.2c0,193.9,42.6,342.9,98.2,432.9c73,118,181.8,168,292.7,168
			c143.1,0,274-35.5,526.2-384.4c202.1-279.6,440.2-672.1,600.4-918.2l271.3-416.9c188.5-289.5,406.6-611.3,656.7-829.5
			c204.2-178.1,424.5-277,646.1-277c372.2,0,726.7,215.7,998,620.2c296.9,443,441.1,1001,441.1,1576.8
			c0,342.3-67.5,593.9-182.3,792.6C2976.5,7046,2760.3,7238,2396.6,7238v-547.9c311.4,0,389.1-286.2,389.1-613.6
			c0-466.7-108.8-984.6-348.5-1354.6c-170.1-262.5-390.5-422.9-633.1-422.9c-262.3,0-473.4,197.8-710.6,550.6
			c-126.1,187.4-255.6,415.8-401,673.5l-160,283.5c-321.5,570-402.9,699.8-563.6,914.1c-281.7,375.2-522.3,517.4-839,517.4
			c-375.7,0-613.3-162.7-760.4-407.9c-120.1-199.8-179.1-461.9-179.1-760.6L-1261,6089.2z"/>
		
			<linearGradient id="Logo1_00000047051424080476585800000003332698829257355677_" gradientUnits="userSpaceOnUse" x1="-642.1219" y1="6049.1387" x2="10.6254" y2="6016.1714" gradientTransform="matrix(1.3502 0 0 -1.3502 158.4613 13631.3203)">
			<stop  offset="0" style="stop-color:#0064E1"/>
			<stop  offset="0.4" style="stop-color:#0064E1"/>
			<stop  offset="0.83" style="stop-color:#0073EE"/>
			<stop  offset="1" style="stop-color:#0082FB"/>
		</linearGradient>
		<path id="Logo1" style="fill:url(#Logo1_00000047051424080476585800000003332698829257355677_);" d="M-1377,4523.1
			c251.5-387.7,614.5-658.9,1030.9-658.9c241.1,0,480.8,71.4,731.1,275.7c273.8,223.4,565.6,591.4,929.6,1197.8l130.5,217.6
			c315.1,525,494.4,795,599.3,922.4c135,163.6,229.5,212.3,352.2,212.3c311.4,0,389.1-286.2,389.1-613.6l484-15.2
			c0,342.3-67.5,593.9-182.3,792.6C2976.5,7046,2760.3,7238,2396.6,7238c-226.1,0-426.4-49.1-647.9-258.1
			c-170.3-160.4-369.3-445.3-522.5-701.4l-455.5-761c-228.6-381.9-438.2-666.6-559.6-795.6C80.6,4583.3-87.2,4415.9-355,4415.9
			c-216.7,0-400.8,152.1-554.8,384.7L-1377,4523.1z"/>
		
			<linearGradient id="Logo2_00000042700911735321229410000018044824320705331115_" gradientUnits="userSpaceOnUse" x1="-915.6821" y1="5415.3159" x2="-915.6821" y2="5655.9756" gradientTransform="matrix(1.3502 0 0 -1.3502 158.4613 13631.3203)">
			<stop  offset="0" style="stop-color:#0082FB"/>
			<stop  offset="1" style="stop-color:#0064E0"/>
		</linearGradient>
		<path id="Logo2" style="fill:url(#Logo2_00000042700911735321229410000018044824320705331115_);" d="M-355,4415.9
			c-216.7,0-400.8,152.1-554.8,384.7C-1127.6,5129.3-1261,5619-1261,6089.2c0,193.9,42.6,342.9,98.2,432.9l-467.7,308.1
			c-120.1-199.8-179.1-461.9-179.1-760.6c0-543.2,149.1-1109.3,432.6-1546.5c251.5-387.7,614.5-658.9,1030.9-658.9L-355,4415.9z"/>
	</g>
</g>
</svg>
