<svg version="1.2" baseProfile="tiny-ps" xmlns="http://www.w3.org/2000/svg" viewBox="0 0 512 512" width="1024" height="1024">
	<title>icon-svg</title>
	<style>
		tspan { white-space:pre }
		.shp0 { fill: #ece9d4 } 
		.shp1 { fill: #814910 } 
	</style>
	<path id="Layer" class="shp0" d="M0 15C0 6.72 6.72 0 15 0L497 0C505.28 0 512 6.72 512 15L512 497C512 505.28 505.28 512 497 512L15 512C6.72 512 0 505.28 0 497L0 15Z" />
	<path id="Layer" fill-rule="evenodd" class="shp1" d="M380.2 73C379.8 146 380.9 229 380 319C379 335 378 351 374 367C364 411 335 436 291 443C257 449 223 447 191 431C164 418 147 397 145 365L178 365C199 414 256 433 304 408C326 397 336 377 340 354C343 336 344 317 345 298C341 303 335 308 329 313C318 323 302 331 286 334C236 348 173 327 151 277C130 229 129 181 149 133C180 59 291 35 345 110L345 73L380.2 73ZM340.4 251C350.4 222 349.4 192 342.4 162C335.4 133 319.4 112 298.4 101C292.4 99 276.4 90 256.4 92C256.4 92 256.3 92 255.4 92.1C216.4 93.1 185.4 119.1 174.4 162.1C167.4 191.1 167.4 221.1 177.4 250.1C189.4 285.1 216.4 306.1 252.4 308.1C252.7 308.1 252.8 308.1 253 308C258 308.2 263 308.1 264 308C289 307 306 295 309 293C323 283 334 269 340 251L340.4 251Z" />
</svg>