<svg height="457" viewBox="0 0 457 437" width="457" xmlns="http://www.w3.org/2000/svg" xmlns:xlink="http://www.w3.org/1999/xlink"><defs><filter id="b" height="200%" width="200%" x="-50%" y="-50%"><feOffset dy="27" in="SourceAlpha" result="shadowOffsetInner1"/><feGaussianBlur in="shadowOffsetInner1" result="shadowBlurInner1" stdDeviation="6.5"/><feComposite in="shadowBlurInner1" in2="SourceAlpha" k2="-1" k3="1" operator="arithmetic" result="shadowInnerInner1"/><feColorMatrix in="shadowInnerInner1" result="shadowMatrixInner1" values="0 0 0 0 0 0 0 0 0 0 0 0 0 0 0 0 0 0 0.7 0"/><feMerge><feMergeNode in="SourceGraphic"/><feMergeNode in="shadowMatrixInner1"/></feMerge></filter><filter id="d" height="200%" width="200%" x="-50%" y="-50%"><feOffset dy="12" in="SourceAlpha" result="shadowOffsetOuter1"/><feGaussianBlur in="shadowOffsetOuter1" result="shadowBlurOuter1"/><feColorMatrix in="shadowBlurOuter1" result="shadowMatrixOuter1" values="0 0 0 0 0 0 0 0 0 0 0 0 0 0 0 0 0 0 0.7 0"/><feOffset dy="-21" in="SourceAlpha" result="shadowOffsetInner1"/><feGaussianBlur in="shadowOffsetInner1" result="shadowBlurInner1"/><feComposite in="shadowBlurInner1" in2="SourceAlpha" k2="-1" k3="1" operator="arithmetic" result="shadowInnerInner1"/><feColorMatrix in="shadowInnerInner1" result="shadowMatrixInner1" values="0 0 0 0 0.799641927 0 0 0 0 0.744202558 0 0 0 0 0.670283399 0 0 0 0.7 0"/><feMerge><feMergeNode in="shadowMatrixOuter1"/><feMergeNode in="SourceGraphic"/><feMergeNode in="shadowMatrixInner1"/></feMerge></filter><filter id="e" height="200%" width="200%" x="-50%" y="-50%"><feGaussianBlur in="SourceGraphic" result="blur" stdDeviation="11.676"/></filter><filter id="f" height="200%" width="200%" x="-50%" y="-50%"><feGaussianBlur in="SourceGraphic" result="blur" stdDeviation="24.993"/></filter><filter id="g" height="200%" width="200%" x="-50%" y="-50%"><feOffset dy="-10" in="SourceAlpha" result="shadowOffsetInner1"/><feGaussianBlur in="shadowOffsetInner1" result="shadowBlurInner1"/><feComposite in="shadowBlurInner1" in2="SourceAlpha" k2="-1" k3="1" operator="arithmetic" result="shadowInnerInner1"/><feColorMatrix in="shadowInnerInner1" result="shadowMatrixInner1" values="0 0 0 0 0 0 0 0 0 0 0 0 0 0 0 0 0 0 0.7 0"/><feMerge><feMergeNode in="SourceGraphic"/><feMergeNode in="shadowMatrixInner1"/></feMerge></filter><path id="a" d="M412.44 168.568C428.93 150.665 439 126.758 439 100.5 439 44.995 394.005 0 338.5 0c-26.259 0-50.165 10.07-68.068 26.56C254.173 22.28 237.102 20 219.5 20s-34.673 2.28-50.932 6.56C150.665 10.07 126.758 0 100.5 0 44.995 0 0 44.995 0 100.5c0 26.259 10.07 50.165 26.56 68.068C22.28 184.827 20 201.898 20 219.5 20 329.68 109.32 419 219.5 419S419 329.68 419 219.5c0-17.603-2.28-34.673-6.56-50.932zm-7.62-23.082C413.76 132.57 419 116.897 419 100c0-44.183-35.817-80-80-80-16.897 0-32.571 5.239-45.486 14.18 50.65 20.247 91.059 60.657 111.306 111.306zM145.187 34.3C132.527 25.896 117.335 21 101 21c-44.183 0-80 35.817-80 80 0 16.335 4.896 31.526 13.3 44.187C54.546 94.777 94.777 54.547 145.187 34.3z"/><mask id="c" fill="#fff"><use fill-rule="evenodd" xlink:href="#a"/></mask></defs><g fill="none" fill-rule="evenodd" transform="translate(9 9)"><path d="M99 194c52.467 0 95-42.533 95-95S151.467 4 99 4 4 46.533 4 99s42.533 95 95 95zm240 0c52.467 0 95-42.533 95-95S391.467 4 339 4s-95 42.533-95 95 42.533 95 95 95z" fill="#907b62" filter="url(#b)"/><use fill="#907b62" stroke="#000" stroke-width="9" xlink:href="#a"/><path d="M416.043 172.706c.633 5.524.957 11.127.957 16.794 0 93.612-88.424 169.5-197.5 169.5S22 283.112 22 189.5c0-7.07.504-14.039 1.484-20.881C-19.094 135.855-45 92.519-45 45c0-102.173 119.764-185 267.5-185S490-57.173 490 45c0 49.523-28.137 94.501-73.957 127.706z" fill="#beaa90" mask="url(#c)"/><path d="M408.227 154.662C419.984 139.764 427 120.952 427 100.5c0-48.325-39.175-87.5-87.5-87.5-20.188 0-38.78 6.837-53.585 18.322 57.278 20.216 102.563 65.843 122.312 123.34zM153.773 31.08C139.018 19.74 120.547 13 100.5 13 52.175 13 13 52.175 13 100.5c0 20.047 6.741 38.518 18.08 53.273C51.07 96.465 96.466 51.07 153.774 31.08z" fill="#907b62" mask="url(#c)"/><path d="M219 390c44.183 0 80-35.817 80-80s-35.817-80-80-80-80 35.817-80 80 35.817 80 80 80z" fill="#d9cdbd" filter="url(#d)"/><path d="M121.353 210.467c34.142 9.148 67.034-2.897 73.466-26.903s-16.03-50.882-50.172-60.03c-34.142-9.149-67.034 2.896-73.466 26.902-6.433 24.006 16.03 50.882 50.172 60.03zm196.294 0c34.142-9.149 56.605-36.025 50.172-60.031s-39.324-36.05-73.466-26.903c-34.142 9.149-56.605 36.025-50.172 60.031s39.324 36.05 73.466 26.903z" fill="#f6a623" filter="url(#e)"/><path d="M121.353 210.467c34.142 9.148 67.034-2.897 73.466-26.903s-16.03-50.882-50.172-60.03c-34.142-9.149-67.034 2.896-73.466 26.902-6.433 24.006 16.03 50.882 50.172 60.03zm196.294 0c34.142-9.149 56.605-36.025 50.172-60.031s-39.324-36.05-73.466-26.903c-34.142 9.149-56.605 36.025-50.172 60.031s39.324 36.05 73.466 26.903z" fill="#fff" filter="url(#f)"/><path d="M121.353 210.467c34.142 9.148 67.034-2.897 73.466-26.903s-16.03-50.882-50.172-60.03c-34.142-9.149-67.034 2.896-73.466 26.902-6.433 24.006 16.03 50.882 50.172 60.03zm196.294 0c34.142-9.149 56.605-36.025 50.172-60.031s-39.324-36.05-73.466-26.903c-34.142 9.149-56.605 36.025-50.172 60.031s39.324 36.05 73.466 26.903z" fill="#fff"/><path d="M220 328c-20 0-60-40-40-60s60-20 80 0-20 60-40 60z" fill="#4a4a4a" filter="url(#g)" stroke="#979797"/></g></svg>