<?xml version="1.0" encoding="utf-8"?>
<!-- Generator: Adobe Illustrator 19.0.1, SVG Export Plug-In . SVG Version: 6.00 Build 0)  -->
<svg version="1.1" id="Layer_1" xmlns="http://www.w3.org/2000/svg" xmlns:xlink="http://www.w3.org/1999/xlink" x="0px" y="0px"
	 viewBox="-460 218 358 358" style="enable-background:new -460 218 358 358;" xml:space="preserve">
<style type="text/css">
	.st0{fill:#E01B22;}
</style>
<title>Toggl icon</title>
<path class="st0" d="M-281,229c-92.8,0-168,75.2-168,168s75.2,168,168,168c92.8,0,168-75.2,168-168S-188.2,229-281,229z
	 M-292.8,294.4h23.5v117h-23.5V294.4z M-281,483.2c-45.4,0-82.1-36.8-82.1-82.2c0-37,24.7-69.4,60.4-79.2v23.9
	c-22.8,9-37.8,30.9-37.7,55.4c0,32.8,26.6,59.4,59.5,59.4c32.8,0,59.4-26.6,59.4-59.5c0-24.4-15-46.4-37.7-55.3v-24
	c35.7,9.8,60.4,42.3,60.4,79.2C-198.9,446.4-235.6,483.2-281,483.2L-281,483.2z"/>
</svg>
