<?xml version="1.0" encoding="UTF-8"?>
<svg width="2500" height="2500" version="1.1" viewBox="0 -.06 40.36 40.3" xmlns="http://www.w3.org/2000/svg">
<radialGradient id="a" cx="18.762" cy="37.534" r="37.524" gradientTransform="matrix(.93274 0 0 1.0721 2.4862 0)" gradientUnits="userSpaceOnUse">
<stop stop-color="#ff7854" offset="0"/>
<stop stop-color="#fd267d" offset="1"/>
</radialGradient>
<path d="m12.986 16.25c-0.06 0-0.1 0-0.14-0.04-1.36-1.8-1.7-4.9-1.78-6.08-0.02-0.23-0.28-0.35-0.48-0.24-4.2 2.35-8.1 7.93-8.1 13.31 0 9.27 6.43 17.04 17.5 17.04 10.37 0 17.5-8 17.5-17.03 0-11.81-8.43-19.63-15.94-23.17-0.2-0.1-0.42 0.07-0.4 0.28 0.98 6.37-0.36 13.28-8.17 15.95z" fill="url(#a)"/>
</svg>
