<svg viewBox="0 0 2745 2745" xmlns="http://www.w3.org/2000/svg" xml:space="preserve" style="fill-rule:evenodd;clip-rule:evenodd;stroke-linejoin:round;stroke-miterlimit:2"><path d="M2106.5 2553.33H755.212c-64.55 0-116.879-52.32-116.879-116.88V116.879C638.333 52.328 690.662 0 755.212 0H2627.95c64.56 0 116.88 52.328 116.88 116.879v521.454L2106.5 2553.33z" style="fill:#ca64ea;fill-rule:nonzero" transform="translate(0 96)"/><path d="m2744.83 1276.67-319.16 191.5-319.17-191.5V638.333h638.33v638.337z" style="fill:#ae4bd5;fill-rule:nonzero" transform="translate(0 96)"/><path d="m2744.83 1915-319.16 191.5L2106.5 1915v-638.33h638.33V1915z" style="fill:#9332bf;fill-rule:nonzero" transform="translate(0 96)"/><path d="M2106.5 1915h638.33v518.65c0 66.1-53.58 119.68-119.69 119.68H2106.5V1915z" style="fill:#7719aa;fill-rule:nonzero" transform="translate(0 96)"/><path d="M1414.99 510.667H638.334V2106.5h776.656c64.54-.21 116.8-52.47 117.01-117.01V627.673c-.21-64.533-52.47-116.796-117.01-117.006z" style="fill-opacity:.2;fill-rule:nonzero" transform="translate(0 96)"/><path d="M1351.16 574.5H638.333v1595.83h712.827c64.53-.21 116.8-52.47 117.01-117V691.507c-.21-64.534-52.48-116.797-117.01-117.007z" style="fill-opacity:.2;fill-rule:nonzero" transform="translate(0 96)"/><path d="M1351.16 574.5H638.333v1468.17h712.827c64.53-.21 116.8-52.48 117.01-117.01V691.507c-.21-64.534-52.48-116.797-117.01-117.007z" style="fill-opacity:.5;fill-rule:nonzero" transform="translate(0 96)"/><path d="M1287.33 574.5H638.333v1468.17h648.997c64.53-.21 116.79-52.48 117-117.01V691.507c-.21-64.534-52.47-116.797-117-117.007z" style="fill-opacity:.5;fill-rule:nonzero" transform="translate(0 96)"/><path d="M117.007 574.5H1287.33c64.62 0 117 52.386 117 117.007V1861.83c0 64.62-52.38 117-117 117H117.007C52.386 1978.83 0 1926.45 0 1861.83V691.507C0 626.886 52.386 574.5 117.007 574.5z" style="fill:url(#a);fill-rule:nonzero" transform="translate(0 96)"/><path d="M384.66 896.348h158.626l311.698 504.282c14.171 22.6 24.81 40.79 31.917 54.58h2.043a768.082 768.082 0 0 1-4.596-103.41V896.348h135.332v760.642H871.197l-323.38-518.27a403.246 403.246 0 0 1-28.853-53.55h-2.553c3.26 37.74 4.602 75.62 4.021 113.49v458.33H384.66V896.348z" style="fill:#fff;fill-rule:nonzero" transform="translate(0 96)"/><defs><linearGradient id="a" x1="0" y1="0" x2="1" y2="0" gradientUnits="userSpaceOnUse" gradientTransform="scale(1832.752) rotate(59.999 -.162 .247)"><stop offset="0" style="stop-color:#8324b3;stop-opacity:1"/><stop offset=".5" style="stop-color:#7a1bac;stop-opacity:1"/><stop offset="1" style="stop-color:#621197;stop-opacity:1"/></linearGradient></defs></svg>