<?xml version="1.0" encoding="UTF-8" standalone="no"?>
<!-- Created with Inkscape (http://www.inkscape.org/) -->

<svg
   version="1.1"
   id="svg1"
   width="150"
   height="150"
   viewBox="0 0 150 150"
   sodipodi:docname="icon.svg"
   inkscape:version="1.3.2 (091e20ef0f, 2023-11-25, custom)"
   xmlns:inkscape="http://www.inkscape.org/namespaces/inkscape"
   xmlns:sodipodi="http://sodipodi.sourceforge.net/DTD/sodipodi-0.dtd"
   xmlns="http://www.w3.org/2000/svg"
   xmlns:svg="http://www.w3.org/2000/svg">
  <defs
     id="defs1" />
  <sodipodi:namedview
     id="namedview1"
     pagecolor="#ffffff"
     bordercolor="#000000"
     borderopacity="0.25"
     inkscape:showpageshadow="2"
     inkscape:pageopacity="0.0"
     inkscape:pagecheckerboard="0"
     inkscape:deskcolor="#d1d1d1"
     inkscape:zoom="3.4050002"
     inkscape:cx="51.68869"
     inkscape:cy="44.640233"
     inkscape:window-width="1908"
     inkscape:window-height="1038"
     inkscape:window-x="4"
     inkscape:window-y="34"
     inkscape:window-maximized="1"
     inkscape:current-layer="group-R5">
    <inkscape:page
       x="0"
       y="0"
       inkscape:label="1"
       id="page1"
       width="150"
       height="150"
       margin="0"
       bleed="0" />
  </sodipodi:namedview>
  <g
     id="g1"
     inkscape:groupmode="layer"
     inkscape:label="1">
    <g
       id="group-R5">
      <g
         id="g18">
        <path
           id="path2-3"
           d="m 63.3869,8.9289246 c 15.358344,-2.6253936 31.651086,0.1589822 45.07738,8.1315354 11.86796,6.935941 21.51553,17.631141 27.14006,30.175532 3.69246,8.313322 5.8824,17.402701 5.74034,26.521952 0.63416,19.734715 -8.56783,39.360356 -23.7114,51.927876 -9.22142,7.78822 -20.622652,12.98035 -32.562994,14.79694 -5.046761,0.86859 -10.195994,0.67043 -15.292302,0.58787 C 55.72422,140.11939 42.080037,134.41537 31.415023,125.23334 21.268573,116.56333 13.810648,104.77201 10.388867,91.864343 9.3484563,88.174971 8.8365106,84.376766 8.3410783,80.594931 8.1560954,75.819001 7.9810694,71.006666 8.6647496,66.26371 10.402063,51.826429 17.133375,38.077148 27.368942,27.755674 37.029883,17.94575 49.798852,11.221192 63.386888,8.9289373 v 0"
           style="fill:#f36318;fill-opacity:0.25882354;fill-rule:nonzero;stroke:none;stroke-width:0.845535" />
        <path
           id="path3-5"
           d="m 69.368403,20.106081 c 11.811056,-1.205734 23.988659,1.565091 34.089437,7.81446 11.9855,7.312208 20.96933,19.410998 24.40137,33.038669 3.05493,11.738558 2.03098,24.474437 -2.84692,35.572115 -4.88552,11.246265 -13.6639,20.725585 -24.49099,26.449445 -9.466213,5.07652 -20.458203,7.22998 -31.143004,6.1334 C 54.835733,127.79303 41.065988,120.21295 31.996331,108.79159 23.435265,98.176127 19.095286,84.228061 20.165401,70.633463 20.96139,59.050156 25.601951,47.7839 33.188621,39.001306 42.212112,28.356838 55.463292,21.407363 69.368403,20.106081 v 0"
           style="fill:#ffffff;fill-opacity:1;fill-rule:nonzero;stroke:none;stroke-width:0.845535" />
        <path
           id="path4-6"
           d="m 44.322655,45.686972 c 6.229248,-1.027329 12.762376,3.385527 14.020699,9.597709 1.608555,6.160164 -2.378067,13.043324 -8.488348,14.790542 -3.501113,1.063536 -7.467868,0.561225 -10.536236,-1.456586 -4.429096,-2.767825 -6.701476,-8.55111 -5.317589,-13.597763 1.156023,-4.816196 5.423276,-8.637183 10.321474,-9.333902 v 0"
           style="fill:#f36318;fill-opacity:0.25882354;fill-rule:nonzero;stroke:none;stroke-width:0.845535" />
        <path
           id="path5-2"
           d="m 100.293,45.746158 c 6.47681,-1.28437 13.35695,3.468391 14.44009,9.981543 1.68178,7.243042 -4.51094,15.093982 -12.01509,14.826433 C 96.023042,71.029753 89.955294,65.08463 89.892468,58.455701 89.638237,52.408163 94.304905,46.69062 100.293,45.746158 v 0"
           style="fill:#f36318;fill-opacity:0.25716823;fill-rule:nonzero;stroke:none;stroke-width:0.845535" />
      </g>
      <path
         id="path2"
         d="m 18.869475,64.123566 c 2.421867,-0.414 4.99108,0.02507 7.10828,1.282267 1.871467,1.093733 3.3928,2.780266 4.279734,4.758399 0.582266,1.310934 0.9276,2.74424 0.9052,4.182267 0.1,3.111973 -1.351067,6.20676 -3.739067,8.188533 -1.454133,1.228129 -3.252,2.046879 -5.13488,2.333338 -0.795827,0.136979 -1.607813,0.105729 -2.411453,0.09271 -2.216147,-0.150001 -4.367707,-1.049479 -6.04948,-2.497392 -1.6,-1.367187 -2.776045,-3.22656 -3.315628,-5.261987 -0.164063,-0.581773 -0.244792,-1.18072 -0.322917,-1.77708 -0.02917,-0.75312 -0.05677,-1.511973 0.05104,-2.259893 0.273958,-2.276627 1.335423,-4.44476 2.949476,-6.07236 1.52344,-1.546933 3.536987,-2.607333 5.679693,-2.9688 v 0"
         style="fill:#f36318;fill-opacity:1;fill-rule:nonzero;stroke:none;stroke-width:0.133333" />
      <path
         id="path3"
         d="m 19.812702,65.886099 c 1.862493,-0.190133 3.782787,0.2468 5.375587,1.232267 1.89,1.153067 3.306666,3.060933 3.847866,5.209893 0.481734,1.851053 0.320267,3.859387 -0.448933,5.609387 -0.7704,1.773426 -2.154667,3.268226 -3.862,4.170826 -1.492733,0.80052 -3.226067,1.140107 -4.91096,0.967187 -2.293226,-0.208334 -4.464586,-1.40364 -5.894786,-3.20468 -1.35,-1.67396 -2.034374,-3.87344 -1.865627,-6.017187 0.12552,-1.826573 0.857293,-3.60316 2.05364,-4.988093 1.42292,-1.678533 3.512507,-2.7744 5.705213,-2.9796 v 0"
         style="fill:#ffffff;fill-opacity:1;fill-rule:nonzero;stroke:none;stroke-width:0.133333" />
      <path
         id="path4"
         d="m 15.863222,69.919966 c 0.982294,-0.162 2.012507,0.533866 2.210933,1.513466 0.253654,0.9714 -0.374999,2.056814 -1.338533,2.332334 -0.552093,0.167706 -1.177613,0.08855 -1.661466,-0.229694 -0.698427,-0.436453 -1.05676,-1.348426 -0.838534,-2.14424 0.182294,-0.759466 0.8552,-1.362 1.6276,-1.471866 v 0"
         style="fill:#f36318;fill-opacity:1;fill-rule:nonzero;stroke:none;stroke-width:0.133333" />
      <path
         id="path5"
         d="m 24.689222,69.929299 c 1.021333,-0.202533 2.106267,0.546933 2.277067,1.574 0.2652,1.14216 -0.711334,2.380173 -1.894667,2.337987 -1.055733,0.075 -2.01256,-0.862494 -2.022467,-1.907814 -0.04009,-0.95364 0.6958,-1.85524 1.640067,-2.004173 v 0"
         style="fill:#f36318;fill-opacity:1;fill-rule:nonzero;stroke:none;stroke-width:0.133333" />
      <path
         id="path6"
         d="m 76.124154,76.677219 c -0.253067,-0.0026 -0.508267,0.01667 -0.7588,-0.01823 -0.1636,-0.05625 -0.186,-0.238533 -0.179733,-0.385413 0.0011,-2.536987 0,-5.07548 0.0011,-7.614013 -0.0011,-0.349467 0.02653,-0.7428 -0.201066,-1.034933 -0.2584,-0.3344 -0.727067,-0.331734 -1.109334,-0.336 -0.55,0.02507 -1.104666,-0.0452 -1.65,0.04227 0.002,0.133867 0.0025,0.268134 0.0052,0.403067 -0.0057,0.415067 0,0.831333 0,1.2464 0.2968,0.01147 0.601067,-0.02133 0.892134,0.06347 0.1068,0.235466 0.0756,0.495866 0.07867,0.745866 -0.0021,2.445333 0.0016,4.890133 -0.0021,7.33544 -0.0047,0.290107 -0.0047,0.60052 0.15,0.856773 0.114667,0.219787 0.3672,0.295307 0.5844,0.37344 0.731333,0.0083 1.462533,0.0042 2.1948,0.0031 -0.0047,-0.560413 0.0047,-1.121346 -0.0052,-1.681253"
         style="fill:#1d1b1a;fill-opacity:1;fill-rule:nonzero;stroke:none;stroke-width:0.133333" />
      <path
         id="path7"
         d="m 117.47469,76.674619 c -0.23174,10e-4 -0.46414,0.01407 -0.69427,-0.0052 -0.15627,-0.0078 -0.2588,-0.17864 -0.2432,-0.321867 -0.007,-1.07032 10e-4,-2.139587 -0.004,-3.209373 0.003,-0.592707 -0.10773,-1.19688 -0.38373,-1.724467 -0.28707,-0.5464 -0.8272,-0.936933 -1.42453,-1.075067 -0.90267,-0.214 -1.9088,-0.130133 -2.69787,0.386534 -0.43133,0.265066 -0.7672,0.657733 -1.02347,1.09008 0.0844,-0.906214 0.0183,-1.820347 0.0391,-2.730747 -0.0265,-0.4724 0.0921,-0.995866 -0.1708,-1.4224 -0.1964,-0.307333 -0.58867,-0.3516 -0.92093,-0.3692 -0.6088,-0.012 -1.21814,0.0093 -1.82654,-0.0089 -0.0921,0.559867 -0.0208,1.133333 -0.0427,1.6984 0.30306,0.0084 0.612,-0.02707 0.90626,0.06827 0.0339,0.126533 0.0713,0.254666 0.0672,0.387466 -0.001,2.974547 0,5.948493 -0.001,8.924027 0.664,-0.0037 1.32706,0 1.9896,-0.0037 -0.003,-1.264586 -0.003,-2.52916 0,-3.793226 -0.006,-0.604174 0.1656,-1.22032 0.5468,-1.69688 0.41826,-0.534374 1.0964,-0.85468 1.776,-0.82864 0.33866,0.0073 0.7068,0.118746 0.91413,0.406253 0.23013,0.323427 0.276,0.733853 0.28013,1.121347 0.001,1.208853 0.002,2.418226 0,3.628133 0.007,0.27864 0.0115,0.583333 0.17814,0.820307 0.16413,0.242186 0.47146,0.339586 0.75266,0.342706 0.67027,0.0037 1.34214,0.001 2.01307,0 -0.0199,-0.561453 0.0339,-1.12656 -0.0297,-1.683853"
         style="fill:#1d1b1a;fill-opacity:1;fill-rule:nonzero;stroke:none;stroke-width:0.133333" />
      <path
         id="path8"
         d="m 41.450688,75.281392 c -0.138533,0.45156 -0.362,0.896867 -0.742666,1.192707 -0.502667,0.393227 -1.211467,0.513027 -1.809867,0.282293 -0.4792,-0.17292 -0.845333,-0.580733 -1.046933,-1.040106 -0.309867,-0.695307 -0.326534,-1.494267 -0.152534,-2.22604 0.148934,-0.62084 0.566667,-1.209374 1.183334,-1.431774 0.576,-0.211973 1.273333,-0.159893 1.7724,0.217707 0.380666,0.282293 0.636933,0.708853 0.763466,1.161467 0.1688,0.598946 0.167734,1.237493 0.0328,1.843746 z m 0.6188,-4.39476 c -0.778133,-0.598933 -1.8224,-0.768266 -2.773466,-0.5912 -0.7312,0.140667 -1.416134,0.5636 -1.8188,1.1964 -0.0067,-0.2464 0.022,-0.5204 -0.128534,-0.733866 -0.179733,-0.266134 -0.527066,-0.336 -0.827066,-0.347867 -0.605734,-0.0037 -1.211067,0.002 -1.816267,0 -0.0083,0.5624 -0.0025,1.126533 -0.0031,1.689 0.2588,0.0089 0.524,-0.025 0.7812,0.02656 0.193334,0.06147 0.169334,0.284373 0.171867,0.44532 -9.33e-4,2.893747 0.0032,5.788533 -0.002,8.68176 -0.01667,0.0974 0.0156,0.252613 0.149467,0.229173 0.607733,0 1.216666,-0.0026 1.826,0.001 -0.0047,-1.330213 0.0292,-2.662493 -0.01973,-3.991666 0.540134,0.67292 1.395867,1.075 2.259867,1.041146 1.0912,0.05469 2.176533,-0.47344 2.828133,-1.34636 0.7916,-1.040093 0.966134,-2.42604 0.788534,-3.690093 -0.140134,-0.99896 -0.603067,-1.986947 -1.416134,-2.609347"
         style="fill:#1d1b1a;fill-opacity:1;fill-rule:nonzero;stroke:none;stroke-width:0.133333" />
      <path
         id="path9"
         d="m 49.686155,73.368366 c -1.0156,-0.0052 -2.0328,0 -3.048934,-0.0036 0.109334,-0.569267 0.451067,-1.115107 0.979067,-1.380734 0.56,-0.290106 1.2996,-0.336973 1.819867,0.06355 0.406266,0.29896 0.5864,0.79896 0.6468,1.282813 -0.1312,0.01979 -0.263467,0.03749 -0.3968,0.03801 z m -1.0656,-3.1344 c -1.134934,-0.03587 -2.302667,0.402666 -3.0568,1.264666 -0.812534,0.899427 -1.109867,2.16296 -1.0104,3.348907 0.09893,0.838533 0.420266,1.656253 0.977066,2.296867 0.792667,0.92344 2.024,1.42188 3.233334,1.388026 1.181733,0.04219 2.358266,-0.415106 3.247866,-1.187506 -0.280666,-0.45156 -0.555733,-0.90624 -0.825466,-1.364574 -0.525067,0.39844 -1.116667,0.739574 -1.776534,0.835934 -0.771333,0.135413 -1.631333,-0.06615 -2.186533,-0.636454 -0.388,-0.382813 -0.585867,-0.915626 -0.655733,-1.44688 1.828666,-0.0052 3.657333,-0.0026 5.486533,-10e-4 0.146267,-1.19688 -0.05947,-2.508333 -0.883867,-3.434346 -0.633866,-0.7156 -1.6052,-1.080267 -2.549466,-1.0636"
         style="fill:#1d1b1a;fill-opacity:1;fill-rule:nonzero;stroke:none;stroke-width:0.133333" />
      <path
         id="path10"
         d="m 59.315888,76.076699 c -0.7704,0.907813 -2.260933,1.040627 -3.186,0.29584 -0.929733,-0.715107 -1.164533,-2.10104 -0.665067,-3.134373 0.330667,-0.716147 1.052534,-1.229694 1.838,-1.309907 0.669733,-0.07291 1.376,0.1474 1.860933,0.62188 0.957867,0.893227 1.007334,2.54896 0.152134,3.52656 z m 1.464533,-4.558333 c -1.505733,-1.536 -4.129733,-1.7088 -5.871866,-0.478134 -0.922934,0.650534 -1.529734,1.6948 -1.677067,2.811467 -0.0256,0.354693 -0.02453,0.711467 0.0015,1.065107 0.1152,0.813546 0.439066,1.607813 1.001066,2.214586 0.819867,0.916667 2.0568,1.42968 3.281334,1.40104 1.033866,0.03803 2.080666,-0.292706 2.890533,-0.940106 0.981333,-0.757814 1.549466,-2.007814 1.502666,-3.243747 0.02347,-1.04532 -0.4016,-2.083333 -1.128133,-2.830213"
         style="fill:#1d1b1a;fill-opacity:1;fill-rule:nonzero;stroke:none;stroke-width:0.133333" />
      <path
         id="path11"
         d="m 69.253888,75.857952 c -0.209467,0.3974 -0.557334,0.72396 -0.980267,0.884374 -0.6068,0.243226 -1.3516,0.14948 -1.845333,-0.289067 -0.4588,-0.393227 -0.6968,-0.988533 -0.771867,-1.57708 -0.0484,-0.644267 -0.02867,-1.32604 0.277067,-1.911973 0.2344,-0.47188 0.669333,-0.841667 1.183333,-0.97188 0.519333,-0.116147 1.102667,-0.06145 1.5428,0.259893 0.505733,0.356773 0.785333,0.953653 0.878667,1.552613 0.09787,0.690094 0.0588,1.43072 -0.2844,2.05312 z m 0.751066,-5.044253 c -0.7652,-0.542667 -1.757866,-0.684933 -2.667733,-0.519333 -0.733333,0.141733 -1.4188,0.565733 -1.826667,1.198 -0.0124,-0.246934 0.02347,-0.525067 -0.128,-0.7396 -0.181866,-0.264667 -0.5272,-0.3308 -0.826133,-0.342667 -0.604133,-0.0016 -1.2088,0 -1.812933,0 -0.0079,0.564 -0.0021,1.126533 -0.0021,1.69004 0.2588,0.0078 0.522934,-0.02604 0.7792,0.02552 0.1948,0.05781 0.164,0.284373 0.1692,0.444267 -0.0025,2.97032 5.34e-4,5.940626 -0.0011,8.910946 0.658933,0 1.317733,10e-4 1.976666,10e-4 -0.0021,-1.329173 0.0296,-2.660413 -0.01827,-3.989586 0.309866,0.37344 0.706266,0.67708 1.160933,0.8526 0.505733,0.205733 1.061467,0.209906 1.597867,0.17188 1.0912,-0.106774 2.080266,-0.80208 2.608933,-1.755214 0.563466,-1.010413 0.6692,-2.220306 0.494266,-3.347906 -0.156266,-1.010427 -0.652666,-2.004654 -1.504133,-2.599987"
         style="fill:#1d1b1a;fill-opacity:1;fill-rule:nonzero;stroke:none;stroke-width:0.133333" />
      <path
         id="path12"
         d="m 79.078287,73.364726 c 0.1136,-0.54636 0.425067,-1.07552 0.925067,-1.34844 0.549467,-0.310414 1.290133,-0.379654 1.826533,-0.0036 0.441734,0.29948 0.659867,0.833853 0.686,1.35312 -1.145333,0.0016 -2.2928,0.0016 -3.4376,-0.001 z m 2.7724,-3.05516 c -1.026,-0.1912 -2.135333,-0.04533 -3.0312,0.5088 -0.843733,0.504666 -1.423466,1.3724 -1.683333,2.309893 -0.136,0.59792 -0.204667,1.21772 -0.116133,1.827613 0.1292,1.106774 0.719733,2.167707 1.638,2.809894 0.776,0.559893 1.7412,0.79688 2.689066,0.77864 1.133867,-0.01719 2.2536,-0.45052 3.1052,-1.197907 -0.271866,-0.457293 -0.551066,-0.910427 -0.825466,-1.366147 -0.501067,0.389574 -1.072934,0.712494 -1.7048,0.82448 -0.7744,0.15364 -1.649467,-0.02761 -2.221334,-0.59376 -0.406266,-0.384373 -0.6224,-0.93124 -0.688533,-1.47812 1.829733,-0.0063 3.659867,0 5.4896,-0.0036 0.08173,-0.94844 0.03227,-1.954693 -0.448933,-2.801573 -0.437467,-0.841107 -1.2724,-1.44484 -2.202134,-1.618173"
         style="fill:#1d1b1a;fill-opacity:1;fill-rule:nonzero;stroke:none;stroke-width:0.133333" />
      <path
         id="path13"
         d="m 124.46629,75.984512 c -0.514,0.657294 -1.39947,0.986987 -2.21814,0.839587 -0.7256,-0.105213 -1.37133,-0.593747 -1.6932,-1.24844 -0.3172,-0.639587 -0.35106,-1.4052 -0.12346,-2.07864 0.276,-0.82136 1.038,-1.46876 1.90626,-1.562507 0.69107,-0.09323 1.42187,0.141667 1.9208,0.632814 0.90987,0.8698 0.9812,2.438026 0.20774,3.417186 z m 0.7428,-5.002146 c -1.2636,-0.841067 -2.9432,-0.974934 -4.34534,-0.419734 -1.00266,0.3984 -1.84786,1.19792 -2.2588,2.200014 -0.55373,1.343746 -0.3844,2.987493 0.5156,4.143746 0.812,1.066147 2.1624,1.6526 3.49054,1.633854 0.48706,0 0.97146,-0.05937 1.44013,-0.191147 0.724,-0.242187 1.40787,-0.636973 1.91667,-1.213547 1.01466,-1.10052 1.28226,-2.773426 0.78906,-4.169786 -0.28226,-0.806254 -0.84373,-1.505267 -1.54786,-1.9834"
         style="fill:#1d1b1a;fill-opacity:1;fill-rule:nonzero;stroke:none;stroke-width:0.133333" />
      <path
         id="path14"
         d="m 143.49495,70.330899 c -1.30306,-0.217733 -2.5624,0.783333 -2.862,2.024453 -0.0411,-0.461986 0.0391,-0.93592 -0.0739,-1.39112 -0.1172,-0.3656 -0.51307,-0.543733 -0.87347,-0.5516 -0.6464,-0.0079 -1.29067,-0.0011 -1.93747,-0.0031 -0.004,0.562933 0,1.127066 0,1.690573 0.30147,0.0099 0.6224,-0.04844 0.9072,0.08177 0.0329,0.15104 0.0625,0.30364 0.06,0.459374 -0.004,1.906773 0,3.813026 -0.003,5.718226 0.65266,-0.0026 1.3032,0.0042 1.95573,-0.001 -0.002,-0.60312 0,-1.206253 0,-1.807813 0.008,-0.80468 -0.0416,-1.620827 0.1292,-2.411973 0.13907,-0.67448 0.55307,-1.308334 1.17813,-1.62292 0.46254,-0.256774 1.0036,-0.290627 1.5208,-0.244787 -0.003,-0.647413 0.003,-1.293813 -0.002,-1.94008"
         style="fill:#1d1b1a;fill-opacity:1;fill-rule:nonzero;stroke:none;stroke-width:0.133333" />
      <path
         id="path15"
         d="m 92.63722,74.919406 c -0.06253,0.935946 -0.443733,1.89844 -1.204666,2.481773 -0.8344,0.65104 -2.101067,0.70052 -2.955334,0.06095 -0.774933,-0.57292 -1.1552,-1.533867 -1.260933,-2.466147 -0.06507,-0.89896 0.0043,-1.84948 0.455733,-2.64948 0.3516,-0.65104 1,-1.129733 1.7292,-1.2636 0.668267,-0.1348 1.4016,-0.0224 1.966134,0.372933 0.584933,0.410974 0.962533,1.062534 1.138,1.746907 0.161466,0.557293 0.15,1.142187 0.131866,1.716667 z m -1.0792,-4.154107 c -0.657866,-0.373467 -1.437466,-0.429733 -2.176,-0.345867 -0.9376,0.153067 -1.803733,0.7588 -2.178133,1.644254 -0.0104,-0.304694 0.02333,-0.611987 -0.01987,-0.91412 -0.04573,-0.279067 -0.2812,-0.513467 -0.561466,-0.5484 -0.364,-0.05413 -0.734267,-0.04267 -1.1,-0.01773 0.0011,0.195334 0,0.3912 0.0027,0.586534 0.295867,0.002 0.592134,-0.0037 0.888,0.0172 0.222934,0.2968 0.102667,0.683293 0.1156,1.023906 0.0328,1.40052 -0.03493,2.803134 0.0224,4.205734 -0.05827,0.613026 0.03747,1.2276 -0.01827,1.842186 0.02507,0.689067 -0.0244,1.3776 0.0011,2.066667 0.03187,0.385413 -0.04947,0.77604 0.0328,1.158853 0.212,-0.0036 0.426134,-0.0036 0.639067,-0.0026 -0.0036,-1.539066 0.0084,-3.079173 -0.0072,-4.619786 0.2692,0.6276 0.783867,1.136453 1.400533,1.421866 0.556134,0.265627 1.19,0.278654 1.792134,0.2276 0.808266,-0.10156 1.5636,-0.537493 2.067733,-1.17708 0.835333,-1.046866 1.0072,-2.47656 0.8292,-3.768746 C 93.14242,72.451179 92.57722,71.315699 91.55802,70.765299"
         style="fill:#1d1b1a;fill-opacity:1;fill-rule:nonzero;stroke:none;stroke-width:0.133333" />
      <path
         id="path16"
         d="m 95.480954,73.742846 c 0.09533,-0.50312 0.247333,-1.00312 0.5416,-1.42916 0.436533,-0.683854 1.179733,-1.147454 1.977599,-1.273454 0.6292,-0.0692 1.306267,-0.03747 1.849067,0.324534 0.802,0.49736 1.14373,1.47444 1.1744,2.37964 -1.847333,5.2e-4 -3.695333,0.0042 -5.542666,-0.0016 z m 3.651999,-3.32288 c -0.985333,-0.1276 -2.029599,0.07493 -2.835333,0.676533 -1.038,0.7552 -1.563066,2.057813 -1.547466,3.317707 -0.0348,1.15104 0.404266,2.334373 1.2724,3.109373 0.9724,0.89948 2.401066,1.20052 3.678133,0.911453 0.680263,-0.161453 1.309863,-0.5026 1.842803,-0.95416 -0.11467,-0.188026 -0.23547,-0.37136 -0.3532,-0.556253 -1.1,1.05104 -2.896803,1.304693 -4.200536,0.490627 -1.046267,-0.618227 -1.567734,-1.863027 -1.550534,-3.044267 2.076667,-0.0037 4.153733,-0.0037 6.2308,0 0.14587,-1.06772 -0.136,-2.230213 -0.86093,-3.04528 -0.42707,-0.4948 -1.045337,-0.776133 -1.676137,-0.905733"
         style="fill:#1d1b1a;fill-opacity:1;fill-rule:nonzero;stroke:none;stroke-width:0.133333" />
      <path
         id="path17"
         d="m 137.10589,76.674619 c -0.25667,0 -0.514,0.02084 -0.7692,-0.01303 -0.16987,-0.05624 -0.19427,-0.238533 -0.18654,-0.390613 0,-1.953133 0.003,-3.906773 0,-5.859947 -0.66146,-0.0063 -1.32026,0.0032 -1.98013,-0.0025 -0.009,1.148933 -0.003,2.297893 -0.004,3.446853 0.0208,0.693747 -0.11467,1.415627 -0.51667,1.992187 -0.4652,0.69948 -1.40107,1.058853 -2.20893,0.808853 -0.42974,-0.136986 -0.65734,-0.593746 -0.68694,-1.0198 -0.0708,-0.521866 -0.0443,-1.047386 -0.0475,-1.571346 -9.4e-4,-0.90156 0,-1.803654 -9.4e-4,-2.705147 0,-0.2272 -0.0417,-0.468267 -0.19533,-0.6444 -0.1876,-0.228533 -0.5,-0.297867 -0.78133,-0.306133 -0.6484,0 -1.29574,0 -1.94427,5.33e-4 -0.005,0.5624 -0.001,1.126 0,1.689 0.30373,0.01041 0.6224,-0.04219 0.91307,0.08125 0.0797,0.313014 0.0495,0.637494 0.0531,0.957294 0,0.83124 -9.3e-4,1.663013 0.002,2.495306 0.009,0.709374 0.1344,1.460934 0.57974,2.036454 0.3916,0.51928 1.0348,0.79428 1.67026,0.84896 0.5312,0.03229 1.0808,0.03489 1.58494,-0.159894 0.71293,-0.259373 1.33333,-0.790626 1.65986,-1.47968 0.012,0.333334 -0.0599,0.687494 0.0797,1.00416 0.1484,0.329174 0.53066,0.47396 0.87333,0.47552 0.63707,0.0073 1.27347,-0.0031 1.91253,0.0037 -0.005,-0.564067 0.005,-1.125 -0.006,-1.687507"
         style="fill:#1d1b1a;fill-opacity:1;fill-rule:nonzero;stroke:none;stroke-width:0.133333" />
      <path
         id="path18"
         d="m 105.81269,70.857966 c -0.626,0.406266 -1.02867,1.07968 -1.25107,1.78072 0.005,-0.475 0.0376,-0.95104 0.003,-1.42552 -0.0208,-0.2588 -0.19174,-0.506267 -0.44374,-0.582267 -0.3912,-0.1068 -0.80266,-0.05213 -1.20053,-0.06467 -0.002,0.202134 -0.003,0.403734 0.002,0.6052 0.24907,0.0043 0.5,-0.01187 0.75,0.0095 0.18293,0.0156 0.26827,0.226533 0.2516,0.389067 -0.002,2.263506 0.002,4.526533 0,6.788506 0.21773,0.001 0.43653,0.001 0.6536,0.001 0,-1.10052 0.003,-2.20208 0,-3.30208 -0.009,-0.765106 0.13027,-1.535413 0.43333,-2.238546 0.25534,-0.571867 0.63867,-1.12396 1.21107,-1.41452 0.38693,-0.214134 0.83747,-0.248 1.27133,-0.205734 -0.003,-0.2172 -0.003,-0.435466 -0.004,-0.6532 -0.5728,-0.08387 -1.18587,-0.01667 -1.676,0.312534"
         style="fill:#1d1b1a;fill-opacity:1;fill-rule:nonzero;stroke:none;stroke-width:0.133333" />
    </g>
  </g>
</svg>
