<svg version="1.1" viewBox="0 0 100 100" xmlns="http://www.w3.org/2000/svg">
 <defs>
  <style>.st0 {
        fill: #005ea6;
      }

      .st0, .st1 {
        fill-rule: evenodd;
      }

      .st1 {
        fill: #d3202b;
      }</style>
 </defs>
 <path class="st0" d="M41.05,50.22c1.09,1.62,12.11,12.27,13.75,13.91l12.07,11.99c.52.52,1.21,1.48,1.93,1.67.21-.79,7.12-7.32,7.84-8.04l20.03-19.9c2.01-2,3.33-2.53,3.33-5.34,0-2.15-2.03-3.92-4.76-3.92-1.24,0-8.41-.18-9.1.25-.55.34-1.08,4.09-5.8,7.94-3.33,2.75-7.53,4.24-11.86,4.2-4.33,0-8.89-1.86-11.2-3.88-1.4-1.11-2.65-2.38-3.74-3.79-1.85-2.59-1.59-3.07-2.26-4.28-.31-.56.22-.46-2.01-.46-.52,0-1.08,1.66-1.64,2.77-1.47,2.87-3.75,5.25-6.57,6.85Z"/>
 <path class="st1" d="M0,44.51c0,2.65.81,2.84,3.16,5.18l26.11,25.94c.57.56,1.73,1.41,1.93,2.16.68-.18,3-2.74,3.65-3.39,1.43-1.42,10.3-10.07,10.8-10.81-.47-.7-8.27-8.29-9.56-9.58-2.08-2.07-1.27-1.02-4.72-1.02-4.64,0-7.82-1.52-11.23-3.85-1.05-.8-2-1.71-2.85-2.72-.93-1.03-1.7-2.19-2.28-3.44-1.59-3.15.63-2.39-9.41-2.39-1.54,0-2.81.08-3.9.86-1.01.7-1.64,1.83-1.68,3.06h0Z"/>
 <path class="st1" d="M18.88,34.4c0,13.01,17.59,17.69,23.76,5.49,1.65-3.41,1.63-7.38-.06-10.77-6.03-11.93-23.7-7.27-23.7,5.28Z"/>
 <path class="st0" d="M56.16,33.58c0,4.2.78,6.88,3.82,9.91,4.81,4.79,12.72,4.58,17.57-.24,2.21-2.37,3.48-5.46,3.57-8.69,0-11.4-14.03-16.08-21.06-9.01-2.03,2.03-3.9,4.86-3.9,8.04Z"/>
</svg>
