<?xml version="1.0" encoding="utf-8"?>
<!-- Generator: Adobe Illustrator 28.3.0, SVG Export Plug-In . SVG Version: 6.00 Build 0)  -->
<svg version="1.1" id="Layer_1" xmlns="http://www.w3.org/2000/svg" xmlns:xlink="http://www.w3.org/1999/xlink" x="0px" y="0px"
	 viewBox="0 0 512 512" style="enable-background:new 0 0 512 512;" xml:space="preserve">
<g>
	<path d="M412.7,229.96c-6.27,12.38-18.1,18.54-30.4,23.47c-10.92,4.38-22.2,8.81-34.14,6.26c-11.24-2.38-22.05-7.67-30.3-15.2
		c-7.32-6.66-14.76-16.04-16.53-25.28c-3.24-17.05-12.31-34.43-1.96-52.63c2.48-4.38-1.66-12.73,1.02-16.74
		c6.26-9.35,5.32-20.59,10.67-30.49c5-9.24,9.53-19.04,14.7-28.51c9.87-18,28.25-22.75,44.65-30.35c7.55-3.52,15.5,2.05,20.65,6.73
		c12.51,11.38,25.88,22.7,29.5,39.78c1.57,7.41,3.78,14.66,6.19,21.84c3.02,8.98,3.92,18.4,3.56,28.21
		c-0.21,5.69-0.01,11.37,0.34,17.05C431.89,194.28,421.79,212.06,412.7,229.96z"/>
	<path d="M277.49,21.16c2.69-11.7,6.28-16.26,9.78-19.86c0.8-0.83,1.9-1.3,3.06-1.3h5.23c2.51,0,4.44,2.16,4.23,4.67
		c-0.97,11.6-8.05,19.06-16.92,26.17c-0.05-0.02-0.12-0.05-0.17-0.07c9.04,16.86,13.98,27.6,18.19,39.48
		c4.88,13.81,5.1,27.57,2.35,39.39c-3.25,14.06-6.39,28.64-11.29,42.68c-8.09,23.24-21.29,41.86-39.58,57.08
		c-10.1,8.41-24.04,11.21-36.26,10.6c-11.38-0.57-23.94-4.43-32.92-13.88c-5.83-6.15-11.96-12.03-16.16-18.98
		c-0.11-0.18-0.2-0.36-0.28-0.55c-2.82-6.48-5.65-13-9.84-22.61c-0.18-0.41-0.3-0.85-0.34-1.3c-3.44-34.03,13.97-63.59,37.89-89.98
		c15.7-17.32,31.24-35.58,55.06-42.72c0.4-0.12,0.83-0.18,1.25-0.18h21.53c2.06,0,3.82-1.49,4.15-3.52c0-0.01,0-0.02,0.01-0.03"/>
	<path d="M390.48,42.34c-0.96,2.43-1.95,4.96-3.03,7.7c-1.52,3.85-5.76,5.86-9.7,4.6c-0.78-0.25-1.57-0.5-2.35-0.75
		c-3.26-1.04-5.46-4.06-5.46-7.48v-15.7c0-2.65,1.33-5.12,3.55-6.57c0.03-0.02,0.07-0.04,0.1-0.07c3.73-2.44,8.75-1.29,11.05,2.53
		c1.78,2.97,3.5,5.84,5.28,8.81C391.16,37.51,391.38,40.07,390.48,42.34z"/>
	<path d="M468.79,228.77c-0.68,2.96-1.42,6.11-2.23,9.61c-1.28,5.51-7.06,8.69-12.4,6.82c-0.05-0.02-0.1-0.03-0.14-0.05
		c-3.45-1.21-5.89-4.3-6.3-7.93c-0.62-5.5-0.36-10.62,1.49-15.51c2.33-6.16,10.24-7.91,15.14-3.52c0.49,0.44,1,0.9,1.52,1.36
		C468.45,221.86,469.57,225.39,468.79,228.77z"/>
	<path d="M472.35,358.34c-0.18,4.61-5.25,9.41-8.82,13.44c-4.4,4.96-8.99,9.73-13.45,14.31c-3.75,3.85-8.56,6.29-13.54,8.31
		c-0.1,0.04-0.18,0.08-0.27,0.14c-12.58,8.32-25.9,4.31-37.35-0.59c-13.74-5.87-27.25-13.99-36.49-26.41
		c-4.68-6.29-9.04-14.13-9.83-21.64c-0.91-8.52,1.29-17.83,4.01-26.19c6.68-20.65,29.86-49.23,49.36-58.87
		c4.11-2.04,8.69-3.16,13.27-3.95c10.12-1.74,20.47,1.5,27.85,8.64c12.84,12.44,21.48,25.75,23.96,42.22
		C473.56,324.31,473,341.49,472.35,358.34z"/>
	<path d="M366.55,464.63c-5.49,14.2-12.24,27.24-25.84,36.61c-13.84,9.53-31.19,12.27-47.57,8.52c-8.49-1.95-17.67-5.37-26.36-11.07
		c-1.63-1.07-4.16-0.87-5.6-2.08c-11.22-9.36-22.38-18.79-33.36-28.1c-10.42-8.83-23.52-13.98-37.18-14.31
		c-5.69-0.14-11.13,0.18-16.14,1.81c-11.36,3.69-22.1,2.95-33.15,3.51c-10.86,0.55-20.98-0.75-30.37-3.79
		c-24.63-7.98-40.94-31.2-41.26-57.08c-0.11-8.75,0.76-17.56,2.6-26.52c4.4-21.27,13.52-39.36,31.48-51.17
		c11.96-7.86,24.56-15.16,38.52-17.37c13.4-2.12,25.74-8.54,35.04-18.42c1.61-1.71,3.16-3.44,4.66-5.23
		c14.31-17.2,34.09-25.44,54.14-31.61c21.39-6.61,40.53,2.3,57.26,15.94c18.42,15.03,25.45,36.66,32.41,58.07
		c0.84,2.57,1.5,5.2,2.07,7.9c2.44,11.46,7.97,22.08,16.32,30.3c11.23,11.04,19.15,24.61,25.83,40.67
		C381.68,429.21,374.67,443.64,366.55,464.63z"/>
	<path d="M119.47,146.45c-5.12,1.83-8.98,0.47-12.29-3.54c-2.26-2.73-2.36-6.65-0.31-9.54c3.18-4.47,6.45-9.08,9.56-13.45
		c1.56-2.19,4.14-3.43,6.83-3.29c0.04,0,0.07,0,0.11,0.01c4.19,0.22,7.47,3.7,7.46,7.9c0,7.22-3.6,13.22-7.66,19.04
		C122.25,144.88,120.97,145.91,119.47,146.45z"/>
	<path d="M156.72,259.04c-0.02,1.76-0.26,3.52-0.74,5.21c-5.22,18.55-15.91,29.35-28.77,33.75c-11.59,3.96-25.08,9.18-38.61,4.48
		c-8.83-3.07-18.05-5.3-26.34-9.43c-4.88-2.43-8.96-7.4-12.2-12.05c-3.79-5.44-7.97-11.49-8.94-17.77
		c-1.54-9.77-1.6-19.77-1.84-28.32c-0.1-3.56,0.73-7.09,2.45-10.2c16.28-29.5,38.29-49.31,70.39-58.17
		c7.1-1.96,14.55,0.29,19.8,5.46c0.25,0.24,0.5,0.48,0.76,0.71c17.53,15.12,22.94,35.27,23.92,57.11
		C157.09,240.77,156.79,251.73,156.72,259.04z"/>
</g>
</svg>
