<svg xmlns="http://www.w3.org/2000/svg" xmlns:xlink="http://www.w3.org/1999/xlink" xmlns:serif="http://www.serif.com/" width="100%" height="100%" viewBox="0 0 2363 2363" xml:space="preserve" style="fill-rule:evenodd;clip-rule:evenodd;stroke-linejoin:round;stroke-miterlimit:2;">    <g transform="matrix(4.16667,0,0,4.16667,0,0)">        <g transform="matrix(0.24,0,0,0.24,0,0)">            <path d="M2362.5,590.625C2362.5,264.65 2097.85,0 1771.88,0L590.625,0C264.65,0 0,264.65 0,590.625L0,1771.88C0,2097.85 264.65,2362.5 590.625,2362.5L1771.88,2362.5C2097.85,2362.5 2362.5,2097.85 2362.5,1771.88L2362.5,590.625Z" style="fill:white;"></path>        </g>        <g>            <path d="M453.52,356.487C452.666,374.99 442.41,392.002 426.282,401.313L310.787,467.998C293.937,477.726 272.996,477.726 256.146,467.998L140.647,401.313C124.519,392.001 114.263,374.988 113.41,356.487L113.41,210.585C114.263,192.084 124.519,175.071 140.647,165.757L256.146,99.074C264.572,94.21 274.02,91.776 283.467,91.776C292.915,91.776 302.361,94.21 310.787,99.074L426.282,165.757C442.41,175.069 452.666,192.082 453.52,210.585L453.52,356.487ZM436.707,147.702L321.212,81.018C297.927,67.575 268.998,67.579 245.722,81.018L130.223,147.702C107.665,160.726 93.425,184.656 92.56,210.585L92.56,356.487C93.425,382.417 107.665,406.344 130.223,419.37L245.722,486.053C257.364,492.774 270.411,496.134 283.467,496.134C296.514,496.134 309.569,492.772 321.212,486.053L436.707,419.37C459.265,406.346 473.504,382.418 474.369,356.487L474.369,210.585C473.504,184.654 459.265,160.724 436.707,147.702Z" style="fill:rgb(0,64,255);fill-rule:nonzero;"></path>            <path d="M415.048,339.984C414.389,354.3 406.451,367.464 393.974,374.669L304.605,426.267C291.567,433.795 275.365,433.795 262.327,426.267L172.956,374.669C160.478,367.462 152.542,354.298 151.881,339.984L151.881,264.64C155.677,268.639 159.997,272.182 164.891,275.007L254.26,326.605C263.269,331.806 273.364,334.406 283.467,334.406C293.562,334.406 303.663,331.804 312.672,326.605L402.039,275.007C406.932,272.183 411.253,268.64 415.048,264.641L415.048,339.984ZM431.108,226.351C430.194,206.575 419.277,188.383 402.039,178.431L312.672,126.833C294.655,116.432 272.271,116.435 254.26,126.833L164.891,178.431C147.652,188.384 136.735,206.577 135.821,226.351L135.749,226.351C135.752,226.475 135.779,226.596 135.785,226.719C135.779,226.843 135.752,226.963 135.749,227.087L135.749,339.984C136.418,360.045 147.436,378.561 164.891,388.639L254.26,440.238C263.269,445.439 273.364,448.038 283.467,448.038C293.562,448.038 303.663,445.437 312.672,440.238L402.039,388.639C419.493,378.563 430.511,360.047 431.181,339.984L431.181,227.087C431.177,226.963 431.149,226.842 431.145,226.719C431.149,226.595 431.177,226.475 431.181,226.351L431.108,226.351Z" style="fill:rgb(0,64,255);fill-rule:nonzero;"></path>        </g>    </g></svg>
