<svg xmlns="http://www.w3.org/2000/svg" xmlns:xlink="http://www.w3.org/1999/xlink" viewBox="0 0 48 48" version="1.1" width="1024" height="1024">
<g id="surface1">
<path style=" fill:#F50057;" d="M 24 41 C 13.5 41 5 32.5 5 22 L 5 9.898438 C 5 8.300781 6.300781 7 7.898438 7 L 40.101563 7 C 41.699219 7 43 8.300781 43 9.898438 L 43 22 C 43 32.5 34.5 41 24 41 Z "/>
<path style=" fill:#FFFFFF;" d="M 24 31 C 23.398438 31 22.699219 30.800781 22.199219 30.300781 L 12.699219 20.800781 C 11.699219 19.800781 11.699219 18.199219 12.699219 17.300781 C 13.699219 16.300781 15.300781 16.300781 16.199219 17.300781 L 24 25 L 31.699219 17.300781 C 32.699219 16.300781 34.300781 16.300781 35.199219 17.300781 C 36.199219 18.300781 36.199219 19.898438 35.199219 20.800781 L 25.699219 30.300781 C 25.300781 30.800781 24.601563 31 24 31 Z "/>
</g>
</svg>
