<svg xmlns="http://www.w3.org/2000/svg" width="400" height="400"><g fill-rule="evenodd"><path d="M191.023 75.034c-66.548 5.094-112.335 47.688-117.957 109.732-3.153 34.799 12.728 71.978 36.7 85.912 8.37 4.866 8.347 4.888 12.538-12.267 3.59-14.695 3.587-13.709.057-18.47-16.29-21.971-17.847-56.598-3.782-84.096 31.367-61.322 127.211-62.847 156.101-2.483 14.188 29.645 8.962 77.74-11.437 105.252-20.71 27.932-58.962 31.874-71.031 7.321-4.836-9.839-4.35-14.725 4.268-42.888 5.764-18.836 6.831-22.656 8.345-29.883 4.726-22.558-1.549-37.503-17.207-40.978-16.178-3.59-32.313 7.657-38.78 27.032-4.636 13.887-4.009 33.539 1.514 47.442l1.155 2.908-8.332 35.314a31081.082 31081.082 0 0 1-12.058 50.938c-4.239 17.775-4.758 20.822-5.37 31.537-.6 10.512.719 37.92 1.877 38.995.346.322 7.366 2.872 10.739 3.901l2.23.681 3.482-5.916c15.077-25.62 17.617-32.043 27.207-68.807 3.587-13.75 6.594-25.073 6.682-25.163.199-.201.11-.313 2.011 2.507 9.462 14.037 31.545 22.149 53.732 19.739 49.041-5.327 85.806-47.543 92.714-106.458 9.215-78.603-51.993-138.186-135.398-131.802" fill="#fbfbfb"/><path d="M188.281.632C145.015 3.648 108.564 17.7 75.009 44.298c-2.466 1.954-4.762 3.817-5.101 4.14-.339.322-1.913 1.728-3.497 3.125-3.615 3.186-11.949 11.504-15.044 15.016a239.989 239.989 0 0 1-2.942 3.294c-.329.349-1.286 1.514-2.125 2.588-.84 1.074-1.768 2.217-2.062 2.539-2.222 2.432-11.844 16.043-14.55 20.582C-.246 145.785-7.558 201.107 8.405 256.603c4.004 13.92 12.594 34.267 17.549 41.568.549.81.999 1.599.999 1.754 0 .154.615 1.194 1.367 2.311.752 1.116 1.367 2.152 1.367 2.302 0 .149.44.847.977 1.551.537.705.977 1.454.977 1.665 0 .211.132.443.294.514.163.072 1.085 1.361 2.051 2.864.966 1.504 1.961 2.998 2.212 3.321.251.322 2.036 2.695 3.966 5.274 13.351 17.828 32.039 35.59 48.703 46.287 1.504.966 2.793 1.888 2.865 2.051.071.162.294.294.494.294.322 0 2.958 1.592 5.821 3.514 4.463 2.996 17.21 9.436 25.508 12.887 3.799 1.58 3.56 2.094 2.745-5.905-1.846-18.105-.94-39.496 2.263-53.464 2.134-9.305 16.448-70.127 19.849-84.337l2.748-11.486-1.407-3.749c-7.385-19.687-5.63-43.038 4.378-58.249 15.909-24.178 47.93-20.875 52.136 5.379 1.57 9.799-.123 19.069-8.616 47.168-7.132 23.599-7.965 27.045-7.979 33.008-.057 24.275 25.77 36.218 51.539 23.831 25.057-12.044 41.211-45.651 41.211-85.734 0-41.65-25.25-72.762-64.981-80.067-58.013-10.667-108.164 28.521-108.201 84.548-.011 17.331 4.576 31.581 14.951 46.446 1.677 2.403 1.616 2.996-1.715 16.616-4.115 16.828-4.146 16.861-11.809 12.73-24.934-13.446-41.747-53.089-37.694-88.878 5.886-51.968 39.003-90.043 89.717-103.151 87.216-22.541 164.843 29.733 164.779 110.964-.053 68.589-42.884 121.405-100.159 123.509-19.522.718-39.621-7.782-47.629-20.141-1.627-2.51-1.299-3.165-4.476 8.936-13.611 51.834-15.65 57.137-33.372 86.784-.804 1.346-.814 1.445-.153 1.645 51.504 15.548 111.368 9.179 155.39-16.53 1.075-.628 2.362-1.33 2.862-1.56.5-.231 1.674-.947 2.609-1.59.936-.644 1.809-1.171 1.94-1.171.132 0 .452-.184.711-.409.26-.225 2.703-1.878 5.429-3.674 26.057-17.164 47.668-40.554 64.261-69.549 31.41-54.888 32.748-132.3 3.234-187.189-.9-1.675-2.078-3.925-2.617-4.999-.539-1.074-1.101-2.041-1.248-2.148-.148-.108-.575-.811-.949-1.563a31.195 31.195 0 0 0-1.44-2.539c-.417-.644-.893-1.435-1.057-1.758-4.156-8.184-18.9-26.87-30.096-38.141-8.375-8.432-27.394-23.708-32.408-26.03-.484-.224-.879-.555-.879-.735 0-.18-.196-.328-.436-.328s-1.625-.791-3.08-1.758c-1.454-.967-2.749-1.758-2.877-1.758-.128 0-1.159-.589-2.291-1.31C271.678 9.196 224.261-1.877 188.281.632" fill="#e40414"/><path d="M181.445.604c-8.067.815-23.969 3.487-23.507 3.949.088.087 2.6-.293 5.583-.844 22.668-4.189 46.935-4.391 69.487-.577 9.08 1.536 9.693 1.619 7.226.977C226.845.627 198.15-1.084 181.445.604m-26.367 4.474c-.773.248-.814.313-.195.313.43 0 1.221-.141 1.758-.313.773-.248.814-.313.195-.313-.43 0-1.221.141-1.758.313m88.281 0c.537.172 1.329.313 1.758.313.619 0 .578-.065-.195-.313-.537-.172-1.328-.313-1.758-.313-.619 0-.578.065.195.313m-93.162 1.081c-1.289.337-2.167.667-1.953.733.214.066 1.619-.211 3.123-.616 1.504-.405 2.383-.735 1.953-.733-.429.002-1.835.279-3.123.616m-5.666 1.637c-1.181.395-1.972.733-1.758.752.215.019 1.446-.298 2.735-.705s2.08-.746 1.758-.752c-.323-.007-1.553.311-2.735.705m108.399-.374c.429.185 1.045.336 1.367.336.369 0 .297-.125-.195-.336-.43-.185-1.045-.336-1.368-.336-.369 0-.297.124.196.336m2.734.781c.43.185 1.045.336 1.367.336.37 0 .297-.124-.195-.336-.43-.185-1.045-.336-1.367-.336-.37 0-.297.125.195.336m-115.234.781c-.493.212-.565.336-.196.336.323 0 .938-.151 1.368-.336.492-.211.564-.335.195-.335-.322 0-.938.151-1.367.335m118.554.196c.752.289 1.631.526 1.954.526.322 0-.03-.237-.782-.526-.752-.29-1.631-.527-1.953-.527-.322 0 .029.237.781.527m8.985 2.863c.322.2 1.025.48 1.562.624.679.181.798.151.391-.101-.322-.199-1.026-.48-1.563-.623-.678-.182-.797-.151-.39.1m-140.43 1.447c-.977.471-1.009.525-.195.326 1.107-.27 2.351-.905 1.758-.896-.215.003-.918.26-1.563.57m145.508.507c.322.199 1.025.479 1.562.623.679.181.798.151.391-.101-.322-.199-1.025-.48-1.562-.623-.679-.182-.798-.151-.391.101m-155.859 3.776c-.538.307-.801.559-.586.559.214 0 .83-.252 1.367-.559.537-.307.801-.558.586-.558-.215 0-.83.251-1.367.558m165.625.391c.537.307 1.152.558 1.367.558.215 0-.049-.251-.586-.558-.537-.307-1.153-.558-1.367-.558-.215 0 .048.251.586.558m-175.782 4.55c-36.871 19.439-67.395 50.41-85.693 86.947-1.209 2.414-2.194 4.523-2.189 4.688.004.165 1.29-2.161 2.856-5.169 1.567-3.008 3.716-6.925 4.777-8.704 1.061-1.78 2.368-3.977 2.906-4.884C32.323 91.144 42 77.45 44.238 75c.294-.322 1.222-1.465 2.062-2.539.839-1.074 1.796-2.239 2.125-2.588.329-.349 1.653-1.832 2.942-3.294 3.095-3.512 11.429-11.83 15.044-15.016 1.584-1.397 3.158-2.803 3.497-3.125 1.015-.964 9.366-7.534 12.529-9.856 7.431-5.456 17.464-11.701 26.157-16.28 2.47-1.302 4.316-2.367 4.101-2.368-.215 0-2.763 1.251-5.664 2.78m185.639.303c3.166 1.701 6.269 3.459 6.896 3.905.627.447 1.266.812 1.418.812.153 0 1.468.791 2.922 1.758 1.455.967 2.84 1.758 3.08 1.758.24 0 .436.148.436.328 0 .18.395.511.879.735 5.014 2.322 24.033 17.598 32.408 26.03 11.196 11.271 25.94 29.957 30.096 38.141.164.323.64 1.114 1.057 1.758a31.195 31.195 0 0 1 1.44 2.539c.374.752.801 1.455.949 1.563.147.107.709 1.074 1.249 2.148 1.977 3.934 4.556 8.584 4.567 8.236.019-.596-5.372-10.651-8.499-15.853-19.091-31.757-48.465-59.073-81.226-75.535-4.982-2.503-3.609-1.514 2.328 1.677m-90.799 51.491c1.351.077 3.46.076 4.687-.001 1.227-.077.122-.14-2.456-.139-2.579.001-3.582.064-2.231.14m92.856 35.648c1.492 1.504 2.801 2.735 2.908 2.735.108 0-1.025-1.231-2.518-2.735-1.492-1.504-2.801-2.734-2.909-2.734-.107 0 1.026 1.23 2.519 2.734m-188.881 1.074-2.135 2.247 2.246-2.136c2.087-1.983 2.425-2.357 2.135-2.357-.061 0-1.072 1.011-2.246 2.246m275.437 4.59c0 .215.337 1.006.748 1.758.412.752.749 1.192.749.977 0-.215-.337-1.006-.749-1.758-.411-.752-.748-1.192-.748-.977m-364.032 2.361c-.655 1.436-.53 1.743.178.437.33-.61.528-1.182.438-1.271-.089-.09-.366.286-.616.834m368.91 9.163c.144.537.425 1.24.624 1.562.251.407.282.288.1-.39-.143-.537-.424-1.241-.623-1.563-.251-.407-.282-.288-.101.391m1.172 3.125c.144.537.424 1.24.624 1.562.251.407.282.288.1-.39-.143-.537-.424-1.241-.623-1.563-.252-.407-.282-.288-.101.391m-377.134 5.913c-.453 1.343-.811 2.627-.795 2.854.016.227.454-.805.974-2.292.519-1.488.877-2.772.795-2.854-.082-.082-.52.949-.974 2.292m380.512 4.048c.978 3.788 2.022 7.202 2.161 7.063.194-.194-1.812-7.353-2.144-7.649-.12-.108-.128.156-.017.586M7.257 146.124c-.584 2.173-.991 4.022-.904 4.11.088.087.636-1.621 1.219-3.795.583-2.174.99-4.023.903-4.11-.086-.086-.634 1.622-1.218 3.795m385.759 2.118c-.016.215.316 1.621.738 3.125.423 1.504.68 2.107.573 1.339-.213-1.521-1.263-5.096-1.311-4.464M4.905 155.295c-.148.784-.19 1.504-.094 1.599.095.096.294-.468.441-1.252.147-.784.189-1.503.094-1.599-.096-.095-.294.468-.441 1.252m389.626-.752c0 .207.351 1.984.78 3.948 6.186 28.344 5.598 61.235-1.61 90.092-.637 2.55-1.081 4.714-.988 4.808.227.226 2.66-9.927 4.135-17.258 3.659-18.19 4.274-43.31 1.543-63.086-.956-6.924-3.86-20.844-3.86-18.504m-195.703 3.465c.729.752 1.413 1.367 1.521 1.367.107 0-.401-.615-1.13-1.367-.729-.752-1.413-1.367-1.521-1.367-.107 0 .401.615 1.13 1.367M3.765 160.44c-.354 1.67-.716 3.317-.803 3.661-.088.343-.28 1.574-.427 2.734-.147 1.161-.334 2.218-.414 2.349-.525.854-1.77 14.235-1.886 20.269-.076 3.975-.077 6.26-.001 5.078.978-15.248 1.709-21.834 3.5-31.533 1.058-5.725 1.079-7.503.031-2.558m323.731 29.599c0 2.793.062 3.884.138 2.425.075-1.459.075-3.744-.001-5.078s-.138-.14-.137 2.653m-255.132.781c.004.86.084 1.165.178.679.093-.486.09-1.189-.008-1.562-.098-.374-.174.024-.17.883m73.039 3.321c0 .752.081 1.059.179.683a3.215 3.215 0 0 0 0-1.367c-.098-.376-.179-.068-.179.684m-73.039 4.492c.004.859.084 1.165.178.679.093-.486.09-1.189-.008-1.563-.098-.373-.174.024-.17.884M.206 210.156c.152 7.477.795 13.989 2.178 22.071 1.203 7.027 1.324 7.618 1.912 9.375.485 1.447.442 1.14-.981-7.032-1.656-9.508-2.249-14.829-2.94-26.367-.305-5.096-.311-5.031-.169 1.953m145.205-4.492c.004.859.084 1.165.178.679.093-.486.09-1.189-.008-1.562-.098-.374-.174.024-.17.883M4.765 243.555c0 .429.141 1.22.313 1.758.248.773.313.813.313.195 0-.43-.141-1.221-.313-1.758-.248-.773-.313-.814-.313-.195m2.12 8.789c.136.752.401 1.719.589 2.148.235.537.265.353.094-.586-.136-.752-.401-1.718-.589-2.148-.235-.537-.265-.353-.094.586m385.135 2.567c-.144.572-.186 1.116-.094 1.208.092.092.285-.301.429-.873.144-.573.186-1.117.094-1.209-.092-.092-.285.301-.429.874m-384.153.948c0 .323.151.938.336 1.368.212.492.336.564.336.195 0-.322-.151-.938-.336-1.367-.211-.493-.336-.565-.336-.196m383.184 2.38c-.264.881-.408 1.675-.32 1.762.088.088.376-.561.64-1.443.264-.881.408-1.675.32-1.763-.088-.088-.376.562-.64 1.444M9.039 259.766c0 .322.151.937.336 1.367.212.492.336.564.336.195 0-.322-.151-.937-.336-1.367-.212-.492-.336-.565-.336-.195m380.492 3.398c-.244.795-.378 1.509-.299 1.588.079.079.354-.495.612-1.275.257-.781.392-1.496.299-1.589-.092-.093-.368.482-.612 1.276m-378.37 3.242c.144.537.425 1.24.624 1.563.251.407.282.288.1-.391-.143-.537-.424-1.24-.623-1.562-.251-.408-.282-.288-.101.39m375.992 3.559c-.241.691-.369 1.324-.286 1.407.084.084.349-.413.59-1.103.24-.69.369-1.323.285-1.407-.083-.084-.349.413-.589 1.103m-370.719 9.918c0 .215.251.83.558 1.367.307.537.558.801.558.586 0-.215-.251-.83-.558-1.367-.307-.537-.558-.801-.558-.586m366.051 1.579c-.654 1.436-.529 1.743.178.437.331-.61.528-1.182.439-1.271-.09-.089-.367.286-.617.834m-88.174.667-1.147 1.269 1.27-1.147c.698-.631 1.269-1.202 1.269-1.269 0-.302-.322-.036-1.392 1.147M18.37 284.105c-.024.739 6.879 13.844 10.225 19.411 18.072 30.064 45.935 56.661 75.995 72.54 2.632 1.391 4.785 2.427 4.785 2.304 0-.124-1.187-.839-2.637-1.588-3.262-1.687-6.5-3.506-8.3-4.663-5.024-3.229-5.886-3.75-6.212-3.75-.2 0-.423-.132-.494-.294-.072-.163-1.361-1.085-2.865-2.051-16.664-10.697-35.352-28.459-48.703-46.287a893.717 893.717 0 0 0-3.966-5.274c-.251-.323-1.246-1.817-2.212-3.321-.966-1.503-1.888-2.792-2.051-2.864-.162-.071-.294-.303-.294-.514 0-.211-.44-.96-.977-1.665-.537-.704-.976-1.402-.976-1.551 0-.15-.616-1.186-1.368-2.302-.752-1.117-1.367-2.195-1.367-2.395 0-.201-.271-.665-.602-1.031-.332-.367-2.261-3.896-4.287-7.844-2.026-3.947-3.689-7.035-3.694-6.861m360.046 5.853c-15.434 30.491-39.644 57.728-67.795 76.271-2.726 1.796-5.169 3.449-5.429 3.674-.259.225-.579.41-.711.41-.131 0-1.004.526-1.94 1.17-.935.643-2.109 1.359-2.609 1.59-.5.23-1.787.928-2.862 1.551-1.074.623-4.502 2.447-7.617 4.054-3.115 1.607-5.522 2.931-5.348 2.942.742.048 13.871-6.886 19.704-10.406 27.291-16.472 51.419-40.74 68.084-68.48 2.799-4.659 9.132-16.761 8.895-16.998-.086-.086-1.153 1.814-2.372 4.222m-91.136-.798-1.147 1.27 1.269-1.148c.699-.631 1.27-1.202 1.27-1.269 0-.302-.322-.036-1.392 1.147m-103.686 9.473c.729.752 1.413 1.367 1.52 1.367.108 0-.401-.615-1.13-1.367-.728-.752-1.413-1.367-1.52-1.367-.107 0 .401.615 1.13 1.367m-69.531 82.226c1.181.625 2.324 1.135 2.539 1.135.214 0-.577-.51-1.758-1.135-1.182-.624-2.324-1.135-2.539-1.135-.215 0 .576.511 1.758 1.135m4.687 2.149c.537.307 1.152.558 1.367.558.215 0-.049-.251-.586-.558-.537-.307-1.152-.558-1.367-.558-.215 0 .049.251.586.558m161.719 0c-.537.307-.801.558-.586.558.215 0 .83-.251 1.367-.558.537-.307.801-.558.586-.558-.215 0-.83.251-1.367.558m-4.688 1.953c-.537.307-.801.558-.586.558.215 0 .83-.251 1.368-.558.537-.307.8-.558.585-.558-.214 0-.83.251-1.367.558m-4.883 1.967c-.976.47-1.009.525-.195.326 1.107-.271 2.351-.905 1.758-.896-.215.003-.918.259-1.563.57m-4.296 1.562c-.977.471-1.01.525-.196.326 1.107-.27 2.351-.905 1.758-.896-.215.003-.918.26-1.562.57m-4.883 1.549c-1.397.504-2.354.929-2.127.946.227.017 1.633-.396 3.125-.917s2.449-.947 2.127-.946c-.323.001-1.729.414-3.125.917m-118.346 1.931c.76.28 1.99.615 2.735.744.744.129.298-.11-.991-.531-2.604-.851-3.908-1.01-1.744-.213m112.682-.173c-.493.211-.565.336-.196.336.323 0 .938-.151 1.368-.336.492-.212.564-.336.195-.336-.322 0-.938.151-1.367.336m-2.735.781c-.492.212-.564.336-.195.336.322 0 .938-.151 1.367-.336.493-.211.565-.336.196-.336-.323 0-.938.151-1.368.336m-102.734 1.378c.859.283 1.914.513 2.344.51.429-.002-.098-.249-1.172-.548-2.444-.68-3.27-.653-1.172.038m4.102.966c.537.172 1.328.313 1.757.313.619 0 .578-.065-.195-.313-.537-.172-1.328-.313-1.758-.313-.618 0-.578.065.196.313m83.984 1.005c-8.511 1.736-18.951 3.04-29.297 3.66l-5.273.317 5.078-.005c7.987-.007 20.407-1.493 30.273-3.622a51.634 51.634 0 0 1 1.953-.375 19.166 19.166 0 0 0 2.149-.539c2.045-.653-.164-.398-4.883.564m-81.168-.402c.412.412 11.51 2.466 16.715 3.094 2.9.349 5.801.718 6.445.819.645.1 4.336.256 8.203.346l7.031.164-5.273-.34c-10.599-.682-21.285-1.996-28.852-3.546-3.844-.788-4.617-.885-4.269-.537m40.445 4.372c1.128.079 2.974.079 4.102 0 1.128-.079.205-.143-2.051-.143-2.256 0-3.179.064-2.051.143" fill="#ee5367"/><path d="M294.524 110.254c3.803 3.9 4.304 4.377 4.304 4.094 0-.057-1.89-1.947-4.199-4.199l-4.199-4.094 4.094 4.199m-188.477 1.172-3.508 3.613 3.613-3.507c3.356-3.258 3.791-3.719 3.508-3.719-.058 0-1.684 1.625-3.613 3.613m91.522-2.155c.919.082 2.325.081 3.125-.003.8-.084.048-.151-1.671-.15-1.718.002-2.373.07-1.454.153m-7.628.373c.376.099.992.099 1.368 0 .376-.098.068-.178-.684-.178s-1.06.08-.684.178m16.797 0c.376.099.991.099 1.367 0 .376-.098.069-.178-.683-.178s-1.06.08-.684.178m51.075 21.02c.728.752 1.413 1.367 1.52 1.367.107 0-.401-.615-1.13-1.367-.729-.752-1.413-1.367-1.52-1.367-.108 0 .401.615 1.13 1.367m-124.032 4.199-3.508 3.614 3.614-3.508c1.987-1.929 3.613-3.555 3.613-3.613 0-.284-.461.151-3.719 3.507m127.938-.293c.729.752 1.413 1.368 1.52 1.368.108 0-.401-.616-1.13-1.368-.728-.752-1.413-1.367-1.52-1.367-.107 0 .401.615 1.13 1.367m-102.163 26.465-1.939 2.051 2.051-1.939c1.128-1.066 2.051-1.988 2.051-2.05 0-.292-.362.033-2.163 1.938m122.978 27.051c.003 1.074.078 1.467.168.873.09-.593.088-1.472-.005-1.953-.093-.48-.166.006-.163 1.08m-173.459.586c0 .752.08 1.059.179.683a3.215 3.215 0 0 0 0-1.367c-.099-.376-.179-.068-.179.684m173.468 5.273c.002 1.289.075 1.77.162 1.068.087-.703.085-1.757-.004-2.344-.089-.587-.16-.013-.158 1.276m-173.838 1.953c.003 1.075.079 1.468.169.874.09-.594.087-1.473-.005-1.953-.093-.481-.166.005-.164 1.079m36.754 3.907c.001 2.363.065 3.279.143 2.036.077-1.243.077-3.177-.002-4.297-.079-1.12-.142-.103-.141 2.261m43.735 53.32c0 1.611.069 2.271.153 1.465.084-.806.084-2.124 0-2.93s-.153-.146-.153 1.465m69.57 10.645-1.147 1.269 1.27-1.147c.698-.631 1.269-1.203 1.269-1.27 0-.302-.322-.036-1.392 1.148m-74.975 34.668c1.276 1.289 2.407 2.343 2.515 2.343.107 0-.849-1.054-2.124-2.343-1.276-1.29-2.407-2.344-2.515-2.344-.107 0 .848 1.054 2.124 2.344m38.965 15.518c.806.085 2.124.085 2.93 0 .805-.084.146-.153-1.465-.153-1.612 0-2.271.069-1.465.153m-97.265 35.067c.004.86.084 1.165.178.679.093-.485.09-1.189-.008-1.562s-.174.024-.17.883m.013 13.672c.003 1.075.079 1.468.169.874.09-.594.087-1.473-.005-1.953-.093-.481-.167.005-.164 1.079" fill="#f48b94"/><path d="M180.572 151.452c.594.09 1.472.088 1.953-.005.48-.093-.005-.166-1.08-.163-1.074.003-1.467.078-.873.168M72.394 194.727c.002 1.503.072 2.071.157 1.26.084-.81.083-2.041-.003-2.734-.087-.693-.156-.03-.154 1.474m25.848 67.382c.839.86 1.614 1.563 1.721 1.563.108 0-.491-.703-1.33-1.563-.839-.859-1.614-1.562-1.721-1.562-.108 0 .491.703 1.33 1.562m158.179 4.004-1.148 1.27 1.27-1.147c.698-.632 1.27-1.203 1.27-1.27 0-.302-.323-.036-1.392 1.147m34.387 19.532-2.331 2.441 2.441-2.332c1.343-1.282 2.441-2.381 2.441-2.441 0-.289-.385.064-2.551 2.332" fill="#f47c84"/></g></svg>