<svg id="svg" version="1.1" xmlns="http://www.w3.org/2000/svg" xmlns:xlink="http://www.w3.org/1999/xlink" width="400" height="400" viewBox="0, 0, 400,400"><g id="svgg"><path id="path0" d="M191.023 75.034 C 124.475 80.128,78.688 122.722,73.066 184.766 C 69.913 219.565,85.794 256.744,109.766 270.678 C 118.136 275.544,118.113 275.566,122.304 258.411 C 125.894 243.716,125.891 244.702,122.361 239.941 C 106.071 217.970,104.514 183.343,118.579 155.845 C 149.946 94.523,245.790 92.998,274.680 153.362 C 288.868 183.007,283.642 231.102,263.243 258.614 C 242.533 286.546,204.281 290.488,192.212 265.935 C 187.376 256.096,187.862 251.210,196.480 223.047 C 202.244 204.211,203.311 200.391,204.825 193.164 C 209.551 170.606,203.276 155.661,187.618 152.186 C 171.440 148.596,155.305 159.843,148.838 179.218 C 144.202 193.105,144.829 212.757,150.352 226.660 L 151.507 229.568 143.175 264.882 C 138.592 284.304,133.166 307.227,131.117 315.820 C 126.878 333.595,126.359 336.642,125.747 347.357 C 125.147 357.869,126.466 385.277,127.624 386.352 C 127.970 386.674,134.990 389.224,138.363 390.253 L 140.593 390.934 144.075 385.018 C 159.152 359.398,161.692 352.975,171.282 316.211 C 174.869 302.461,177.876 291.138,177.964 291.048 C 178.163 290.847,178.074 290.735,179.975 293.555 C 189.437 307.592,211.520 315.704,233.707 313.294 C 282.748 307.967,319.513 265.751,326.421 206.836 C 335.636 128.233,274.428 68.650,191.023 75.034 " stroke="none" fill="#fbfbfb" fill-rule="evenodd"></path><path id="path1" d="M188.281 0.632 C 145.015 3.648,108.564 17.700,75.009 44.298 C 72.543 46.252,70.247 48.115,69.908 48.438 C 69.569 48.760,67.995 50.166,66.411 51.563 C 62.796 54.749,54.462 63.067,51.367 66.579 C 50.078 68.041,48.754 69.524,48.425 69.873 C 48.096 70.222,47.139 71.387,46.300 72.461 C 45.460 73.535,44.532 74.678,44.238 75.000 C 42.016 77.432,32.394 91.043,29.688 95.582 C -0.246 145.785,-7.558 201.107,8.405 256.603 C 12.409 270.523,20.999 290.870,25.954 298.171 C 26.503 298.981,26.953 299.770,26.953 299.925 C 26.953 300.079,27.568 301.119,28.320 302.236 C 29.072 303.352,29.687 304.388,29.687 304.538 C 29.687 304.687,30.127 305.385,30.664 306.089 C 31.201 306.794,31.641 307.543,31.641 307.754 C 31.641 307.965,31.773 308.197,31.935 308.268 C 32.098 308.340,33.020 309.629,33.986 311.132 C 34.952 312.636,35.947 314.130,36.198 314.453 C 36.449 314.775,38.234 317.148,40.164 319.727 C 53.515 337.555,72.203 355.317,88.867 366.014 C 90.371 366.980,91.660 367.902,91.732 368.065 C 91.803 368.227,92.026 368.359,92.226 368.359 C 92.548 368.359,95.184 369.951,98.047 371.873 C 102.510 374.869,115.257 381.309,123.555 384.760 C 127.354 386.340,127.115 386.854,126.300 378.855 C 124.454 360.750,125.360 339.359,128.563 325.391 C 130.697 316.086,145.011 255.264,148.412 241.054 L 151.160 229.568 149.753 225.819 C 142.368 206.132,144.123 182.781,154.131 167.570 C 170.040 143.392,202.061 146.695,206.267 172.949 C 207.837 182.748,206.144 192.018,197.651 220.117 C 190.519 243.716,189.686 247.162,189.672 253.125 C 189.615 277.400,215.442 289.343,241.211 276.956 C 266.268 264.912,282.422 231.305,282.422 191.222 C 282.422 149.572,257.172 118.460,217.441 111.155 C 159.428 100.488,109.277 139.676,109.240 195.703 C 109.229 213.034,113.816 227.284,124.191 242.149 C 125.868 244.552,125.807 245.145,122.476 258.765 C 118.361 275.593,118.330 275.626,110.667 271.495 C 85.733 258.049,68.920 218.406,72.973 182.617 C 78.859 130.649,111.976 92.574,162.690 79.466 C 249.906 56.925,327.533 109.199,327.469 190.430 C 327.416 259.019,284.585 311.835,227.310 313.939 C 207.788 314.657,187.689 306.157,179.681 293.798 C 178.054 291.288,178.382 290.633,175.205 302.734 C 161.594 354.568,159.555 359.871,141.833 389.518 C 141.029 390.864,141.019 390.963,141.680 391.163 C 193.184 406.711,253.048 400.342,297.070 374.633 C 298.145 374.005,299.432 373.303,299.932 373.073 C 300.432 372.842,301.606 372.126,302.541 371.483 C 303.477 370.839,304.350 370.312,304.481 370.312 C 304.613 370.312,304.933 370.128,305.192 369.903 C 305.452 369.678,307.895 368.025,310.621 366.229 C 336.678 349.065,358.289 325.675,374.882 296.680 C 406.292 241.792,407.630 164.380,378.116 109.491 C 377.216 107.816,376.038 105.566,375.499 104.492 C 374.960 103.418,374.398 102.451,374.251 102.344 C 374.103 102.236,373.676 101.533,373.302 100.781 C 372.928 100.029,372.280 98.887,371.862 98.242 C 371.445 97.598,370.969 96.807,370.805 96.484 C 366.649 88.300,351.905 69.614,340.709 58.343 C 332.334 49.911,313.315 34.635,308.301 32.313 C 307.817 32.089,307.422 31.758,307.422 31.578 C 307.422 31.398,307.226 31.250,306.986 31.250 C 306.746 31.250,305.361 30.459,303.906 29.492 C 302.452 28.525,301.157 27.734,301.029 27.734 C 300.901 27.734,299.870 27.145,298.738 26.424 C 271.678 9.196,224.261 -1.877,188.281 0.632 " stroke="none" fill="#e40414" fill-rule="evenodd"></path><path id="path2" d="M181.445 0.604 C 173.378 1.419,157.476 4.091,157.938 4.553 C 158.026 4.640,160.538 4.260,163.521 3.709 C 186.189 -0.480,210.456 -0.682,233.008 3.132 C 242.088 4.668,242.701 4.751,240.234 4.109 C 226.845 0.627,198.150 -1.084,181.445 0.604 M155.078 5.078 C 154.305 5.326,154.264 5.391,154.883 5.391 C 155.313 5.391,156.104 5.250,156.641 5.078 C 157.414 4.830,157.455 4.765,156.836 4.765 C 156.406 4.765,155.615 4.906,155.078 5.078 M243.359 5.078 C 243.896 5.250,244.688 5.391,245.117 5.391 C 245.736 5.391,245.695 5.326,244.922 5.078 C 244.385 4.906,243.594 4.765,243.164 4.765 C 242.545 4.765,242.586 4.830,243.359 5.078 M150.197 6.159 C 148.908 6.496,148.030 6.826,148.244 6.892 C 148.458 6.958,149.863 6.681,151.367 6.276 C 152.871 5.871,153.750 5.541,153.320 5.543 C 152.891 5.545,151.485 5.822,150.197 6.159 M144.531 7.796 C 143.350 8.191,142.559 8.529,142.773 8.548 C 142.988 8.567,144.219 8.250,145.508 7.843 C 146.797 7.436,147.588 7.097,147.266 7.091 C 146.943 7.084,145.713 7.402,144.531 7.796 M252.930 7.422 C 253.359 7.607,253.975 7.758,254.297 7.758 C 254.666 7.758,254.594 7.633,254.102 7.422 C 253.672 7.237,253.057 7.086,252.734 7.086 C 252.365 7.086,252.437 7.210,252.930 7.422 M255.664 8.203 C 256.094 8.388,256.709 8.539,257.031 8.539 C 257.401 8.539,257.328 8.415,256.836 8.203 C 256.406 8.018,255.791 7.867,255.469 7.867 C 255.099 7.867,255.172 7.992,255.664 8.203 M140.430 8.984 C 139.937 9.196,139.865 9.320,140.234 9.320 C 140.557 9.320,141.172 9.169,141.602 8.984 C 142.094 8.773,142.166 8.649,141.797 8.649 C 141.475 8.649,140.859 8.800,140.430 8.984 M258.984 9.180 C 259.736 9.469,260.615 9.706,260.938 9.706 C 261.260 9.706,260.908 9.469,260.156 9.180 C 259.404 8.890,258.525 8.653,258.203 8.653 C 257.881 8.653,258.232 8.890,258.984 9.180 M267.969 12.043 C 268.291 12.243,268.994 12.523,269.531 12.667 C 270.210 12.848,270.329 12.818,269.922 12.566 C 269.600 12.367,268.896 12.086,268.359 11.943 C 267.681 11.761,267.562 11.792,267.969 12.043 M127.539 13.490 C 126.562 13.961,126.530 14.015,127.344 13.816 C 128.451 13.546,129.695 12.911,129.102 12.920 C 128.887 12.923,128.184 13.180,127.539 13.490 M273.047 13.997 C 273.369 14.196,274.072 14.476,274.609 14.620 C 275.288 14.801,275.407 14.771,275.000 14.519 C 274.678 14.320,273.975 14.039,273.438 13.896 C 272.759 13.714,272.640 13.745,273.047 13.997 M117.188 17.773 C 116.650 18.080,116.387 18.332,116.602 18.332 C 116.816 18.332,117.432 18.080,117.969 17.773 C 118.506 17.466,118.770 17.215,118.555 17.215 C 118.340 17.215,117.725 17.466,117.188 17.773 M282.813 18.164 C 283.350 18.471,283.965 18.722,284.180 18.722 C 284.395 18.722,284.131 18.471,283.594 18.164 C 283.057 17.857,282.441 17.606,282.227 17.606 C 282.012 17.606,282.275 17.857,282.813 18.164 M107.031 22.714 C 70.160 42.153,39.636 73.124,21.338 109.661 C 20.129 112.075,19.144 114.184,19.149 114.349 C 19.153 114.514,20.439 112.188,22.005 109.180 C 23.572 106.172,25.721 102.255,26.782 100.476 C 27.843 98.696,29.150 96.499,29.688 95.592 C 32.323 91.144,42.000 77.450,44.238 75.000 C 44.532 74.678,45.460 73.535,46.300 72.461 C 47.139 71.387,48.096 70.222,48.425 69.873 C 48.754 69.524,50.078 68.041,51.367 66.579 C 54.462 63.067,62.796 54.749,66.411 51.563 C 67.995 50.166,69.569 48.760,69.908 48.438 C 70.923 47.474,79.274 40.904,82.437 38.582 C 89.868 33.126,99.901 26.881,108.594 22.302 C 111.064 21.000,112.910 19.935,112.695 19.934 C 112.480 19.934,109.932 21.185,107.031 22.714 M292.670 23.017 C 295.836 24.718,298.939 26.476,299.566 26.922 C 300.193 27.369,300.832 27.734,300.984 27.734 C 301.137 27.734,302.452 28.525,303.906 29.492 C 305.361 30.459,306.746 31.250,306.986 31.250 C 307.226 31.250,307.422 31.398,307.422 31.578 C 307.422 31.758,307.817 32.089,308.301 32.313 C 313.315 34.635,332.334 49.911,340.709 58.343 C 351.905 69.614,366.649 88.300,370.805 96.484 C 370.969 96.807,371.445 97.598,371.862 98.242 C 372.280 98.887,372.928 100.029,373.302 100.781 C 373.676 101.533,374.103 102.236,374.251 102.344 C 374.398 102.451,374.960 103.418,375.500 104.492 C 377.477 108.426,380.056 113.076,380.067 112.728 C 380.086 112.132,374.695 102.077,371.568 96.875 C 352.477 65.118,323.103 37.802,290.342 21.340 C 285.360 18.837,286.733 19.826,292.670 23.017 M201.871 74.508 C 203.222 74.585,205.331 74.584,206.558 74.507 C 207.785 74.430,206.680 74.367,204.102 74.368 C 201.523 74.369,200.520 74.432,201.871 74.508 M294.727 110.156 C 296.219 111.660,297.528 112.891,297.635 112.891 C 297.743 112.891,296.610 111.660,295.117 110.156 C 293.625 108.652,292.316 107.422,292.208 107.422 C 292.101 107.422,293.234 108.652,294.727 110.156 M105.846 111.230 L 103.711 113.477 105.957 111.341 C 108.044 109.358,108.382 108.984,108.092 108.984 C 108.031 108.984,107.020 109.995,105.846 111.230 M381.283 115.820 C 381.283 116.035,381.620 116.826,382.031 117.578 C 382.443 118.330,382.780 118.770,382.780 118.555 C 382.780 118.340,382.443 117.549,382.031 116.797 C 381.620 116.045,381.283 115.605,381.283 115.820 M17.251 118.181 C 16.596 119.617,16.721 119.924,17.429 118.618 C 17.759 118.008,17.957 117.436,17.867 117.347 C 17.778 117.257,17.501 117.633,17.251 118.181 M386.161 127.344 C 386.305 127.881,386.586 128.584,386.785 128.906 C 387.036 129.313,387.067 129.194,386.885 128.516 C 386.742 127.979,386.461 127.275,386.262 126.953 C 386.011 126.546,385.980 126.665,386.161 127.344 M387.333 130.469 C 387.477 131.006,387.757 131.709,387.957 132.031 C 388.208 132.438,388.239 132.319,388.057 131.641 C 387.914 131.104,387.633 130.400,387.434 130.078 C 387.182 129.671,387.152 129.790,387.333 130.469 M10.199 136.382 C 9.746 137.725,9.388 139.009,9.404 139.236 C 9.420 139.463,9.858 138.431,10.378 136.944 C 10.897 135.456,11.255 134.172,11.173 134.090 C 11.091 134.008,10.653 135.039,10.199 136.382 M390.711 140.430 C 391.689 144.218,392.733 147.632,392.872 147.493 C 393.066 147.299,391.060 140.140,390.728 139.844 C 390.608 139.736,390.600 140.000,390.711 140.430 M7.257 146.124 C 6.673 148.297,6.266 150.146,6.353 150.234 C 6.441 150.321,6.989 148.613,7.572 146.439 C 8.155 144.265,8.562 142.416,8.475 142.329 C 8.389 142.243,7.841 143.951,7.257 146.124 M393.016 148.242 C 393.000 148.457,393.332 149.863,393.754 151.367 C 394.177 152.871,394.434 153.474,394.327 152.706 C 394.114 151.185,393.064 147.610,393.016 148.242 M4.905 155.295 C 4.757 156.079,4.715 156.799,4.811 156.894 C 4.906 156.990,5.105 156.426,5.252 155.642 C 5.399 154.858,5.441 154.139,5.346 154.043 C 5.250 153.948,5.052 154.511,4.905 155.295 M394.531 154.543 C 394.531 154.750,394.882 156.527,395.311 158.491 C 401.497 186.835,400.909 219.726,393.701 248.583 C 393.064 251.133,392.620 253.297,392.713 253.391 C 392.940 253.617,395.373 243.464,396.848 236.133 C 400.507 217.943,401.122 192.823,398.391 173.047 C 397.435 166.123,394.531 152.203,394.531 154.543 M198.828 158.008 C 199.557 158.760,200.241 159.375,200.349 159.375 C 200.456 159.375,199.948 158.760,199.219 158.008 C 198.490 157.256,197.806 156.641,197.698 156.641 C 197.591 156.641,198.099 157.256,198.828 158.008 M3.765 160.440 C 3.411 162.110,3.049 163.757,2.962 164.101 C 2.874 164.444,2.682 165.675,2.535 166.835 C 2.388 167.996,2.201 169.053,2.121 169.184 C 1.596 170.038,0.351 183.419,0.235 189.453 C 0.159 193.428,0.158 195.713,0.234 194.531 C 1.212 179.283,1.943 172.697,3.734 162.998 C 4.792 157.273,4.813 155.495,3.765 160.440 M327.496 190.039 C 327.496 192.832,327.558 193.923,327.634 192.464 C 327.709 191.005,327.709 188.720,327.633 187.386 C 327.557 186.052,327.495 187.246,327.496 190.039 M72.364 190.820 C 72.368 191.680,72.448 191.985,72.542 191.499 C 72.635 191.013,72.632 190.310,72.534 189.937 C 72.436 189.563,72.360 189.961,72.364 190.820 M145.403 194.141 C 145.403 194.893,145.484 195.200,145.582 194.824 C 145.680 194.448,145.680 193.833,145.582 193.457 C 145.484 193.081,145.403 193.389,145.403 194.141 M72.364 198.633 C 72.368 199.492,72.448 199.798,72.542 199.312 C 72.635 198.826,72.632 198.123,72.534 197.749 C 72.436 197.376,72.360 197.773,72.364 198.633 M0.206 210.156 C 0.358 217.633,1.001 224.145,2.384 232.227 C 3.587 239.254,3.708 239.845,4.296 241.602 C 4.781 243.049,4.738 242.742,3.315 234.570 C 1.659 225.062,1.066 219.741,0.375 208.203 C 0.070 203.107,0.064 203.172,0.206 210.156 M145.411 205.664 C 145.415 206.523,145.495 206.829,145.589 206.343 C 145.682 205.857,145.679 205.154,145.581 204.781 C 145.483 204.407,145.407 204.805,145.411 205.664 M4.765 243.555 C 4.765 243.984,4.906 244.775,5.078 245.313 C 5.326 246.086,5.391 246.126,5.391 245.508 C 5.391 245.078,5.250 244.287,5.078 243.750 C 4.830 242.977,4.765 242.936,4.765 243.555 M6.885 252.344 C 7.021 253.096,7.286 254.063,7.474 254.492 C 7.709 255.029,7.739 254.845,7.568 253.906 C 7.432 253.154,7.167 252.188,6.979 251.758 C 6.744 251.221,6.714 251.405,6.885 252.344 M392.020 254.911 C 391.876 255.483,391.834 256.027,391.926 256.119 C 392.018 256.211,392.211 255.818,392.355 255.246 C 392.499 254.673,392.541 254.129,392.449 254.037 C 392.357 253.945,392.164 254.338,392.020 254.911 M7.867 255.859 C 7.867 256.182,8.018 256.797,8.203 257.227 C 8.415 257.719,8.539 257.791,8.539 257.422 C 8.539 257.100,8.388 256.484,8.203 256.055 C 7.992 255.562,7.867 255.490,7.867 255.859 M391.051 258.239 C 390.787 259.120,390.643 259.914,390.731 260.001 C 390.819 260.089,391.107 259.440,391.371 258.558 C 391.635 257.677,391.779 256.883,391.691 256.795 C 391.603 256.707,391.315 257.357,391.051 258.239 M9.039 259.766 C 9.039 260.088,9.190 260.703,9.375 261.133 C 9.587 261.625,9.711 261.697,9.711 261.328 C 9.711 261.006,9.560 260.391,9.375 259.961 C 9.163 259.469,9.039 259.396,9.039 259.766 M389.531 263.164 C 389.287 263.959,389.153 264.673,389.232 264.752 C 389.311 264.831,389.586 264.257,389.844 263.477 C 390.101 262.696,390.236 261.981,390.143 261.888 C 390.051 261.795,389.775 262.370,389.531 263.164 M11.161 266.406 C 11.305 266.943,11.586 267.646,11.785 267.969 C 12.036 268.376,12.067 268.257,11.885 267.578 C 11.742 267.041,11.461 266.338,11.262 266.016 C 11.011 265.608,10.980 265.728,11.161 266.406 M387.153 269.965 C 386.912 270.656,386.784 271.289,386.867 271.372 C 386.951 271.456,387.216 270.959,387.457 270.269 C 387.697 269.579,387.826 268.946,387.742 268.862 C 387.659 268.778,387.393 269.275,387.153 269.965 M16.434 279.883 C 16.434 280.098,16.685 280.713,16.992 281.250 C 17.299 281.787,17.550 282.051,17.550 281.836 C 17.550 281.621,17.299 281.006,16.992 280.469 C 16.685 279.932,16.434 279.668,16.434 279.883 M382.485 281.462 C 381.831 282.898,381.956 283.205,382.663 281.899 C 382.994 281.289,383.191 280.717,383.102 280.628 C 383.012 280.539,382.735 280.914,382.485 281.462 M294.311 282.129 L 293.164 283.398 294.434 282.251 C 295.132 281.620,295.703 281.049,295.703 280.982 C 295.703 280.680,295.381 280.946,294.311 282.129 M18.370 284.105 C 18.346 284.844,25.249 297.949,28.595 303.516 C 46.667 333.580,74.530 360.177,104.590 376.056 C 107.222 377.447,109.375 378.483,109.375 378.360 C 109.375 378.236,108.188 377.521,106.738 376.772 C 103.476 375.085,100.238 373.266,98.438 372.109 C 93.414 368.880,92.552 368.359,92.226 368.359 C 92.026 368.359,91.803 368.227,91.732 368.065 C 91.660 367.902,90.371 366.980,88.867 366.014 C 72.203 355.317,53.515 337.555,40.164 319.727 C 38.234 317.148,36.449 314.775,36.198 314.453 C 35.947 314.130,34.952 312.636,33.986 311.132 C 33.020 309.629,32.098 308.340,31.935 308.268 C 31.773 308.197,31.641 307.965,31.641 307.754 C 31.641 307.543,31.201 306.794,30.664 306.089 C 30.127 305.385,29.688 304.687,29.688 304.538 C 29.688 304.388,29.072 303.352,28.320 302.236 C 27.568 301.119,26.953 300.041,26.953 299.841 C 26.953 299.640,26.682 299.176,26.351 298.810 C 26.019 298.443,24.090 294.914,22.064 290.966 C 20.038 287.019,18.375 283.931,18.370 284.105 M378.416 289.958 C 362.982 320.449,338.772 347.686,310.621 366.229 C 307.895 368.025,305.452 369.678,305.192 369.903 C 304.933 370.128,304.613 370.313,304.481 370.313 C 304.350 370.313,303.477 370.839,302.541 371.483 C 301.606 372.126,300.432 372.842,299.932 373.073 C 299.432 373.303,298.145 374.001,297.070 374.624 C 295.996 375.247,292.568 377.071,289.453 378.678 C 286.338 380.285,283.931 381.609,284.105 381.620 C 284.847 381.668,297.976 374.734,303.809 371.214 C 331.100 354.742,355.228 330.474,371.893 302.734 C 374.692 298.075,381.025 285.973,380.788 285.736 C 380.702 285.650,379.635 287.550,378.416 289.958 M287.280 289.160 L 286.133 290.430 287.402 289.282 C 288.101 288.651,288.672 288.080,288.672 288.013 C 288.672 287.711,288.350 287.977,287.280 289.160 M183.594 298.633 C 184.323 299.385,185.007 300.000,185.114 300.000 C 185.222 300.000,184.713 299.385,183.984 298.633 C 183.256 297.881,182.571 297.266,182.464 297.266 C 182.357 297.266,182.865 297.881,183.594 298.633 M114.063 380.859 C 115.244 381.484,116.387 381.994,116.602 381.994 C 116.816 381.994,116.025 381.484,114.844 380.859 C 113.662 380.235,112.520 379.724,112.305 379.724 C 112.090 379.724,112.881 380.235,114.063 380.859 M118.750 383.008 C 119.287 383.315,119.902 383.566,120.117 383.566 C 120.332 383.566,120.068 383.315,119.531 383.008 C 118.994 382.701,118.379 382.450,118.164 382.450 C 117.949 382.450,118.213 382.701,118.750 383.008 M280.469 383.008 C 279.932 383.315,279.668 383.566,279.883 383.566 C 280.098 383.566,280.713 383.315,281.250 383.008 C 281.787 382.701,282.051 382.450,281.836 382.450 C 281.621 382.450,281.006 382.701,280.469 383.008 M275.781 384.961 C 275.244 385.268,274.980 385.519,275.195 385.519 C 275.410 385.519,276.025 385.268,276.563 384.961 C 277.100 384.654,277.363 384.403,277.148 384.403 C 276.934 384.403,276.318 384.654,275.781 384.961 M270.898 386.928 C 269.922 387.398,269.889 387.453,270.703 387.254 C 271.810 386.983,273.054 386.349,272.461 386.358 C 272.246 386.361,271.543 386.617,270.898 386.928 M266.602 388.490 C 265.625 388.961,265.592 389.015,266.406 388.816 C 267.513 388.546,268.757 387.911,268.164 387.920 C 267.949 387.923,267.246 388.180,266.602 388.490 M261.719 390.039 C 260.322 390.543,259.365 390.968,259.592 390.985 C 259.819 391.002,261.225 390.589,262.717 390.068 C 264.209 389.547,265.166 389.121,264.844 389.122 C 264.521 389.123,263.115 389.536,261.719 390.039 M143.373 391.970 C 144.133 392.250,145.363 392.585,146.108 392.714 C 146.852 392.843,146.406 392.604,145.117 392.183 C 142.513 391.332,141.209 391.173,143.373 391.970 M256.055 391.797 C 255.562 392.008,255.490 392.133,255.859 392.133 C 256.182 392.133,256.797 391.982,257.227 391.797 C 257.719 391.585,257.791 391.461,257.422 391.461 C 257.100 391.461,256.484 391.612,256.055 391.797 M253.320 392.578 C 252.828 392.790,252.756 392.914,253.125 392.914 C 253.447 392.914,254.063 392.763,254.492 392.578 C 254.985 392.367,255.057 392.242,254.688 392.242 C 254.365 392.242,253.750 392.393,253.320 392.578 M150.586 393.956 C 151.445 394.239,152.500 394.469,152.930 394.466 C 153.359 394.464,152.832 394.217,151.758 393.918 C 149.314 393.238,148.488 393.265,150.586 393.956 M154.688 394.922 C 155.225 395.094,156.016 395.235,156.445 395.235 C 157.064 395.235,157.023 395.170,156.250 394.922 C 155.713 394.750,154.922 394.609,154.492 394.609 C 153.874 394.609,153.914 394.674,154.688 394.922 M238.672 395.927 C 230.161 397.663,219.721 398.967,209.375 399.587 L 204.102 399.904 209.180 399.899 C 217.167 399.892,229.587 398.406,239.453 396.277 C 239.990 396.161,240.869 395.992,241.406 395.902 C 241.943 395.811,242.910 395.569,243.555 395.363 C 245.600 394.710,243.391 394.965,238.672 395.927 M157.504 395.525 C 157.916 395.937,169.014 397.991,174.219 398.619 C 177.119 398.968,180.020 399.337,180.664 399.438 C 181.309 399.538,185.000 399.694,188.867 399.784 L 195.898 399.948 190.625 399.608 C 180.026 398.926,169.340 397.612,161.773 396.062 C 157.929 395.274,157.156 395.177,157.504 395.525 M197.949 399.897 C 199.077 399.976,200.923 399.976,202.051 399.897 C 203.179 399.818,202.256 399.754,200.000 399.754 C 197.744 399.754,196.821 399.818,197.949 399.897 " stroke="none" fill="#ee5367" fill-rule="evenodd"></path><path id="path3" d="M294.524 110.254 C 298.327 114.154,298.828 114.631,298.828 114.348 C 298.828 114.291,296.938 112.401,294.629 110.149 L 290.430 106.055 294.524 110.254 M106.047 111.426 L 102.539 115.039 106.152 111.532 C 109.508 108.274,109.943 107.813,109.660 107.813 C 109.602 107.813,107.976 109.438,106.047 111.426 M197.569 109.271 C 198.488 109.353,199.894 109.352,200.694 109.268 C 201.494 109.184,200.742 109.117,199.023 109.118 C 197.305 109.120,196.650 109.188,197.569 109.271 M189.941 109.644 C 190.317 109.743,190.933 109.743,191.309 109.644 C 191.685 109.546,191.377 109.466,190.625 109.466 C 189.873 109.466,189.565 109.546,189.941 109.644 M206.738 109.644 C 207.114 109.743,207.729 109.743,208.105 109.644 C 208.481 109.546,208.174 109.466,207.422 109.466 C 206.670 109.466,206.362 109.546,206.738 109.644 M257.813 130.664 C 258.541 131.416,259.226 132.031,259.333 132.031 C 259.440 132.031,258.932 131.416,258.203 130.664 C 257.474 129.912,256.790 129.297,256.683 129.297 C 256.575 129.297,257.084 129.912,257.813 130.664 M133.781 134.863 L 130.273 138.477 133.887 134.969 C 135.874 133.040,137.500 131.414,137.500 131.356 C 137.500 131.072,137.039 131.507,133.781 134.863 M261.719 134.570 C 262.448 135.322,263.132 135.938,263.239 135.938 C 263.347 135.938,262.838 135.322,262.109 134.570 C 261.381 133.818,260.696 133.203,260.589 133.203 C 260.482 133.203,260.990 133.818,261.719 134.570 M159.556 161.035 L 157.617 163.086 159.668 161.147 C 160.796 160.081,161.719 159.159,161.719 159.097 C 161.719 158.805,161.357 159.130,159.556 161.035 M282.534 188.086 C 282.537 189.160,282.612 189.553,282.702 188.959 C 282.792 188.366,282.790 187.487,282.697 187.006 C 282.604 186.526,282.531 187.012,282.534 188.086 M109.075 188.672 C 109.075 189.424,109.155 189.731,109.254 189.355 C 109.352 188.979,109.352 188.364,109.254 187.988 C 109.155 187.612,109.075 187.920,109.075 188.672 M282.543 193.945 C 282.545 195.234,282.618 195.715,282.705 195.013 C 282.792 194.310,282.790 193.256,282.701 192.669 C 282.612 192.082,282.541 192.656,282.543 193.945 M108.705 195.898 C 108.708 196.973,108.784 197.366,108.874 196.772 C 108.964 196.178,108.961 195.299,108.869 194.819 C 108.776 194.338,108.703 194.824,108.705 195.898 M145.459 199.805 C 145.460 202.168,145.524 203.084,145.602 201.841 C 145.679 200.598,145.679 198.664,145.600 197.544 C 145.521 196.424,145.458 197.441,145.459 199.805 M189.194 253.125 C 189.194 254.736,189.263 255.396,189.347 254.590 C 189.431 253.784,189.431 252.466,189.347 251.660 C 189.263 250.854,189.194 251.514,189.194 253.125 M258.764 263.770 L 257.617 265.039 258.887 263.892 C 259.585 263.261,260.156 262.689,260.156 262.622 C 260.156 262.320,259.834 262.586,258.764 263.770 M183.789 298.438 C 185.065 299.727,186.196 300.781,186.304 300.781 C 186.411 300.781,185.455 299.727,184.180 298.438 C 182.904 297.148,181.773 296.094,181.665 296.094 C 181.558 296.094,182.513 297.148,183.789 298.438 M222.754 313.956 C 223.560 314.041,224.878 314.041,225.684 313.956 C 226.489 313.872,225.830 313.803,224.219 313.803 C 222.607 313.803,221.948 313.872,222.754 313.956 M125.489 349.023 C 125.493 349.883,125.573 350.188,125.667 349.702 C 125.760 349.217,125.757 348.513,125.659 348.140 C 125.561 347.767,125.485 348.164,125.489 349.023 M125.502 362.695 C 125.505 363.770,125.581 364.163,125.671 363.569 C 125.761 362.975,125.758 362.096,125.666 361.616 C 125.573 361.135,125.499 361.621,125.502 362.695 " stroke="none" fill="#f48b94" fill-rule="evenodd"></path><path id="path4" d="M180.572 151.452 C 181.166 151.542,182.044 151.540,182.525 151.447 C 183.005 151.354,182.520 151.281,181.445 151.284 C 180.371 151.287,179.978 151.362,180.572 151.452 M72.394 194.727 C 72.396 196.230,72.466 196.798,72.551 195.987 C 72.635 195.177,72.634 193.946,72.548 193.253 C 72.461 192.560,72.392 193.223,72.394 194.727 M98.242 262.109 C 99.081 262.969,99.856 263.672,99.963 263.672 C 100.071 263.672,99.472 262.969,98.633 262.109 C 97.794 261.250,97.019 260.547,96.912 260.547 C 96.804 260.547,97.403 261.250,98.242 262.109 M256.421 266.113 L 255.273 267.383 256.543 266.236 C 257.241 265.604,257.813 265.033,257.813 264.966 C 257.813 264.664,257.490 264.930,256.421 266.113 M290.808 285.645 L 288.477 288.086 290.918 285.754 C 292.261 284.472,293.359 283.373,293.359 283.313 C 293.359 283.024,292.974 283.377,290.808 285.645 " stroke="none" fill="#f47c84" fill-rule="evenodd"></path></g></svg>