<?xml version="1.0" encoding="UTF-8" standalone="no"?>
<!-- Created with Inkscape (http://www.inkscape.org/) -->

<svg
   xmlns:dc="http://purl.org/dc/elements/1.1/"
   xmlns:cc="http://creativecommons.org/ns#"
   xmlns:rdf="http://www.w3.org/1999/02/22-rdf-syntax-ns#"
   xmlns:svg="http://www.w3.org/2000/svg"
   xmlns="http://www.w3.org/2000/svg"
   xmlns:sodipodi="http://sodipodi.sourceforge.net/DTD/sodipodi-0.dtd"
   xmlns:inkscape="http://www.inkscape.org/namespaces/inkscape"
   width="100mm"
   height="100mm"
   viewBox="0 0 100 100"
   version="1.1"
   id="svg16"
   inkscape:version="0.92.5 (2060ec1f9f, 2020-04-08)"
   sodipodi:docname="icon.svg">
  <defs
     id="defs10" />
  <sodipodi:namedview
     id="base"
     pagecolor="#ffffff"
     bordercolor="#666666"
     borderopacity="1.0"
     inkscape:pageopacity="0.0"
     inkscape:pageshadow="2"
     inkscape:zoom="0.90509668"
     inkscape:cx="279.89414"
     inkscape:cy="206.74055"
     inkscape:document-units="mm"
     inkscape:current-layer="svg16"
     showgrid="false"
     showguides="false"
     inkscape:window-width="1366"
     inkscape:window-height="744"
     inkscape:window-x="0"
     inkscape:window-y="0"
     inkscape:window-maximized="0"
     fit-margin-top="0"
     fit-margin-left="0"
     fit-margin-right="0"
     fit-margin-bottom="0" />
  <metadata
     id="metadata13">
    <rdf:RDF>
      <cc:Work
         rdf:about="">
        <dc:format>image/svg+xml</dc:format>
        <dc:type
           rdf:resource="http://purl.org/dc/dcmitype/StillImage" />
        <dc:title></dc:title>
      </cc:Work>
    </rdf:RDF>
  </metadata>
  <g
     inkscape:label="Layer 1"
     id="layer1"
     transform="translate(-20.755409,-18.065502)"
     inkscape:export-filename="/home/qiscus/.config/Ferdi/recipes/dev/erepublik/icon.png"
     inkscape:export-xdpi="260.35001"
     inkscape:export-ydpi="260.35001">
    <rect
       style="fill:none;stroke-width:0.27594411"
       id="rect5031"
       width="100"
       height="100"
       x="20.755409"
       y="18.065502" />
    <g
       id="g5607"
       transform="matrix(0.83926669,0,0,1.2498864,111.04756,-37.898639)">
      <path
         style="fill:#afcfd2;stroke-width:0.08466666"
         d="m -107.2593,122.56586 c 0,-0.20532 1.88926,-1.76916 4.52967,-3.74945 9.141419,-6.85601 20.059562,-12.16519 30.880964,-15.01652 0.710803,-0.18729 1.377964,-0.37761 1.482581,-0.42292 l 0.19021,-0.0824 0.02146,-12.088115 0.02146,-12.088112 1.185333,-0.592667 1.185333,-0.592666 0.04233,-1.180318 0.04233,-1.180318 3.048,-1.384023 c 1.6764,-0.761211 3.6957,-1.670409 4.487333,-2.020437 0.791634,-0.350028 1.481853,-0.662924 1.533822,-0.695326 0.05197,-0.0324 0.564367,-0.374785 1.138664,-0.760852 2.651646,-1.782554 5.597168,-2.776342 8.817352,-2.974878 2.760163,-0.170175 5.582974,0.292218 7.983496,1.307745 0.512233,0.216696 1.029236,0.434572 1.148897,0.484166 0.190511,0.07896 0.329891,0.02992 1.120899,-0.394371 l 0.903335,-0.484544 0.0221,-3.482355 0.0221,-3.482356 0.338667,-0.229664 0.338666,-0.229665 0.04233,-0.996715 0.04233,-0.996715 0.613833,-0.329894 0.613834,-0.329894 v -2.780034 c 0,-1.529019 0.02313,-2.840301 0.05139,-2.913959 0.06623,-0.172594 0.25432,-0.172594 0.32055,0 0.02827,0.07366 0.05139,0.570106 0.05139,1.103217 0,0.843363 0.0275,1.03463 0.211667,1.472191 0.190468,0.452533 0.211666,0.617296 0.211666,1.645185 v 1.142288 l 0.359834,0.09082 c 0.798654,0.201578 0.740833,0.07416 0.740833,1.632624 0,1.449934 0.03248,1.585082 0.381,1.585082 0.380098,0 0.381,0.0092 0.381,3.906602 0,2.592763 0.02782,3.720595 0.09275,3.760726 0.05101,0.03153 0.479637,0.157601 0.9525,0.280164 l 0.859751,0.22284 0.04233,2.582334 0.04233,2.582333 2.370796,0.592666 c 1.303938,0.325967 2.418363,0.623491 2.4765,0.661164 0.08377,0.05428 0.105704,2.879046 0.105704,13.611981 v 13.54348 l 0.1905,0.0792 c 0.104775,0.0436 0.6477,0.19771 1.2065,0.34254 7.338229,1.90189 15.2450119,5.16652 22.0979997,9.12401 3.543935,2.04657 7.2615552,4.54044 10.4039077,6.97919 2.0436336,1.58604 3.2697586,2.6334 3.2697586,2.79304 0,0.13334 -0.162915,0.0576 -1.068612,-0.49647 -3.9950131,-2.44418 -5.8050002,-3.46586 -9.0490543,-5.10788 -12.0121767,-6.08011 -24.8047597,-9.82148 -38.1960677,-11.17097 -3.871709,-0.39017 -6.642511,-0.52201 -10.948278,-0.52097 -5.458608,0.001 -9.407137,0.24829 -14.440321,0.90316 -14.933744,1.94305 -29.855874,7.22883 -42.567643,15.07851 -2.01714,1.24561 -2.34803,1.42432 -2.34803,1.26818 z"
         id="path5621"
         inkscape:connector-curvature="0" />
      <path
         style="fill:#eda60b;stroke-width:0.08466666"
         d="m -106.32354,121.81905 c 1.67983,-1.61535 7.549278,-5.80546 11.21391,-8.00544 4.219822,-2.53328 9.192753,-4.98413 13.716,-6.75978 2.769934,-1.08736 6.435236,-2.30696 9.023651,-3.00255 0.718125,-0.19299 1.515232,-0.4145 1.771349,-0.49224 l 0.465667,-0.14137 0.04233,-12.107328 0.04233,-12.107333 1.185334,-0.592666 1.185333,-0.592667 0.04233,-1.184296 0.04233,-1.184296 4.318,-1.964812 c 2.3749,-1.080646 4.39782,-1.966937 4.495377,-1.969537 0.09756,-0.0026 0.249958,-0.08526 0.338667,-0.183682 0.324995,-0.360595 2.056613,-1.436379 3.168007,-1.968155 1.751119,-0.837869 3.410994,-1.336187 5.417615,-1.626446 1.465411,-0.211972 4.123912,-0.134998 5.69148,0.16479 1.374126,0.262793 2.903222,0.748778 4.019072,1.277361 l 0.804572,0.381129 0.817271,-0.435314 c 0.449499,-0.239422 0.883947,-0.492315 0.965439,-0.561983 0.136565,-0.116751 0.148166,-0.39387 0.148166,-3.539209 0,-2.623974 0.02446,-3.434035 0.105834,-3.505564 0.05821,-0.05116 0.228438,-0.165664 0.378288,-0.254445 l 0.272455,-0.161418 0.02388,-0.997728 0.02388,-0.997727 0.613833,-0.321634 0.613833,-0.321634 v -1.167548 c 0,-1.959752 0.107392,-4.75085 0.182797,-4.75085 0.03916,0 0.0712,0.515498 0.0712,1.145551 0,1.031371 0.0211,1.195676 0.211667,1.648449 0.190469,0.452533 0.211667,0.617295 0.211667,1.645185 v 1.142288 l 0.359833,0.09082 c 0.792892,0.200124 0.733795,0.07027 0.75994,1.669785 l 0.02323,1.42092 0.254,0.08467 c 0.1397,0.04657 0.301625,0.11549 0.359833,0.153164 0.08202,0.05308 0.105833,0.90454 0.105833,3.783836 0,2.601413 0.02781,3.732525 0.09275,3.772662 0.05101,0.03153 0.479638,0.157601 0.9525,0.280163 l 0.859751,0.222841 0.04233,2.577388 0.04233,2.577388 2.370667,0.597612 c 1.303866,0.328686 2.418291,0.628435 2.4765,0.666109 0.08394,0.05433 0.105833,2.868807 0.105833,13.605168 0,9.085275 0.02832,13.554173 0.08612,13.589893 0.04736,0.0293 0.780791,0.24162 1.629829,0.47187 11.18489,3.03324 21.2997201,7.93057 30.6714057,14.85025 0.8107003,0.59859 2.4228044,1.8682 4.0531123,3.19203 0.09643,0.0783 0.150139,0.16757 0.119337,0.19837 -0.0308,0.0308 -0.6779342,-0.32426 -1.4380715,-0.78903 -9.8572659,-6.02698 -20.0740015,-10.30356 -31.0794485,-13.00941 -15.007921,-3.68991 -30.661606,-4.14939 -45.994616,-1.35006 -12.792847,2.33558 -25.475104,7.15482 -36.575992,13.89883 -0.88477,0.53752 -1.78012,1.07008 -1.98967,1.18349 l -0.381,0.20618 z m 38.477362,-18.95829 c 2.422422,-0.53288 5.715684,-1.10577 8.254215,-1.43588 0.395816,-0.0515 0.746348,-0.11946 0.77896,-0.15109 0.03261,-0.0316 0.02433,-4.972391 -0.01841,-10.979475 -0.04274,-6.007084 -0.07894,-12.341197 -0.08046,-14.075805 -0.0019,-2.158883 -0.03101,-3.153833 -0.0923,-3.153833 -0.106378,0 -7.23305,3.263833 -7.50929,3.439062 -0.182237,0.115599 -0.1905,0.170602 -0.1905,1.268009 v 1.147168 l -1.227667,0.588969 -1.227667,0.588969 v 11.512244 c 0,6.331733 0.02893,11.512242 0.06428,11.512242 0.03536,0 0.597332,-0.11726 1.248834,-0.26058 z m 31.507494,-1.53859 c 0.04346,-0.061 0.05205,-2.183664 0.02029,-5.016495 -0.03028,-2.700867 -0.05952,-8.670792 -0.06498,-13.266502 -0.0066,-5.553794 -0.03876,-8.373656 -0.09591,-8.408976 -0.04729,-0.02923 -1.009315,0.440322 -2.137834,1.04344 l -2.051851,1.096579 -0.04233,12.040663 c -0.02328,6.622364 -0.02328,12.068831 0,12.103251 0.02328,0.0344 0.918634,0.14915 1.989667,0.25494 1.071033,0.10578 1.963208,0.20732 1.982611,0.22564 0.07721,0.0729 0.329331,0.0272 0.400335,-0.0725 z m -12.251725,-0.70185 c 0.05722,-0.0572 0.05888,-1.215345 0.005,-3.512341 -0.04419,-1.884834 -0.0813,-5.358297 -0.08246,-7.718807 -0.0012,-2.360509 -0.032,-4.310302 -0.06852,-4.332873 -0.03652,-0.02257 -0.341319,0.111441 -0.677333,0.297803 l -0.610934,0.338839 v 2.746445 2.746445 l -0.275167,0.1693 c -0.151341,0.09311 -0.646641,0.360928 -1.100666,0.59514 l -0.8255,0.42584 v 4.196878 4.196881 l 1.775091,-0.0321 c 1.034978,-0.0187 1.810687,-0.0677 1.860463,-0.11746 z m 11.005833,-26.664431 0.949148,-0.505788 -0.05117,-1.653212 c -0.06086,-1.966535 -0.112574,-2.542212 -0.228354,-2.542212 -0.04738,0 -0.458559,0.198982 -0.913743,0.442182 l -0.827608,0.442181 -0.06076,2.094693 c -0.03342,1.152083 -0.0351,2.136211 -0.0037,2.186955 0.06988,0.113063 -0.0078,0.144849 1.136222,-0.464799 z"
         id="path5619"
         inkscape:connector-curvature="0" />
      <path
         style="fill:#5f96a8;stroke-width:0.08466666"
         d="m -106.32354,121.81905 c 1.67983,-1.61535 7.549278,-5.80546 11.21391,-8.00544 4.219822,-2.53328 9.192753,-4.98413 13.716,-6.75978 2.769934,-1.08736 6.435236,-2.30696 9.023651,-3.00255 0.718125,-0.19299 1.515232,-0.4145 1.771349,-0.49224 l 0.465667,-0.14137 0.04233,-12.107328 0.04233,-12.107333 1.185334,-0.592666 1.185333,-0.592667 0.04233,-1.184296 0.04233,-1.184296 4.318,-1.964812 c 2.3749,-1.080646 4.3942,-1.965828 4.487333,-1.967072 0.09313,-0.0012 1.312333,0.7359 2.709333,1.638097 l 2.54,1.640358 0.04233,1.928679 0.04233,1.92868 0.550333,0.392441 0.550334,0.392442 0.02175,5.762841 c 0.01696,4.49247 0.04513,5.782247 0.127828,5.850877 0.07664,0.0636 0.270319,0.0017 0.697915,-0.222952 l 0.591839,-0.310988 0.02236,-2.744426 c 0.01476,-1.811379 0.05349,-2.781943 0.113939,-2.854776 0.13405,-0.161519 1.984038,-1.131797 2.157951,-1.131797 0.150287,0 4.573573,1.949409 4.923585,2.169898 l 0.1905,0.120006 v 3.837259 c 0,3.550003 0.01109,3.846707 0.148167,3.963479 0.249352,0.212418 1.436892,0.6892 1.579917,0.634316 0.121854,-0.04676 0.134583,-0.919505 0.134583,-9.227512 0,-8.633255 0.0088,-9.183509 0.148167,-9.305078 0.08149,-0.07107 0.529166,-0.330674 0.994833,-0.576908 0.465667,-0.246235 0.913342,-0.5047 0.994833,-0.574368 0.135065,-0.115468 0.148167,-0.353547 0.148167,-2.692402 v -2.565732 l 0.783167,-0.419375 c 0.430741,-0.230657 0.868891,-0.48165 0.973666,-0.557765 l 0.1905,-0.138389 v -3.421709 c 0,-2.63131 0.02445,-3.443198 0.105834,-3.514734 0.05821,-0.05116 0.228438,-0.165664 0.378288,-0.254445 l 0.272455,-0.161418 0.02388,-0.997728 0.02388,-0.997727 0.613833,-0.321634 0.613833,-0.321634 v -1.167548 c 0,-1.959752 0.107392,-4.75085 0.182797,-4.75085 0.03916,0 0.0712,0.515498 0.0712,1.145551 0,1.031371 0.0211,1.195676 0.211667,1.648449 0.190469,0.452533 0.211667,0.617295 0.211667,1.645185 v 1.142288 l 0.359833,0.09082 c 0.792892,0.200124 0.733795,0.07027 0.75994,1.669785 l 0.02323,1.42092 0.254,0.08467 c 0.1397,0.04657 0.301625,0.11549 0.359833,0.153164 0.08202,0.05308 0.105833,0.90454 0.105833,3.783836 0,2.601413 0.02781,3.732525 0.09275,3.772662 0.05101,0.03153 0.479638,0.157601 0.9525,0.280163 l 0.859751,0.222841 0.04233,2.577388 0.04233,2.577388 2.370667,0.597612 c 1.303866,0.328686 2.418291,0.628435 2.4765,0.666109 0.08394,0.05433 0.105833,2.868807 0.105833,13.605168 0,9.085275 0.02832,13.554173 0.08612,13.589893 0.04736,0.0293 0.780791,0.24162 1.629829,0.47187 11.18489,3.03324 21.2997201,7.93057 30.6714057,14.85025 0.8107003,0.59859 2.4228044,1.8682 4.0531123,3.19203 0.09643,0.0783 0.150139,0.16757 0.119337,0.19837 -0.0308,0.0308 -0.6779342,-0.32426 -1.4380715,-0.78903 -9.8572659,-6.02698 -20.0740015,-10.30356 -31.0794485,-13.00941 -15.007921,-3.68991 -30.661606,-4.14939 -45.994616,-1.35006 -12.792847,2.33558 -25.475104,7.15482 -36.575996,13.89883 -0.88477,0.53752 -1.78012,1.07008 -1.98967,1.18349 l -0.381,0.20618 z m 38.477362,-18.95829 c 2.422422,-0.53288 5.715684,-1.10577 8.254215,-1.43588 0.395816,-0.0515 0.746348,-0.11946 0.77896,-0.15109 0.03261,-0.0316 0.02433,-4.972391 -0.01841,-10.979475 -0.04274,-6.007084 -0.07894,-12.341197 -0.08046,-14.075805 -0.0019,-2.158883 -0.03101,-3.153833 -0.0923,-3.153833 -0.106378,0 -7.23305,3.263833 -7.50929,3.439062 -0.182237,0.115599 -0.1905,0.170602 -0.1905,1.268009 v 1.147168 l -1.227667,0.588969 -1.227667,0.588969 v 11.512244 c 0,6.331733 0.02893,11.512242 0.06428,11.512242 0.03536,0 0.597332,-0.11726 1.248834,-0.26058 z m 31.507494,-1.53859 c 0.04346,-0.061 0.05205,-2.183664 0.02029,-5.016495 -0.03028,-2.700867 -0.05952,-8.670792 -0.06498,-13.266502 -0.0066,-5.553794 -0.03876,-8.373656 -0.09591,-8.408976 -0.04729,-0.02923 -1.009315,0.440322 -2.137834,1.04344 l -2.051851,1.096579 -0.04233,12.040663 c -0.02328,6.622364 -0.02328,12.068831 0,12.103251 0.02328,0.0344 0.918634,0.14915 1.989667,0.25494 1.071033,0.10578 1.963208,0.20732 1.982611,0.22564 0.07721,0.0729 0.329331,0.0272 0.400335,-0.0725 z m -12.251725,-0.70185 c 0.05722,-0.0572 0.05888,-1.215345 0.005,-3.512341 -0.04419,-1.884834 -0.0813,-5.358297 -0.08246,-7.718807 -0.0012,-2.360509 -0.032,-4.310302 -0.06852,-4.332873 -0.03652,-0.02257 -0.341319,0.111441 -0.677333,0.297803 l -0.610934,0.338839 v 2.746445 2.746445 l -0.275167,0.1693 c -0.151341,0.09311 -0.646641,0.360928 -1.100666,0.59514 l -0.8255,0.42584 v 4.196878 4.196881 l 1.775091,-0.0321 c 1.034978,-0.0187 1.810687,-0.0677 1.860463,-0.11746 z m 11.005833,-26.664431 0.949148,-0.505788 -0.05117,-1.653212 c -0.06086,-1.966535 -0.112574,-2.542212 -0.228354,-2.542212 -0.04738,0 -0.458559,0.198982 -0.913743,0.442182 l -0.827608,0.442181 -0.06076,2.094693 c -0.03342,1.152083 -0.0351,2.136211 -0.0037,2.186955 0.06988,0.113063 -0.0078,0.144849 1.136222,-0.464799 z"
         id="path5617"
         inkscape:connector-curvature="0" />
      <path
         style="fill:#447c93;stroke-width:0.08466666"
         d="m -106.07396,121.65742 c 0.46968,-0.42034 2.34411,-1.89332 3.56823,-2.80402 9.318891,-6.93292 19.667813,-11.93494 30.975767,-14.97174 0.721783,-0.19384 1.359958,-0.39173 1.418166,-0.43975 0.08376,-0.0691 0.105834,-2.59916 0.105834,-12.131568 0,-9.536811 0.02203,-12.060721 0.105833,-12.123309 0.05821,-0.04348 0.543983,-0.280801 1.0795,-0.527393 0.535517,-0.246592 1.039299,-0.506398 1.119516,-0.577348 0.121911,-0.107826 0.149703,-0.31591 0.169333,-1.267788 l 0.02348,-1.13879 4.275667,-1.942883 c 2.351617,-1.068585 4.351867,-1.960714 4.445,-1.982506 0.116964,-0.02737 0.954882,0.468346 2.709333,1.602853 l 2.54,1.642477 0.04233,1.928679 0.04233,1.92868 0.550333,0.392425 0.550334,0.392426 0.04233,5.808049 c 0.02328,3.194427 0.06795,5.833654 0.09927,5.86495 0.03131,0.0313 0.336113,-0.08937 0.677333,-0.268144 l 0.6204,-0.325045 0.02236,-2.744426 c 0.01476,-1.811379 0.05349,-2.781943 0.113939,-2.854776 0.13405,-0.161519 1.984038,-1.131797 2.157951,-1.131797 0.150287,0 4.573573,1.949409 4.923585,2.169898 l 0.1905,0.120006 v 3.837259 c 0,3.550003 0.01109,3.846707 0.148167,3.963479 0.249352,0.212418 1.436892,0.6892 1.579917,0.634316 0.121854,-0.04676 0.134583,-0.919505 0.134583,-9.227512 0,-8.632925 0.0088,-9.183564 0.148167,-9.305942 0.08149,-0.07154 0.554383,-0.345721 1.050872,-0.60929 0.496488,-0.263569 0.943586,-0.528475 0.993552,-0.588679 0.05905,-0.07116 0.0987,-0.99543 0.113294,-2.641131 l 0.02245,-2.531669 0.889,-0.48245 c 0.48895,-0.265347 0.9271,-0.497643 0.973667,-0.516212 0.05357,-0.02136 0.100216,-1.32059 0.127,-3.537241 l 0.04233,-3.503477 0.359834,-0.241607 0.359833,-0.241605 v -0.962141 -0.962139 l 0.635,-0.350528 0.635,-0.350528 v -1.729736 c 0,-1.808564 0.04761,-2.017481 0.321821,-1.412236 0.106698,0.235507 0.154778,0.64541 0.186179,1.587256 l 0.04233,1.269757 0.479926,0.127243 c 0.263958,0.06998 0.501558,0.148944 0.528,0.175466 0.02644,0.02652 0.05119,0.638073 0.05501,1.359 0.0038,0.720928 0.04053,1.365144 0.0816,1.431592 0.04107,0.06645 0.200397,0.16314 0.354066,0.214872 l 0.2794,0.09406 0.02204,3.72932 c 0.01679,2.841547 0.04703,3.749968 0.127,3.816058 0.05773,0.04771 0.352609,0.149602 0.655293,0.226435 0.302683,0.07683 0.693208,0.176957 0.867833,0.222499 l 0.3175,0.0828 0.0013,2.473236 c 6.78e-4,1.36028 0.03332,2.523753 0.07247,2.585495 0.03914,0.06174 1.152986,0.385591 2.475203,0.719667 l 2.404034,0.607408 0.05616,0.423334 c 0.03089,0.232833 0.05856,6.345077 0.0615,13.582763 0.0029,7.237687 0.03482,13.187368 0.07084,13.221508 0.03603,0.0341 0.522702,0.1826 1.081502,0.32989 10.517852,2.77235 20.4670829,7.39899 29.3793333,13.66211 2.0047712,1.40885 5.6824707,4.26481 5.5991927,4.34809 -0.02291,0.0229 -0.7015477,-0.35676 -1.5080909,-0.84371 C 2.5347179,117.23 -3.7240622,114.21034 -10.27363,111.8004 c -9.658342,-3.55381 -19.426435,-5.63334 -30.268333,-6.4438 -2.444071,-0.18271 -9.784795,-0.25611 -12.492265,-0.12493 -18.570945,0.89983 -36.20684,6.28403 -51.777122,15.80745 -1.22975,0.75217 -1.63268,0.94948 -1.26261,0.6183 z m 38.806666,-18.82844 c 2.326455,-0.48975 4.210363,-0.82677 6.151331,-1.10043 0.861483,-0.12146 1.890183,-0.27474 2.286,-0.34062 0.801744,-0.13344 3.081865,-0.35789 4.572,-0.45004 l 0.973666,-0.0602 0.02681,-2.963329 c 0.04136,-4.57218 -0.06932,-11.316939 -0.185081,-11.278998 -0.05265,0.01726 -0.107837,0.154577 -0.12264,0.30516 -0.03406,0.346497 -0.217497,0.304949 -0.253384,-0.05739 l -0.0263,-0.265524 -1.878702,-0.02429 c -1.033286,-0.01336 -1.926327,0.009 -1.984535,0.04958 -0.05821,0.04063 -0.105833,0.165395 -0.105833,0.277263 0,0.142549 -0.06769,0.229129 -0.226268,0.289421 -0.309548,0.11769 -0.419197,0.05659 -0.491679,-0.273994 -0.111469,-0.508392 -0.192107,-4.091612 -0.20284,-9.013357 -0.0086,-3.95221 -0.03149,-4.854181 -0.125072,-4.931846 -0.08798,-0.07302 -0.338153,0.0097 -1.0795,0.356995 -0.530736,0.248624 -2.241325,1.03642 -3.801308,1.750658 -1.559983,0.714238 -2.882908,1.333768 -2.939832,1.376734 -0.0705,0.05321 -0.110992,0.446601 -0.127,1.233856 l -0.0235,1.155737 -1.185334,0.592666 -1.185333,0.592667 -0.02177,11.472333 c -0.01197,6.309782 -0.0036,11.519958 0.01851,11.578158 0.02215,0.0582 0.0642,0.10584 0.09344,0.10584 0.02924,0 0.859109,-0.16966 1.844157,-0.37703 z m 40.441205,-4.470139 c -1.69e-4,-6.422362 -0.08515,-10.990669 -0.204119,-10.972701 -0.05065,0.0077 -0.149239,-0.01154 -0.219089,-0.04264 -0.06985,-0.0311 -2.05105,-0.04664 -4.402666,-0.03452 l -4.275667,0.02203 -0.02768,0.254 c -0.01523,0.1397 -0.05861,0.285958 -0.09642,0.325019 -0.100465,0.1038 -0.162691,-2.193589 -0.21978,-8.114352 -0.02784,-2.887133 -0.08109,-5.280936 -0.118331,-5.319564 -0.03724,-0.03863 -1.043986,0.453341 -2.237205,1.093262 l -2.169489,1.163492 0.02145,12.157071 0.02145,12.157072 1.778,0.18472 c 0.9779,0.1016 2.2352,0.22449 2.794,0.27308 1.635481,0.14224 6.851983,1.06027 8.720667,1.53471 0.1397,0.0355 0.339725,0.0684 0.4445,0.0731 l 0.1905,0.009 -8.5e-5,-4.762498 z m -14.901208,-0.01116 v -2.572329 l -1.132032,-0.479483 c -0.622617,-0.263716 -1.203642,-0.531773 -1.291167,-0.595682 -0.137641,-0.100504 -0.162283,-0.251503 -0.182447,-1.11802 -0.02889,-1.241326 -0.06246,-1.417518 -0.255399,-1.340455 -0.148787,0.05943 -3.177795,0.05989 -3.486013,5.08e-4 -0.09475,-0.01825 -0.17469,0.01226 -0.177642,0.0678 -0.003,0.05554 -0.04454,0.0057 -0.09243,-0.110695 -0.04959,-0.120553 -0.123481,-1.724147 -0.171669,-3.725333 -0.04653,-1.932516 -0.100874,-3.530222 -0.120754,-3.550457 -0.04832,-0.04919 -1.215315,0.514649 -1.359146,0.656672 -0.08998,0.08888 -0.113305,0.675314 -0.113305,2.849405 v 2.737498 l -1.0795,0.57962 -1.0795,0.57962 -0.02195,4.261783 -0.02195,4.261787 3.53562,-0.051 c 1.944592,-0.0281 4.088071,-0.0182 4.763287,0.022 0.675217,0.0402 1.465792,0.0789 1.756834,0.0861 l 0.529166,0.013 z M -54.34263,86.272676 c 0,-0.163062 -0.05645,-0.169334 -1.524,-0.169334 -1.467555,0 -1.524,0.0063 -1.524,0.169334 0,0.163062 0.05645,0.169333 1.524,0.169333 1.467555,0 1.524,-0.0063 1.524,-0.169333 z m 22.745608,-12.962643 c -0.03091,-0.749822 -0.09286,-1.426097 -0.137664,-1.502833 -0.0534,-0.09146 -0.08235,-0.101346 -0.08404,-0.02869 -0.0014,0.06096 -0.03296,0.09205 -0.07009,0.0691 -0.03713,-0.02295 -1.081396,-0.04983 -2.320578,-0.05972 l -2.253058,-0.01799 -0.04812,-0.34744 c -0.02646,-0.191092 -0.07355,-0.777213 -0.104634,-1.30249 -0.03109,-0.525278 -0.08986,-0.975657 -0.130611,-1.000843 -0.04075,-0.02519 -0.501981,0.178501 -1.024955,0.452637 l -0.950862,0.49843 -0.05236,0.968079 c -0.104205,1.926586 -0.08528,3.466978 0.0432,3.51628 0.06481,0.02487 0.58253,-0.205469 1.150485,-0.511865 l 1.032644,-0.557085 2.299682,0.586791 c 1.264826,0.322736 2.391365,0.58998 2.503422,0.593875 l 0.203737,0.0071 -0.0562,-1.363311 z"
         id="path5615"
         inkscape:connector-curvature="0" />
      <path
         style="fill:#36728f;stroke-width:0.08466666"
         d="m -105.81996,121.54166 c 0,-0.0687 2.23039,-1.83228 3.556,-2.81173 8.757323,-6.47055 18.701476,-11.3708 29.082997,-14.33142 1.1176,-0.31872 2.24155,-0.62934 2.497666,-0.69026 0.256117,-0.0609 0.513292,-0.14636 0.5715,-0.18987 0.0838,-0.0626 0.105834,-2.59624 0.105834,-12.171598 v -12.09249 l 0.867833,-0.406491 c 0.477308,-0.22357 1.020233,-0.482759 1.2065,-0.575975 l 0.338667,-0.169483 0.0235,-1.155737 c 0.01596,-0.785036 0.0567,-1.181803 0.127,-1.237004 0.232438,-0.182511 8.572219,-3.914925 8.747586,-3.914925 0.104419,0 1.307365,0.720245 2.673215,1.600545 l 2.483364,1.600545 0.04233,1.928624 0.04233,1.928623 0.550333,0.392441 0.550334,0.392443 0.02175,5.857389 c 0.01709,4.602341 0.0443,5.856815 0.127,5.854712 0.05789,-0.0015 0.371954,-0.144347 0.69792,-0.3175 l 0.592667,-0.314824 0.02236,-2.744426 c 0.01476,-1.811379 0.05349,-2.781943 0.113939,-2.854776 0.13405,-0.161519 1.984038,-1.131797 2.157951,-1.131797 0.150287,0 4.573573,1.949409 4.923585,2.169898 l 0.1905,0.120006 v 3.837259 c 0,3.550593 0.01107,3.846572 0.148167,3.961932 0.223253,0.187854 1.549332,0.755657 1.637519,0.701154 0.04543,-0.02808 0.07698,-3.822078 0.07698,-9.258124 0,-8.666302 0.0088,-9.218178 0.148167,-9.339704 0.08149,-0.07104 0.595841,-0.368952 1.143,-0.662035 l 0.994833,-0.532876 V 72.431038 69.87789 l 0.994833,-0.544625 0.994834,-0.544626 0.04233,-3.510825 0.04233,-3.510827 0.338667,-0.189648 0.338667,-0.18965 0.04233,-0.99496 0.04233,-0.994961 0.592554,-0.348565 c 0.579768,-0.341044 0.593871,-0.357558 0.653663,-0.765378 0.03361,-0.229248 0.04457,-0.950214 0.02436,-1.602147 -0.04046,-1.30484 0.03383,-1.639289 0.249481,-1.123167 0.09553,0.22864 0.130944,0.613299 0.130944,1.422347 0,0.609923 0.03781,1.179596 0.08402,1.265938 0.07917,0.147928 0.331955,0.257434 0.868483,0.376224 l 0.232834,0.05155 v 1.439536 1.439535 l 0.232833,0.0919 c 0.128058,0.05054 0.289983,0.120536 0.359833,0.155543 0.10905,0.05465 0.132984,0.594872 0.169334,3.822122 l 0.04233,3.758475 0.859751,0.222841 c 0.472863,0.122562 0.901488,0.248636 0.9525,0.280163 0.06381,0.03944 0.09275,0.831872 0.09275,2.539625 0,1.908833 0.02495,2.503006 0.107977,2.571916 0.05939,0.04929 1.040462,0.322544 2.180167,0.607239 1.139704,0.284694 2.215064,0.555302 2.389689,0.60135 l 0.3175,0.08373 v 13.58755 13.587555 l 0.1905,0.0794 c 0.104775,0.0437 1.0287,0.30846 2.053167,0.58841 11.655281,3.18495 22.9881938,8.91376 32.2791667,16.31716 1.1896767,0.94797 1.4702533,1.21874 0.9313333,0.89873 -5.6589591,-3.36016 -8.7268812,-4.96856 -13.5255,-7.09092 -6.473673,-2.86321 -14.040544,-5.30045 -21.139213,-6.80879 -11.252863,-2.39103 -22.970903,-2.97945 -34.635567,-1.73922 -15.843789,1.68458 -31.427192,6.98073 -45.063218,15.31512 -0.9684,0.59189 -0.93133,0.57127 -0.93133,0.51813 z m 38.653605,-18.67929 c 2.026418,-0.43702 4.549494,-0.88177 6.473725,-1.14115 0.861483,-0.11612 1.775883,-0.24795 2.032,-0.29294 0.594236,-0.1044 1.862619,-0.22921 3.79114,-0.37304 0.838284,-0.0625 1.571763,-0.1431 1.629951,-0.17906 0.08405,-0.052 0.09454,-1.746632 0.05105,-8.244613 -0.03011,-4.498573 -0.07856,-9.118691 -0.107667,-10.266927 l -0.05292,-2.087702 -0.348611,-0.154498 c -0.191735,-0.08497 -0.46291,-0.259953 -0.60261,-0.388844 -0.218155,-0.201276 -0.257447,-0.213431 -0.278427,-0.08613 -0.02244,0.136143 -0.182179,0.148214 -1.961417,0.148214 -1.065343,0 -1.96875,-0.03174 -2.007572,-0.07053 -0.05935,-0.05931 -0.160276,-3.256212 -0.189645,-6.006957 -0.0063,-0.586041 -0.03553,-0.754079 -0.138236,-0.793491 -0.104786,-0.04021 -7.341512,3.218293 -7.827118,3.52434 -0.101498,0.06397 -0.121096,0.26181 -0.101622,1.025902 0.03649,1.431862 0.113893,1.311202 -1.257026,1.959609 l -1.181394,0.558767 -0.02177,11.500514 c -0.01197,6.325283 0.0099,11.570536 0.04869,11.656116 0.05382,0.11886 0.123792,0.14216 0.296334,0.0987 0.124231,-0.0313 0.91315,-0.20512 1.753151,-0.38627 z m 40.422056,-3.360529 c -0.0017,-2.037291 -0.03746,-6.997019 -0.07958,-11.021618 -0.06791,-6.489823 -0.09152,-7.325814 -0.208665,-7.391374 -0.07265,-0.04066 -0.132089,-0.170452 -0.132089,-0.288435 0,-0.273487 -0.200265,-0.223516 -0.241369,0.06023 -0.01634,0.11277 -0.07143,0.230951 -0.122438,0.262627 -0.142702,0.08862 -0.398193,-0.08605 -0.398193,-0.272237 0,-0.162947 -0.07966,-0.166355 -3.888778,-0.166355 h -3.888778 l -0.02705,0.1905 c -0.01739,0.122425 -0.09513,0.200168 -0.217556,0.217555 -0.188206,0.02673 -0.190634,0.0145 -0.201673,-1.016 -0.0061,-0.57368 -0.03472,-2.071298 -0.0635,-3.32804 -0.0465,-2.03058 -0.06788,-2.287964 -0.192028,-2.311745 -0.127695,-0.02446 -3.411986,1.676079 -4.157132,2.152477 l -0.3175,0.202989 v 12.107947 12.107948 l 0.1905,0.0734 c 0.104775,0.0403 1.1049,0.15609 2.2225,0.25722 3.383321,0.30613 6.423412,0.77252 9.652,1.48076 0.931333,0.2043 1.779058,0.37481 1.883833,0.37891 l 0.1905,0.007 z m -14.916937,-0.994833 c 0.01305,-1.350433 0.0045,-2.534391 -0.01906,-2.631017 -0.03238,-0.132937 -0.326562,-0.295639 -1.209061,-0.668686 -0.64145,-0.271151 -1.207868,-0.543555 -1.258708,-0.605343 -0.06058,-0.07363 -0.10984,-1.124032 -0.142948,-3.048424 -0.03929,-2.283735 -0.07519,-2.952609 -0.161565,-3.01045 -0.06108,-0.0409 -0.958389,-0.06365 -1.994024,-0.05056 -1.522621,0.01925 -1.891383,0.0019 -1.92692,-0.09091 -0.02417,-0.0631 -0.06871,-0.854028 -0.09897,-1.757624 -0.03591,-1.072122 -0.08886,-1.670982 -0.152416,-1.723729 -0.0901,-0.07477 -0.712836,0.194434 -1.293888,0.559342 l -0.1905,0.119636 v 2.691199 c 0,2.026149 -0.02615,2.723803 -0.105833,2.823135 -0.05821,0.07256 -0.54875,0.365616 -1.090092,0.651225 -0.877966,0.463212 -0.989972,0.547859 -1.037166,0.783831 -0.06551,0.327526 -0.07088,8.056697 -0.0057,8.226507 0.04057,0.10573 0.577811,0.11796 3.831166,0.0872 2.081186,-0.0197 4.298325,-4.2e-4 4.926975,0.0427 0.62865,0.0432 1.31445,0.0737 1.524,0.0679 l 0.381,-0.0106 0.02373,-2.455335 z M -31.546775,73.23401 c -0.03239,-2.200464 -0.08286,-2.690835 -0.283465,-2.754505 -0.251243,-0.07974 -3.710716,-0.116151 -4.112047,-0.04328 -0.194329,0.03529 -0.391873,0.04033 -0.438987,0.01121 -0.04711,-0.02912 -0.109496,-0.261777 -0.138626,-0.517019 -0.08239,-0.721914 -0.120755,-0.845077 -0.263248,-0.845077 -0.163513,0 -1.772371,0.81965 -1.942192,0.989471 -0.101587,0.101588 -0.12329,0.508836 -0.12329,2.313579 0,1.329658 0.0324,2.210312 0.08245,2.241248 0.04535,0.02803 0.547216,-0.198324 1.115261,-0.503003 0.568046,-0.304679 1.092916,-0.552954 1.166381,-0.551722 0.07346,0.0012 1.143222,0.265539 2.377238,0.587349 1.234017,0.321811 2.319867,0.577977 2.413,0.56926 0.163196,-0.01528 0.168543,-0.06955 0.147522,-1.497516 z"
         id="path5613"
         inkscape:connector-curvature="0" />
      <path
         style="fill:#2e434e;stroke-width:0.08466666"
         d="m -105.52363,121.28297 c 0.97414,-0.89017 4.41881,-3.43971 6.773333,-5.01323 3.643013,-2.43461 6.575423,-4.12141 10.583334,-6.08781 4.006348,-1.96564 7.329952,-3.32592 11.472333,-4.6954 2.043872,-0.6757 5.476957,-1.68048 6.214669,-1.81888 0.164247,-0.0308 0.347614,-0.11504 0.407481,-0.18717 0.08712,-0.10497 0.1173,-2.539 0.151183,-12.19394 l 0.04233,-12.062797 1.143,-0.528485 1.143,-0.528485 0.04233,-1.189659 c 0.02328,-0.654314 0.06138,-1.207534 0.08467,-1.229381 0.114449,-0.107384 8.691155,-3.953056 8.816197,-3.953056 0.07961,0 1.262255,0.720245 2.628105,1.600545 l 2.483364,1.600545 0.04233,1.928624 0.04233,1.928623 0.550333,0.392441 0.550334,0.392443 0.02175,5.857389 c 0.01709,4.602341 0.0443,5.856815 0.127,5.854712 0.05789,-0.0015 0.371954,-0.144347 0.69792,-0.3175 l 0.592667,-0.314824 0.02236,-2.744426 c 0.01476,-1.811379 0.05349,-2.781943 0.113939,-2.854776 0.13405,-0.161519 1.984038,-1.131797 2.157951,-1.131797 0.150287,0 4.573573,1.949409 4.923585,2.169898 l 0.1905,0.120006 v 3.837259 c 0,3.550593 0.01107,3.846572 0.148167,3.961932 0.223253,0.187854 1.549332,0.755657 1.637519,0.701154 0.04543,-0.02808 0.07698,-3.822078 0.07698,-9.258124 0,-8.666302 0.0088,-9.218178 0.148167,-9.339704 0.08149,-0.07104 0.595841,-0.368952 1.143,-0.662035 l 0.994833,-0.532876 0.0011,-2.547255 0.0011,-2.547254 0.978507,-0.508 c 0.538178,-0.2794 1.013932,-0.572171 1.057231,-0.650601 0.04485,-0.08123 0.07873,-1.603834 0.07873,-3.537688 V 61.7983 l 0.298521,-0.176132 c 0.164186,-0.09687 0.335636,-0.245483 0.381,-0.330245 0.04536,-0.08476 0.08248,-0.547351 0.08248,-1.027976 v -0.873862 l 0.613833,-0.340179 0.613833,-0.340179 0.04233,-1.691358 c 0.04226,-1.688303 0.0426,-1.690789 0.1905,-1.376577 0.119023,0.252866 0.148166,0.547477 0.148166,1.497836 0,0.853469 0.02949,1.202139 0.105834,1.251553 0.05821,0.03767 0.315383,0.125809 0.5715,0.195858 l 0.465666,0.127361 0.02334,1.390578 c 0.01283,0.764818 0.06131,1.436338 0.107732,1.492268 0.04642,0.05593 0.197841,0.12438 0.336497,0.152112 l 0.252101,0.05042 v 3.721402 c 0,3.021315 0.02162,3.743024 0.114929,3.836332 0.06321,0.06321 0.501361,0.206153 0.973667,0.317649 0.472305,0.111497 0.857963,0.243475 0.857019,0.293286 -0.02397,1.262969 0.0787,4.985079 0.139178,5.045557 0.04503,0.04503 1.138706,0.347299 2.430381,0.6717 1.291676,0.324401 2.385324,0.612578 2.43033,0.640393 0.05211,0.03221 0.08183,4.965132 0.08183,13.581876 0,10.724537 0.02195,13.548437 0.105834,13.613917 0.05821,0.0454 0.448733,0.16632 0.867833,0.26863 0.4191,0.1023 1.42875,0.37687 2.243667,0.61014 10.418309,2.98222 20.4159947,7.91284 29.0280341,14.31592 1.6608044,1.23482 3.4839656,2.66909 3.4839656,2.74083 0,0.0566 0.1815168,0.15919 -1.6933334,-0.95685 -13.877544,-8.26094 -28.9603093,-13.2489 -45.0003333,-14.88187 -3.960283,-0.40318 -6.016736,-0.49675 -11.006667,-0.50082 -5.16504,-0.004 -7.013926,0.0841 -11.557,0.55223 -11.510121,1.18594 -23.174124,4.35882 -33.739666,9.17799 -3.607978,1.64568 -8.862253,4.42676 -11.514663,6.09469 -0.23283,0.14642 -0.57573,0.35249 -0.762,0.45794 l -0.33867,0.19172 z m 37.776501,-18.28458 c 4.285051,-0.93503 9.169064,-1.65563 12.981166,-1.91526 1.151856,-0.0785 1.505224,-0.13029 1.5875,-0.23287 0.124399,-0.1551 0.138232,-4.135183 0.04955,-14.256074 l -0.05616,-6.409489 -0.557609,-0.363844 -0.557609,-0.363844 -0.04233,-1.820333 -0.04233,-1.820333 -2.159,-1.45717 c -1.18745,-0.801443 -2.208478,-1.482505 -2.26895,-1.513471 -0.111367,-0.05703 -0.903671,0.290931 -5.47805,2.40581 l -2.54,1.174323 -0.0235,1.199382 -0.0235,1.199381 -0.780834,0.358045 c -0.429459,0.196925 -0.971334,0.453518 -1.204167,0.570206 l -0.423334,0.21216 -0.02177,11.557 c -0.01197,6.356349 -0.0036,11.604621 0.01851,11.662831 0.05397,0.14183 0.01808,0.14617 1.542423,-0.18645 z m 41.006723,0.16421 c 0.149128,-0.17969 0.03652,-26.192299 -0.114061,-26.348807 -0.05462,-0.05677 -2.118426,-0.601913 -4.586236,-1.211431 -2.46781,-0.609517 -4.606291,-1.150136 -4.752179,-1.201374 -0.250558,-0.088 -0.381888,-0.03107 -2.370667,1.027702 -1.157978,0.616473 -2.14903,1.165438 -2.202339,1.219923 -0.112058,0.114531 -0.203761,24.294957 -0.09256,24.406357 0.03548,0.0355 0.911783,0.1496 1.947333,0.25345 2.757301,0.27653 3.983573,0.43007 5.735151,0.71806 1.566482,0.25755 4.87966,0.90671 5.757333,1.12804 0.256117,0.0646 0.489577,0.12164 0.5188,0.12679 0.02922,0.005 0.100963,-0.0483 0.159425,-0.11871 z m -14.837505,-4.801008 0.02239,-2.600749 -0.19172,-0.12468 c -0.105446,-0.06857 -0.648919,-0.319824 -1.207719,-0.558332 -0.5588,-0.238508 -1.0541,-0.471253 -1.100667,-0.51721 -0.05267,-0.05199 -0.100664,-1.526615 -0.127,-3.902465 l -0.04233,-3.818905 -1.016,-0.458453 c -0.5588,-0.252149 -1.49225,-0.669337 -2.074334,-0.927085 -0.582083,-0.257748 -1.094528,-0.502774 -1.138766,-0.544502 -0.155783,-0.146942 -0.435486,-0.07225 -1.063336,0.283965 l -0.634231,0.359833 -0.04233,2.793282 -0.04233,2.793283 -1.058333,0.561795 -1.058333,0.561795 v 4.307255 4.307251 l 3.344333,-0.022 c 1.839383,-0.0121 3.934883,0.0111 4.656667,0.0517 0.721783,0.0405 1.636183,0.0695 2.032,0.0644 l 0.719666,-0.009 z m 10.123654,-23.640066 c 0.02557,-0.06663 0.02358,-1.079865 -0.0044,-2.251627 -0.04915,-2.056637 -0.05705,-2.133085 -0.227932,-2.205747 -0.09736,-0.0414 -1.072363,-0.284909 -2.16668,-0.541135 -1.094316,-0.256225 -2.212207,-0.530653 -2.484201,-0.609838 l -0.494535,-0.143975 -0.972535,0.502569 c -0.662403,0.342306 -0.99744,0.565076 -1.050632,0.698582 -0.04295,0.107806 -0.0781,1.147228 -0.0781,2.309824 0,1.893912 0.01467,2.119439 0.140965,2.167906 0.08799,0.03376 0.530666,-0.15019 1.177936,-0.489491 l 1.03697,-0.543584 2.399231,0.606332 c 1.319578,0.333482 2.461831,0.609707 2.53834,0.613833 0.07651,0.0041 0.160028,-0.04702 0.185598,-0.113649 z"
         id="path5611"
         inkscape:connector-curvature="0" />
      <path
         style="fill:#1a3e4f;stroke-width:0.08466666"
         d="m -69.864852,103.40356 c -0.03105,-0.031 -0.05644,-5.455625 -0.05644,-12.054629 0,-9.498735 0.02205,-12.015128 0.105834,-12.079506 0.05821,-0.04472 0.543983,-0.284042 1.0795,-0.531815 0.535516,-0.247773 1.039298,-0.506557 1.119516,-0.575073 0.122245,-0.104416 0.14965,-0.309623 0.169333,-1.267965 l 0.02348,-1.143388 4.261791,-1.93592 c 2.343985,-1.064757 4.297698,-1.935921 4.341584,-1.935921 0.0698,0 0.861899,0.480591 2.106958,1.278358 0.20955,0.134268 0.97155,0.618985 1.693334,1.077148 l 1.312333,0.833026 0.04233,1.927042 c 0.04758,2.165732 -0.03515,1.906389 0.791486,2.481105 l 0.392687,0.273013 0.02175,5.86532 0.02175,5.86532 0.180624,0.02576 c 0.172837,0.02465 1.23169,-0.478853 1.446166,-0.687679 0.07587,-0.07387 0.105637,-0.802639 0.113659,-2.782768 0.0077,-1.889727 0.03984,-2.719071 0.108877,-2.805779 0.0539,-0.0677 0.519691,-0.339828 1.035081,-0.604725 l 0.937074,-0.481633 2.026259,0.90583 c 1.114443,0.498206 2.226285,0.995985 2.47076,1.106177 l 0.4445,0.200348 v 3.840278 c 0,3.549978 0.0112,3.850396 0.148167,3.974118 0.08149,0.07361 0.523612,0.297362 0.982489,0.497223 0.806679,0.351343 0.838239,0.358029 0.9525,0.201767 0.09941,-0.135948 0.118177,-1.622621 0.118177,-9.360646 v -9.199029 l 0.994834,-0.534289 c 0.547158,-0.293859 1.061508,-0.591568 1.143,-0.661576 0.134849,-0.115847 0.148283,-0.352507 0.149463,-2.632999 6.77e-4,-1.37814 0.02929,-2.546282 0.0635,-2.59587 0.03421,-0.04959 0.405103,-0.273988 0.824203,-0.498668 0.4191,-0.22468 0.828675,-0.466239 0.910167,-0.536796 0.13659,-0.118264 0.148167,-0.397979 0.148167,-3.580155 v -3.451867 l 0.359833,-0.198323 0.359833,-0.198323 0.02383,-0.9907 0.02383,-0.9907 0.568835,-0.315172 c 0.312861,-0.173345 0.596828,-0.355514 0.63104,-0.404821 0.03421,-0.04931 0.06279,-0.784973 0.0635,-1.634815 6.78e-4,-0.849841 0.03532,-1.545166 0.07691,-1.545166 0.159883,0 0.214818,0.340733 0.259325,1.60844 l 0.04607,1.312107 0.508,0.134186 0.508,0.134185 0.04233,1.404437 c 0.02328,0.77244 0.07364,1.436058 0.11191,1.474707 0.03827,0.03865 0.190667,0.111763 0.338667,0.162476 l 0.26909,0.0922 0.02204,3.72932 c 0.01679,2.841547 0.04703,3.749967 0.127,3.816058 0.05773,0.04771 0.35261,0.149602 0.655293,0.226434 0.302683,0.07683 0.693208,0.176958 0.867833,0.2225 l 0.3175,0.0828 0.0013,2.473236 c 6.77e-4,1.36028 0.03332,2.523753 0.07247,2.585495 0.03914,0.06174 1.152985,0.385591 2.475203,0.719666 l 2.404033,0.607409 0.02143,13.567832 c 0.02061,13.049815 0.01557,13.567835 -0.131984,13.567835 -0.08438,0 -0.21375,-0.0476 -0.287499,-0.10584 -0.120876,-0.0954 -0.13967,-1.40339 -0.190693,-13.271495 -0.04313,-10.032578 -0.08069,-13.190262 -0.157806,-13.269022 -0.07732,-0.07896 -4.536187,-1.228308 -9.503842,-2.449771 -0.196152,-0.04823 -3.976609,1.923361 -4.375767,2.282059 l -0.232834,0.209232 v 12.122449 12.122448 l -0.275166,-0.0265 -0.275167,-0.0265 -0.02236,-2.636458 c -0.01947,-2.29638 -0.03987,-2.651317 -0.158081,-2.751667 -0.07465,-0.06337 -0.636084,-0.327553 -1.24764,-0.587083 l -1.111919,-0.471873 -0.0507,-1.22146 c -0.02789,-0.671804 -0.05823,-2.402428 -0.06744,-3.845834 -0.0092,-1.443406 -0.04354,-2.649073 -0.0763,-2.679262 -0.05261,-0.04848 -0.919564,-0.444627 -3.403893,-1.555361 -0.395817,-0.176968 -0.796692,-0.371646 -0.890833,-0.432617 -0.150347,-0.09737 -0.253325,-0.0685 -0.846666,0.237404 -0.371526,0.191544 -0.703493,0.39025 -0.737705,0.441569 -0.03421,0.05132 -0.06279,1.318378 -0.0635,2.815688 l -0.0013,2.722379 -1.0795,0.579621 -1.0795,0.579619 -0.04233,4.289845 c -0.02328,2.359415 -0.06167,4.30915 -0.0853,4.33274 -0.02363,0.0236 -0.156981,0.0553 -0.296333,0.0705 l -0.253369,0.0276 -0.05139,-6.900332 c -0.02826,-3.795183 -0.05684,-8.466114 -0.0635,-10.379849 l -0.01211,-3.479516 -0.5715,-0.372817 -0.5715,-0.372817 -0.04233,-1.820333 -0.04233,-1.820333 -2.088859,-1.397 c -1.148873,-0.76835 -2.148503,-1.448879 -2.221401,-1.512288 -0.07625,-0.06632 -0.217013,-0.09409 -0.331433,-0.06537 -0.181275,0.0455 -7.38176,3.338568 -7.677307,3.511141 -0.09974,0.05824 -0.136086,0.326624 -0.169334,1.250502 l -0.04233,1.176347 -1.185333,0.592667 -1.185334,0.592666 -0.04233,11.665931 c -0.03718,10.246611 -0.05778,11.675701 -0.169333,11.746201 -0.150022,0.0948 -0.288514,0.1048 -0.366889,0.0264 z m 38.395358,-30.80455 c -0.01606,-1.210733 -0.06008,-2.233928 -0.09783,-2.273766 -0.03775,-0.03984 -1.015212,-0.296464 -2.172137,-0.570279 -1.156925,-0.273816 -2.328531,-0.563381 -2.603568,-0.643479 l -0.500067,-0.145633 -0.895787,0.461912 c -0.492684,0.254052 -0.962979,0.528587 -1.0451,0.610078 -0.135123,0.134088 -0.149312,0.360506 -0.149312,2.382775 0,1.917854 0.01818,2.241584 0.128245,2.283821 0.07214,0.02768 0.581446,-0.194621 1.164167,-0.508139 l 1.035922,-0.557351 2.370666,0.59553 c 1.303867,0.327542 2.465917,0.588856 2.582334,0.580698 l 0.211666,-0.01483 z"
         id="path5609"
         inkscape:connector-curvature="0" />
    </g>
  </g>
</svg>
