<svg xmlns="http://www.w3.org/2000/svg" width="100mm" height="100mm" viewBox="0 0 100 100"><path style="fill:none;stroke-width:.27594411" d="M20.755 18.066h100v100h-100z" transform="translate(-20.755 -18.066)"/><path style="fill:#afcfd2;stroke-width:.08466666" d="M-107.26 122.566c0-.205 1.89-1.77 4.53-3.75 9.142-6.856 20.06-12.165 30.881-15.016.711-.187 1.378-.378 1.483-.423l.19-.082.022-12.089.021-12.088 1.185-.592 1.186-.593.042-1.18.042-1.18 3.048-1.385c1.677-.76 3.696-1.67 4.488-2.02.791-.35 1.482-.663 1.534-.695.051-.033.564-.375 1.138-.761 2.652-1.783 5.597-2.777 8.818-2.975 2.76-.17 5.583.292 7.983 1.308l1.149.484c.19.079.33.03 1.12-.395l.904-.484.022-3.483.022-3.482.339-.23.339-.23.042-.996.042-.997.614-.33.614-.33v-2.78c0-1.528.023-2.84.051-2.913.067-.173.255-.173.321 0 .028.073.051.57.051 1.103 0 .843.028 1.034.212 1.472.19.453.212.617.212 1.645v1.142l.36.091c.798.202.74.074.74 1.633 0 1.45.033 1.585.381 1.585.38 0 .381.01.381 3.907 0 2.592.028 3.72.093 3.76.051.032.48.158.953.28l.86.223.042 2.583.042 2.582 2.37.593c1.305.326 2.42.623 2.477.66.084.055.106 2.88.106 13.613v13.543l.19.08c.105.043.648.197 1.207.342 7.338 1.902 15.245 5.167 22.098 9.124a95.323 95.323 0 0 1 10.404 6.98c2.044 1.585 3.27 2.633 3.27 2.792 0 .134-.163.058-1.069-.496-3.995-2.444-5.805-3.466-9.049-5.108a108.058 108.058 0 0 0-38.196-11.171c-3.872-.39-6.643-.522-10.948-.521-5.459.001-9.407.248-14.44.903-14.934 1.943-29.857 7.229-42.568 15.079-2.017 1.245-2.348 1.424-2.348 1.268z" transform="matrix(.83927 0 0 1.24989 90.292 -55.964)"/><path style="fill:#eda60b;stroke-width:.08466666" d="M-106.324 121.82c1.68-1.616 7.55-5.806 11.214-8.006 4.22-2.534 9.193-4.985 13.716-6.76 2.77-1.088 6.436-2.307 9.024-3.003a85.656 85.656 0 0 0 1.771-.492l.466-.141.042-12.108.043-12.107 1.185-.593 1.185-.592.043-1.185.042-1.184 4.318-1.965c2.375-1.08 4.398-1.967 4.495-1.97.098-.002.25-.085.34-.183.324-.36 2.056-1.436 3.167-1.968 1.751-.838 3.411-1.336 5.418-1.627 1.465-.212 4.124-.135 5.691.165 1.374.263 2.903.749 4.02 1.278l.804.38.817-.435c.45-.239.884-.492.966-.562.136-.116.148-.393.148-3.539 0-2.624.024-3.434.106-3.505.058-.051.228-.166.378-.255l.272-.161.024-.998.024-.998.614-.321.614-.322v-1.167c0-1.96.107-4.751.182-4.751.04 0 .072.515.072 1.145 0 1.032.02 1.196.211 1.649.19.452.212.617.212 1.645v1.142l.36.091c.793.2.734.07.76 1.67l.023 1.42.254.085c.14.047.302.116.36.154.082.053.106.904.106 3.783 0 2.602.028 3.733.092 3.773.051.032.48.158.953.28l.86.223.042 2.577.042 2.578 2.371.597c1.304.33 2.418.629 2.477.667.083.054.105 2.868.105 13.605 0 9.085.029 13.554.086 13.59.048.029.781.241 1.63.471 11.185 3.034 21.3 7.931 30.672 14.85.81.6 2.423 1.869 4.053 3.193.096.078.15.167.12.198-.032.03-.679-.324-1.439-.789-9.857-6.027-20.074-10.303-31.08-13.01-15.007-3.69-30.661-4.149-45.994-1.35-12.793 2.336-25.475 7.155-36.576 13.9-.885.537-1.78 1.07-1.99 1.183l-.38.206zm38.478-18.96a106.55 106.55 0 0 1 8.254-1.435c.396-.052.746-.12.779-.151.033-.032.024-4.973-.018-10.98-.043-6.007-.08-12.34-.08-14.075-.003-2.16-.032-3.154-.093-3.154-.107 0-7.233 3.264-7.51 3.439-.182.115-.19.17-.19 1.268v1.147l-1.228.589-1.227.589v11.512c0 6.332.029 11.512.064 11.512s.597-.117 1.249-.26zm31.507-1.538c.044-.06.052-2.183.02-5.016-.03-2.701-.059-8.671-.064-13.267-.007-5.554-.04-8.373-.096-8.409-.048-.029-1.01.44-2.138 1.044l-2.052 1.096-.042 12.04c-.024 6.623-.024 12.07 0 12.104.023.035.918.15 1.99.255 1.07.106 1.963.207 1.982.226.077.073.33.027.4-.073zm-12.251-.702c.057-.057.058-1.215.005-3.512a411.99 411.99 0 0 1-.083-7.719c-.001-2.36-.032-4.31-.068-4.333-.037-.022-.342.112-.678.298l-.61.339v5.493l-.276.17c-.151.092-.646.36-1.1.594l-.826.426v8.394l1.775-.032c1.035-.019 1.81-.068 1.86-.118zm11.005-26.664.95-.506-.052-1.653c-.06-1.967-.112-2.542-.228-2.542-.047 0-.459.199-.914.442l-.827.442-.061 2.095c-.033 1.152-.035 2.136-.004 2.187.07.113-.008.145 1.136-.465z" transform="matrix(.83927 0 0 1.24989 90.292 -55.964)"/><path style="fill:#5f96a8;stroke-width:.08466666" d="M-106.324 121.82c1.68-1.616 7.55-5.806 11.214-8.006 4.22-2.534 9.193-4.985 13.716-6.76 2.77-1.088 6.436-2.307 9.024-3.003a85.656 85.656 0 0 0 1.771-.492l.466-.141.042-12.108.043-12.107 1.185-.593 1.185-.592.043-1.185.042-1.184 4.318-1.965c2.375-1.08 4.394-1.966 4.487-1.967.093-.001 1.313.736 2.71 1.638l2.54 1.64.042 1.93.042 1.928.55.392.551.393.022 5.763c.017 4.492.045 5.782.128 5.85.076.064.27.002.698-.222l.591-.311.023-2.745c.014-1.811.053-2.782.114-2.855.134-.161 1.984-1.131 2.158-1.131.15 0 4.573 1.95 4.923 2.17l.19.12v3.837c0 3.55.012 3.847.149 3.963.25.213 1.437.69 1.58.635.122-.047.134-.92.134-9.228 0-8.633.01-9.183.149-9.305.081-.071.529-.33.994-.577.466-.246.914-.505.995-.574.135-.116.148-.354.148-2.693V69.77l.784-.42c.43-.23.868-.481.973-.558l.19-.138v-3.422c0-2.63.025-3.443.107-3.514.058-.051.228-.166.378-.255l.272-.161.024-.998.024-.998.614-.321.614-.322v-1.167c0-1.96.107-4.751.182-4.751.04 0 .072.515.072 1.145 0 1.032.02 1.196.211 1.649.19.452.212.617.212 1.645v1.142l.36.091c.793.2.734.07.76 1.67l.023 1.42.254.085c.14.047.302.116.36.154.082.053.106.904.106 3.783 0 2.602.027 3.733.092 3.773.051.032.48.158.953.28l.86.223.042 2.577.042 2.578 2.371.597c1.304.33 2.418.629 2.477.667.083.054.105 2.868.105 13.605 0 9.085.029 13.554.086 13.59.048.029.781.241 1.63.471 11.185 3.034 21.3 7.931 30.672 14.85.81.6 2.423 1.869 4.053 3.193.096.078.15.167.12.198-.032.03-.679-.324-1.439-.789-9.857-6.027-20.074-10.303-31.08-13.01-15.007-3.69-30.661-4.149-45.994-1.35-12.793 2.336-25.475 7.155-36.576 13.9-.885.537-1.78 1.07-1.99 1.183l-.38.206zm38.478-18.96a106.55 106.55 0 0 1 8.254-1.435c.396-.052.746-.12.779-.151.033-.032.024-4.973-.018-10.98-.043-6.007-.08-12.34-.08-14.075-.003-2.16-.032-3.154-.093-3.154-.107 0-7.233 3.264-7.51 3.439-.182.115-.19.17-.19 1.268v1.147l-1.228.589-1.227.589v11.512c0 6.332.029 11.512.064 11.512s.597-.117 1.249-.26zm31.507-1.538c.044-.06.052-2.183.02-5.016-.03-2.701-.059-8.671-.064-13.267-.007-5.554-.04-8.373-.096-8.409-.048-.029-1.01.44-2.138 1.044l-2.052 1.096-.042 12.04c-.024 6.623-.024 12.07 0 12.104.023.035.918.15 1.99.255 1.07.106 1.963.207 1.982.226.077.073.33.027.4-.073zm-12.251-.702c.057-.057.058-1.215.005-3.512a411.99 411.99 0 0 1-.083-7.719c-.001-2.36-.032-4.31-.068-4.333-.037-.022-.342.112-.678.298l-.61.339v5.493l-.276.17c-.151.092-.646.36-1.1.594l-.826.426v8.394l1.775-.032c1.035-.019 1.81-.068 1.86-.118zm11.005-26.664.95-.506-.052-1.653c-.06-1.967-.112-2.542-.228-2.542-.047 0-.459.199-.914.442l-.827.442-.061 2.095c-.033 1.152-.035 2.136-.004 2.187.07.113-.008.145 1.136-.465z" transform="matrix(.83927 0 0 1.24989 90.292 -55.964)"/><path style="fill:#447c93;stroke-width:.08466666" d="M-106.074 121.657c.47-.42 2.344-1.893 3.568-2.804 9.32-6.933 19.668-11.935 30.976-14.971.722-.194 1.36-.392 1.418-.44.084-.07.106-2.6.106-12.132 0-9.536.022-12.06.106-12.123.058-.043.544-.28 1.08-.527.535-.247 1.039-.507 1.119-.578.122-.108.15-.316.17-1.267l.023-1.14 4.275-1.942c2.352-1.069 4.352-1.96 4.445-1.983.117-.027.955.469 2.71 1.603l2.54 1.643.042 1.928.042 1.929.55.392.551.393.042 5.808c.024 3.194.068 5.834.1 5.865.03.031.336-.09.677-.268l.62-.325.023-2.745c.014-1.811.053-2.782.114-2.855.134-.161 1.984-1.131 2.158-1.131.15 0 4.573 1.95 4.923 2.17l.19.12v3.837c0 3.55.012 3.847.149 3.963.25.213 1.437.69 1.58.635.122-.047.134-.92.134-9.228 0-8.633.01-9.183.149-9.306.081-.071.554-.346 1.05-.61.497-.263.944-.528.994-.588.059-.07.099-.995.113-2.64l.023-2.533.889-.482c.489-.265.927-.498.973-.516.054-.022.1-1.32.127-3.537l.043-3.504.36-.242.36-.241V59.36l.634-.351.635-.35v-1.73c0-1.809.048-2.018.322-1.412.107.235.155.645.186 1.587l.043 1.27.48.127c.264.07.501.149.528.175.026.027.05.638.055 1.36.003.72.04 1.364.081 1.43.041.067.2.164.354.216l.28.094.022 3.73c.017 2.84.047 3.749.127 3.815.057.048.352.15.655.227.303.076.693.177.868.222l.317.083.002 2.473c0 1.36.033 2.524.072 2.586.04.061 1.153.385 2.475.72l2.404.607.057.423c.03.233.058 6.345.061 13.583.003 7.237.035 13.187.07 13.221.037.034.524.183 1.082.33a91.794 91.794 0 0 1 29.38 13.662c2.004 1.41 5.682 4.265 5.599 4.348-.023.023-.702-.356-1.508-.843-6.184-3.734-12.443-6.754-18.993-9.164-9.658-3.553-19.426-5.633-30.268-6.443-2.444-.183-9.785-.257-12.492-.125-18.571.9-36.207 6.284-51.777 15.807-1.23.752-1.633.95-1.263.618zm38.807-18.828c2.326-.49 4.21-.827 6.151-1.1.862-.122 1.89-.275 2.286-.341.802-.134 3.082-.358 4.572-.45l.974-.06.027-2.964c.04-4.572-.07-11.317-.186-11.279-.052.018-.107.155-.122.306-.034.346-.218.304-.254-.058l-.026-.265-1.879-.025c-1.033-.013-1.926.01-1.984.05-.058.04-.106.165-.106.277 0 .143-.068.23-.226.29-.31.117-.42.056-.492-.274-.111-.509-.192-4.092-.203-9.014-.008-3.952-.031-4.854-.125-4.932-.088-.073-.338.01-1.08.357-.53.249-2.24 1.037-3.8 1.751-1.56.714-2.884 1.334-2.94 1.377-.071.053-.111.446-.127 1.234l-.024 1.155-1.185.593-1.186.593-.021 11.472c-.012 6.31-.004 11.52.018 11.578.022.058.064.106.094.106.029 0 .859-.17 1.844-.377zm40.44-4.47c0-6.423-.084-10.99-.203-10.973a.485.485 0 0 1-.22-.042c-.07-.032-2.05-.047-4.402-.035l-4.276.022-.027.254c-.016.14-.059.286-.097.325-.1.104-.162-2.194-.22-8.114-.027-2.887-.08-5.281-.118-5.32-.037-.039-1.044.453-2.237 1.093l-2.17 1.164.022 12.157.021 12.157 1.778.185c.978.101 2.236.224 2.794.273 1.636.142 6.852 1.06 8.721 1.535.14.035.34.068.445.073l.19.009v-4.763zm-14.9-.011v-2.573l-1.132-.48c-.623-.263-1.204-.53-1.291-.595-.138-.1-.163-.251-.183-1.118-.029-1.241-.062-1.417-.255-1.34-.15.06-3.178.06-3.486 0-.095-.018-.175.012-.178.068-.003.056-.045.006-.092-.11-.05-.121-.124-1.725-.172-3.726-.047-1.933-.101-3.53-.12-3.55-.05-.05-1.216.514-1.36.656-.09.09-.113.676-.113 2.85v2.737l-1.08.58-1.08.58-.021 4.261-.022 4.262 3.535-.051c1.945-.028 4.088-.018 4.764.022.675.04 1.465.079 1.757.086l.529.013zm-12.616-12.075c0-.163-.056-.17-1.524-.17-1.467 0-1.524.007-1.524.17s.057.169 1.524.169c1.468 0 1.524-.006 1.524-.17zm22.746-12.963c-.03-.75-.093-1.426-.138-1.503-.053-.091-.082-.101-.084-.028-.001.06-.033.092-.07.069-.037-.023-1.081-.05-2.32-.06l-2.253-.018-.049-.348a24.757 24.757 0 0 1-.104-1.302c-.031-.525-.09-.976-.13-1-.042-.026-.503.178-1.026.452l-.95.498-.053.968c-.104 1.927-.085 3.467.043 3.517.065.024.583-.206 1.15-.512l1.033-.557 2.3.586c1.265.323 2.391.59 2.503.594l.204.007-.056-1.363z" transform="matrix(.83927 0 0 1.24989 90.292 -55.964)"/><path style="fill:#36728f;stroke-width:.08466666" d="M-105.82 121.542c0-.069 2.23-1.833 3.556-2.812 8.757-6.47 18.702-11.37 29.083-14.331 1.118-.32 2.242-.63 2.498-.69.256-.062.513-.147.571-.19.084-.063.106-2.597.106-12.172V79.254l.868-.406c.477-.224 1.02-.483 1.206-.576l.339-.17.024-1.155c.015-.785.056-1.182.127-1.237.232-.183 8.572-3.915 8.747-3.915.105 0 1.307.72 2.673 1.6l2.484 1.6.042 1.93.042 1.928.55.392.551.393.022 5.857c.017 4.603.044 5.857.127 5.855.058-.002.372-.144.698-.318l.592-.314.023-2.745c.014-1.811.053-2.782.114-2.855.134-.161 1.984-1.131 2.158-1.131.15 0 4.573 1.95 4.923 2.17l.19.12v3.837c0 3.55.012 3.846.149 3.962.223.188 1.55.755 1.637.7.046-.027.077-3.821.077-9.257 0-8.667.01-9.218.149-9.34.081-.07.595-.369 1.143-.662l.994-.533v-5.106l.995-.545.995-.544.042-3.511.043-3.511.338-.19.339-.19.042-.994.043-.995.592-.349c.58-.34.594-.357.654-.765.034-.23.044-.95.024-1.602-.04-1.305.034-1.64.25-1.123.095.228.13.613.13 1.422 0 .61.039 1.18.085 1.266.079.148.332.257.868.376l.233.052v2.879l.233.092c.128.05.29.12.36.155.109.055.133.595.169 3.822l.042 3.759.86.223c.473.122.902.248.953.28.063.04.092.832.092 2.54 0 1.908.025 2.502.108 2.571.06.05 1.04.323 2.18.607 1.14.285 2.216.556 2.39.602l.318.084V103.464l.19.08c.105.043 1.029.308 2.053.587 11.656 3.185 22.989 8.914 32.28 16.318 1.19.948 1.47 1.218.93.898-5.658-3.36-8.726-4.968-13.525-7.09-6.473-2.864-14.04-5.301-21.139-6.81-11.253-2.39-22.97-2.979-34.635-1.739-15.844 1.685-31.428 6.981-45.064 15.316-.968.591-.931.57-.931.518zm38.654-18.68a91.634 91.634 0 0 1 6.473-1.14 83.585 83.585 0 0 0 2.032-.294c.595-.104 1.863-.229 3.792-.373.838-.062 1.571-.143 1.63-.179.084-.052.094-1.746.05-8.244-.03-4.499-.078-9.12-.107-10.267l-.053-2.088-.349-.155a2.644 2.644 0 0 1-.602-.388c-.218-.202-.258-.214-.279-.087-.022.137-.182.149-1.961.149-1.065 0-1.969-.032-2.008-.07-.06-.06-.16-3.257-.19-6.008-.006-.586-.035-.754-.138-.793-.104-.04-7.341 3.218-7.827 3.524-.101.064-.12.262-.101 1.026.036 1.432.114 1.311-1.257 1.96l-1.182.558-.022 11.5c-.011 6.326.01 11.571.05 11.657.053.119.123.142.295.099.125-.032.914-.205 1.754-.387zm40.422-3.36c-.002-2.037-.038-6.997-.08-11.022-.068-6.49-.091-7.326-.209-7.391-.072-.04-.132-.17-.132-.289 0-.273-.2-.223-.241.06-.016.113-.071.232-.122.263-.143.089-.399-.086-.399-.272 0-.163-.08-.166-3.888-.166h-3.89l-.026.19a.24.24 0 0 1-.218.218c-.188.026-.19.014-.201-1.016-.007-.574-.035-2.072-.064-3.328-.046-2.03-.068-2.288-.192-2.312-.128-.025-3.412 1.676-4.157 2.152l-.318.203v24.216l.19.074c.106.04 1.106.156 2.223.257 3.384.306 6.424.772 9.652 1.48.932.205 1.78.376 1.884.38l.19.007zm-14.917-.995c.013-1.35.004-2.534-.02-2.631-.032-.133-.326-.296-1.208-.669-.642-.27-1.208-.543-1.26-.605-.06-.074-.109-1.124-.142-3.048-.04-2.284-.075-2.953-.162-3.01-.06-.042-.958-.065-1.994-.051-1.522.019-1.891.001-1.927-.091-.024-.063-.068-.854-.098-1.758-.036-1.072-.09-1.671-.153-1.724-.09-.075-.713.195-1.294.56l-.19.12v2.69c0 2.027-.026 2.724-.106 2.824-.058.072-.549.365-1.09.65-.878.464-.99.549-1.037.785-.066.327-.071 8.056-.006 8.226.04.106.578.118 3.831.087 2.081-.02 4.298 0 4.927.043.629.043 1.315.074 1.524.068l.381-.01.024-2.456zm10.114-25.273c-.032-2.2-.083-2.69-.283-2.754-.251-.08-3.711-.117-4.112-.044-.195.036-.392.04-.44.011-.046-.029-.109-.261-.138-.517-.082-.721-.12-.845-.263-.845-.164 0-1.773.82-1.942.99-.102.101-.124.509-.124 2.313 0 1.33.033 2.21.083 2.242.045.028.547-.199 1.115-.503.568-.305 1.093-.553 1.166-.552.074.001 1.144.265 2.378.587 1.234.322 2.32.578 2.413.57.163-.016.168-.07.147-1.498z" transform="matrix(.83927 0 0 1.24989 90.292 -55.964)"/><path style="fill:#2e434e;stroke-width:.08466666" d="M-105.524 121.283c.975-.89 4.42-3.44 6.774-5.013 3.643-2.435 6.575-4.122 10.583-6.088 4.006-1.966 7.33-3.326 11.472-4.695 2.044-.676 5.477-1.68 6.215-1.82.164-.03.348-.114.408-.187.087-.104.117-2.539.15-12.193l.043-12.063 1.143-.529 1.143-.528.042-1.19c.024-.654.062-1.207.085-1.23.114-.107 8.691-3.952 8.816-3.952.08 0 1.262.72 2.628 1.6l2.484 1.6.042 1.93.042 1.928.55.392.551.393.022 5.857c.017 4.603.044 5.857.127 5.855.058-.002.372-.144.698-.318l.592-.314.023-2.745c.014-1.811.053-2.782.114-2.855.134-.161 1.984-1.131 2.158-1.131.15 0 4.573 1.95 4.923 2.17l.19.12v3.837c0 3.55.012 3.846.149 3.962.223.188 1.55.755 1.637.7.046-.027.077-3.821.077-9.257 0-8.667.01-9.218.149-9.34.081-.07.595-.369 1.143-.662l.994-.533.001-2.547.002-2.547.978-.508c.538-.28 1.014-.572 1.057-.65.045-.082.079-1.605.079-3.539v-3.395l.299-.176c.164-.097.335-.245.38-.33.046-.085.083-.547.083-1.028v-.874l.614-.34.614-.34.042-1.692c.042-1.688.043-1.69.19-1.376.12.253.149.547.149 1.498 0 .853.03 1.202.106 1.251.058.038.315.126.571.196l.466.127.023 1.391c.013.765.061 1.436.108 1.492.046.056.198.125.336.152l.252.05v3.722c0 3.021.022 3.743.115 3.837.064.063.502.206.974.317.472.112.858.244.857.293-.024 1.263.079 4.986.14 5.046.044.045 1.138.347 2.43.672 1.291.324 2.385.612 2.43.64.052.032.082 4.965.082 13.582 0 10.725.022 13.548.106 13.614.058.045.448.166.867.269.42.102 1.43.376 2.244.61 10.418 2.982 20.416 7.913 29.028 14.316 1.66 1.234 3.484 2.669 3.484 2.74 0 .057.182.16-1.693-.956-13.878-8.261-28.96-13.25-45-14.882-3.96-.403-6.017-.497-11.007-.501-5.165-.004-7.014.084-11.557.552-11.51 1.186-23.174 4.359-33.74 9.178-3.608 1.646-8.862 4.427-11.515 6.095-.232.146-.575.352-.762.458l-.338.191zm37.777-18.285c4.285-.935 9.169-1.655 12.981-1.915 1.152-.078 1.505-.13 1.588-.233.124-.155.138-4.135.05-14.256l-.057-6.41-.558-.363-.557-.364-.043-1.82-.042-1.82-2.159-1.458a136.625 136.625 0 0 0-2.269-1.513c-.111-.057-.904.29-5.478 2.406l-2.54 1.174-.023 1.2-.024 1.199-.78.358c-.43.197-.972.453-1.205.57l-.423.212-.022 11.557c-.012 6.356-.004 11.605.018 11.663.054.142.019.146 1.543-.187zm41.007.165c.149-.18.036-26.193-.114-26.35-.055-.056-2.119-.601-4.587-1.21-2.468-.61-4.606-1.15-4.752-1.202-.25-.088-.382-.031-2.37 1.028-1.159.616-2.15 1.165-2.203 1.22-.112.114-.204 24.295-.092 24.406.035.035.911.15 1.947.253 2.757.277 3.983.43 5.735.718 1.567.258 4.88.907 5.757 1.129.256.064.49.121.52.126.028.005.1-.048.159-.118zm-14.838-4.801.022-2.601-.191-.125c-.106-.068-.65-.32-1.208-.558-.559-.239-1.054-.471-1.1-.517-.053-.052-.101-1.527-.128-3.903l-.042-3.819-1.016-.458c-.559-.252-1.492-.67-2.074-.927-.582-.258-1.095-.503-1.14-.545-.155-.147-.435-.072-1.062.284l-.635.36-.042 2.793-.042 2.794-1.059.561-1.058.562v8.615l3.344-.022c1.84-.012 3.935.01 4.657.051.722.04 1.636.07 2.032.065l.72-.01zm10.124-23.64c.025-.067.023-1.08-.005-2.252-.049-2.057-.057-2.133-.228-2.206-.097-.041-1.072-.285-2.166-.541a84.959 84.959 0 0 1-2.484-.61l-.495-.144-.973.503c-.662.342-.997.565-1.05.698-.043.108-.078 1.148-.078 2.31 0 1.894.014 2.12.14 2.168.089.034.531-.15 1.179-.49l1.037-.543 2.399.606c1.32.334 2.462.61 2.538.614.077.004.16-.047.186-.113z" transform="matrix(.83927 0 0 1.24989 90.292 -55.964)"/><path style="fill:#1a3e4f;stroke-width:.08466666" d="M-69.865 103.404c-.03-.031-.056-5.456-.056-12.055 0-9.499.022-12.015.106-12.08.058-.044.544-.284 1.079-.531.536-.248 1.04-.507 1.12-.575.122-.105.15-.31.169-1.268l.023-1.144 4.262-1.936c2.344-1.064 4.298-1.936 4.342-1.936.07 0 .862.48 2.107 1.279.21.134.971.619 1.693 1.077l1.312.833.043 1.927c.047 2.166-.035 1.906.791 2.481l.393.273.022 5.865.021 5.866.181.025c.173.025 1.232-.478 1.446-.687.076-.074.106-.803.114-2.783.008-1.89.04-2.72.109-2.806.054-.067.52-.34 1.035-.605l.937-.481 2.026.906c1.115.498 2.226.996 2.47 1.106l.445.2v3.84c0 3.55.012 3.85.149 3.975.081.073.523.297.982.497.807.351.838.358.953.202.099-.136.118-1.623.118-9.361v-9.2l.995-.533c.547-.294 1.061-.592 1.143-.662.134-.116.148-.352.149-2.633 0-1.378.03-2.546.064-2.596.034-.05.405-.274.824-.498.419-.225.828-.467.91-.537.136-.119.148-.398.148-3.58v-3.452l.36-.199.36-.198.024-.99.023-.991.57-.316c.312-.173.596-.355.63-.404.034-.05.063-.785.064-1.635 0-.85.035-1.545.077-1.545.16 0 .214.34.259 1.608l.046 1.312.508.134.508.135.042 1.404c.024.772.074 1.436.112 1.475.039.038.191.112.339.162l.269.092.022 3.73c.017 2.841.047 3.75.127 3.816.058.048.353.15.655.226.303.077.694.177.868.223l.318.083.001 2.473c0 1.36.033 2.524.072 2.585.04.062 1.153.386 2.476.72l2.404.607.021 13.568c.02 13.05.016 13.568-.132 13.568a.547.547 0 0 1-.287-.106c-.121-.095-.14-1.403-.191-13.271-.043-10.033-.08-13.19-.158-13.27-.077-.078-4.536-1.228-9.504-2.45-.196-.047-3.976 1.924-4.375 2.283l-.233.21V101.1l-.275-.026-.276-.027-.022-2.636c-.02-2.297-.04-2.652-.158-2.752-.075-.063-.636-.328-1.248-.587l-1.112-.472-.05-1.221c-.028-.672-.059-2.403-.068-3.846-.009-1.444-.043-2.65-.076-2.68-.053-.048-.92-.444-3.404-1.555a11.21 11.21 0 0 1-.89-.433c-.151-.097-.254-.068-.847.238-.372.191-.704.39-.738.441-.034.052-.063 1.319-.064 2.816v2.722l-1.08.58-1.08.58-.042 4.29c-.024 2.359-.062 4.309-.086 4.332-.023.024-.157.056-.296.07l-.253.028-.052-6.9c-.028-3.795-.057-8.466-.063-10.38l-.012-3.48-.572-.372-.571-.373-.043-1.82-.042-1.82-2.089-1.398c-1.149-.768-2.148-1.448-2.221-1.512a.396.396 0 0 0-.332-.065c-.18.045-7.381 3.338-7.677 3.51-.1.06-.136.328-.17 1.251l-.042 1.177-1.185.592-1.185.593-.043 11.666c-.037 10.247-.057 11.676-.169 11.746-.15.095-.288.105-.367.027zm38.396-30.805c-.017-1.21-.06-2.234-.098-2.274-.038-.04-1.016-.296-2.172-.57a95.386 95.386 0 0 1-2.604-.644l-.5-.145-.896.462c-.493.254-.963.528-1.045.61-.135.134-.15.36-.15 2.383 0 1.917.019 2.241.129 2.283.072.028.581-.194 1.164-.508l1.036-.557 2.37.595c1.305.328 2.467.59 2.583.581l.212-.015z" transform="matrix(.83927 0 0 1.24989 90.292 -55.964)"/></svg>