<svg id="svg" version="1.1" xmlns="http://www.w3.org/2000/svg" xmlns:xlink="http://www.w3.org/1999/xlink" width="400" height="400" viewBox="0, 0, 400,400"><g id="svgg"><path id="path0" d="M187.300 64.287 C 187.905 64.378,188.895 64.378,189.500 64.287 C 190.105 64.195,189.610 64.120,188.400 64.120 C 187.190 64.120,186.695 64.195,187.300 64.287 M199.300 64.276 C 199.685 64.376,200.315 64.376,200.700 64.276 C 201.085 64.175,200.770 64.093,200.000 64.093 C 199.230 64.093,198.915 64.175,199.300 64.276 M170.643 65.033 C 170.286 65.963,170.313 66.000,171.353 66.000 C 171.970 66.000,172.381 65.718,172.516 65.200 C 172.778 64.198,171.023 64.041,170.643 65.033 M216.508 65.175 C 216.552 65.758,216.848 66.000,217.514 66.000 C 218.743 66.000,218.570 64.654,217.319 64.475 C 216.649 64.379,216.460 64.542,216.508 65.175 M161.417 66.372 C 161.291 66.577,161.370 66.858,161.593 66.996 C 161.817 67.134,162.000 67.046,162.000 66.800 C 162.000 66.554,162.144 66.442,162.319 66.550 C 162.495 66.658,162.900 66.582,163.219 66.380 C 163.656 66.103,163.534 66.011,162.724 66.006 C 162.132 66.003,161.544 66.168,161.417 66.372 M225.772 66.290 C 226.718 66.531,227.651 67.415,227.314 67.752 C 227.178 67.889,227.277 68.000,227.533 68.000 C 227.790 68.000,228.000 67.833,228.000 67.629 C 228.000 66.933,226.745 66.000,225.871 66.046 C 225.094 66.088,225.083 66.114,225.772 66.290 M229.779 68.366 C 229.927 68.605,230.317 68.800,230.647 68.800 C 230.977 68.800,231.136 68.980,231.000 69.200 C 230.864 69.420,230.957 69.600,231.206 69.600 C 232.074 69.600,231.385 68.199,230.452 68.066 C 229.853 67.981,229.609 68.090,229.779 68.366 M151.405 69.950 C 150.021 70.247,149.465 71.600,150.728 71.600 C 151.160 71.600,151.620 71.326,151.748 70.990 C 151.877 70.655,152.391 70.217,152.891 70.016 C 153.922 69.602,153.185 69.569,151.405 69.950 M246.400 74.400 C 246.400 74.990,246.667 75.200,247.414 75.200 C 248.304 75.200,248.376 75.102,248.000 74.400 C 247.765 73.960,247.308 73.600,246.986 73.600 C 246.664 73.600,246.400 73.960,246.400 74.400 M133.467 77.467 C 132.870 78.063,133.220 79.200,134.000 79.200 C 134.440 79.200,134.800 79.033,134.800 78.829 C 134.800 78.624,135.083 78.174,135.429 77.829 C 136.000 77.257,135.952 77.200,134.895 77.200 C 134.256 77.200,133.613 77.320,133.467 77.467 M130.080 79.680 C 129.375 80.385,129.493 80.800,130.400 80.800 C 130.933 80.800,131.200 80.533,131.200 80.000 C 131.200 79.093,130.785 78.975,130.080 79.680 M263.653 83.321 C 263.954 83.585,264.506 84.144,264.880 84.565 C 265.544 85.314,265.554 85.311,265.333 84.465 C 265.209 83.989,264.937 83.600,264.730 83.600 C 264.522 83.600,264.441 83.457,264.549 83.283 C 264.656 83.109,264.376 82.938,263.925 82.904 C 263.252 82.854,263.203 82.928,263.653 83.321 M266.006 85.100 C 266.024 85.977,266.788 86.559,266.794 85.700 C 266.797 85.205,266.620 84.800,266.400 84.800 C 266.180 84.800,266.003 84.935,266.006 85.100 M119.275 87.216 C 118.205 88.213,118.186 88.400,119.153 88.400 C 119.639 88.400,119.975 88.045,120.098 87.400 C 120.328 86.197,120.361 86.204,119.275 87.216 M268.800 87.571 C 268.800 88.143,269.057 88.400,269.629 88.400 C 270.202 88.400,270.417 88.185,270.325 87.705 C 270.124 86.662,268.800 86.546,268.800 87.571 M112.922 91.178 C 112.810 91.605,112.332 92.010,111.859 92.078 C 110.700 92.243,110.398 94.000,111.529 94.000 C 112.032 94.000,112.403 93.641,112.564 93.000 C 112.726 92.354,113.096 92.000,113.608 92.000 C 114.133 92.000,114.400 91.731,114.400 91.200 C 114.400 90.164,113.192 90.145,112.922 91.178 M278.143 94.907 C 278.213 95.362,278.569 95.778,278.935 95.832 C 279.896 95.973,279.779 94.540,278.809 94.286 C 278.185 94.123,278.044 94.255,278.143 94.907 M109.829 95.029 C 109.110 95.747,109.106 95.809,109.760 95.935 C 110.146 96.010,110.554 95.979,110.667 95.867 C 110.779 95.754,110.810 95.346,110.735 94.960 C 110.609 94.306,110.547 94.310,109.829 95.029 M280.000 96.772 C 280.000 97.268,280.322 97.590,280.900 97.672 C 281.478 97.754,281.846 98.122,281.928 98.700 C 282.010 99.278,282.332 99.600,282.828 99.600 C 283.976 99.600,283.826 98.144,282.648 97.848 C 282.124 97.716,281.601 97.247,281.485 96.804 C 281.215 95.771,280.000 95.745,280.000 96.772 M284.623 100.167 C 285.461 100.780,285.840 100.713,285.416 100.027 C 285.271 99.792,284.859 99.600,284.500 99.600 C 283.954 99.600,283.974 99.693,284.623 100.167 M100.061 103.554 C 99.764 103.742,99.584 104.173,99.661 104.511 C 99.769 104.989,99.961 104.911,100.519 104.163 C 101.245 103.189,101.049 102.928,100.061 103.554 M287.600 104.186 C 287.600 104.921,287.812 105.200,288.372 105.200 C 288.857 105.200,289.192 105.521,289.272 106.064 C 289.342 106.539,289.715 106.973,290.100 107.028 C 291.058 107.166,290.985 106.127,290.000 105.600 C 289.560 105.365,289.200 104.915,289.200 104.600 C 289.200 104.285,288.840 103.835,288.400 103.600 C 287.698 103.224,287.600 103.296,287.600 104.186 M94.500 109.065 C 93.537 109.453,93.925 110.800,95.000 110.800 C 95.800 110.800,96.000 110.600,96.000 109.800 C 96.000 108.840,95.574 108.632,94.500 109.065 M296.800 115.371 C 296.800 116.145,297.005 116.400,297.628 116.400 C 298.257 116.400,298.425 116.185,298.328 115.504 C 298.138 114.175,296.800 114.058,296.800 115.371 M87.429 119.029 C 86.566 119.892,86.641 120.367,87.600 120.116 C 88.043 120.000,88.400 119.570,88.400 119.153 C 88.400 118.237,88.241 118.216,87.429 119.029 M302.400 122.753 C 302.400 123.170,302.757 123.600,303.200 123.716 C 304.159 123.967,304.234 123.492,303.371 122.629 C 302.559 121.816,302.400 121.837,302.400 122.753 M85.478 123.114 C 84.878 123.777,84.888 123.829,85.616 123.829 C 86.102 123.829,86.400 123.557,86.400 123.114 C 86.400 122.721,86.338 122.400,86.262 122.400 C 86.186 122.400,85.833 122.721,85.478 123.114 M83.067 125.867 C 82.386 126.547,82.831 127.600,83.800 127.600 C 84.600 127.600,84.800 127.400,84.800 126.600 C 84.800 125.631,83.747 125.186,83.067 125.867 M306.000 130.324 C 306.000 130.833,306.337 131.171,306.964 131.291 C 307.801 131.451,307.887 131.365,307.619 130.638 C 307.206 129.519,306.000 129.286,306.000 130.324 M78.171 131.506 C 77.935 131.668,77.625 132.115,77.483 132.500 C 77.264 133.096,76.688 133.200,73.613 133.200 C 70.267 133.200,70.000 133.259,70.000 134.000 C 70.000 134.717,69.733 134.800,67.426 134.800 C 64.513 134.800,62.800 135.305,62.800 136.164 C 62.800 136.503,62.339 136.800,61.700 136.873 C 60.912 136.964,60.564 137.256,60.472 137.900 C 60.356 138.720,60.129 138.800,57.935 138.800 C 55.862 138.800,55.496 138.912,55.316 139.600 C 55.166 140.172,54.770 140.400,53.927 140.400 C 52.448 140.400,51.200 141.047,51.200 141.814 C 51.200 142.172,50.812 142.400,50.200 142.400 C 49.301 142.400,49.050 142.771,49.116 144.000 C 49.122 144.110,48.222 144.234,47.117 144.275 C 44.327 144.379,44.049 144.552,43.759 146.364 C 43.514 147.895,43.439 147.963,41.868 148.079 C 40.630 148.171,40.179 148.394,40.016 149.000 C 39.897 149.440,39.575 149.818,39.300 149.840 C 39.025 149.862,38.333 149.907,37.763 149.940 C 37.103 149.978,36.651 150.283,36.522 150.778 C 36.410 151.205,35.932 151.610,35.459 151.678 C 34.921 151.754,34.552 152.137,34.472 152.700 C 34.391 153.275,34.068 153.600,33.580 153.600 C 33.098 153.600,32.722 153.970,32.564 154.600 C 32.407 155.226,32.030 155.600,31.557 155.600 C 31.076 155.600,30.800 155.881,30.800 156.372 C 30.800 156.868,30.478 157.190,29.900 157.272 C 29.322 157.354,28.954 157.722,28.872 158.300 C 28.790 158.878,28.468 159.200,27.972 159.200 C 27.476 159.200,27.200 159.476,27.200 159.972 C 27.200 160.468,26.878 160.790,26.300 160.872 C 25.718 160.955,25.354 161.322,25.271 161.911 C 25.200 162.412,24.705 163.259,24.171 163.793 C 23.637 164.327,23.200 165.124,23.200 165.564 C 23.200 166.173,22.841 166.430,21.700 166.640 C 19.940 166.963,19.614 167.346,19.606 169.100 C 19.601 170.218,19.460 170.400,18.600 170.400 C 17.681 170.400,17.600 170.547,17.600 172.200 C 17.600 173.733,17.481 174.000,16.800 174.000 C 16.213 174.000,16.000 174.267,16.000 175.000 C 16.000 175.800,15.800 176.000,15.000 176.000 C 14.081 176.000,14.000 176.147,14.000 177.800 C 14.000 179.453,13.919 179.600,13.000 179.600 C 12.200 179.600,12.000 179.800,12.000 180.600 C 12.000 181.333,11.787 181.600,11.200 181.600 C 10.520 181.600,10.400 181.867,10.400 183.372 C 10.400 184.905,10.279 185.162,9.500 185.272 C 8.682 185.388,8.589 185.647,8.482 188.100 C 8.380 190.416,8.258 190.800,7.625 190.800 C 6.672 190.800,6.400 191.562,6.400 194.233 C 6.400 196.133,6.302 196.400,5.600 196.400 C 4.920 196.400,4.800 196.667,4.800 198.172 C 4.800 199.705,4.679 199.962,3.900 200.072 C 3.051 200.193,2.994 200.408,2.885 203.900 C 2.783 207.189,2.688 207.600,2.032 207.600 C 0.868 207.600,0.811 208.429,0.805 225.650 C 0.800 243.121,0.883 244.400,2.035 244.400 C 2.687 244.400,2.783 244.817,2.885 248.100 C 2.994 251.592,3.051 251.807,3.900 251.928 C 4.682 252.039,4.800 252.293,4.800 253.865 C 4.800 255.338,4.949 255.714,5.600 255.884 C 6.171 256.033,6.413 256.453,6.446 257.347 C 6.472 258.036,6.534 258.780,6.585 259.000 C 6.636 259.220,6.706 259.805,6.739 260.300 C 6.781 260.913,7.055 261.200,7.600 261.200 C 8.294 261.200,8.400 261.467,8.400 263.219 C 8.400 264.859,8.588 265.412,9.400 266.165 C 10.156 266.866,10.400 267.495,10.400 268.746 C 10.400 269.932,10.566 270.400,10.986 270.400 C 11.638 270.400,12.515 271.752,12.119 272.147 C 11.980 272.286,12.336 272.400,12.910 272.400 C 13.852 272.400,13.966 272.566,14.077 274.100 C 14.179 275.513,14.352 275.822,15.100 275.928 C 15.751 276.020,16.000 276.324,16.000 277.028 C 16.000 277.733,16.219 278.000,16.800 278.000 C 17.481 278.000,17.600 278.267,17.600 279.792 C 17.600 281.371,17.719 281.615,18.600 281.836 C 19.192 281.984,19.600 282.374,19.600 282.789 C 19.600 283.705,21.506 285.600,22.427 285.600 C 22.866 285.600,23.194 285.949,23.272 286.500 C 23.353 287.071,23.721 287.446,24.278 287.525 C 24.999 287.627,25.178 287.951,25.278 289.325 C 25.372 290.610,25.558 290.988,26.078 290.948 C 26.490 290.917,26.913 291.348,27.157 292.048 C 27.378 292.682,27.838 293.200,28.179 293.200 C 28.528 293.200,28.800 293.542,28.800 293.978 C 28.800 294.623,29.126 294.777,30.700 294.878 C 32.072 294.966,32.567 295.155,32.481 295.557 C 32.246 296.655,32.869 298.368,33.585 298.595 C 33.986 298.722,34.406 299.181,34.519 299.613 C 34.668 300.180,35.068 300.400,35.953 300.400 C 36.822 300.400,37.373 300.693,37.837 301.400 C 38.197 301.950,38.819 302.400,39.219 302.400 C 39.619 302.400,40.060 302.760,40.200 303.200 C 40.397 303.821,40.805 304.000,42.027 304.000 C 43.418 304.000,43.600 304.110,43.600 304.953 C 43.600 305.582,43.883 305.981,44.430 306.124 C 44.886 306.243,45.357 306.714,45.476 307.170 C 45.654 307.851,46.009 308.000,47.447 308.000 C 48.933 308.000,49.200 308.122,49.200 308.800 C 49.200 309.422,49.467 309.600,50.400 309.600 C 51.209 309.600,51.600 309.799,51.600 310.210 C 51.600 310.848,53.117 311.600,54.405 311.600 C 54.820 311.600,55.644 312.050,56.238 312.600 C 56.989 313.296,57.772 313.600,58.812 313.600 C 59.970 313.600,60.354 313.780,60.516 314.400 C 60.687 315.054,61.062 315.200,62.563 315.200 C 64.256 315.200,64.400 315.278,64.400 316.200 C 64.400 317.171,64.480 317.200,67.200 317.200 C 69.676 317.200,70.000 317.287,70.000 317.953 C 70.000 318.905,71.038 319.188,74.556 319.195 C 76.715 319.199,77.423 319.352,77.824 319.900 C 78.306 320.560,81.649 320.606,136.781 320.704 L 195.226 320.808 195.084 268.904 C 194.943 217.337,194.936 216.977,194.078 213.400 C 193.603 211.420,193.207 208.990,193.198 208.000 C 193.189 207.010,192.831 205.427,192.403 204.482 C 191.974 203.537,191.503 201.827,191.356 200.682 C 191.210 199.537,190.755 197.932,190.345 197.116 C 189.935 196.300,189.600 195.271,189.600 194.830 C 189.600 194.389,189.242 193.837,188.805 193.603 C 188.367 193.368,187.896 192.687,187.758 192.088 C 187.483 190.900,186.431 188.414,185.013 185.600 C 184.514 184.610,183.991 183.317,183.852 182.726 C 183.548 181.439,182.371 179.500,180.183 176.683 C 179.294 175.537,178.010 173.746,177.330 172.703 C 175.108 169.291,172.660 166.321,169.000 162.594 C 167.020 160.577,164.939 158.404,164.375 157.764 C 163.812 157.124,162.840 156.240,162.216 155.800 C 161.592 155.360,160.613 154.597,160.040 154.105 C 158.084 152.424,155.890 150.800,155.574 150.800 C 155.400 150.800,155.012 150.575,154.712 150.300 C 154.412 150.025,153.882 149.620,153.535 149.400 C 153.188 149.180,151.898 148.235,150.669 147.300 C 149.440 146.365,148.271 145.600,148.071 145.600 C 147.871 145.600,147.279 145.265,146.754 144.855 C 146.229 144.445,145.350 143.977,144.800 143.814 C 143.790 143.515,140.574 142.097,138.000 140.814 C 137.230 140.431,136.100 139.996,135.490 139.848 C 134.879 139.700,134.024 139.224,133.590 138.790 C 133.155 138.355,132.482 138.000,132.094 138.000 C 131.706 138.000,130.740 137.653,129.948 137.228 C 129.156 136.804,127.214 136.277,125.631 136.058 C 124.048 135.839,122.516 135.462,122.226 135.221 C 121.936 134.981,120.101 134.603,118.149 134.383 C 116.197 134.162,113.070 133.723,111.200 133.407 C 103.929 132.177,91.644 132.306,85.703 133.674 C 82.978 134.301,81.451 133.825,81.273 132.293 C 81.145 131.180,79.322 130.718,78.171 131.506 M308.000 133.924 C 308.000 134.378,308.346 134.797,308.824 134.922 C 309.490 135.096,309.624 134.972,309.524 134.273 C 309.363 133.147,308.000 132.835,308.000 133.924 M312.081 140.672 C 312.456 140.771,312.877 141.213,313.018 141.656 C 313.158 142.098,313.361 142.372,313.469 142.264 C 313.865 141.868,312.750 140.401,312.086 140.446 C 311.444 140.490,311.444 140.504,312.081 140.672 M313.600 145.991 C 313.600 146.165,313.960 146.401,314.400 146.516 C 314.840 146.631,315.200 146.583,315.200 146.409 C 315.200 146.235,314.840 145.999,314.400 145.884 C 313.960 145.769,313.600 145.817,313.600 145.991 M316.600 152.638 C 316.600 153.167,316.735 153.600,316.900 153.600 C 317.065 153.600,317.200 153.251,317.200 152.824 C 317.200 152.397,317.065 151.964,316.900 151.862 C 316.735 151.760,316.600 152.109,316.600 152.638 M320.081 169.182 C 320.633 170.066,321.022 169.955,320.662 169.017 C 320.532 168.678,320.238 168.400,320.009 168.400 C 319.746 168.400,319.772 168.687,320.081 169.182 M321.467 170.667 C 320.711 171.423,321.311 171.913,322.960 171.887 C 324.389 171.865,324.677 171.741,324.486 171.230 C 324.287 170.698,324.350 170.681,324.889 171.119 C 325.499 171.615,326.259 171.192,325.722 170.656 C 325.383 170.317,321.808 170.326,321.467 170.667 M330.700 170.812 C 331.195 171.011,331.600 171.360,331.600 171.587 C 331.600 171.814,331.898 172.000,332.262 172.000 C 332.857 172.000,332.851 171.919,332.200 171.200 C 331.802 170.760,331.099 170.411,330.638 170.425 C 329.829 170.450,329.831 170.463,330.700 170.812 M347.659 174.268 C 348.021 174.364,348.410 174.793,348.522 175.221 C 348.726 176.003,350.400 176.360,350.400 175.623 C 350.400 175.027,348.705 173.995,347.811 174.046 C 347.198 174.081,347.161 174.135,347.659 174.268 M354.800 176.229 C 354.800 176.505,355.865 177.600,356.134 177.600 C 356.239 177.600,356.231 177.240,356.116 176.800 C 355.934 176.104,354.800 175.611,354.800 176.229 M358.459 177.868 C 358.821 177.964,359.238 178.438,359.386 178.921 C 359.556 179.480,359.731 179.613,359.865 179.287 C 360.228 178.403,359.663 177.598,358.713 177.646 C 358.103 177.677,358.019 177.751,358.459 177.868 M362.629 179.906 C 362.865 180.068,363.175 180.515,363.317 180.900 C 363.536 181.496,365.200 181.951,365.200 181.416 C 365.200 180.977,363.393 179.601,362.825 179.606 C 362.435 179.610,362.361 179.723,362.629 179.906 M368.264 183.966 C 369.129 184.977,369.156 184.982,369.027 184.100 C 368.970 183.715,368.615 183.340,368.237 183.266 C 367.599 183.141,367.601 183.192,368.264 183.966 M374.800 189.443 C 374.800 189.886,375.013 190.004,375.488 189.822 C 375.866 189.676,376.055 189.679,375.907 189.826 C 375.759 189.974,375.900 190.357,376.219 190.676 C 376.539 190.996,376.800 191.581,376.800 191.977 C 376.800 192.506,377.218 192.765,378.371 192.949 C 379.390 193.112,380.006 193.446,380.124 193.900 C 380.269 194.452,380.317 194.419,380.354 193.743 C 380.386 193.154,380.103 192.812,379.448 192.648 C 378.924 192.516,378.401 192.047,378.285 191.604 C 378.170 191.162,377.788 190.800,377.437 190.800 C 377.087 190.800,376.800 190.633,376.800 190.429 C 376.800 189.948,375.652 188.800,375.171 188.800 C 374.967 188.800,374.800 189.089,374.800 189.443 M384.000 199.200 C 384.000 199.733,384.267 200.000,384.800 200.000 C 385.707 200.000,385.825 199.585,385.120 198.880 C 384.415 198.175,384.000 198.293,384.000 199.200 M388.000 204.000 C 388.000 204.220,388.255 204.400,388.567 204.400 C 388.878 204.400,389.224 204.625,389.335 204.900 C 389.462 205.216,389.548 205.158,389.568 204.743 C 389.586 204.381,389.315 203.976,388.967 203.843 C 388.114 203.515,388.000 203.534,388.000 204.000 M391.600 210.353 C 391.600 210.825,391.949 211.173,392.531 211.285 C 393.326 211.437,393.437 211.326,393.285 210.531 C 393.065 209.380,391.600 209.225,391.600 210.353 M393.668 214.060 C 393.741 214.578,394.126 215.054,394.532 215.131 C 395.100 215.240,395.235 215.061,395.132 214.340 C 395.059 213.822,394.674 213.346,394.268 213.269 C 393.700 213.160,393.565 213.339,393.668 214.060 M395.200 219.553 C 395.200 220.039,395.555 220.375,396.200 220.498 C 397.236 220.696,397.370 220.508,396.957 219.433 C 396.609 218.525,395.200 218.622,395.200 219.553 M27.123 289.630 C 27.044 289.867,26.809 290.060,26.600 290.060 C 26.391 290.060,26.156 289.867,26.077 289.630 C 25.998 289.394,26.233 289.200,26.600 289.200 C 26.967 289.200,27.202 289.394,27.123 289.630 " stroke="none" fill="#1454dc" fill-rule="evenodd"></path><path id="path1" d="M178.000 64.336 C 181.076 64.782,179.505 67.600,176.180 67.600 C 173.839 67.600,172.877 67.380,170.553 66.311 C 169.191 65.685,168.200 66.078,168.200 67.245 C 168.200 69.557,165.140 70.428,162.280 68.929 C 160.054 67.763,156.233 68.100,157.486 69.352 C 157.622 69.489,157.535 69.600,157.293 69.600 C 157.041 69.600,156.931 70.031,157.036 70.609 C 157.510 73.223,152.799 74.371,150.423 72.220 C 149.609 71.484,149.600 71.490,149.600 72.709 C 149.600 74.914,147.308 75.907,146.280 74.148 C 145.751 73.242,144.000 73.456,144.000 74.426 C 144.000 76.705,141.846 77.638,140.600 75.900 L 139.955 75.000 140.212 76.063 C 140.509 77.296,139.836 78.800,138.986 78.800 C 138.664 78.800,138.400 79.064,138.400 79.386 C 138.400 80.220,136.993 80.864,135.814 80.568 C 134.982 80.359,134.742 80.501,134.400 81.401 C 134.037 82.356,133.815 82.466,132.551 82.318 C 131.351 82.178,131.045 82.303,130.693 83.075 C 130.201 84.155,128.122 84.384,127.745 83.400 C 127.397 82.495,126.708 82.680,127.000 83.600 C 127.614 85.533,124.862 87.268,124.145 85.400 C 123.829 84.577,122.546 84.643,122.217 85.500 C 122.037 85.969,122.221 86.381,122.774 86.749 C 124.575 87.945,123.375 90.295,121.186 89.857 C 120.169 89.654,119.917 89.765,119.618 90.553 C 119.051 92.044,116.400 92.236,116.400 90.786 C 116.400 90.574,116.085 90.403,115.700 90.406 C 115.185 90.411,115.136 90.498,115.514 90.738 C 116.095 91.107,115.759 92.367,114.908 93.007 C 114.610 93.231,114.144 93.861,113.873 94.407 C 113.531 95.095,112.952 95.461,111.989 95.600 C 110.797 95.772,110.581 95.970,110.467 97.000 C 110.341 98.145,107.649 101.200,106.766 101.200 C 106.565 101.200,106.445 101.347,106.500 101.527 C 106.614 101.900,103.658 104.800,103.165 104.800 C 102.755 104.800,100.800 106.597,100.800 106.973 C 100.800 107.406,98.243 110.385,97.864 110.393 C 97.679 110.397,97.229 110.761,96.864 111.203 C 96.499 111.645,95.705 112.044,95.100 112.090 C 93.771 112.192,93.755 112.273,94.886 113.189 C 95.844 113.965,95.428 115.996,94.309 116.003 C 94.029 116.005,93.086 116.815,92.213 117.803 C 91.340 118.791,90.321 119.600,89.948 119.600 C 89.359 119.600,89.330 119.760,89.726 120.810 C 90.305 122.344,89.758 123.320,88.157 123.608 C 87.391 123.746,87.169 123.924,87.500 124.132 C 88.700 124.888,86.433 128.800,84.794 128.800 C 84.536 128.800,84.402 129.324,84.475 130.053 L 84.600 131.305 98.000 131.240 C 111.951 131.173,116.777 131.494,117.963 132.567 C 118.462 133.018,119.470 133.200,121.472 133.200 C 123.700 133.200,124.670 133.407,126.162 134.200 C 127.356 134.835,128.692 135.200,129.821 135.200 C 131.020 135.200,131.842 135.442,132.342 135.942 C 132.750 136.350,133.565 136.805,134.152 136.952 C 134.740 137.100,135.576 137.576,136.010 138.010 C 136.446 138.446,137.338 138.800,138.000 138.800 C 138.665 138.800,139.555 139.155,139.997 139.597 C 140.436 140.036,141.529 140.560,142.426 140.761 C 143.323 140.963,144.374 141.414,144.760 141.764 C 145.147 142.114,145.739 142.400,146.076 142.400 C 146.413 142.400,147.351 142.850,148.162 143.400 C 148.972 143.950,149.798 144.400,149.997 144.400 C 150.196 144.400,150.844 144.850,151.438 145.400 C 152.031 145.950,152.671 146.400,152.858 146.400 C 153.046 146.400,153.200 146.737,153.200 147.149 C 153.200 147.716,153.597 147.961,154.840 148.160 C 156.005 148.346,156.541 148.651,156.687 149.211 C 156.800 149.645,157.223 150.000,157.627 150.000 C 158.030 150.000,158.505 150.258,158.681 150.573 C 159.095 151.312,161.436 153.023,163.100 153.802 C 163.815 154.137,164.400 154.678,164.400 155.005 C 164.400 155.332,164.664 155.600,164.986 155.600 C 165.308 155.600,165.762 155.955,165.994 156.389 C 166.495 157.325,170.310 161.200,170.730 161.200 C 171.119 161.200,173.202 163.535,173.980 164.842 C 175.561 167.500,176.483 168.746,177.018 168.952 C 177.338 169.074,177.600 169.407,177.600 169.691 C 177.600 169.975,177.951 170.427,178.380 170.695 C 178.809 170.963,179.278 171.810,179.422 172.577 C 179.585 173.444,179.971 174.064,180.442 174.213 C 180.859 174.346,181.200 174.759,181.200 175.132 C 181.200 175.505,181.604 175.988,182.098 176.205 C 182.591 176.422,183.063 176.958,183.145 177.396 C 183.228 177.833,183.627 178.424,184.032 178.707 C 184.437 178.991,184.892 179.884,185.044 180.692 C 185.195 181.500,185.652 182.519,186.060 182.956 C 186.467 183.393,186.800 184.186,186.800 184.718 C 186.800 185.249,187.250 186.219,187.800 186.873 C 188.495 187.699,188.800 188.540,188.800 189.631 C 188.800 190.726,188.973 191.200,189.373 191.200 C 189.688 191.200,190.074 191.605,190.231 192.100 C 190.387 192.595,190.939 193.557,191.458 194.238 C 192.194 195.206,192.400 195.977,192.400 197.774 C 192.400 199.588,192.569 200.212,193.203 200.736 C 193.836 201.259,194.060 202.078,194.257 204.600 C 194.419 206.676,194.734 208.060,195.153 208.540 C 195.664 209.125,195.845 210.554,196.014 215.340 C 196.179 219.989,196.388 221.698,196.914 222.680 C 197.551 223.869,197.600 227.417,197.600 272.382 L 197.600 320.804 259.400 320.797 L 321.200 320.790 321.200 259.759 C 321.200 217.875,321.047 195.320,320.711 187.864 C 320.175 175.940,320.122 173.274,320.409 172.453 C 320.520 172.136,320.281 171.853,319.841 171.780 C 318.197 171.506,317.793 170.589,318.564 168.880 C 319.434 166.951,319.294 165.000,318.287 165.000 C 317.894 165.000,317.444 164.807,317.287 164.571 C 317.129 164.335,316.662 164.017,316.250 163.864 C 315.395 163.548,315.590 160.759,316.547 159.610 C 317.696 158.234,317.316 156.800,315.803 156.800 C 313.937 156.800,313.406 154.661,314.586 151.900 C 314.824 151.344,314.687 151.200,313.923 151.200 C 312.159 151.200,311.323 148.813,312.389 146.821 C 312.714 146.214,312.591 146.058,311.637 145.867 C 309.947 145.529,309.655 142.538,311.129 140.661 C 312.047 139.492,311.493 138.844,309.345 138.576 C 306.869 138.267,306.208 137.660,306.539 136.004 C 306.743 134.984,306.639 134.775,305.827 134.571 C 304.678 134.283,304.296 133.091,304.893 131.657 C 305.135 131.076,305.371 130.465,305.416 130.300 C 305.462 130.135,305.536 129.955,305.581 129.900 C 306.167 129.172,305.766 128.573,304.789 128.716 C 303.959 128.838,303.555 128.664,303.222 128.040 C 302.974 127.578,302.504 127.200,302.177 127.200 C 301.267 127.200,300.623 125.478,301.159 124.477 C 302.032 122.845,301.720 122.055,300.100 121.797 C 297.277 121.346,296.390 119.986,297.962 118.521 C 298.767 117.772,298.764 117.767,297.485 117.671 C 296.778 117.618,296.134 117.383,296.054 117.149 C 295.974 116.916,295.401 116.273,294.782 115.721 C 293.549 114.622,293.385 113.181,294.462 112.900 C 295.266 112.689,294.990 111.600,294.134 111.600 C 293.814 111.600,293.663 111.422,293.797 111.205 C 293.935 110.982,293.783 110.908,293.452 111.036 C 293.127 111.160,292.764 111.518,292.643 111.831 C 292.169 113.069,289.600 112.006,289.600 110.571 C 289.600 110.257,289.967 109.633,290.415 109.185 C 291.333 108.267,291.142 107.600,289.960 107.600 C 289.523 107.600,288.949 107.423,288.683 107.206 C 286.396 105.341,285.626 104.800,285.256 104.800 C 285.021 104.800,284.613 104.395,284.351 103.900 C 284.088 103.405,283.542 102.765,283.137 102.477 C 282.731 102.190,282.400 101.782,282.400 101.571 C 282.400 101.359,281.590 100.410,280.600 99.462 C 279.610 98.513,278.800 97.591,278.800 97.413 C 278.800 96.951,277.621 96.084,276.056 95.395 C 274.840 94.860,274.727 94.671,274.875 93.408 L 275.038 92.013 274.141 92.855 C 273.140 93.796,271.200 93.632,271.200 92.606 C 271.200 92.288,270.847 91.839,270.416 91.609 C 269.366 91.046,268.262 88.634,268.496 87.411 C 268.600 86.868,268.530 86.519,268.342 86.636 C 268.154 86.752,268.000 87.177,268.000 87.581 C 268.000 87.984,267.730 88.418,267.400 88.545 C 266.959 88.714,266.800 88.492,266.800 87.707 C 266.800 86.877,266.693 86.747,266.320 87.120 C 265.592 87.848,264.479 87.695,264.000 86.800 C 263.765 86.360,263.312 86.000,262.994 86.000 C 262.517 86.000,261.880 84.667,261.815 83.533 C 261.780 82.914,261.200 82.725,261.200 83.333 C 261.200 83.700,260.975 84.014,260.700 84.031 C 260.425 84.047,259.883 84.122,259.495 84.196 C 258.845 84.320,257.919 83.251,258.042 82.516 C 258.255 81.241,257.934 80.626,257.512 81.500 C 256.574 83.445,254.255 82.533,254.314 80.242 C 254.340 79.217,254.263 79.105,253.873 79.600 C 253.157 80.508,252.009 80.544,251.055 79.687 C 250.585 79.265,249.885 78.808,249.500 78.672 C 248.897 78.459,248.568 77.389,248.763 76.270 C 248.794 76.088,248.411 76.085,247.910 76.262 C 245.662 77.059,243.409 76.680,243.272 75.482 C 243.175 74.641,242.976 74.417,242.467 74.579 C 239.320 75.577,237.600 74.983,237.600 72.897 C 237.600 71.448,237.589 71.438,236.977 72.311 C 236.480 73.021,235.966 73.200,234.420 73.200 C 232.368 73.200,232.000 72.860,232.000 70.967 C 232.000 69.925,231.621 69.739,230.920 70.440 C 230.201 71.159,228.800 70.469,228.800 69.397 C 228.800 68.063,228.420 67.965,226.626 68.837 C 224.832 69.710,221.272 69.876,221.000 69.100 C 220.903 68.825,220.760 68.065,220.680 67.411 C 220.509 65.999,219.938 65.927,216.936 66.942 C 215.597 67.395,213.983 67.598,212.336 67.520 L 209.800 67.400 209.678 65.934 C 209.582 64.784,209.712 64.434,210.278 64.312 C 210.675 64.227,203.350 64.164,194.000 64.174 C 184.650 64.183,177.450 64.256,178.000 64.336 " stroke="none" fill="#24d4e4" fill-rule="evenodd"></path><path id="path2" d="M178.626 64.757 C 178.476 65.001,178.451 65.360,178.572 65.555 C 179.301 66.735,175.861 67.236,172.411 66.452 C 170.617 66.044,169.621 66.169,171.043 66.623 C 171.459 66.756,172.213 67.030,172.719 67.233 C 174.982 68.138,178.691 67.689,179.120 66.458 C 179.534 65.269,179.143 63.922,178.626 64.757 M209.745 65.800 L 209.800 67.400 212.336 67.520 C 214.482 67.622,219.212 66.647,218.726 66.204 C 218.657 66.140,216.911 66.341,214.848 66.650 C 210.724 67.267,210.177 67.115,209.869 65.271 C 209.767 64.664,209.714 64.893,209.745 65.800 M167.289 67.036 C 167.133 68.919,165.915 69.293,162.824 68.407 C 161.040 67.895,160.803 68.174,162.343 68.971 C 165.223 70.460,168.200 69.529,168.200 67.139 C 168.200 65.716,167.405 65.626,167.289 67.036 M220.653 67.298 C 220.755 68.014,220.914 68.825,221.006 69.100 C 221.280 69.911,224.846 69.710,226.629 68.783 C 228.362 67.882,227.987 67.872,224.141 68.714 C 222.151 69.150,221.200 68.726,221.200 67.404 C 221.200 66.878,221.036 66.346,220.835 66.221 C 220.629 66.095,220.550 66.567,220.653 67.298 M228.711 69.176 C 228.902 70.473,230.164 71.196,230.920 70.440 C 231.240 70.120,231.127 70.000,230.508 70.000 C 229.939 70.000,229.613 69.711,229.528 69.131 C 229.458 68.654,229.205 68.199,228.968 68.121 C 228.698 68.032,228.602 68.430,228.711 69.176 M156.040 71.258 L 155.601 72.516 152.929 72.266 C 150.873 72.074,150.366 72.126,150.729 72.489 C 152.538 74.298,157.263 73.092,157.095 70.864 C 157.002 69.628,156.549 69.798,156.040 71.258 M232.000 70.967 C 232.000 72.855,232.370 73.200,234.394 73.200 C 235.535 73.200,236.488 72.976,236.763 72.644 C 237.148 72.180,236.874 72.097,235.112 72.144 C 233.089 72.198,232.995 72.153,232.873 71.100 C 232.717 69.744,232.000 69.635,232.000 70.967 M149.100 71.831 C 148.935 71.997,148.800 72.538,148.800 73.033 C 148.800 74.091,148.146 74.413,146.919 73.960 C 146.254 73.714,146.089 73.767,146.247 74.178 C 146.765 75.527,149.073 75.245,149.439 73.788 C 149.723 72.654,149.509 71.418,149.100 71.831 M237.600 72.986 C 237.600 74.978,239.377 75.559,242.467 74.579 C 242.976 74.417,243.175 74.641,243.272 75.482 C 243.409 76.680,245.662 77.059,247.910 76.262 C 248.411 76.085,248.794 76.088,248.763 76.270 C 248.546 77.515,248.907 78.460,249.716 78.768 C 250.220 78.960,250.870 79.402,251.159 79.750 C 251.781 80.500,253.492 80.458,253.789 79.685 C 253.932 79.311,253.718 79.179,253.098 79.259 C 252.604 79.323,251.930 79.201,251.600 78.988 C 251.270 78.775,250.640 78.416,250.200 78.191 C 249.756 77.964,249.342 77.284,249.271 76.663 C 249.143 75.557,249.114 75.546,246.671 75.672 C 244.258 75.797,244.197 75.775,244.077 74.740 C 243.957 73.704,243.894 73.681,241.277 73.740 C 238.637 73.799,238.598 73.785,238.473 72.700 C 238.291 71.117,237.600 71.343,237.600 72.986 M143.127 74.700 C 143.010 75.716,142.870 75.797,141.300 75.757 C 139.831 75.720,139.600 75.827,139.600 76.547 C 139.600 77.956,136.962 79.976,135.444 79.730 C 134.364 79.554,134.093 79.679,133.706 80.526 C 133.300 81.419,133.070 81.506,131.645 81.315 C 130.158 81.116,130.020 81.180,129.768 82.187 C 129.546 83.070,129.315 83.239,128.532 83.089 C 127.934 82.975,127.624 83.075,127.715 83.352 C 128.022 84.290,130.226 84.099,130.684 83.095 C 131.045 82.302,131.344 82.177,132.551 82.318 C 133.815 82.466,134.037 82.356,134.400 81.401 C 134.742 80.501,134.982 80.359,135.814 80.568 C 136.965 80.857,138.400 80.227,138.400 79.433 C 138.400 79.136,138.761 78.799,139.203 78.683 C 139.709 78.551,140.098 78.008,140.258 77.212 C 140.436 76.321,140.635 76.075,140.935 76.375 C 142.132 77.572,144.000 76.385,144.000 74.426 C 144.000 73.198,143.273 73.426,143.127 74.700 M254.351 79.815 C 253.779 81.825,256.615 83.700,257.347 81.795 C 257.523 81.336,257.365 81.240,256.689 81.399 C 255.528 81.672,254.915 81.234,254.732 80.000 C 254.598 79.094,254.562 79.076,254.351 79.815 M258.129 82.138 C 258.320 83.874,258.644 84.359,259.502 84.195 C 259.886 84.121,260.425 84.047,260.700 84.031 C 261.628 83.974,261.209 83.200,260.250 83.200 C 259.514 83.200,259.246 82.929,259.060 82.000 C 258.730 80.351,257.944 80.467,258.129 82.138 M126.278 83.055 C 126.125 83.208,126.000 83.774,126.000 84.313 C 126.000 85.147,125.848 85.264,124.984 85.099 C 124.343 84.977,124.022 85.070,124.115 85.352 C 124.441 86.349,126.757 86.110,127.022 85.053 C 127.285 84.007,126.753 82.580,126.278 83.055 M261.801 83.605 C 262.136 85.345,262.467 86.000,263.013 86.000 C 263.320 86.000,263.765 86.360,264.000 86.800 C 264.450 87.640,265.778 87.882,266.200 87.200 C 266.336 86.980,266.077 86.800,265.624 86.800 C 265.152 86.800,264.800 86.539,264.800 86.190 C 264.800 85.855,264.364 85.414,263.831 85.212 C 263.286 85.005,262.804 84.453,262.731 83.953 C 262.659 83.463,262.383 82.991,262.118 82.904 C 261.812 82.803,261.696 83.059,261.801 83.605 M122.198 87.739 C 122.200 89.021,122.046 89.099,120.200 88.751 C 119.624 88.642,119.365 88.843,119.276 89.471 C 119.089 90.783,118.226 91.349,117.226 90.814 C 116.703 90.534,116.400 90.519,116.400 90.772 C 116.400 92.233,119.048 92.053,119.618 90.553 C 119.917 89.765,120.169 89.654,121.186 89.857 C 123.259 90.272,124.668 87.800,122.898 86.853 C 122.299 86.532,122.197 86.660,122.198 87.739 M268.432 88.239 C 268.374 89.042,269.650 91.199,270.430 91.616 C 270.854 91.843,271.200 92.288,271.200 92.606 C 271.200 93.546,273.112 93.803,274.016 92.985 C 274.779 92.295,274.800 92.310,274.800 93.558 C 274.800 94.621,275.023 94.939,276.100 95.414 C 277.627 96.087,278.800 96.955,278.800 97.413 C 278.800 97.591,279.610 98.513,280.600 99.462 C 281.590 100.410,282.400 101.359,282.400 101.571 C 282.400 101.782,282.731 102.190,283.137 102.477 C 283.542 102.765,284.088 103.405,284.351 103.900 C 284.613 104.395,285.021 104.800,285.256 104.800 C 285.492 104.800,286.250 105.253,286.942 105.806 C 287.634 106.359,288.387 106.961,288.616 107.143 C 289.236 107.637,291.200 107.942,291.200 107.545 C 291.200 107.355,290.771 107.200,290.247 107.200 C 289.630 107.200,289.219 106.918,289.084 106.400 C 288.962 105.932,288.538 105.600,288.064 105.600 C 287.605 105.600,287.144 105.253,287.000 104.800 C 286.860 104.360,286.484 104.000,286.164 104.000 C 285.845 104.000,285.378 103.550,285.127 103.000 C 284.877 102.450,284.426 102.000,284.126 102.000 C 283.826 102.000,283.409 101.550,283.200 101.000 C 282.991 100.450,282.549 100.000,282.218 100.000 C 281.886 100.000,281.502 99.550,281.364 99.000 C 281.207 98.374,280.830 98.000,280.357 98.000 C 279.855 98.000,279.600 97.717,279.600 97.163 C 279.600 96.662,279.279 96.241,278.800 96.116 C 278.360 96.001,278.000 95.675,278.000 95.392 C 278.000 95.110,277.460 94.690,276.800 94.460 C 275.992 94.178,275.600 93.773,275.600 93.221 C 275.600 92.355,275.383 92.276,273.300 92.390 C 272.345 92.442,272.000 92.291,272.000 91.821 C 272.000 91.468,271.550 91.009,271.000 90.800 C 270.388 90.567,270.000 90.106,270.000 89.610 C 270.000 89.164,269.745 88.800,269.433 88.800 C 269.122 88.800,268.776 88.575,268.665 88.300 C 268.548 88.010,268.450 87.984,268.432 88.239 M114.800 91.413 C 114.800 91.956,114.625 92.400,114.410 92.400 C 114.196 92.400,113.741 92.940,113.400 93.600 C 112.964 94.443,112.485 94.800,111.790 94.800 C 111.245 94.800,110.800 94.991,110.800 95.225 C 110.800 96.114,113.367 95.430,113.874 94.407 C 114.145 93.861,114.618 93.230,114.925 93.005 C 115.824 92.348,116.119 90.931,115.412 90.660 C 114.965 90.488,114.800 90.691,114.800 91.413 M109.442 96.973 C 109.308 97.509,108.839 98.061,108.399 98.200 C 107.960 98.340,107.600 98.729,107.600 99.064 C 107.600 99.400,107.226 99.773,106.769 99.892 C 106.312 100.012,105.777 100.535,105.579 101.055 C 105.382 101.575,104.974 102.000,104.674 102.000 C 104.374 102.000,103.923 102.450,103.673 103.000 C 103.422 103.550,102.955 104.000,102.636 104.000 C 102.316 104.000,101.940 104.360,101.800 104.800 C 101.660 105.240,101.198 105.600,100.773 105.600 C 100.255 105.600,100.000 105.876,100.000 106.437 C 100.000 106.938,99.679 107.359,99.200 107.484 C 98.753 107.601,98.400 108.030,98.400 108.457 C 98.400 108.903,97.984 109.378,97.400 109.600 C 96.850 109.809,96.400 110.174,96.400 110.411 C 96.400 110.648,95.860 111.030,95.200 111.260 C 94.541 111.490,94.086 111.816,94.191 111.985 C 94.519 112.517,96.437 111.929,96.925 111.148 C 97.182 110.737,97.574 110.397,97.796 110.393 C 98.223 110.385,100.800 107.452,100.800 106.973 C 100.800 106.597,102.755 104.800,103.165 104.800 C 103.658 104.800,106.614 101.900,106.500 101.527 C 106.445 101.347,106.565 101.200,106.766 101.200 C 107.680 101.200,110.400 98.114,110.400 97.077 C 110.400 95.734,109.770 95.666,109.442 96.973 M289.992 109.615 C 289.035 111.403,291.439 113.456,292.611 111.852 C 292.913 111.440,293.385 111.279,293.849 111.431 C 294.461 111.630,294.490 111.598,294.003 111.254 C 293.675 111.023,293.001 110.935,292.504 111.060 C 290.982 111.442,290.351 110.982,290.795 109.814 C 291.263 108.583,290.628 108.426,289.992 109.615 M94.467 113.600 C 94.564 114.329,94.355 114.707,93.696 114.996 C 93.199 115.214,92.692 115.709,92.569 116.096 C 92.447 116.483,92.084 116.800,91.763 116.800 C 91.443 116.800,91.014 117.236,90.812 117.769 C 90.598 118.331,90.055 118.794,89.522 118.870 C 88.853 118.964,88.636 119.220,88.733 119.800 C 89.114 122.100,89.004 122.552,88.000 122.796 C 87.186 122.995,86.996 123.290,86.978 124.385 C 86.964 125.312,86.683 125.913,86.078 126.314 C 85.595 126.635,85.200 127.124,85.200 127.400 C 85.200 127.676,84.841 128.149,84.402 128.451 C 83.838 128.839,83.574 129.529,83.502 130.800 L 83.400 132.600 85.800 132.400 C 92.090 131.876,111.785 132.202,114.400 132.874 C 115.830 133.241,118.170 133.665,119.600 133.815 C 121.030 133.965,122.801 134.336,123.536 134.639 C 124.270 134.941,126.023 135.389,127.430 135.635 C 128.837 135.880,130.659 136.422,131.478 136.840 C 132.298 137.258,133.161 137.600,133.396 137.600 C 133.630 137.600,134.110 137.936,134.461 138.346 C 134.812 138.756,135.788 139.221,136.629 139.379 C 137.469 139.537,138.596 140.011,139.133 140.433 C 139.669 140.855,140.344 141.200,140.633 141.200 C 140.921 141.200,142.004 141.650,143.038 142.200 C 144.073 142.750,145.224 143.200,145.598 143.200 C 145.971 143.200,146.602 143.560,147.000 144.000 C 147.398 144.440,147.987 144.800,148.308 144.800 C 149.027 144.800,152.800 147.525,152.800 148.044 C 152.800 148.251,153.214 148.577,153.720 148.770 C 154.978 149.248,158.044 151.346,159.577 152.779 C 160.272 153.428,161.147 154.059,161.520 154.182 C 162.302 154.438,164.846 156.833,166.600 158.962 C 167.260 159.764,168.790 161.192,170.000 162.136 C 171.210 163.081,172.467 164.381,172.793 165.027 C 173.119 165.672,174.117 167.100,175.010 168.200 C 177.235 170.938,178.800 173.093,178.800 173.418 C 178.800 173.567,179.565 174.595,180.500 175.703 C 182.238 177.761,183.092 179.126,184.192 181.600 C 184.534 182.370,185.065 183.540,185.372 184.200 C 186.927 187.543,187.946 189.946,188.379 191.294 C 188.643 192.116,189.019 192.888,189.216 193.010 C 189.973 193.478,191.607 197.349,191.965 199.523 C 192.171 200.775,192.615 202.451,192.953 203.248 C 193.291 204.044,193.688 205.934,193.836 207.448 C 193.983 208.961,194.346 210.795,194.641 211.522 C 195.762 214.283,195.992 224.644,195.996 272.500 C 196.000 320.532,196.004 320.800,196.800 320.800 C 197.962 320.800,198.074 224.846,196.914 222.680 C 196.388 221.698,196.179 219.989,196.014 215.340 C 195.845 210.554,195.664 209.125,195.153 208.540 C 194.734 208.060,194.419 206.676,194.257 204.600 C 194.060 202.078,193.836 201.259,193.203 200.736 C 192.569 200.212,192.400 199.588,192.400 197.774 C 192.400 195.977,192.194 195.206,191.458 194.238 C 190.939 193.557,190.387 192.595,190.231 192.100 C 190.074 191.605,189.688 191.200,189.373 191.200 C 188.973 191.200,188.800 190.726,188.800 189.631 C 188.800 188.540,188.495 187.699,187.800 186.873 C 187.250 186.219,186.800 185.249,186.800 184.718 C 186.800 184.186,186.467 183.393,186.060 182.956 C 185.652 182.519,185.195 181.500,185.044 180.692 C 184.892 179.884,184.437 178.991,184.032 178.707 C 183.627 178.424,183.228 177.833,183.145 177.396 C 183.063 176.958,182.591 176.422,182.098 176.205 C 181.604 175.988,181.200 175.505,181.200 175.132 C 181.200 174.759,180.859 174.346,180.442 174.213 C 179.971 174.064,179.585 173.444,179.422 172.577 C 179.278 171.810,178.809 170.963,178.380 170.695 C 177.951 170.427,177.600 169.975,177.600 169.691 C 177.600 169.407,177.338 169.074,177.018 168.952 C 176.483 168.746,175.561 167.500,173.980 164.842 C 173.202 163.535,171.119 161.200,170.730 161.200 C 170.310 161.200,166.495 157.325,165.994 156.389 C 165.762 155.955,165.308 155.600,164.986 155.600 C 164.664 155.600,164.400 155.332,164.400 155.005 C 164.400 154.678,163.815 154.137,163.100 153.802 C 161.436 153.023,159.095 151.312,158.681 150.573 C 158.505 150.258,158.030 150.000,157.627 150.000 C 157.223 150.000,156.800 149.645,156.687 149.211 C 156.541 148.651,156.005 148.346,154.840 148.160 C 153.597 147.961,153.200 147.716,153.200 147.149 C 153.200 146.737,153.046 146.400,152.858 146.400 C 152.671 146.400,152.031 145.950,151.438 145.400 C 150.844 144.850,150.196 144.400,149.997 144.400 C 149.798 144.400,148.972 143.950,148.162 143.400 C 147.351 142.850,146.413 142.400,146.076 142.400 C 145.739 142.400,145.147 142.114,144.760 141.764 C 144.374 141.414,143.323 140.963,142.426 140.761 C 141.529 140.560,140.436 140.036,139.997 139.597 C 139.555 139.155,138.665 138.800,138.000 138.800 C 137.338 138.800,136.446 138.446,136.010 138.010 C 135.576 137.576,134.740 137.100,134.152 136.952 C 133.565 136.805,132.750 136.350,132.342 135.942 C 131.842 135.442,131.020 135.200,129.821 135.200 C 128.692 135.200,127.356 134.835,126.162 134.200 C 124.670 133.407,123.700 133.200,121.472 133.200 C 119.470 133.200,118.462 133.018,117.963 132.567 C 116.777 131.494,111.951 131.173,98.000 131.240 L 84.600 131.305 84.475 130.053 C 84.402 129.324,84.536 128.800,84.794 128.800 C 86.433 128.800,88.700 124.888,87.500 124.132 C 87.169 123.924,87.391 123.746,88.157 123.608 C 89.758 123.320,90.305 122.344,89.726 120.810 C 89.330 119.760,89.359 119.600,89.948 119.600 C 90.321 119.600,91.340 118.791,92.213 117.803 C 93.086 116.815,94.029 116.005,94.309 116.003 C 95.301 115.997,95.824 114.050,95.038 113.285 C 94.371 112.636,94.342 112.652,94.467 113.600 M293.970 112.900 C 293.584 114.201,293.765 114.815,294.811 115.747 C 295.465 116.329,296.000 116.985,296.000 117.203 C 296.000 117.421,296.439 117.600,296.976 117.600 C 297.513 117.600,298.064 117.780,298.200 118.000 C 298.336 118.220,298.260 118.400,298.031 118.400 C 297.372 118.400,297.053 120.341,297.604 121.005 C 298.161 121.676,300.400 121.822,300.400 121.187 C 300.400 120.961,300.130 120.691,299.800 120.587 C 299.470 120.484,298.932 120.316,298.604 120.214 C 298.171 120.079,298.097 119.780,298.332 119.114 C 298.827 117.715,298.464 116.800,297.414 116.800 C 296.759 116.800,296.413 116.507,296.236 115.800 C 296.098 115.250,295.718 114.800,295.392 114.800 C 295.027 114.800,294.800 114.417,294.800 113.800 C 294.800 113.037,294.142 112.323,293.970 112.900 M301.628 122.681 C 301.613 123.166,301.401 123.998,301.159 124.531 C 300.648 125.653,301.251 127.200,302.200 127.200 C 302.515 127.200,302.953 127.539,303.175 127.953 C 303.653 128.847,305.867 129.314,305.867 128.521 C 305.867 128.234,305.430 128.000,304.896 128.000 C 304.262 128.000,303.853 127.723,303.716 127.200 C 303.601 126.760,303.294 126.400,303.033 126.400 C 302.136 126.400,301.672 125.544,301.981 124.460 C 302.148 123.877,302.143 123.040,301.970 122.600 C 301.670 121.835,301.655 121.839,301.628 122.681 M305.550 129.800 C 305.405 130.381,305.295 130.691,304.893 131.657 C 304.296 133.091,304.678 134.283,305.827 134.571 C 306.639 134.775,306.743 134.984,306.539 136.004 C 306.398 136.711,306.504 137.443,306.799 137.799 C 307.354 138.467,309.600 138.628,309.600 138.000 C 309.600 137.780,309.150 137.600,308.600 137.600 C 307.573 137.600,307.465 137.378,307.585 135.527 C 307.634 134.766,307.352 134.256,306.611 133.771 C 305.667 133.152,305.593 132.921,305.829 131.343 C 306.031 129.997,305.808 128.766,305.550 129.800 M310.992 140.813 C 309.665 142.961,309.993 145.539,311.637 145.867 C 312.591 146.058,312.714 146.214,312.389 146.821 C 311.323 148.813,312.159 151.200,313.923 151.200 C 314.687 151.200,314.824 151.344,314.586 151.900 C 313.404 154.664,313.937 156.800,315.808 156.800 C 317.455 156.800,317.687 156.109,316.100 155.927 C 315.027 155.803,315.000 155.737,315.000 153.222 C 315.000 150.803,314.938 150.628,314.000 150.401 C 313.042 150.168,313.005 150.045,313.111 147.479 C 313.220 144.827,313.211 144.800,312.174 144.800 C 311.154 144.800,311.130 144.742,311.263 142.599 C 311.408 140.266,311.393 140.164,310.992 140.813 M316.436 159.757 C 315.126 161.336,315.694 163.714,317.510 164.250 C 318.450 164.528,319.114 164.585,318.986 164.377 C 318.858 164.170,318.425 164.000,318.025 164.000 C 316.709 164.000,316.255 162.987,316.731 161.113 C 317.209 159.228,317.140 158.909,316.436 159.757 M318.389 169.226 C 317.965 170.251,317.977 170.548,318.463 171.034 C 319.224 171.795,320.910 172.133,320.696 171.482 C 320.609 171.217,320.125 170.940,319.622 170.866 C 318.820 170.749,318.734 170.563,318.928 169.366 C 319.202 167.676,319.048 167.636,318.389 169.226 M325.911 172.693 C 326.851 172.778,328.291 172.777,329.111 172.691 C 329.930 172.605,329.160 172.536,327.400 172.537 C 325.640 172.539,324.970 172.609,325.911 172.693 M343.653 175.020 C 343.584 176.616,344.238 177.213,345.980 177.143 L 347.400 177.086 345.800 176.843 C 344.350 176.623,344.177 176.469,343.953 175.200 C 343.707 173.811,343.705 173.809,343.653 175.020 M351.206 177.476 C 351.203 177.958,351.392 178.471,351.627 178.616 C 352.282 179.021,352.317 178.698,351.739 177.600 C 351.233 176.641,351.212 176.636,351.206 177.476 M366.297 184.099 C 366.690 185.685,369.272 187.965,370.200 187.546 C 370.914 187.222,370.899 187.203,370.056 187.366 C 369.357 187.501,369.057 187.339,368.901 186.743 C 368.785 186.301,368.265 185.777,367.745 185.579 C 367.194 185.370,366.800 184.892,366.800 184.434 C 366.800 184.001,366.637 183.546,366.437 183.423 C 366.238 183.300,366.175 183.604,366.297 184.099 M372.460 188.113 C 372.421 188.843,372.640 189.315,373.100 189.488 C 373.865 189.775,376.000 191.905,376.000 192.381 C 376.000 193.344,382.406 199.251,383.271 199.086 L 384.200 198.909 383.291 198.854 C 382.743 198.822,382.202 198.404,381.927 197.800 C 381.677 197.250,381.140 196.800,380.736 196.800 C 380.331 196.800,380.000 196.526,380.000 196.190 C 380.000 195.855,379.550 195.409,379.000 195.200 C 378.450 194.991,378.000 194.552,378.000 194.224 C 378.000 193.896,377.640 193.435,377.200 193.200 C 376.760 192.965,376.400 192.515,376.400 192.200 C 376.400 191.885,376.040 191.435,375.600 191.200 C 375.160 190.965,374.800 190.418,374.800 189.986 C 374.800 189.554,374.665 189.221,374.500 189.247 C 373.373 189.425,372.836 189.086,372.687 188.100 L 372.520 187.000 372.460 188.113 M383.345 201.000 C 383.026 201.831,383.447 202.766,384.284 203.088 C 385.094 203.398,388.593 206.866,389.154 207.913 C 389.362 208.302,390.007 208.659,390.588 208.707 C 391.203 208.758,391.541 208.629,391.398 208.397 C 391.263 208.179,390.799 208.000,390.366 208.000 C 389.896 208.000,389.428 207.599,389.200 207.000 C 388.991 206.450,388.557 206.000,388.237 206.000 C 387.916 206.000,387.543 205.649,387.406 205.220 C 387.270 204.792,386.808 204.330,386.380 204.194 C 385.951 204.057,385.600 203.708,385.600 203.416 C 385.600 203.125,385.131 202.769,384.557 202.625 C 383.710 202.412,383.549 202.178,383.701 201.382 C 383.910 200.292,383.702 200.070,383.345 201.000 M390.762 211.933 C 390.564 213.063,390.687 213.366,391.564 213.924 C 392.134 214.286,392.732 214.766,392.894 214.991 C 393.064 215.227,393.190 215.108,393.194 214.708 C 393.197 214.304,392.792 213.913,392.222 213.770 C 391.441 213.574,391.219 213.229,391.120 212.062 L 390.995 210.600 390.762 211.933 M392.528 216.569 C 392.568 217.212,392.870 217.826,393.200 217.934 C 393.672 218.088,393.702 218.009,393.343 217.565 C 393.092 217.254,392.789 216.640,392.671 216.200 C 392.536 215.697,392.483 215.835,392.528 216.569 M394.418 221.800 C 394.409 222.447,394.930 222.986,396.033 223.469 C 396.869 223.835,397.067 223.815,397.067 223.361 C 397.067 223.043,396.670 222.800,396.153 222.800 C 395.651 222.800,395.056 222.485,394.832 222.100 C 394.608 221.715,394.422 221.580,394.418 221.800 M398.046 233.158 C 397.424 236.062,398.685 239.848,399.878 238.655 C 400.029 238.505,399.780 238.121,399.325 237.802 C 398.281 237.071,398.012 235.689,398.454 233.324 C 398.927 230.791,398.584 230.652,398.046 233.158 " stroke="none" fill="#24c8dc" fill-rule="evenodd"></path><path id="path3" d="M266.800 87.554 C 266.800 88.493,266.943 88.720,267.421 88.537 C 268.138 88.261,268.048 86.744,267.300 86.498 C 266.973 86.390,266.800 86.756,266.800 87.554 M317.384 164.775 C 317.512 164.981,317.960 165.123,318.380 165.092 C 319.377 165.016,318.996 164.400,317.953 164.400 C 317.513 164.400,317.257 164.569,317.384 164.775 M320.359 172.877 C 320.087 173.385,320.113 175.468,320.438 179.314 C 320.780 183.350,320.968 204.698,321.086 252.900 L 321.252 320.800 360.626 320.800 L 400.000 320.800 400.000 279.981 L 400.000 239.162 398.923 238.235 C 397.600 237.097,397.470 234.555,398.569 231.276 C 399.421 228.732,399.173 226.591,397.990 226.282 C 397.302 226.102,397.008 225.198,397.119 223.600 C 397.127 223.490,396.675 223.373,396.114 223.339 C 394.791 223.260,394.419 222.601,394.701 220.834 C 395.094 218.371,395.051 218.237,393.800 218.001 C 392.690 217.791,392.605 217.654,392.667 216.175 C 392.724 214.806,392.572 214.484,391.601 213.926 C 390.418 213.248,390.390 212.740,391.365 209.700 C 391.639 208.846,391.195 208.555,389.912 208.749 C 389.754 208.773,389.433 208.435,389.200 208.000 C 388.603 206.884,385.127 203.411,384.284 203.088 C 383.322 202.719,382.979 201.646,383.537 200.752 C 384.221 199.657,384.104 199.200,383.141 199.200 C 382.345 199.200,376.000 193.141,376.000 192.381 C 376.000 191.905,373.865 189.775,373.100 189.488 C 372.696 189.336,372.400 188.812,372.400 188.246 C 372.400 187.041,371.736 186.777,370.421 187.459 C 369.162 188.112,366.135 185.457,366.509 184.026 C 366.626 183.578,366.532 183.265,366.294 183.314 C 366.061 183.361,365.765 183.040,365.635 182.600 C 365.401 181.804,363.984 181.491,363.369 182.100 C 362.300 183.159,360.300 181.958,360.594 180.434 C 360.735 179.700,360.637 179.584,360.084 179.824 C 358.345 180.581,357.406 180.259,357.272 178.861 C 357.171 177.813,356.997 177.570,356.472 177.743 C 352.118 179.181,351.200 179.089,351.200 177.213 C 351.200 175.797,350.105 175.576,348.146 176.598 C 345.702 177.872,343.600 177.188,343.600 175.120 C 343.600 174.148,343.445 174.000,342.427 174.000 C 341.627 174.000,341.177 173.759,341.013 173.242 C 340.623 172.013,337.305 171.828,329.000 172.572 C 327.240 172.730,324.666 172.694,323.280 172.493 C 321.010 172.163,320.720 172.201,320.359 172.877 " stroke="none" fill="#44c4f4" fill-rule="evenodd"></path><path id="path4" d="M184.305 64.283 C 184.802 64.379,185.522 64.375,185.905 64.275 C 186.287 64.175,185.880 64.096,185.000 64.101 C 184.120 64.105,183.807 64.187,184.305 64.283 M201.905 64.283 C 202.402 64.379,203.122 64.375,203.505 64.275 C 203.887 64.175,203.480 64.096,202.600 64.101 C 201.720 64.105,201.407 64.187,201.905 64.283 M172.516 65.200 C 172.401 65.640,172.013 66.018,171.653 66.041 C 170.371 66.121,173.837 66.795,175.741 66.836 C 177.821 66.880,178.513 66.487,178.607 65.206 C 178.697 63.978,172.837 63.972,172.516 65.200 M210.000 65.351 C 210.000 67.049,210.735 67.255,214.641 66.646 C 216.599 66.341,217.795 66.070,217.300 66.045 C 216.805 66.020,216.421 65.865,216.447 65.700 C 216.631 64.538,216.287 64.400,213.200 64.400 C 210.097 64.400,210.000 64.429,210.000 65.351 M163.219 66.380 C 162.900 66.582,162.495 66.658,162.319 66.550 C 162.144 66.442,162.000 66.554,162.000 66.800 C 162.000 67.046,161.820 67.136,161.600 67.000 C 161.380 66.864,161.200 67.026,161.200 67.361 C 161.200 68.089,163.890 68.903,165.702 68.723 C 166.890 68.606,167.972 66.905,167.292 66.225 C 166.929 65.862,163.853 65.979,163.219 66.380 M221.092 67.050 C 221.457 69.142,223.064 69.438,226.528 68.050 C 228.396 67.302,226.954 66.333,223.619 66.094 L 220.892 65.899 221.092 67.050 M229.516 69.070 C 229.650 69.774,229.949 69.992,230.747 69.968 C 231.326 69.951,231.574 69.846,231.298 69.734 C 231.021 69.623,230.871 69.409,230.963 69.259 C 231.056 69.109,230.728 68.796,230.235 68.564 C 229.425 68.182,229.355 68.231,229.516 69.070 M153.705 69.914 C 152.993 69.989,152.181 70.377,151.901 70.777 C 151.621 71.177,151.033 71.586,150.596 71.685 C 149.654 71.898,153.978 72.543,154.983 72.339 C 155.361 72.263,155.907 71.638,156.195 70.950 C 156.775 69.567,156.822 69.587,153.705 69.914 M232.945 70.198 C 232.288 71.912,233.387 72.679,235.840 72.219 C 237.225 71.959,237.825 70.566,236.700 70.222 C 234.989 69.697,233.142 69.686,232.945 70.198 M146.400 72.049 C 146.400 72.206,146.291 72.618,146.158 72.965 C 145.902 73.632,147.389 74.451,148.259 74.121 C 149.539 73.634,149.097 71.582,147.732 71.674 C 146.999 71.723,146.400 71.892,146.400 72.049 M238.473 72.700 C 238.592 73.733,238.719 73.800,240.562 73.800 C 242.835 73.800,243.566 72.671,241.742 71.978 C 239.661 71.187,238.333 71.480,238.473 72.700 M140.831 74.500 C 140.566 75.195,140.655 75.480,141.222 75.751 C 142.310 76.272,143.200 75.760,143.200 74.613 C 143.200 73.240,141.345 73.152,140.831 74.500 M244.073 74.700 C 244.198 75.784,244.237 75.798,246.671 75.672 C 249.114 75.546,249.143 75.557,249.271 76.663 C 249.351 77.353,249.758 77.959,250.334 78.244 C 250.847 78.499,251.441 78.881,251.654 79.094 C 251.867 79.307,252.482 79.397,253.021 79.294 C 254.348 79.040,254.334 77.699,253.000 77.364 C 252.403 77.214,252.000 76.827,252.000 76.403 C 252.000 75.564,250.917 75.213,248.300 75.205 C 246.668 75.201,246.400 75.087,246.400 74.400 C 246.400 73.774,246.133 73.600,245.173 73.600 C 244.071 73.600,243.960 73.712,244.073 74.700 M137.700 75.612 C 137.205 75.811,136.800 76.238,136.800 76.560 C 136.800 76.882,136.449 77.257,136.020 77.394 C 135.592 77.530,135.130 77.992,134.994 78.420 C 134.797 79.039,134.379 79.200,132.973 79.200 C 131.467 79.200,131.200 79.320,131.200 80.000 C 131.200 80.573,130.917 80.814,130.200 80.850 C 129.650 80.877,129.020 80.945,128.800 81.000 C 128.580 81.055,128.207 81.123,127.972 81.150 C 127.164 81.244,127.767 82.995,128.651 83.121 C 129.289 83.212,129.570 82.974,129.771 82.171 C 130.020 81.182,130.163 81.116,131.645 81.315 C 133.070 81.506,133.300 81.419,133.706 80.526 C 134.093 79.679,134.364 79.554,135.444 79.730 C 137.004 79.983,139.387 78.061,139.696 76.300 C 139.906 75.103,139.400 74.929,137.700 75.612 M254.800 80.173 C 254.800 81.224,255.826 81.795,256.944 81.366 C 258.283 80.853,257.349 79.200,255.720 79.200 C 255.012 79.200,254.800 79.424,254.800 80.173 M258.957 81.433 C 259.091 81.781,259.200 82.321,259.200 82.633 C 259.200 82.971,259.603 83.200,260.200 83.200 C 261.368 83.200,261.664 81.464,260.567 81.043 C 259.403 80.596,258.701 80.766,258.957 81.433 M124.080 83.280 C 123.415 83.945,123.480 84.668,124.233 84.957 C 125.454 85.426,125.911 85.189,126.085 84.000 C 126.277 82.695,125.091 82.269,124.080 83.280 M262.703 83.807 C 262.823 84.433,263.288 85.006,263.852 85.220 C 264.374 85.418,264.800 85.855,264.800 86.190 C 264.800 86.573,265.170 86.800,265.791 86.800 C 266.700 86.800,266.745 86.718,266.333 85.813 C 266.085 85.269,265.750 84.907,265.587 85.008 C 265.178 85.261,264.281 84.117,264.548 83.684 C 264.667 83.491,264.548 83.325,264.282 83.314 C 264.017 83.304,263.508 83.173,263.151 83.024 C 262.624 82.805,262.540 82.952,262.703 83.807 M120.284 86.650 C 119.640 87.293,120.017 88.711,120.893 88.940 C 122.017 89.234,122.506 88.761,122.334 87.546 C 122.202 86.614,120.892 86.042,120.284 86.650 M117.100 88.832 C 116.159 89.380,116.216 90.273,117.226 90.814 C 118.243 91.358,119.027 90.819,119.300 89.388 C 119.509 88.298,118.468 88.035,117.100 88.832 M269.300 88.657 C 269.685 88.768,270.000 89.210,270.000 89.639 C 270.000 90.104,270.405 90.574,271.000 90.800 C 271.550 91.009,272.000 91.455,272.000 91.790 C 272.000 92.201,272.391 92.400,273.200 92.400 C 274.213 92.400,274.400 92.244,274.400 91.400 C 274.400 90.608,274.198 90.400,273.428 90.400 C 272.728 90.400,272.420 90.151,272.328 89.511 C 272.220 88.759,271.924 88.610,270.400 88.539 C 269.410 88.492,268.915 88.546,269.300 88.657 M114.454 91.100 C 114.417 91.712,114.147 92.000,113.608 92.000 C 113.096 92.000,112.726 92.354,112.564 93.000 C 112.407 93.626,112.030 94.000,111.557 94.000 C 111.140 94.000,110.800 94.180,110.800 94.400 C 110.800 95.361,112.794 94.771,113.381 93.636 C 113.712 92.996,114.185 92.405,114.431 92.323 C 114.677 92.241,114.795 91.730,114.694 91.187 C 114.520 90.261,114.506 90.256,114.454 91.100 M275.547 93.039 C 275.965 94.601,278.348 95.552,278.089 94.054 C 277.884 92.866,276.985 92.000,275.958 92.000 C 275.412 92.000,275.327 92.215,275.547 93.039 M279.100 96.056 C 279.375 96.333,279.600 96.884,279.600 97.280 C 279.600 97.720,279.895 98.000,280.357 98.000 C 280.830 98.000,281.207 98.374,281.364 99.000 C 281.502 99.550,281.886 100.000,282.218 100.000 C 282.549 100.000,282.991 100.450,283.200 101.000 C 283.409 101.550,283.826 102.000,284.126 102.000 C 284.426 102.000,284.877 102.450,285.127 103.000 C 285.378 103.550,285.845 104.000,286.164 104.000 C 286.484 104.000,286.854 104.340,286.986 104.756 C 287.223 105.504,289.200 106.208,289.200 105.545 C 289.200 105.355,288.850 105.200,288.423 105.200 C 287.795 105.200,287.622 104.874,287.523 103.500 C 287.413 101.976,287.285 101.787,286.293 101.673 C 285.684 101.603,285.282 101.390,285.400 101.200 C 285.702 100.711,283.993 99.600,282.939 99.600 C 282.327 99.600,282.016 99.323,281.928 98.700 C 281.846 98.122,281.478 97.754,280.900 97.672 C 280.342 97.593,280.000 97.267,280.000 96.815 C 280.000 96.414,279.685 95.966,279.300 95.819 C 278.739 95.605,278.699 95.652,279.100 96.056 M107.200 96.757 C 107.200 97.230,106.826 97.607,106.200 97.764 C 105.570 97.922,105.200 98.298,105.200 98.780 C 105.200 99.268,104.875 99.591,104.300 99.672 C 103.722 99.754,103.354 100.122,103.272 100.700 C 103.190 101.278,102.868 101.600,102.372 101.600 C 101.873 101.600,101.600 101.876,101.600 102.382 C 101.600 103.388,99.793 105.200,98.789 105.200 C 98.305 105.200,97.925 105.561,97.774 106.162 C 97.641 106.691,97.187 107.215,96.766 107.325 C 96.169 107.481,96.000 107.886,96.000 109.163 C 96.000 110.642,95.904 110.800,95.000 110.800 C 94.450 110.800,94.000 110.992,94.000 111.227 C 94.000 111.832,95.669 111.267,96.400 110.415 C 96.730 110.031,97.315 109.606,97.700 109.471 C 98.085 109.336,98.400 108.880,98.400 108.459 C 98.400 108.030,98.751 107.601,99.200 107.484 C 99.679 107.359,100.000 106.938,100.000 106.437 C 100.000 105.876,100.255 105.600,100.773 105.600 C 101.198 105.600,101.660 105.240,101.800 104.800 C 101.940 104.360,102.316 104.000,102.636 104.000 C 102.955 104.000,103.415 103.565,103.657 103.034 C 103.899 102.503,104.436 101.979,104.849 101.871 C 105.262 101.763,105.600 101.384,105.600 101.028 C 105.600 100.672,106.050 100.209,106.600 100.000 C 107.150 99.791,107.600 99.345,107.600 99.010 C 107.600 98.674,107.767 98.400,107.971 98.400 C 108.542 98.400,109.600 97.212,109.600 96.571 C 109.600 96.203,109.173 96.000,108.400 96.000 C 107.490 96.000,107.200 96.183,107.200 96.757 M290.834 109.700 C 290.398 110.855,290.620 111.200,291.800 111.200 C 292.945 111.200,293.340 110.672,292.999 109.596 C 292.655 108.513,291.257 108.580,290.834 109.700 M92.800 113.424 C 92.800 113.798,92.613 113.932,92.332 113.758 C 92.017 113.564,91.948 113.687,92.119 114.134 C 92.303 114.611,92.159 114.800,91.614 114.800 C 91.196 114.800,90.745 115.142,90.613 115.560 C 90.480 115.978,89.967 116.422,89.472 116.546 C 88.044 116.905,88.001 119.165,89.428 118.893 C 90.034 118.777,90.608 118.304,90.820 117.748 C 91.018 117.226,91.443 116.800,91.763 116.800 C 92.084 116.800,92.460 116.440,92.600 116.000 C 92.740 115.560,93.076 115.200,93.347 115.200 C 94.147 115.200,94.722 114.390,94.507 113.566 C 94.268 112.651,92.800 112.529,92.800 113.424 M294.800 113.772 C 294.800 114.413,295.023 114.800,295.392 114.800 C 295.718 114.800,296.098 115.250,296.236 115.800 C 296.413 116.505,296.759 116.800,297.410 116.800 C 297.918 116.800,298.424 117.025,298.535 117.300 C 298.656 117.599,298.750 117.518,298.768 117.100 C 298.790 116.616,298.499 116.400,297.823 116.400 C 296.960 116.400,296.832 116.202,296.723 114.700 C 296.575 112.648,294.800 111.792,294.800 113.772 M298.542 118.700 C 298.231 119.888,298.380 120.190,299.408 120.465 C 300.592 120.782,300.931 118.689,299.767 118.243 C 298.846 117.889,298.744 117.927,298.542 118.700 M86.880 120.480 C 86.616 120.744,86.400 121.624,86.400 122.436 C 86.400 123.595,86.250 123.899,85.700 123.856 C 85.139 123.811,84.976 124.177,84.878 125.700 L 84.756 127.600 83.242 127.600 C 81.842 127.600,81.693 127.713,81.264 129.100 C 80.126 132.784,81.850 134.561,85.703 133.674 C 91.644 132.306,103.929 132.177,111.200 133.407 C 113.070 133.723,116.197 134.162,118.149 134.383 C 120.101 134.603,121.936 134.981,122.226 135.221 C 122.516 135.462,124.048 135.839,125.631 136.058 C 127.214 136.277,129.156 136.804,129.948 137.228 C 130.740 137.653,131.706 138.000,132.094 138.000 C 132.482 138.000,133.155 138.355,133.590 138.790 C 134.024 139.224,134.879 139.700,135.490 139.848 C 136.100 139.996,137.230 140.431,138.000 140.814 C 140.574 142.097,143.790 143.515,144.800 143.814 C 145.350 143.977,146.229 144.445,146.754 144.855 C 147.279 145.265,147.871 145.600,148.071 145.600 C 148.271 145.600,149.440 146.365,150.669 147.300 C 151.898 148.235,153.188 149.180,153.535 149.400 C 153.882 149.620,154.412 150.025,154.712 150.300 C 155.012 150.575,155.400 150.800,155.574 150.800 C 155.890 150.800,158.084 152.424,160.040 154.105 C 160.613 154.597,161.592 155.360,162.216 155.800 C 162.840 156.240,163.812 157.124,164.375 157.764 C 164.939 158.404,167.020 160.577,169.000 162.594 C 172.660 166.321,175.108 169.291,177.330 172.703 C 178.010 173.746,179.294 175.537,180.183 176.683 C 182.371 179.500,183.548 181.439,183.852 182.726 C 183.991 183.317,184.514 184.610,185.013 185.600 C 186.431 188.414,187.483 190.900,187.758 192.088 C 187.896 192.687,188.367 193.368,188.805 193.603 C 189.242 193.837,189.600 194.389,189.600 194.830 C 189.600 195.271,189.935 196.300,190.345 197.116 C 190.755 197.932,191.210 199.537,191.356 200.682 C 191.503 201.827,191.974 203.537,192.403 204.482 C 192.831 205.427,193.189 207.010,193.198 208.000 C 193.207 208.990,193.603 211.420,194.078 213.400 C 194.936 216.977,194.943 217.337,195.084 268.900 C 195.174 301.989,195.366 320.800,195.613 320.800 C 196.859 320.800,195.916 214.662,194.641 211.522 C 194.346 210.795,193.983 208.961,193.836 207.448 C 193.688 205.934,193.291 204.044,192.953 203.248 C 192.615 202.451,192.171 200.775,191.965 199.523 C 191.607 197.349,189.973 193.478,189.216 193.010 C 189.019 192.888,188.643 192.116,188.379 191.294 C 187.946 189.946,186.927 187.543,185.372 184.200 C 185.065 183.540,184.534 182.370,184.192 181.600 C 183.092 179.126,182.238 177.761,180.500 175.703 C 179.565 174.595,178.800 173.567,178.800 173.418 C 178.800 173.093,177.235 170.938,175.010 168.200 C 174.117 167.100,173.119 165.672,172.793 165.027 C 172.467 164.381,171.210 163.081,170.000 162.136 C 168.790 161.192,167.260 159.764,166.600 158.962 C 164.846 156.833,162.302 154.438,161.520 154.182 C 161.147 154.059,160.272 153.428,159.577 152.779 C 158.044 151.346,154.978 149.248,153.720 148.770 C 153.214 148.577,152.800 148.251,152.800 148.044 C 152.800 147.525,149.027 144.800,148.308 144.800 C 147.987 144.800,147.398 144.440,147.000 144.000 C 146.602 143.560,145.971 143.200,145.598 143.200 C 145.224 143.200,144.073 142.750,143.038 142.200 C 142.004 141.650,140.921 141.200,140.633 141.200 C 140.344 141.200,139.669 140.855,139.133 140.433 C 138.596 140.011,137.469 139.537,136.629 139.379 C 135.788 139.221,134.812 138.756,134.461 138.346 C 134.110 137.936,133.630 137.600,133.396 137.600 C 133.161 137.600,132.298 137.258,131.478 136.840 C 130.659 136.422,128.837 135.880,127.430 135.635 C 126.023 135.389,124.270 134.941,123.536 134.639 C 122.801 134.336,121.030 133.965,119.600 133.815 C 118.170 133.665,115.830 133.241,114.400 132.874 C 111.785 132.202,92.090 131.876,85.800 132.400 L 83.400 132.600 83.502 130.800 C 83.574 129.529,83.838 128.839,84.402 128.451 C 84.841 128.149,85.200 127.676,85.200 127.400 C 85.200 127.124,85.595 126.635,86.078 126.314 C 86.686 125.911,86.963 125.312,86.978 124.373 C 86.995 123.340,87.191 122.980,87.800 122.869 C 89.003 122.649,89.329 122.167,89.043 121.029 C 88.766 119.926,87.704 119.656,86.880 120.480 M301.910 124.558 C 301.713 125.591,302.206 126.400,303.033 126.400 C 303.294 126.400,303.601 126.760,303.716 127.200 C 303.994 128.263,306.095 128.358,305.918 127.300 C 305.756 126.336,305.099 125.664,304.532 125.882 C 304.252 125.989,304.006 125.601,303.930 124.931 C 303.753 123.386,302.189 123.097,301.910 124.558 M305.884 131.450 C 305.291 132.042,305.639 133.134,306.627 133.781 C 307.352 134.256,307.634 134.770,307.585 135.527 C 307.465 137.378,307.573 137.600,308.600 137.600 C 309.911 137.600,310.104 135.257,308.821 134.921 C 308.235 134.768,308.012 134.307,307.921 133.059 C 307.803 131.442,306.735 130.598,305.884 131.450 M311.200 142.800 C 311.200 144.672,311.265 144.800,312.211 144.800 C 313.202 144.800,313.219 144.852,313.111 147.468 C 313.002 150.078,313.024 150.143,314.100 150.434 C 315.193 150.729,315.200 150.718,315.200 148.728 C 315.200 147.062,315.066 146.690,314.400 146.516 C 313.755 146.347,313.600 145.970,313.600 144.572 C 313.600 142.398,312.895 140.800,311.936 140.800 C 311.320 140.800,311.200 141.125,311.200 142.800 M315.222 152.574 C 314.308 153.674,314.861 155.784,316.100 155.927 C 317.088 156.040,317.200 155.929,317.200 154.827 C 317.200 154.152,317.037 153.600,316.837 153.600 C 316.638 153.600,316.569 153.240,316.684 152.800 C 316.933 151.847,315.951 151.695,315.222 152.574 M316.765 160.930 C 316.236 162.896,316.625 163.746,318.138 163.926 C 319.118 164.043,319.183 163.956,319.042 162.726 C 318.958 161.997,318.869 161.016,318.845 160.547 C 318.755 158.827,317.257 159.104,316.765 160.930 M318.800 169.753 C 318.800 170.453,319.067 170.758,319.800 170.898 C 320.884 171.105,321.030 170.777,320.386 169.574 C 319.800 168.479,318.800 168.592,318.800 169.753 M325.661 170.740 C 325.762 171.511,325.529 171.640,324.925 171.149 C 324.335 170.669,324.283 170.687,324.509 171.290 C 324.720 171.854,324.567 171.957,323.674 171.853 C 323.073 171.783,322.225 171.865,321.791 172.035 C 321.355 172.205,323.475 172.356,326.514 172.372 C 331.908 172.399,332.019 172.383,331.600 171.600 C 331.365 171.160,330.953 170.778,330.686 170.751 C 328.550 170.534,325.633 170.528,325.661 170.740 M344.075 175.300 C 344.213 176.735,346.259 177.332,347.947 176.428 C 349.745 175.466,348.147 174.017,345.275 174.005 C 344.019 174.000,343.956 174.069,344.075 175.300 M351.465 176.295 C 351.119 176.855,352.191 178.608,352.823 178.516 C 355.628 178.107,356.089 177.824,355.332 176.983 C 354.575 176.143,351.858 175.659,351.465 176.295 M357.440 178.668 C 357.822 180.265,357.903 180.350,358.812 180.113 C 359.487 179.936,359.633 178.732,359.050 178.150 C 358.248 177.348,357.204 177.684,357.440 178.668 M360.800 180.551 C 360.800 181.773,361.601 182.429,362.732 182.134 C 363.424 181.953,363.563 181.711,363.357 181.050 C 362.833 179.368,360.800 178.971,360.800 180.551 M366.800 184.237 C 366.800 184.951,367.059 185.343,367.631 185.492 C 368.088 185.612,368.615 186.112,368.802 186.605 C 369.066 187.299,369.373 187.456,370.171 187.303 C 371.636 187.023,371.515 185.788,369.970 185.249 C 369.146 184.962,368.837 184.652,369.034 184.310 C 369.196 184.030,369.188 183.926,369.017 184.081 C 368.845 184.235,368.443 184.100,368.124 183.781 C 367.259 182.916,366.800 183.074,366.800 184.237 M372.800 188.153 C 372.800 189.054,374.027 189.839,374.577 189.290 C 375.270 188.596,374.751 187.200,373.800 187.200 C 373.013 187.200,372.800 187.403,372.800 188.153 M375.200 190.024 C 374.687 190.376,374.730 190.527,375.500 191.066 C 375.995 191.414,376.400 191.939,376.400 192.235 C 376.400 192.530,376.760 192.965,377.200 193.200 C 377.640 193.435,378.000 193.896,378.000 194.224 C 378.000 194.552,378.450 194.991,379.000 195.200 C 379.550 195.409,380.000 195.855,380.000 196.190 C 380.000 196.526,380.331 196.800,380.736 196.800 C 381.140 196.800,381.677 197.250,381.927 197.800 C 382.604 199.286,384.000 199.151,384.000 197.600 C 384.000 196.681,383.819 196.400,383.228 196.400 C 382.732 196.400,382.410 196.078,382.328 195.500 C 382.236 194.856,381.888 194.564,381.100 194.473 C 380.475 194.402,380.000 194.101,380.000 193.778 C 380.000 193.424,379.396 193.113,378.400 192.954 C 377.220 192.765,376.800 192.508,376.800 191.977 C 376.800 191.581,376.539 190.996,376.219 190.676 C 375.900 190.357,375.750 189.984,375.886 189.848 C 376.270 189.463,375.866 189.567,375.200 190.024 M383.843 200.633 C 383.387 201.821,383.600 202.385,384.600 202.636 C 385.150 202.774,385.600 203.125,385.600 203.416 C 385.600 203.708,385.951 204.057,386.380 204.194 C 386.808 204.330,387.270 204.792,387.406 205.220 C 387.543 205.649,387.916 206.000,388.237 206.000 C 388.557 206.000,388.982 206.426,389.180 206.948 C 389.607 208.070,391.660 208.699,391.449 207.642 C 391.185 206.327,390.718 205.656,390.203 205.854 C 389.902 205.970,389.558 205.699,389.409 205.229 C 389.264 204.773,388.903 204.400,388.605 204.400 C 388.307 204.400,387.945 203.860,387.800 203.200 C 387.619 202.375,387.297 202.000,386.768 202.000 C 386.215 202.000,386.000 201.720,386.000 201.000 C 386.000 199.832,384.264 199.536,383.843 200.633 M391.246 211.657 C 391.205 213.328,391.301 213.539,392.216 213.768 C 393.131 213.998,393.206 214.161,392.971 215.416 C 392.677 216.982,393.259 218.000,394.449 218.000 C 395.548 218.000,395.527 215.379,394.425 215.091 C 393.836 214.937,393.620 214.471,393.525 213.144 C 393.422 211.702,393.249 211.378,392.525 211.275 C 392.043 211.207,391.569 210.847,391.471 210.475 C 391.373 210.104,391.272 210.635,391.246 211.657 M394.871 221.471 C 394.974 222.374,395.226 222.626,396.129 222.729 C 397.157 222.847,397.247 222.757,397.129 221.729 C 397.026 220.826,396.774 220.574,395.871 220.471 C 394.843 220.353,394.753 220.443,394.871 221.471 M398.551 232.500 C 398.179 235.339,398.273 236.765,398.879 237.495 C 399.772 238.571,400.000 237.858,400.000 234.000 C 400.000 229.148,399.111 228.227,398.551 232.500 M26.077 289.630 C 26.156 289.867,26.391 290.060,26.600 290.060 C 26.809 290.060,27.044 289.867,27.123 289.630 C 27.202 289.394,26.967 289.200,26.600 289.200 C 26.233 289.200,25.998 289.394,26.077 289.630 " stroke="none" fill="#1ea0c4" fill-rule="evenodd"></path></g></svg>