<svg width="1024" height="1024" viewBox="0 0 1024 1024" xmlns="http://www.w3.org/2000/svg" preserveAspectRatio="xMidYMid">
<g transform="matrix(1 0 0 1.333333 0 0)">
	<g transform="matrix(11.63636 0 0 11.63636 -605.0909 -488.7273)">
	</g>
    <path transform="matrix(11.63636 0 0 11.63636 -605.0909 -488.7273)"  d="M58 108L72 108L72 74L52 59L52 102C 52 105.32 54.69 108 58 108" stroke="none" fill="#4285F4" fill-rule="nonzero" />
	<g transform="matrix(11.63636 0 0 11.63636 -605.0909 -488.7273)">
	</g>
    <path transform="matrix(11.63636 0 0 11.63636 -605.0909 -488.7273)"  d="M120 108L134 108C 137.32 108 140 105.31 140 102L140 102L140 59L120 74" stroke="none" fill="#34A853" fill-rule="nonzero" />
	<g transform="matrix(11.63636 0 0 11.63636 -605.0909 -488.7273)">
	</g>
    <path transform="matrix(11.63636 0 0 11.63636 -605.0909 -488.7273)"  d="M120 48L120 74L140 59L140 51C 140 43.58 131.53 39.35 125.6 43.8" stroke="none" fill="#FBBC04" fill-rule="nonzero" />
	<g transform="matrix(11.63636 0 0 11.63636 -605.0909 -488.7273)">
	</g>
    <path transform="matrix(11.63636 0 0 11.63636 -605.0909 -488.7273)"  d="M72 74L72 48L96 66L120 48L120 74L96 92" stroke="none" fill="#EA4335" fill-rule="nonzero" />
	<g transform="matrix(11.63636 0 0 11.63636 -605.0909 -488.7273)">
	</g>
    <path transform="matrix(11.63636 0 0 11.63636 -605.0909 -488.7273)"  d="M52 51L52 59L72 74L72 48L66.4 43.8C 60.46 39.35 52 43.58 52 51" stroke="none" fill="#C5221F" fill-rule="nonzero" />
</g>
</svg>