<svg height="1277" width="1277" xmlns="http://www.w3.org/2000/svg"><path d="m1131.648001 1114.00803h.283" fill="none"/><path d="m1131.931001 1114.00803h-.283" fill="none"/><path d="m1172.353 190.000025c57.543 0 104.627 47.083 104.627 104.626v30.331l-145.36 103.833-494.873 340.894-494.873-344.352v654.067 34.609h-37.247c-57.543 0-104.627-47.082-104.627-104.625v-714.728c0-57.544 47.084-104.627 104.627-104.627l532.12 394.525 535.577-394.525.029-.028z" fill="#e75a4d"/><path d="m104.62704468 190 532.12008667 394.52496338 535.60589599-394.52496338z" fill="none"/><path d="m141.87399292 425.33209229v688.67596435h989.77407837v-685.21807861l-494.90093994 340.894104z" fill="#e7e4d7"/><path d="m141.87399292 1114.00805664 494.87313843-344.32397461-2.23999024-1.5859375-492.63314819 338.34179688z" fill="#b8b7ae"/><path d="m1131.64807129 428.78997803.28295898 685.21807861-495.18389892-344.32397461z" fill="#b7b6ad"/><path d="m1276.98 324.957025.17 684.51c-2.494 76.082-35.461 103.238-145.219 104.514l-.283-685.219 145.36-103.833z" fill="#b2392f"/><g fill="none"><path d="m104.62704468 190 532.12008667 394.52496338 535.60589599-394.52496338z"/><path d="m104.62704468 190 532.12008667 394.52496338 535.60589599-394.52496338z"/><path d="m104.62704468 190 532.12008667 394.52496338 535.60589599-394.52496338z"/><path d="m104.62704468 190 532.12008667 394.52496338 535.60589599-394.52496338z"/><path d="m104.62704468 190 532.12008667 394.52496338 535.60589599-394.52496338z"/><path d="m104.62704468 190 532.12008667 394.52496338 535.60589599-394.52496338z"/><path d="m104.62704468 190 532.12008667 394.52496338 535.60589599-394.52496338z"/></g><path d="m104.62704468 190 532.12008667 394.52496338 535.60589599-394.52496338z" fill="#f7f5ed"/></svg>