<svg viewBox="0 0 1700.8 1700.8" xmlns="http://www.w3.org/2000/svg"><path d="m942.3 636-16.2 88.3c-9 46.8-50.5 104.5-95.5 106.3-32.4 0-50.5-25.2-50.5-59.5 0-75.7 54-140.5 122.5-140.5 18.1 0 32.5 3.6 39.7 5.4z" fill="#fff"/><path d="M1439.6 533.3v234.2l-582.9 494.7L562.1 1018 263 767.5v-481h1176.6v187.4zM981.9 872c73.9 0 138.7-68.5 138.7-185.6 0-129.7-90.1-225.2-225.2-225.2-171.2 0-282.9 136.9-282.9 297.3 0 149.5 108.1 243.2 236 243.2 52.3 0 95.5-7.2 138.7-30.6l-12.6-34.2c-32.4 18-72.1 27-117.1 27-115.3 0-200-79.3-200-209 0-156.7 106.3-257.6 232.4-257.6 118.9 0 187.4 79.3 187.4 192.8 0 90.1-45 142.3-84.7 142.3-25.2 0-34.2-27-25.2-84.7l27-140.5c-19.8-9-48.6-16.2-82.9-16.2-108.1 0-183.8 86.5-183.8 183.8 0 61.3 39.6 97.3 84.7 97.3 46.8 0 82.9-21.6 109.9-68.5h1.8c-1.6 46.8 27.2 68.4 57.8 68.4z" fill="#fff"/><path d="M1661.2 623.4v989.1H39.6V623.4l173-113.5v-272H627L855.8 88.3 1081 237.8h407.2v270.3zm-48.7 940.5V688.2l-754.9 639.6v-1.8l-325.2-269.5-.9-.7L88.3 688.2v875.6h1524.2zm-124.3-834.2 108.1-91.9-108.1-72.1v1.8zm-48.6 37.8v-481H263v481.1L562.1 1018l293.7 245h1.8l-.9-.8zM717.1 237.8h275.7l-136.9-90.1zM212.6 727.9V567.5l-108.1 70.3z" fill="#010101"/><path d="M1612.5 688.2v875.7H88.3V688.2l443.2 369.4 326.1 270.2z" fill="#0475b3"/><path d="m1596.3 637.8-108.1 91.9V567.5z" fill="#0475b3"/><path d="M1120.7 686.4c0 117.1-64.9 185.6-138.7 185.6-30.6 0-59.5-21.6-57.7-68.5h-1.8c-27 46.8-63.1 68.5-109.9 68.5-45 0-84.7-36-84.7-97.3 0-97.3 75.7-183.8 183.8-183.8 34.2 0 63.1 7.2 82.9 16.2l-27 140.5c-9 57.6 0 84.7 25.2 84.7 39.6 0 84.7-52.3 84.7-142.3 0-113.5-68.5-192.8-187.4-192.8-126.1 0-232.4 100.9-232.4 257.6 0 129.7 84.7 209 200 209 45 0 84.7-9 117.1-27l12.6 34.2c-43.2 23.4-86.5 30.6-138.7 30.6-127.9 0-236-93.7-236-243.2 0-160.4 111.7-297.3 282.9-297.3 135 .1 225.1 95.6 225.1 225.3zm-194.6 37.9 16.2-88.3c-7.2-1.8-21.6-5.4-39.6-5.4-68.5 0-122.5 64.9-122.5 140.5 0 34.2 18 59.5 50.5 59.5 44.9-1.8 86.4-59.5 95.4-106.3z" fill="#010101"/><path d="M992.7 237.8H717.1l138.7-90.1z" fill="#0475b3"/><g fill="#010101"><path d="M857.6 1326.1v1.7l-325.2-271.3zM857.6 1263h-1.8l.9-.8z"/><path d="m856.7 1262.2-.9.8-293.7-245z"/></g><g fill="#0475b3"><path d="m532.4 1056.5 325.2 271.3-326.1-270.2L88.3 688.2l443.2 367.6zM212.6 567.5v160.4l-108.1-90.1z"/></g></svg>