<svg id="svg" version="1.1" width="500" height="500" xmlns="http://www.w3.org/2000/svg" xmlns:xlink="http://www.w3.org/1999/xlink" style="display: block;"><g id="svgg"><path id="path0" d="M0.000 200.000 L 0.000 400.000 200.000 400.000 L 400.000 400.000 400.000 200.000 L 400.000 0.000 200.000 0.000 L 0.000 0.000 0.000 200.000 M298.000 5.466 C 331.685 8.001,347.784 11.798,364.965 21.261 C 383.147 31.276,393.889 57.326,397.212 99.463 C 398.944 121.418,398.944 281.782,397.212 303.737 C 392.915 358.223,377.654 382.909,343.200 391.103 C 341.220 391.574,337.180 392.536,334.223 393.241 C 327.291 394.893,327.553 395.197,326.443 384.213 C 321.936 339.613,303.810 307.088,266.807 277.202 C 262.843 274.000,258.648 270.530,257.483 269.491 C 254.380 266.719,247.723 257.613,246.444 254.390 C 244.205 248.751,243.301 248.417,240.568 252.223 C 239.235 254.080,237.902 255.780,237.606 256.000 C 235.105 257.861,210.730 293.110,202.907 306.181 C 195.838 317.991,187.377 334.715,182.332 346.847 C 180.879 350.341,179.310 353.938,178.845 354.841 C 178.380 355.743,176.020 362.484,173.600 369.821 C 168.333 385.790,168.402 385.755,161.806 375.800 C 149.871 357.784,123.784 329.667,103.400 312.850 C 93.002 304.270,93.429 305.266,97.814 299.831 C 103.631 292.623,106.921 287.804,109.713 282.400 C 111.382 279.170,112.903 277.200,113.727 277.200 C 114.847 277.200,126.191 285.621,134.146 292.359 C 137.067 294.833,152.379 306.965,156.111 309.763 C 159.730 312.476,160.124 312.191,165.180 303.200 C 176.393 283.256,196.169 253.335,209.748 235.764 C 251.078 182.286,282.332 162.780,313.200 171.196 C 324.177 174.190,324.000 174.191,324.000 171.143 C 324.000 161.607,315.908 147.570,306.582 140.930 C 304.455 139.415,304.045 138.534,303.636 134.585 C 302.375 122.428,300.742 114.413,298.464 109.200 C 298.080 108.320,296.967 105.620,295.991 103.200 C 264.142 24.203,146.281 28.451,118.403 109.600 C 117.421 112.460,116.153 115.880,115.586 117.200 C 115.019 118.520,113.588 122.300,112.406 125.600 C 111.224 128.900,109.414 133.760,108.385 136.400 C 107.356 139.040,105.554 143.900,104.380 147.200 C 103.206 150.500,101.794 154.280,101.243 155.600 C 100.691 156.920,99.856 159.080,99.387 160.400 C 95.671 170.854,94.108 175.129,93.243 177.200 C 92.691 178.520,91.857 180.680,91.390 182.000 C 90.284 185.124,84.285 201.553,82.189 207.200 C 81.291 209.620,79.760 213.400,78.788 215.600 C 77.816 217.800,76.742 220.500,76.401 221.600 C 74.091 229.055,58.448 256.226,49.687 268.000 C 34.249 288.746,8.514 314.457,5.851 311.794 C 1.901 307.844,1.068 123.522,4.861 92.800 C 13.144 25.706,31.719 9.749,106.400 5.573 C 114.100 5.142,121.300 4.655,122.400 4.489 C 126.758 3.835,288.266 4.733,298.000 5.466 M230.900 92.633 C 231.725 93.057,233.734 93.975,235.365 94.673 C 247.900 100.034,259.128 126.258,252.341 134.324 C 246.032 141.822,237.864 138.494,234.759 127.160 C 230.270 110.776,222.865 107.269,209.464 115.181 C 198.656 121.561,189.600 118.736,189.600 108.984 C 189.600 99.064,220.002 87.027,230.900 92.633 " stroke="none" fill="#ffffff" fill-rule="evenodd"></path><path id="path1" d="M122.800 6.469 C 95.542 7.152,73.667 9.734,56.800 14.258 C 33.666 20.463,17.504 37.736,11.755 62.400 C 6.601 84.510,6.169 89.174,4.797 137.600 C 3.671 177.363,4.232 276.480,5.699 296.969 L 6.657 310.339 8.974 308.970 C 10.248 308.217,15.865 303.101,21.456 297.601 C 45.543 273.905,62.478 249.115,76.381 217.200 C 79.111 210.935,79.880 208.968,80.761 206.000 C 81.710 202.805,82.427 200.928,84.430 196.400 C 85.014 195.080,86.432 191.120,87.582 187.600 C 88.731 184.080,90.008 180.480,90.419 179.600 C 91.409 177.482,92.488 174.650,95.602 166.000 C 102.194 147.684,104.815 140.599,105.885 138.197 C 106.521 136.769,108.018 132.720,109.212 129.200 C 110.406 125.680,111.918 121.540,112.573 120.000 C 114.783 114.801,115.082 114.011,116.784 108.877 C 121.911 93.415,133.916 76.261,146.800 65.989 C 149.000 64.235,150.980 62.585,151.200 62.321 C 152.218 61.103,162.573 55.041,166.842 53.164 C 169.459 52.014,172.320 50.754,173.200 50.364 C 189.749 43.035,218.944 42.088,237.733 48.271 C 256.195 54.347,271.891 64.891,283.144 78.778 C 295.674 94.240,302.932 111.185,304.819 129.383 C 305.695 137.832,305.751 137.977,309.165 140.779 C 317.448 147.575,323.242 156.964,325.302 166.925 C 327.166 175.940,326.100 177.112,318.453 174.449 C 282.296 161.860,247.186 185.312,198.057 254.868 C 186.392 271.382,164.277 306.729,162.185 312.200 C 160.966 315.391,157.885 313.503,136.401 296.397 C 113.899 278.482,113.265 278.075,112.343 280.979 C 111.507 283.614,103.443 295.874,99.890 299.913 C 96.131 304.186,96.079 304.980,99.400 307.332 C 118.440 320.816,147.950 352.512,166.146 379.022 C 167.599 381.139,168.386 379.771,172.024 368.800 C 173.848 363.300,175.885 357.540,176.552 356.000 C 177.218 354.460,178.077 352.480,178.460 351.600 C 178.843 350.720,179.848 348.200,180.693 346.000 C 182.141 342.233,186.028 333.993,189.749 326.800 C 190.660 325.040,192.504 321.440,193.848 318.800 C 195.192 316.160,196.895 313.100,197.633 312.000 C 198.370 310.900,200.153 307.840,201.595 305.200 C 206.383 296.435,225.917 267.675,232.446 259.779 C 233.092 258.997,234.613 256.988,235.825 255.314 C 242.798 245.688,244.402 245.133,247.126 251.400 C 248.130 253.710,250.775 258.120,253.003 261.200 C 256.974 266.688,259.917 269.484,272.000 279.250 C 284.595 289.430,296.306 302.754,307.464 319.600 C 318.614 336.434,327.969 366.397,328.012 385.415 C 328.030 393.074,327.944 393.021,336.818 390.851 C 371.353 382.407,384.017 368.520,392.314 330.000 C 399.545 296.430,399.545 106.770,392.314 73.200 C 385.467 41.410,375.502 26.937,354.187 17.825 C 343.358 13.196,335.344 11.436,310.800 8.298 C 292.616 5.974,184.516 4.922,122.800 6.469 M214.000 93.798 C 197.653 99.435,191.992 103.485,192.012 109.529 C 192.027 113.890,192.403 114.568,195.760 116.288 C 199.393 118.150,199.873 118.049,208.557 113.600 C 224.563 105.400,232.649 109.237,236.380 126.800 C 239.085 139.535,253.865 139.210,252.531 126.445 C 250.154 103.707,231.384 87.803,214.000 93.798 " stroke="none" fill="#1a83e4" fill-rule="evenodd"></path><path id="path2" d="M122.400 4.489 C 121.300 4.655,114.100 5.142,106.400 5.573 C 31.719 9.749,13.144 25.706,4.861 92.800 C 1.068 123.522,1.901 307.844,5.851 311.794 C 8.514 314.457,34.249 288.746,49.687 268.000 C 58.448 256.226,74.091 229.055,76.401 221.600 C 76.742 220.500,77.816 217.800,78.788 215.600 C 79.760 213.400,81.291 209.620,82.189 207.200 C 84.285 201.553,90.284 185.124,91.390 182.000 C 91.857 180.680,92.691 178.520,93.243 177.200 C 94.108 175.129,95.671 170.854,99.387 160.400 C 99.856 159.080,100.691 156.920,101.243 155.600 C 101.794 154.280,103.206 150.500,104.380 147.200 C 105.554 143.900,107.356 139.040,108.385 136.400 C 109.414 133.760,111.224 128.900,112.406 125.600 C 113.588 122.300,115.019 118.520,115.586 117.200 C 116.153 115.880,117.421 112.460,118.403 109.600 C 146.281 28.451,264.142 24.203,295.991 103.200 C 296.967 105.620,298.080 108.320,298.464 109.200 C 300.742 114.413,302.375 122.428,303.636 134.585 C 304.045 138.534,304.455 139.415,306.582 140.930 C 315.908 147.570,324.000 161.607,324.000 171.143 C 324.000 174.191,324.177 174.190,313.200 171.196 C 282.332 162.780,251.078 182.286,209.748 235.764 C 196.169 253.335,176.393 283.256,165.180 303.200 C 160.124 312.191,159.730 312.476,156.111 309.763 C 152.379 306.965,137.067 294.833,134.146 292.359 C 126.191 285.621,114.847 277.200,113.727 277.200 C 112.903 277.200,111.382 279.170,109.713 282.400 C 106.921 287.804,103.631 292.623,97.814 299.831 C 93.429 305.266,93.002 304.270,103.400 312.850 C 123.784 329.667,149.871 357.784,161.806 375.800 C 168.402 385.755,168.333 385.790,173.600 369.821 C 176.020 362.484,178.380 355.743,178.845 354.841 C 179.310 353.938,180.879 350.341,182.332 346.847 C 187.377 334.715,195.838 317.991,202.907 306.181 C 210.730 293.110,235.105 257.861,237.606 256.000 C 237.902 255.780,239.235 254.080,240.568 252.223 C 243.301 248.417,244.205 248.751,246.444 254.390 C 247.723 257.613,254.380 266.719,257.483 269.491 C 258.648 270.530,262.843 274.000,266.807 277.202 C 303.810 307.088,321.936 339.613,326.443 384.213 C 327.553 395.197,327.291 394.893,334.223 393.241 C 337.180 392.536,341.220 391.574,343.200 391.103 C 377.654 382.909,392.915 358.223,397.212 303.737 C 398.944 281.782,398.944 121.418,397.212 99.463 C 393.889 57.326,383.147 31.276,364.965 21.261 C 347.784 11.798,331.685 8.001,298.000 5.466 C 288.266 4.733,126.758 3.835,122.400 4.489 M276.000 6.414 C 298.648 7.005,309.231 7.836,325.600 10.312 C 367.546 16.656,383.342 31.546,392.314 73.200 C 399.545 106.770,399.545 296.430,392.314 330.000 C 384.017 368.520,371.353 382.407,336.818 390.851 C 327.944 393.021,328.030 393.074,328.012 385.415 C 327.978 370.260,322.544 349.276,314.180 332.000 C 305.031 313.103,288.855 292.873,272.000 279.250 C 259.917 269.484,256.974 266.688,253.003 261.200 C 250.775 258.120,248.130 253.710,247.126 251.400 C 244.402 245.133,242.798 245.688,235.825 255.314 C 234.613 256.988,233.092 258.997,232.446 259.779 C 225.917 267.675,206.383 296.435,201.595 305.200 C 200.153 307.840,198.370 310.900,197.633 312.000 C 196.895 313.100,195.192 316.160,193.848 318.800 C 192.504 321.440,190.660 325.040,189.749 326.800 C 186.028 333.993,182.141 342.233,180.693 346.000 C 179.848 348.200,178.843 350.720,178.460 351.600 C 178.077 352.480,177.218 354.460,176.552 356.000 C 175.885 357.540,173.848 363.300,172.024 368.800 C 168.386 379.771,167.599 381.139,166.146 379.022 C 147.950 352.512,118.440 320.816,99.400 307.332 C 96.079 304.980,96.131 304.186,99.890 299.913 C 103.443 295.874,111.507 283.614,112.343 280.979 C 113.265 278.075,113.899 278.482,136.401 296.397 C 157.885 313.503,160.966 315.391,162.185 312.200 C 164.277 306.729,186.392 271.382,198.057 254.868 C 247.186 185.312,282.296 161.860,318.453 174.449 C 326.100 177.112,327.166 175.940,325.302 166.925 C 323.242 156.964,317.448 147.575,309.165 140.779 C 305.751 137.977,305.695 137.832,304.819 129.383 C 300.954 92.111,274.779 60.463,237.733 48.271 C 218.944 42.088,189.749 43.035,173.200 50.364 C 172.320 50.754,169.459 52.014,166.842 53.164 C 162.573 55.041,152.218 61.103,151.200 62.321 C 150.980 62.585,149.000 64.235,146.800 65.989 C 133.916 76.261,121.911 93.415,116.784 108.877 C 115.082 114.011,114.783 114.801,112.573 120.000 C 111.918 121.540,110.406 125.680,109.212 129.200 C 108.018 132.720,106.521 136.769,105.885 138.197 C 104.815 140.599,102.194 147.684,95.602 166.000 C 92.488 174.650,91.409 177.482,90.419 179.600 C 90.008 180.480,88.731 184.080,87.582 187.600 C 86.432 191.120,85.014 195.080,84.430 196.400 C 82.427 200.928,81.710 202.805,80.761 206.000 C 80.239 207.760,79.275 210.460,78.619 212.000 C 63.282 248.024,46.875 272.594,21.456 297.601 C 15.865 303.101,10.248 308.217,8.974 308.970 L 6.657 310.339 5.699 296.969 C 2.676 254.760,4.207 102.597,7.866 81.600 C 13.592 48.739,19.975 35.641,35.813 24.247 C 47.565 15.793,60.060 12.189,91.200 8.269 C 109.192 6.004,218.303 4.909,276.000 6.414 M216.000 91.711 C 203.051 94.256,189.600 103.057,189.600 108.984 C 189.600 118.736,198.656 121.561,209.464 115.181 C 222.865 107.269,230.270 110.776,234.759 127.160 C 237.864 138.494,246.032 141.822,252.341 134.324 C 259.128 126.258,247.900 100.034,235.365 94.673 C 233.734 93.975,231.725 93.057,230.900 92.633 C 229.187 91.752,218.999 91.121,216.000 91.711 M230.197 94.326 C 242.645 98.876,250.888 110.730,252.531 126.445 C 253.865 139.210,239.085 139.535,236.380 126.800 C 232.649 109.237,224.563 105.400,208.557 113.600 C 199.873 118.049,199.393 118.150,195.760 116.288 C 192.403 114.568,192.027 113.890,192.012 109.529 C 191.992 103.485,197.653 99.435,214.000 93.798 C 218.008 92.416,225.653 92.665,230.197 94.326 " stroke="none" fill="#7ab6ef" fill-rule="evenodd"></path></g></svg>