<svg height="512pt" viewBox="0 0 512 511" width="512pt" xmlns="http://www.w3.org/2000/svg"><path d="M51.5 2.5C28.2 7.5 7.9 27.8 3.1 50.8c-.7 3.5-1.1 21-1.1 50.5l.1 45.2 38 22c57.8 33.4 52.3 30.6 59.9 30.2l6.5-.3L196 147c104.8-60.2 93.5-55.6 110.5-45.7 12.2 7 14.9 9.8 14.1 14.1-.4 1.7-1.2 3.6-1.9 4.3-1.3 1.4-195.9 113.3-207.7 119.6-6.9 3.6-8 3.9-13.3 3.4-6-.5-9.5-2.4-76.7-41.4L1.5 189.9l-.3 20.8c-.1 11.3.1 21 .5 21.4.5.4 20.8 12.4 45.3 26.6l44.5 25.8h15l87-49.9c47.9-27.5 89-50.8 91.4-51.9 2.9-1.3 5.5-1.7 7.8-1.4 3.7.6 22.6 10.7 25.8 13.8 2.5 2.5 2.5 8.3 0 10.8-2.3 2.1-206.9 119.5-212 121.7-4.7 1.9-11.2 1.7-16-.5-3.2-1.5-41.9-23.6-82-46.9l-7-4.1-.3 20.6c-.2 15.8.1 21 1 21.8.7.7 21.1 12.6 45.3 26.6l44 25.4h15l87-49.9c47.9-27.5 89-50.8 91.4-51.9 2.8-1.2 5.6-1.7 7.7-1.4 4.2.7 25.2 12.4 26.4 14.8 1.6 2.9 1.2 8.4-.7 10.1-2.5 2.1-207.4 119.5-211.7 121.3-5.5 2.3-11.9 1.9-17.9-1.1-5-2.5-80.7-46.1-85.5-49.2l-2.3-1.5.3 48.4c.4 43.4.6 49 2.2 53.9 4.3 13 11.5 23.9 21.3 32.1 6.3 5.3 19.1 11.4 27.3 13.1 5.3 1 44.6 1.3 205.5 1.3h199l8-2.3c22.7-6.6 39.7-24.2 45-46.7 1.3-5.1 1.5-36.5 1.5-205.6 0-195.4 0-199.7-2-207.3-5.9-23.1-24.7-41.4-47.5-46.1-9.9-2.1-400.6-2.1-410 0z" fill="#db4c3f"/></svg>