<svg xmlns="http://www.w3.org/2000/svg" xmlns:xlink="http://www.w3.org/1999/xlink" width="1024" height="1024" viewBox="0 0 150 78" style="enable-background:new 0 0 150 78" xml:space="preserve"><defs><path id="a" d="M0 0h150v78H0z"/></defs><clipPath id="b"><use xlink:href="#a" style="overflow:visible"/></clipPath><path d="M150 71.03V57.84c0-.24-.09-.42-.33-.51-1.62-.69-3.77-1.17-5.98-1.17-3.8 0-6.91 1.7-6.91 6.4v2.81c0 4.22 2.93 6.19 6.46 6.19 1.08 0 2.36-.24 3.32-.66.09 3.02-.99 4.01-3.23 4.01-1.56 0-2.93-.54-4.04-1.35-.24-.18-.45-.12-.6.12l-1.26 1.85c-.15.27-.15.45.09.6 1.58 1.23 3.38 1.85 5.83 1.85 4.74.02 6.65-2.52 6.65-6.95m-3.47-3.26c-.57.48-1.83.75-2.96.75-1.82 0-3.29-.78-3.29-3.14v-2.81c0-2.57 1.4-3.29 3.47-3.29.9 0 2.15.12 2.78.33v8.16zm-67.24-11.6c-4.13 0-6.82 2.39-6.82 6.16v4.01c0 3.71 2.69 6.04 6.82 6.04 4.13 0 6.82-2.33 6.82-6.04v-4.01c0-3.77-2.7-6.16-6.82-6.16m0 3.11c2.12 0 3.32 1.08 3.32 3.05v4.01c0 1.91-1.2 2.93-3.32 2.93-2.15 0-3.32-1.02-3.32-2.93v-4.01c0-1.98 1.16-3.05 3.32-3.05m-9.54 6.52v-3.29c0-3.89-2.78-6.34-6.55-6.34-1.2 0-2.3.27-3.23.66v-5.74c0-.3-.15-.45-.45-.45h-2.57c-.3 0-.45.15-.45.45V70.8c0 .27.09.42.36.51 1.76.66 4.07 1.08 6.01 1.08 3.95-.01 6.88-2.05 6.88-6.59m-3.53.03c0 2.54-1.29 3.44-3.44 3.44-1.02 0-2.09-.12-2.81-.42v-8.82c.75-.48 1.74-.78 2.87-.78 2.15 0 3.38.99 3.38 3.26v3.32zM0 57.87v13.7c0 .3.15.45.45.45h2.57c.3 0 .45-.15.45-.45V59.61c.6-.18 1.38-.33 2.39-.33 1.94 0 2.96.96 2.96 3.14v9.15c0 .3.18.45.45.45h2.57c.3 0 .45-.15.45-.45v-9.09c0-.9-.15-1.71-.39-2.42.78-.51 1.64-.75 2.63-.75 2.15 0 3.08 1.17 3.08 3.11v9.15c0 .3.15.45.42.45h2.6c.27 0 .42-.15.42-.45v-9.03c0-4.19-2.69-6.37-6.43-6.37-1.74 0-3.02.45-4.52 1.38-1.1-.88-2.56-1.38-4.33-1.38-1.88 0-3.77.45-5.41 1.17-.27.11-.36.29-.36.53m23.63 9.51c0 3.74 3.2 4.99 6.67 4.99 2.21 0 4.46-.42 6.01-.9.21-.09.33-.27.33-.51v-8.73c0-4.22-2.51-6.07-6.22-6.07-2.42 0-4.43.6-5.86 1.58-.15.12-.15.27 0 .51l1.2 1.82c.15.24.39.27.6.12.96-.57 2.33-.96 3.83-.96 2.21 0 2.99.9 2.99 3.02v.57c-.9-.12-2-.24-2.99-.24-3.84.02-6.56 1.54-6.56 4.8m3.5-.03c0-1.23.9-1.97 3.14-1.97.93 0 2.09.12 2.9.24V69c-.75.18-1.89.36-2.87.36-1.83 0-3.17-.6-3.17-2.01m13.1-16.28v2.59s0 .44.44.44h2.59s.44 0 .44-.44v-2.59s0-.44-.44-.44h-2.59s-.44 0-.44.44m0 5.87v14.62c0 .3.18.45.45.45h2.6c.27 0 .42-.15.42-.45V56.94c0-.27-.15-.42-.42-.42h-2.6c-.27.01-.45.15-.45.42m8.14-5.89v20.52c0 .3.18.45.45.45h2.6c.27 0 .42-.15.42-.45V51.05c0-.27-.15-.42-.42-.42h-2.6c-.27 0-.45.15-.45.42m39.05 20.43c-.18.33-.06.54.3.54h3.14c.24 0 .42-.09.54-.3l2.99-5.08 2.99 5.08c.12.21.3.3.54.3h3.17c.33 0 .45-.21.27-.54l-4.81-7.24 4.55-7.21c.18-.27.03-.51-.3-.51h-3.02a.63.63 0 0 0-.54.3l-2.84 4.99-2.84-4.99a.63.63 0 0 0-.54-.3H88c-.33 0-.48.24-.3.51l4.55 7.21-4.83 7.24zm16.26-2.53v2.59s0 .44.44.44h2.59s.44 0 .44-.44v-2.59s0-.44-.44-.44h-2.59s-.44 0-.44.44m5.73-6.62v4.01c0 3.71 2.69 6.04 6.82 6.04 4.13 0 6.82-2.33 6.82-6.04v-4.01c0-3.77-2.69-6.16-6.82-6.16-4.13 0-6.82 2.39-6.82 6.16m3.5 0c0-1.97 1.17-3.05 3.32-3.05 2.12 0 3.32 1.08 3.32 3.05v4.01c0 1.91-1.2 2.93-3.32 2.93-2.15 0-3.32-1.02-3.32-2.93v-4.01zm13.37-4.52v13.76c0 .3.15.45.45.45h2.57c.3 0 .45-.15.45-.45v-11.9c.57-.24 1.55-.42 2.63-.42.81 0 1.68 0 2.42.12.3.06.48-.09.48-.36v-2.15c0-.24-.12-.42-.39-.45-1.14-.18-2.12-.24-3.05-.24-1.82 0-3.71.39-5.23 1.14-.24.08-.33.26-.33.5m-65.64-17.3h40.67V17.46L85.19 28.44c-1.15.78-2.29-.01-2.29-.01L56.48 10.26v26.09s0 4.16 4.16 4.16M84.1 23.19l17.21-11.79V0H60.64s-4.16 0-4.16 4.16v.11L84.1 23.19z" style="clip-path:url(#b);fill:#76bb21"/></svg>
