<svg xmlns="http://www.w3.org/2000/svg" width="1024" height="1024" viewBox="0 0 20.2 25.6" style="enable-background:new 0 0 20.2 25.6" xml:space="preserve"><path d="M5.3 10c0 .5-.6.9-1.1.5L.3 7.6C.1 7.4 0 7.2 0 7V2.3c0-.4.3-.4.5-.3l1.9 1.4c.3.2.7.2 1-.2C4.5 1.7 6.6.3 8.8 0h.1c.3 0 .7.2.8.7v3.8c0 .6-.3.8-.7.9C6.9 6 5.3 7.8 5.3 10z" style="fill:#4bad28"/><path d="M11.4.1c-.5 0-.8.3-.8.7v3.9c0 .4.3.6.6.7 2.2.5 3.8 2.4 3.8 4.7 0 2.7-2.2 4.8-4.8 4.8-1.2 0-2.3-.5-3.2-1.1l-6.5-5c-.3-.1-.5 0-.5.2v15.3c0 .7.6 1.3 1.3 1.3H4c.7 0 1.3-.6 1.3-1.3V19c1.4.8 3.1 1.2 4.8 1.2 5.6 0 10.1-4.5 10.1-10.1 0-5.1-3.8-9.4-8.8-10z" style="fill:#383838"/></svg>