<svg viewBox="0 0 30 30" xmlns="http://www.w3.org/2000/svg"><path d="M-652.1 119.8c-7.6 0-15.3-2.1-22.2-6.4-19.6-12.3-25.6-38.2-13.3-57.8l75.4-120.5c12.3-19.6 38.2-25.6 57.8-13.3s25.6 38.2 13.3 57.8l-75.4 120.5c-8 12.7-21.7 19.7-35.6 19.7z" fill="#ff3d57"/><path d="M-522.1 119.8c-7.6 0-15.3-2.1-22.2-6.4-19.6-12.3-25.6-38.2-13.3-57.8l75.4-120.5c12.3-19.6 38.2-25.6 57.8-13.3s25.6 38.2 13.3 57.8l-75.4 120.5c-8 12.7-21.7 19.7-35.6 19.7z" fill="#ffcb00"/><ellipse clip-rule="evenodd" cx="-392.1" cy="78.8" fill="#00d647" fill-rule="evenodd" rx="42" ry="40.9"/><path d="M4.4 22.9c-.6 0-1.2-.2-1.8-.5-1.6-1-2.1-3.1-1.1-4.7l6.1-9.8c1-1.6 3.1-2.1 4.7-1.1s2.1 3.1 1.1 4.7l-6.1 9.8c-.6 1.1-1.8 1.6-2.9 1.6z" fill="#ff3d57"/><path d="M15 22.9c-.6 0-1.2-.2-1.8-.5-1.6-1-2.1-3.1-1.1-4.7l6.1-9.8c1-1.6 3.1-2.1 4.7-1.1S25 9.9 24 11.5l-6.1 9.8c-.7 1.1-1.8 1.6-2.9 1.6z" fill="#ffcb00"/><ellipse clip-rule="evenodd" cx="25.6" cy="19.6" fill="#00d647" fill-rule="evenodd" rx="3.4" ry="3.3"/></svg>