<svg height="80" width="80" xmlns="http://www.w3.org/2000/svg" xmlns:xlink="http://www.w3.org/1999/xlink"><defs><path id="a" d="M39.982.036C17.901.036 0 17.936 0 40.018S17.9 80 39.982 80s39.982-17.9 39.982-39.982S62.064.036 39.982.036z"/><mask id="b" fill="#fff"><use fill-rule="evenodd" xlink:href="#a"/></mask></defs><g fill="none" fill-rule="evenodd"><use fill="#08c" xlink:href="#a"/><g mask="url(#b)"><path d="M59.437 23.035 52.296 59.04s-.999 2.497-3.746 1.298L32.071 47.704l-5.992-2.896-10.088-3.396s-1.548-.55-1.698-1.748c-.15-1.198 1.748-1.848 1.748-1.848l40.1-15.73s3.296-1.448 3.296.949" fill="#fefefe"/><path d="M30.804 58.636s-.48-.045-1.08-1.943c-.6-1.898-3.645-11.885-3.645-11.885l24.22-15.381s1.397-.849 1.348 0c0 0 .25.15-.5.849-.749.7-19.026 17.128-19.026 17.128" fill="#d3e5f1"/><path d="m38.39 52.548-6.519 5.943s-.51.387-1.067.145l1.248-11.04" fill="#b6d0e4"/></g></g></svg>