<svg height="1024" width="1024" xmlns="http://www.w3.org/2000/svg"><path d="M166.593 629.974c-3.279-.174-6.573-.376-9.867-.55-10.517-.636-21.02-1.588-31.524-2.687-10.502-1.04-20.99-2.427-31.465-3.959-10.488-1.532-20.904-3.41-31.32-5.49-10.388-2.166-20.747-4.565-30.975-7.54-10.228-2.947-20.356-6.357-30.107-11.067a122.403 122.403 0 0 0 6.342 5.115 155.077 155.077 0 0 0 6.733 4.68c4.58 2.977 9.318 5.722 14.128 8.351 9.65 5.172 19.605 9.796 29.747 13.927 20.283 8.322 41.245 14.938 62.482 20.457 10.633 2.744 21.353 5.114 32.13 7.281 4.55.925 9.116 1.734 13.696 2.543z" fill="#c4a74a"/><path d="M894.764 739.31c0 16.757-13.725 30.512-30.513 30.512H197.105c-16.773 0-30.513-13.754-30.513-30.513V284.691c0-16.787 13.74-30.513 30.513-30.513H864.25c16.787 0 30.513 13.725 30.513 30.513z" fill="none"/><path d="M553.584 591.979c-12.597 11.095-33.199 11.095-45.797 0L166.593 291.77v447.538c0 16.758 13.74 30.513 30.513 30.513h667.146c16.787 0 30.513-13.754 30.513-30.513V291.77z" fill="#4b537d"/><path d="M860.582 254.18c14.707 0 17.712 6.934 6.675 15.4L550.753 512.26c-11.037 8.466-29.125 8.466-40.163 0L194.114 269.58c-11.051-8.466-8.046-15.4 6.66-15.4z" fill="#4b537d"/><path d="M69.842 667.16c57.672 25.253 124.027 30.455 186.366 31.813 21.006.462 41.939.23 62.771-.926 41.622-2.311 82.81-8.033 122.41-18.26 19.791-5.144 39.18-11.357 57.903-18.926 9.361-3.814 18.579-7.86 27.564-12.338 9.275-4.594 18.319-9.622 27.391-14.591 37.591-20.515 75.269-41 113.322-61.053 9.535-4.998 19.07-9.998 28.663-14.938a2448.97 2448.97 0 0 1 28.866-14.65c19.359-9.65 38.891-19.098 58.914-27.968a733.082 733.082 0 0 1 30.454-12.743c10.374-3.987 20.891-7.8 31.9-10.95 5.519-1.561 11.123-3.006 16.99-4.19 5.865-1.156 11.933-2.11 18.52-2.283 3.294-.086 6.704 0 10.344.433l.665.116c.347.028.23.028.375.028l.26.058 1.099.174c.895.144 1.647.289 2.427.433a85.47 85.47 0 0 1 4.709 1.07c6.241 1.618 12.367 3.928 18.088 7.165 5.691 3.236 11.066 7.31 15.602 12.338 4.507 5.028 8.235 11.009 10.344 17.51 2.167 6.501 2.774 13.349 2.08 19.792-.665 6.443-2.6 12.453-5.143 17.886-5.115 10.893-12.598 19.676-20.66 27.275-8.148 7.57-16.99 14.014-26.293 19.59 7.455-7.86 14.563-15.95 20.486-24.618 5.952-8.61 10.806-17.856 13.175-27.131 1.156-4.653 1.618-9.246 1.3-13.551-.319-4.305-1.474-8.264-3.381-11.732-1.936-3.438-4.507-6.443-7.657-8.957-3.15-2.485-6.82-4.478-10.748-5.923a52.822 52.822 0 0 0-12.454-2.89 61.623 61.623 0 0 0-3.235-.26c-.55-.029-1.098-.059-1.56-.059l-.896-.028h-.26c-.03 0-.29-.029-.116 0h-.347c-1.734.058-3.67.289-5.75.636-4.103.751-8.61 1.936-13.147 3.438-4.536 1.502-9.159 3.294-13.782 5.23-9.275 3.959-18.58 8.437-27.854 13.175s-18.52 9.766-27.767 14.852c-18.463 10.257-36.897 20.89-55.36 31.61 0 0-53.83 31.35-55.448 32.304-56.372 32.795-112.196 69.26-173.422 92.46-21.28 8.062-43.095 14.361-65.113 19.1-44.049 9.447-88.834 12.741-133.085 11.268-48.932-1.676-97.661-9.13-144.773-22.48-35.276-9.995-77.085-23.055-104.737-48.309z" fill="#c4a74a"/></svg>