<svg width="1024" height="1024" xmlns="http://www.w3.org/2000/svg"><path fill="none" d="M-1-1h402v400H-1z"/><g><path fill-rule="evenodd" fill="#efefef" d="M178.4.506c-14.975 1.809-19.575 2.695-32 6.163-11.899 3.322-17.335 5.202-24.145 8.354-2.788 1.291-5.966 2.623-7.062 2.96-1.096.337-2.353.895-2.793 1.239-.766.6-10.297 5.709-16.6 8.898-1.65.834-3 1.869-3 2.299 0 .429-.376.781-.835.781-.928 0-10.219 6.161-13.965 9.26-1.32 1.092-4.2 3.452-6.4 5.245-14.184 11.559-40.4 41.577-40.4 46.26 0 .459-.352.835-.781.835-.43 0-1.465 1.35-2.299 3-3.189 6.303-8.298 15.834-8.898 16.6-.344.44-.902 1.697-1.239 2.793-.337 1.096-1.669 4.274-2.96 7.062C9.677 133.806 4.45 151.87 1.787 168c-3.027 18.332-1.115 72.413 2.781 78.663.321.515 1.545 4.537 2.719 8.937 2.445 9.158 5.898 19.336 7.016 20.683.418.504.808 1.18.867 1.5.606 3.349 13.987 29.417 15.099 29.417.297 0 .98.99 1.517 2.2.957 2.157 5.718 8.922 9.236 13.123a225.405 225.405 0 0 1 4.17 5.2c2.178 2.803 8.981 10.315 14.008 15.469 1.651 1.693 11.247 10.18 18 15.92 2.868 2.437 13.924 9.688 14.773 9.688.455 0 .827.299.827.665 0 .365.99 1.162 2.2 1.771 1.21.608 3.1 1.702 4.2 2.429 3.508 2.321 13.837 7.553 18.8 9.523 2.64 1.048 5.52 2.339 6.4 2.869.88.531 3.04 1.396 4.8 1.923 1.76.527 4.28 1.441 5.6 2.032 1.32.59 5.64 1.844 9.6 2.785 3.96.942 7.84 2.057 8.622 2.478 10.003 5.387 67.446 6.147 88.978 1.177 10.336-2.385 20.894-5.329 22.8-6.356 1.1-.593 3.003-1.318 4.229-1.61 1.226-.292 4.565-1.601 7.42-2.909 2.855-1.307 5.397-2.377 5.649-2.377.911 0 14.36-6.719 16.692-8.339 1.314-.914 3.744-2.273 5.4-3.022 1.655-.748 3.01-1.738 3.01-2.2 0-.461.45-.843 1-.847.55-.005 3.16-1.605 5.8-3.555 2.64-1.95 6.222-4.556 7.96-5.791 10.68-7.59 28.664-25.612 37.503-37.582 8.015-10.853 9.321-12.767 9.329-13.664.004-.55.386-1 .847-1 .462 0 1.452-1.355 2.2-3.01.749-1.656 2.108-4.086 3.022-5.4 1.616-2.326 8.339-15.78 8.339-16.688 0-.25.939-2.507 2.086-5.016 6.35-13.882 11.501-33.258 13.581-51.086 2.434-20.873.218-65.902-3.592-72.978-.421-.782-1.536-4.662-2.478-8.622-.941-3.96-2.195-8.28-2.785-9.6-.591-1.32-1.505-3.84-2.032-5.6-.527-1.76-1.392-3.92-1.923-4.8-.53-.88-1.821-3.76-2.869-6.4-1.97-4.963-7.202-15.292-9.523-18.8a49.664 49.664 0 0 1-2.429-4.2c-.609-1.21-1.406-2.2-1.771-2.2-.366 0-.665-.372-.665-.827 0-.849-7.251-11.905-9.688-14.773-5.74-6.753-14.227-16.349-15.92-18-5.154-5.027-12.666-11.83-15.469-14.008a225.405 225.405 0 0 1-5.2-4.17c-4.201-3.518-10.966-8.279-13.123-9.236-1.21-.537-2.2-1.22-2.2-1.517 0-.971-26.485-14.759-29.6-15.41-.22-.046-.864-.378-1.431-.738-1.792-1.137-12.268-4.617-20.569-6.834-4.4-1.174-8.421-2.398-8.935-2.718C242.16 1.761 192.486-1.195 178.4.506m59.829 4.285C263.99 9.466 294.21 22.563 316.4 38.669c14.856 10.783 31.751 27.305 42.227 41.294 6.887 9.198 16.661 24.847 16.092 25.768-.227.368.058.672.634.676 1.128.007 5.524 7.649 4.811 8.363-.237.236-81.395.43-180.351.43H19.892l.555-1.8c.952-3.084 2.792-6.265 3.861-6.676.564-.216 1.026-.827 1.027-1.358.004-1.759 14.761-24.701 17.86-27.766.223-.22 1.845-2.2 3.605-4.4 6.691-8.363 18.623-20.103 29.272-28.8C103.181 22.261 143.815 5.359 175.2 3.168c16.745-1.168 52.754-.241 63.029 1.623M288.8 49.05c0 .138 1.17 1.308 2.6 2.6L294 54l-2.35-2.6c-2.19-2.424-2.85-2.968-2.85-2.35m-123 18.75c18.81.119 49.59.119 68.4 0 18.81-.12 3.42-.218-34.2-.218-37.62 0-53.01.098-34.2.218M113 106.2c47.85.114 126.15.114 174 0 47.85-.114 8.7-.207-87-.207s-134.85.093-87 .207m268.068 13.6c5.523 11.077 12.438 34.972 14.526 50.2.724 5.28 1.505 10.68 1.736 12 .55 3.144.544 32.9-.007 36-.235 1.32-1.007 6.72-1.717 12-11.188 83.266-82.34 154.418-165.606 165.606-5.28.71-10.68 1.482-12 1.717-3.1.551-32.856.557-36 .007-1.32-.231-6.72-1.012-12-1.736C93.162 385.057 27.544 325.405 8.086 248.4c-10.333-40.896-5.572-96.493 11.056-129.086L20.833 116h358.34l1.895 3.8m-113.657 48.774c1.216.184 3.016.179 4-.011s-.011-.34-2.211-.334c-2.2.006-3.005.161-1.789.345M232.395 196.2 210 218.8l22.6-22.395c21.002-20.811 22.96-22.805 22.395-22.805-.113 0-10.283 10.17-22.6 22.6m55.807-11c.009 1.76.172 2.386.364 1.391.191-.995.184-2.435-.016-3.2-.201-.765-.357.049-.348 1.809m-87.021 42.2L194.8 234l6.6-6.381c3.63-3.51 6.6-6.48 6.6-6.6 0-.584-.892.251-6.819 6.381m-43.384 13.797 14.998 15.192 5.002-5.186 5.003-5.186-5.009 4.775-5.008 4.775-14.992-14.781-14.991-14.781 14.997 15.192m30.573-.997-3.97 4.2 4.2-3.97c3.903-3.689 4.567-4.43 3.97-4.43-.127 0-2.017 1.89-4.2 4.2m-76.968-.6c.009 1.76.172 2.386.364 1.391.191-.995.184-2.435-.016-3.2-.201-.765-.357.049-.348 1.809"/><path fill-rule="evenodd" fill="#fff" d="M175.2 3.168C143.815 5.359 103.181 22.261 76.072 44.4 65.423 53.097 53.491 64.837 46.8 73.2c-1.76 2.2-3.382 4.18-3.605 4.4-2.563 2.535-17.207 24.897-17.789 27.166-.137.537 57.894.804 174.594.804 138.042 0 174.744-.207 174.533-.985-1.484-5.487-18.837-29.303-29.692-40.751-25.815-27.225-52.944-43.626-92.212-55.746-15.079-4.654-49.71-6.854-77.429-4.92m-48.641 45.344c1.187.597 3.12 2.347 4.295 3.887l2.136 2.801h134.02l2.136-2.801c6.394-8.382 20.396-7.04 25.041 2.401 7.482 15.205-13.181 28.869-24.375 16.119L267.249 68H132.751l-2.563 2.919c-12.407 14.131-33.972-3.523-22.567-18.475 4.309-5.649 12.249-7.298 18.938-3.932m211.78 6.173c2.097 2.287 2.461 2.495 2.461 1.407 0-.389-.99-1.341-2.2-2.115l-2.2-1.408 1.939 2.116M19.142 119.314C2.514 151.907-2.247 207.504 8.086 248.4 27.544 325.405 93.162 385.057 170 395.594c5.28.724 10.68 1.505 12 1.736 3.144.55 32.9.544 36-.007 1.32-.235 6.72-1.007 12-1.717 83.266-11.188 154.418-82.34 165.606-165.606.71-5.28 1.482-10.68 1.717-12 .551-3.1.557-32.856.007-36-.231-1.32-1.012-6.72-1.736-12-2.088-15.228-9.003-39.123-14.526-50.2l-1.895-3.8H20.833l-1.691 3.314M276 169.66c11.093 4.183 15.358 14.17 10.31 24.143-2.6 5.135-100.92 103.246-105.59 105.365-3.933 1.784-9.113 2.062-13.92.748-5.131-1.403-51.772-48.144-54.01-54.127-4.182-11.177 3.808-22.442 16.491-23.249 9.012-.574 10.659.464 28.108 17.725 8.464 8.373 15.566 15.069 15.782 14.879.217-.189 19.212-19.11 42.211-42.047 49.027-48.893 48.035-48.182 60.618-43.437M54.074 338.8c.72 1.1 1.691 2 2.157 2 .467 0 .002-.9-1.031-2s-2.004-2-2.158-2c-.153 0 .311.9 1.032 2"/><path fill-rule="evenodd" fill="#94baf2" d="M113.2 49.129c-11.761 5.227-9.357 22.948 3.481 25.666 5.134 1.087 10.419-1.305 14.711-6.658l1.392-1.737h134.427l1.794 2.115c4.477 5.274 9.225 7.358 14.314 6.28 15.195-3.217 14.564-25.127-.766-26.6-5.46-.524-9.299.934-12.303 4.673L267.732 56H132.19l-2.201-2.885c-3.656-4.793-11.032-6.544-16.789-3.986M22.769 110.2c-.84 1.65-1.657 3.27-1.815 3.6-.158.33 80.383.6 178.979.6 98.597 0 179.267-.199 179.267-.442 0-.242-.81-1.86-1.8-3.593l-1.8-3.153-175.652-.006-175.652-.006-1.527 3M261.6 170.849c-3.728 1.723-10.838 8.464-46.581 44.164l-42.182 42.129-15.418-15.285c-8.481-8.407-16.583-15.87-18.005-16.585-8.799-4.42-20.052-.88-25.083 7.89-5.172 9.017-3.674 11.522 22.869 38.253 29.989 30.202 30.34 30.436 41 27.38 4.653-1.334 98.79-93.216 105.84-103.305 10.082-14.427-6.098-32.194-22.44-24.641"/><path fill-rule="evenodd" fill="#c0d6f7" d="M114.676 47.812c-.508.324 1.528.588 4.524.588s5.032-.264 4.524-.588c-.508-.323-2.544-.587-4.524-.587s-4.016.264-4.524.587M278 47.597c2.035.688 8.525.973 7.508.329-.609-.386-2.728-.679-4.708-.651-1.98.028-3.24.173-2.8.322M129.566 52.6c1.486 1.87 2.846 3.4 3.022 3.4.566 0-2.863-4.502-4.319-5.671-.773-.621-.189.401 1.297 2.271m165.036 8.6c.009 1.76.172 2.386.364 1.391.191-.995.184-2.435-.016-3.2-.201-.765-.357.049-.348 1.809m-189.616.4c0 1.54.164 2.17.365 1.4.202-.77.202-2.03 0-2.8-.201-.77-.365-.14-.365 1.4M166.2 67c18.59.119 49.01.119 67.6 0 18.59-.12 3.38-.218-33.8-.218s-52.39.098-33.8.218M22.156 110.01c-.731 1.535-1.165 2.79-.964 2.79.548 0 2.976-4.898 2.61-5.264-.173-.174-.914.94-1.646 2.474M20 114.6c0 .33 81 .6 180 .6s180-.27 180-.6c0-.33-81-.6-180-.6s-180 .27-180 .6m260.187 58.282c1.202.898 3.121 2.776 4.265 4.175 1.143 1.399 1.702 1.782 1.243.853-.88-1.784-6.149-6.728-7.123-6.685-.315.014.412.76 1.615 1.657M233.598 247 184.4 296.4l49.4-49.198c45.921-45.732 49.759-49.602 49.198-49.602-.112 0-22.342 22.23-49.4 49.4m-76.798-5.8c8.131 8.14 14.964 14.8 15.184 14.8.22 0-6.253-6.66-14.384-14.8s-14.964-14.8-15.184-14.8c-.22 0 6.253 6.66 14.384 14.8m-33.2 17.2c4.825 4.84 8.953 8.8 9.173 8.8.22 0-3.548-3.96-8.373-8.8-4.825-4.84-8.953-8.8-9.173-8.8-.22 0 3.548 3.96 8.373 8.8M170 300c.88.378 2.32.677 3.2.664 1.286-.019 1.208-.149-.4-.664-2.735-.876-4.839-.876-2.8 0"/><path fill-rule="evenodd" fill="#d9e6fa" d="M166.2 55.8c18.59.119 49.01.119 67.6 0 18.59-.12 3.38-.218-33.8-.218s-52.39.098-33.8.218M112.264 107c48.765.114 128.325.114 176.8 0 48.475-.114 8.576-.207-88.664-.207-97.24 0-136.901.093-88.136.207m16.747 115.974c1.216.184 3.016.179 4-.011s-.011-.34-2.211-.334c-2.2.006-3.005.161-1.789.345M116.35 229l-2.35 2.6 2.6-2.35c1.43-1.292 2.6-2.462 2.6-2.6 0-.618-.66-.074-2.85 2.35m22.45 45.4c12.314 12.32 22.569 22.4 22.789 22.4.22 0-9.675-10.08-21.989-22.4-12.314-12.32-22.569-22.4-22.789-22.4-.22 0 9.675 10.08 21.989 22.4"/></g></svg>