<?xml version="1.0" encoding="UTF-8" standalone="no"?>
<!DOCTYPE svg PUBLIC "-//W3C//DTD SVG 1.1//EN" "http://www.w3.org/Graphics/SVG/1.1/DTD/svg11.dtd">
<svg width="100%" height="100%" viewBox="0 0 1024 1024" version="1.1" xmlns="http://www.w3.org/2000/svg" xmlns:xlink="http://www.w3.org/1999/xlink" xml:space="preserve" xmlns:serif="http://www.serif.com/" style="fill-rule:evenodd;clip-rule:evenodd;stroke-linejoin:round;stroke-miterlimit:2;">
    <g>
        <g transform="matrix(2.82601,0,0,2.82601,27,-29.6905)">
            <path d="M288.89,309.11L288.89,201C288.89,178.4 279.557,167.1 260.89,167.1C242.223,167.1 232.89,178.4 232.89,201L232.89,309.11L177.89,309.11L177.89,201C177.89,178.4 168.717,167.1 150.37,167.1C131.703,167.1 122.37,178.4 122.37,201L122.37,309.11L67.37,309.11L67.37,194.65C67.37,171.07 75.557,153.223 91.93,141.11C106.337,130.297 125.823,124.89 150.39,124.89C175.29,124.89 193.623,131.277 205.39,144.05C215.543,131.277 234.047,124.89 260.9,124.89C285.473,124.89 304.957,130.297 319.35,141.11C335.73,153.217 343.92,171.063 343.92,194.65L343.92,309.11L288.89,309.11Z" style="fill:rgb(244,128,32);fill-rule:nonzero;"/>
        </g>
        <g transform="matrix(2.82601,0,0,2.82601,27,-29.6905)">
            <path d="M173.86,116.85L228.94,76.75L228.24,74.31C135,83.92 80.42,96.44 0,144.13L0.73,146.51L21.73,145.84C36.9,146.36 52.58,147.1 67.73,147.16C66.73,171.25 68.56,179.81 68.56,179.81C120.48,197.39 169.78,181.34 195.7,135.91C188.797,129.137 181.504,122.773 173.86,116.85Z" style="fill:rgb(88,88,88);fill-rule:nonzero;"/>
        </g>
        <g transform="matrix(2.82601,0,0,2.82601,27,-29.6905)">
            <path d="M113.78,110C113.48,108.92 111.55,108.52 109.5,109.1C108.192,109.355 107.051,110.151 106.36,111.29C87.83,116.29 57.2,125.01 35.63,132.29L34.3,132.74C17.62,138.35 9.57,141.23 9.08,145.29C6.79,163.73 8.21,187.47 8.22,187.77L8.41,194.17C-1.33,221.73 8.47,243.77 16.79,263.94C16.85,239.02 17.86,218.72 10.79,192.94C10.59,189.12 9.3,162.58 11.4,145.6C11.74,142.85 23.05,139.04 35.03,135.01L36.36,134.57C58.36,127.15 89.93,118.18 108.26,113.28C109.032,113.328 109.807,113.244 110.55,113.03C112.64,112.43 114.08,111.09 113.78,110Z" style="fill:rgb(88,88,88);fill-rule:nonzero;"/>
        </g>
    </g>
</svg>
