<?xml version="1.0" encoding="utf-8"?>
<!-- Generator: Adobe Illustrator 27.1.1, SVG Export Plug-In . SVG Version: 6.00 Build 0)  -->
<svg version="1.1" id="Layer_1" xmlns="http://www.w3.org/2000/svg" xmlns:xlink="http://www.w3.org/1999/xlink" x="0px" y="0px"
	 viewBox="0 0 67 67" style="enable-background:new 0 0 67 67;" xml:space="preserve">
<style type="text/css">
	.st0{filter:url(#Adobe_OpacityMaskFilter);}
	.st1{fill-rule:evenodd;clip-rule:evenodd;fill:#FFFFFF;}
	.st2{mask:url(#mask-2_00000069396530732544831770000006828314598877634203_);fill:#0F9D58;}
	.st3{filter:url(#Adobe_OpacityMaskFilter_00000111163651415868422910000013145159419414790306_);}
	.st4{mask:url(#mask-4_00000169523607694044215120000015749188560739979173_);fill:#F1F1F1;}
	.st5{filter:url(#Adobe_OpacityMaskFilter_00000121989277774860474360000018074962050296333759_);}
	
		.st6{mask:url(#mask-6_00000114057637817851051100000001094563277016657338_);fill:url(#Path_00000027562407044488474820000008061108933575793299_);}
	.st7{filter:url(#Adobe_OpacityMaskFilter_00000105398921082114297020000007332392604279498881_);}
	.st8{mask:url(#mask-9_00000170958306580010023510000005538899753294800802_);}
	.st9{fill:#87CEAC;}
	.st10{filter:url(#Adobe_OpacityMaskFilter_00000026864480224249145280000008871940251368795777_);}
	.st11{mask:url(#mask-11_00000080907030692203483750000010288974547058959246_);fill:#FFFFFF;fill-opacity:0.2;}
	.st12{filter:url(#Adobe_OpacityMaskFilter_00000165929086393423713540000007843054389793355427_);}
	.st13{mask:url(#mask-13_00000052787062556788604200000015717608760579320987_);fill:#263238;fill-opacity:0.2;}
	.st14{filter:url(#Adobe_OpacityMaskFilter_00000135652472223669891930000013456668994967708044_);}
	.st15{mask:url(#mask-15_00000057830325616808637710000005883769195960368573_);fill:#263238;fill-opacity:0.1;}
	.st16{fill:url(#Path_00000104673817508154400800000016097403488231009936_);}
</style>
<g id="Page-1">
	<g id="Consumer-Apps-Sheets-Large-VD-R8-" transform="translate(-451.000000, -451.000000)">
		<g id="Hero" transform="translate(0.000000, 63.000000)">
			<g id="Personal" transform="translate(277.000000, 299.000000)">
				<g id="Sheets-icon" transform="translate(174.833333, 89.958333)">
					<g id="Group_00000036240261349930018730000014285295404914181254_">
						<g id="Clipped">
							<g id="SVGID_1_">
							</g>
							<defs>
								<filter id="Adobe_OpacityMaskFilter" filterUnits="userSpaceOnUse" x="9" y="0" width="47.3" height="65.1">
									<feColorMatrix  type="matrix" values="1 0 0 0 0  0 1 0 0 0  0 0 1 0 0  0 0 0 1 0"/>
								</filter>
							</defs>
							
								<mask maskUnits="userSpaceOnUse" x="9" y="0" width="47.3" height="65.1" id="mask-2_00000069396530732544831770000006828314598877634203_">
								<g class="st0">
									<path id="path-1_00000076577246082480205110000014411939151095979675_" class="st1" d="M38.6,0H13.4C11,0,9,2,9,4.4v56.2
										c0,2.4,2,4.4,4.4,4.4h38.5c2.4,0,4.4-2,4.4-4.4V17.7L38.6,0z"/>
								</g>
							</mask>
							<path id="Path" class="st2" d="M38.6,0H13.4C11,0,9,2,9,4.4v56.2c0,2.4,2,4.4,4.4,4.4h38.5c2.4,0,4.4-2,4.4-4.4V17.7L46,10.4
								L38.6,0z"/>
						</g>
						<g id="Clipped_00000122681972191480972310000015474853924030488498_">
							<g id="SVGID_00000134225059907663769480000017598672001838472363_">
							</g>
							<defs>
								
									<filter id="Adobe_OpacityMaskFilter_00000090266450582026962920000004156560882268666798_" filterUnits="userSpaceOnUse" x="20.8" y="31.8" width="23.7" height="21.4">
									<feColorMatrix  type="matrix" values="1 0 0 0 0  0 1 0 0 0  0 0 1 0 0  0 0 0 1 0"/>
								</filter>
							</defs>
							
								<mask maskUnits="userSpaceOnUse" x="20.8" y="31.8" width="23.7" height="21.4" id="mask-4_00000169523607694044215120000015749188560739979173_">
								<g style="filter:url(#Adobe_OpacityMaskFilter_00000090266450582026962920000004156560882268666798_);">
									<path id="path-3_00000090286494239153521950000015928951502877387186_" class="st1" d="M38.6,0H13.4C11,0,9,2,9,4.4v56.2
										c0,2.4,2,4.4,4.4,4.4h38.5c2.4,0,4.4-2,4.4-4.4V17.7L38.6,0z"/>
								</g>
							</mask>
							<path id="Shape" class="st4" d="M20.8,31.8v21.4h23.7V31.8H20.8z M31.2,50.3h-7.4v-3.7h7.4V50.3z M31.2,44.4h-7.4v-3.7h7.4
								V44.4z M31.2,38.5h-7.4v-3.7h7.4V38.5z M41.5,50.3h-7.4v-3.7h7.4V50.3z M41.5,44.4h-7.4v-3.7h7.4V44.4z M41.5,38.5h-7.4v-3.7
								h7.4V38.5z"/>
						</g>
						<g id="Clipped_00000136390812350069895000000001085915453012058016_">
							<g id="SVGID_00000106122850504349982350000015887323712345058957_">
							</g>
							<defs>
								
									<filter id="Adobe_OpacityMaskFilter_00000026153117594693139780000011087309609717898392_" filterUnits="userSpaceOnUse" x="39.9" y="16.5" width="16.5" height="16.4">
									<feColorMatrix  type="matrix" values="1 0 0 0 0  0 1 0 0 0  0 0 1 0 0  0 0 0 1 0"/>
								</filter>
							</defs>
							
								<mask maskUnits="userSpaceOnUse" x="39.9" y="16.5" width="16.5" height="16.4" id="mask-6_00000114057637817851051100000001094563277016657338_">
								<g style="filter:url(#Adobe_OpacityMaskFilter_00000026153117594693139780000011087309609717898392_);">
									<path id="path-5_00000132778878997600143920000012689778109663058333_" class="st1" d="M38.6,0H13.4C11,0,9,2,9,4.4v56.2
										c0,2.4,2,4.4,4.4,4.4h38.5c2.4,0,4.4-2,4.4-4.4V17.7L38.6,0z"/>
								</g>
							</mask>
							
								<linearGradient id="Path_00000075866028499764384880000007252893081855200694_" gradientUnits="userSpaceOnUse" x1="-247.7396" y1="430.3176" x2="-247.7396" y2="429.4033" gradientTransform="matrix(16.452 0 0 -16.4483 4123.9272 7095.8706)">
								<stop  offset="0" style="stop-color:#263238;stop-opacity:0.2"/>
								<stop  offset="1" style="stop-color:#263238;stop-opacity:2.000000e-02"/>
							</linearGradient>
							
								<polygon id="Path_00000078740062926297760630000009470431328194383235_" style="mask:url(#mask-6_00000114057637817851051100000001094563277016657338_);fill:url(#Path_00000075866028499764384880000007252893081855200694_);" points="
								39.9,16.5 56.3,32.9 56.3,17.7 							"/>
						</g>
						<g id="Clipped_00000085938577225296374210000005368251039137555104_">
							<g id="SVGID_00000093870511253086398320000016786500269137006246_">
							</g>
							<defs>
								
									<filter id="Adobe_OpacityMaskFilter_00000011751361194100982170000010643067639173143696_" filterUnits="userSpaceOnUse" x="38.6" y="0" width="17.8" height="17.8">
									<feColorMatrix  type="matrix" values="1 0 0 0 0  0 1 0 0 0  0 0 1 0 0  0 0 0 1 0"/>
								</filter>
							</defs>
							
								<mask maskUnits="userSpaceOnUse" x="38.6" y="0" width="17.8" height="17.8" id="mask-9_00000170958306580010023510000005538899753294800802_">
								<g style="filter:url(#Adobe_OpacityMaskFilter_00000011751361194100982170000010643067639173143696_);">
									<path id="path-8_00000067211527095159275240000001851829726637835955_" class="st1" d="M38.6,0H13.4C11,0,9,2,9,4.4v56.2
										c0,2.4,2,4.4,4.4,4.4h38.5c2.4,0,4.4-2,4.4-4.4V17.7L38.6,0z"/>
								</g>
							</mask>
							<g id="Group" class="st8">
								<g transform="translate(26.625000, -2.958333)">
									<path id="Path_00000040562588748344387190000010552173625181256888_" class="st9" d="M12,3v13.3c0,2.5,2,4.4,4.4,4.4h13.3
										L12,3z"/>
								</g>
							</g>
						</g>
						<g id="Clipped_00000167364828497149210400000000255808029248703128_">
							<g id="SVGID_00000063620833924919082770000007394344349709138831_">
							</g>
							<defs>
								
									<filter id="Adobe_OpacityMaskFilter_00000044883649492340576020000014481140517254911903_" filterUnits="userSpaceOnUse" x="9" y="0" width="29.6" height="4.8">
									<feColorMatrix  type="matrix" values="1 0 0 0 0  0 1 0 0 0  0 0 1 0 0  0 0 0 1 0"/>
								</filter>
							</defs>
							
								<mask maskUnits="userSpaceOnUse" x="9" y="0" width="29.6" height="4.8" id="mask-11_00000080907030692203483750000010288974547058959246_">
								<g style="filter:url(#Adobe_OpacityMaskFilter_00000044883649492340576020000014481140517254911903_);">
									<path id="path-10_00000024003492857918219680000001701235027280298381_" class="st1" d="M38.6,0H13.4C11,0,9,2,9,4.4v56.2
										c0,2.4,2,4.4,4.4,4.4h38.5c2.4,0,4.4-2,4.4-4.4V17.7L38.6,0z"/>
								</g>
							</mask>
							<path id="Path_00000178187153208895453820000018430907033302045847_" class="st11" d="M13.4,0C11,0,9,2,9,4.4v0.4
								c0-2.4,2-4.4,4.4-4.4h25.1V0H13.4z"/>
						</g>
						<g id="Clipped_00000049917855715733697180000010207846153133357967_">
							<g id="SVGID_00000129179924917468022020000000205142491205997758_">
							</g>
							<defs>
								
									<filter id="Adobe_OpacityMaskFilter_00000101792716779957997050000014101740880627823241_" filterUnits="userSpaceOnUse" x="9" y="60.3" width="47.3" height="4.8">
									<feColorMatrix  type="matrix" values="1 0 0 0 0  0 1 0 0 0  0 0 1 0 0  0 0 0 1 0"/>
								</filter>
							</defs>
							
								<mask maskUnits="userSpaceOnUse" x="9" y="60.3" width="47.3" height="4.8" id="mask-13_00000052787062556788604200000015717608760579320987_">
								<g style="filter:url(#Adobe_OpacityMaskFilter_00000101792716779957997050000014101740880627823241_);">
									<path id="path-12_00000065052688342435209520000000917159156699433393_" class="st1" d="M38.6,0H13.4C11,0,9,2,9,4.4v56.2
										c0,2.4,2,4.4,4.4,4.4h38.5c2.4,0,4.4-2,4.4-4.4V17.7L38.6,0z"/>
								</g>
							</mask>
							<path id="Path_00000103250769841422973270000011312069301744929950_" class="st13" d="M51.9,64.7H13.4c-2.4,0-4.4-2-4.4-4.4
								v0.4c0,2.4,2,4.4,4.4,4.4h38.5c2.4,0,4.4-2,4.4-4.4v-0.4C56.3,62.7,54.3,64.7,51.9,64.7z"/>
						</g>
						<g id="Clipped_00000031897287372773694820000010849425241435763645_">
							<g id="SVGID_00000181088767367741811960000003331866297605919883_">
							</g>
							<defs>
								
									<filter id="Adobe_OpacityMaskFilter_00000083072376661889485500000017106573479893607860_" filterUnits="userSpaceOnUse" x="38.6" y="13.3" width="17.7" height="4.8">
									<feColorMatrix  type="matrix" values="1 0 0 0 0  0 1 0 0 0  0 0 1 0 0  0 0 0 1 0"/>
								</filter>
							</defs>
							
								<mask maskUnits="userSpaceOnUse" x="38.6" y="13.3" width="17.7" height="4.8" id="mask-15_00000057830325616808637710000005883769195960368573_">
								<g style="filter:url(#Adobe_OpacityMaskFilter_00000083072376661889485500000017106573479893607860_);">
									<path id="path-14_00000075155393545145169070000014285465632002960791_" class="st1" d="M38.6,0H13.4C11,0,9,2,9,4.4v56.2
										c0,2.4,2,4.4,4.4,4.4h38.5c2.4,0,4.4-2,4.4-4.4V17.7L38.6,0z"/>
								</g>
							</mask>
							<path id="Path_00000119104178803234648560000014676954088524761495_" class="st15" d="M43,17.7c-2.5,0-4.4-2-4.4-4.4v0.4
								c0,2.5,2,4.4,4.4,4.4h13.3v-0.4H43z"/>
						</g>
					</g>
					
						<radialGradient id="Path_00000070102342672131152430000018303976696315816596_" cx="-259.034" cy="445.7284" r="1.6125" gradientTransform="matrix(47.3333 0 0 -47.3334 12271.4443 21099.5898)" gradientUnits="userSpaceOnUse">
						<stop  offset="0" style="stop-color:#FFFFFF;stop-opacity:0.1"/>
						<stop  offset="1" style="stop-color:#FFFFFF;stop-opacity:0"/>
					</radialGradient>
					
						<path id="Path_00000005949015595745698970000011494910951062583222_" style="fill:url(#Path_00000070102342672131152430000018303976696315816596_);" d="
						M38.6,0H13.4C11,0,9,2,9,4.4v56.2c0,2.4,2,4.4,4.4,4.4h38.5c2.4,0,4.4-2,4.4-4.4V17.7L38.6,0z"/>
				</g>
			</g>
		</g>
	</g>
</g>
</svg>
