<svg width="20" height="20" viewBox="0 0 20 20" fill="none" xmlns="http://www.w3.org/2000/svg">
  <path d="M5 0C7.76142 0 10 2.23858 10 5L10 11H0V5C0 2.23858 2.23858 0 5 0Z" fill="#0472D8" />
  <path d="M15 0C12.2386 0 10 2.23858 10 5L10 11H20V5C20 2.23858 17.7614 0 15 0Z" fill="#2596FF" />
  <path
    d="M15 8C15 5.23858 12.7614 3 10 3C7.23858 3 5 5.23858 5 8C5 10.7614 7.23858 13 10 13C12.7614 13 15 10.7614 15 8Z"
    fill="#51B6FF" />
  <path
    d="M19.9956 4.78906C19.8675 7.79703 16.9668 10.0004 14 10.0004C11.2386 10.0004 9 12.239 9 15.0004C9 17.7619 11.2386 20.0004 14 20.0004C14.0209 20.0004 14.0417 20.0003 14.0625 20C19.0625 20 20 15.0916 20 12.8129V5.00043C20 4.92962 19.9985 4.85915 19.9956 4.78906Z"
    fill="#0472D8" />
  <path
    d="M0 5.00042V12.8129C0 15.0916 0.9375 20 5.9375 20C5.9583 20.0003 5.97914 20.0004 6 20.0004C8.76142 20.0004 11 17.7618 11 15.0004C11 12.239 8.76142 10.0004 6 10.0004C3.03315 10.0004 0.132537 7.79703 0.00438637 4.78906C0.00147177 4.85915 0 4.92962 0 5.00042Z"
    fill="#1557BA" />
</svg>