<?xml version="1.0" encoding="UTF-8" standalone="no"?>
<svg
   version="1.0"
   width="765.83459pt"
   height="768pt"
   viewBox="0 0 765.83459 768"
   preserveAspectRatio="xMidYMid"
   id="svg6"
   sodipodi:docname="resized-icon.svg"
   inkscape:version="1.2.1 (9c6d41e410, 2022-07-14)"
   xmlns:inkscape="http://www.inkscape.org/namespaces/inkscape"
   xmlns:sodipodi="http://sodipodi.sourceforge.net/DTD/sodipodi-0.dtd"
   xmlns="http://www.w3.org/2000/svg"
   xmlns:svg="http://www.w3.org/2000/svg">
  <defs
     id="defs10" />
  <sodipodi:namedview
     id="namedview8"
     pagecolor="#ffffff"
     bordercolor="#000000"
     borderopacity="0.25"
     inkscape:showpageshadow="2"
     inkscape:pageopacity="0.0"
     inkscape:pagecheckerboard="0"
     inkscape:deskcolor="#d1d1d1"
     inkscape:document-units="pt"
     showgrid="false"
     inkscape:zoom="1.3828125"
     inkscape:cx="83.887006"
     inkscape:cy="83.887006"
     inkscape:window-width="1920"
     inkscape:window-height="1131"
     inkscape:window-x="0"
     inkscape:window-y="32"
     inkscape:window-maximized="1"
     inkscape:current-layer="svg6" />
  <g
     transform="matrix(0.61244719,0,0,-0.61244719,-5.8488885,777.01403)"
     fill="#000000"
     stroke="none"
     id="g4">
    <path
       d="M 500,1254 C 168,1183 -50,840 24,506 107,134 500,-79 857,55 c 150,57 269,165 338,309 51,108 65,167 65,283 0,169 -60,313 -180,433 -156,157 -367,220 -580,174 z M 970,840 V 740 h -92 c -51,0 -99,-4 -105,-8 -9,-6 -13,-73 -15,-257 L 755,225 H 635 515 l -3,250 c -2,184 -6,251 -15,257 -6,4 -54,8 -104,8 h -93 v 93 c 0,52 3,97 7,100 3,4 154,7 335,7 h 328 z"
       id="path2" />
  </g>
</svg>
