<?xml version="1.0" encoding="UTF-8"?>
<svg xmlns="http://www.w3.org/2000/svg" xmlns:xlink="http://www.w3.org/1999/xlink" width="50" height="50" viewBox="0 0 50 50" version="1.1">
<defs>
<linearGradient id="linear0" gradientUnits="userSpaceOnUse" x1="-122.83" y1="616.47" x2="470.07" y2="340" gradientTransform="matrix(0.0809776,0.014252,-0.0122693,0.0940634,17.864154,-19.138518)">
<stop offset="0" style="stop-color:rgb(63.921569%,77.647059%,24.705882%);stop-opacity:1;"/>
<stop offset="0.42" style="stop-color:rgb(63.921569%,77.647059%,31.764706%);stop-opacity:1;"/>
<stop offset="1" style="stop-color:rgb(63.921569%,77.647059%,43.921569%);stop-opacity:1;"/>
</linearGradient>
<filter id="alpha" filterUnits="objectBoundingBox" x="0%" y="0%" width="100%" height="100%">
  <feColorMatrix type="matrix" in="SourceGraphic" values="0 0 0 0 1 0 0 0 0 1 0 0 0 0 1 0 0 0 1 0"/>
</filter>
<mask id="mask0">
  <g filter="url(#alpha)">
<rect x="0" y="0" width="50" height="50" style="fill:rgb(0%,0%,0%);fill-opacity:0.34902;stroke:none;"/>
  </g>
</mask>
<clipPath id="clip1">
  <rect x="0" y="0" width="51" height="50"/>
</clipPath>
<g id="surface5" clip-path="url(#clip1)">
<path style=" stroke:none;fill-rule:nonzero;fill:rgb(100%,100%,100%);fill-opacity:1;" d="M 30.054688 15.09375 C 32.308594 18.589844 31.171875 24.003906 27.511719 27.1875 C 23.855469 30.371094 19.0625 30.113281 16.808594 26.617188 "/>
</g>
<mask id="mask1">
  <g filter="url(#alpha)">
<rect x="0" y="0" width="50" height="50" style="fill:rgb(0%,0%,0%);fill-opacity:0.25098;stroke:none;"/>
  </g>
</mask>
<clipPath id="clip2">
  <rect x="0" y="0" width="51" height="50"/>
</clipPath>
<g id="surface8" clip-path="url(#clip2)">
<path style=" stroke:none;fill-rule:nonzero;fill:rgb(100%,100%,100%);fill-opacity:1;" d="M 19.367188 29.308594 C 18.058594 32.300781 16.394531 38.328125 15.003906 37.503906 C 13.605469 36.675781 16.886719 31.613281 18.203125 28.621094 "/>
</g>
<mask id="mask2">
  <g filter="url(#alpha)">
<rect x="0" y="0" width="50" height="50" style="fill:rgb(0%,0%,0%);fill-opacity:0.25098;stroke:none;"/>
  </g>
</mask>
<clipPath id="clip3">
  <rect x="0" y="0" width="51" height="50"/>
</clipPath>
<g id="surface11" clip-path="url(#clip3)">
<path style=" stroke:none;fill-rule:nonzero;fill:rgb(100%,100%,100%);fill-opacity:1;" d="M 23.40625 29.523438 C 23.40625 31.671875 24.078125 35.664062 22.878906 35.664062 C 21.683594 35.660156 22.398438 31.671875 22.398438 29.523438 "/>
</g>
<mask id="mask3">
  <g filter="url(#alpha)">
<rect x="0" y="0" width="50" height="50" style="fill:rgb(0%,0%,0%);fill-opacity:0.25098;stroke:none;"/>
  </g>
</mask>
<clipPath id="clip4">
  <rect x="0" y="0" width="51" height="50"/>
</clipPath>
<g id="surface14" clip-path="url(#clip4)">
<path style=" stroke:none;fill-rule:nonzero;fill:rgb(100%,100%,100%);fill-opacity:1;" d="M 26.121094 28.765625 C 26.5 31.132812 27.953125 35.375 26.632812 35.660156 C 25.296875 35.953125 25.390625 31.371094 25.011719 29.003906 "/>
</g>
<mask id="mask4">
  <g filter="url(#alpha)">
<rect x="0" y="0" width="50" height="50" style="fill:rgb(0%,0%,0%);fill-opacity:0.231373;stroke:none;"/>
  </g>
</mask>
<clipPath id="clip5">
  <rect x="0" y="0" width="51" height="50"/>
</clipPath>
<g id="surface17" clip-path="url(#clip5)">
<path style=" stroke:none;fill-rule:nonzero;fill:rgb(20%,20%,20%);fill-opacity:1;" d="M 47.679688 0.0703125 L 0.132812 41.121094 C -0.808594 37.246094 3.113281 27.359375 16.261719 16.109375 C 29.410156 4.859375 44.128906 -0.484375 47.679688 0.0703125 Z M 47.679688 0.0703125 "/>
</g>
<linearGradient id="linear1" gradientUnits="userSpaceOnUse" x1="421.38" y1="652.87" x2="1015.71" y2="375.73" gradientTransform="matrix(-0.0809776,-0.0123518,0.0106334,-0.0940634,76.878026,77.228917)">
<stop offset="0" style="stop-color:rgb(63.921569%,77.647059%,24.705882%);stop-opacity:1;"/>
<stop offset="0.42" style="stop-color:rgb(63.921569%,77.647059%,31.764706%);stop-opacity:1;"/>
<stop offset="1" style="stop-color:rgb(63.921569%,77.647059%,43.921569%);stop-opacity:1;"/>
</linearGradient>
<mask id="mask5">
  <g filter="url(#alpha)">
<rect x="0" y="0" width="50" height="50" style="fill:rgb(0%,0%,0%);fill-opacity:0.341176;stroke:none;"/>
  </g>
</mask>
<clipPath id="clip6">
  <rect x="0" y="0" width="51" height="50"/>
</clipPath>
<g id="surface20" clip-path="url(#clip6)">
<path style=" stroke:none;fill-rule:nonzero;fill:rgb(10.196078%,10.196078%,10.196078%);fill-opacity:1;" d="M 46.984375 0.667969 L 1.4375 39.996094 C 0.484375 36.316406 3.703125 27.359375 16.324219 16.5625 C 28.945312 5.761719 43.53125 0.175781 46.984375 0.667969 Z M 46.984375 0.667969 "/>
</g>
<mask id="mask6">
  <g filter="url(#alpha)">
<rect x="0" y="0" width="50" height="50" style="fill:rgb(0%,0%,0%);fill-opacity:0.34902;stroke:none;"/>
  </g>
</mask>
<clipPath id="clip7">
  <rect x="0" y="0" width="51" height="50"/>
</clipPath>
<g id="surface23" clip-path="url(#clip7)">
<path style=" stroke:none;fill-rule:nonzero;fill:rgb(100%,100%,100%);fill-opacity:1;" d="M 16.90625 26.761719 C 17.015625 24.292969 17.863281 23.0625 21.53125 19.914062 C 25.203125 16.765625 29.011719 14.730469 30.222656 15.363281 "/>
</g>
<mask id="mask7">
  <g filter="url(#alpha)">
<rect x="0" y="0" width="50" height="50" style="fill:rgb(0%,0%,0%);fill-opacity:0.25098;stroke:none;"/>
  </g>
</mask>
<clipPath id="clip8">
  <rect x="0" y="0" width="51" height="50"/>
</clipPath>
<g id="surface26" clip-path="url(#clip8)">
<path style=" stroke:none;fill-rule:nonzero;fill:rgb(100%,100%,100%);fill-opacity:1;" d="M 29.515625 14.4375 C 31.1875 12.4375 33.738281 8.847656 34.738281 8.613281 C 35.738281 8.375 32.027344 12.238281 30.355469 14.238281 "/>
</g>
<mask id="mask8">
  <g filter="url(#alpha)">
<rect x="0" y="0" width="50" height="50" style="fill:rgb(0%,0%,0%);fill-opacity:0.25098;stroke:none;"/>
  </g>
</mask>
<clipPath id="clip9">
  <rect x="0" y="0" width="51" height="50"/>
</clipPath>
<g id="surface29" clip-path="url(#clip9)">
<path style=" stroke:none;fill-rule:nonzero;fill:rgb(100%,100%,100%);fill-opacity:1;" d="M 26.183594 16.15625 C 26.597656 15.144531 26.804688 13.5625 27.804688 13.019531 C 28.808594 12.476562 27.4375 14.6875 27.023438 15.695312 "/>
</g>
<mask id="mask9">
  <g filter="url(#alpha)">
<rect x="0" y="0" width="50" height="50" style="fill:rgb(0%,0%,0%);fill-opacity:0.25098;stroke:none;"/>
  </g>
</mask>
<clipPath id="clip10">
  <rect x="0" y="0" width="51" height="50"/>
</clipPath>
<g id="surface32" clip-path="url(#clip10)">
<path style=" stroke:none;fill-rule:nonzero;fill:rgb(100%,100%,100%);fill-opacity:1;" d="M 23.769531 17.734375 C 23.90625 16.789062 23.515625 15.441406 24.671875 14.710938 C 25.828125 13.980469 24.882812 16.175781 24.742188 17.117188 "/>
</g>
<mask id="mask10">
  <g filter="url(#alpha)">
<rect x="0" y="0" width="50" height="50" style="fill:rgb(0%,0%,0%);fill-opacity:0.188235;stroke:none;"/>
  </g>
</mask>
<clipPath id="clip11">
  <rect x="0" y="0" width="51" height="50"/>
</clipPath>
<g id="surface35" clip-path="url(#clip11)">
<path style=" stroke:none;fill-rule:nonzero;fill:rgb(100%,100%,100%);fill-opacity:1;" d="M 3.058594 39.664062 C 13.015625 47.800781 49.3125 54.738281 46.019531 2.570312 C 49.527344 13.34375 49.746094 32.191406 37.882812 42.4375 C 26.015625 52.679688 8.296875 45.722656 3.058594 39.664062 Z M 3.058594 39.664062 "/>
</g>
</defs>
<g id="surface1">
<path style=" stroke:none;fill-rule:nonzero;fill:rgb(65.098039%,48.627451%,32.156863%);fill-opacity:1;" d="M 0.132812 41.121094 L 47.679688 0.0703125 C 51.558594 11.996094 51.796875 32.851562 38.667969 44.1875 C 25.539062 55.527344 5.929688 47.828125 0.132812 41.121094 Z M 0.132812 41.121094 "/>
<path style=" stroke:none;fill-rule:nonzero;fill:url(#linear0);" d="M 1.300781 39.921875 L 46.9375 0.515625 C 50.660156 11.960938 50.890625 31.984375 38.289062 42.863281 C 25.6875 53.746094 6.863281 46.355469 1.300781 39.921875 Z M 1.300781 39.921875 "/>
<use xlink:href="#surface5" mask="url(#mask0)"/>
<use xlink:href="#surface8" mask="url(#mask1)"/>
<use xlink:href="#surface11" mask="url(#mask2)"/>
<use xlink:href="#surface14" mask="url(#mask3)"/>
<path style=" stroke:none;fill-rule:nonzero;fill:rgb(0%,0%,0%);fill-opacity:1;" d="M 33.148438 14.835938 C 32.507812 15.167969 31.929688 15.277344 31.851562 15.078125 C 31.777344 14.878906 32.230469 14.449219 32.871094 14.117188 C 33.511719 13.78125 34.089844 13.671875 34.167969 13.871094 C 34.246094 14.070312 33.789062 14.5 33.148438 14.835938 Z M 33.148438 14.835938 "/>
<path style=" stroke:none;fill-rule:nonzero;fill:rgb(0%,0%,0%);fill-opacity:1;" d="M 35.503906 17.636719 C 34.8125 17.769531 34.226562 17.703125 34.195312 17.488281 C 34.164062 17.277344 34.699219 16.992188 35.390625 16.859375 C 36.085938 16.726562 36.667969 16.792969 36.699219 17.007812 C 36.730469 17.222656 36.195312 17.503906 35.503906 17.636719 Z M 35.503906 17.636719 "/>
<path style=" stroke:none;fill-rule:nonzero;fill:rgb(0%,0%,0%);fill-opacity:1;" d="M 22.542969 32.34375 C 22.535156 31.527344 22.679688 30.867188 22.871094 30.863281 C 23.0625 30.859375 23.21875 31.519531 23.226562 32.332031 C 23.234375 33.144531 23.089844 33.808594 22.898438 33.8125 C 22.707031 33.8125 22.550781 33.15625 22.542969 32.34375 Z M 22.542969 32.34375 "/>
<path style=" stroke:none;fill-rule:nonzero;fill:rgb(0%,0%,0%);fill-opacity:1;" d="M 25.777344 32.957031 C 25.652344 32.15625 25.703125 31.476562 25.886719 31.4375 C 26.070312 31.402344 26.320312 32.019531 26.445312 32.820312 C 26.566406 33.621094 26.519531 34.300781 26.332031 34.339844 C 26.148438 34.378906 25.898438 33.761719 25.777344 32.957031 Z M 25.777344 32.957031 "/>
<path style=" stroke:none;fill-rule:nonzero;fill:rgb(0%,0%,0%);fill-opacity:1;" d="M 16.042969 34.140625 C 16.3125 33.390625 16.675781 32.851562 16.847656 32.933594 C 17.023438 33.019531 16.941406 33.695312 16.667969 34.445312 C 16.394531 35.199219 16.035156 35.738281 15.863281 35.652344 C 15.691406 35.570312 15.769531 34.894531 16.042969 34.140625 Z M 16.042969 34.140625 "/>
<path style=" stroke:none;fill-rule:nonzero;fill:rgb(0%,0%,0%);fill-opacity:1;" d="M 34.332031 21.140625 C 33.636719 21.042969 33.089844 20.792969 33.109375 20.578125 C 33.128906 20.363281 33.710938 20.261719 34.410156 20.355469 C 35.105469 20.449219 35.652344 20.703125 35.632812 20.917969 C 35.609375 21.136719 35.027344 21.234375 34.332031 21.140625 Z M 34.332031 21.140625 "/>
<path style=" stroke:none;fill-rule:nonzero;fill:rgb(65.098039%,48.627451%,32.156863%);fill-opacity:1;" d="M 47.679688 0.0703125 L 0.132812 41.121094 C -0.808594 37.246094 3.113281 27.359375 16.261719 16.109375 C 29.410156 4.859375 44.128906 -0.484375 47.679688 0.0703125 Z M 47.679688 0.0703125 "/>
<use xlink:href="#surface17" mask="url(#mask4)"/>
<path style=" stroke:none;fill-rule:nonzero;fill:url(#linear1);" d="M 46.9375 0.707031 L 1.390625 40.039062 C 0.484375 36.316406 3.703125 27.363281 16.324219 16.5625 C 28.945312 5.761719 43.53125 0.175781 46.9375 0.707031 Z M 46.9375 0.707031 "/>
<use xlink:href="#surface20" mask="url(#mask5)"/>
<use xlink:href="#surface23" mask="url(#mask6)"/>
<use xlink:href="#surface26" mask="url(#mask7)"/>
<use xlink:href="#surface29" mask="url(#mask8)"/>
<use xlink:href="#surface32" mask="url(#mask9)"/>
<path style=" stroke:none;fill-rule:nonzero;fill:rgb(0%,0%,0%);fill-opacity:1;" d="M 15.21875 27.464844 C 15.816406 27.019531 16.324219 26.703125 16.351562 26.765625 C 16.375 26.824219 15.910156 27.234375 15.3125 27.679688 C 14.714844 28.125 14.207031 28.4375 14.183594 28.378906 C 14.15625 28.316406 14.621094 27.910156 15.21875 27.464844 Z M 15.21875 27.464844 "/>
<path style=" stroke:none;fill-rule:nonzero;fill:rgb(0%,0%,0%);fill-opacity:1;" d="M 13.792969 27.207031 C 14.394531 26.832031 14.871094 26.597656 14.855469 26.6875 C 14.839844 26.773438 14.339844 27.148438 13.734375 27.519531 C 13.132812 27.894531 12.65625 28.125 12.671875 28.039062 C 12.6875 27.953125 13.191406 27.574219 13.792969 27.207031 Z M 13.792969 27.207031 "/>
<path style=" stroke:none;fill-rule:nonzero;fill:rgb(0%,0%,0%);fill-opacity:1;" d="M 27.449219 14.4375 C 27.296875 14.816406 27.050781 15.199219 26.894531 15.28125 C 26.738281 15.367188 26.730469 15.128906 26.878906 14.746094 C 27.03125 14.367188 27.277344 13.988281 27.433594 13.90625 C 27.59375 13.824219 27.597656 14.058594 27.449219 14.4375 Z M 27.449219 14.4375 "/>
<path style=" stroke:none;fill-rule:nonzero;fill:rgb(0%,0%,0%);fill-opacity:1;" d="M 24.867188 15.601562 C 24.816406 15.925781 24.640625 16.265625 24.480469 16.367188 C 24.320312 16.472656 24.230469 16.289062 24.28125 15.96875 C 24.332031 15.644531 24.503906 15.304688 24.664062 15.203125 C 24.828125 15.097656 24.917969 15.277344 24.867188 15.601562 Z M 24.867188 15.601562 "/>
<path style=" stroke:none;fill-rule:nonzero;fill:rgb(0%,0%,0%);fill-opacity:1;" d="M 33.222656 10.664062 C 32.851562 11.136719 32.449219 11.554688 32.324219 11.59375 C 32.199219 11.632812 32.390625 11.277344 32.761719 10.800781 C 33.132812 10.324219 33.539062 9.90625 33.667969 9.871094 C 33.796875 9.832031 33.59375 10.1875 33.222656 10.664062 Z M 33.222656 10.664062 "/>
<path style=" stroke:none;fill-rule:nonzero;fill:rgb(0%,0%,0%);fill-opacity:1;" d="M 15.445312 25.023438 C 16.007812 24.753906 16.417969 24.625 16.359375 24.738281 C 16.296875 24.851562 15.792969 25.160156 15.230469 25.429688 C 14.664062 25.699219 14.257812 25.824219 14.316406 25.714844 C 14.375 25.601562 14.882812 25.292969 15.445312 25.023438 Z M 15.445312 25.023438 "/>
<use xlink:href="#surface35" mask="url(#mask10)"/>
</g>
</svg>
