<svg fill="none" height="1024" width="1024" xmlns="http://www.w3.org/2000/svg"><g clip-rule="evenodd" fill="#0dbd8b" fill-rule="evenodd"><path d="M414 204c0-23.196 18.804-42 42-42 154.64 0 280 125.36 280 280 0 23.196-18.804 42-42 42s-42-18.804-42-42c0-108.248-87.752-196-196-196-23.196 0-42-18.804-42-42zM610 820c0 23.196-18.804 42-42 42-154.64 0-280-125.36-280-280 0-23.196 18.804-42 42-42s42 18.804 42 42c0 108.248 87.752 196 196 196 23.196 0 42 18.804 42 42zM204 610c-23.196 0-42-18.804-42-42 0-154.64 125.36-280 280-280 23.196 0 42 18.804 42 42s-18.804 42-42 42c-108.248 0-196 87.752-196 196 0 23.196-18.804 42-42 42zM820 414c23.196 0 42 18.804 42 42 0 154.64-125.36 280-280 280-23.196 0-42-18.804-42-42s18.804-42 42-42c108.248 0 196-87.752 196-196 0-23.196 18.804-42 42-42z"/></g></svg>