<?xml version="1.0" standalone="no"?>
<!DOCTYPE svg PUBLIC "-//W3C//DTD SVG 20010904//EN"
 "http://www.w3.org/TR/2001/REC-SVG-20010904/DTD/svg10.dtd">
<svg version="1.0" xmlns="http://www.w3.org/2000/svg"
 width="1024.000000pt" height="1024.000000pt" viewBox="0 0 1024.000000 1024.000000"
 preserveAspectRatio="xMidYMid meet">

<g transform="translate(0.000000,1024.000000) scale(0.100000,-0.100000)"
fill="#000000" stroke="none">
<path d="M4405 9754 c-8 -9 -22 -28 -29 -42 -8 -15 -24 -36 -36 -47 -12 -11
-39 -49 -60 -85 -21 -36 -50 -76 -65 -90 -15 -14 -36 -42 -46 -63 -11 -21 -35
-55 -53 -75 -18 -20 -46 -61 -61 -90 -32 -60 -62 -85 -118 -100 -50 -14 -78
-3 -137 52 -39 37 -65 49 -174 84 -148 49 -210 57 -536 73 -341 16 -369 11
-562 -94 -124 -67 -235 -185 -306 -327 -70 -138 -72 -147 -82 -450 -11 -337
-15 -375 -41 -417 -21 -33 -21 -35 -4 -131 22 -125 41 -179 71 -198 13 -9 32
-41 44 -72 26 -68 38 -83 110 -132 30 -21 66 -49 79 -64 13 -14 45 -32 70 -41
26 -8 68 -33 95 -55 26 -22 51 -40 55 -41 3 0 112 -4 242 -8 203 -6 239 -9
263 -25 23 -15 27 -22 21 -44 -18 -74 -17 -159 4 -234 13 -47 25 -129 30 -214
10 -156 12 -163 54 -217 35 -45 47 -120 25 -150 -8 -10 -47 -25 -97 -37 -62
-15 -93 -29 -121 -53 -22 -18 -64 -41 -96 -51 -34 -11 -72 -33 -98 -56 -23
-21 -60 -43 -84 -49 -28 -8 -57 -27 -85 -56 -23 -24 -64 -53 -91 -65 -26 -11
-60 -33 -75 -49 -15 -16 -46 -35 -70 -42 -27 -8 -64 -33 -104 -71 -62 -59
-127 -118 -225 -206 -29 -26 -74 -68 -100 -93 -26 -25 -61 -54 -78 -64 -17
-10 -39 -30 -48 -46 -9 -16 -30 -36 -45 -45 -16 -10 -39 -34 -50 -55 -12 -21
-37 -47 -55 -58 -19 -12 -39 -35 -46 -51 -7 -17 -30 -44 -52 -61 -21 -17 -47
-48 -58 -68 -10 -20 -35 -49 -54 -64 -20 -15 -45 -45 -55 -65 -11 -20 -35 -52
-55 -71 -20 -20 -42 -55 -52 -83 -10 -31 -27 -57 -46 -71 -17 -12 -41 -46 -54
-76 -13 -29 -40 -71 -59 -92 -19 -21 -37 -51 -41 -66 -11 -53 -28 -86 -65
-129 -28 -32 -40 -57 -45 -91 -9 -64 -25 -102 -61 -144 -21 -23 -37 -59 -51
-112 -12 -48 -33 -97 -56 -130 -32 -47 -37 -64 -51 -166 -13 -103 -18 -120
-56 -183 -42 -69 -42 -69 -50 -204 -9 -153 -18 -193 -60 -273 -37 -70 -48
-177 -49 -471 -1 -113 -5 -263 -10 -335 -19 -267 -24 -489 -11 -528 10 -29 10
-41 1 -52 -9 -11 -7 -28 11 -77 21 -59 23 -84 28 -360 5 -257 8 -300 22 -314
22 -21 53 -11 76 26 27 42 298 335 339 367 49 37 77 23 98 -48 9 -29 16 -60
16 -68 0 -9 18 -53 41 -97 22 -45 47 -115 56 -155 15 -76 41 -137 67 -158 8
-7 23 -36 32 -64 21 -66 48 -120 68 -136 8 -7 27 -45 42 -84 15 -40 38 -87 51
-105 46 -61 58 -64 352 -66 158 -2 271 1 279 7 21 16 13 41 -21 68 -20 16 -39
46 -51 80 -11 29 -36 71 -57 94 -20 22 -42 59 -48 82 -7 27 -24 52 -46 70 -37
31 -65 86 -65 128 0 31 -23 77 -61 125 -19 23 -33 57 -40 95 -14 78 -32 119
-68 161 -31 35 -32 40 -51 184 -8 60 -21 105 -46 155 -62 128 -70 285 -16 329
14 12 40 37 59 56 18 19 42 44 54 55 11 11 32 33 47 49 15 16 50 52 79 80 28
28 56 61 62 73 7 13 25 30 41 38 17 9 41 33 55 55 14 22 38 46 55 55 18 9 39
34 52 63 21 44 27 48 77 60 30 8 66 22 79 33 19 15 28 16 38 8 19 -16 17 -29
-6 -54 -15 -16 -23 -44 -30 -105 -12 -103 -26 -148 -56 -180 -23 -26 -44 -98
-62 -222 -7 -48 -18 -77 -35 -98 -30 -35 -53 -103 -62 -184 -4 -33 -14 -74
-22 -92 -21 -42 -12 -64 26 -64 23 0 37 9 57 36 15 19 41 42 58 51 17 8 49 32
71 54 22 21 65 49 96 63 31 13 63 36 73 51 10 15 37 36 61 46 24 11 57 37 74
58 19 24 47 44 78 56 26 10 64 33 83 51 20 19 57 41 83 50 31 10 57 29 77 54
23 29 46 44 93 59 44 15 70 31 89 55 22 27 41 37 105 55 61 16 84 27 103 51
20 24 42 35 97 50 85 22 107 33 127 61 16 24 77 48 123 49 46 0 117 26 167 61
34 24 62 33 137 45 65 9 115 24 164 48 78 38 141 51 289 61 55 4 140 18 190
31 195 53 266 58 731 58 376 -1 437 -3 485 -18 155 -48 204 -57 390 -71 196
-14 244 -23 290 -55 38 -27 92 -39 235 -55 101 -12 141 -21 180 -41 90 -47
132 -55 361 -66 242 -13 579 0 644 23 19 7 52 25 73 40 21 15 64 33 95 39 92
18 119 29 137 56 9 14 37 34 63 45 26 11 65 37 87 58 22 21 63 55 90 75 42 31
125 135 125 157 0 14 58 30 84 23 48 -12 73 -70 101 -240 36 -209 25 -534 -25
-811 -11 -58 -24 -184 -30 -281 -12 -203 -20 -243 -59 -317 -20 -37 -32 -81
-41 -142 -18 -133 -28 -170 -59 -213 -28 -39 -41 -77 -61 -183 -9 -43 -21 -69
-51 -103 -21 -25 -39 -53 -39 -63 0 -46 -33 -125 -65 -155 -24 -21 -37 -46
-45 -79 -19 -87 -29 -84 266 -80 292 4 292 4 324 79 11 25 33 61 49 82 43 54
91 150 91 182 0 41 10 60 34 70 12 4 26 18 33 31 16 35 43 161 43 203 0 43 19
93 53 138 31 41 47 116 47 221 1 105 21 216 53 292 51 123 52 137 52 775 0
650 0 647 -60 790 -26 61 -36 114 -51 282 -5 57 -12 77 -45 125 -21 32 -41 72
-43 88 -22 153 -29 178 -57 210 -36 41 -55 85 -64 153 -6 44 -15 63 -51 103
-27 30 -45 62 -49 84 -3 19 -7 51 -10 70 -4 23 -17 43 -41 63 -37 31 -63 86
-64 136 0 21 -12 39 -45 69 -34 31 -49 54 -61 93 -8 28 -26 62 -41 75 -14 13
-38 51 -53 85 -20 43 -38 67 -62 82 -20 12 -46 42 -59 66 -12 24 -36 51 -51
61 -16 9 -38 35 -49 58 -12 23 -34 53 -50 65 -16 13 -36 37 -45 54 -23 45
-147 186 -208 238 -30 25 -96 84 -147 131 -52 48 -108 93 -125 102 -17 9 -39
28 -48 42 -10 14 -37 35 -61 45 -27 12 -53 33 -67 54 -13 19 -41 45 -63 57
-22 12 -56 39 -75 60 -20 21 -49 40 -65 44 -58 13 -86 28 -107 58 -12 16 -45
40 -77 54 -30 14 -71 39 -91 57 -24 21 -54 36 -93 45 -43 9 -68 22 -103 56
-38 35 -56 44 -97 49 -57 8 -93 24 -122 56 -33 36 -71 50 -157 57 -109 8 -122
21 -116 113 5 67 11 82 64 175 l29 50 3 229 c4 271 -7 375 -47 438 -35 55 -51
101 -51 147 0 55 -17 105 -50 146 -16 21 -40 64 -52 97 -13 38 -35 73 -60 96
-22 21 -43 53 -48 74 -18 65 -254 320 -335 361 -27 14 -61 37 -75 52 -14 15
-45 36 -70 47 -25 10 -61 35 -81 55 -30 29 -50 37 -109 49 -50 9 -83 22 -107
41 -20 16 -43 34 -53 41 -9 7 -76 19 -148 27 -107 12 -144 21 -210 50 -68 30
-92 35 -170 38 -71 3 -96 7 -112 22 -24 21 -27 77 -6 116 11 22 11 30 0 50
-17 31 -17 65 0 97 19 37 43 107 56 167 6 28 22 74 36 103 19 40 23 62 18 85
-11 54 -24 68 -82 94 -32 14 -76 41 -98 59 -23 18 -66 43 -96 54 -30 11 -69
31 -88 45 -40 29 -53 31 -75 9z m-1333 -939 c57 -8 166 -22 243 -31 149 -18
181 -28 214 -70 26 -33 26 -73 1 -186 -19 -88 -34 -122 -70 -168 -11 -14 -29
-58 -40 -98 -12 -43 -33 -89 -50 -110 -34 -44 -55 -91 -65 -149 -9 -59 -38
-93 -78 -93 -86 0 -378 44 -445 68 -112 39 -112 38 -112 261 0 189 14 395 30
436 11 28 96 126 124 142 28 17 124 16 248 -2z m1215 -459 c39 -43 60 -57 98
-67 29 -7 60 -24 80 -44 17 -18 42 -38 54 -44 13 -7 113 -15 259 -20 191 -6
243 -11 269 -24 17 -9 35 -22 39 -28 12 -20 88 -49 131 -49 58 0 92 -15 135
-60 25 -25 54 -43 85 -52 35 -10 54 -23 71 -48 13 -19 35 -41 50 -49 42 -21
60 -41 67 -72 4 -16 23 -41 43 -58 30 -23 42 -44 61 -103 14 -44 36 -87 55
-109 51 -56 58 -113 54 -419 -3 -166 -8 -275 -15 -291 -7 -15 -25 -40 -41 -55
-18 -18 -38 -55 -51 -95 -15 -45 -33 -76 -57 -100 -20 -19 -44 -53 -55 -76
-31 -73 -107 -71 -144 3 -24 47 -124 144 -150 144 -10 0 -41 24 -69 53 l-51
54 -89 11 c-49 6 -99 18 -112 27 -30 19 -55 19 -102 -1 -20 -8 -85 -22 -145
-29 -121 -16 -137 -22 -167 -65 -12 -16 -41 -42 -66 -56 -25 -15 -52 -40 -60
-56 -9 -17 -33 -49 -53 -72 -49 -52 -61 -77 -61 -118 0 -44 -25 -78 -56 -78
-42 0 -91 27 -110 60 -11 18 -36 41 -57 51 -21 11 -47 35 -58 54 -11 19 -35
43 -54 53 -22 13 -37 33 -45 59 -7 21 -30 57 -51 80 -22 24 -39 46 -39 50 0 5
-7 46 -15 93 -11 61 -23 96 -44 125 -43 60 -51 104 -51 290 0 181 3 192 60
281 12 19 24 63 30 115 22 177 28 201 59 233 41 44 50 67 58 138 5 56 10 67
43 98 46 43 56 62 65 124 5 39 14 56 41 80 20 17 44 50 54 73 25 58 46 55 107
-11z m751 -2146 c36 -34 74 -75 85 -93 11 -18 39 -53 63 -79 24 -26 44 -52 44
-57 0 -5 23 -36 50 -67 28 -31 50 -61 50 -66 0 -9 91 -115 157 -183 22 -22 54
-61 72 -87 17 -27 36 -48 42 -48 5 0 25 -25 45 -56 20 -31 50 -73 68 -93 18
-20 40 -49 51 -66 22 -36 95 -123 151 -179 22 -23 50 -58 63 -79 13 -21 34
-45 47 -54 13 -8 34 -31 46 -52 12 -20 38 -55 59 -78 49 -53 67 -110 49 -153
-17 -40 -44 -54 -95 -47 -61 9 -87 23 -112 62 -35 53 -65 68 -119 60 -37 -5
-56 -16 -94 -53 -71 -69 -157 -145 -177 -156 -10 -5 -39 -28 -64 -51 -73 -68
-146 -71 -186 -7 -9 15 -35 45 -57 68 -48 48 -106 136 -106 161 0 30 53 125
80 141 23 15 67 52 195 166 28 25 62 54 77 66 15 11 30 29 33 40 8 25 -12 100
-33 124 -26 28 -117 86 -136 86 -22 0 -64 -30 -133 -97 -43 -42 -61 -53 -87
-53 -37 0 -75 30 -99 76 -35 69 -36 67 67 167 138 132 139 126 -76 386 -29 35
-71 83 -93 105 -51 52 -115 157 -115 188 0 24 18 56 53 96 33 36 62 28 135
-38z m1200 -271 c38 -8 65 -21 92 -45 35 -32 73 -45 198 -70 13 -3 38 -20 55
-39 31 -33 99 -65 138 -65 11 0 38 -17 62 -38 23 -21 64 -47 92 -57 27 -10 70
-37 95 -60 25 -24 60 -46 78 -50 21 -4 44 -21 64 -46 18 -22 43 -42 57 -46 23
-6 49 -28 213 -176 31 -29 86 -79 123 -112 112 -100 211 -204 253 -265 17 -25
47 -60 66 -79 20 -18 43 -46 51 -62 9 -16 29 -36 45 -44 32 -16 53 -51 64
-101 4 -17 21 -44 39 -61 19 -18 41 -56 55 -94 15 -45 32 -72 56 -91 37 -29
40 -39 56 -184 5 -50 21 -121 35 -158 32 -86 32 -134 -5 -244 -16 -50 -30
-106 -30 -125 0 -60 -29 -125 -72 -159 -21 -18 -46 -46 -54 -64 -9 -19 -33
-41 -63 -58 -27 -14 -56 -37 -65 -51 -23 -36 -70 -57 -159 -71 -42 -7 -105
-26 -140 -42 -74 -35 -196 -57 -269 -49 -31 4 -81 21 -120 41 -72 38 -170 56
-295 56 -86 0 -158 17 -192 46 -53 44 -93 54 -265 63 -163 8 -165 9 -228 44
-39 22 -89 40 -128 47 -53 8 -292 18 -780 33 -78 2 -948 -23 -994 -29 -53 -7
-111 -28 -121 -44 -17 -28 -74 -42 -204 -51 -172 -11 -183 -14 -231 -54 -40
-33 -108 -55 -173 -55 -55 0 -107 -20 -144 -55 -20 -19 -48 -36 -62 -39 -14
-2 -57 -10 -96 -17 -57 -10 -75 -18 -100 -44 -39 -42 -65 -55 -115 -57 -62 -2
-68 11 -31 75 22 38 31 68 31 98 0 75 25 155 58 193 33 38 52 90 52 146 0 87
19 151 54 191 41 44 43 50 55 182 9 85 14 103 38 133 52 65 61 92 69 197 6 94
9 102 39 136 47 53 56 74 61 154 9 124 13 136 56 179 39 38 40 42 34 86 -6 45
-31 92 -53 99 -6 2 -24 -8 -41 -22 -17 -14 -52 -33 -77 -41 -36 -13 -50 -24
-65 -54 -10 -21 -32 -48 -47 -61 -26 -22 -151 -155 -417 -443 -56 -61 -122
-130 -147 -155 -26 -25 -53 -58 -60 -73 -8 -15 -29 -37 -48 -50 -19 -13 -42
-36 -51 -53 -9 -16 -32 -40 -51 -53 -19 -13 -42 -39 -52 -58 -10 -20 -34 -45
-53 -56 -19 -11 -41 -35 -49 -54 -8 -19 -30 -43 -50 -55 -20 -12 -45 -39 -56
-61 -12 -23 -33 -45 -53 -55 -19 -9 -40 -30 -50 -50 -9 -18 -31 -43 -50 -54
-19 -11 -44 -35 -55 -54 -11 -19 -35 -44 -55 -57 -19 -12 -41 -37 -50 -55 -8
-18 -34 -44 -56 -58 -22 -14 -40 -30 -40 -36 0 -6 -48 -59 -108 -118 -101
-102 -334 -347 -434 -455 -32 -35 -50 -47 -62 -43 -29 12 -36 50 -20 118 9 39
18 150 23 284 8 232 9 236 66 331 26 42 44 139 45 231 0 65 12 97 54 143 26
29 36 52 45 102 6 36 11 76 11 91 0 17 16 44 44 76 35 39 46 61 51 98 10 74
14 83 60 127 36 36 44 50 50 96 6 46 14 61 45 90 21 19 50 60 65 90 15 30 42
69 60 86 19 17 38 48 44 72 8 28 23 50 47 68 19 15 42 41 51 58 8 17 36 52 62
77 25 26 73 77 106 115 75 86 237 246 289 285 22 16 54 47 73 68 18 22 42 43
53 46 11 4 33 26 50 50 19 28 42 47 64 55 18 6 47 28 65 50 18 22 41 40 51 40
37 0 97 31 120 61 12 17 46 42 75 54 29 13 62 37 75 54 12 17 33 34 48 37 86
19 108 29 148 66 38 35 54 42 119 53 66 12 82 19 120 54 71 65 123 67 162 6
13 -19 41 -44 64 -55 23 -12 60 -39 82 -60 30 -26 55 -40 87 -45 35 -6 55 -18
91 -55 43 -44 49 -47 113 -54 79 -8 130 -27 166 -61 34 -32 76 -47 130 -44 69
3 78 1 90 -21 8 -15 7 -33 -4 -70 -13 -44 -13 -66 -1 -183 20 -176 21 -183 59
-214 18 -16 38 -37 43 -48 6 -11 11 -101 11 -210 0 -225 7 -261 61 -305 24
-18 46 -48 56 -73 10 -26 27 -49 46 -59 17 -10 38 -36 49 -61 23 -51 123 -151
162 -160 15 -4 36 -22 48 -41 17 -28 32 -38 78 -51 31 -9 73 -29 93 -45 77
-61 194 -64 283 -9 29 17 80 37 119 45 79 17 99 27 121 66 10 15 26 33 37 39
13 7 97 10 231 10 227 -1 272 5 309 45 13 14 54 41 91 60 42 21 69 42 73 55 4
12 34 48 66 80 44 43 59 65 59 86 0 49 20 101 54 142 61 73 61 229 0 302 -18
22 -36 57 -40 77 -17 101 -30 129 -75 152 -10 6 -30 32 -44 59 -14 29 -38 56
-58 69 -23 13 -39 33 -47 58 -7 22 -33 58 -57 81 -23 23 -43 49 -43 57 0 8
-20 35 -45 61 -25 25 -57 64 -71 85 -15 22 -41 51 -60 65 -19 14 -43 43 -53
63 -10 20 -33 48 -51 60 -33 24 -60 75 -60 112 0 11 9 29 21 41 19 19 28 21
98 15 42 -4 100 -12 129 -17z"/>
<path d="M3002 8520 c-38 -23 -52 -54 -52 -113 0 -23 -5 -58 -10 -78 -24 -88
34 -122 210 -123 143 -1 143 -1 150 142 3 59 4 117 1 130 -6 38 -39 49 -156
56 -99 6 -113 4 -143 -14z"/>
<path d="M3870 1790 c-83 -10 -95 -15 -119 -54 -11 -18 -32 -39 -47 -46 -47
-26 -57 -62 -58 -210 -1 -168 14 -208 99 -264 29 -20 57 -36 62 -36 5 0 28
-14 51 -31 22 -16 57 -33 76 -36 47 -7 131 14 165 43 15 13 50 31 77 41 44 16
51 23 64 63 9 25 29 65 45 89 24 35 30 57 33 112 4 60 1 71 -21 101 -14 18
-32 50 -40 70 -21 51 -102 135 -140 147 -47 14 -172 20 -247 11z"/>
<path d="M6174 1790 c-28 -4 -59 -12 -70 -18 -33 -18 -104 -101 -121 -140 -8
-20 -26 -52 -40 -70 -22 -30 -25 -41 -21 -101 3 -55 9 -77 33 -112 16 -24 36
-64 45 -89 13 -40 20 -47 64 -63 27 -10 62 -28 77 -41 33 -28 118 -50 162 -43
30 5 121 55 209 114 21 14 46 45 59 71 21 42 23 61 23 182 -1 148 -11 184 -58
210 -15 7 -36 28 -47 46 -12 19 -33 37 -52 43 -45 14 -203 21 -263 11z"/>
</g>
</svg>
