<svg version="1.0" xmlns="http://www.w3.org/2000/svg" width="1365.333" height="1365.333" viewBox="0 0 1024 1024"><path d="M440.5 48.6c-.8.9-2.2 2.8-2.9 4.2-.8 1.5-2.4 3.6-3.6 4.7-1.2 1.1-3.9 4.9-6 8.5-2.1 3.6-5 7.6-6.5 9-1.5 1.4-3.6 4.2-4.6 6.3-1.1 2.1-3.5 5.5-5.3 7.5-1.8 2-4.6 6.1-6.1 9-3.2 6-6.2 8.5-11.8 10-5 1.4-7.8.3-13.7-5.2-3.9-3.7-6.5-4.9-17.4-8.4-14.8-4.9-21-5.7-53.6-7.3-34.1-1.6-36.9-1.1-56.2 9.4-12.4 6.7-23.5 18.5-30.6 32.7-7 13.8-7.2 14.7-8.2 45-1.1 33.7-1.5 37.5-4.1 41.7-2.1 3.3-2.1 3.5-.4 13.1 2.2 12.5 4.1 17.9 7.1 19.8 1.3.9 3.2 4.1 4.4 7.2 2.6 6.8 3.8 8.3 11 13.2 3 2.1 6.6 4.9 7.9 6.4 1.3 1.4 4.5 3.2 7 4.1 2.6.8 6.8 3.3 9.5 5.5 2.6 2.2 5.1 4 5.5 4.1.3 0 11.2.4 24.2.8 20.3.6 23.9.9 26.3 2.5 2.3 1.5 2.7 2.2 2.1 4.4-1.8 7.4-1.7 15.9.4 23.4 1.3 4.7 2.5 12.9 3 21.4 1 15.6 1.2 16.3 5.4 21.7 3.5 4.5 4.7 12 2.5 15-.8 1-4.7 2.5-9.7 3.7-6.2 1.5-9.3 2.9-12.1 5.3-2.2 1.8-6.4 4.1-9.6 5.1-3.4 1.1-7.2 3.3-9.8 5.6-2.3 2.1-6 4.3-8.4 4.9-2.8.8-5.7 2.7-8.5 5.6-2.3 2.4-6.4 5.3-9.1 6.5-2.6 1.1-6 3.3-7.5 4.9-1.5 1.6-4.6 3.5-7 4.2-2.7.8-6.4 3.3-10.4 7.1-6.2 5.9-12.7 11.8-22.5 20.6-2.9 2.6-7.4 6.8-10 9.3-2.6 2.5-6.1 5.4-7.8 6.4-1.7 1-3.9 3-4.8 4.6-.9 1.6-3 3.6-4.5 4.5-1.6 1-3.9 3.4-5 5.5-1.2 2.1-3.7 4.7-5.5 5.8-1.9 1.2-3.9 3.5-4.6 5.1-.7 1.7-3 4.4-5.2 6.1-2.1 1.7-4.7 4.8-5.8 6.8-1 2-3.5 4.9-5.4 6.4-2 1.5-4.5 4.5-5.5 6.5-1.1 2-3.5 5.2-5.5 7.1-2 2-4.2 5.5-5.2 8.3-1 3.1-2.7 5.7-4.6 7.1-1.7 1.2-4.1 4.6-5.4 7.6-1.3 2.9-4 7.1-5.9 9.2-1.9 2.1-3.7 5.1-4.1 6.6-1.1 5.3-2.8 8.6-6.5 12.9-2.8 3.2-4 5.7-4.5 9.1-.9 6.4-2.5 10.2-6.1 14.4-2.1 2.3-3.7 5.9-5.1 11.2-1.2 4.8-3.3 9.7-5.6 13-3.2 4.7-3.7 6.4-5.1 16.6-1.3 10.3-1.8 12-5.6 18.3-4.2 6.9-4.2 6.9-5 20.4-.9 15.3-1.8 19.3-6 27.3-3.7 7-4.8 17.7-4.9 47.1-.1 11.3-.5 26.3-1 33.5-1.9 26.7-2.4 48.9-1.1 52.8 1 2.9 1 4.1.1 5.2-.9 1.1-.7 2.8 1.1 7.7 2.1 5.9 2.3 8.4 2.8 36 .5 25.7.8 30 2.2 31.4 2.2 2.1 5.3 1.1 7.6-2.6 2.7-4.2 29.8-33.5 33.9-36.7 4.9-3.7 7.7-2.3 9.8 4.8.9 2.9 1.6 6 1.6 6.8 0 .9 1.8 5.3 4.1 9.7 2.2 4.5 4.7 11.5 5.6 15.5 1.5 7.6 4.1 13.7 6.7 15.8.8.7 2.3 3.6 3.2 6.4 2.1 6.6 4.8 12 6.8 13.6.8.7 2.7 4.5 4.2 8.4 1.5 4 3.8 8.7 5.1 10.5 4.6 6.1 5.8 6.4 35.2 6.6 15.8.2 27.1-.1 27.9-.7 2.1-1.6 1.3-4.1-2.1-6.8-2-1.6-3.9-4.6-5.1-8-1.1-2.9-3.6-7.1-5.7-9.4-2-2.2-4.2-5.9-4.8-8.2-.7-2.7-2.4-5.2-4.6-7-3.7-3.1-6.5-8.6-6.5-12.8 0-3.1-2.3-7.7-6.1-12.5-1.9-2.3-3.3-5.7-4-9.5-1.4-7.8-3.2-11.9-6.8-16.1-3.1-3.5-3.2-4-5.1-18.4-.8-6-2.1-10.5-4.6-15.5-6.2-12.8-7-28.5-1.6-32.9 1.4-1.2 4-3.7 5.9-5.6 1.8-1.9 4.2-4.4 5.4-5.5 1.1-1.1 3.2-3.3 4.7-4.9 1.5-1.6 5-5.2 7.9-8 2.8-2.8 5.6-6.1 6.2-7.3.7-1.3 2.5-3 4.1-3.8 1.7-.9 4.1-3.3 5.5-5.5 1.4-2.2 3.8-4.6 5.5-5.5 1.8-.9 3.9-3.4 5.2-6.3 2.1-4.4 2.7-4.8 7.7-6 3-.8 6.6-2.2 7.9-3.3 1.9-1.5 2.8-1.6 3.8-.8 1.9 1.6 1.7 2.9-.6 5.4-1.5 1.6-2.3 4.4-3 10.5-1.2 10.3-2.6 14.8-5.6 18-2.3 2.6-4.4 9.8-6.2 22.2-.7 4.8-1.8 7.7-3.5 9.8-3 3.5-5.3 10.3-6.2 18.4-.4 3.3-1.4 7.4-2.2 9.2-2.1 4.2-1.2 6.4 2.6 6.4 2.3 0 3.7-.9 5.7-3.6 1.5-1.9 4.1-4.2 5.8-5.1 1.7-.8 4.9-3.2 7.1-5.4 2.2-2.1 6.5-4.9 9.6-6.3 3.1-1.3 6.3-3.6 7.3-5.1 1-1.5 3.7-3.6 6.1-4.6 2.4-1.1 5.7-3.7 7.4-5.8 1.9-2.4 4.7-4.4 7.8-5.6 2.6-1 6.4-3.3 8.3-5.1 2-1.9 5.7-4.1 8.3-5 3.1-1 5.7-2.9 7.7-5.4 2.3-2.9 4.6-4.4 9.3-5.9 4.4-1.5 7-3.1 8.9-5.5 2.2-2.7 4.1-3.7 10.5-5.5 6.1-1.6 8.4-2.7 10.3-5.1 2-2.4 4.2-3.5 9.7-5 8.5-2.2 10.7-3.3 12.7-6.1 1.6-2.4 7.7-4.8 12.3-4.9 4.6 0 11.7-2.6 16.7-6.1 3.4-2.4 6.2-3.3 13.7-4.5 6.5-.9 11.5-2.4 16.4-4.8 7.8-3.8 14.1-5.1 28.9-6.1 5.5-.4 14-1.8 19-3.1 19.5-5.3 26.6-5.8 73.1-5.8 37.6.1 43.7.3 48.5 1.8 15.5 4.8 20.4 5.7 39 7.1 19.6 1.4 24.4 2.3 29 5.5 3.8 2.7 9.2 3.9 23.5 5.5 10.1 1.2 14.1 2.1 18 4.1 9 4.7 13.2 5.5 36.1 6.6 24.2 1.3 57.9 0 64.4-2.3 1.9-.7 5.2-2.5 7.3-4 2.1-1.5 6.4-3.3 9.5-3.9 9.2-1.8 11.9-2.9 13.7-5.6.9-1.4 3.7-3.4 6.3-4.5 2.6-1.1 6.5-3.7 8.7-5.8 2.2-2.1 6.3-5.5 9-7.5 4.2-3.1 12.5-13.5 12.5-15.7 0-1.4 5.8-3 8.4-2.3 4.8 1.2 7.3 7 10.1 24 3.6 20.9 2.5 53.4-2.5 81.1-1.1 5.8-2.4 18.4-3 28.1-1.2 20.3-2 24.3-5.9 31.7-2 3.7-3.2 8.1-4.1 14.2-1.8 13.3-2.8 17-5.9 21.3-2.8 3.9-4.1 7.7-6.1 18.3-.9 4.3-2.1 6.9-5.1 10.3-2.1 2.5-3.9 5.3-3.9 6.3 0 4.6-3.3 12.5-6.5 15.5-2.4 2.1-3.7 4.6-4.5 7.9-1.9 8.7-2.9 8.4 26.6 8 29.2-.4 29.2-.4 32.4-7.9 1.1-2.5 3.3-6.1 4.9-8.2 4.3-5.4 9.1-15 9.1-18.2 0-4.1 1-6 3.4-7 1.2-.4 2.6-1.8 3.3-3.1 1.6-3.5 4.3-16.1 4.3-20.3 0-4.3 1.9-9.3 5.3-13.8 3.1-4.1 4.7-11.6 4.7-22.1.1-10.5 2.1-21.6 5.3-29.2 5.1-12.3 5.2-13.7 5.2-77.5 0-65 0-64.7-6-79-2.6-6.1-3.6-11.4-5.1-28.2-.5-5.7-1.2-7.7-4.5-12.5-2.1-3.2-4.1-7.2-4.3-8.8-2.2-15.3-2.9-17.8-5.7-21-3.6-4.1-5.5-8.5-6.4-15.3-.6-4.4-1.5-6.3-5.1-10.3-2.7-3-4.5-6.2-4.9-8.4-.3-1.9-.7-5.1-1-7-.4-2.3-1.7-4.3-4.1-6.3-3.7-3.1-6.3-8.6-6.4-13.6 0-2.1-1.2-3.9-4.5-6.9-3.4-3.1-4.9-5.4-6.1-9.3-.8-2.8-2.6-6.2-4.1-7.5-1.4-1.3-3.8-5.1-5.3-8.5-2-4.3-3.8-6.7-6.2-8.2-2-1.2-4.6-4.2-5.9-6.6-1.2-2.4-3.6-5.1-5.1-6.1-1.6-.9-3.8-3.5-4.9-5.8-1.2-2.3-3.4-5.3-5-6.5-1.6-1.3-3.6-3.7-4.5-5.4-2.3-4.5-14.7-18.6-20.8-23.8-3-2.5-9.6-8.4-14.7-13.1-5.2-4.8-10.8-9.3-12.5-10.2-1.7-.9-3.9-2.8-4.8-4.2-1-1.4-3.7-3.5-6.1-4.5-2.7-1.2-5.3-3.3-6.7-5.4-1.3-1.9-4.1-4.5-6.3-5.7-2.2-1.2-5.6-3.9-7.5-6-2-2.1-4.9-4-6.5-4.4-5.8-1.3-8.6-2.8-10.7-5.8-1.2-1.6-4.5-4-7.7-5.4-3-1.4-7.1-3.9-9.1-5.7-2.4-2.1-5.4-3.6-9.3-4.5-4.3-.9-6.8-2.2-10.3-5.6-3.8-3.5-5.6-4.4-9.7-4.9-5.7-.8-9.3-2.4-12.2-5.6-3.3-3.6-7.1-5-15.7-5.7-10.9-.8-12.2-2.1-11.6-11.3.5-6.7 1.1-8.2 6.4-17.5l2.9-5 .3-22.9c.4-27.1-.7-37.5-4.7-43.8-3.5-5.5-5.1-10.1-5.1-14.7 0-5.5-1.7-10.5-5-14.6-1.6-2.1-4-6.4-5.2-9.7-1.3-3.8-3.5-7.3-6-9.6-2.2-2.1-4.3-5.3-4.8-7.4-1.8-6.5-25.4-32-33.5-36.1-2.7-1.4-6.1-3.7-7.5-5.2-1.4-1.5-4.5-3.6-7-4.7-2.5-1-6.1-3.5-8.1-5.5-3-2.9-5-3.7-10.9-4.9-5-.9-8.3-2.2-10.7-4.1-2-1.6-4.3-3.4-5.3-4.1-.9-.7-7.6-1.9-14.8-2.7-10.7-1.2-14.4-2.1-21-5-6.8-3-9.2-3.5-17-3.8-7.1-.3-9.6-.7-11.2-2.2-2.4-2.1-2.7-7.7-.6-11.6 1.1-2.2 1.1-3 0-5-1.7-3.1-1.7-6.5 0-9.7 1.9-3.7 4.3-10.7 5.6-16.7.6-2.8 2.2-7.4 3.6-10.3 1.9-4 2.3-6.2 1.8-8.5-1.1-5.4-2.4-6.8-8.2-9.4-3.2-1.4-7.6-4.1-9.8-5.9-2.3-1.8-6.6-4.3-9.6-5.4-3-1.1-6.9-3.1-8.8-4.5-4-2.9-5.3-3.1-7.5-.9zm-133.3 93.9c5.7.8 16.6 2.2 24.3 3.1 14.9 1.8 18.1 2.8 21.4 7 2.6 3.3 2.6 7.3.1 18.6-1.9 8.8-3.4 12.2-7 16.8-1.1 1.4-2.9 5.8-4 9.8-1.2 4.3-3.3 8.9-5 11-3.4 4.4-5.5 9.1-6.5 14.9-.9 5.9-3.8 9.3-7.8 9.3-8.6 0-37.8-4.4-44.5-6.8-11.2-3.9-11.2-3.8-11.2-26.1 0-18.9 1.4-39.5 3-43.6 1.1-2.8 9.6-12.6 12.4-14.2 2.8-1.7 12.4-1.6 24.8.2zm121.5 45.9c3.9 4.3 6 5.7 9.8 6.7 2.9.7 6 2.4 8 4.4 1.7 1.8 4.2 3.8 5.4 4.4 1.3.7 11.3 1.5 25.9 2 19.1.6 24.3 1.1 26.9 2.4 1.7.9 3.5 2.2 3.9 2.8 1.2 2 8.8 4.9 13.1 4.9 5.8 0 9.2 1.5 13.5 6 2.5 2.5 5.4 4.3 8.5 5.2 3.5 1 5.4 2.3 7.1 4.8 1.3 1.9 3.5 4.1 5 4.9 4.2 2.1 6 4.1 6.7 7.2.4 1.6 2.3 4.1 4.3 5.8 3 2.3 4.2 4.4 6.1 10.3 1.4 4.4 3.6 8.7 5.5 10.9 5.1 5.6 5.8 11.3 5.4 41.9-.3 16.6-.8 27.5-1.5 29.1-.7 1.5-2.5 4-4.1 5.5-1.8 1.8-3.8 5.5-5.1 9.5-1.5 4.5-3.3 7.6-5.7 10-2 1.9-4.4 5.3-5.5 7.6-3.1 7.3-10.7 7.1-14.4-.3-2.4-4.7-12.4-14.4-15-14.4-1 0-4.1-2.4-6.9-5.3l-5.1-5.4-8.9-1.1c-4.9-.6-9.9-1.8-11.2-2.7-3-1.9-5.5-1.9-10.2.1-2 .8-8.5 2.2-14.5 2.9-12.1 1.6-13.7 2.2-16.7 6.5-1.2 1.6-4.1 4.2-6.6 5.6-2.5 1.5-5.2 4-6 5.6-.9 1.7-3.3 4.9-5.3 7.2-4.9 5.2-6.1 7.7-6.1 11.8 0 4.4-2.5 7.8-5.6 7.8-4.2 0-9.1-2.7-11-6-1.1-1.8-3.6-4.1-5.7-5.1-2.1-1.1-4.7-3.5-5.8-5.4-1.1-1.9-3.5-4.3-5.4-5.3-2.2-1.3-3.7-3.3-4.5-5.9-.7-2.1-3-5.7-5.1-8-2.2-2.4-3.9-4.6-3.9-5 0-.5-.7-4.6-1.5-9.3-1.1-6.1-2.3-9.6-4.4-12.5-4.3-6-5.1-10.4-5.1-29 0-18.1.3-19.2 6-28.1 1.2-1.9 2.4-6.3 3-11.5 2.2-17.7 2.8-20.1 5.9-23.3 4.1-4.4 5-6.7 5.8-13.8.5-5.6 1-6.7 4.3-9.8 4.6-4.3 5.6-6.2 6.5-12.4.5-3.9 1.4-5.6 4.1-8 2-1.7 4.4-5 5.4-7.3 2.5-5.8 4.6-5.5 10.7 1.1zM503.8 403c3.6 3.4 7.4 7.5 8.5 9.3 1.1 1.8 3.9 5.3 6.3 7.9 2.4 2.6 4.4 5.2 4.4 5.7s2.3 3.6 5 6.7c2.8 3.1 5 6.1 5 6.6 0 .9 9.1 11.5 15.7 18.3 2.2 2.2 5.4 6.1 7.2 8.7 1.7 2.7 3.6 4.8 4.2 4.8.5 0 2.5 2.5 4.5 5.6 2 3.1 5 7.3 6.8 9.3 1.8 2 4 4.9 5.1 6.6 2.2 3.6 9.5 12.3 15.1 17.9 2.2 2.3 5 5.8 6.3 7.9 1.3 2.1 3.4 4.5 4.7 5.4 1.3.8 3.4 3.1 4.6 5.2 1.2 2 3.8 5.5 5.9 7.8 4.9 5.3 6.7 11 4.9 15.3-1.7 4-4.4 5.4-9.5 4.7-6.1-.9-8.7-2.3-11.2-6.2-3.5-5.3-6.5-6.8-11.9-6-3.7.5-5.6 1.6-9.4 5.3-7.1 6.9-15.7 14.5-17.7 15.6-1 .5-3.9 2.8-6.4 5.1-7.3 6.8-14.6 7.1-18.6.7-.9-1.5-3.5-4.5-5.7-6.8-4.8-4.8-10.6-13.6-10.6-16.1 0-3 5.3-12.5 8-14.1 2.3-1.5 6.7-5.2 19.5-16.6 2.8-2.5 6.2-5.4 7.7-6.6 1.5-1.1 3-2.9 3.3-4 .8-2.5-1.2-10-3.3-12.4-2.6-2.8-11.7-8.6-13.6-8.6-2.2 0-6.4 3-13.3 9.7-4.3 4.2-6.1 5.3-8.7 5.3-3.7 0-7.5-3-9.9-7.6-3.5-6.9-3.6-6.7 6.7-16.7 13.8-13.2 13.9-12.6-7.6-38.6-2.9-3.5-7.1-8.3-9.3-10.5-5.1-5.2-11.5-15.7-11.5-18.8 0-2.4 1.8-5.6 5.3-9.6 3.3-3.6 6.2-2.8 13.5 3.8zm120 27.1c3.8.8 6.5 2.1 9.2 4.5 3.5 3.2 7.3 4.5 19.8 7 1.3.3 3.8 2 5.5 3.9 3.1 3.3 9.9 6.5 13.8 6.5 1.1 0 3.8 1.7 6.2 3.8 2.3 2.1 6.4 4.7 9.2 5.7 2.7 1 7 3.7 9.5 6 2.5 2.4 6 4.6 7.8 5 2.1.4 4.4 2.1 6.4 4.6 1.8 2.2 4.3 4.2 5.7 4.6 2.3.6 4.9 2.8 21.3 17.6 3.1 2.9 8.6 7.9 12.3 11.2 11.2 10 21.1 20.4 25.3 26.5 1.7 2.5 4.7 6 6.6 7.9 2 1.8 4.3 4.6 5.1 6.2.9 1.6 2.9 3.6 4.5 4.4 3.2 1.6 5.3 5.1 6.4 10.1.4 1.7 2.1 4.4 3.9 6.1 1.9 1.8 4.1 5.6 5.5 9.4 1.5 4.5 3.2 7.2 5.6 9.1 3.7 2.9 4 3.9 5.6 18.4.5 5 2.1 12.1 3.5 15.8 3.2 8.6 3.2 13.4-.5 24.4-1.6 5-3 10.6-3 12.5 0 6-2.9 12.5-7.2 15.9-2.1 1.8-4.6 4.6-5.4 6.4-.9 1.9-3.3 4.1-6.3 5.8-2.7 1.4-5.6 3.7-6.5 5.1-2.3 3.6-7 5.7-15.9 7.1-4.2.7-10.5 2.6-14 4.2-7.4 3.5-19.6 5.7-26.9 4.9-3.1-.4-8.1-2.1-12-4.1-7.2-3.8-17-5.6-29.5-5.6-8.6 0-15.8-1.7-19.2-4.6-5.3-4.4-9.3-5.4-26.5-6.3-16.3-.8-16.5-.9-22.8-4.4-3.9-2.2-8.9-4-12.8-4.7-5.3-.8-29.2-1.8-78-3.3-7.8-.2-94.8 2.3-99.4 2.9-5.3.7-11.1 2.8-12.1 4.4-1.7 2.8-7.4 4.2-20.4 5.1-17.2 1.1-18.3 1.4-23.1 5.4-4 3.3-10.8 5.5-17.3 5.5-5.5 0-10.7 2-14.4 5.5-2 1.9-4.8 3.6-6.2 3.9-1.4.2-5.7 1-9.6 1.7-5.7 1-7.5 1.8-10 4.4-3.9 4.2-6.5 5.5-11.5 5.7-6.2.2-6.8-1.1-3.1-7.5 2.2-3.8 3.1-6.8 3.1-9.8 0-7.5 2.5-15.5 5.8-19.3 3.3-3.8 5.2-9 5.2-14.6 0-8.7 1.9-15.1 5.4-19.1 4.1-4.4 4.3-5 5.5-18.2.9-8.5 1.4-10.3 3.8-13.3 5.2-6.5 6.1-9.2 6.9-19.7.6-9.4.9-10.2 3.9-13.6 4.7-5.3 5.6-7.4 6.1-15.4.9-12.4 1.3-13.6 5.6-17.9 3.9-3.8 4-4.2 3.4-8.6-.6-4.5-3.1-9.2-5.3-9.9-.6-.2-2.4.8-4.1 2.2-1.7 1.4-5.2 3.3-7.7 4.1-3.6 1.3-5 2.4-6.5 5.4-1 2.1-3.2 4.8-4.7 6.1-2.6 2.2-15.1 15.5-41.7 44.3-5.6 6.1-12.2 13-14.7 15.5-2.6 2.5-5.3 5.8-6 7.3-.8 1.5-2.9 3.7-4.8 5-1.9 1.3-4.2 3.6-5.1 5.3-.9 1.6-3.2 4-5.1 5.3-1.9 1.3-4.2 3.9-5.2 5.8-1 2-3.4 4.5-5.3 5.6-1.9 1.1-4.1 3.5-4.9 5.4-.8 1.9-3 4.3-5 5.5-2 1.2-4.5 3.9-5.6 6.1-1.2 2.3-3.3 4.5-5.3 5.5-1.9.9-4 3-5 5-.9 1.8-3.1 4.3-5 5.4-1.9 1.1-4.4 3.5-5.5 5.4-1.1 1.9-3.5 4.4-5.5 5.7-1.9 1.2-4.1 3.7-5 5.5-.8 1.8-3.4 4.4-5.6 5.8-2.2 1.4-4 3-4 3.6 0 .6-4.8 5.9-10.8 11.8-10.1 10.2-33.4 34.7-43.4 45.5-3.2 3.5-5 4.7-6.2 4.3-2.9-1.2-3.6-5-2-11.8.9-3.9 1.8-15 2.3-28.4.8-23.2.9-23.6 6.6-33.1 2.6-4.2 4.4-13.9 4.5-23.1 0-6.5 1.2-9.7 5.4-14.3 2.6-2.9 3.6-5.2 4.5-10.2.6-3.6 1.1-7.6 1.1-9.1 0-1.7 1.6-4.4 4.4-7.6 3.5-3.9 4.6-6.1 5.1-9.8 1-7.4 1.4-8.3 6-12.7 3.6-3.6 4.4-5 5-9.6.6-4.6 1.4-6.1 4.5-9 2.1-1.9 5-6 6.5-9s4.2-6.9 6-8.6c1.9-1.7 3.8-4.8 4.4-7.2.8-2.8 2.3-5 4.7-6.8 1.9-1.5 4.2-4.1 5.1-5.8.8-1.7 3.6-5.2 6.2-7.7 2.5-2.6 7.3-7.7 10.6-11.5 7.5-8.6 23.7-24.6 28.9-28.5 2.2-1.6 5.4-4.7 7.3-6.8 1.8-2.2 4.2-4.3 5.3-4.6 1.1-.4 3.3-2.6 5-5 1.9-2.8 4.2-4.7 6.4-5.5 1.8-.6 4.7-2.8 6.5-5 1.8-2.2 4.1-4 5.1-4 3.7 0 9.7-3.1 12-6.1 1.2-1.7 4.6-4.2 7.5-5.4 2.9-1.3 6.2-3.7 7.5-5.4 1.2-1.7 3.3-3.4 4.8-3.7 8.6-1.9 10.8-2.9 14.8-6.6 3.8-3.5 5.4-4.2 11.9-5.3 6.6-1.2 8.2-1.9 12-5.4 7.1-6.5 12.3-6.7 16.2-.6 1.3 1.9 4.1 4.4 6.4 5.5 2.3 1.2 6 3.9 8.2 6 3 2.6 5.5 4 8.7 4.5 3.5.6 5.5 1.8 9.1 5.5 4.3 4.4 4.9 4.7 11.3 5.4 7.9.8 13 2.7 16.6 6.1 3.4 3.2 7.6 4.7 13 4.4 6.9-.3 7.8-.1 9 2.1.8 1.5.7 3.3-.4 7-1.3 4.4-1.3 6.6-.1 18.3 2 17.6 2.1 18.3 5.9 21.4 1.8 1.6 3.8 3.7 4.3 4.8.6 1.1 1.1 10.1 1.1 21 0 22.5.7 26.1 6.1 30.5 2.4 1.8 4.6 4.8 5.6 7.3 1 2.6 2.7 4.9 4.6 5.9 1.7 1 3.8 3.6 4.9 6.1 2.3 5.1 12.3 15.1 16.2 16 1.5.4 3.6 2.2 4.8 4.1 1.7 2.8 3.2 3.8 7.8 5.1 3.1.9 7.3 2.9 9.3 4.5 7.7 6.1 19.4 6.4 28.3.9 2.9-1.7 8-3.7 11.9-4.5 7.9-1.7 9.9-2.7 12.1-6.6 1-1.5 2.6-3.3 3.7-3.9 1.3-.7 9.7-1 23.1-1 22.7.1 27.2-.5 30.9-4.5 1.3-1.4 5.4-4.1 9.1-6 4.2-2.1 6.9-4.2 7.3-5.5.4-1.2 3.4-4.8 6.6-8 4.4-4.3 5.9-6.5 5.9-8.6 0-4.9 2-10.1 5.4-14.2 6.1-7.3 6.1-22.9 0-30.2-1.8-2.2-3.6-5.7-4-7.7-1.7-10.1-3-12.9-7.5-15.2-1-.6-3-3.2-4.4-5.9-1.4-2.9-3.8-5.6-5.8-6.9-2.3-1.3-3.9-3.3-4.7-5.8-.7-2.2-3.3-5.8-5.7-8.1-2.3-2.3-4.3-4.9-4.3-5.7 0-.8-2-3.5-4.5-6.1-2.5-2.5-5.7-6.4-7.1-8.5-1.5-2.2-4.1-5.1-6-6.5-1.9-1.4-4.3-4.3-5.3-6.3s-3.3-4.8-5.1-6c-3.3-2.4-6-7.5-6-11.2 0-1.1.9-2.9 2.1-4.1 1.9-1.9 2.8-2.1 9.8-1.5 4.2.4 10 1.2 12.9 1.7z"/><path d="M300.2 172c-3.8 2.3-5.2 5.4-5.2 11.3 0 2.3-.5 5.8-1 7.8-2.4 8.8 3.4 12.2 21 12.3 14.3.1 14.3.1 15-14.2.3-5.9.4-11.7.1-13-.6-3.8-3.9-4.9-15.6-5.6-9.9-.6-11.3-.4-14.3 1.4zM387 845c-8.3 1-9.5 1.5-11.9 5.4-1.1 1.8-3.2 3.9-4.7 4.6-4.7 2.6-5.7 6.2-5.8 21-.1 16.8 1.4 20.8 9.9 26.4 2.9 2 5.7 3.6 6.2 3.6s2.8 1.4 5.1 3.1c2.2 1.6 5.7 3.3 7.6 3.6 4.7.7 13.1-1.4 16.5-4.3 1.5-1.3 5-3.1 7.7-4.1 4.4-1.6 5.1-2.3 6.4-6.3.9-2.5 2.9-6.5 4.5-8.9 2.4-3.5 3-5.7 3.3-11.2.4-6 .1-7.1-2.1-10.1-1.4-1.8-3.2-5-4-7-2.1-5.1-10.2-13.5-14-14.7-4.7-1.4-17.2-2-24.7-1.1zM617.4 845c-2.8.4-5.9 1.2-7 1.8-3.3 1.8-10.4 10.1-12.1 14-.8 2-2.6 5.2-4 7-2.2 3-2.5 4.1-2.1 10.1.3 5.5.9 7.7 3.3 11.2 1.6 2.4 3.6 6.4 4.5 8.9 1.3 4 2 4.7 6.4 6.3 2.7 1 6.2 2.8 7.7 4.1 3.3 2.8 11.8 5 16.2 4.3 3-.5 12.1-5.5 20.9-11.4 2.1-1.4 4.6-4.5 5.9-7.1 2.1-4.2 2.3-6.1 2.3-18.2-.1-14.8-1.1-18.4-5.8-21-1.5-.7-3.6-2.8-4.7-4.6-1.2-1.9-3.3-3.7-5.2-4.3-4.5-1.4-20.3-2.1-26.3-1.1z"/></svg>