<?xml version="1.0" encoding="utf-8"?>
<!-- Generator: Adobe Illustrator 28.3.0, SVG Export Plug-In . SVG Version: 6.00 Build 0)  -->
<svg version="1.1" id="Layer_1" xmlns="http://www.w3.org/2000/svg" xmlns:xlink="http://www.w3.org/1999/xlink" x="0px" y="0px"
	 viewBox="0 0 42 42" style="enable-background:new 0 0 42 42;" xml:space="preserve">
<path d="M38.97,12.39c0,0.31,0.02,0.63,0,0.94c-0.03,0.36-0.08,0.72-0.15,1.08c-0.09,0.51-0.2,1.01-0.33,1.51
	c-0.1,0.37-0.22,0.73-0.36,1.08c-0.31,0.77-0.66,1.52-1.12,2.21c-0.28,0.43-0.57,0.85-0.86,1.27c-0.11,0.15-0.24,0.3-0.37,0.43
	c-0.22,0.24-0.44,0.48-0.69,0.69c-0.36,0.32-0.73,0.62-1.12,0.91c-0.36,0.25-0.76,0.43-1.12,0.67c-0.4,0.27-0.87,0.38-1.3,0.59
	c-0.38,0.18-0.8,0.24-1.19,0.38c-0.5,0.18-1.02,0.22-1.53,0.33c-0.54,0.12-1.1,0.2-1.64,0.32c-0.45,0.09-0.89,0.2-1.34,0.3
	c-0.25,0.06-0.51,0.1-0.76,0.17c-0.3,0.09-0.6,0.21-0.9,0.32c-0.2,0.07-0.41,0.13-0.6,0.22c-0.28,0.14-0.54,0.32-0.82,0.46
	c-0.46,0.24-0.84,0.58-1.18,0.96c-0.29,0.32-0.55,0.68-0.8,1.04c-0.42,0.59-0.71,1.24-0.96,1.92c-0.25,0.66-0.49,1.32-0.73,1.99
	c-0.22,0.62-0.43,1.25-0.66,1.88c-0.2,0.54-0.4,1.08-0.62,1.62c-0.3,0.77-0.68,1.51-1.12,2.22c-0.33,0.53-0.68,1.05-1.14,1.48
	c-0.37,0.34-0.72,0.7-1.17,0.94c-0.45,0.24-0.91,0.45-1.4,0.56c-0.59,0.13-1.2,0.17-1.81,0.13c-0.23-0.01-0.45-0.08-0.68-0.12
	c-0.14-0.03-0.28-0.05-0.41-0.09c-0.11-0.03-0.22-0.1-0.32-0.15c-0.3-0.15-0.62-0.26-0.9-0.45c-0.34-0.24-0.66-0.5-0.96-0.78
	c-0.55-0.49-0.97-1.1-1.34-1.74c-0.25-0.43-0.48-0.87-0.68-1.32C5.7,35.91,5.56,35.45,5.4,35c-0.12-0.35-0.23-0.71-0.34-1.06
	c-0.09-0.32-0.16-0.64-0.24-0.96c-0.07-0.3-0.15-0.59-0.21-0.9c-0.11-0.54-0.21-1.07-0.32-1.61c-0.05-0.23-0.09-0.45-0.13-0.68
	c-0.06-0.34-0.11-0.68-0.17-1.02c-0.04-0.25-0.09-0.51-0.13-0.76c-0.04-0.28-0.08-0.56-0.12-0.84c-0.04-0.24-0.08-0.48-0.11-0.73
	c-0.03-0.23-0.06-0.45-0.09-0.68c-0.03-0.24-0.06-0.49-0.09-0.73c-0.03-0.24-0.05-0.47-0.08-0.71l-0.1-0.82
	c-0.01-0.1-0.02-0.19-0.03-0.29c-0.03-0.4-0.07-0.8-0.1-1.21c-0.02-0.25-0.04-0.5-0.05-0.75c-0.02-0.39-0.04-0.78-0.05-1.17
	C3.01,19.46,3,18.82,3,18.18c0-0.38,0-0.75,0.03-1.13c0.03-0.39,0.08-0.78,0.12-1.18c0.03-0.31,0.06-0.62,0.11-0.93
	c0.02-0.18,0.06-0.35,0.1-0.52c0.09-0.43,0.18-0.86,0.28-1.29c0.08-0.31,0.18-0.61,0.27-0.92c0.16-0.57,0.39-1.11,0.62-1.65
	c0.11-0.25,0.24-0.49,0.37-0.73c0.19-0.33,0.37-0.66,0.58-0.97C5.73,8.49,6,8.12,6.29,7.77C6.57,7.43,6.86,7.11,7.16,6.8
	C7.4,6.56,7.68,6.35,7.93,6.14C8.19,5.92,8.44,5.7,8.7,5.51c0.41-0.3,0.84-0.58,1.26-0.85c0.25-0.16,0.51-0.29,0.77-0.43
	c0.4-0.22,0.81-0.44,1.22-0.65c0.26-0.13,0.53-0.24,0.79-0.35c0.68-0.28,1.36-0.56,2.06-0.82c0.46-0.17,0.93-0.3,1.4-0.45
	c0.24-0.08,0.48-0.16,0.72-0.23c0.2-0.06,0.4-0.09,0.6-0.13c0.22-0.05,0.43-0.12,0.66-0.16c0.3-0.06,0.6-0.1,0.91-0.15
	c0.34-0.05,0.68-0.11,1.02-0.15c0.14-0.02,0.28-0.02,0.42-0.03c0.47-0.03,0.94-0.05,1.41-0.08c0.19-0.01,0.38-0.05,0.57-0.02
	c0.44,0.08,0.89,0.02,1.33,0.05c0.43,0.03,0.85,0.08,1.28,0.13c0.31,0.04,0.61,0.1,0.91,0.15c0.27,0.04,0.53,0.07,0.8,0.11
	c0.22,0.03,0.43,0.08,0.65,0.13c0.46,0.1,0.92,0.2,1.37,0.32c0.4,0.11,0.8,0.28,1.2,0.37c0.47,0.11,0.9,0.33,1.35,0.48
	c0.46,0.15,0.86,0.42,1.3,0.61c0.51,0.22,0.96,0.55,1.42,0.86c0.35,0.24,0.69,0.49,1,0.77c0.47,0.41,0.92,0.84,1.36,1.28
	c0.26,0.26,0.48,0.56,0.71,0.85c0.38,0.46,0.66,0.99,0.93,1.52c0.22,0.42,0.39,0.87,0.54,1.33c0.12,0.37,0.16,0.77,0.24,1.16
	c0.1,0.42,0.1,0.84,0.07,1.27C38.99,12.38,38.98,12.39,38.97,12.39z"/>
</svg>
