<svg height="400" width="400" xmlns="http://www.w3.org/2000/svg"><g fill-rule="evenodd"><path d="M2.57 50.921c-.065.169-.087 54.097-.049 119.841l.068 119.533.638 2.241c.988 3.477.903 3.456 4.495 1.076 1.428-.946 2.652-1.72 2.721-1.72s1.258-.734 2.642-1.632c1.385-.897 3.07-1.984 3.745-2.416a2396.64 2396.64 0 0 1 5.467-3.487c3.521-2.236 4.557-2.902 10.258-6.597 6.243-4.045 7.489-4.848 11.118-7.162.777-.495 2.463-1.583 3.747-2.417s2.97-1.921 3.747-2.416l2.826-1.801c.777-.495 2.629-1.696 4.115-2.669a290.056 290.056 0 0 1 4.637-2.969c3.794-2.356 3.957-2.645 2.555-4.542l-.558-.754-.063-85.39c-.068-90.939-.06-91.678.997-92.934 1.155-1.373.887-1.914-1.329-2.691-.729-.255-2.209-.815-3.29-1.243a173.997 173.997 0 0 0-3.195-1.229c-.675-.247-1.975-.736-2.888-1.086-4.366-1.673-5.065-1.934-6.325-2.362-.744-.253-2.126-.758-3.072-1.122a245.151 245.151 0 0 0-7.002-2.564c-.743-.256-2.291-.805-3.44-1.22s-3.415-1.2-5.037-1.745c-1.621-.545-3.169-1.092-3.44-1.215-.27-.124-3.421-1.181-7.002-2.348-3.581-1.168-6.898-2.265-7.371-2.438-1.87-.685-5.57-1.846-5.908-1.854-.196-.005-.8-.222-1.34-.483-1.129-.546-2.296-.633-2.467-.185m128.388 97.869c-8.675 1.574-14.49 10.79-12.281 19.467 4.663 18.314 31.443 15.111 31.443-3.761 0-10.348-8.824-17.581-19.162-15.706m65.104.09c-7.574 1.598-12.155 7.484-12.155 15.616 0 10.169 7.754 17.065 17.813 15.842 15.882-1.931 19.051-23.814 4.423-30.543-2.879-1.324-6.559-1.658-10.081-.915m65.363.004c-12.772 2.731-16.784 19.582-6.652 27.939 7.715 6.364 19.406 4.213 24.193-4.451 6.774-12.258-3.806-26.425-17.541-23.488" fill="#2473c6"/><path d="M335.175 190.306c-.212.465-.286 8.572-.288 31.389l-.002 30.762-.58 1.229c-.624 1.324-1.197 1.921-2.733 2.847l-.982.592-55.897.123-55.897.123-1.696.847c-3.268 1.634-5.289 4.423-5.794 7.998-.406 2.87-.217 48.959.206 50.476.168.599.79 1.816 1.383 2.703 1.606 2.402 67.652 68.531 67.968 68.054.127-.192.205-1.012.175-1.822-.362-9.596.093-67.004.534-67.445.488-.488.823-.492 42.691-.497 40.386-.005 42.32-.025 45.024-.474 2.776-.462 6.533-1.554 7.986-2.322.405-.214.836-.39.956-.391.501-.004 4.584-2.646 6.338-4.102 6.197-5.143 10.471-12.543 11.481-19.879.178-1.297.454-88.149.289-90.886-.055-.906-.432-1.206-1.441-1.147-3.787.224-20.292-1.124-26.714-2.18a335.547 335.547 0 0 0-5.406-.84c-3.797-.548-7.015-1.093-8.231-1.395a60.66 60.66 0 0 0-2.879-.597c-1.821-.332-5.104-1.05-7.931-1.734-.879-.213-2.776-.643-4.217-.956s-2.843-.689-3.117-.836c-.726-.388-.91-.335-1.226.36M65.322 256.58c-.357.3-1.518 1.086-2.58 1.746s-3.147 1.997-4.634 2.969a517.877 517.877 0 0 1-4.115 2.669l-2.826 1.801c-.777.495-2.463 1.582-3.747 2.416s-2.97 1.922-3.747 2.417c-3.629 2.314-4.875 3.117-11.118 7.162a1237.55 1237.55 0 0 1-13.083 8.399 707.477 707.477 0 0 0-6.387 4.101c-1.384.898-2.573 1.632-2.642 1.632s-1.293.774-2.721 1.72c-1.427.946-2.703 1.72-2.836 1.72-1.013 0 1.917 6.217 4.573 9.704 2.668 3.502 9.945 9.451 11.574 9.462.121.001.552.179.957.396 1.423.762 5.188 1.855 7.985 2.318 4.4.729 148.34.743 150.886.015 2.932-.839 5.334-2.877 6.693-5.679l.775-1.597v-44.963l-.77-1.619c-1.042-2.188-3.022-4.182-5.168-5.201l-1.678-.797-56.02-.123-56.02-.123-1.034-.553c-1.272-.679-1.5-.679-2.317.008" fill="#e2524b"/><path d="M28.993 11.652c-.338.182-1.223.412-1.966.511s-1.762.388-2.263.643c-.501.254-1.074.462-1.273.462-1.8 0-8.701 4.635-11.888 7.985-2.712 2.851-3.886 4.472-5.336 7.371a40.103 40.103 0 0 1-.834 1.597c-.536.905-1.53 3.838-1.653 4.877-.075.629-.348 1.661-.607 2.294-.415 1.016-.47 1.796-.47 6.665 0 6.098-.071 5.835 1.691 6.306.592.158 1.255.393 1.474.522.219.128 1.171.442 2.117.697 1.686.454 3.319.956 6.511 2.001 1.524.499 2.534.844 5.283 1.803.676.236 1.892.633 2.703.883.81.249 2.414.799 3.562 1.221 1.149.422 2.697.935 3.44 1.141s1.596.532 1.896.724c.299.193.712.35.918.35s1.067.266 1.913.59 2.036.755 2.644.957c.608.203 2.045.717 3.194 1.143s2.531.896 3.071 1.044c.541.148 1.115.372 1.276.497.161.126.935.434 1.72.686s2.201.753 3.147 1.114c2.01.768 4.939 1.86 6.511 2.428.608.22 1.327.505 1.597.633.475.226 2.78 1.099 4.545 1.722.473.167 1.303.507 1.843.756 1.535.706 3.818 1.261 4.267 1.038.221-.11 25.61-.255 56.421-.323l56.02-.123 1.688-.731c2.038-.883 4.1-2.788 5.326-4.92l.848-1.474V18.305l-.67-1.194c-1.232-2.193-3.684-4.483-5.407-5.051-.505-.166-.982-.405-1.059-.53-.247-.4-151.456-.278-152.2.122m188.489.29c-3.157 1.442-5.402 3.971-6.05 6.816-.19.832-.459 1.955-.6 2.495-.166.639-.257 7.729-.261 20.237l-.006 19.254.628 2.555c.963 3.923 2.615 6.034 6.006 7.676l1.843.892 55.897.123 55.896.123 1.11.777c3.273 2.293 2.944-4.43 2.948 60.134.002 30.553.063 55.772.136 56.042.155.574 1.596 1.106 4.901 1.81 1.214.259 2.926.645 3.805.859 2.741.668 6.083 1.4 7.931 1.737a60.66 60.66 0 0 1 2.879.597c1.216.302 4.434.847 8.231 1.395 1.352.195 3.784.573 5.406.84 8.876 1.46 27.373 2.698 27.944 1.869.295-.426.227-160.051-.068-161.195-.563-2.185-1.298-4.483-1.768-5.528-1.112-2.472-2.066-4.324-2.714-5.268-.377-.549-.976-1.44-1.331-1.981-1.082-1.643-5.733-6.095-7.69-7.358a199.664 199.664 0 0 1-2.461-1.611c-.341-.232-.894-.503-1.229-.604s-.86-.341-1.166-.534c-.792-.499-4.402-1.729-5.684-1.936-.594-.096-1.447-.328-1.896-.515-.69-.288-12.423-.338-76.069-.321l-75.254.02z" fill="#fbb804"/><path d="M27.027 10.826c-.878.259-2.082.587-2.675.728s-1.354.474-1.691.74c-.338.265-.809.482-1.048.482-.444 0-2.731 1.128-3.731 1.84a73.32 73.32 0 0 1-2.13 1.397c-1.667 1.06-6.715 5.945-7.756 7.504-2.194 3.286-2.582 3.904-2.591 4.124-.006.135-.227.522-.491.86s-.483.779-.486.98c-.003.2-.264.919-.581 1.597-.875 1.873-1.395 3.498-1.781 5.564-.472 2.527-.394 254.329.079 255.741.264.788 1.183 3.322 2.095 5.774.356.959 1.255 2.687 2.427 4.669 2.697 4.56 9.115 10.567 12.989 12.158.338.139.891.406 1.229.594 1.573.873 4.995 1.99 8.722 2.848.586.135 31.239.23 76.02.237l75.038.01 1.375-.641c2.873-1.341 5.921-3.999 5.921-5.165 0-.185.098-.336.219-.336 1.317 0 1.489-2.886 1.495-25.126.007-24.91.111-24.101-3.591-27.803-3.903-3.904 1.67-3.582-62.164-3.582-61.908 0-55.994.234-57.594-2.287l-.965-1.522-.002-87.693-.003-87.694.763-1.188c.419-.654.862-1.189.983-1.189s.22-.15.22-.334c0-.618 2.29-.644 57.125-.655 53.393-.01 54.566-.02 55.528-.485.541-.261 1.289-.479 1.663-.483 2.332-.029 6.199-3.792 7.667-7.462l.621-1.553V41.334c0-14.083-.087-22.194-.239-22.288-.131-.081-.362-.613-.513-1.182-.618-2.325-3.264-5.332-5.916-6.723l-1.563-.819-76.535.016c-74.714.016-76.574.028-78.133.488m189.341.3c-2.189 1.176-4.703 3.813-5.775 6.057l-.888 1.859v44.963l.774 1.634c.863 1.82 1.012 2.022 3.007 4.058 1.744 1.78 3.226 2.672 4.819 2.9.675.097 1.383.304 1.573.46.258.213 14.317.316 55.662.407 50.575.113 55.369.158 55.928.523.336.221.939.875 1.34 1.454l.73 1.053.083 87.704c.091 95.304.172 88.932-1.149 90.306-1.538 1.601 1.682 1.515-57.238 1.518-58.26.003-57.227-.02-58.722 1.292-.23.202-.64.438-.91.525-1.298.417-4.035 3.692-4.947 5.92l-.704 1.72v50.369l.704 1.71c1.064 2.583.63 2.13 35.749 37.387 18.059 18.13 33.082 33.251 33.386 33.604.588.684 1.553.844 1.982.328.178-.216.283-11.119.337-34.992.043-19.074.17-34.772.282-34.884.113-.113 19.904-.26 43.981-.328 40.182-.113 43.856-.156 44.758-.533.541-.226 1.646-.576 2.457-.778 1.852-.46 3.819-1.181 4.577-1.677a5.878 5.878 0 0 1 1.197-.574c.338-.107.957-.454 1.375-.773.418-.318.833-.579.923-.579s.632-.333 1.206-.74c.573-.407 1.318-.93 1.656-1.162 3.919-2.69 9.894-10.946 11.159-15.42a78.81 78.81 0 0 1 .706-2.334c1.386-4.274 1.274 6.655 1.343-130.783.056-111.764.022-125.333-.312-125.979-.205-.398-.44-1.25-.521-1.895-.082-.644-.344-1.516-.584-1.938-.239-.422-.512-1.22-.605-1.774-.094-.554-.382-1.276-.641-1.606-.259-.329-.471-.756-.471-.948s-.306-.838-.679-1.435c-1.088-1.743-1.256-2.022-1.76-2.929-.263-.473-.985-1.397-1.604-2.052a52.873 52.873 0 0 1-1.996-2.255c-1.434-1.75-5.976-5.325-8.089-6.366a14.723 14.723 0 0 1-1.474-.863c-.406-.275-.946-.501-1.2-.502s-.848-.24-1.32-.531c-.471-.292-1.258-.617-1.748-.722a51.034 51.034 0 0 1-2.612-.692c-1.713-.497-2.024-.499-78.01-.491l-76.29.008zm-34.15.341c2.411 1.096 4.017 2.515 5.553 4.908 1.43 2.227 1.418 2.015 1.418 25.148 0 22.724-.02 23.119-1.248 24.844-.26.364-.472.766-.472.893 0 .506-2.983 3.248-4.216 3.875-2.755 1.402.461 1.328-58.183 1.338-57.636.009-58.731.031-58.731 1.15 0 .162-.298.649-.663 1.083-1.057 1.256-1.065 1.995-.997 92.934l.063 85.39.558.754c.306.415.663 1.032.792 1.372.137.361.429.618.702.618.257 0 .896.193 1.419.43.895.404 4.293.437 56.848.553l55.897.123 1.764.915c3.101 1.61 5.395 4.477 5.969 7.46.2 1.037.258 7.645.205 23.074l-.075 21.622-.884 1.843c-1.314 2.738-3.146 4.425-6.157 5.667l-1.759.725-74.838-.064c-83.453-.07-74.991.109-80.613-1.708-6.525-2.109-12.998-7.059-16.642-12.728a173.35 173.35 0 0 0-1.28-1.966c-1.147-1.716-2.611-5.472-2.318-5.946.074-.12.004-.376-.156-.568-.16-.193-.582-1.377-.938-2.631l-.647-2.28-.114-119.902c-.062-65.946-.153-122.476-.202-125.623-.116-7.578 1.268-13.27 4.375-17.989.222-.338.835-1.265 1.362-2.061 1.957-2.956 6.385-7.158 9.68-9.186 2.361-1.453 7.613-3.732 8.642-3.751.315-.005 1.125-.217 1.801-.47 1.19-.445 3.591-.46 76.936-.481l75.707-.021zm188.727-.198c.778.252 2.016.6 2.751.772 7.699 1.805 16.762 9.591 20.302 17.443.214.473.601 1.31.861 1.859s.473 1.191.473 1.425.171.757.38 1.161.597 1.923.862 3.375c.677 3.708.617 250.549-.062 253.974-2.346 11.827-10.796 21.546-21.865 25.146-5.487 1.785-.909 1.621-49.143 1.758-32.516.092-43.487.194-43.701.408-.213.213-.314 8.998-.396 34.644-.115 35.853-.098 34.972-.662 34.972-.319 0-65.712-65.316-67.4-67.321-1.165-1.384-1.795-2.575-2.304-4.353-.668-2.336-.747-48.946-.087-51.509.829-3.221 2.971-5.814 5.999-7.262l1.843-.881 55.651-.123c52.92-.117 55.7-.145 56.634-.566 1.299-.584 2.497-1.771 2.882-2.856.491-1.382.272-176.444-.222-177.656-.452-1.108-1.191-1.887-2.414-2.546l-.983-.529-55.528-.131c-39.174-.093-55.782-.211-56.388-.4-3.466-1.084-6.432-4.072-7.492-7.548l-.617-2.02V20.516l.576-1.865c.965-3.127 3.126-5.6 6.201-7.095l1.454-.708 75.491-.018c73.043-.019 75.536-.004 76.904.439M130.098 147.801c-.54.212-1.369.502-1.842.644-2.414.724-6.388 3.779-7.797 5.993-.166.262-.589.907-.939 1.434-2.091 3.149-3.032 10.664-1.694 13.538.189.406.499 1.185.69 1.733 2.9 8.328 13.744 12.667 22.639 9.059 3.794-1.54 9.458-8.159 9.459-11.055 0-.28.177-1.027.392-1.66 1.021-2.997-.294-9.128-2.694-12.561-1.272-1.82-4.613-5.049-5.224-5.049-.122 0-.629-.276-1.126-.614s-1.105-.614-1.351-.614c-.245 0-.887-.244-1.425-.541-1.314-.725-7.492-.934-9.088-.307m65.848-.135c-1.649.487-3.708 1.29-4.054 1.581-.203.17-.573.383-.823.472-1.795.639-5.367 4.51-6.835 7.406-3.889 7.675-.364 18.737 7.078 22.212.559.261 1.086.586 1.17.722s.511.32.948.409c.438.089 1.381.373 2.095.633 1.807.656 6.123.661 8.107.01a34.836 34.836 0 0 1 2.123-.629c.394-.093.99-.383 1.323-.645s.747-.476.92-.476c1.41 0 6.633-5.931 7.356-8.354.101-.337.409-1.111.685-1.72.433-.955.501-1.606.501-4.791 0-3.184-.068-3.835-.501-4.791-.276-.608-.584-1.382-.685-1.72-.896-2.999-5.051-7.371-8.597-9.044-2.889-1.363-8.337-2.006-10.811-1.275m65.356-.001c-13.949 4.117-18.006 21.404-7.038 29.998.588.461 1.196.953 1.351 1.093 1.644 1.486 6.104 2.816 9.439 2.816 2.708 0 7.005-1.038 7.684-1.855.162-.196.425-.356.584-.356.599 0 3.347-2.248 4.487-3.669 1.927-2.404 2.211-2.811 2.406-3.456.102-.338.379-.946.616-1.351.499-.852 1.233-4.675 1.233-6.424.003-6.567-3.954-12.74-9.951-15.524-2.945-1.367-8.338-2.001-10.811-1.272m-123.823.957c17.507 3.613 16.862 29.083-.808 31.862-14.689 2.31-24.379-14.824-14.916-26.378 2.653-3.239 5.263-4.67 10.555-5.788 1.136-.24 3.089-.125 5.169.304m65.554.026c17.481 3.865 16.709 29.027-.977 31.828-9.863 1.562-18.512-5.903-18.515-15.98-.002-10.51 9.327-18.095 19.492-15.848m66.132.125c11.696 3.047 15.943 17.768 7.715 26.747-8.577 9.36-23.902 5.559-27.484-6.817-1.022-3.532-.392-9.025 1.36-11.856 2.366-3.825 3.767-5.187 7.133-6.939 3.178-1.654 7.58-2.097 11.276-1.135" fill="#e7d6cb"/><path d="M28.133 11.313c-.676.253-1.486.465-1.801.47-1.029.019-6.281 2.298-8.642 3.751-3.295 2.028-7.723 6.23-9.68 9.186-.527.796-1.14 1.723-1.362 2.061-2.967 4.507-4.438 10.292-4.433 17.44.004 6.248.027 6.39 1.069 6.402.424.004 1.212.222 1.753.483.54.261 1.144.478 1.34.483.338.008 4.038 1.169 5.908 1.854.473.173 3.79 1.27 7.371 2.438 3.581 1.167 6.732 2.224 7.002 2.348.271.123 1.819.67 3.44 1.215 1.622.545 3.888 1.33 5.037 1.745s2.697.964 3.44 1.22c1.876.647 4.958 1.775 7.002 2.564.946.364 2.328.869 3.072 1.122 1.273.432 2.615.933 6.388 2.384.878.338 2.15.817 2.825 1.064.676.248 2.113.801 3.195 1.229 1.081.428 2.566.989 3.299 1.246.734.257 1.537.651 1.785.875.42.38.597.38 2.597-.003 1.966-.377 6.7-.412 56.323-.419 58.655-.008 55.437.066 58.192-1.336 1.233-.627 4.216-3.369 4.216-3.875 0-.127.212-.529.472-.893 1.228-1.725 1.248-2.12 1.248-24.844 0-23.133.012-22.921-1.418-25.148-1.536-2.393-3.142-3.812-5.553-4.908l-1.442-.656-75.707.021c-73.345.021-75.746.036-76.936.481m188.963.243c-3.075 1.495-5.236 3.968-6.201 7.095l-.576 1.865V62.505l.617 2.02c1.06 3.476 4.026 6.464 7.492 7.548.606.189 17.214.307 56.388.4l55.528.131.983.529c1.223.659 1.962 1.438 2.414 2.546.494 1.212.713 176.274.222 177.656-.385 1.085-1.583 2.272-2.882 2.856-.934.421-3.714.449-56.634.566l-55.651.123-1.843.881c-3.028 1.448-5.17 4.041-5.999 7.262-.66 2.563-.581 49.173.087 51.509.509 1.778 1.139 2.969 2.304 4.353 1.688 2.005 67.081 67.321 67.4 67.321.564 0 .547.881.662-34.972.082-25.646.183-34.431.396-34.644.214-.214 11.185-.316 43.701-.408 48.234-.137 43.656.027 49.143-1.758 11.069-3.6 19.519-13.319 21.865-25.146.679-3.425.739-250.266.062-253.974-.265-1.452-.653-2.971-.862-3.375s-.38-.927-.38-1.161-.213-.876-.473-1.425-.647-1.386-.861-1.859c-2.257-5.006-6.928-10.305-11.934-13.538-3.028-1.956-6.029-3.356-8.368-3.905a41.607 41.607 0 0 1-2.751-.772c-1.368-.443-3.861-.458-76.904-.439l-75.491.018zm-35.903-.026c.077.125.554.364 1.059.53 1.723.568 4.175 2.858 5.407 5.051l.67 1.194v46.437l-.848 1.474c-1.226 2.132-3.288 4.037-5.326 4.92l-1.688.731-56.02.123c-30.811.068-56.2.213-56.421.323-.449.223-2.732-.332-4.267-1.038-.54-.249-1.37-.589-1.843-.756-1.765-.623-4.07-1.496-4.545-1.722-.27-.128-.989-.413-1.597-.633a467.263 467.263 0 0 1-6.511-2.428c-.946-.361-2.362-.862-3.147-1.114s-1.559-.56-1.72-.686c-.161-.125-.735-.349-1.276-.497-.54-.148-1.922-.618-3.071-1.044s-2.586-.94-3.194-1.143c-.608-.202-1.798-.633-2.644-.957s-1.707-.59-1.913-.59-.619-.157-.918-.35c-.3-.192-1.153-.518-1.896-.724s-2.291-.719-3.44-1.141a86.96 86.96 0 0 0-3.562-1.221 94.089 94.089 0 0 1-2.703-.883c-2.749-.959-3.759-1.304-5.283-1.803-3.192-1.045-4.825-1.547-6.511-2.001-.946-.255-1.898-.569-2.117-.697-.219-.129-.882-.364-1.474-.522-1.762-.471-1.691-.208-1.691-6.306 0-4.869.055-5.649.47-6.665.259-.633.532-1.665.607-2.294.123-1.039 1.117-3.972 1.653-4.877.121-.203.495-.921.834-1.597 2.899-5.793 7.951-10.767 14.215-13.993 1.456-.75 2.81-1.363 3.009-1.363s.772-.208 1.273-.462c.501-.255 1.52-.544 2.263-.643s1.628-.329 1.966-.511c.744-.4 151.953-.522 152.2-.122m188.926.113c.449.187 1.302.419 1.896.515 1.282.207 4.892 1.437 5.684 1.936.306.193.831.433 1.166.534s.888.372 1.229.604c.34.231 1.448.956 2.461 1.611 1.957 1.263 6.608 5.715 7.69 7.358.355.541.954 1.432 1.331 1.981.648.944 1.602 2.796 2.714 5.268.469 1.042 1.199 3.323 1.769 5.528.423 1.633.411 250.472-.011 253.539-1.342 9.739-10.468 21.852-18.161 24.105-.338.099-.732.274-.876.388-.609.484-5.108 1.766-7.724 2.201-2.704.449-4.638.469-45.024.474-41.868.005-42.203.009-42.691.497-.441.441-.896 57.849-.534 67.445.03.81-.048 1.63-.175 1.822-.316.477-66.362-65.652-67.968-68.054-.593-.887-1.215-2.104-1.383-2.703-.423-1.517-.612-47.606-.206-50.476.505-3.575 2.526-6.364 5.794-7.998l1.696-.847 55.897-.123 55.897-.123.982-.592c1.417-.854 2.066-1.488 2.666-2.602l.529-.983.152-31.326c.084-17.23.152-31.493.152-31.696-.259-107.557-.296-113.122-.741-114.238-.521-1.305-.917-1.769-2.385-2.798l-1.11-.777-55.896-.123-55.897-.123-1.843-.892c-3.391-1.642-5.043-3.753-6.006-7.676l-.628-2.555.006-19.254c.004-12.508.095-19.598.261-20.237.141-.54.41-1.663.6-2.495.648-2.845 2.893-5.374 6.05-6.816l1.314-.6 75.254-.02c63.646-.017 75.379.033 76.069.321M131.71 148.425c-1.43.281-1.89.513-.629.318a68.795 68.795 0 0 1 2.826-.334l1.842-.183-1.474-.007c-.811-.005-1.965.088-2.565.206m65.724-.054c-.398.085.591.155 2.197.155 1.607 0 2.596-.07 2.198-.155-.398-.086-1.387-.156-2.198-.156-.81 0-1.799.07-2.197.156m65.342-.003c-.478.121.084.181 1.597.172 1.284-.008 2.887.065 3.563.161.98.14 1.079.126.492-.069-.976-.324-4.719-.498-5.652-.264m-136.005 1.644c-1.841.982-3.467 2.265-4.663 3.677-.537.634-.314.479.632-.439 1.768-1.715 2.429-2.18 4.649-3.269.942-.463 1.55-.838 1.351-.834s-1.085.393-1.969.865m66.458-.49c-.47.376-.469.379.014.156.271-.124.657-.287.86-.363.319-.118.317-.139-.014-.156-.211-.01-.598.153-.86.363m77.287-.207c.203.076.59.239.86.363.483.223.484.22.014-.156-.262-.21-.649-.373-.86-.363-.33.017-.332.038-.014.156m-79.512 1.341c-.916.689-1.324 1.083-.832.803.932-.53 2.01-1.336 1.787-1.336-.135 0-.566.24-.955.533m82.242.03c1.189.805 1.447.954 1.447.836 0-.158-1.84-1.399-2.075-1.399-.113 0 .17.253.628.563m-84.934 2.201c-1.183 1.242-2.576 2.906-1.799 2.15.875-.852 3.234-3.44 3.135-3.44-.059 0-.66.581-1.336 1.29m22.499.061c.734.744 1.39 1.352 1.457 1.352.068 0-.477-.608-1.211-1.352-.734-.743-1.39-1.351-1.458-1.351-.067 0 .478.608 1.212 1.351m65.356 0c.734.744 1.39 1.352 1.457 1.352.068 0-.477-.608-1.211-1.352-.734-.743-1.39-1.351-1.458-1.351-.067 0 .478.608 1.212 1.351m-131.204-.537c0 .042.359.402.799.799l.798.721-.721-.798c-.673-.745-.876-.912-.876-.722m108.14 1.023c-.558.605-1.015 1.177-1.015 1.27s.037.123.081.067c.045-.057.557-.628 1.137-1.27.581-.642 1.001-1.167.933-1.167-.067 0-.579.495-1.136 1.1m-40.48 1.603c.219.338.677 1.139 1.017 1.781.341.642.674 1.167.742 1.167.204 0-1.06-2.291-1.627-2.948l-.53-.614zm65.773.614c1.017 1.566 1.464 2.022.722.737-.313-.54-.782-1.204-1.044-1.474s-.118.061.322.737m-130.321.846c.375.669.723 1.175.773 1.125.106-.106-1.176-2.339-1.343-2.339-.062 0 .194.546.57 1.214m.837 1.611c0 .135.158.522.351.86s.351.504.351.369c0-.136-.158-.523-.351-.86-.193-.338-.351-.504-.351-.369m35.403.993c-.412.904-.333 1.097.112.275.208-.383.332-.743.276-.799s-.231.18-.388.524m95.822-.01c-.001.135.148.633.33 1.106s.334.694.339.491c.004-.203-.145-.7-.33-1.106-.186-.405-.338-.626-.339-.491m-30.712 1.071c-.157.523-.277 1.105-.268 1.292.01.187.182-.197.384-.853.201-.657.322-1.238.268-1.292-.055-.054-.227.33-.384.853m-130.975.548c-.166.555-.257 1.054-.202 1.109.056.055.237-.353.403-.908.166-.554.257-1.053.201-1.108-.055-.056-.236.353-.402.907m96.713-.022c.086.473.234 1.302.329 1.843l.171.983.012-.86c.007-.473-.141-1.303-.328-1.843-.33-.955-.336-.958-.184-.123m33.788 1.966c0 .473.051.666.113.43a2.011 2.011 0 0 0 0-.86c-.062-.237-.113-.043-.113.43m-65.323 1.842c0 1.352.042 1.873.092 1.159.049-.714.049-1.819-.002-2.457-.05-.637-.091-.053-.09 1.298m-65.605 0c0 1.217.041 1.745.093 1.175.051-.57.052-1.566.001-2.211-.051-.646-.093-.18-.094 1.036m32.186.123c0 1.149.042 1.619.094 1.044.051-.574.051-1.514 0-2.088-.052-.574-.094-.104-.094 1.044m65.573-.246c0 .473.05.667.112.43a2.011 2.011 0 0 0 0-.86c-.062-.236-.112-.043-.112.43m-.359 2.335a40.162 40.162 0 0 1-.304 1.842c-.069.338.042.117.247-.491s.341-1.437.303-1.843c-.054-.569-.11-.458-.246.492m33.521-.369c-.007.473.141 1.302.328 1.843.33.955.336.958.184.123a302.13 302.13 0 0 1-.328-1.843l-.172-.983zm-130.727.86c.002.513.653 2.396.679 1.966.009-.136-.141-.744-.333-1.352s-.347-.884-.346-.614m162.176 1.769c-.363 1.185-.187 1.361.197.197.162-.491.247-.941.188-.999-.058-.059-.231.302-.385.802m-96.346.197c0 .135.158.522.351.86.193.337.351.503.351.368s-.158-.522-.351-.86-.351-.504-.351-.368m94.89 3.267c-1.36 2.474-3.849 4.895-6.578 6.398-.271.149-.375.274-.233.278 1.523.044 8.47-7.193 7.671-7.992-.048-.049-.435.544-.86 1.316m-158.788.193c0 .124.286.557.634.962l.634.737-.555-.86c-.712-1.103-.715-1.106-.713-.839m132.132 1.945c.142.27.678.878 1.191 1.351.848.781.126-.148-1.336-1.72-.063-.067.002.099.145.369m-130.293.615c1.165 1.361 1.181 1.376.915.859-.14-.27-.568-.767-.952-1.105l-.698-.613zm89.18.517c-.534.555-1.689 1.494-2.566 2.088s-1.506 1.08-1.399 1.08c.403 0 3.035-1.962 4.089-3.048.602-.621 1.039-1.129.971-1.129s-.561.454-1.095 1.009m-23.084.219c.527.541 1.015.983 1.082.983.068 0-.309-.442-.837-.983-.528-.54-1.015-.982-1.082-.982-.068 0 .309.442.837.982m-42.522.062-.722.798.799-.721c.439-.397.798-.757.798-.799 0-.19-.202-.023-.875.722m-21.853.883c.268.316.709.689.981.828.522.267.446.185-.732-.794-.71-.589-.719-.59-.249-.034m65.847.282c.195.314 2.347 1.795 2.449 1.684.043-.047-.524-.499-1.26-1.005-.736-.507-1.271-.812-1.189-.679m66.832 1.086c.406.348.839.634.963.635.266.001.263-.001-.84-.713l-.86-.555zm-116.093 1.127c-.473.259-.75.471-.614.471.135 0 .632-.212 1.105-.471s.75-.471.614-.471c-.135 0-.632.212-1.105.471m65.356 0c-.473.259-.749.471-.614.471s.633-.212 1.106-.471c.472-.259.749-.471.614-.471s-.633.212-1.106.471m52.826 0c.473.259.97.471 1.105.471s-.141-.212-.614-.471-.97-.471-1.106-.471c-.135 0 .142.212.615.471m-65.111.123c.338.193.725.351.86.351s-.031-.158-.369-.351c-.337-.193-.724-.351-.859-.351-.136 0 .03.158.368.351m-60.811 1.107c.994.218 2.749.323 2.56.152-.057-.051-.877-.155-1.823-.231-1.321-.106-1.492-.087-.737.079m3.133-.078c.236.062.623.062.86 0 .236-.061.043-.112-.43-.112s-.667.051-.43.112m61.671 0c.236.062.623.062.86 0 .236-.061.043-.112-.43-.112s-.667.051-.43.112m3.685 0c.237.062.624.062.86 0 .237-.061.043-.112-.43-.112s-.666.051-.43.112m61.671 0c.236.062.623.062.86 0 .236-.061.043-.112-.43-.112s-.666.051-.43.112m3.931 0c.237.062.624.062.86 0 .237-.061.043-.112-.43-.112s-.666.051-.43.112m-67.442.25c.306.059.748.057.983-.005.235-.061-.015-.109-.556-.106-.54.002-.732.053-.427.111m65.354 0c.304.059.801.059 1.105 0 .304-.058.056-.106-.552-.106-.609 0-.857.048-.553.106M67.322 256.452l1.351.673 56.02.123 56.02.123 1.678.797c2.146 1.019 4.126 3.013 5.168 5.201l.77 1.619v44.963l-.775 1.597c-1.359 2.802-3.761 4.84-6.693 5.679-2.546.728-146.486.714-150.886-.015-2.668-.442-7.09-1.697-7.704-2.186-.155-.123-.557-.305-.895-.404-5.803-1.699-15.523-12.502-16.577-18.423-.13-.735-.226-.881-.388-.591-.363.647.912 4.129 2.237 6.112.226.338.802 1.222 1.28 1.966 3.644 5.669 10.117 10.619 16.642 12.728 5.622 1.817-2.84 1.638 80.613 1.708l74.838.064 1.759-.725c3.011-1.242 4.843-2.929 6.157-5.667l.884-1.843.075-21.622c.053-15.429-.005-22.037-.205-23.074-.574-2.983-2.868-5.85-5.969-7.46l-1.764-.915-55.897-.123c-52.555-.116-55.953-.149-56.848-.553-1.684-.761-2.475-.541-.891.248" fill="#ebb97f"/></g></svg>