<svg id="svg" version="1.1" xmlns="http://www.w3.org/2000/svg" xmlns:xlink="http://www.w3.org/1999/xlink" width="400" height="400" viewBox="0, 0, 400,400"><g id="svgg"><path id="path0" d="M2.570 50.921 C 2.505 51.090,2.483 105.018,2.521 170.762 L 2.589 290.295 3.227 292.536 C 4.215 296.013,4.130 295.992,7.722 293.612 C 9.150 292.666,10.374 291.892,10.443 291.892 C 10.512 291.892,11.701 291.158,13.085 290.260 C 14.470 289.363,16.155 288.276,16.830 287.844 C 20.346 285.598,21.112 285.110,22.297 284.357 C 25.818 282.121,26.854 281.455,32.555 277.760 C 38.798 273.715,40.044 272.912,43.673 270.598 C 44.450 270.103,46.136 269.015,47.420 268.181 C 48.704 267.347,50.390 266.260,51.167 265.765 C 51.944 265.270,53.216 264.460,53.993 263.964 C 54.770 263.469,56.622 262.268,58.108 261.295 C 59.595 260.323,61.681 258.986,62.745 258.326 C 66.539 255.970,66.702 255.681,65.300 253.784 L 64.742 253.030 64.679 167.640 C 64.611 76.701,64.619 75.962,65.676 74.706 C 66.831 73.333,66.563 72.792,64.347 72.015 C 63.618 71.760,62.138 71.200,61.057 70.772 C 59.975 70.344,58.538 69.791,57.862 69.543 C 57.187 69.296,55.887 68.807,54.974 68.457 C 50.608 66.784,49.909 66.523,48.649 66.095 C 47.905 65.842,46.523 65.337,45.577 64.973 C 43.533 64.184,40.451 63.056,38.575 62.409 C 37.832 62.153,36.284 61.604,35.135 61.189 C 33.986 60.774,31.720 59.989,30.098 59.444 C 28.477 58.899,26.929 58.352,26.658 58.229 C 26.388 58.105,23.237 57.048,19.656 55.881 C 16.075 54.713,12.758 53.616,12.285 53.443 C 10.415 52.758,6.715 51.597,6.377 51.589 C 6.181 51.584,5.577 51.367,5.037 51.106 C 3.908 50.560,2.741 50.473,2.570 50.921 M130.958 148.790 C 122.283 150.364,116.468 159.580,118.677 168.257 C 123.340 186.571,150.120 183.368,150.120 164.496 C 150.120 154.148,141.296 146.915,130.958 148.790 M196.062 148.880 C 188.488 150.478,183.907 156.364,183.907 164.496 C 183.907 174.665,191.661 181.561,201.720 180.338 C 217.602 178.407,220.771 156.524,206.143 149.795 C 203.264 148.471,199.584 148.137,196.062 148.880 M261.425 148.884 C 248.653 151.615,244.641 168.466,254.773 176.823 C 262.488 183.187,274.179 181.036,278.966 172.372 C 285.740 160.114,275.160 145.947,261.425 148.884 " stroke="none" fill="#2473c6" fill-rule="evenodd"></path><path id="path1" d="M335.175 190.306 C 334.963 190.771,334.889 198.878,334.887 221.695 L 334.885 252.457 334.305 253.686 C 333.681 255.010,333.108 255.607,331.572 256.533 L 330.590 257.125 274.693 257.248 L 218.796 257.371 217.100 258.218 C 213.832 259.852,211.811 262.641,211.306 266.216 C 210.900 269.086,211.089 315.175,211.512 316.692 C 211.680 317.291,212.302 318.508,212.895 319.395 C 214.501 321.797,280.547 387.926,280.863 387.449 C 280.990 387.257,281.068 386.437,281.038 385.627 C 280.676 376.031,281.131 318.623,281.572 318.182 C 282.060 317.694,282.395 317.690,324.263 317.685 C 364.649 317.680,366.583 317.660,369.287 317.211 C 372.063 316.749,375.820 315.657,377.273 314.889 C 377.678 314.675,378.109 314.499,378.229 314.498 C 378.730 314.494,382.813 311.852,384.567 310.396 C 390.764 305.253,395.038 297.853,396.048 290.517 C 396.226 289.220,396.502 202.368,396.337 199.631 C 396.282 198.725,395.905 198.425,394.896 198.484 C 391.109 198.708,374.604 197.360,368.182 196.304 C 366.560 196.037,364.128 195.659,362.776 195.464 C 358.979 194.916,355.761 194.371,354.545 194.069 C 353.937 193.919,352.641 193.650,351.666 193.472 C 349.845 193.140,346.562 192.422,343.735 191.738 C 342.856 191.525,340.959 191.095,339.518 190.782 C 338.077 190.469,336.675 190.093,336.401 189.946 C 335.675 189.558,335.491 189.611,335.175 190.306 M65.322 256.580 C 64.965 256.880,63.804 257.666,62.742 258.326 C 61.680 258.986,59.595 260.323,58.108 261.295 C 56.622 262.268,54.770 263.469,53.993 263.964 C 53.216 264.460,51.944 265.270,51.167 265.765 C 50.390 266.260,48.704 267.347,47.420 268.181 C 46.136 269.015,44.450 270.103,43.673 270.598 C 40.044 272.912,38.798 273.715,32.555 277.760 C 26.322 281.800,25.087 282.593,19.472 286.159 C 17.274 287.554,15.697 288.567,13.085 290.260 C 11.701 291.158,10.512 291.892,10.443 291.892 C 10.374 291.892,9.150 292.666,7.722 293.612 C 6.295 294.558,5.019 295.332,4.886 295.332 C 3.873 295.332,6.803 301.549,9.459 305.036 C 12.127 308.538,19.404 314.487,21.033 314.498 C 21.154 314.499,21.585 314.677,21.990 314.894 C 23.413 315.656,27.178 316.749,29.975 317.212 C 34.375 317.941,178.315 317.955,180.861 317.227 C 183.793 316.388,186.195 314.350,187.554 311.548 L 188.329 309.951 188.329 287.469 L 188.329 264.988 187.559 263.369 C 186.517 261.181,184.537 259.187,182.391 258.168 L 180.713 257.371 124.693 257.248 L 68.673 257.125 67.639 256.572 C 66.367 255.893,66.139 255.893,65.322 256.580 " stroke="none" fill="#e2524b" fill-rule="evenodd"></path><path id="path2" d="M28.993 11.652 C 28.655 11.834,27.770 12.064,27.027 12.163 C 26.284 12.262,25.265 12.551,24.764 12.806 C 24.263 13.060,23.690 13.268,23.491 13.268 C 21.691 13.268,14.790 17.903,11.603 21.253 C 8.891 24.104,7.717 25.725,6.267 28.624 C 5.928 29.300,5.554 30.018,5.433 30.221 C 4.897 31.126,3.903 34.059,3.780 35.098 C 3.705 35.727,3.432 36.759,3.173 37.392 C 2.758 38.408,2.703 39.188,2.703 44.057 C 2.703 50.155,2.632 49.892,4.394 50.363 C 4.986 50.521,5.649 50.756,5.868 50.885 C 6.087 51.013,7.039 51.327,7.985 51.582 C 9.671 52.036,11.304 52.538,14.496 53.583 C 16.020 54.082,17.030 54.427,19.779 55.386 C 20.455 55.622,21.671 56.019,22.482 56.269 C 23.292 56.518,24.896 57.068,26.044 57.490 C 27.193 57.912,28.741 58.425,29.484 58.631 C 30.227 58.837,31.080 59.163,31.380 59.355 C 31.679 59.548,32.092 59.705,32.298 59.705 C 32.504 59.705,33.365 59.971,34.211 60.295 C 35.057 60.619,36.247 61.050,36.855 61.252 C 37.463 61.455,38.900 61.969,40.049 62.395 C 41.198 62.821,42.580 63.291,43.120 63.439 C 43.661 63.587,44.235 63.811,44.396 63.936 C 44.557 64.062,45.331 64.370,46.116 64.622 C 46.901 64.874,48.317 65.375,49.263 65.736 C 51.273 66.504,54.202 67.596,55.774 68.164 C 56.382 68.384,57.101 68.669,57.371 68.797 C 57.846 69.023,60.151 69.896,61.916 70.519 C 62.389 70.686,63.219 71.026,63.759 71.275 C 65.294 71.981,67.577 72.536,68.026 72.313 C 68.247 72.203,93.636 72.058,124.447 71.990 L 180.467 71.867 182.155 71.136 C 184.193 70.253,186.255 68.348,187.481 66.216 L 188.329 64.742 188.329 41.523 L 188.329 18.305 187.659 17.111 C 186.427 14.918,183.975 12.628,182.252 12.060 C 181.747 11.894,181.270 11.655,181.193 11.530 C 180.946 11.130,29.737 11.252,28.993 11.652 M217.482 11.942 C 214.325 13.384,212.080 15.913,211.432 18.758 C 211.242 19.590,210.973 20.713,210.832 21.253 C 210.666 21.892,210.575 28.982,210.571 41.490 L 210.565 60.744 211.193 63.299 C 212.156 67.222,213.808 69.333,217.199 70.975 L 219.042 71.867 274.939 71.990 L 330.835 72.113 331.945 72.890 C 335.218 75.183,334.889 68.460,334.893 133.024 C 334.895 163.577,334.956 188.796,335.029 189.066 C 335.184 189.640,336.625 190.172,339.930 190.876 C 341.144 191.135,342.856 191.521,343.735 191.735 C 346.476 192.403,349.818 193.135,351.666 193.472 C 352.641 193.650,353.937 193.919,354.545 194.069 C 355.761 194.371,358.979 194.916,362.776 195.464 C 364.128 195.659,366.560 196.037,368.182 196.304 C 377.058 197.764,395.555 199.002,396.126 198.173 C 396.421 197.747,396.353 38.122,396.058 36.978 C 395.495 34.793,394.760 32.495,394.290 31.450 C 393.178 28.978,392.224 27.126,391.576 26.182 C 391.199 25.633,390.600 24.742,390.245 24.201 C 389.163 22.558,384.512 18.106,382.555 16.843 C 381.542 16.188,380.434 15.463,380.094 15.232 C 379.753 15.000,379.200 14.729,378.865 14.628 C 378.530 14.527,378.005 14.287,377.699 14.094 C 376.907 13.595,373.297 12.365,372.015 12.158 C 371.421 12.062,370.568 11.830,370.119 11.643 C 369.429 11.355,357.696 11.305,294.050 11.322 L 218.796 11.342 217.482 11.942 " stroke="none" fill="#fbb804" fill-rule="evenodd"></path><path id="path3" d="M27.027 10.826 C 26.149 11.085,24.945 11.413,24.352 11.554 C 23.759 11.695,22.998 12.028,22.661 12.294 C 22.323 12.559,21.852 12.776,21.613 12.776 C 21.169 12.776,18.882 13.904,17.882 14.616 C 17.574 14.835,16.615 15.464,15.752 16.013 C 14.085 17.073,9.037 21.958,7.996 23.517 C 5.802 26.803,5.414 27.421,5.405 27.641 C 5.399 27.776,5.178 28.163,4.914 28.501 C 4.650 28.839,4.431 29.280,4.428 29.481 C 4.425 29.681,4.164 30.400,3.847 31.078 C 2.972 32.951,2.452 34.576,2.066 36.642 C 1.594 39.169,1.672 290.971,2.145 292.383 C 2.409 293.171,3.328 295.705,4.240 298.157 C 4.596 299.116,5.495 300.844,6.667 302.826 C 9.364 307.386,15.782 313.393,19.656 314.984 C 19.994 315.123,20.547 315.390,20.885 315.578 C 22.458 316.451,25.880 317.568,29.607 318.426 C 30.193 318.561,60.846 318.656,105.627 318.663 L 180.665 318.673 182.040 318.032 C 184.913 316.691,187.961 314.033,187.961 312.867 C 187.961 312.682,188.059 312.531,188.180 312.531 C 189.497 312.531,189.669 309.645,189.675 287.405 C 189.682 262.495,189.786 263.304,186.084 259.602 C 182.181 255.698,187.754 256.020,123.920 256.020 C 62.012 256.020,67.926 256.254,66.326 253.733 L 65.361 252.211 65.359 164.518 L 65.356 76.824 66.119 75.636 C 66.538 74.982,66.981 74.447,67.102 74.447 C 67.223 74.447,67.322 74.297,67.322 74.113 C 67.322 73.495,69.612 73.469,124.447 73.458 C 177.840 73.448,179.013 73.438,179.975 72.973 C 180.516 72.712,181.264 72.494,181.638 72.490 C 183.970 72.461,187.837 68.698,189.305 65.028 L 189.926 63.475 189.926 41.334 C 189.926 27.251,189.839 19.140,189.687 19.046 C 189.556 18.965,189.325 18.433,189.174 17.864 C 188.556 15.539,185.910 12.532,183.258 11.141 L 181.695 10.322 105.160 10.338 C 30.446 10.354,28.586 10.366,27.027 10.826 M216.368 11.126 C 214.179 12.302,211.665 14.939,210.593 17.183 L 209.705 19.042 209.705 41.523 L 209.705 64.005 210.479 65.639 C 211.342 67.459,211.491 67.661,213.486 69.697 C 215.230 71.477,216.712 72.369,218.305 72.597 C 218.980 72.694,219.688 72.901,219.878 73.057 C 220.136 73.270,234.195 73.373,275.540 73.464 C 326.115 73.577,330.909 73.622,331.468 73.987 C 331.804 74.208,332.407 74.862,332.808 75.441 L 333.538 76.494 333.621 164.198 C 333.712 259.502,333.793 253.130,332.472 254.504 C 330.934 256.105,334.154 256.019,275.234 256.022 C 216.974 256.025,218.007 256.002,216.512 257.314 C 216.282 257.516,215.872 257.752,215.602 257.839 C 214.304 258.256,211.567 261.531,210.655 263.759 L 209.951 265.479 209.951 290.663 L 209.951 315.848 210.655 317.558 C 211.719 320.141,211.285 319.688,246.404 354.945 C 264.463 373.075,279.486 388.196,279.790 388.549 C 280.378 389.233,281.343 389.393,281.772 388.877 C 281.950 388.661,282.055 377.758,282.109 353.885 C 282.152 334.811,282.279 319.113,282.391 319.001 C 282.504 318.888,302.295 318.741,326.372 318.673 C 366.554 318.560,370.228 318.517,371.130 318.140 C 371.671 317.914,372.776 317.564,373.587 317.362 C 375.439 316.902,377.406 316.181,378.164 315.685 C 378.485 315.476,379.023 315.217,379.361 315.111 C 379.699 315.004,380.318 314.657,380.736 314.338 C 381.154 314.020,381.569 313.759,381.659 313.759 C 381.749 313.759,382.291 313.426,382.865 313.019 C 383.438 312.612,384.183 312.089,384.521 311.857 C 388.440 309.167,394.415 300.911,395.680 296.437 C 395.871 295.762,396.189 294.711,396.386 294.103 C 397.772 289.829,397.660 300.758,397.729 163.320 C 397.785 51.556,397.751 37.987,397.417 37.341 C 397.212 36.943,396.977 36.091,396.896 35.446 C 396.814 34.802,396.552 33.930,396.312 33.508 C 396.073 33.086,395.800 32.288,395.707 31.734 C 395.613 31.180,395.325 30.458,395.066 30.128 C 394.807 29.799,394.595 29.372,394.595 29.180 C 394.595 28.988,394.289 28.342,393.916 27.745 C 392.828 26.002,392.660 25.723,392.156 24.816 C 391.893 24.343,391.171 23.419,390.552 22.764 C 389.933 22.108,389.035 21.093,388.556 20.509 C 387.122 18.759,382.580 15.184,380.467 14.143 C 380.061 13.944,379.398 13.555,378.993 13.280 C 378.587 13.005,378.047 12.779,377.793 12.778 C 377.539 12.777,376.945 12.538,376.473 12.247 C 376.002 11.955,375.215 11.630,374.725 11.525 C 374.234 11.419,373.059 11.108,372.113 10.833 C 370.400 10.336,370.089 10.334,294.103 10.342 L 217.813 10.350 216.368 11.126 M182.218 11.467 C 184.629 12.563,186.235 13.982,187.771 16.375 C 189.201 18.602,189.189 18.390,189.189 41.523 C 189.189 64.247,189.169 64.642,187.941 66.367 C 187.681 66.731,187.469 67.133,187.469 67.260 C 187.469 67.766,184.486 70.508,183.253 71.135 C 180.498 72.537,183.714 72.463,125.070 72.473 C 67.434 72.482,66.339 72.504,66.339 73.623 C 66.339 73.785,66.041 74.272,65.676 74.706 C 64.619 75.962,64.611 76.701,64.679 167.640 L 64.742 253.030 65.300 253.784 C 65.606 254.199,65.963 254.816,66.092 255.156 C 66.229 255.517,66.521 255.774,66.794 255.774 C 67.051 255.774,67.690 255.967,68.213 256.204 C 69.108 256.608,72.506 256.641,125.061 256.757 L 180.958 256.880 182.722 257.795 C 185.823 259.405,188.117 262.272,188.691 265.255 C 188.891 266.292,188.949 272.900,188.896 288.329 L 188.821 309.951 187.937 311.794 C 186.623 314.532,184.791 316.219,181.780 317.461 L 180.021 318.186 105.183 318.122 C 21.730 318.052,30.192 318.231,24.570 316.414 C 18.045 314.305,11.572 309.355,7.928 303.686 C 7.450 302.942,6.874 302.058,6.648 301.720 C 5.501 300.004,4.037 296.248,4.330 295.774 C 4.404 295.654,4.334 295.398,4.174 295.206 C 4.014 295.013,3.592 293.829,3.236 292.575 L 2.589 290.295 2.475 170.393 C 2.413 104.447,2.322 47.917,2.273 44.770 C 2.157 37.192,3.541 31.500,6.648 26.781 C 6.870 26.443,7.483 25.516,8.010 24.720 C 9.967 21.764,14.395 17.562,17.690 15.534 C 20.051 14.081,25.303 11.802,26.332 11.783 C 26.647 11.778,27.457 11.566,28.133 11.313 C 29.323 10.868,31.724 10.853,105.069 10.832 L 180.776 10.811 182.218 11.467 M370.945 11.269 C 371.723 11.521,372.961 11.869,373.696 12.041 C 381.395 13.846,390.458 21.632,393.998 29.484 C 394.212 29.957,394.599 30.794,394.859 31.343 C 395.119 31.892,395.332 32.534,395.332 32.768 C 395.332 33.002,395.503 33.525,395.712 33.929 C 395.921 34.333,396.309 35.852,396.574 37.304 C 397.251 41.012,397.191 287.853,396.512 291.278 C 394.166 303.105,385.716 312.824,374.647 316.424 C 369.160 318.209,373.738 318.045,325.504 318.182 C 292.988 318.274,282.017 318.376,281.803 318.590 C 281.590 318.803,281.489 327.588,281.407 353.234 C 281.292 389.087,281.309 388.206,280.745 388.206 C 280.426 388.206,215.033 322.890,213.345 320.885 C 212.180 319.501,211.550 318.310,211.041 316.532 C 210.373 314.196,210.294 267.586,210.954 265.023 C 211.783 261.802,213.925 259.209,216.953 257.761 L 218.796 256.880 274.447 256.757 C 327.367 256.640,330.147 256.612,331.081 256.191 C 332.380 255.607,333.578 254.420,333.963 253.335 C 334.454 251.953,334.235 76.891,333.741 75.679 C 333.289 74.571,332.550 73.792,331.327 73.133 L 330.344 72.604 274.816 72.473 C 235.642 72.380,219.034 72.262,218.428 72.073 C 214.962 70.989,211.996 68.001,210.936 64.525 L 210.319 62.505 210.319 41.511 L 210.319 20.516 210.895 18.651 C 211.860 15.524,214.021 13.051,217.096 11.556 L 218.550 10.848 294.041 10.830 C 367.084 10.811,369.577 10.826,370.945 11.269 M130.098 147.801 C 129.558 148.013,128.729 148.303,128.256 148.445 C 125.842 149.169,121.868 152.224,120.459 154.438 C 120.293 154.700,119.870 155.345,119.520 155.872 C 117.429 159.021,116.488 166.536,117.826 169.410 C 118.015 169.816,118.325 170.595,118.516 171.143 C 121.416 179.471,132.260 183.810,141.155 180.202 C 144.949 178.662,150.613 172.043,150.614 169.147 C 150.614 168.867,150.791 168.120,151.006 167.487 C 152.027 164.490,150.712 158.359,148.312 154.926 C 147.040 153.106,143.699 149.877,143.088 149.877 C 142.966 149.877,142.459 149.601,141.962 149.263 C 141.465 148.925,140.857 148.649,140.611 148.649 C 140.366 148.649,139.724 148.405,139.186 148.108 C 137.872 147.383,131.694 147.174,130.098 147.801 M195.946 147.666 C 194.297 148.153,192.238 148.956,191.892 149.247 C 191.689 149.417,191.319 149.630,191.069 149.719 C 189.274 150.358,185.702 154.229,184.234 157.125 C 180.345 164.800,183.870 175.862,191.312 179.337 C 191.871 179.598,192.398 179.923,192.482 180.059 C 192.566 180.195,192.993 180.379,193.430 180.468 C 193.868 180.557,194.811 180.841,195.525 181.101 C 197.332 181.757,201.648 181.762,203.632 181.111 C 204.405 180.858,205.360 180.575,205.755 180.482 C 206.149 180.389,206.745 180.099,207.078 179.837 C 207.411 179.575,207.825 179.361,207.998 179.361 C 209.408 179.361,214.631 173.430,215.354 171.007 C 215.455 170.670,215.763 169.896,216.039 169.287 C 216.472 168.332,216.540 167.681,216.540 164.496 C 216.540 161.312,216.472 160.661,216.039 159.705 C 215.763 159.097,215.455 158.323,215.354 157.985 C 214.458 154.986,210.303 150.614,206.757 148.941 C 203.868 147.578,198.420 146.935,195.946 147.666 M261.302 147.665 C 247.353 151.782,243.296 169.069,254.264 177.663 C 254.852 178.124,255.460 178.616,255.615 178.756 C 257.259 180.242,261.719 181.572,265.054 181.572 C 267.762 181.572,272.059 180.534,272.738 179.717 C 272.900 179.521,273.163 179.361,273.322 179.361 C 273.921 179.361,276.669 177.113,277.809 175.692 C 279.736 173.288,280.020 172.881,280.215 172.236 C 280.317 171.898,280.594 171.290,280.831 170.885 C 281.330 170.033,282.064 166.210,282.064 164.461 C 282.067 157.894,278.110 151.721,272.113 148.937 C 269.168 147.570,263.775 146.936,261.302 147.665 M137.479 148.622 C 154.986 152.235,154.341 177.705,136.671 180.484 C 121.982 182.794,112.292 165.660,121.755 154.106 C 124.408 150.867,127.018 149.436,132.310 148.318 C 133.446 148.078,135.399 148.193,137.479 148.622 M203.033 148.648 C 220.514 152.513,219.742 177.675,202.056 180.476 C 192.193 182.038,183.544 174.573,183.541 164.496 C 183.539 153.986,192.868 146.401,203.033 148.648 M269.165 148.773 C 280.861 151.820,285.108 166.541,276.880 175.520 C 268.303 184.880,252.978 181.079,249.396 168.703 C 248.374 165.171,249.004 159.678,250.756 156.847 C 253.122 153.022,254.523 151.660,257.889 149.908 C 261.067 148.254,265.469 147.811,269.165 148.773 " stroke="none" fill="#e7d6cb" fill-rule="evenodd"></path><path id="path4" d="M28.133 11.313 C 27.457 11.566,26.647 11.778,26.332 11.783 C 25.303 11.802,20.051 14.081,17.690 15.534 C 14.395 17.562,9.967 21.764,8.010 24.720 C 7.483 25.516,6.870 26.443,6.648 26.781 C 3.681 31.288,2.210 37.073,2.215 44.221 C 2.219 50.469,2.242 50.611,3.284 50.623 C 3.708 50.627,4.496 50.845,5.037 51.106 C 5.577 51.367,6.181 51.584,6.377 51.589 C 6.715 51.597,10.415 52.758,12.285 53.443 C 12.758 53.616,16.075 54.713,19.656 55.881 C 23.237 57.048,26.388 58.105,26.658 58.229 C 26.929 58.352,28.477 58.899,30.098 59.444 C 31.720 59.989,33.986 60.774,35.135 61.189 C 36.284 61.604,37.832 62.153,38.575 62.409 C 40.451 63.056,43.533 64.184,45.577 64.973 C 46.523 65.337,47.905 65.842,48.649 66.095 C 49.922 66.527,51.264 67.028,55.037 68.479 C 55.915 68.817,57.187 69.296,57.862 69.543 C 58.538 69.791,59.975 70.344,61.057 70.772 C 62.138 71.200,63.623 71.761,64.356 72.018 C 65.090 72.275,65.893 72.669,66.141 72.893 C 66.561 73.273,66.738 73.273,68.738 72.890 C 70.704 72.513,75.438 72.478,125.061 72.471 C 183.716 72.463,180.498 72.537,183.253 71.135 C 184.486 70.508,187.469 67.766,187.469 67.260 C 187.469 67.133,187.681 66.731,187.941 66.367 C 189.169 64.642,189.189 64.247,189.189 41.523 C 189.189 18.390,189.201 18.602,187.771 16.375 C 186.235 13.982,184.629 12.563,182.218 11.467 L 180.776 10.811 105.069 10.832 C 31.724 10.853,29.323 10.868,28.133 11.313 M217.096 11.556 C 214.021 13.051,211.860 15.524,210.895 18.651 L 210.319 20.516 210.319 41.511 L 210.319 62.505 210.936 64.525 C 211.996 68.001,214.962 70.989,218.428 72.073 C 219.034 72.262,235.642 72.380,274.816 72.473 L 330.344 72.604 331.327 73.133 C 332.550 73.792,333.289 74.571,333.741 75.679 C 334.235 76.891,334.454 251.953,333.963 253.335 C 333.578 254.420,332.380 255.607,331.081 256.191 C 330.147 256.612,327.367 256.640,274.447 256.757 L 218.796 256.880 216.953 257.761 C 213.925 259.209,211.783 261.802,210.954 265.023 C 210.294 267.586,210.373 314.196,211.041 316.532 C 211.550 318.310,212.180 319.501,213.345 320.885 C 215.033 322.890,280.426 388.206,280.745 388.206 C 281.309 388.206,281.292 389.087,281.407 353.234 C 281.489 327.588,281.590 318.803,281.803 318.590 C 282.017 318.376,292.988 318.274,325.504 318.182 C 373.738 318.045,369.160 318.209,374.647 316.424 C 385.716 312.824,394.166 303.105,396.512 291.278 C 397.191 287.853,397.251 41.012,396.574 37.304 C 396.309 35.852,395.921 34.333,395.712 33.929 C 395.503 33.525,395.332 33.002,395.332 32.768 C 395.332 32.534,395.119 31.892,394.859 31.343 C 394.599 30.794,394.212 29.957,393.998 29.484 C 391.741 24.478,387.070 19.179,382.064 15.946 C 379.036 13.990,376.035 12.590,373.696 12.041 C 372.961 11.869,371.723 11.521,370.945 11.269 C 369.577 10.826,367.084 10.811,294.041 10.830 L 218.550 10.848 217.096 11.556 M181.193 11.530 C 181.270 11.655,181.747 11.894,182.252 12.060 C 183.975 12.628,186.427 14.918,187.659 17.111 L 188.329 18.305 188.329 41.523 L 188.329 64.742 187.481 66.216 C 186.255 68.348,184.193 70.253,182.155 71.136 L 180.467 71.867 124.447 71.990 C 93.636 72.058,68.247 72.203,68.026 72.313 C 67.577 72.536,65.294 71.981,63.759 71.275 C 63.219 71.026,62.389 70.686,61.916 70.519 C 60.151 69.896,57.846 69.023,57.371 68.797 C 57.101 68.669,56.382 68.384,55.774 68.164 C 54.202 67.596,51.273 66.504,49.263 65.736 C 48.317 65.375,46.901 64.874,46.116 64.622 C 45.331 64.370,44.557 64.062,44.396 63.936 C 44.235 63.811,43.661 63.587,43.120 63.439 C 42.580 63.291,41.198 62.821,40.049 62.395 C 38.900 61.969,37.463 61.455,36.855 61.252 C 36.247 61.050,35.057 60.619,34.211 60.295 C 33.365 59.971,32.504 59.705,32.298 59.705 C 32.092 59.705,31.679 59.548,31.380 59.355 C 31.080 59.163,30.227 58.837,29.484 58.631 C 28.741 58.425,27.193 57.912,26.044 57.490 C 24.896 57.068,23.292 56.518,22.482 56.269 C 21.671 56.019,20.455 55.622,19.779 55.386 C 17.030 54.427,16.020 54.082,14.496 53.583 C 11.304 52.538,9.671 52.036,7.985 51.582 C 7.039 51.327,6.087 51.013,5.868 50.885 C 5.649 50.756,4.986 50.521,4.394 50.363 C 2.632 49.892,2.703 50.155,2.703 44.057 C 2.703 39.188,2.758 38.408,3.173 37.392 C 3.432 36.759,3.705 35.727,3.780 35.098 C 3.903 34.059,4.897 31.126,5.433 30.221 C 5.554 30.018,5.928 29.300,6.267 28.624 C 9.166 22.831,14.218 17.857,20.482 14.631 C 21.938 13.881,23.292 13.268,23.491 13.268 C 23.690 13.268,24.263 13.060,24.764 12.806 C 25.265 12.551,26.284 12.262,27.027 12.163 C 27.770 12.064,28.655 11.834,28.993 11.652 C 29.737 11.252,180.946 11.130,181.193 11.530 M370.119 11.643 C 370.568 11.830,371.421 12.062,372.015 12.158 C 373.297 12.365,376.907 13.595,377.699 14.094 C 378.005 14.287,378.530 14.527,378.865 14.628 C 379.200 14.729,379.753 15.000,380.094 15.232 C 380.434 15.463,381.542 16.188,382.555 16.843 C 384.512 18.106,389.163 22.558,390.245 24.201 C 390.600 24.742,391.199 25.633,391.576 26.182 C 392.224 27.126,393.178 28.978,394.290 31.450 C 394.759 32.492,395.489 34.773,396.059 36.978 C 396.482 38.611,396.470 287.450,396.048 290.517 C 394.706 300.256,385.580 312.369,377.887 314.622 C 377.549 314.721,377.155 314.896,377.011 315.010 C 376.402 315.494,371.903 316.776,369.287 317.211 C 366.583 317.660,364.649 317.680,324.263 317.685 C 282.395 317.690,282.060 317.694,281.572 318.182 C 281.131 318.623,280.676 376.031,281.038 385.627 C 281.068 386.437,280.990 387.257,280.863 387.449 C 280.547 387.926,214.501 321.797,212.895 319.395 C 212.302 318.508,211.680 317.291,211.512 316.692 C 211.089 315.175,210.900 269.086,211.306 266.216 C 211.811 262.641,213.832 259.852,217.100 258.218 L 218.796 257.371 274.693 257.248 L 330.590 257.125 331.572 256.533 C 332.989 255.679,333.638 255.045,334.238 253.931 L 334.767 252.948 334.919 221.622 C 335.003 204.392,335.071 190.129,335.071 189.926 C 334.812 82.369,334.775 76.804,334.330 75.688 C 333.809 74.383,333.413 73.919,331.945 72.890 L 330.835 72.113 274.939 71.990 L 219.042 71.867 217.199 70.975 C 213.808 69.333,212.156 67.222,211.193 63.299 L 210.565 60.744 210.571 41.490 C 210.575 28.982,210.666 21.892,210.832 21.253 C 210.973 20.713,211.242 19.590,211.432 18.758 C 212.080 15.913,214.325 13.384,217.482 11.942 L 218.796 11.342 294.050 11.322 C 357.696 11.305,369.429 11.355,370.119 11.643 M131.710 148.425 C 130.280 148.706,129.820 148.938,131.081 148.743 C 131.622 148.660,132.893 148.509,133.907 148.409 L 135.749 148.226 134.275 148.219 C 133.464 148.214,132.310 148.307,131.710 148.425 M197.434 148.371 C 197.036 148.456,198.025 148.526,199.631 148.526 C 201.238 148.526,202.227 148.456,201.829 148.371 C 201.431 148.285,200.442 148.215,199.631 148.215 C 198.821 148.215,197.832 148.285,197.434 148.371 M262.776 148.368 C 262.298 148.489,262.860 148.549,264.373 148.540 C 265.657 148.532,267.260 148.605,267.936 148.701 C 268.916 148.841,269.015 148.827,268.428 148.632 C 267.452 148.308,263.709 148.134,262.776 148.368 M126.771 150.012 C 124.930 150.994,123.304 152.277,122.108 153.689 C 121.571 154.323,121.794 154.168,122.740 153.250 C 124.508 151.535,125.169 151.070,127.389 149.981 C 128.331 149.518,128.939 149.143,128.740 149.147 C 128.541 149.151,127.655 149.540,126.771 150.012 M193.229 149.522 C 192.759 149.898,192.760 149.901,193.243 149.678 C 193.514 149.554,193.900 149.391,194.103 149.315 C 194.422 149.197,194.420 149.176,194.089 149.159 C 193.878 149.149,193.491 149.312,193.229 149.522 M270.516 149.315 C 270.719 149.391,271.106 149.554,271.376 149.678 C 271.859 149.901,271.860 149.898,271.390 149.522 C 271.128 149.312,270.741 149.149,270.530 149.159 C 270.200 149.176,270.198 149.197,270.516 149.315 M191.004 150.656 C 190.088 151.345,189.680 151.739,190.172 151.459 C 191.104 150.929,192.182 150.123,191.959 150.123 C 191.824 150.123,191.393 150.363,191.004 150.656 M273.246 150.686 C 274.435 151.491,274.693 151.640,274.693 151.522 C 274.693 151.364,272.853 150.123,272.618 150.123 C 272.505 150.123,272.788 150.376,273.246 150.686 M188.312 152.887 C 187.129 154.129,185.736 155.793,186.513 155.037 C 187.388 154.185,189.747 151.597,189.648 151.597 C 189.589 151.597,188.988 152.178,188.312 152.887 M210.811 152.948 C 211.545 153.692,212.201 154.300,212.268 154.300 C 212.336 154.300,211.791 153.692,211.057 152.948 C 210.323 152.205,209.667 151.597,209.599 151.597 C 209.532 151.597,210.077 152.205,210.811 152.948 M276.167 152.948 C 276.901 153.692,277.557 154.300,277.624 154.300 C 277.692 154.300,277.147 153.692,276.413 152.948 C 275.679 152.205,275.023 151.597,274.955 151.597 C 274.888 151.597,275.433 152.205,276.167 152.948 M144.963 152.411 C 144.963 152.453,145.322 152.813,145.762 153.210 L 146.560 153.931 145.839 153.133 C 145.166 152.388,144.963 152.221,144.963 152.411 M253.103 153.434 C 252.545 154.039,252.088 154.611,252.088 154.704 C 252.088 154.797,252.125 154.827,252.169 154.771 C 252.214 154.714,252.726 154.143,253.306 153.501 C 253.887 152.859,254.307 152.334,254.239 152.334 C 254.172 152.334,253.660 152.829,253.103 153.434 M212.623 155.037 C 212.842 155.375,213.300 156.176,213.640 156.818 C 213.981 157.460,214.314 157.985,214.382 157.985 C 214.586 157.985,213.322 155.694,212.755 155.037 L 212.225 154.423 212.623 155.037 M278.396 155.651 C 279.413 157.217,279.860 157.673,279.118 156.388 C 278.805 155.848,278.336 155.184,278.074 154.914 C 277.812 154.644,277.956 154.975,278.396 155.651 M148.075 156.497 C 148.450 157.166,148.798 157.672,148.848 157.622 C 148.954 157.516,147.672 155.283,147.505 155.283 C 147.443 155.283,147.699 155.829,148.075 156.497 M148.912 158.108 C 148.912 158.243,149.070 158.630,149.263 158.968 C 149.456 159.306,149.614 159.472,149.614 159.337 C 149.614 159.201,149.456 158.814,149.263 158.477 C 149.070 158.139,148.912 157.973,148.912 158.108 M184.315 159.101 C 183.903 160.005,183.982 160.198,184.427 159.376 C 184.635 158.993,184.759 158.633,184.703 158.577 C 184.647 158.521,184.472 158.757,184.315 159.101 M280.137 159.091 C 280.136 159.226,280.285 159.724,280.467 160.197 C 280.649 160.670,280.801 160.891,280.806 160.688 C 280.810 160.485,280.661 159.988,280.476 159.582 C 280.290 159.177,280.138 158.956,280.137 159.091 M249.425 160.162 C 249.268 160.685,249.148 161.267,249.157 161.454 C 249.167 161.641,249.339 161.257,249.541 160.601 C 249.742 159.944,249.863 159.363,249.809 159.309 C 249.754 159.255,249.582 159.639,249.425 160.162 M118.450 160.710 C 118.284 161.265,118.193 161.764,118.248 161.819 C 118.304 161.874,118.485 161.466,118.651 160.911 C 118.817 160.357,118.908 159.858,118.852 159.803 C 118.797 159.747,118.616 160.156,118.450 160.710 M215.163 160.688 C 215.249 161.161,215.397 161.990,215.492 162.531 L 215.663 163.514 215.675 162.654 C 215.682 162.181,215.534 161.351,215.347 160.811 C 215.017 159.856,215.011 159.853,215.163 160.688 M248.951 162.654 C 248.951 163.127,249.002 163.320,249.064 163.084 C 249.126 162.847,249.126 162.460,249.064 162.224 C 249.002 161.987,248.951 162.181,248.951 162.654 M183.628 164.496 C 183.628 165.848,183.670 166.369,183.720 165.655 C 183.769 164.941,183.769 163.836,183.718 163.198 C 183.668 162.561,183.627 163.145,183.628 164.496 M118.023 164.496 C 118.023 165.713,118.064 166.241,118.116 165.671 C 118.167 165.101,118.168 164.105,118.117 163.460 C 118.066 162.814,118.024 163.280,118.023 164.496 M150.209 164.619 C 150.209 165.768,150.251 166.238,150.303 165.663 C 150.354 165.089,150.354 164.149,150.303 163.575 C 150.251 163.001,150.209 163.471,150.209 164.619 M215.782 164.373 C 215.782 164.846,215.832 165.040,215.894 164.803 C 215.956 164.567,215.956 164.180,215.894 163.943 C 215.832 163.707,215.782 163.900,215.782 164.373 M215.423 166.708 C 215.326 167.383,215.189 168.213,215.119 168.550 C 215.050 168.888,215.161 168.667,215.366 168.059 C 215.571 167.451,215.707 166.622,215.669 166.216 C 215.615 165.647,215.559 165.758,215.423 166.708 M248.944 166.339 C 248.937 166.812,249.085 167.641,249.272 168.182 C 249.602 169.137,249.608 169.140,249.456 168.305 C 249.370 167.832,249.222 167.002,249.128 166.462 L 248.956 165.479 248.944 166.339 M118.217 167.199 C 118.219 167.712,118.870 169.595,118.896 169.165 C 118.905 169.029,118.755 168.421,118.563 167.813 C 118.371 167.205,118.216 166.929,118.217 167.199 M280.393 168.968 C 280.030 170.153,280.206 170.329,280.590 169.165 C 280.752 168.674,280.837 168.224,280.778 168.166 C 280.720 168.107,280.547 168.468,280.393 168.968 M184.047 169.165 C 184.047 169.300,184.205 169.687,184.398 170.025 C 184.591 170.362,184.749 170.528,184.749 170.393 C 184.749 170.258,184.591 169.871,184.398 169.533 C 184.205 169.195,184.047 169.029,184.047 169.165 M278.937 172.432 C 277.577 174.906,275.088 177.327,272.359 178.830 C 272.088 178.979,271.984 179.104,272.126 179.108 C 273.649 179.152,280.596 171.915,279.797 171.116 C 279.749 171.067,279.362 171.660,278.937 172.432 M120.149 172.625 C 120.149 172.749,120.435 173.182,120.783 173.587 L 121.417 174.324 120.862 173.464 C 120.150 172.361,120.147 172.358,120.149 172.625 M252.281 174.570 C 252.423 174.840,252.959 175.448,253.472 175.921 C 254.320 176.702,253.598 175.773,252.136 174.201 C 252.073 174.134,252.138 174.300,252.281 174.570 M121.988 175.185 C 123.153 176.546,123.169 176.561,122.903 176.044 C 122.763 175.774,122.335 175.277,121.951 174.939 L 121.253 174.326 121.988 175.185 M211.168 175.702 C 210.634 176.257,209.479 177.196,208.602 177.790 C 207.725 178.384,207.096 178.870,207.203 178.870 C 207.606 178.870,210.238 176.908,211.292 175.822 C 211.894 175.201,212.331 174.693,212.263 174.693 C 212.195 174.693,211.702 175.147,211.168 175.702 M188.084 175.921 C 188.611 176.462,189.099 176.904,189.166 176.904 C 189.234 176.904,188.857 176.462,188.329 175.921 C 187.801 175.381,187.314 174.939,187.247 174.939 C 187.179 174.939,187.556 175.381,188.084 175.921 M145.562 175.983 L 144.840 176.781 145.639 176.060 C 146.078 175.663,146.437 175.303,146.437 175.261 C 146.437 175.071,146.235 175.238,145.562 175.983 M123.709 176.866 C 123.977 177.182,124.418 177.555,124.690 177.694 C 125.212 177.961,125.136 177.879,123.958 176.900 C 123.248 176.311,123.239 176.310,123.709 176.866 M189.556 177.148 C 189.751 177.462,191.903 178.943,192.005 178.832 C 192.048 178.785,191.481 178.333,190.745 177.827 C 190.009 177.320,189.474 177.015,189.556 177.148 M256.388 178.234 C 256.794 178.582,257.227 178.868,257.351 178.869 C 257.617 178.870,257.614 178.868,256.511 178.156 L 255.651 177.601 256.388 178.234 M140.295 179.361 C 139.822 179.620,139.545 179.832,139.681 179.832 C 139.816 179.832,140.313 179.620,140.786 179.361 C 141.259 179.102,141.536 178.890,141.400 178.890 C 141.265 178.890,140.768 179.102,140.295 179.361 M205.651 179.361 C 205.178 179.620,204.902 179.832,205.037 179.832 C 205.172 179.832,205.670 179.620,206.143 179.361 C 206.615 179.102,206.892 178.890,206.757 178.890 C 206.622 178.890,206.124 179.102,205.651 179.361 M258.477 179.361 C 258.950 179.620,259.447 179.832,259.582 179.832 C 259.717 179.832,259.441 179.620,258.968 179.361 C 258.495 179.102,257.998 178.890,257.862 178.890 C 257.727 178.890,258.004 179.102,258.477 179.361 M193.366 179.484 C 193.704 179.677,194.091 179.835,194.226 179.835 C 194.361 179.835,194.195 179.677,193.857 179.484 C 193.520 179.291,193.133 179.133,192.998 179.133 C 192.862 179.133,193.028 179.291,193.366 179.484 M132.555 180.591 C 133.549 180.809,135.304 180.914,135.115 180.743 C 135.058 180.692,134.238 180.588,133.292 180.512 C 131.971 180.406,131.800 180.425,132.555 180.591 M135.688 180.513 C 135.924 180.575,136.311 180.575,136.548 180.513 C 136.784 180.452,136.591 180.401,136.118 180.401 C 135.645 180.401,135.451 180.452,135.688 180.513 M197.359 180.513 C 197.595 180.575,197.982 180.575,198.219 180.513 C 198.455 180.452,198.262 180.401,197.789 180.401 C 197.316 180.401,197.122 180.452,197.359 180.513 M201.044 180.513 C 201.281 180.575,201.668 180.575,201.904 180.513 C 202.141 180.452,201.947 180.401,201.474 180.401 C 201.001 180.401,200.808 180.452,201.044 180.513 M262.715 180.513 C 262.951 180.575,263.338 180.575,263.575 180.513 C 263.811 180.452,263.618 180.401,263.145 180.401 C 262.672 180.401,262.479 180.452,262.715 180.513 M266.646 180.513 C 266.883 180.575,267.270 180.575,267.506 180.513 C 267.743 180.452,267.549 180.401,267.076 180.401 C 266.603 180.401,266.410 180.452,266.646 180.513 M199.204 180.763 C 199.510 180.822,199.952 180.820,200.187 180.758 C 200.422 180.697,200.172 180.649,199.631 180.652 C 199.091 180.654,198.899 180.705,199.204 180.763 M264.558 180.763 C 264.862 180.822,265.359 180.822,265.663 180.763 C 265.967 180.705,265.719 180.657,265.111 180.657 C 264.502 180.657,264.254 180.705,264.558 180.763 M67.322 256.452 L 68.673 257.125 124.693 257.248 L 180.713 257.371 182.391 258.168 C 184.537 259.187,186.517 261.181,187.559 263.369 L 188.329 264.988 188.329 287.469 L 188.329 309.951 187.554 311.548 C 186.195 314.350,183.793 316.388,180.861 317.227 C 178.315 317.955,34.375 317.941,29.975 317.212 C 27.307 316.770,22.885 315.515,22.271 315.026 C 22.116 314.903,21.714 314.721,21.376 314.622 C 15.573 312.923,5.853 302.120,4.799 296.199 C 4.669 295.464,4.573 295.318,4.411 295.608 C 4.048 296.255,5.323 299.737,6.648 301.720 C 6.874 302.058,7.450 302.942,7.928 303.686 C 11.572 309.355,18.045 314.305,24.570 316.414 C 30.192 318.231,21.730 318.052,105.183 318.122 L 180.021 318.186 181.780 317.461 C 184.791 316.219,186.623 314.532,187.937 311.794 L 188.821 309.951 188.896 288.329 C 188.949 272.900,188.891 266.292,188.691 265.255 C 188.117 262.272,185.823 259.405,182.722 257.795 L 180.958 256.880 125.061 256.757 C 72.506 256.641,69.108 256.608,68.213 256.204 C 66.529 255.443,65.738 255.663,67.322 256.452 " stroke="none" fill="#ebb97f" fill-rule="evenodd"></path></g></svg>