<svg height="80" width="80" xmlns="http://www.w3.org/2000/svg"><mask id="a" fill="#fff"><path d="M0 1.58h79.272v74.112H0" fill-rule="evenodd"/></mask><g fill="#2d497d" fill-rule="evenodd"><path d="M61.283 44.442c0-.83-.675-1.577-1.577-1.577-.366 0-.741.123-1.047.4-3.993 3.59-10.79 6.766-19.008 6.788h-.032c-8.203-.022-14.804-3.324-19.008-6.787-.265-.218-.757-.37-1.075-.37-.978 0-1.546.833-1.549 1.748 0 .703.495 1.296.902 1.905 2.356 3.538 9.663 9.55 20.66 9.55h.174c10.995 0 18.305-6.012 20.658-9.55.407-.609.902-1.4.902-2.107"/><path d="M72.217 71.027c-2.8-1.596-5.456-4.293-6.673-7.992-.24-.726-.029-1.31.53-1.741 8.102-6.267 13.199-15.366 13.199-25.5C79.273 16.9 61.526 1.58 39.638 1.58 17.748 1.579.001 16.9.001 35.795c0 18.907 17.746 34.229 39.637 34.229 2.86 0 5.649-.262 8.336-.76a2.26 2.26 0 0 1 1.637.302c5.424 3.33 13.501 6.125 20.585 6.125 2.283 0 3.16-1.448 3.16-2.766 0-.851-.46-1.51-1.139-1.898m-10.606-3.328c.123.167.19.31.19.46 0 .23-.218.389-.493.389-1.987 0-8.105-3.3-11.322-6.018-.445-.372-1.06-.508-1.937-.318a39.403 39.403 0 0 1-8.414.902c-18.22 0-32.99-12.203-32.99-27.262 0-15.05 14.77-27.25 32.99-27.25s32.992 12.2 32.992 27.25c0 8.985-5.26 16.952-13.375 21.919-.543.331-1.117.956-1.117 1.738 0 1.602 1.502 5.576 3.476 8.19" mask="url(#a)" transform="translate(0 1)"/></g></svg>