<svg height="80" viewBox="0 0 80 80" width="80" xmlns="http://www.w3.org/2000/svg" xmlns:xlink="http://www.w3.org/1999/xlink"><mask id="a" fill="#fff"><path d="m0 1.58007692h79.2719231v74.11223078h-79.2719231" fill="#fff" fill-rule="evenodd"/></mask><g fill="#2d497d" fill-rule="evenodd" transform="translate(0 1)"><path d="m61.2830154 43.4420231c0-.8294616-.6749231-1.5769231-1.5769231-1.5769231-.3658461 0-.7411538.123-1.0470769.4005385-3.9927692 3.5890769-10.7893077 6.765-19.0082308 6.7870769h-.0315384c-8.2031539-.0220769-14.8041539-3.3241539-19.0082308-6.7870769-.2649231-.2176154-.7569231-.369-1.0754616-.369-.9776923 0-1.5453846.8326153-1.5485384 1.7472307 0 .7033077.4951538 1.2962308.902 1.9049231 2.3559231 3.5386154 9.6633846 9.5498462 20.6608461 9.5498462h.1734616c10.9943077 0 18.3049231-6.0112308 20.6576923-9.5498462.4068461-.6086923.902-1.4003077.902-2.1067692"/><path d="m72.2174 71.0265077c-2.8006154-1.5958462-5.4561538-4.2923846-6.6735385-7.9918462-.2396923-.7253846-.0283846-1.3088461.5298462-1.740923 8.1022308-6.2666923 13.1988461-15.3655385 13.1988461-25.4988462 0-18.8946923-17.7466923-34.21607692-39.6343846-34.21607692-21.8908461 0-39.63753843 15.32138462-39.63753843 34.21607692 0 18.9073077 17.74669233 34.2286923 39.63753843 34.2286923 2.8605385 0 5.6485385-.2617692 8.3356154-.7600769.6591539-.1198462 1.1984616.0346923 1.6368462.3027692 5.4246154 3.3304616 13.5016154 6.1247693 20.5851538 6.1247693 2.2833846 0 3.1601539-1.4476154 3.1601539-2.7659231 0-.8515385-.4604616-1.5106923-1.1385385-1.8986154m-10.6063846-3.3273077c.123.1671538.1892308.3090769.1892308.4604615 0 .2302308-.2176154.3879231-.492.3879231-1.9869231 0-8.1053847-3.2989231-11.3223077-6.0175384-.4446923-.3721539-1.0596923-.5077693-1.9364616-.3185385-2.6839231.5866154-5.5034615.902-8.4144615.902-18.2197692 0-32.98923078-12.2022308-32.98923078-27.2618462 0-15.0501538 14.76946158-27.24923073 32.98923078-27.24923073s32.9923846 12.19907693 32.9923846 27.24923073c0 8.9853077-5.2606154 16.9519231-13.3754615 21.9192308-.5424616.3311539-1.1164616.9556154-1.1164616 1.7377692 0 1.6021539 1.5012308 5.576 3.4755385 8.1905385" mask="url(#a)"/></g></svg>