<svg viewBox="0 0 32 32" xmlns="http://www.w3.org/2000/svg"><path d="m28.59554 2h-17.19154a1.404 1.404 0 0 0 -1.404 1.40407v1.59593l9.69 3 10.30961-3v-1.596a1.40405 1.40405 0 0 0 -1.40407-1.404z" fill="#0364b8"/><path d="m31.6499 17.40548a11.34148 11.34148 0 0 0 .3501-1.40505.66592.66592 0 0 0 -.33331-.57679v-.00048l-.01282-.00727-.004-.00225-10.83774-6.17414a1.49877 1.49877 0 0 0 -.14532-.08276v-.00006a1.5003 1.5003 0 0 0 -1.33331 0l-.00006.00006a1.49088 1.49088 0 0 0 -.14527.08276l-10.83777 6.17414-.004.00225-.01275.00727v.00048a.666.666 0 0 0 -.33331.57679 11.34354 11.34354 0 0 0 .35009 1.405l11.49171 8.405z" fill="#0a2767"/><path d="m24 5h-7l-2.021 3 2.021 3 7 6h6v-6z" fill="#28a8ea"/><path d="m10 5h6.99985v5.99999h-6.99985z" fill="#0078d4"/><path d="m23.99969 5h5.99992v5.99997h-5.99992z" fill="#50d9ff"/><path d="m24 17-7-6h-7v6l7 6 10.832 1.768z" fill="#0364b8"/><path d="m10.03118 5.00001 19.96843-.00001" fill="none"/><path d="m16.99971 11h7.00001v5.99999h-7.00001z" fill="#0078d4"/><path d="m10 17h6.99978v6h-6.99978z" fill="#064a8c"/><path d="m23.99973 17h5.99992v6h-5.99992z" fill="#0078d4"/><path d="m20.19093 25.21763-11.79357-8.60045.49414-.86918s10.745 6.12012 10.90905 6.21191a.5285.5285 0 0 0 .4209-.0122c.15332-.08643 10.93249-6.23 10.93249-6.23l.49609.86914z" fill="#0a2767" opacity=".5"/><path d="m31.66669 16.57678v.00049l-.01325.00757-.00335.00189-10.838 6.1742a1.49672 1.49672 0 0 1 -1.46045.09118l3.77468 5.06089 8.25405 1.797-.0003.00446a1.49756 1.49756 0 0 0 .61993-1.21446v-12.49994a.666.666 0 0 1 -.33331.57672z" fill="#1490df"/><path d="m32 28.5v-.738l-9.98291-5.68756-1.205.68647a1.49685 1.49685 0 0 1 -1.46045.09118l3.7747 5.06091 8.254 1.79694-.0003.00446a1.49756 1.49756 0 0 0 .61996-1.2144z" opacity=".05"/><path d="m31.95 28.88342-10.94292-6.23358-.19495.11109a1.49685 1.49685 0 0 1 -1.46045.09118l3.77466 5.06089 8.254 1.79694-.0003.00446a1.50132 1.50132 0 0 0 .56996-.83098z" opacity=".1"/><path d="m8.35 16.59v-.01h-.01l-.03-.02a.65068.65068 0 0 1 -.31-.56v12.5a1.498 1.498 0 0 0 1.5 1.5h21a1.50264 1.50264 0 0 0 .37-.05.63693.63693 0 0 0 .18-.06.14177.14177 0 0 0 .06-.02 1.04752 1.04752 0 0 0 .23-.13c.02-.01.03-.01.04-.03z" fill="#28a8ea"/><path d="m18 24.66663v-16.33332a1.33727 1.33727 0 0 0 -1.33337-1.33331h-6.6355v4h.00006v3.456l-1.68085.95759-.004.00225-.01281.00727v.00048a.66591.66591 0 0 0 -.33332.57679l.00019.00421-.0004-.00359v9.999h8.66663a1.33732 1.33732 0 0 0 1.33337-1.33337z" opacity=".1"/><path d="m17 25.66663v-16.33332a1.33727 1.33727 0 0 0 -1.33337-1.33331h-5.6355v3h.00006v3.456l-1.68085.95759-.004.00225-.01281.00727v.00048a.66591.66591 0 0 0 -.33332.57679l.00019.00421-.0004-.00359v10.999h7.66663a1.33732 1.33732 0 0 0 1.33337-1.33337z" opacity=".2"/><path d="m17 23.66663v-14.33332a1.33727 1.33727 0 0 0 -1.33337-1.33331h-5.6355v3h.00006v3.456l-1.68085.95759-.004.00225-.01281.00727v.00048a.66591.66591 0 0 0 -.33332.57679l.00019.00421-.0004-.00359v8.999h7.66663a1.33732 1.33732 0 0 0 1.33337-1.33337z" opacity=".2"/><path d="m16 23.66663v-14.33332a1.33727 1.33727 0 0 0 -1.33337-1.33331h-4.6355v3h.00006v3.456l-1.68085.95759-.004.00225-.01281.00727v.00048a.66591.66591 0 0 0 -.33332.57679l.00019.00421-.0004-.00359v8.999h6.66663a1.33732 1.33732 0 0 0 1.33337-1.33337z" opacity=".2"/><path d="m1.33348 8h13.3332a1.33332 1.33332 0 0 1 1.33332 1.33332v13.33334a1.33333 1.33333 0 0 1 -1.33333 1.33334h-13.3332a1.33332 1.33332 0 0 1 -1.33332-1.33333v-13.33334a1.33333 1.33333 0 0 1 1.33333-1.33333z" fill="#0078d4"/><path d="m3.86661 13.468a4.18142 4.18142 0 0 1 1.64192-1.8139 4.9652 4.9652 0 0 1 2.60955-.6541 4.61691 4.61691 0 0 1 2.414.62036 4.13906 4.13906 0 0 1 1.59809 1.733 5.59694 5.59694 0 0 1 .55967 2.54889 5.90136 5.90136 0 0 1 -.57653 2.66689 4.239 4.239 0 0 1 -1.64531 1.79363 4.79917 4.79917 0 0 1 -2.505.63723 4.72864 4.72864 0 0 1 -2.46794-.62711 4.20422 4.20422 0 0 1 -1.61833-1.73635 5.4589 5.4589 0 0 1 -.56642-2.51854 6.05522 6.05522 0 0 1 .5563-2.65zm1.74981 4.25826a2.71627 2.71627 0 0 0 .92379 1.19352 2.41142 2.41142 0 0 0 1.443.43493 2.533 2.533 0 0 0 1.54079-.44844 2.60284 2.60284 0 0 0 .89682-1.1969 4.62569 4.62569 0 0 0 .28658-1.66554 5.06271 5.06271 0 0 0 -.26972-1.68578 2.6687 2.6687 0 0 0 -.86648-1.24073 2.3873 2.3873 0 0 0 -1.52729-.472 2.493 2.493 0 0 0 -1.47672.4383 2.741 2.741 0 0 0 -.944 1.20364 4.77582 4.77582 0 0 0 -.00674 3.439z" fill="#fff"/><path d="m.00002 0h32v32h-32z" fill="none"/></svg>