<svg xmlns="http://www.w3.org/2000/svg" fill="none" viewBox="0 0 24 24"><path fill="url(#prefix__a)" d="M16.235 3.044L2.207 11.935l-1.206-1.903v-1.64c0-.597.302-1.154.803-1.479l8.154-5.29a3.753 3.753 0 014.085-.001l2.192 1.422z"/><path fill="url(#prefix__b)" d="M13.918 1.544c.042.025.084.051.125.078l6.364 4.128-15.78 10.002-2.42-3.82 11.58-7.355a1.85 1.85 0 00.13-3.033z"/><path fill="url(#prefix__c)" fill-opacity=".2" d="M13.918 1.544c.042.025.084.051.125.078l6.364 4.128-15.78 10.002-2.42-3.82 11.58-7.355a1.85 1.85 0 00.13-3.033z"/><path fill="url(#prefix__d)" d="M10.924 17.66l-6.296-1.909 13.385-8.484a1.816 1.816 0 00-.005-3.07l-.06-.039.173.108 4.074 2.643c.5.325.803.881.803 1.478v1.588L10.924 17.66z"/><path fill="url(#prefix__e)" fill-opacity=".2" d="M10.924 17.66l-6.296-1.909 13.385-8.484a1.816 1.816 0 00-.005-3.07l-.06-.039.173.108 4.074 2.643c.5.325.803.881.803 1.478v1.588L10.924 17.66z"/><path fill="url(#prefix__f)" d="M14.043 1.622a3.753 3.753 0 00-4.085 0L1.804 6.913c-.5.325-.803.882-.803 1.479v.08c.02.6.335 1.152.845 1.473l10.139 6.392 10.164-6.382c.528-.332.848-.911.848-1.534v1.554-1.587c0-.597-.302-1.154-.803-1.479l-8.15-5.287z"/><path fill="url(#prefix__g)" d="M10.198 23h9.111a3.688 3.688 0 003.688-3.687V8.42c0 .623-.32 1.202-.848 1.534L8.791 18.342a2.473 2.473 0 00-1.158 2.095A2.564 2.564 0 0010.198 23z"/><path fill="url(#prefix__h)" fill-opacity=".4" d="M10.198 23h9.111a3.688 3.688 0 003.688-3.687V8.42c0 .623-.32 1.202-.848 1.534L8.791 18.342a2.473 2.473 0 00-1.158 2.095A2.564 2.564 0 0010.198 23z"/><path fill="url(#prefix__i)" fill-opacity=".5" d="M10.198 23h9.111a3.688 3.688 0 003.688-3.687V8.42c0 .623-.32 1.202-.848 1.534L8.791 18.342a2.473 2.473 0 00-1.158 2.095A2.564 2.564 0 0010.198 23z"/><path fill="url(#prefix__j)" d="M13.848 23h-9.16A3.688 3.688 0 011 19.31V8.41c0 .623.319 1.202.845 1.533l13.345 8.413A2.515 2.515 0 0113.849 23z"/><path fill="url(#prefix__k)" d="M13.848 23h-9.16A3.688 3.688 0 011 19.31V8.41c0 .623.319 1.202.845 1.533l13.345 8.413A2.515 2.515 0 0113.849 23z"/><rect width="10" height="10" y="11" fill="url(#prefix__l)" rx="2.25"/><rect width="10" height="10" y="11" fill="url(#prefix__m)" fill-opacity=".5" rx="2.25"/><path fill="#fff" d="M4.972 19.05c-.877 0-1.597-.274-2.16-.823-.563-.549-.845-1.265-.845-2.149 0-.933.286-1.687.858-2.263.571-.577 1.32-.865 2.245-.865.874 0 1.586.276 2.135.828.552.551.828 1.278.828 2.181 0 .928-.286 1.675-.858 2.243-.569.566-1.303.848-2.203.848zm.026-1.165c.478 0 .863-.163 1.154-.49.292-.326.437-.78.437-1.362 0-.606-.141-1.078-.424-1.416-.283-.337-.66-.506-1.133-.506-.487 0-.879.174-1.176.523-.297.345-.446.804-.446 1.374 0 .58.149 1.038.446 1.375.297.335.678.502 1.142.502z"/><defs><linearGradient id="prefix__a" x1="3.438" x2="16.235" y1="11.001" y2="3.063" gradientUnits="userSpaceOnUse"><stop stop-color="#20A7FA"/><stop offset=".4" stop-color="#3BD5FF"/><stop offset="1" stop-color="#C4B0FF"/></linearGradient><linearGradient id="prefix__b" x1="7.842" x2="14.966" y1="13.707" y2="2.299" gradientUnits="userSpaceOnUse"><stop stop-color="#165AD9"/><stop offset=".501" stop-color="#1880E5"/><stop offset="1" stop-color="#8587FF"/></linearGradient><linearGradient id="prefix__c" x1="13.038" x2="5.128" y1="13.862" y2="7.417" gradientUnits="userSpaceOnUse"><stop offset=".237" stop-color="#448AFF" stop-opacity="0"/><stop offset=".792" stop-color="#0032B1"/></linearGradient><linearGradient id="prefix__d" x1="12.032" x2="24.532" y1="16.343" y2="8.344" gradientUnits="userSpaceOnUse"><stop stop-color="#1A43A6"/><stop offset=".492" stop-color="#2052CB"/><stop offset="1" stop-color="#5F20CB"/></linearGradient><linearGradient id="prefix__e" x1="15.56" x2="7.965" y1="15.865" y2="9.292" gradientUnits="userSpaceOnUse"><stop stop-color="#0045B9" stop-opacity="0"/><stop offset=".67" stop-color="#0D1F69"/></linearGradient><linearGradient id="prefix__g" x1="22.997" x2="11.909" y1="15.631" y2="15.631" gradientUnits="userSpaceOnUse"><stop stop-color="#4DC4FF"/><stop offset=".196" stop-color="#0FAFFF"/></linearGradient><linearGradient id="prefix__k" x1="-.554" x2="10.123" y1="20.476" y2="20.468" gradientUnits="userSpaceOnUse"><stop offset=".206" stop-color="#6CE0FF"/><stop offset=".535" stop-color="#50D5FF" stop-opacity="0"/></linearGradient><radialGradient id="prefix__f" cx="0" cy="0" r="1" gradientTransform="matrix(0 -16.5 17.8587 0 12 1.5)" gradientUnits="userSpaceOnUse"><stop offset=".568" stop-color="#275FF0" stop-opacity="0"/><stop offset=".992" stop-color="#002177"/></radialGradient><radialGradient id="prefix__h" cx="0" cy="0" r="1" gradientTransform="matrix(5 -5 5 5 14.5 20.5)" gradientUnits="userSpaceOnUse"><stop offset=".259" stop-color="#0060D1"/><stop offset=".908" stop-color="#0383F1" stop-opacity="0"/></radialGradient><radialGradient id="prefix__i" cx="0" cy="0" r="1" gradientTransform="matrix(14.55963 -19.083 17.25588 13.1656 3.83 25.731)" gradientUnits="userSpaceOnUse"><stop offset=".732" stop-color="#F4A7F7" stop-opacity="0"/><stop offset="1" stop-color="#F4A7F7"/></radialGradient><radialGradient id="prefix__j" cx="0" cy="0" r="1" gradientTransform="rotate(123.339 .524 9.419) scale(12.6645 32.8659)" gradientUnits="userSpaceOnUse"><stop stop-color="#49DEFF"/><stop offset=".724" stop-color="#29C3FF"/></radialGradient><radialGradient id="prefix__l" cx="0" cy="0" r="1" gradientTransform="rotate(46.924 -13.133 5.651) scale(13.1636)" gradientUnits="userSpaceOnUse"><stop offset=".039" stop-color="#0091FF"/><stop offset=".919" stop-color="#183DAD"/></radialGradient><radialGradient id="prefix__m" cx="0" cy="0" r="1" gradientTransform="matrix(0 7 -8.07428 0 5 17.09)" gradientUnits="userSpaceOnUse"><stop offset=".558" stop-color="#0FA5F7" stop-opacity="0"/><stop offset="1" stop-color="#74C6FF"/></radialGradient></defs></svg>
