<svg xmlns="http://www.w3.org/2000/svg" width="400" height="400"><g fill-rule="evenodd"><path d="M196.9.297a85.45 85.45 0 0 0 6.2 0c1.705-.075.31-.136-3.1-.136s-4.805.061-3.1.136M185.2.8c0 .22.641.4 1.424.4.847 0 1.323-.162 1.176-.4-.136-.22-.777-.4-1.424-.4-.647 0-1.176.18-1.176.4m27.2 0c0 .22.54.4 1.2.4.66 0 1.2-.18 1.2-.4 0-.22-.54-.4-1.2-.4-.66 0-1.2.18-1.2.4M171.8 2c-.14.227.196.4.776.4.563 0 1.024-.18 1.024-.4 0-.22-.349-.4-.776-.4-.427 0-.888.18-1.024.4m54.6 0c0 .22.461.4 1.024.4.58 0 .916-.173.776-.4-.136-.22-.597-.4-1.024-.4-.427 0-.776.18-.776.4m-60 .8c0 .22.27.4.6.4.33 0 .6-.18.6-.4 0-.22-.27-.4-.6-.4-.33 0-.6.18-.6.4M151.2 6c0 .22.27.4.6.4.33 0 .6-.18.6-.4 0-.22-.27-.4-.6-.4-.33 0-.6.18-.6.4m100.17.752c.12.193.591.449 1.047.568.68.178.744.115.357-.351-.506-.61-1.767-.805-1.404-.217M257.6 8.8c0 .22.27.4.6.4.33 0 .6-.18.6-.4 0-.22-.27-.4-.6-.4-.33 0-.6.18-.6.4m-137.4 7.6c-.411.454-.524.8-.262.8.254 0 .462-.18.462-.4 0-.22.27-.4.6-.4.33 0 .6-.18.6-.4 0-.641-.618-.464-1.4.4m-17 8.4c-.507.44-.728.8-.49.8.417 0 1.69-1.076 1.69-1.429 0-.318-.274-.174-1.2.629m199.8 4c-.136.22.123.4.576.4.453 0 .824-.18.824-.4 0-.22-.259-.4-.576-.4-.317 0-.688.18-.824.4M87.6 34.2c-.517.55-.81 1-.652 1 .158 0 .772-.45 1.365-1 .594-.55.887-1 .653-1-.235 0-.849.45-1.366 1m227.2 1.625c0 .3 1.073 1.375 1.371 1.375.509 0 .18-.638-.571-1.107-.44-.275-.8-.395-.8-.268m5.606 4.046c.012.613.749 1.507 1.02 1.236.148-.148-.022-.56-.378-.917-.357-.356-.645-.499-.642-.319M78.657 40.6c-.33.33-.716.6-.857.6-.656 0-1.49 1.27-1.094 1.666.286.286.495.16.675-.405.143-.451.594-.926 1.003-1.056.408-.129.843-.499.966-.82.287-.747.064-.742-.693.015m-6.645 4.984c-.324.205-.455.507-.291.67.164.164.602-.006.974-.378.723-.723.29-.907-.683-.292m-2.228 2.043c-.456.737.148.898.826.221.559-.56.565-.648.042-.648-.333 0-.723.192-.868.427m-2.802 2.513c-.856.942-1.039 1.457-.434 1.224.325-.124.698-.508.83-.852.308-.801.138-.959-.396-.372m265.424-.269c.012.613.749 1.507 1.02 1.236.148-.148-.022-.56-.378-.917-.357-.356-.645-.499-.642-.319m4.394 3.941c0 .117 2.25 2.448 5 5.18 2.75 2.732 5 4.815 5 4.629 0-.35-9.466-10.021-9.808-10.021-.105 0-.192.096-.192.212M58.28 58.159C55.676 60.763 54.724 62 55.326 62c.474 0 6.31-6.092 6.188-6.459-.085-.254-1.54.924-3.234 2.618m-7.574 8.249c-.601.655-.929 1.192-.728 1.192.346 0 .751-.374 1.938-1.786.949-1.13-.102-.614-1.21.594M348.8 66.8c0 .22.167.4.371.4.205 0 .655.283 1 .629.346.345.629.475.629.288 0-.343-1.444-1.717-1.805-1.717-.107 0-.195.18-.195.4M45.829 71.829c-.346.345-.629.808-.629 1.028 0 .22.313.072.696-.328.383-.401.878-.861 1.1-1.023.258-.187.233-.296-.067-.3-.26-.003-.755.277-1.1.623M362.4 83.277c0 .11.36.616.8 1.123.44.507.8.743.8.523 0-.219-.36-.725-.8-1.123-.44-.398-.8-.634-.8-.523M34.973 86.3c-.396.605-.957 1.338-1.246 1.629-.29.29-.527.785-.527 1.1 0 .314-.18.571-.4.571-.22 0-.4.18-.4.4 0 .76.747.397 1.03-.5.157-.495.619-1.191 1.027-1.547.409-.356.743-.792.743-.968 0-.177.298-.651.662-1.054.364-.402.475-.731.246-.731-.229 0-.74.495-1.135 1.1m330.64 1.229c-.007.29.257.798.587 1.128.771.771.78.134.013-.881-.369-.487-.592-.579-.6-.247m-305.85 7.283c-5.868 1.164-10.573 6.113-11.76 12.372-.535 2.82-.534 95.64.001 100.718 5.095 48.361 61.119 72.201 99.396 42.295 2.616-2.044 5.791-5.058 9.674-9.184.77-.818 5.726-7.769 5.726-8.03 0-.132.27-.51.6-.84.33-.33.6-1.043.6-1.585 0-.541.428-1.834.95-2.871 16.351-32.46-3.407-75.364-39.081-84.864-12.547-3.341-32.181-2.35-36.91 1.862l-.914.815.054 16.45c.053 15.631.241 18.235 1.168 16.15.073-.165.862-.774 1.753-1.353 29.101-18.91 62.679 14.353 43.243 42.837-14.951 21.911-50.08 14.668-55.222-11.384-.13-.66-.327-23.264-.436-50.231-.124-30.4-.353-49.838-.603-51.157-1.581-8.338-9.715-13.69-18.239-12m-32.892 4.242c-.291.316-.456.792-.367 1.059.094.282.371.094.661-.448.593-1.108.446-1.414-.294-.611m346.729 1.575c0 .125.27.498.6.828.651.651.733.554.357-.424-.228-.595-.957-.903-.957-.404M22.98 106.14c-.231.253-.576.82-.766 1.26l-.433 1c-.049.11-.22.605-.381 1.1-.162.495-.452.9-.647.9-.194 0-.353.27-.353.6 0 1.071.729.634 1-.6.145-.66.429-1.2.632-1.2.202 0 .368-.36.368-.8 0-.44.159-.8.353-.8.195 0 .458-.397.584-.883.278-1.06.2-1.186-.357-.577m-5.59 11.09c-.144.457-.157.937-.027 1.067.131.13.237-.064.237-.43 0-.367.18-.667.4-.667.22 0 .4-.18.4-.4 0-.73-.742-.414-1.01.43m368.21 8.57c0 .33.18.6.4.6.22 0 .4-.27.4-.6 0-.33-.18-.6-.4-.6-.22 0-.4.27-.4.6m-98.8 14.851c-2.631.181-8.842 1.23-10.8 1.824-24.211 7.346-39.896 24.392-44.65 48.525-.71 3.604-1.007 19.354-.607 32.2.164 5.248.113 5.303-2.962 3.187-4.841-3.331-11.381-12.055-11.381-15.182 0-.355-.225-.87-.5-1.145-.387-.386-.545-6.869-.7-28.589l-.2-28.09-1.297-2.632c-5.729-11.634-22.284-11.662-27.601-.048-1.613 3.523-1.805 7.247-1.583 30.699.204 21.595.006 26.182-1.273 29.477-1.393 3.588-2.002 4.837-3.534 7.251-2.692 4.24-9.479 10.672-11.261 10.672-.248 0-.453.135-.456.3-.002.165-.726.646-1.609 1.069-1.105.529-1.671 1.091-1.814 1.8-.115.567-.653 2.561-1.196 4.431-.542 1.87-.984 3.625-.981 3.9.003.275-.175.5-.395.5-.22 0-.4.298-.4.661 0 .71-1.325 3.507-3.192 6.739-.635 1.1-1.287 2.27-1.447 2.6-.288.591-4.597 6.433-5.607 7.6-.285.33-1.165 1.32-1.954 2.2l-1.435 1.6 2.118.334c19.701 3.111 45.972-10.643 57.173-29.934 3.197-5.506 7.544-16.575 7.544-19.21 0-2.114.685-.839 1.133 2.11.858 5.635.523 14.112-.787 19.9-.666 2.941-2.708 10.45-3.571 13.126-.768 2.385-.504 3.874.688 3.874.259 0 .53.157.604.35.708 1.859 13.588 7.523 21.733 9.558 3.161.79 52.578 1.196 61 .501 18.473-1.523 34.301-9.872 44.757-23.609 32.341-42.49-.121-102.222-53.557-98.549m104 .349c0 .33.18.6.4.6.22 0 .4-.27.4-.6 0-.33-.18-.6-.4-.6-.22 0-.4.27-.4.6M6.4 147.8c0 .33.18.6.4.6.22 0 .4-.27.4-.6 0-.33-.18-.6-.4-.6-.22 0-.4.27-.4.6m389.2 10.6c0 .747.107.853.48.48s.373-.587 0-.96-.48-.267-.48.48m-392 .8c0 .44.18.8.4.8.22 0 .4-.36.4-.8 0-.44-.18-.8-.4-.8-.22 0-.4.36-.4.8m-1.2 7.2c0 .44.18.8.4.8.22 0 .4-.36.4-.8 0-.44-.18-.8-.4-.8-.22 0-.4.36-.4.8m395.2 4.8c0 .44.18.8.4.8.22 0 .4-.36.4-.8 0-.44-.18-.8-.4-.8-.22 0-.4.36-.4.8m-395.63.1c-.294.99-.279 1.9.033 1.9.218 0 .397-.45.397-1 0-.794-.284-1.39-.43-.9m297.317.69c25.237 6.36 31.642 39.634 10.513 54.611-7.355 5.214-10.486 5.812-30.173 5.758-36.892-.1-41.3-.411-46.527-3.282-2.553-1.403-1.908-1.477 12.853-1.477h14.354l.254-1.1c.139-.605.353-7.4.473-15.1.208-13.217.274-14.196 1.19-17.507 4.488-16.23 20.956-25.962 37.063-21.903M398.8 183.4c0 .55.18 1 .4 1 .22 0 .4-.45.4-1s-.18-1-.4-1c-.22 0-.4.45-.4 1m-398.133.467c-.424.423-.31 2.933.133 2.933.22 0 .4-.72.4-1.6 0-1.635-.066-1.8-.533-1.333M399.701 191c.004.88.086 1.193.182.695.096-.497.092-1.217-.008-1.6-.1-.382-.179.025-.174.905M.169 200c0 4.51.058 6.355.129 4.1.072-2.255.072-5.945 0-8.2-.071-2.255-.129-.41-.129 4.1m399.54 8.4c0 .99.078 1.395.173.9a5.661 5.661 0 0 0 0-1.8c-.095-.495-.173-.09-.173.9M.4 214.6c0 .55.18 1 .4 1 .22 0 .4-.45.4-1s-.18-1-.4-1c-.22 0-.4.45-.4 1m398.4 1.6c0 .33.18.6.4.6.22 0 .4-.27.4-.6 0-.33-.18-.6-.4-.6-.22 0-.4.27-.4.6m-1.2 12c0 .33.18.6.4.6.22 0 .4-.27.4-.6 0-.33-.18-.6-.4-.6-.22 0-.4.27-.4.6M2.4 233.176c0 .453.18.824.4.824.22 0 .4-.259.4-.576 0-.317-.18-.688-.4-.824-.22-.136-.4.123-.4.576m394.4 1.024c0 .33.18.6.4.6.22 0 .4-.27.4-.6 0-.33-.18-.6-.4-.6-.22 0-.4.27-.4.6M4.4 242.8c0 .44.18.8.4.8.22 0 .4-.36.4-.8 0-.44-.18-.8-.4-.8-.22 0-.4.36-.4.8m226.61 25.184c-.453.733-.718 25.341-.304 28.223 2.574 17.939 27.386 17.768 30.137-.207.472-3.08.246-25.041-.28-27.3l-.256-1.1h-14.53c-8.861 0-14.622.15-14.767.384M12.252 269.4c.075.44.14.935.143 1.1.01.586.805.29.805-.3 0-.33-.167-.6-.371-.6s-.448-.225-.542-.5c-.095-.275-.11-.14-.035.3m3.648 9.247c-.155.245.075.768.509 1.162.452.408.791.517.791.253 0-.254-.167-.462-.371-.462s-.433-.315-.509-.7c-.089-.448-.24-.539-.42-.253m2.5 6.382c0 .125.27.498.6.828.651.651.733.554.357-.424-.228-.595-.957-.903-.957-.404M378.8 289c0 .33.18.6.4.6.22 0 .4-.27.4-.6 0-.33-.18-.6-.4-.6-.22 0-.4.27-.4.6m-1.001 2.486c-.388.833-.799 1.677-.914 1.876-.115.199-.023.247.205.106.518-.32 1.842-3.069 1.597-3.315-.1-.1-.5.5-.888 1.333M22.4 293.029c0 .125.27.498.6.828.651.651.733.554.357-.424-.228-.595-.957-.903-.957-.404m18 28c0 .125.27.498.6.828.651.651.733.554.357-.424-.228-.595-.957-.903-.957-.404m326.4 4.771c0 .33.18.6.4.6.22 0 .4-.27.4-.6 0-.33-.18-.6-.4-.6-.22 0-.4.27-.4.6m-321.001 2.198c.135.219.641.601 1.123.849l.878.452-.883-.85c-.922-.886-1.542-1.136-1.118-.451m6.601 7.031c0 .125.27.498.6.828.651.651.733.554.357-.424-.228-.595-.957-.903-.957-.404m10 10.002c0 .301 2.268 2.569 2.569 2.569.576 0 .15-.772-.549-.994-.428-.136-.89-.598-1.026-1.026-.222-.699-.994-1.125-.994-.549m6.092 5.844c.087.261.372.546.633.633.293.098.382-.085.232-.475-.279-.727-1.105-.878-.865-.158m1.508 1.04c0 .169.36.615.8.992.44.377.8.547.8.378 0-.169-.36-.615-.8-.992-.44-.377-.8-.547-.8-.378m6 5.285c0 .22.27.4.6.4.33 0 .6-.18.6-.4 0-.22-.27-.4-.6-.4-.33 0-.6.18-.6.4m5.83 4.348c.888.863 1.093.838.737-.091-.139-.361-.535-.657-.88-.657-.518 0-.494.129.143.748m2.57 1.481c0 .125.27.498.6.828.651.651.733.554.357-.424-.228-.595-.957-.903-.957-.404m218.1 8.369c-.743.844-.606 1.075.3.509.44-.275.8-.636.8-.803 0-.477-.551-.329-1.1.294m-198.9 3.706c0 .167.36.528.8.803.93.581 1.054.29.229-.536-.631-.63-1.029-.734-1.029-.267m254 .096c0 .22.27.4.6.4.33 0 .6-.18.6-.4 0-.22-.27-.4-.6-.4-.33 0-.6.18-.6.4m-249.2 2.724c0 .215.285.5.633.633.39.15.573.061.475-.232-.199-.598-1.108-.927-1.108-.401m179.3 1.474c-.743.844-.606 1.075.3.509.44-.275.8-.636.8-.803 0-.477-.551-.329-1.1.294m-158.1 7.752c0 .392 2.414.969 2.731.653.111-.112-.098-.203-.464-.203-.367 0-.667-.18-.667-.4 0-.22-.36-.4-.8-.4-.44 0-.8.157-.8.35m12.2 4.05c.136.22.507.4.824.4.317 0 .576-.18.576-.4 0-.22-.371-.4-.824-.4-.453 0-.712.18-.576.4m115 0c0 .22-.281.4-.624.4-.343 0-.521.165-.396.368.129.208.745.109 1.424-.23 1.399-.698 1.501-.938.396-.938-.44 0-.8.18-.8.4m-105 2.8c.136.22.507.4.824.4.317 0 .576-.18.576-.4 0-.22-.371-.4-.824-.4-.453 0-.712.18-.576.4m95 0c0 .22.259.4.576.4.317 0 .688-.18.824-.4.136-.22-.123-.4-.576-.4-.453 0-.824.18-.824.4m-5.6 1.2c0 .22.27.4.6.4.33 0 .6-.18.6-.4 0-.22-.27-.4-.6-.4-.33 0-.6.18-.6.4m-81.4.8c.136.22.507.4.824.4.317 0 .576-.18.576-.4 0-.22-.371-.4-.824-.4-.453 0-.712.18-.576.4m79 0c0 .22.259.4.576.4.317 0 .688-.18.824-.4.136-.22-.123-.4-.576-.4-.453 0-.824.18-.824.4m-14 2c0 .22.349.4.776.4.427 0 .888-.18 1.024-.4.14-.227-.196-.4-.776-.4-.563 0-1.024.18-1.024.4m-36.238 1.139c.115.186.759.354 1.431.373.672.019 1.118-.133.991-.339-.127-.205-.771-.373-1.431-.373s-1.106.152-.991.339m20.238-.021c0 .175.63.361 1.4.413.77.052 1.4-.092 1.4-.318 0-.227-.63-.413-1.4-.413-.77 0-1.4.143-1.4.318" fill="#f6f8f9"/><path d="M192.161.737c.21.34-.833.463-3.914.463-2.368 0-4.308.174-4.447.4-.33.534-2.448.509-3.477-.041-.535-.286-.912-.303-1.074-.046-.254.403-3.052.885-5.749.99-.825.032-1.5.202-1.5.378 0 .175-.585.319-1.3.319-.715.001-2.65.284-4.3.63-1.65.345-3.45.692-4 .769-3.038.426-4.281.668-5 .971-.44.185-2.24.663-4 1.063-1.76.399-3.29.749-3.4.777-.11.029-.92.197-1.8.373-.88.177-1.78.457-2 .623-.22.166-1.03.433-1.8.593-1.364.283-9 2.704-10.6 3.36-.44.18-2.78 1.085-5.2 2.011-2.42.927-4.76 1.843-5.2 2.037-6.793 2.996-10.914 4.875-11.4 5.199-.598.399-1.663.918-2.8 1.365-.33.13-1.23.622-2 1.093a79.641 79.641 0 0 1-3.406 1.926 79.875 79.875 0 0 0-3 1.675c-.867.53-8.809 5.485-10.972 6.845-.921.579-.707.429-5.089 3.589a587.706 587.706 0 0 1-4.328 3.101c-2.443 1.704-8.937 7.035-12.005 9.855-.99.91-2.412 2.17-3.159 2.8-.748.63-1.648 1.433-2 1.785-2.504 2.503-10.582 10.924-12.049 12.56-3.487 3.892-9.448 11.203-10.792 13.238-.33.499-1.873 2.675-3.428 4.835-3.724 5.171-12.159 18.832-13.168 21.327-.417 1.032-6.16 12.923-7.211 14.932-.326.623-.593 1.31-.593 1.526 0 .216-.424 1.327-.942 2.468s-1.17 2.794-1.447 3.674c-.278.88-.737 2.14-1.02 2.8-.757 1.763-1.617 4.343-2.8 8.4-.578 1.98-1.203 3.96-1.39 4.4-.188.44-.429 1.25-.538 1.8-.586 2.974-1.95 8.292-2.281 8.895-.21.382-.382 1.406-.382 2.276 0 .87-.172 1.688-.383 1.818-.21.13-.276.513-.146.851.129.338.05 1.007-.176 1.487-.49 1.042-1.295 5.653-1.295 7.419 0 .69-.144 1.254-.32 1.254-.176 0-.246.628-.156 1.396.109.939-.018 1.465-.391 1.608-.381.147-.505.708-.4 1.812.088.921-.062 1.858-.353 2.208-.383.462-.394.722-.043 1.073.568.568.613 2.963.063 3.303-.22.136-.4 1.827-.4 3.757 0 1.93-.121 3.631-.269 3.779-.375.375-.409 19.036-.035 18.804.167-.103.304 1.386.304 3.308s.213 4.084.473 4.804c.367 1.014.364 1.548-.012 2.373-.363.797-.371 1.202-.03 1.612.25.301.387 1.256.304 2.122-.082.865-.031 1.5.115 1.41.397-.245.753 1.533.501 2.498-.122.463-.025.964.214 1.111.597.37.549 2.109-.065 2.357-.4.161-.4.208 0 .233.293.019.5.58.5 1.352 0 .726.158 1.491.351 1.7.457.494 1.278 6.209.965 6.715-.132.215-.033.261.222.103.308-.19.462.096.462.858 0 .629.208 1.352.463 1.607.351.351.347.603-.017 1.041-.264.318-.337.641-.163.717.405.178 1.722 3.907 1.719 4.868-.001.402.448 2.07.998 3.709.55 1.638 1 3.247 1 3.576 0 .328.174.909.386 1.291.213.382.961 2.585 1.664 4.895.702 2.31 1.878 5.635 2.613 7.388.736 1.753 1.337 3.354 1.337 3.558 0 .203.599 1.649 1.332 3.212a356.224 356.224 0 0 1 2.3 5.012c2.416 5.416 7.158 14.37 10.29 19.43 2.753 4.446 8.144 12.729 8.462 13 .129.11.557.707.952 1.326.394.62.962 1.43 1.262 1.8 1.14 1.41 4.434 5.649 5.146 6.624.409.56 1.309 1.646 2 2.415.691.768 1.886 2.151 2.656 3.073.77.922 2.21 2.514 3.2 3.539.99 1.024 3.082 3.204 4.649 4.843 3.137 3.281 12.005 11.568 14.848 13.876 3.181 2.582 4.626 3.715 7.524 5.904 1.749 1.32 3.47 2.715 3.826 3.1.356.385.815.7 1.021.7.437 0 3.869 2.443 4.065 2.894a.546.546 0 0 0 .455.306c.306 0 5.194 3.124 5.612 3.586.11.122.917.58 1.794 1.018.877.438 1.806.993 2.066 1.233.259.241 1.027.668 1.706.949.679.281 1.234.655 1.234.831 0 .176.516.433 1.146.571.63.139 1.49.558 1.911.932.421.374 1.48 1.017 2.354 1.429a61 61 0 0 1 2.989 1.525c.77.428 1.715.877 2.1.998.385.122.7.38.7.575 0 .194.287.353.638.353.351 0 1.116.249 1.7.554 2.238 1.168 7.091 3.293 9.662 4.23.77.281 2.318.939 3.44 1.463 1.122.524 2.326.953 2.676.953.35 0 .748.18.884.4.136.22.687.4 1.224.4.537 0 .976.188.976.418 0 .229.225.39.5.356.865-.105 2.3.5 2.306.973.003.249.181.183.394-.147.258-.4.39-.433.394-.1.003.275.456.5 1.006.5s1 .18 1 .4c0 .22.135.369.3.332.714-.163 4.1.591 4.1.913 0 .195.641.355 1.424.355.968 0 1.333.147 1.14.458-.199.322.026.381.752.199.569-.143 1.147-.079 1.283.142.137.22.958.401 1.825.401s1.576.16 1.576.355c0 .195.806.475 1.791.623.985.147 1.877.408 1.983.58.106.171 1.055.343 2.109.383 1.054.039 1.977.249 2.05.465.074.217.669.394 1.324.394.692 0 1.087.168.943.4-.355.574.738.494 1.379-.1.435-.404.477-.393.218.061-.261.458-.02.513 1.318.299.957-.153 1.74-.095 1.884.139.137.221.853.401 1.591.401.739 0 1.426.225 1.527.5.146.4.289.4.713 0 .633-.597 1.97-.665 1.97-.1 0 .22.9.4 2 .4s2 .173 2 .384c0 .501.426.51 23.2.493 22.387-.016 23.2-.034 23.2-.517 0-.198.99-.36 2.2-.36 1.21 0 2.2-.18 2.2-.4 0-.577 1.49-.493 1.767.1.186.4.28.4.466 0 .129-.275.838-.5 1.577-.5.738 0 1.457-.186 1.598-.412.147-.239.829-.305 1.623-.156.891.167 1.369.102 1.369-.187 0-.266.791-.445 1.967-.445 1.081 0 2.026-.163 2.1-.361.073-.199 1.033-.45 2.133-.558 1.1-.108 2.507-.395 3.126-.639.619-.243 1.564-.442 2.1-.442s.974-.159.974-.353c0-.195 1.17-.479 2.6-.632 1.43-.153 2.6-.444 2.6-.647 0-.202.414-.368.92-.368s1.091-.171 1.3-.379c.209-.208 1.01-.454 1.78-.545.77-.091 2.27-.55 3.333-1.021 1.063-.47 2.268-.855 2.677-.855.408 0 .848-.17.976-.377s1.038-.498 2.023-.645c.985-.148 1.791-.428 1.791-.623s.349-.355.776-.355c.427 0 .888-.18 1.024-.4.136-.22.524-.4.863-.4.339 0 1.183-.249 1.877-.553a331.458 331.458 0 0 1 5.26-2.231c1.482-.612 5.59-2.505 6.8-3.134l1.8-.934c3.991-2.065 6.479-3.063 7.265-2.915.514.097.693.063.398-.074-.647-.301 2.558-2.555 3.637-2.557.385-.001.7-.154.7-.339 0-.185.672-.68 1.494-1.1.822-.42 1.734-.988 2.028-1.263.295-.275.77-.5 1.058-.5.287 0 .732-.253.989-.562.666-.804 5.319-3.054 6.682-3.232.632-.083 1.239-.185 1.349-.226.11-.041.335-.053.5-.027.165.026.3-.133.3-.353 0-.22.72-.4 1.6-.4.88 0 1.6-.18 1.6-.4 0-.226 1.133-.4 2.6-.4 1.43 0 2.6.157 2.6.349 0 .192.945.468 2.1.613 1.155.145 2.46.333 2.9.417.44.085.946.169 1.124.188.178.018.236.174.129.346-.106.173.286.308.872.3.585-.007 1.067.197 1.07.454.003.256.169.616.369.8.212.193.244.123.077-.167-.18-.313-.046-.5.359-.5.356 0 .536.18.4.4-.136.22.018.4.343.4s.695-.225.824-.5c.168-.362.294-.373.452-.042.121.251.55.371.955.265.405-.106.857.003 1.004.242.148.239.979.435 1.846.435.867 0 1.576.16 1.576.355 0 .195.495.457 1.1.582 4.798.995 5.7 1.237 5.7 1.53 0 .183.72.333 1.6.333.903 0 1.6.193 1.6.443 0 .243.264.341.587.217.323-.124.694-.053.824.157.13.211.946.383 1.813.383s1.576.18 1.576.4c0 .22.45.4 1 .4s1 .188 1 .418c0 .229.225.374.5.321.943-.181 4.3.51 4.3.886 0 .206.345.375.767.375.421 0 .871.225 1 .5.186.4.28.4.466 0 .129-.275.409-.5.624-.5.215 0 .267.199.117.443-.183.296-.001.356.551.181.802-.255 2.375.368 2.969 1.176.182.248.296.21.3-.1.003-.275.276-.5.606-.5.33 0 .6.141.6.314 0 .294 5.598 1.708 6.7 1.693.275-.004.5.173.5.393 0 .22.63.4 1.4.4.77 0 1.4.201 1.4.447 0 .257.357.353.844.226.606-.159.901-.007 1.043.539.238.911 1.313.106 1.313-.983 0-.346.225-.632.5-.635.358-.005.371-.09.047-.3-.701-.455-1.881-4.249-1.373-4.419.234-.078.426-.317.426-.532 0-.215-.18-.279-.4-.143-.22.136-.4-.108-.4-.543 0-.435-.172-.85-.382-.924-.21-.073-.482-1.213-.603-2.533-.121-1.32-.399-2.46-.617-2.533-.219-.074-.398-.569-.398-1.1 0-.532-.155-.967-.344-.967-.189 0-.451-1.032-.581-2.294-.13-1.261-.425-2.356-.656-2.433-.591-.197-.523-1.272.081-1.279.31-.004.348-.118.099-.3-.975-.716-2.331-5.285-1.9-6.407.156-.406.077-.519-.231-.329-.311.192-.468-.055-.468-.734 0-.563-.18-1.024-.4-1.024-.576 0-.494-1.096.1-1.335.4-.161.4-.208 0-.233-.275-.018-.5-.381-.5-.808 0-.427-.192-.896-.427-1.041-.235-.145-.331-.516-.213-.823.118-.308.041-.56-.173-.56-.213 0-.384-.675-.381-1.5.005-1.116.106-1.346.394-.9.234.362.39.411.394.123.003-.263-.33-.713-.74-1-.692-.485-1.424-2.692-1.931-5.82-.115-.713-.345-1.213-.511-1.111-.165.103-.417-.934-.56-2.303-.143-1.369-.438-2.549-.656-2.622-.518-.175-.515-1.267.004-1.267.22 0 .397-.405.394-.9-.005-.728-.08-.785-.394-.3-.331.513-.389.498-.394-.1-.003-.385-.186-.7-.406-.7-.22 0-.4-.349-.4-.776 0-.427-.173-.884-.385-1.015-.237-.146-.246-.6-.025-1.182.197-.52.272-1.032.165-1.139-.333-.333-.373-9.089-.041-9.088.173 0 .14-.325-.072-.722-.236-.44-.244-.946-.02-1.3.201-.318.369-.983.372-1.478.003-.495.186-.9.406-.9.22 0 .4-.379.4-.843 0-.526.195-.768.518-.644.342.131.549-.201.608-.973.049-.645.986-2.604 2.082-4.352 1.095-1.749 1.992-3.361 1.992-3.584 0-.222.135-.406.3-.408.165-.002.655-.812 1.09-1.8.434-.988.908-1.796 1.053-1.796.145 0 .369-.315.499-.7.129-.385.396-.97.594-1.3.197-.33 1.105-2.13 2.018-4 .913-1.87 1.815-3.67 2.006-4a17.4 17.4 0 0 0 .766-1.6c1.389-3.322 2.962-6.393 3.198-6.25.152.092.305-.574.341-1.48.036-.906.261-1.712.5-1.792.239-.079.435-.379.435-.666 0-.286.269-1.036.598-1.666.328-.63.598-1.45.6-1.822.001-.372.182-.788.402-.924.22-.136.4-.597.4-1.024 0-.427.21-.776.467-.776.256 0 .362-.105.234-.233-.128-.128.015-.825.317-1.549.303-.724.437-1.429.299-1.567-.137-.138-.061-.251.171-.251s.52-.495.641-1.1c.616-3.079 1.352-5.369 1.952-6.07.481-.561.535-.843.194-1.005-.359-.17-.353-.282.024-.458.306-.143.406-.607.257-1.2-.147-.587-.068-.967.201-.967.243 0 .443-.345.443-.767 0-.421.225-.857.5-.968.4-.161.4-.208 0-.233-.589-.038-.686-1.232-.1-1.232.22 0 .4-.45.4-1s.225-1 .5-1.001c.344-.001.534-.906.608-2.9.059-1.594.284-2.959.5-3.032.216-.074.392-.569.392-1.1 0-.532.18-.967.4-.967.22 0 .4-.27.4-.6 0-.33-.225-.603-.5-.606-.392-.005-.394-.074-.01-.318.27-.171.487-.843.483-1.494-.012-1.926.497-4.36.979-4.676.317-.208.301-.296-.052-.3-.275-.003-.5-.366-.5-.806 0-.44.18-.8.4-.8.22 0 .4-.9.4-2s.144-2 .319-2c.176 0 .349-.675.385-1.5.434-10.09.599-12.319.92-12.433.505-.179.503-24.355-.001-24.534-.318-.112-.783-7.089-.829-12.433-.007-.825-.188-1.5-.403-1.5-.215 0-.391-.81-.391-1.8s-.18-1.8-.4-1.8c-.22 0-.4-.27-.4-.6 0-.33.18-.6.4-.6.22 0 .4-.27.4-.6 0-.33-.18-.6-.4-.6-.22 0-.4-.619-.4-1.376 0-.757-.191-1.495-.423-1.638-.243-.151-.315-.758-.169-1.424.159-.723.092-1.162-.176-1.162-.252 0-.432-.835-.432-2 0-1.1-.156-2-.347-2-.191 0-.45-.675-.574-1.5-.4-2.646-1.249-6.294-1.513-6.5-.298-.233-.802-2.598-.831-3.9-.011-.495-.181-.9-.377-.9-.197 0-.358-.452-.358-1.005 0-.553-.167-1.318-.371-1.7-.311-.583-.744-1.637-1.025-2.495-.037-.11-.207-.877-.38-1.704-.173-.828-.474-1.603-.669-1.724-.195-.121-.355-.548-.355-.95 0-.402-.269-1.246-.598-1.876-.328-.63-.598-1.45-.6-1.822-.001-.372-.162-.775-.357-.896-.195-.121-.474-.856-.62-1.635-.146-.779-.595-1.996-.998-2.705-.403-.708-1.054-2.188-1.448-3.288-.394-1.1-.85-2.18-1.012-2.4-.163-.22-.422-1.075-.576-1.9-.154-.825-.419-1.5-.59-1.5-.17 0-.622-.675-1.002-1.5-1.636-3.543-3.6-7.515-3.806-7.7-.123-.11-.756-1.28-1.408-2.6-.652-1.32-1.293-2.49-1.424-2.6-.273-.228-2.069-3.346-3.439-5.969-.508-.974-1.193-2.068-1.523-2.432-.329-.364-.599-.873-.599-1.13 0-.258-.18-.469-.4-.469-.22 0-.4-.257-.4-.571 0-.315-.225-.81-.5-1.1-.841-.889-2.7-3.46-2.7-3.733 0-.328-6.291-8.765-9.092-12.196-5.476-6.705-7.087-8.489-13.776-15.263-3.448-3.492-6.328-6.488-6.4-6.658-.073-.171-.987-.919-2.032-1.663-1.045-.743-1.9-1.499-1.9-1.678 0-.18-.724-.806-1.608-1.391-1.267-.838-1.559-1.243-1.374-1.906.177-.633.137-.7-.159-.27-.361.524-3.689-1.74-6.859-4.666-4.079-3.764-20.92-14.405-30.2-19.081-2.86-1.441-5.65-2.876-6.2-3.188-.55-.312-1.63-.829-2.4-1.149-3.883-1.61-5.6-2.463-5.6-2.782 0-.194-.152-.258-.338-.143-.305.188-2.617-.573-5.862-1.929-1.828-.764-3.899-1.491-4.9-1.72-.495-.114-.9-.365-.9-.56 0-.194-.429-.353-.954-.353-.525 0-1.47-.269-2.1-.598-.63-.328-1.611-.598-2.179-.6-.569-.001-1.157-.125-1.308-.276-.398-.399-3.141-1.313-3.959-1.32-.385-.003-.7-.197-.7-.43 0-.233-.185-.309-.411-.169-.41.253-4.799-.712-6.757-1.487-.567-.224-1.524-.4-2.125-.391-.601.009-1.197-.151-1.324-.356-.126-.205-.76-.373-1.407-.373s-1.176-.141-1.176-.313c0-.172-.854-.35-1.899-.396-1.044-.045-1.954-.251-2.023-.458-.069-.206-.745-.275-1.502-.152-.888.145-1.376.063-1.376-.229 0-.248-.615-.452-1.367-.452-.751 0-1.457-.225-1.568-.5-.161-.4-.208-.4-.233 0-.038.59-2.432.691-2.432.103 0-.219-.723-.369-1.608-.334-1.166.045-1.767-.148-2.187-.703-.33-.436-.585-.551-.592-.266-.017.642-2.489.664-3.125.028-.362-.362-.709-.345-1.494.075-.818.438-1.285.453-2.337.072-.722-.261-2.966-.475-4.985-.475-2.489 0-3.672-.147-3.672-.458 0-.333-.893-.366-3.3-.119-4.147.425-6.516.423-10.263-.009-2.216-.255-2.89-.224-2.676.123M65.669 94.05c4.471.943 11.131 5.603 11.131 7.788 0 .309.18.562.4.562.22 0 .4.324.4.72 0 .396.225.945.5 1.22.385.384.526 5.466.613 22.043l.113 21.544 2.487-1.278c3.282-1.687 7.532-3.452 8.307-3.45.341 0 .791-.155 1-.345.397-.361 1.848-.746 7.18-1.907 11.489-2.501 28.276-.048 39.6 5.785 9.83 5.064 21.91 16.438 25.137 23.668.246.55.57 1.091.721 1.202.402.298 3.542 7.16 3.542 7.742 0 .273.168.667.374.876.206.209.762 1.73 1.235 3.38 4.26 14.847 2.936 33.182-3.243 44.895-.948 1.797-.098 1.624 4.179-.849 6.352-3.674 12.007-11.383 13.971-19.046.247-.965.504-12.235.647-28.4l.237-26.8 1.285-2.721c6.173-13.079 24.868-11.987 29.469 1.721.507 1.512.629 5.996.762 28 .17 28.101.141 27.685 2.298 32.8 2.101 4.983 7.08 11.16 10.718 13.3l1.19.699.183-17.299c.102-9.766.357-17.91.583-18.7.221-.77.621-2.39.889-3.6 7.258-32.742 42.021-54.047 74.823-45.857 7.44 1.857 18.679 6.86 20.4 9.079.11.142.404.33.653.418 2.099.741 11.681 10.306 14.781 14.754 3.589 5.149 6.703 11.137 8.117 15.606l1.013 3.218c.314 1 .778 2.98 1.031 4.4.254 1.42.628 3.451.833 4.513.511 2.651.469 13.482-.064 16.445-2.24 12.455-5.599 20.43-12.308 29.224-2.179 2.856-8.006 8.78-10.256 10.425-.88.644-1.69 1.273-1.8 1.399-.256.293-4.603 3.154-6.189 4.075-3.14 1.821-9.919 4.745-12.811 5.525-9.143 2.465-12.614 2.769-31.7 2.773l-16.5.003v16.257c0 20.689-.327 22.044-6.583 27.26-6.97 5.812-19.048 2.796-23.308-5.821l-1.509-3.052-.2-18.379c-.172-15.804-.284-18.42-.8-18.672-.33-.162-1.68-.623-3-1.025-1.32-.402-2.67-.863-3-1.025-.33-.162-2.22-1.056-4.2-1.985-5.837-2.74-11.296-6.644-16.564-11.846-2.551-2.518-2.115-2.576-5.517.734-2.254 2.193-4.276 3.831-8.719 7.063-3.024 2.2-10.068 5.677-14.2 7.009-9.724 3.136-10.654 3.217-38.6 3.37-35.936.196-32.978.283-40-1.173-2.793-.579-8.793-2.559-11.311-3.732-1.161-.54-2.271-.983-2.467-.983-.195 0-.415-.135-.489-.3-.073-.165-.853-.656-1.733-1.09-2.047-1.011-4.761-2.722-4.933-3.11-.074-.165-.325-.3-.559-.3-1.259 0-9.507-7.658-13.262-12.313-3.652-4.527-9.446-14.729-9.446-16.631 0-.273-.155-.667-.345-.876-.189-.209-.533-1.1-.764-1.98-.23-.88-.684-2.59-1.007-3.8-1.712-6.402-1.684-5.425-1.684-59.8v-52l1.144-2.37c3.121-6.467 10.557-10.366 17.125-8.98m142.029 1.869c15.117 7.448 10.103 29.645-6.704 29.675-17.592.032-21.854-23.937-5.394-30.335 3.498-1.359 8.56-1.083 12.098.66M103.4 172.365c-1.76.378-3.56.826-4 .995-3.075 1.183-4.303 1.791-6.6 3.264-9.894 6.349-16.408 20.482-13.65 29.616.193.638.574 2.15.847 3.36 2.046 9.053 9.351 17.003 19.19 20.886 5 1.973 15.026 1.973 20.026 0 23.903-9.433 27.302-42.478 5.587-54.322-.77-.42-1.46-.899-1.533-1.064-.074-.165-.316-.3-.54-.3-.223 0-1.063-.288-1.867-.641-2.691-1.181-3.046-1.286-6.46-1.924-4.207-.786-6.878-.755-11 .13m181.4.009c-1.43.375-3.095.894-3.7 1.154-.605.26-1.566.654-2.136.876-5.811 2.265-12.268 9.107-15.094 15.996-2.15 5.241-2.258 6.414-2.264 24.7L261.6 232h16.3c23.375 0 27.071-.961 35.336-9.182 21.295-21.182.518-58.038-28.436-50.444" fill="#40a7e4"/><path d="M195.656 95.767c-13.618 5.162-12.983 24.802.934 28.847 10.819 3.146 21.233-6.013 19.43-17.089-1.518-9.328-11.528-15.108-20.364-11.758" fill="#fadb2d"/><path d="M187.8.8c.136.22 1.237.4 2.447.4 1.365 0 2.106-.152 1.953-.4-.136-.22-1.237-.4-2.447-.4-1.365 0-2.106.152-1.953.4m9.715.08c1.35.246 3.015.248 4.6.004C204.49.519 204.396.502 200 .498c-4.141-.003-4.389.035-2.485.382M208.4.8c0 .22.9.4 2 .4s2-.18 2-.4c0-.22-.9-.4-2-.4s-2 .18-2 .4m-33.158.73c-.747.071-1.641.412-1.987.758-.571.571-.502.602.758.341a43.906 43.906 0 0 1 3.287-.496c1.045-.116 1.9-.373 1.9-.571 0-.34-.678-.346-3.958-.032m5.158.07c.788.51 3.085.51 3.4 0 .153-.248-.561-.398-1.876-.394-1.519.005-1.953.117-1.524.394m36.4 0c.785.507 2.286.507 2.6 0 .15-.243-.428-.398-1.476-.394-1.261.005-1.563.11-1.124.394m4.2 0c.136.22.912.387 1.724.372 1.189-.023 1.321-.095.676-.372-1.123-.483-2.698-.483-2.4 0m3.8.353c0 .195.36.448.8.563.52.136.8.012.8-.353 0-.31-.36-.563-.8-.563-.44 0-.8.159-.8.353m-57.267.841c-.073.217-1.663.505-3.533.64-1.87.135-3.571.407-3.78.605-.209.199-.794.361-1.3.361s-.92.196-.92.436c0 .286.581.346 1.7.175.935-.143 2.15-.326 2.7-.407.55-.08 2.35-.429 4-.774 1.65-.346 3.585-.629 4.3-.63.715 0 1.3-.18 1.3-.4 0-.519-4.291-.524-4.467-.006M228.4 2.8c0 .22.54.4 1.2.4.66 0 1.2-.18 1.2-.4 0-.22-.54-.4-1.2-.4-.66 0-1.2.18-1.2.4m2.8 0c0 .22.36.4.8.4.44 0 .8-.18.8-.4 0-.22-.36-.4-.8-.4-.44 0-.8.18-.8.4m2.8.816c0 .451 1.867.524 2.137.084.102-.165-.337-.338-.976-.384-.639-.046-1.161.089-1.161.3m2.8.409c0 .206.435.375.967.375s1.252.109 1.6.243c.403.154.633.026.633-.353 0-.425-.46-.602-1.6-.618-.88-.012-1.6.147-1.6.353m4 .775c0 .22.27.4.6.4.33 0 .6-.18.6-.4 0-.22-.27-.4-.6-.4-.33 0-.6.18-.6.4m-87.5.682c-.495.096-.9.341-.9.546 0 .205-.81.372-1.8.372s-1.8.18-1.8.4c0 .22-.191.4-.424.4-.233 0-.292-.225-.131-.5.161-.275-.068-.185-.508.2-.45.394-1.441.7-2.268.7-.808 0-1.469.18-1.469.4 0 .22-.36.4-.8.4-.44 0-.8.155-.8.344 0 .19-.944.456-2.098.593-1.153.137-2.158.432-2.233.656-.075.224-.736.407-1.469.407-.733 0-1.397.192-1.475.426-.078.234-.948.532-1.934.662-.993.131-2.079.566-2.438.974-.373.425-1.183.738-1.912.738-.756 0-1.359.242-1.496.6-.127.33-.526.597-.888.594-.57-.005-.578-.057-.057-.394.33-.213.455-.391.279-.394-.177-.003-.984.444-1.793.994-.809.55-1.88 1-2.379 1-.499 0-.907.18-.907.4 0 .22-.27.4-.6.4-.33 0-.6.157-.6.349 0 .192-.72.464-1.6.605-.88.14-1.6.433-1.6.651 0 .217-.373.395-.829.395-.455 0-1.098.27-1.428.6-.33.33-1.037.6-1.572.6-.534 0-.971.159-.971.354 0 .195-.675.658-1.5 1.027-2.854 1.28-3.502 1.621-4.029 2.119-.29.275-.953.5-1.473.5-.593 0-1.039.298-1.198.8-.14.44-.467.827-.727.861-.26.033-.653.103-.873.154-.22.051-.636.113-.924.139-.288.025-.412.226-.276.446.136.22-.108.4-.543.4-.435 0-.854.19-.931.422-.077.232-.467.469-.865.528-.399.058-.846.288-.993.51-.147.222-.853.659-1.568.97-.715.311-1.3.712-1.3.891 0 .18-.18.215-.4.079-.22-.136-.4-.057-.4.176 0 .233-.281.424-.624.424-.343 0-.524.161-.402.357.121.197-.228.47-.777.608-.548.138-.997.437-.997.666 0 .229-.181.304-.403.167-.221-.137-.511.033-.643.377s-.447.625-.701.625c-.254 0-.946.45-1.54 1-1.167 1.082-1.721 1.297-1.29.5.149-.275-.176-.005-.723.6-.546.605-1.197 1.1-1.447 1.1-.249 0-.453.18-.453.4 0 .22-.27.4-.6.4-.33 0-.6.27-.6.6 0 .373-.378.6-1 .6s-1 .227-1 .6c0 .33-.238.6-.528.6-.29 0-.919.45-1.397 1s-1.039 1-1.245 1c-.207 0-.491.363-.632.806-.141.443-.416.706-.612.585s-.723.146-1.171.594c-.448.448-1.014.815-1.257.815-.244 0-.797.45-1.229 1-.433.55-1.044 1-1.358 1-.314 0-.571.193-.571.429 0 .615-1.043 1.571-1.715 1.571-.315 0-.913.47-1.329 1.044-1.197 1.654-1.793 2.181-2.188 1.936-.203-.125-.368.053-.368.396s-.27.624-.6.624c-.33 0-.6.27-.6.6 0 .33-.188.6-.418.6-.449 0-2.382 1.798-2.382 2.215 0 .313-5.707 5.84-7.25 7.024-.623.476-1.035 1.023-.917 1.214.118.191-.066.347-.409.347-.343 0-.624.193-.624.429 0 .235-.225.679-.5.986-.869.968-1.446 1.57-1.981 2.066-.929.861-1.519 1.677-1.519 2.102 0 .229-.27.417-.6.417-.33 0-.6.195-.6.433 0 .239-.63 1.046-1.4 1.793-.77.748-1.4 1.552-1.4 1.786 0 .234-.45.843-1 1.353s-1 1.142-1 1.404c0 .263-.167.375-.371.249s-.5.178-.658.676c-.157.498-.62 1.141-1.028 1.429-.409.287-.743.788-.743 1.112 0 .325-.27.694-.6.82-.33.127-.6.404-.6.616 0 .213-.225.637-.5.944-.978 1.09-2.115 2.762-2.575 3.785-.148.33-.597.891-.997 1.247-.401.356-.728.838-.728 1.071 0 .234-.315.74-.7 1.125-.385.385-.708.893-.718 1.128-.01.236-.235.384-.5.329-.265-.055-.461.035-.435.2.143.904-.099 1.715-.447 1.5-.22-.136-.4.033-.4.376 0 .343-.162.624-.361.624-.47 0-1.255 2.251-.906 2.599.147.147-.003.208-.333.134-.33-.073-.555.092-.5.367.055.275-.06.5-.257.5-.196 0-.461.405-.589.9-.128.495-.688 1.423-1.244 2.062-.555.639-1.01 1.595-1.01 2.124 0 .529-.16.863-.355.742-.36-.223-1.174.52-1.181 1.079-.011.978-.582 2.693-.896 2.693-.202 0-.368.36-.368.8 0 .44-.166.8-.368.8-.203 0-.487.54-.632 1.2-.145.66-.509 1.2-.808 1.2-.3 0-.673.208-.83.462-.177.286-.11.353.176.176.254-.157.462-.095.462.138s-.18.424-.4.424c-.22 0-.4.341-.4.757 0 .417-.27.861-.6.988-.351.134-.6.734-.6 1.442 0 .667-.166 1.213-.368 1.213-.203 0-.487.54-.632 1.2-.145.66-.459 1.2-.698 1.2-.24 0-.318.117-.175.26.143.144-.052.517-.433.83-.382.313-.489.468-.239.344.25-.124.12.43-.287 1.23-.408.8-.647 1.608-.531 1.795.115.188.02.341-.213.341-.233 0-.424.373-.424.829 0 .455-.27 1.098-.6 1.428-.33.33-.6 1.217-.6 1.972 0 .754-.136 1.371-.302 1.371-.414 0-1.166 1.884-1.477 3.7-.142.825-.429 1.5-.639 1.5-.21 0-.382.525-.382 1.167 0 .641-.183 1.227-.407 1.302-.224.075-.519 1.08-.656 2.233C9.2 141.056 8.934 142 8.744 142c-.189 0-.344.255-.344.567 0 .311-.16.626-.355.7-.196.073-.479 1.213-.629 2.533-.15 1.32-.44 2.46-.644 2.533-.205.074-.372.914-.372 1.867s-.189 1.796-.419 1.873c-.231.077-.526 1.217-.655 2.533-.43 4.357 1.091.15 2.533-7.006.111-.55.354-1.36.542-1.8.187-.44.812-2.42 1.39-4.4 1.183-4.057 2.043-6.637 2.8-8.4.283-.66.742-1.92 1.02-2.8.277-.88.929-2.533 1.447-3.674s.942-2.252.942-2.468c0-.216.267-.903.593-1.526 1.051-2.009 6.794-13.9 7.211-14.932 1.009-2.495 9.444-16.156 13.168-21.327 1.555-2.16 3.098-4.336 3.428-4.835 1.344-2.035 7.305-9.346 10.792-13.238 2.495-2.783 11.163-11.733 12.567-12.975 1.447-1.279 2-1.778 4.466-4.025 3.349-3.052 9.733-8.293 12.18-10 .473-.33 2.421-1.725 4.328-3.101 4.382-3.16 4.168-3.01 5.089-3.589 2.163-1.36 10.105-6.315 10.972-6.845a79.875 79.875 0 0 1 3-1.675 79.641 79.641 0 0 0 3.406-1.926c.77-.471 1.67-.963 2-1.093 1.137-.447 2.202-.966 2.8-1.365.486-.324 4.607-2.203 11.4-5.199.44-.194 2.78-1.11 5.2-2.037 2.42-.926 4.76-1.831 5.2-2.011 1.6-.656 9.236-3.077 10.6-3.36.77-.16 1.58-.427 1.8-.593.22-.166 1.12-.444 2-.618 2.03-.401 1.94-.38 4.858-1.144 1.351-.354 2.826-.644 3.276-.644.45 0 .93-.18 1.066-.4.247-.4-2.262-.472-4.1-.118m90.045.029c.148.239.761.427 1.362.418.601-.009 1.558.167 2.125.391 1.958.775 6.347 1.74 6.757 1.487.226-.14.411-.084.411.124 0 .208.495.463 1.1.567.605.104 1.415.324 1.8.488.425.182.7.126.7-.143 0-.244-.255-.443-.567-.443-.311 0-.626-.163-.7-.363-.073-.2-1.111-.467-2.307-.594-1.195-.127-2.356-.413-2.58-.637-.223-.223-1.075-.406-1.893-.406-.817 0-1.549-.189-1.626-.419-.077-.231-1.2-.529-2.496-.663-1.65-.17-2.275-.112-2.086.193m15.275 4.037c.523.479 3.38.879 3.38.474 0-.393-1.418-.809-2.78-.817-.58-.003-.825.137-.6.343m3.98 1.252c.136.22.687.4 1.224.4.537 0 .976-.18.976-.4 0-.22-.551-.4-1.224-.4-.713 0-1.12.167-.976.4m2.6.779c0 .18.405.42.9.534 1.001.229 3.072.956 4.9 1.72 1.427.596 5.557 2.167 5.7 2.167.055 0 .1-.18.1-.4 0-.22-.27-.4-.6-.4-.33 0-.6-.18-.6-.4 0-.22-.461-.4-1.024-.4s-.919-.168-.792-.374-.582-.497-1.576-.646c-.995-.149-1.808-.43-1.808-.625s-.324-.355-.72-.355c-.396 0-.891-.157-1.1-.348-.523-.479-3.38-.879-3.38-.473m12 4.35c0 .298 1.775 1.172 5.6 2.758.77.32 1.85.843 2.4 1.162 2.973 1.729 5.239 2.569 5.908 2.19.562-.317.374-.443-1.001-.665-.931-.151-1.595-.431-1.476-.624.119-.192-.075-.35-.431-.35s-.536-.18-.4-.4c.144-.233-.253-.4-.948-.4-.657 0-1.465-.27-1.795-.6-.33-.33-.953-.6-1.386-.6-.432 0-.889-.27-1.016-.6-.13-.339-.725-.6-1.367-.6-.625 0-1.524-.36-1.996-.8-.864-.805-2.092-1.082-2.092-.471m13.6 6.675c0 .112 1.305.838 2.9 1.612 6.411 3.112 23.904 14.32 27.883 17.865.32.285 1.67 1.389 3 2.453 4.325 3.461 5.495 4.442 7.133 5.981.886.833 2.123 1.817 2.748 2.186s1.136.796 1.136.948c0 .153 2.835 3.148 6.3 6.656 6.722 6.806 8.328 8.585 13.808 15.295 2.801 3.431 9.092 11.868 9.092 12.196 0 .273 1.859 2.844 2.7 3.733.275.29.5.805.5 1.142 0 .372.229.527.58.392.392-.15.506-.03.351.372-.125.327.063.917.42 1.31.356.394 1.067 1.512 1.579 2.486 2.149 4.081 3.276 5.969 3.564 5.969.524 0 .336-1.113-.294-1.743-.33-.33-.6-.883-.6-1.228 0-.346-.177-.629-.392-.629-.216 0-.506-.45-.644-1s-.411-1-.607-1c-.197 0-.357-.27-.357-.6 0-.33-.16-.6-.357-.6-.196 0-.469-.45-.607-1s-.428-1-.644-1c-.215 0-.392-.347-.392-.772 0-.424-.624-1.432-1.386-2.241-.763-.808-1.495-1.811-1.627-2.228-.133-.418-.388-.759-.567-.759-.18 0-.432-.315-.562-.7-.315-.94-1.069-2.055-2.158-3.195-.495-.518-.9-1.193-.9-1.501 0-.307-.334-.794-.743-1.081-.408-.288-.87-.928-1.027-1.423-.156-.495-.452-.9-.657-.9-.205 0-.373-.27-.373-.6 0-.33-.25-.6-.557-.6-.306 0-.669-.45-.807-1s-.506-1-.817-1c-.311 0-.693-.405-.849-.9-.157-.495-.63-1.143-1.053-1.44-.422-.298-.932-.973-1.132-1.5-.201-.528-.64-.96-.975-.96-.336 0-.61-.226-.61-.502 0-.61-3.036-3.898-3.599-3.898-.221 0-.401-.279-.401-.62 0-.793-14.609-15.38-15.404-15.38-.328 0-.596-.159-.596-.353 0-.572-3.244-3.647-3.847-3.647-.304 0-.553-.274-.553-.609 0-.334-.488-.829-1.085-1.1-.596-.27-1.67-1.076-2.386-1.791-.716-.715-1.469-1.3-1.673-1.3-.204 0-.474-.27-.601-.6-.126-.33-.499-.6-.828-.6-.329 0-1.01-.365-1.513-.81-3.013-2.671-3.678-3.19-4.085-3.19-.249 0-.712-.36-1.029-.8-.317-.44-.788-.8-1.046-.8-.257 0-.572-.27-.699-.6-.126-.33-.596-.6-1.042-.6-.447 0-.813-.177-.813-.392 0-.216-.437-.502-.971-.636-.534-.135-1.073-.509-1.197-.833-.125-.325-.408-.478-.629-.341-.222.137-.403-.031-.403-.374 0-.357-.342-.624-.8-.624-.44 0-.8-.18-.8-.4 0-.22-.193-.4-.429-.4-.235 0-.698-.27-1.028-.6-.33-.33-1.067-.6-1.638-.6s-.927-.111-.791-.248c.358-.358-.743-1.352-1.498-1.352-.353 0-.745-.27-.871-.6-.127-.33-.571-.6-.988-.6-.416 0-.757-.177-.757-.392 0-.216-.489-.515-1.087-.665-.597-.15-1.441-.604-1.875-1.008-.434-.404-1.102-.735-1.485-.735s-.966-.27-1.296-.6c-.557-.557-2.257-.855-2.257-.396m-231 71.56c-4.909 1.113-9.113 4.424-11.256 8.866L47.4 105.4v52c0 54.375-.028 53.398 1.684 59.8.323 1.21.777 2.92 1.007 3.8.231.88.575 1.771.764 1.98.19.209.345.603.345.876 0 1.902 5.794 12.104 9.446 16.631 3.755 4.655 12.003 12.313 13.262 12.313.234 0 .485.135.559.3.172.388 2.886 2.099 4.933 3.11.88.434 1.66.925 1.733 1.09.074.165.294.3.489.3.196 0 1.306.439 2.467.976 8.685 4.014 18.896 5.711 30.311 5.035 4.359-.258 4.192-.276-3.2-.343-34.278-.311-59.747-22.624-63.196-55.366-.535-5.078-.536-97.898-.001-100.718 2.955-15.58 23.685-17.249 29.615-2.384.441 1.106.608 5.731.791 22l.232 20.6-.021-21.28c-.015-16.469-.133-21.394-.52-21.78-.275-.275-.5-.824-.5-1.22s-.18-.72-.4-.72c-.22 0-.4-.253-.4-.562 0-1.068-4.616-5.363-6.841-6.366-3.928-1.77-6.602-2.115-10.159-1.308m315 9.682c0 .425 2.185 4.347 2.5 4.487.165.074.3.354.3.624 0 .269.264.839.587 1.267.575.759.588.757.6-.095.007-.48-.268-1.153-.612-1.496-.343-.344-.65-.974-.683-1.401-.032-.427-.195-.692-.363-.588-.168.104-.431-.312-.585-.924-.342-1.364-1.744-2.871-1.744-1.874m4.262 7.254c-.133.215.09 1.091.495 1.946.406.855 1.052 2.229 1.436 3.054.384.825.858 1.5 1.053 1.5.195 0 .354.39.354.867 0 .476.107.759.238.628.376-.376-.261-2.728-.671-2.475-.202.125-.367-.043-.367-.372 0-.967-2.273-5.577-2.538-5.148m3.751 8.976c-.007.372.147.776.343.897.195.121.47.677.611 1.237.14.559.736 2.046 1.323 3.303.587 1.258 1.195 2.647 1.349 3.087.242.687.287.649.321-.271.022-.59-.226-1.338-.551-1.663-.325-.325-.632-1.135-.683-1.801-.05-.665-.235-1.121-.409-1.014-.174.108-.339.006-.367-.227a7.832 7.832 0 0 0-.15-.824c-.055-.22-.122-.88-.15-1.467-.027-.586-.167-.949-.31-.806-.144.143-.498-.052-.788-.433-.488-.643-.527-.644-.539-.018m3.987 10.1c0 .317.18.688.4.824.22.136.401.552.402.924.002.372.272 1.192.6 1.822.329.63.598 1.474.598 1.876 0 .402.18.842.4.978.233.144.4-.263.4-.976 0-.673-.178-1.224-.395-1.224-.218 0-.511-.72-.651-1.6-.141-.88-.413-1.6-.605-1.6s-.328-.135-.302-.3c.116-.733-.079-1.3-.447-1.3-.22 0-.4.259-.4.576m2.998 8.124c.157.605.321 1.32.365 1.588.044.269.232.629.416.8.185.172.22-.295.078-1.038-.141-.743-.257-1.597-.257-1.9 0-.303-.2-.55-.443-.55-.286 0-.343.39-.159 1.1M101.8 140.375c-1.54.174-4.15.617-5.8.985-1.65.368-3.499.776-4.108.906-.61.131-1.206.394-1.324.586-.118.191-.542.348-.941.348-1.163 0-10.179 4.075-10.63 4.805-.375.606-.053.5 2.881-.951 38.612-19.087 83.731 5.871 88.487 48.946l.331 3 .039-2.6c.054-3.634-2.461-15.063-3.561-16.18-.206-.209-.374-.603-.374-.876 0-.582-3.14-7.444-3.542-7.742-.151-.111-.475-.652-.721-1.202-.936-2.098-5.501-8.023-8.848-11.486-13.432-13.895-32.548-20.725-51.889-18.539m183.4-.091c-24.722 1.982-48.158 22.661-53.623 47.316a75.982 75.982 0 0 1-.889 3.6c-.226.79-.481 8.934-.583 18.7l-.183 17.299-1.19-.699c-3.638-2.14-8.617-8.317-10.718-13.3-2.157-5.115-2.128-4.699-2.298-32.8-.133-22.004-.255-26.488-.762-28-4.601-13.708-23.296-14.8-29.469-1.721L184.2 153.4l-.237 26.8c-.143 16.165-.4 27.435-.647 28.4-1.964 7.663-7.619 15.372-13.971 19.046-4.277 2.473-5.127 2.646-4.179.849 2.682-5.085 5.679-16.383 5.585-21.059-.044-2.224-.094-2.071-.573 1.764-.289 2.31-.976 5.951-1.526 8.092-.861 3.344-1.63 5.458-4.362 11.993-2.226 5.322 11.063-4.291 15.422-11.157 1.532-2.414 2.141-3.663 3.534-7.251 1.279-3.295 1.477-7.882 1.273-29.477-.222-23.452-.03-27.176 1.583-30.699 5.318-11.614 21.872-11.586 27.601.048l1.297 2.632.205 27.21.205 27.209 1.108 3.19c2.325 6.695 6.101 11.845 11.316 15.433 3.024 2.081 2.839 3.092 2.801-15.323-.031-14.476.054-16.942.694-20.1 4.925-24.302 20.511-41.233 44.671-48.523 8.737-2.636 22.051-2.503 32.618.327 21.497 5.757 38.649 24.227 43.394 46.729.474 2.247.739 2.975.753 2.067.012-.77-.347-2.75-.797-4.4l-1.146-4.2c-.576-2.11-1.205-3.652-3.184-7.8-1.81-3.793-2.764-5.417-5.404-9.206-3.1-4.448-12.682-14.013-14.781-14.754-.249-.088-.543-.276-.653-.418-.42-.542-5.521-3.521-8.2-4.79-10.183-4.823-21.229-6.723-33.4-5.748m106.667 2.783c-.419.418-.312 2.133.133 2.133.22 0 .4-.54.4-1.2 0-1.243-.081-1.385-.533-.933M392.8 149c0 .55.18 1 .4 1 .22 0 .4-.45.4-1s-.18-1-.4-1c-.22 0-.4.45-.4 1m.808 2.5c.021.833 1.125 4.186 1.152 3.5.055-1.417-.454-3.8-.812-3.8-.192 0-.345.135-.34.3M4.4 158.8c0 .66-.153 1.2-.341 1.2-.188 0-.462 1.575-.609 3.5-.148 1.925-.444 3.56-.659 3.633-.516.176-.508 4.467.009 4.467.22 0 .4-.564.4-1.254 0-1.766.805-6.377 1.295-7.419.226-.48.305-1.149.176-1.487-.13-.338-.064-.721.146-.851.51-.314.494-2.989-.017-2.989-.22 0-.4.54-.4 1.2m391.2 1.8c0 .77.162 1.4.36 1.4.199 0 .343-.63.321-1.4-.022-.77-.184-1.4-.36-1.4-.177 0-.321.63-.321 1.4m.4 3.153c0 .33.18.711.4.847.22.136.4-.023.4-.353 0-.33-.18-.711-.4-.847-.22-.136-.4.023-.4.353m.8 3.247c0 .33.18.6.4.6.22 0 .4-.27.4-.6 0-.33-.18-.6-.4-.6-.22 0-.4.27-.4.6m0 2.4c0 .33.18.6.4.6.22 0 .4-.27.4-.6 0-.33-.18-.6-.4-.6-.22 0-.4.27-.4.6m-294 2.378C90.434 174.565 80.381 184.804 79.02 196c-.161 1.325-.006 1.009.588-1.195 2.504-9.305 9.271-17.219 17.592-20.575l2.6-1.047c3.632-1.46 9.738-1.857 14.6-.948 3.414.638 3.769.743 6.46 1.924.804.353 1.644.641 1.867.641.224 0 .466.135.54.3.073.165.763.644 1.533 1.064 21.715 11.844 18.316 44.889-5.587 54.322-5 1.973-15.026 1.973-20.026 0-9.836-3.882-17.136-11.827-19.191-20.886-.801-3.531-1.237-4.522-1.006-2.29 2.26 21.873 30.816 32.89 48.993 18.903 25.427-19.566 6.041-61.472-25.183-54.435m181.8.077c-10.407 2.458-19.281 11.126-22.341 21.822-.975 3.41-1.866 30.969-1.186 36.709l.238 2.014h16.671c23.457 0 28.435-1.313 36.108-9.522 20.775-22.228.094-58.009-29.49-51.023m14.384.536c22.878 5.616 30.871 33.896 14.252 50.427-8.265 8.221-11.961 9.182-35.336 9.182h-16.3l.006-16.9c.006-18.286.114-19.459 2.264-24.7 2.826-6.889 9.283-13.731 15.094-15.996.57-.222 1.531-.616 2.136-.876 4.62-1.983 12.418-2.479 17.884-1.137m-296.53.109c-.029.385-.234.7-.454.7s-.4.36-.4.8c0 .92.719 1.078 1.044.229.121-.314.14-.989.042-1.5-.111-.585-.197-.67-.232-.229m395.146.3c0 .44.18.8.4.8.22 0 .4-.36.4-.8 0-.44-.18-.8-.4-.8-.22 0-.4.36-.4.8M1.5 176.35c-.436 1.961-.392 2.702.127 2.183.235-.235.37-1.126.3-1.98L1.8 175l-.3 1.35m396.506-.674c.012 1.005.781 1.832.788.848.003-.482-.174-.988-.394-1.124-.22-.136-.397-.012-.394.276M1.2 181.4c0 1.13.155 1.751.4 1.6.22-.136.4-.856.4-1.6 0-.744-.18-1.464-.4-1.6-.245-.151-.4.47-.4 1.6m397.6 4.6c0 .88.18 1.6.4 1.6.22 0 .4-.72.4-1.6 0-.88-.18-1.6-.4-1.6-.22 0-.4.72-.4 1.6M.4 188.824c0 1.247.153 1.928.4 1.776.522-.322.522-3.8 0-3.8-.22 0-.4.911-.4 2.024M399.766 199.6c0 4.07.059 5.735.132 3.7a125.05 125.05 0 0 0 0-7.4c-.073-2.035-.132-.37-.132 3.7m-46.653-.4c.742 24.622-12.169 46.523-33.708 57.181-11.63 5.754-18.286 6.808-43.049 6.815l-15.045.004-.237 2.005c-.131 1.102-.131 7.807-.001 14.9.266 14.541.006 17.467-1.896 21.374-4.431 9.102-17.688 10.899-24.501 3.321-4.084-4.542-4.458-6.828-4.117-25.2.277-14.943.1-18.8-.865-18.8-.439 0-.481.134-.162.518.288.347.469 6.502.549 18.722l.119 18.203 1.509 3.053c4.26 8.616 16.338 11.633 23.308 5.821 6.256-5.216 6.583-6.571 6.583-27.26V263.6l16.5-.003c19.086-.004 22.557-.308 31.7-2.773 2.892-.78 9.671-3.704 12.811-5.525 1.586-.921 5.933-3.782 6.189-4.075.11-.126.92-.755 1.8-1.399 2.25-1.645 8.077-7.569 10.256-10.425 6.709-8.794 10.068-16.769 12.308-29.224.483-2.685.527-14.602.059-16.176-.163-.55-.212 1.79-.11 5.2m-352.555.6c0 3.08.063 4.287.139 2.682.076-1.604.076-4.124-.001-5.6-.077-1.475-.139-.162-.138 2.918M78.54 202c0 1.87.069 2.635.153 1.7.084-.935.084-2.465 0-3.4s-.153-.17-.153 1.7M.667 209.467C.24 209.894.359 213.6.8 213.6c.22 0 .4-.99.4-2.2 0-2.225-.052-2.414-.533-1.933M398.8 213.8c0 .99.146 1.8.325 1.8.179 0 .367-.81.419-1.8.054-1.046-.083-1.8-.326-1.8-.23 0-.418.81-.418 1.8M1.212 218.6c0 1.437.109 1.831.388 1.4.213-.33.388-.96.388-1.4 0-.44-.175-1.07-.388-1.4-.279-.431-.388-.037-.388 1.4m.154 4.239c.158.968.274 2.236.258 2.817-.018.627.234 1.158.621 1.306.525.201.598.074.374-.656-.153-.498-.378-1.765-.5-2.814-.122-1.05-.407-2.022-.632-2.162-.271-.167-.312.342-.121 1.509m396.922.094c-.158.403-.277 1.123-.263 1.6.024.823.046.817.415-.108.214-.536.333-1.256.263-1.6-.104-.514-.178-.495-.415.108m-.688 3.867c0 .44.18.8.4.8.22 0 .4-.36.4-.8 0-.44-.18-.8-.4-.8-.22 0-.4.36-.4.8M1.9 227.991c.275.313.5 1.073.5 1.689 0 .616.18 1.12.4 1.12.756 0 .399-1.877-.5-2.627-.495-.414-.675-.496-.4-.182m394.9 2.809c0 .44.18.8.4.8.22 0 .4-.36.4-.8 0-.44-.18-.8-.4-.8-.22 0-.4.36-.4.8m-394.4.976c0 .317.18.688.4.824.22.136.4-.123.4-.576 0-.453-.18-.824-.4-.824-.22 0-.4.259-.4.576m394.4 1.024c0 .44.18.8.4.8.22 0 .4-.36.4-.8 0-.44-.18-.8-.4-.8-.22 0-.4.36-.4.8M3.347 235.15c.139.743.253 2.238.253 3.324 0 1.213.154 1.878.4 1.726.389-.24.562.283.43 1.3-.036.275.144.5.399.5.293 0 .367-.331.199-.9-.146-.495-.459-2.16-.695-3.7-.237-1.54-.612-2.98-.834-3.2-.273-.269-.322.042-.152.95m392.253 5.026c0 .891.626 1.068.692.196.032-.424-.111-.772-.317-.772-.206 0-.375.259-.375.576m-.8 2.024c0 .33.18.6.4.6.22 0 .4-.27.4-.6 0-.33-.18-.6-.4-.6-.22 0-.4.27-.4.6m-197.612 2.835c-11.798 12.008-24.955 17.199-44.855 17.698-5.867.147-10.802.402-10.967.567-.564.565 15.535.322 19.977-.301 5.848-.821 7.282-1.147 12.657-2.881 4.132-1.332 11.176-4.809 14.2-7.009 4.445-3.234 6.464-4.87 8.717-7.063 1.494-1.455 2.981-2.705 3.304-2.776.567-.126.433-.87-.156-.87-.159 0-1.453 1.186-2.877 2.635M5.2 244c0 .747.107.853.48.48s.373-.587 0-.96-.48-.267-.48.48m197.4 1.518c3.328 3.174 6.64 5.864 9.8 7.96 4.688 3.109 14.748 7.673 15.996 7.257.25-.084-.591-.499-1.871-.924-7.562-2.509-17.171-8.426-23.659-14.57-.953-.902-1.853-1.639-2-1.636-.146.003.634.863 1.734 1.913M5.417 246.5c.154.715.438 1.36.632 1.433.193.074.351.929.351 1.9 0 .977.189 1.767.424 1.767.233 0 .32.168.193.372-.126.205-.047.486.176.624.224.138.407 1.015.407 1.948s.163 1.867.361 2.076c.199.209.441.74.538 1.18.164.74.2.747.487.086.193-.444-.086-1.915-.738-3.886-.576-1.745-1.048-3.478-1.048-3.851 0-1.057-1.361-4.943-1.732-4.946-.182-.002-.205.582-.051 1.297m387.383 3.7c0 .33.18.6.4.6.22 0 .4-.27.4-.6 0-.33-.18-.6-.4-.6-.22 0-.4.27-.4.6m-1.504 6.595c-.599.96-.638 1.605-.096 1.605.22 0 .4-.36.4-.8 0-.44.18-.8.4-.8.22 0 .4-.18.4-.4 0-.659-.574-.454-1.104.395M9.313 260.03c.13.964.427 1.817.661 1.895.234.078.426.656.426 1.285 0 .628.16 1.241.355 1.362.397.246 1.029 2.935.885 3.768-.051.297.099.422.333.277.235-.146.427.016.427.359 0 .343.199.624.443.624.264 0 .327-.282.156-.7-.594-1.451-2.993-9.12-2.996-9.576-.002-.262-.21-.605-.464-.762-.333-.206-.396.2-.226 1.468m380.988.053a11.278 11.278 0 0 1-.492 1.617c-.166.395-.121.7.104.7.219 0 .52-.648.668-1.441.295-1.573.042-2.364-.28-.876m-1.384 3.768c.138.138-.002.858-.312 1.6-.667 1.595-.231 1.83.495.266.626-1.347.638-2.117.033-2.117-.256 0-.353.113-.216.251m-1.317 4.125c0 .427-.18.888-.4 1.024-.22.136-.4.507-.4.824 0 .317.18.576.4.576.22 0 .4-.36.4-.8 0-.44.18-.8.4-.8.22 0 .4-.36.4-.8 0-.44-.18-.8-.4-.8-.22 0-.4.349-.4.776M13.223 270.45c-.045 1.275.48 3.133.826 2.92.193-.12.351.311.351.957 0 .646.27 1.399.6 1.673.33.274.6.926.6 1.449s.18.951.4.951c.22 0 .4.27.4.6 0 .33.18.6.4.6.22 0 .4.527.4 1.171 0 .645.27 1.442.6 1.772.33.33.6.973.6 1.428 0 .456.173.829.385.829.211 0 .581.729.821 1.621.24.891.696 1.72 1.015 1.842.318.123.579.659.579 1.192 0 .534.27 1.074.6 1.2.33.127.6.661.6 1.188 0 .526.156.957.346.957.19 0 .655.81 1.033 1.8.378.99.833 1.8 1.011 1.8.178 0 .436.45.574 1 .138.55.428 1 .644 1 .215 0 .392.283.392.629 0 .345.225.879.5 1.186 1.556 1.735 1.979 2.528 1.038 1.947-.286-.177-.353-.11-.176.176.157.254.545.462.862.462.35 0 .576.398.576 1.013 0 .556.27 1.116.6 1.242.33.127.6.571.6.988 0 .416.168.757.373.757s.497.392.649.871c.152.479.705 1.332 1.227 1.896.523.563.951 1.212.951 1.441 0 .228.36.675.8.992.44.317.8.878.8 1.246 0 .367.27.772.6.899.33.126.6.506.6.842 0 .337.151.613.336.613.184 0 .541.45.791 1 .251.55.734 1 1.074 1 .583 0-.104-1.622-1.017-2.4-.318-.271-5.709-8.554-8.462-13-3.132-5.06-7.874-14.014-10.29-19.43a356.224 356.224 0 0 0-2.3-5.012c-.733-1.563-1.332-3.025-1.332-3.249 0-.721-1.953-4.732-1.977-4.059m372.873 1.459c-.591 1.252-.624 1.691-.128 1.691.362 0 1.045-2.32.766-2.599-.078-.079-.365.33-.638.908m-1.457 3.426c-.138.734-.878 2.579-1.644 4.1-1.493 2.965-1.612 3.365-1.003 3.365.216 0 .517-.493.668-1.096.151-.603.516-1.337.811-1.632.295-.295.434-.702.309-.904-.125-.203-.052-.368.161-.368.214 0 .51-.721.659-1.602.149-.881.435-1.5.635-1.376.201.124.365-.235.365-.798 0-1.476-.667-1.26-.961.311m-3.604 8.346c-.168.374-.201.85-.073 1.058.128.207-.026.477-.343.599-.652.249-1.992 2.623-1.666 2.949.51.51 1.447-.352 1.447-1.33 0-.588.287-1.279.638-1.535.387-.283.572-.852.47-1.444-.14-.818-.217-.866-.473-.297m-3.372 6.603c-.475.926-.863 1.902-.863 2.169 0 .266-.292.806-.649 1.201-.419.463-.538.969-.337 1.431.272.623.342.586.549-.285.13-.55.738-1.972 1.35-3.16.613-1.187 1.046-2.357.964-2.6-.083-.242-.539.318-1.014 1.244m-3.473 6.712c-.435.988-.925 1.798-1.09 1.8-.165.002-.3.186-.3.408 0 .223-.9 1.841-2 3.596-2.019 3.221-2.33 4-1.6 4 .22 0 .4-.27.4-.6 0-.33.168-.6.373-.6s.497-.391.649-.869c.152-.478.605-1.223 1.007-1.654.402-.432.844-1.301.983-1.931.138-.63.417-1.146.62-1.146.202 0 .368-.193.368-.429 0-.235.27-.698.6-1.028.33-.33.6-.947.6-1.372 0-.424.18-.771.4-.771.22 0 .4-.27.4-.6 0-1.127-.62-.602-1.41 1.196m-6.09 10.869c-.275.111-.5.547-.5.968 0 .422-.18.767-.4.767-.22 0-.4.27-.4.6 0 .892.604.726 1.096-.3.462-.964.935-2.32.791-2.268a33.59 33.59 0 0 0-.587.233m-1.82 4.271c-.113.295-.045.79.151 1.1.26.411.358.265.363-.536.007-1.194-.19-1.41-.514-.564M39.2 318.371c0 .205.27.642.6.972.33.33.6.793.6 1.028 0 .236.177.429.392.429.216 0 .506.45.644 1 .157.626.534 1 1.007 1 .459 0 .757.28.757.711 0 .391.377 1.034.838 1.429.92.787 1.513.627.791-.214-1.575-1.833-4.829-6.156-4.829-6.415 0-.171-.18-.311-.4-.311-.22 0-.4.167-.4.371m327.084 6.029c-.115.439-.046.9.154 1.023.199.123.362-.236.362-.799 0-1.226-.228-1.325-.516-.224m-321.489 1.612c-.504.318-.487.377.105.382.385.003.7.21.7.459 0 .25.495.88 1.1 1.4.605.52.965.946.8.947-.165 0 .06.36.5.8.44.44.98.8 1.2.8.22 0 .379.135.353.3-.131.825.12 1.269.847 1.5.44.14.8.481.8.759s.455.749 1.011 1.047c.556.297 1.114.952 1.24 1.454.126.502.346.898.489.879.865-.113 1.26.157 1.26.861 0 .444.267.8.6.8.33 0 .6.27.6.6 0 .33.27.6.6.6.33 0 .6.258.6.573 0 .315.36.687.8.827.44.14.8.512.8.827 0 .315.27.573.6.573.33 0 .6.27.6.6 0 .33.27.6.6.6.33 0 .6.27.6.6 0 .33.348.6.773.6.425 0 .884.351 1.021.78.136.428.589.887 1.006 1.02.417.133.867.583 1 1 .133.417.572.864.977.993.405.128.829.588.942 1.02.114.433.495.787.849.787.353 0 1.538.9 2.632 2s2.17 2 2.392 2c.221 0 .883.54 1.471 1.2.588.66 1.399 1.2 1.803 1.2.404 0 .734.274.734.609 0 .334.45.813 1 1.064.55.25 1 .607 1 .791 0 .185.27.336.6.336.33 0 .6.168.6.373s.398.499.885.654c.486.154 1.22.707 1.629 1.227.409.52 1.079.946 1.488.946.409 0 .858.36.998.8.231.727.675.978 1.5.847.165-.026.3.223.3.553 0 .33.193.6.429.6.235 0 .698.27 1.028.6.33.33.958.6 1.395.6.523 0 .697.171.507.5-.158.275-.141.368.037.206.179-.161.528-.016.775.323.248.338.775.663 1.172.721.397.059.842.278.989.487.419.596 2.383 1.763 2.966 1.763.289 0 .78.353 1.091.785.312.432 1.071.896 1.689 1.032.617.136 1.122.412 1.122.615 0 .202.193.368.429.368.235 0 .698.27 1.028.6.33.33.971.6 1.425.6.453 0 1.115.315 1.471.7.356.385 1.322 1.015 2.147 1.4l2.994 1.4c.822.385 1.713.903 1.98 1.152.268.248 1.107.568 1.866.71.759.143 1.6.524 1.869.849.269.324.722.589 1.008.589.285 0 1.028.262 1.651.583a32.7 32.7 0 0 0 2.403 1.085c.699.276 1.196.623 1.104.772-.092.149.641.392 1.629.54.988.148 1.796.438 1.796.645 0 .206.435.375.967.375.531 0 1.026.176 1.1.391.073.215.763.501 1.533.637 1.699.298-.86-1.168-3.8-2.177-2.304-.791-7.393-3.008-9.862-4.297-.584-.305-1.349-.554-1.7-.554s-.638-.159-.638-.353c0-.195-.315-.453-.7-.575-.385-.121-1.33-.57-2.1-.998a61 61 0 0 0-2.989-1.525c-.874-.412-1.933-1.055-2.354-1.429-.421-.374-1.281-.793-1.911-.932-.63-.138-1.146-.395-1.146-.571 0-.176-.555-.55-1.234-.831-.679-.281-1.447-.708-1.706-.949-.26-.24-1.189-.795-2.066-1.233-.877-.438-1.684-.896-1.794-1.018-.418-.462-5.306-3.586-5.612-3.586a.546.546 0 0 1-.455-.306c-.196-.451-3.628-2.894-4.065-2.894-.206 0-.665-.315-1.021-.7-.356-.385-2.077-1.78-3.826-3.1-2.898-2.189-4.343-3.322-7.524-5.904-2.843-2.308-11.711-10.595-14.848-13.876a1544.34 1544.34 0 0 0-4.649-4.843 81.137 81.137 0 0 1-3.2-3.537c-3.452-4.126-4.197-4.813-4.805-4.428M367.6 329.8c0 .33.18.6.4.6.22 0 .4-.27.4-.6 0-.33-.18-.6-.4-.6-.22 0-.4.27-.4.6m1.2 4.624c0 .713.167 1.12.4.976.22-.136.4-.687.4-1.224 0-.537-.18-.976-.4-.976-.22 0-.4.551-.4 1.224m.927 2.376c.71 3.116 1.066 3.865.862 1.816-.108-1.091-.398-2.171-.643-2.4-.323-.301-.384-.141-.219.584m1.879 7.3c-.003.825.174 1.5.394 1.5.509 0 .509-1.612 0-2.4-.288-.446-.389-.216-.394.9m1.194 5.7c0 .33.18.6.4.6.22 0 .4-.27.4-.6 0-.33-.18-.6-.4-.6-.22 0-.4.27-.4.6m1.441 2.934c-.114.184-.05.859.142 1.5.346 1.159.348 1.156.383-.334.034-1.479-.12-1.821-.525-1.166m.737 3.701c-.147.239-.068.635.177.88.327.327.445.211.445-.435 0-.966-.208-1.115-.622-.445m.622 3.365c0 .33.18.6.4.6.22 0 .4-.27.4-.6 0-.33-.18-.6-.4-.6-.22 0-.4.27-.4.6m1.2 4.4c0 .55.18 1 .4 1 .22 0 .4-.45.4-1s-.18-1-.4-1c-.22 0-.4.45-.4 1m-60.4 1c0 .226 1.133.4 2.6.4s2.6-.174 2.6-.4c0-.226-1.133-.4-2.6-.4s-2.6.174-2.6.4m-3.2.8c0 .22.371.4.824.4.453 0 .712-.18.576-.4-.136-.22-.507-.4-.824-.4-.317 0-.576.18-.576.4m10-.102c0 .399 2.165.889 3.967.898 1.172.005.869-.408-.432-.589a35.39 35.39 0 0 1-2.235-.419c-.788-.174-1.3-.131-1.3.11m-15.951 2.129c-1.183.628-2.457 1.418-2.831 1.757-.375.339-.879.616-1.121.616s-.678.227-.968.505c-.291.277-1.034.728-1.652 1.001-.617.274-1.013.675-.879.891.139.225-.023.292-.377.156-.342-.131-.621-.039-.621.204 0 .244-.315.444-.7.445-.385.001-1.51.547-2.5 1.213-1.653 1.112-1.704 1.195-.632 1.013.642-.11 1.272-.341 1.4-.514.127-.173 1.042-.726 2.032-1.229 2.492-1.267 3.286-1.774 4.041-2.585.359-.385.952-.7 1.318-.7.367 0 .77-.27.896-.6.127-.33.661-.6 1.188-.6.526 0 .957-.177.957-.392 0-.216.45-.506 1-.644s1-.411 1-.607c0-.197.36-.357.8-.357.44 0 .8-.18.8-.4 0-.624-.821-.409-3.151.827m21.951-.816c0 .347 1.553.97 1.801.721.077-.077-.296-.347-.83-.599s-.971-.307-.971-.122m4.2 1.189c.136.22.517.4.847.4.33 0 .489-.18.353-.4-.136-.22-.517-.4-.847-.4-.33 0-.489.18-.353.4m1.8.721c0 .176.63.338 1.4.36.77.022 1.4-.122 1.4-.321 0-.198-.63-.36-1.4-.36-.77 0-1.4.144-1.4.321m3.416.825c.229.245 1.309.535 2.4.643 1.871.186 1.905.174.584-.218-2.682-.796-3.429-.903-2.984-.425m4.984 1.254c0 .22.27.4.6.4.33 0 .6-.18.6-.4 0-.22-.27-.4-.6-.4-.33 0-.6.18-.6.4m35.2.557c0 .307.25.653.555.77.389.15.494-.017.353-.557-.232-.886-.908-1.044-.908-.213m-33.454.156c.293.474 2.654.558 2.654.093 0-.223-.641-.406-1.424-.406-.783 0-1.336.141-1.23.313m4.854 1.287c.136.22.777.4 1.424.4.647 0 1.176-.18 1.176-.4 0-.22-.641-.4-1.424-.4-.847 0-1.323.162-1.176.4m3.4.8c0 .22.27.4.6.4.33 0 .6-.18.6-.4 0-.22-.27-.4-.6-.4-.33 0-.6.18-.6.4m2 .469c0 .182.54.331 1.2.331.66 0 1.2-.07 1.2-.155 0-.085-.54-.233-1.2-.33-.66-.097-1.2-.028-1.2.154m24.246 1.031c.144.605.43 1.37.635 1.7.27.433.312.321.152-.4-.122-.55-.225-1.315-.228-1.7-.003-.385-.188-.7-.413-.7-.241 0-.301.448-.146 1.1m-88.246 1.288c-.77.424-2.48 1.289-3.8 1.923-1.32.634-2.76 1.349-3.2 1.588-.44.24-1.655.811-2.7 1.27-1.045.459-1.9.924-1.9 1.033 0 .451 1.588.153 2.143-.402.33-.33.951-.6 1.379-.6.429 0 1.004-.27 1.278-.6.274-.33.886-.6 1.361-.6.474 0 1.122-.36 1.439-.8.317-.44.974-.8 1.46-.8.485 0 1.153-.27 1.483-.6.33-.33.983-.6 1.452-.6s.741-.18.605-.4c-.136-.22.033-.4.376-.4.343 0 .624-.18.624-.4 0-.568-.405-.489-2 .388m71.8-.388c.136.22.517.4.847.4.33 0 .489-.18.353-.4-.136-.22-.517-.4-.847-.4-.33 0-.489.18-.353.4m3 .8c0 .22.27.4.6.4.33 0 .6-.18.6-.4 0-.22-.27-.4-.6-.4-.33 0-.6.18-.6.4m2 .748c0 .191.675.459 1.5.595 2.575.426 3.191.228 1.1-.352-2.413-.67-2.6-.688-2.6-.243m4.8 1.252c0 .22.36.4.8.4.44 0 .8-.18.8-.4 0-.22-.36-.4-.8-.4-.44 0-.8.18-.8.4m7.694.982c.129.673-.013 1.036-.453 1.154-.412.11-.32.188.259.218.744.038.9-.162.9-1.154 0-.66-.201-1.2-.447-1.2-.258 0-.367.414-.259.982m-5.694-.249c0 .184.54.334 1.2.334.66 0 1.2-.15 1.2-.334 0-.183-.54-.333-1.2-.333-.66 0-1.2.15-1.2.333m-96.981 3.236c-.125.203-.764.487-1.419.631-.655.144-1.31.454-1.455.689-.178.288.114.336.895.147 1.653-.4 3.36-1.179 3.36-1.534 0-.429-1.107-.375-1.381.067M273.4 385.2c-.136.22.123.4.576.4.453 0 .824-.18.824-.4 0-.22-.259-.4-.576-.4-.317 0-.688.18-.824.4m-2 .685c-1.039.25-1.757.917-.98.91 1.047-.01 2.38-.481 2.38-.842 0-.372-.114-.377-1.4-.068m-3 1.264c0 .192-.728.465-1.617.607-.89.143-1.925.418-2.3.613-.376.194-1.457.582-2.403.863-2.183.646-3.727 1.725-1.88 1.312.66-.147 1.26-.42 1.333-.606.074-.186.548-.338 1.055-.338.506 0 1.436-.269 2.066-.598.63-.328 1.686-.604 2.346-.612 1.13-.015 2.6-.769 2.6-1.334 0-.141-.27-.256-.6-.256-.33 0-.6.157-.6.349M132.2 388c-.14.227.196.4.776.4.563 0 1.024-.18 1.024-.4 0-.22-.349-.4-.776-.4-.427 0-.888.18-1.024.4m2.377.438c-.123.199.056.362.399.362s.624.18.624.4c0 .22.27.4.6.4.917 0 .71-.546-.403-1.062-.573-.266-1.092-.309-1.22-.1m5.423 2.017c0 .19.45.345 1 .345s1-.069 1-.153c0-.085-.45-.24-1-.345-.55-.105-1-.036-1 .153m115.8.745c-.136.22-.687.4-1.224.4-.537 0-.976.15-.976.333 0 .183.315.29.7.237 1.317-.182 2.5-.663 2.5-1.017 0-.48-.694-.448-1 .047m-111.4.8c0 .22.439.4.976.4.537 0 1.088-.18 1.224-.4.144-.233-.263-.4-.976-.4-.673 0-1.224.18-1.224.4m4.8 1.2c0 .22.63.4 1.4.4.77 0 1.4-.18 1.4-.4 0-.22-.63-.4-1.4-.4-.77 0-1.4.18-1.4.4m99.2 0c0 .22.54.4 1.2.4.66 0 1.2-.18 1.2-.4 0-.22-.54-.4-1.2-.4-.66 0-1.2.18-1.2.4m-95.2.792c0 .225.345.408.767.408.422 0 1.097.116 1.5.259.495.175.603.126.333-.148-.59-.602-2.6-1.002-2.6-.519m91.8.232c-.66.323-.87.495-.467.382a6.693 6.693 0 0 1 1.5-.206c.422 0 .767-.18.767-.4 0-.528-.357-.483-1.8.224m-5 .976c0 .22.27.4.6.4.33 0 .6-.18.6-.4 0-.22-.27-.4-.6-.4-.33 0-.6.18-.6.4m-4 .76c0 .199.63.343 1.4.321.77-.022 1.4-.184 1.4-.36 0-.177-.63-.321-1.4-.321-.77 0-1.4.162-1.4.36m-70.2.44c.136.22.517.4.847.4.33 0 .489-.18.353-.4-.136-.22-.517-.4-.847-.4-.33 0-.489.18-.353.4m67.2 0c-.136.22.023.4.353.4.33 0 .711-.18.847-.4.136-.22-.023-.4-.353-.4-.33 0-.711.18-.847.4m-64.2.8c0 .22.27.4.6.4.33 0 .6-.18.6-.4 0-.22-.27-.4-.6-.4-.33 0-.6.18-.6.4m2.2 0c-.14.227.196.4.776.4.563 0 1.024-.18 1.024-.4 0-.22-.349-.4-.776-.4-.427 0-.888.18-1.024.4m56.6 0c0 .22.36.4.8.4.44 0 .8-.18.8-.4 0-.22-.36-.4-.8-.4-.44 0-.8.18-.8.4m2.4 0c0 .22.36.4.8.4.44 0 .8-.18.8-.4 0-.22-.36-.4-.8-.4-.44 0-.8.18-.8.4m-54.8.8c0 .22.36.4.8.4.44 0 .8-.18.8-.4 0-.22-.36-.4-.8-.4-.44 0-.8.18-.8.4m48 0c0 .22.36.4.8.4.44 0 .8-.18.8-.4 0-.22-.36-.4-.8-.4-.44 0-.8.18-.8.4m-44.2.4c.136.22.732.387 1.324.372.961-.025.99-.065.276-.372-1.111-.478-1.895-.478-1.6 0m40.4 0c-.733.315-.716.346.2.366.55.012 1.27-.153 1.6-.366.787-.509-.616-.509-1.8 0m-28.4.8c.153.247 3.604.4 9.024.4 5.584 0 8.776-.145 8.776-.4s-3.275-.4-9.024-.4c-5.913 0-8.938.138-8.776.4" fill="#86c6e7"/><path d="M195.6 95.278c-7.713 2.932-12.043 11.264-9.823 18.901 4.419 15.204 25.571 15.395 30.345.275 1.07-3.386.541-9.467-.958-11.034-.493-.515-.46.054.06 1.025 1.399 2.613 1.18 8.843-.428 12.163-6.649 13.736-27.474 10.076-29.029-5.101-1.561-15.23 19.295-22.979 27.693-10.289.581.879 1.14 1.516 1.241 1.414.101-.101-.393-.987-1.098-1.968-3.84-5.347-11.823-7.735-18.003-5.386M86.586 144.959c-1.768.711-4.243 1.814-5.5 2.451l-2.286 1.157.046 23.617c.026 12.989.131 23.256.234 22.816 1.197-5.105 4.169-10.608 7.81-14.458 1.114-1.178 1.855-2.142 1.645-2.142-.234 0-.402-6.335-.435-16.44l-.055-16.44 1.036-.96c.57-.528.965-.945.877-.927-.087.018-1.604.615-3.372 1.326M214.8 213.39c0 4.498-6.233 18.004-11.664 25.273-3.266 4.372-3.2 3.732-.636 6.218 3.817 3.702 10.585 8.791 8.751 6.58-.335-.404-.257-1.132.313-2.9.871-2.704 2.912-10.203 3.582-13.161 1.31-5.788 1.645-14.265.787-19.9-.448-2.949-1.133-4.224-1.133-2.11m45.6 13.343v.867H246c-14.808 0-15.454.074-12.9 1.477 4.509 2.477 5.897 2.703 17.427 2.842l10.726.129-.278-2.924c-.273-2.86-.575-4.116-.575-2.391m-95.491 3.751c-.49.237-.997.765-1.127 1.173-.13.409-.404.743-.609.743-.205 0-.373.185-.373.411 0 .385-4.685 7.096-5.726 8.202-12.519 13.303-24.559 19.952-39.674 21.912-.66.085 3.75.182 9.8.214 11.578.061 24.862-.373 22.28-.729l-1.521-.21 1.438-1.6c.791-.88 1.672-1.87 1.957-2.2 1.01-1.167 5.319-7.009 5.607-7.6.16-.33.812-1.5 1.447-2.6 1.867-3.232 3.192-6.029 3.192-6.739 0-.363.18-.661.4-.661.22 0 .398-.225.395-.5-.003-.275.439-2.03.981-3.9.543-1.87 1.081-3.866 1.197-4.435.115-.569.619-1.232 1.118-1.473.5-.241.729-.438.509-.438-.22 0-.801.194-1.291.43m65.626 32.77c.142 1.18.26 2.686.261 3.346l.004 1.2 14.8-.11 14.8-.109.053.909c.06 1.007.656-2.472.712-4.147l.035-1.057-12.1-.214c-11.511-.203-14-.434-17.865-1.661-.948-.301-.955-.283-.7 1.843" fill="#a4becc"/></g></svg>