<?xml version="1.0" encoding="UTF-8" standalone="no"?>
<svg
   viewBox="0 -1 104 104"
   version="1.1"
   id="svg22"
   sodipodi:docname="icon.svg"
   width="104"
   height="104"
   inkscape:version="1.1.2 (0a00cf5339, 2022-02-04)"
   xmlns:inkscape="http://www.inkscape.org/namespaces/inkscape"
   xmlns:sodipodi="http://sodipodi.sourceforge.net/DTD/sodipodi-0.dtd"
   xmlns="http://www.w3.org/2000/svg"
   xmlns:svg="http://www.w3.org/2000/svg"
   xmlns:rdf="http://www.w3.org/1999/02/22-rdf-syntax-ns#"
   xmlns:cc="http://creativecommons.org/ns#"
   xmlns:dc="http://purl.org/dc/elements/1.1/">
  <sodipodi:namedview
     id="namedview24"
     pagecolor="#505050"
     bordercolor="#ffffff"
     borderopacity="1"
     inkscape:pageshadow="0"
     inkscape:pageopacity="0"
     inkscape:pagecheckerboard="1"
     showgrid="true"
     inkscape:zoom="8"
     inkscape:cx="47.9375"
     inkscape:cy="55.4375"
     inkscape:window-width="1920"
     inkscape:window-height="1018"
     inkscape:window-x="1920"
     inkscape:window-y="0"
     inkscape:window-maximized="1"
     inkscape:current-layer="svg22">
    <inkscape:grid
       type="xygrid"
       id="grid841" />
  </sodipodi:namedview>
  <defs
     id="defs4">
    <style
       id="style2">.cls-1{fill:#231f20;}.cls-2{fill:#fff9ae;}.cls-3{fill:#00aeef;}.cls-4{fill:#00a94f;}.cls-5{fill:#f15d22;}.cls-6{fill:#e31b23;}</style>
  </defs>
  <title
     id="title6">Discourse_logo</title>
  <g
     id="Layer_2"
     transform="translate(0.57,-0.905)">
    <g
       id="Layer_3">
      <path
         class="cls-1"
         d="M 51.87,0 C 23.71,0 0,22.83 0,51 c 0,0.91 0,52.81 0,52.81 l 51.86,-0.05 c 28.16,0 51,-23.71 51,-51.87 C 102.86,23.73 80,0 51.87,0 Z"
         id="path8" />
      <path
         class="cls-2"
         d="M 52.37,19.74 A 31.62,31.62 0 0 0 24.58,66.41 l -5.72,18.4 20.54,-4.64 a 31.61,31.61 0 1 0 13,-60.43 z"
         id="path10" />
      <path
         class="cls-3"
         d="m 77.45,32.12 a 31.6,31.6 0 0 1 -38.05,48 l -20.54,4.7 20.91,-2.47 A 31.6,31.6 0 0 0 77.45,32.12 Z"
         id="path12" />
      <path
         class="cls-4"
         d="M 71.63,26.29 A 31.6,31.6 0 0 1 38.8,78 L 18.86,84.82 39.4,80.17 A 31.6,31.6 0 0 0 71.63,26.29 Z"
         id="path14" />
      <path
         class="cls-5"
         d="m 26.47,67.11 a 31.61,31.61 0 0 1 51,-35 31.61,31.61 0 0 0 -52.89,34.3 l -5.72,18.4 z"
         id="path16" />
      <path
         class="cls-6"
         d="m 24.58,66.41 a 31.61,31.61 0 0 1 47.05,-40.12 31.61,31.61 0 0 0 -49,39.63 l -3.76,18.9 z"
         id="path18" />
    </g>
  </g>
  <metadata
     id="metadata1165">
    <rdf:RDF>
      <cc:Work
         rdf:about="">
        <dc:title>Discourse_logo</dc:title>
      </cc:Work>
    </rdf:RDF>
  </metadata>
</svg>
