<?xml version="1.0" encoding="UTF-8"?>
<svg id="Layer_2" data-name="Layer 2" xmlns="http://www.w3.org/2000/svg" viewBox="0 0 36 36">
  <defs>
    <style>
      .cls-1 {
        fill: #fff;
      }

      .cls-2 {
        fill: #3366a5;
      }
    </style>
  </defs>
  <g id="Layer_1-2" data-name="Layer 1">
    <rect class="cls-2" width="36" height="36" rx="4.37" ry="4.37"/>
    <path class="cls-1" d="m14.18,27.9h-3.03V8c2.49,0,5.1-.07,7.71.02,3.76.12,5.12,1.59,5.14,5.3.02,3.86-.1,4.04-4.21,6.37,1.67,2.65,3.33,5.29,5.02,7.98-1.36,1-2.64.38-3.55-.95-.96-1.4-1.83-2.9-2.47-4.47-.88-2.18-2.31-2.78-4.63-2.05v7.69Zm-.03-9.57c1.89-.49,3.53-.88,5.14-1.33,1.54-.43,2.8-2.18,2.71-3.66-.07-1.14-1.9-3.21-3.13-3.3-1.6-.12-3.22-.03-4.72-.03v8.32Z"/>
    <path class="cls-2" d="m14.15,18.32v-8.32c1.5,0,3.12-.09,4.72.03,1.23.09,3.07,2.17,3.13,3.3.09,1.48-1.17,3.23-2.71,3.66-1.62.46-3.25.85-5.14,1.33Z"/>
  </g>
</svg>