<?xml version="1.0" encoding="utf-8"?>
<!-- Generator: Adobe Illustrator 28.3.0, SVG Export Plug-In . SVG Version: 6.00 Build 0)  -->
<svg version="1.1" id="Layer_1" xmlns="http://www.w3.org/2000/svg" xmlns:xlink="http://www.w3.org/1999/xlink" x="0px" y="0px"
	 viewBox="0 0 512 512" style="enable-background:new 0 0 512 512;" xml:space="preserve">
<style type="text/css">
	.st0{fill:#285E6A;}
</style>
<g>
	<path class="st0" d="M197.63,248.22c-0.38,0-0.76,0-1.13,0c0-14.11-0.11-28.23,0.12-42.34c0.03-2.05,1.66-4.08,2.55-6.12
		c1.79,1.57,4.41,2.81,5.19,4.78c1.87,4.75,2.85,9.85,4.23,14.79c8.62,30.93,17.07,61.9,26.06,92.72c1.5,5.15,4.21,11.74,8.36,14.02
		c16.04,8.8,34.88-0.24,39.79-17.89c9.29-33.41,18.51-66.83,28.16-100.14c0.83-2.88,4.62-4.91,7.03-7.33
		c1.1,2.81,3.11,5.61,3.14,8.43c0.28,24.41,0.21,48.83,0.23,73.24c0.01,9.77,0.32,19.08-11.87,23.6c-2.8,1.04-3.93,9.94-3.45,14.99
		c0.24,2.49,5.84,6.21,9.15,6.36c14.74,0.65,29.56,0.63,44.3-0.12c3.71-0.19,9.54-3.37,10.3-6.25c1.11-4.19-0.11-12.36-2.78-13.6
		c-12.36-5.76-10.95-16.06-10.95-26.27c0-21.84,0.01-43.69,0-65.53c0-9.08,0.04-17.48,9.32-23.67c3.46-2.31,5.92-10.84,4.33-14.67
		c-1.51-3.66-8.77-6.59-13.69-6.89c-14.72-0.9-29.54-0.47-44.31-0.34c-19.24,0.17-19.75,0.85-24.14,19.73
		c-6.39,27.5-12.92,54.98-19.74,82.38c-0.97,3.92-3.86,7.36-5.86,11.01c-2.2-4.05-5.33-7.87-6.44-12.2
		c-7.29-28.62-14.38-57.31-21.02-86.09c-2.38-10.34-7.22-15.45-18.45-15c-16.68,0.66-33.42-0.22-50.09,0.49
		c-4.41,0.19-11.49,3.03-12.33,6.05c-1.26,4.52,0.23,12.9,3.52,15.01c10.12,6.49,9.97,15.59,9.95,25.31
		c-0.04,21.84,0.05,43.69-0.04,65.53c-0.04,9.5,1.45,19.25-10.27,24.68c-2.84,1.31-4.4,9.09-3.57,13.31
		c0.58,2.93,6.14,6.67,9.68,6.9c12.79,0.84,25.7,0.83,38.5,0.06c3.66-0.22,9.4-3.54,10.11-6.43c1.03-4.21-0.28-12.31-2.97-13.54
		c-12.48-5.7-10.89-16.07-10.91-26.24C197.61,270.07,197.63,259.14,197.63,248.22z M363.76,397.62c-21.85,0-43.73,0.54-65.56-0.21
		c-12.66-0.43-21.86,4-30.54,12.96c-24.59,25.4-49.72,50.28-74.97,75.01c-4.89,4.79-10.92,10.56-17.1,11.51
		c-24.39,3.72-36.25,0.56-38.95-28.37c-1.55-16.57-0.32-33.4-0.54-50.11c-0.25-19.68-1.11-21.39-20.86-20.58
		c-36.05,1.47-64.39-12.66-88.83-38.34c-37.39-39.27-36.81-121.64,12.78-158.5c10.74-7.98,27.04-11.67,33.08-21.88
		c5.88-9.93,0.88-25.83,2.43-38.9c4.33-36.65,43.85-63.18,81.86-53.66c14.26,3.57,21.27,0.43,30.2-10.8
		c22.84-28.73,51.21-51.5,88.29-58.24c93.37-16.97,166.17,25.74,193.25,114.07c8.12,26.49,6.72,54.8-0.34,81.9
		c-2.78,10.67-2.88,17.8,7.45,24.45c37.92,24.41,40.25,62,33.77,100.89c-4.84,29.04-43.72,57.72-76.02,58.59
		c-23.12,0.63-46.28,0.12-69.42,0.12C363.76,397.57,363.76,397.59,363.76,397.62z"/>
</g>
</svg>
