<svg width="512" height="512" viewBox="0 0 512 512" fill="none" xmlns="http://www.w3.org/2000/svg">
<path d="M256 0C397.385 0 512 114.615 512 256C512 397.385 397.385 512 256 512C114.615 512 0 397.385 0 256C0 114.615 114.615 0 256 0ZM187.53 266.057C171.987 266.057 157.206 269.562 143.187 276.571C129.321 283.581 118.044 294.781 109.359 310.171C103.743 320.3 100.041 332.574 98.2529 346.993C96.5986 360.334 107.829 371.2 121.271 371.2C135.049 371.2 145.336 359.626 148.673 346.259C150.564 338.68 153.612 332.67 157.815 328.229C165.891 319.695 176.101 315.429 188.444 315.429C196.673 315.429 204.216 317.486 211.073 321.6C217.93 325.562 226.844 332.343 237.815 341.943C254.577 356.724 269.359 367.467 282.159 374.171C294.959 380.724 309.13 384 324.673 384C340.216 384 354.997 380.495 369.016 373.486C383.035 366.476 394.387 355.276 403.073 339.886C408.811 329.718 412.521 317.389 414.202 302.899C415.745 289.597 404.498 278.857 391.106 278.857C377.243 278.858 366.904 290.561 363.218 303.927C361.421 310.442 358.706 315.952 355.073 320.457C347.454 329.905 337.016 334.629 323.759 334.629C315.53 334.629 308.063 332.647 301.359 328.686C294.806 324.571 285.816 317.714 274.387 308.114C257.473 293.943 242.615 283.429 229.815 276.571C217.168 269.562 203.073 266.057 187.53 266.057ZM187.53 128C171.987 128 157.206 131.505 143.187 138.514C129.321 145.524 118.044 156.724 109.359 172.114C103.743 182.243 100.041 194.517 98.2529 208.935C96.5985 222.276 107.829 233.142 121.271 233.143C135.049 233.143 145.336 221.569 148.673 208.202C150.564 200.623 153.612 194.613 157.815 190.171C165.891 181.638 176.101 177.371 188.444 177.371C196.673 177.371 204.216 179.429 211.073 183.543C217.93 187.505 226.844 194.286 237.815 203.886C254.577 218.667 269.359 229.41 282.159 236.114C294.959 242.667 309.13 245.943 324.673 245.943C340.216 245.943 354.997 242.438 369.016 235.429C383.035 228.419 394.387 217.219 403.073 201.829C408.811 191.661 412.521 179.332 414.202 164.842C415.745 151.539 404.498 140.8 391.106 140.8C377.243 140.8 366.904 152.504 363.218 165.87C361.421 172.385 358.706 177.895 355.073 182.4C347.454 191.848 337.016 196.571 323.759 196.571C315.53 196.571 308.063 194.59 301.359 190.629C294.806 186.514 285.816 179.657 274.387 170.057C257.473 155.886 242.615 145.371 229.815 138.514C217.168 131.505 203.073 128 187.53 128Z" fill="#4641D9"/>
</svg>
