<svg clip-rule="evenodd" fill-rule="evenodd" stroke-linejoin="round" stroke-miterlimit="2" viewBox="0 0 800 800" xmlns="http://www.w3.org/2000/svg"><clipPath id="a"><path d="M0 0h800v800H0z"/></clipPath><clipPath id="b"><path d="M33.403 274.295A24.398 24.398 0 0 0 0 296.97v274.603a19.868 19.868 0 0 0 28.474 17.907l324.345-155.868a17.984 17.984 0 0 0 10.182-16.836 17.984 17.984 0 0 0-11.334-16.083L33.403 274.295z"/></clipPath><path d="M0 0h800v800H0z" fill="none"/><g clip-path="url(#a)"><path d="M432.604 68.816a83.68 83.68 0 0 0-63.879 0L59.211 196.626a18.84 18.84 0 0 0 0 34.828l309.514 127.81a83.68 83.68 0 0 0 63.879 0l309.514-127.81a18.839 18.839 0 0 0 0-34.828L432.604 68.816z" fill="#f9bf2f"/><path d="M450.918 394.021a37.807 37.807 0 0 0-24.405 35.352v286.221a19.866 19.866 0 0 0 26.91 18.578l322.172-122.131A37.807 37.807 0 0 0 800 576.689V290.468a19.867 19.867 0 0 0-26.911-18.578L450.918 394.021z" fill="#41c8fa"/><path d="M33.403 274.295A24.398 24.398 0 0 0 0 296.97v274.603a19.868 19.868 0 0 0 28.474 17.907l324.345-155.868a17.984 17.984 0 0 0 10.182-16.836 17.984 17.984 0 0 0-11.334-16.083L33.403 274.295z" fill="#f72b60"/><g clip-path="url(#b)"><path d="M8.137 280.797a26.342 26.342 0 0 1 27.929-5.444l312.56 124.132a19.415 19.415 0 0 1 1.244 35.544L249.777 483.13z" fill="#ba1f47"/></g></g></svg>