<svg height="64" width="64" xmlns="http://www.w3.org/2000/svg"><path d="M49 34.375c0 .882-.454 1.702-1.203 2.17l-5.698 3.561-2.198 7.682c-.044.155-.157.238-.303.238a.33.33 0 0 1-.186-.062l-4.696-3.242-10.248 6.404c-.639.4-1.468.014-1.468-.855v-10.93c0-.873.357-1.643 1.279-2.175l23.212-13.398c.135-.079.289-.173.587-.173.522 0 .922.379.922 1.098zM14 31v4.496a.08.08 0 0 1-.065.078l-4.414.859c-.843.163-1.523-.393-1.523-1.257v-9.815c0-.797.502-1.451 1.375-1.584l23.635-3.569c.972-.165 1.584-.212 1.99-.212.36 0 1.002.391 1.002.9v1.722a.079.079 0 0 1-.058.076l-20.797 6.168C14.16 29.21 14 29.813 14 31zM56 0H8a8 8 0 0 0-8 8v3.51l19.561 4.955c.305.078.439.171.439.321 0 .203-.094.214-.26.214H0v39a8 8 0 0 0 8 8h48a8 8 0 0 0 8-8V8a8 8 0 0 0-8-8z" fill-rule="evenodd"/></svg>