<svg height="64" viewBox="0 0 64 64" width="64" xmlns="http://www.w3.org/2000/svg"><path d="m49 34.375c0 .882-.454 1.702-1.203 2.17l-5.698 3.561-2.198 7.682c-.044.155-.157.238-.303.238-.041 0-.11-.01-.186-.062l-4.696-3.242-10.248 6.404c-.639.4-1.468.014-1.468-.855v-10.93c0-.873.357-1.643 1.279-2.175.923-.532 23.122-13.347 23.212-13.398.135-.079.289-.173.587-.173.522 0 .922.379.922 1.098zm-35-3.375v4.496c0 .038-.027.071-.065.078 0 0-3.569.695-4.414.859-.843.163-1.523-.393-1.523-1.257v-9.815c0-.797.502-1.451 1.375-1.584.873-.132 23.635-3.569 23.635-3.569.972-.165 1.584-.212 1.99-.212.36 0 1.002.391 1.002.9v1.722c0 .035-.023.066-.058.076l-20.797 6.168c-.985.348-1.145.951-1.145 2.138zm42-31h-48c-4.418 0-8 3.582-8 8v3.51s19.277 4.883 19.561 4.955c.305.078.439.171.439.321 0 .203-.094.214-.26.214h-19.74v39c0 4.418 3.582 8 8 8h48c4.418 0 8-3.582 8-8v-48c0-4.418-3.582-8-8-8z" fill-rule="evenodd"/></svg>