<?xml version="1.0" encoding="utf-8"?>
<!-- Generator: Adobe Illustrator 22.0.0, SVG Export Plug-In . SVG Version: 6.00 Build 0)  -->
<svg version="1.1" id="Layer_1" xmlns="http://www.w3.org/2000/svg" xmlns:xlink="http://www.w3.org/1999/xlink" x="0px" y="0px"
	 viewBox="0 0 1000 1000" style="enable-background:new 0 0 1000 1000;" xml:space="preserve">
<style type="text/css">
	.st0{fill:#FF463C;}
	.st1{fill:#FFFEFE;}
</style>
<path class="st0" d="M379.4,21c62.5-15.7,128-18.9,191.8-9.8c78.8,11.2,154.6,42.1,218.9,88.9c61.8,44.7,112.9,104,148.2,171.6
	c20.9,40.4,36.8,83.6,45.5,128.4l0.5,0.8c5,27.8,9,55.9,9.4,84.1c1.2,14.3-0.1,28.6-0.4,43c-2.8,48.2-12.5,96-29,141.3
	c-14.3,38.6-33,75.6-56.5,109.5c-45,66-106.4,120.7-177,158.1c-32.4,16.8-66.4,30.9-101.9,39.9l-0.8,0.5c-9.4,2.2-18.7,4.9-28.3,6.4
	l-0.8,0.5c-20.9,3.6-41.9,7.2-63.1,8.3c-10.3,1.1-20.6,0.8-30.9,1.5c-57.2,0.2-114.6-8.8-168.6-27.8
	c-66.2-23.3-127.5-60.9-178.1-109.6C87.2,788.8,37.2,699.2,16.9,603C2.6,535,2.6,464,17.2,396c1-5.4,2.6-10.7,3.7-16.1
	c14.4-58,39.7-113.3,73.9-162.3c28.6-41,63.4-77.5,102.8-108.2C251.2,67.9,313.5,37.4,379.4,21z"/>
<path class="st1" d="M422.4,206.2c9.7,7.9,19.9,15,29.9,22.6c42.9,32,85.8,64,128.7,96c53.1-39.4,106.1-79.1,159.1-118.6
	c0.2,117,0,233.9,0.1,350.9c0,42.7,0.1,85.5-0.1,128.2c-1.5,1.9-3.9,2.8-5.8,4.1c-50.7,32-101.3,64.1-152.1,96
	c-0.9,0.7-1.8,0.7-2.6,0c-51.9-32.7-103.8-65.5-155.7-98.3c-0.9-0.8-2.2-0.7-3.1-0.1c-52.4,33-104.6,66.3-157.1,99.1
	c-0.1-153.7,0-307.4-0.1-461.2c48.7-36.4,97.4-72.7,146.2-109C414,212.6,418.4,209.6,422.4,206.2L422.4,206.2z"/>
<path class="st0" d="M422.9,238.4c9.5,7.8,19.6,14.8,29.4,22.3c42.6,31.7,85.1,63.5,127.6,95.3c1.4,0.8,0.8,2.7,1,4
	c-0.1,130.9,0.1,261.9-0.1,392.8c-52.3-33.4-104.9-66.3-157.3-99.7c-1.1-1.1-0.5-2.8-0.7-4.2C422.9,512.1,422.8,375.3,422.9,238.4
	L422.9,238.4z"/>
</svg>
