<svg width="1000pt" height="1000pt" viewBox="0 0 1000 1000" xmlns="http://www.w3.org/2000/svg"><path fill="#fffefe" d="M0 0h1000v1000H0V0z"/><path fill="#ff463c" d="M379.37 20.97c62.49-15.66 128.02-18.89 191.77-9.75 78.76 11.17 154.59 42.06 218.88 88.91 61.77 44.71 112.93 103.98 148.2 171.61 20.89 40.44 36.82 83.63 45.51 128.37l.5.77c5.05 27.79 8.99 55.86 9.44 84.14 1.15 14.31-.12 28.64-.41 42.97-2.85 48.15-12.45 95.96-28.97 141.32-14.32 38.59-33.01 75.64-56.45 109.51-45.02 66.04-106.44 120.68-177.03 158.1-32.43 16.79-66.44 30.92-101.88 39.9l-.77.45c-9.42 2.16-18.73 4.94-28.29 6.44l-.81.52c-20.91 3.57-41.91 7.18-63.12 8.35-10.26 1.12-20.6.76-30.89 1.49-57.2.2-114.59-8.77-168.6-27.83-66.25-23.3-127.48-60.86-178.06-109.59C87.21 788.84 37.16 699.21 16.87 603c-14.26-68.02-14.3-139 .28-206.98 1.02-5.41 2.57-10.69 3.7-16.07 14.43-58 39.72-113.26 73.91-162.27 28.55-40.96 63.42-77.49 102.82-108.15 53.65-41.6 115.92-72.1 181.79-88.56z"/><path fill="#fffefe" d="M422.41 206.17c9.7 7.85 19.93 15.03 29.89 22.56 42.91 31.99 85.79 64.02 128.73 95.97 53.11-39.44 106.06-79.09 159.14-118.57.15 116.96.03 233.92.07 350.89-.05 42.72.09 85.45-.07 128.17-1.48 1.89-3.88 2.76-5.8 4.13-50.7 31.98-101.33 64.06-152.06 95.99-.89.68-1.76.66-2.62-.05-51.93-32.73-103.81-65.55-155.71-98.33-.9-.75-2.21-.74-3.14-.06-52.37 33.03-104.62 66.26-157.11 99.1-.14-153.72-.02-307.44-.06-461.16 48.68-36.4 97.41-72.72 146.16-109.03 4.19-3.2 8.55-6.2 12.58-9.61z"/><path fill="#ff463c" d="M422.85 238.44c9.48 7.83 19.65 14.8 29.39 22.32 42.57 31.73 85.09 63.52 127.63 95.3 1.4.77.8 2.66 1.02 3.95-.1 130.94.11 261.89-.11 392.83-52.3-33.41-104.93-66.32-157.27-99.66-1.12-1.06-.51-2.83-.69-4.17.07-136.86 0-273.71.03-410.57z"/></svg>