<svg height="512" width="512" xmlns="http://www.w3.org/2000/svg"><path d="M170.542 357.786c-15.944-2.444-31.341-6.704-46.024-12.779l-5.493-2.272-44.78 16.973 15.091-33.515-8.914-7.281C48.552 292.879 31 258.503 31 222.119 31 145.96 108.141 84 202.96 84c66.491 0 124.284 30.47 152.885 74.937 6.45.715 12.819 1.716 19.08 3.013C346.379 107.298 280.133 69 202.96 69 99.705 69 16 137.554 16 222.119c0 42.354 20.999 80.691 54.934 108.411l-25.235 56.04 73.085-27.701c18.762 7.762 39.34 13.007 61.07 15.203a134.688 134.688 0 0 1-9.312-16.286z" fill="#818b9e"/><path d="M492 303.273c0-72.144-71.411-130.629-159.5-130.629S173 231.128 173 303.273s71.411 130.629 159.5 130.629c25.834 0 50.229-5.036 71.813-13.965l62.35 23.633-21.528-47.809C474.085 372.112 492 339.406 492 303.273zm-238.5 31.333c-14.636 0-26.5-11.864-26.5-26.5s11.864-26.5 26.5-26.5 26.5 11.864 26.5 26.5-11.864 26.5-26.5 26.5zm79 0c-14.636 0-26.5-11.864-26.5-26.5s11.864-26.5 26.5-26.5 26.5 11.864 26.5 26.5-11.864 26.5-26.5 26.5zm79 0c-14.636 0-26.5-11.864-26.5-26.5s11.864-26.5 26.5-26.5 26.5 11.864 26.5 26.5-11.864 26.5-26.5 26.5z" fill="#455164"/></svg>