<svg height="1024" preserveAspectRatio="xMidYMid" viewBox="0 0 256 256" width="1024" xmlns="http://www.w3.org/2000/svg" xmlns:xlink="http://www.w3.org/1999/xlink"><defs><linearGradient id="c" x1="8.59%" x2="77.471%" y1="1.954%" y2="73.896%"><stop offset="0" stop-color="#4cb36b"/><stop offset="1" stop-color="#3ea16f"/></linearGradient><path id="a" d="M256 128c0 70.692-57.308 128-128 128S0 198.692 0 128 57.308 0 128 0s128 57.308 128 128"/><mask id="b" fill="#fff"><use xlink:href="#a"/></mask></defs><use fill="#67bf79" xlink:href="#a"/><path d="M256 128c0 70.692-57.308 128-128 128S0 198.692 0 128 57.308 0 128 0s128 57.308 128 128" fill="#67bf79" mask="url(#b)"/><path d="M63.111 187.022 96.178 72l64.533 60.978L200 90.133l87.533 86.289-110.844 124.889z" fill="url(#c)" mask="url(#b)"/><g fill="#fff"><path d="M77 189.6c-16.733 0-16.733 0-16.733-16.733V81c0-16.733 0-16.733 16.733-16.733h3.334c16.733 0 16.733 0 16.733 16.733v91.867c0 16.733 0 16.733-16.733 16.733zM121.041 189.6c-5.699 0-8.508-2.809-8.508-8.508V72.774c0-5.698 2.809-8.507 8.508-8.507h37.537c32.178 0 52.628 32.273 52.628 63.025S190.578 189.6 158.578 189.6z" mask="url(#b)"/></g></svg>