<svg xmlns="http://www.w3.org/2000/svg" xmlns:xlink="http://www.w3.org/1999/xlink" width="512" height="512"><defs><linearGradient xlink:href="#a" id="d" gradientUnits="userSpaceOnUse" gradientTransform="matrix(1.03178 0 0 1.03178 -830.864 592.678)" x1="1012.513" y1="484.417" x2="1006.808" y2="20.626"/><linearGradient x1="45.448" y1="92.54" x2="45.448" y2="7.017" id="a" gradientUnits="userSpaceOnUse" gradientTransform="matrix(1.00587 0 0 .99417 100 0)"><stop style="stop-color:#000;stop-opacity:1" offset="0"/><stop style="stop-color:#000;stop-opacity:.58823532" offset="1"/></linearGradient><linearGradient xlink:href="#a" id="e" gradientUnits="userSpaceOnUse" gradientTransform="matrix(1.04025 0 0 1.04025 -837.951 592.518)" x1="1012.513" y1="484.417" x2="1006.808" y2="20.626"/><linearGradient xlink:href="#a" id="f" gradientUnits="userSpaceOnUse" gradientTransform="matrix(1.0233 0 0 1.0233 -823.777 592.838)" x1="1012.513" y1="484.417" x2="1006.808" y2="20.626"/><linearGradient xlink:href="#a" id="g" gradientUnits="userSpaceOnUse" gradientTransform="translate(-816.69 592.997) scale(1.01483)" x1="1012.513" y1="484.417" x2="1006.808" y2="20.626"/><linearGradient y2="20.626" x2="1006.808" y1="484.417" x1="1012.513" gradientTransform="matrix(1.00742 0 0 1.00742 -810.489 593.137)" gradientUnits="userSpaceOnUse" id="h" xlink:href="#a"/><linearGradient xlink:href="#b" id="i" gradientUnits="userSpaceOnUse" gradientTransform="translate(778.6 -360.56)" x1="993.439" y1="51.512" x2="988.786" y2="363.738"/><linearGradient id="b"><stop style="stop-color:#fff;stop-opacity:1" offset="0"/><stop style="stop-color:#fff;stop-opacity:0" offset="1"/></linearGradient><linearGradient xlink:href="#c" id="j" gradientUnits="userSpaceOnUse" x1="1764.649" y1="155.597" x2="1763.69" y2="-55.941"/><linearGradient id="c"><stop style="stop-color:#000;stop-opacity:1" offset="0"/><stop style="stop-color:#fff;stop-opacity:.2" offset="1"/></linearGradient></defs><g transform="translate(-11.985 -592.117)"><rect ry="101.458" y="612.117" x="31.985" height="487" width="487" style="opacity:.1;color:#000;fill:url(#d);fill-opacity:1;fill-rule:nonzero;stroke:none;stroke-width:1.5;marker:none;visibility:visible;display:inline;overflow:visible;enable-background:accumulate"/><rect style="opacity:.07999998;color:#000;fill:url(#e);fill-opacity:1;fill-rule:nonzero;stroke:none;stroke-width:1.5;marker:none;visibility:visible;display:inline;overflow:visible;enable-background:accumulate" width="491" height="491" x="31.985" y="612.117" ry="102.292"/><rect style="opacity:.2;color:#000;fill:url(#f);fill-opacity:1;fill-rule:nonzero;stroke:none;stroke-width:1.5;marker:none;visibility:visible;display:inline;overflow:visible;enable-background:accumulate" width="483" height="483" x="31.985" y="612.117" ry="100.625"/><rect ry="99.792" y="612.117" x="31.985" height="479" width="479" style="opacity:.25;color:#000;fill:url(#g);fill-opacity:1;fill-rule:nonzero;stroke:none;stroke-width:1.5;marker:none;visibility:visible;display:inline;overflow:visible;enable-background:accumulate"/><rect style="opacity:.25;color:#000;fill:url(#h);fill-opacity:1;fill-rule:nonzero;stroke:none;stroke-width:1.5;marker:none;visibility:visible;display:inline;overflow:visible;enable-background:accumulate" width="475.5" height="475.5" x="31.985" y="612.117" ry="99.063"/></g><path style="fill:#7ac82a;stroke:none;fill-opacity:1" d="M118.344 20C63.867 20 20 63.867 20 118.344v275.312C20 448.133 63.867 492 118.344 492h275.312C448.133 492 492 448.133 492 393.656V118.344C492 63.867 448.133 20 393.656 20H118.344z"/><path style="opacity:.5;color:#000;fill:url(#i);fill-opacity:1;fill-rule:nonzero;stroke:none;stroke-width:1.5;marker:none;visibility:visible;display:inline;overflow:visible;enable-background:accumulate" d="M1650.5-310.416c-54.477 0-98.313 43.836-98.313 98.312V63.24c0 54.477 43.836 98.344 98.312 98.344h2.938c-53.323 0-96.25-42.928-96.25-96.25v-269.5c0-53.323 42.927-96.25 96.25-96.25h269.5c53.322 0 96.25 42.927 96.25 96.25v269.5c0 53.322-42.928 96.25-96.25 96.25h2.906c54.477 0 98.344-43.867 98.344-98.344v-275.344c0-54.476-43.867-98.312-98.344-98.312H1650.5z" transform="translate(-1532.187 330.416)"/><path d="M1650.5 161.584c-54.477 0-98.313-43.836-98.313-98.313v-275.343c0-54.477 43.836-98.344 98.312-98.344h2.938c-53.323 0-96.25 42.927-96.25 96.25v269.5c0 53.322 42.927 96.25 96.25 96.25h269.5c53.322 0 96.25-42.928 96.25-96.25v-269.5c0-53.323-42.928-96.25-96.25-96.25h2.906c54.477 0 98.344 43.867 98.344 98.344V63.27c0 54.477-43.867 98.313-98.344 98.313H1650.5z" style="opacity:.2;color:#000;fill:url(#j);fill-opacity:1;fill-rule:nonzero;stroke:none;stroke-width:1.5;marker:none;visibility:visible;display:inline;overflow:visible;enable-background:accumulate" transform="translate(-1532.187 330.416)"/><path style="fill:#000;fill-opacity:.23529412" d="m400.375 106-288.75 129.344 256.906 256.655h25.125C448.133 492 492 448.133 492 393.656V199.937S400.36 106 400.375 106zM187.531 332.125l-5.781 65.094L277.406 492h86.625L244.125 372.219c-17.42-13.012-37.946-27.004-56.594-40.094z"/><path d="M400.36 106 111.64 235.356l85.146 65.54 140.693-118.252-104.46 148.845L332.454 406l67.907-300zM187.524 332.132l-5.785 65.073 62.735-25.1-56.95-39.973z" style="fill:#fff"/></svg>