<svg version="1.1" viewBox="0 0 100 100" xmlns="http://www.w3.org/2000/svg">
 <defs>
  <style>.st0 {
        fill: #0c6cb4;
      }</style>
 </defs>
 <path class="st0" d="M46.72,0c-3.19.35-6.33,1.08-9.35,2.17C22.76,7.45,14.32,18.53,13.2,34.31c-1.09,15.2,5.78,26.5,18.54,34.32,3.24,2,7.01,3.09,10.68,4.62-3.38,4.72-6.94,9.63-10.54,14.68,5.96,4.07,11.74,8.04,17.63,12.07.54-.69.87-1.12,1.2-1.56,5.74-7.92,11.6-15.81,17.27-23.81,4.94-7.02,9.96-14.03,14.47-21.34,4.47-7.23,5.27-15.37,3.78-23.67-2.29-12.75-12.37-24.69-26.17-28.54-2.87,4.85-7,11.89-8.29,14.02,2.1.71,4.28,1.17,6.16,2.12,7.46,3.81,11.74,9.84,11.78,18.35.05,8.85-4.2,15.42-12.11,18.95-13.37,6.01-25.73-2.77-28.42-13.22-1.19-4.55-1.1-9.15,1.13-13.37,2.21-4.26,4.7-8.36,7.18-12.51L46.72,0Z"/>
</svg>
