<?xml version="1.0" standalone="no"?>
<!DOCTYPE svg PUBLIC "-//W3C//DTD SVG 20010904//EN"
 "http://www.w3.org/TR/2001/REC-SVG-20010904/DTD/svg10.dtd">
<svg version="1.0" xmlns="http://www.w3.org/2000/svg"
 width="192.000000pt" height="192.000000pt" viewBox="0 0 192.000000 192.000000"
 preserveAspectRatio="xMidYMid meet">

<g transform="translate(0.000000,192.000000) scale(0.100000,-0.100000)"
fill="#000000" stroke="none">
<path d="M707 1648 c-25 -35 -143 -211 -263 -392 l-219 -329 365 -358 c201
-197 368 -358 372 -359 10 0 728 711 728 722 0 5 -116 182 -257 393 l-258 385
-212 0 -212 0 -44 -62z m687 -345 l246 -366 -336 -331 c-185 -182 -339 -332
-343 -334 -3 -1 -157 149 -341 333 l-334 335 244 365 245 365 186 0 186 0 247
-367z"/>
<path d="M575 1283 l-225 -338 50 -49 49 -50 24 22 c13 12 31 22 40 22 9 0 27
5 41 11 14 7 33 8 43 4 10 -4 28 -7 41 -6 13 2 30 -3 39 -10 13 -11 19 -9 38
15 13 16 35 52 49 80 14 28 38 64 52 79 27 29 27 27 7 120 -3 15 -8 27 -12 27
-18 0 -171 -127 -171 -143 0 -12 -31 -42 -44 -42 -6 -1 -19 -5 -30 -10 -12 -5
-21 -3 -27 6 -14 23 -11 38 14 62 247 237 311 293 345 303 33 10 37 15 37 45
2 82 41 131 92 113 41 -14 50 -50 29 -115 -17 -51 -17 -54 0 -66 24 -18 108
-15 172 5 l53 17 -81 118 -81 117 -159 0 -160 0 -225 -337z"/>
<path d="M1245 1304 c-27 -14 -75 -33 -105 -43 -64 -20 -68 -27 -69 -148 -1
-48 -5 -83 -11 -83 -18 0 -11 -18 20 -53 17 -19 30 -39 30 -43 0 -5 14 -27 30
-48 24 -31 30 -50 31 -90 0 -58 13 -143 22 -152 3 -4 27 1 52 9 35 12 79 48
185 148 77 73 140 136 140 141 0 16 -253 388 -264 387 -6 0 -33 -11 -61 -25z"/>
<path d="M872 873 c-13 -3 -60 -28 -104 -56 l-81 -51 -49 28 c-40 22 -58 27
-90 23 -22 -3 -42 -8 -46 -12 -3 -3 98 -110 226 -238 l232 -232 99 99 c97 96
98 99 80 117 -11 11 -19 30 -19 43 0 13 -12 49 -26 80 -16 36 -24 69 -22 92 3
34 0 38 -42 60 -110 57 -108 56 -158 47z m153 -283 c26 -26 26 -91 1 -119 -40
-44 -118 -33 -144 22 -42 87 74 166 143 97z"/>
</g>
</svg>
