<svg width="1024" height="1024" viewBox="0 0 32 32" xmlns="http://www.w3.org/2000/svg"><g fill-rule="nonzero" fill="none"><path d="M25 2a5 5 0 0 1 5 5v18a5 5 0 0 1-5 5H7a5 5 0 0 1-5-5V7a5 5 0 0 1 5-5h18Z" fill="#FFF"/><path d="M24 0H8a8 8 0 0 0-8 8v16a8 8 0 0 0 8 8h16a8 8 0 0 0 8-8V8a8 8 0 0 0-8-8Zm0 3a5 5 0 0 1 5 5v16a5 5 0 0 1-5 5H8a5 5 0 0 1-5-5V8a5 5 0 0 1 5-5h16Z" fill="#FF7A00"/><path d="M11.092 24.672a.434.434 0 0 0 .322-.124.437.437 0 0 0 .125-.321v-12.54a.351.351 0 0 1 .395-.397h8.13a.35.35 0 0 1 .386.397V15.6a.349.349 0 0 1-.386.397h-3.662a.35.35 0 0 0-.403.397v1.735c-.007.395.03.79.112 1.176.085.35.232.681.434.979l2.527 3.965a.898.898 0 0 0 .842.422h3.296c.166 0 .274-.045.324-.137a.325.325 0 0 0-.05-.334l-2.506-4.047c-.116-.166-.073-.297.125-.397l1.758-.792a2.945 2.945 0 0 0 1.376-1.141c.305-.541.456-1.155.436-1.776v-5.75c0-.974-.252-1.714-.756-2.218-.503-.503-1.243-.755-2.218-.755h-11.4c-.954 0-1.688.252-2.202.755-.514.504-.771 1.244-.771 2.219v13.928a.436.436 0 0 0 .123.321.435.435 0 0 0 .322.124h3.321Z" fill="#0684BC"/></g></svg>