<svg height="80" width="80" xmlns="http://www.w3.org/2000/svg"><g fill="none" fill-rule="evenodd"><path d="M79.984 40.158c0-4.016-1.201-7.866-3.571-11.447-2.129-3.213-5.11-6.057-8.862-8.455-7.243-4.627-16.764-7.176-26.806-7.176a57.21 57.21 0 0 0-9.868.846 32.65 32.65 0 0 0-6.783-4.863C10.926 2.681.007 8.913.007 8.913s10.152 8.34 8.501 15.65c-4.542 4.506-7.004 9.94-7.004 15.595l.001.055v.054c0 5.656 2.46 11.09 7.003 15.594C10.158 63.172.007 71.512.007 71.512s10.92 6.231 24.087-.15a32.7 32.7 0 0 0 6.783-4.862c3.207.56 6.513.844 9.868.844 10.043 0 19.563-2.547 26.806-7.174 3.752-2.398 6.733-5.241 8.862-8.456 2.37-3.58 3.571-7.432 3.571-11.446v-.11z" fill="#c1272d"/><path d="M40.745 18.759c18.595 0 33.67 9.629 33.67 21.507 0 11.877-15.075 21.508-33.67 21.508-4.141 0-8.106-.48-11.77-1.352-3.723 4.479-11.914 10.706-19.87 8.694 2.588-2.78 6.422-7.477 5.601-15.215-4.769-3.71-7.632-8.46-7.632-13.635 0-11.879 15.075-21.507 33.67-21.507" fill="#fff"/><path d="M40.745 45.431a4.473 4.473 0 1 0 0-8.946 4.473 4.473 0 0 0 0 8.946zm15.551 0a4.473 4.473 0 1 0 0-8.946 4.473 4.473 0 0 0 0 8.946zm-31.103 0a4.472 4.472 0 1 0 0-8.945 4.472 4.472 0 0 0 0 8.944z" fill="#c1272d"/><path d="M40.745 58.944c-4.141 0-8.106-.416-11.77-1.172-3.287 3.428-10.059 8.035-17.076 7.866-.924 1.401-1.93 2.547-2.795 3.477 7.957 2.012 16.148-4.214 19.871-8.694 3.664.874 7.63 1.352 11.77 1.352 18.446 0 33.425-9.477 33.664-21.223-.239 10.181-15.218 18.394-33.664 18.394z" fill="#ccc"/></g></svg>