<svg height="80" viewBox="0 0 80 80" width="80" xmlns="http://www.w3.org/2000/svg"><g fill="none" fill-rule="evenodd" transform="translate(0 6)"><path d="m79.9844575 34.1583472c0-4.016328-1.2014653-7.8666064-3.5716656-11.4470539-2.1283107-3.213222-5.1100213-6.0576221-8.8613085-8.4549652-7.2439197-4.62703988-16.7646368-7.17606304-26.8066543-7.17606304-3.3545241 0-6.6611494.28340222-9.8679849.84541669-1.9894036-1.86247131-4.3188899-3.53813675-6.7832915-4.86254306-13.167425-6.38173853-24.08679196-.15008341-24.08679196-.15008341s10.15218526 8.34000782 8.50126763 15.65018792c-4.54162003 4.5056958-7.00362672 9.9390348-7.00362672 15.595104 0 .0175631.00079832.0359244.00079832.0542856 0 .0175628-.00079832.035126-.00079832.0542853 0 5.6560694 2.46120841 11.0894085 7.00362672 15.594306 1.65091763 7.3109784-8.50126763 15.6509859-8.50126763 15.6509859s10.91936696 6.2308572 24.08679196-.1500834c2.4644016-1.3244063 4.7930895-3.00087 6.7832915-4.8625428 3.2076339.5612162 6.5134608.8446184 9.8679849.8446184 10.0428156 0 19.5627346-2.5474269 26.8066543-7.1744666 3.7512872-2.3973428 6.7329978-5.2409447 8.8613085-8.4557637 2.3702003-3.5796491 3.5716656-7.4315241 3.5716656-11.4462553 0-.0183613-.0007981-.0359241-.0007981-.0542853 0-.0183613.0007981-.037521.0007981-.0550841z" fill="#c1272d"/><path d="m40.7448291 12.7586872c18.5951756 0 33.6705759 9.6292882 33.6705759 21.5074328 0 11.8773463-15.0754003 21.5074328-33.6705759 21.5074328-4.1408657 0-8.1061016-.4789897-11.7695738-1.3515494-3.723346 4.4785532-11.9140687 10.7062169-19.87088483 8.6936622 2.58814063-2.7797368 6.42245263-7.4770284 5.60178373-15.2143075-4.76914007-3.7105728-7.63190145-8.4597553-7.63190145-13.6352381-.00079831-11.878943 15.07460205-21.5074328 33.67057635-21.5074328" fill="#fff"/><path d="m40.7448291 39.431225c2.47035 0 4.4729646-2.002615 4.4729646-4.4729653 0-2.47035-2.0026146-4.4729646-4.4729646-4.4729646-2.4703504 0-4.472965 2.0026146-4.472965 4.4729646 0 2.4703503 2.0026146 4.4729653 4.472965 4.4729653zm15.5511965 0c2.47035 0 4.472965-2.002615 4.472965-4.4729653 0-2.47035-2.002615-4.4729646-4.472965-4.4729646-2.4703503 0-4.4729647 2.0026146-4.4729647 4.4729646 0 2.4703503 2.0026144 4.4729653 4.4729647 4.4729653zm-31.1031918-.0007984c2.4699094 0 4.4721666-2.0022575 4.4721666-4.4721669 0-2.4699091-2.0022572-4.4721663-4.4721666-4.4721663-2.4699093 0-4.4721665 2.0022572-4.4721665 4.4721663 0 2.4699094 2.0022572 4.4721669 4.4721665 4.4721669z" fill="#c1272d"/><path d="m40.7448291 52.9435222c-4.1408657 0-8.1061016-.4151244-11.7695738-1.1719278-3.2874655 3.427969-10.0587822 8.0358493-17.0759803 7.8666062-.92445 1.4010447-1.92952994 2.5466285-2.79490453 3.4766666 7.95681613 2.0125547 16.14753873-4.2143106 19.87088483-8.6936619 3.6634722.8733578 7.6295066 1.3515491 11.7695738 1.3515491 18.4458906 0 33.4254928-9.4768097 33.6641893-21.2232322-.2386965 10.1817228-15.2182987 18.394-33.6641893 18.394z" fill="#ccc"/></g></svg>