<svg height="1024" viewBox="0 0 1024 1024" width="1024" xmlns="http://www.w3.org/2000/svg"><path d="m512 1024c282.769792 0 512-229.230208 512-512s-229.230208-512-512-512-512 229.230208-512 512 229.230208 512 512 512zm76.371906-878.448161c64.72776 13.356522 117.126422 42.124415 167.12776 91.783278 50.343812 50.343813 78.426755 102.057525 92.125752 169.867559 8.561873 42.466889 5.822074 110.619398-6.507023 151.716388-14.726422 49.316388-47.946489 108.222073-69.864883 124.660869-25.685619 18.836121-54.795987 23.630769-78.426756 12.671572-23.630769-11.301672-31.507692-26.028094-80.82408-149.661538-6.507024-16.781271-11.301673-25.000669-13.014047-22.26087-1.3699 2.397324-14.041472 33.562542-28.425418 68.837458-30.137793 75.002007-32.877592 80.481606-43.83679 90.070903-29.452842 27.055519-81.166555 23.630769-103.427424-6.849498-7.876923-10.616723-118.496321-277.404682-118.496321-285.62408 0-3.42475 11.301672-.68495 50.343812 0l50.686288 1.027424 24.658194 59.933111c14.041471 32.877592 29.795318 71.919732 35.959866 86.646154 5.822074 14.726421 11.644147 25.343143 13.356522 23.973244 1.3699-1.3699 15.068896-33.905017 30.137793-72.262208 15.411371-38.35719 30.480267-73.632107 33.562541-78.084281 3.082275-4.794648 12.671572-12.671571 21.233445-17.808695 22.26087-13.014047 50.343813-13.014047 72.947157.342475 19.178596 10.959197 25.000669 21.918394 64.72776 121.23612 13.698996 34.589967 26.028093 62.67291 27.397993 62.67291 1.369899 0 6.164548-9.589298 10.959197-21.57592 52.741137-132.195318-22.260869-278.774582-161.990635-316.104348-31.507693-8.561873-89.043479-7.534448-125.003345 1.712375-95.892976 25.000669-171.237458 97.262876-201.032776 192.128428-6.849498 22.260869-12.084281 39.757191-13.251505 79.06689 1.167224 32.922408 6.402007 56.210702 13.251505 78.471571 28.425418 89.385954 91.783278 156.168562 177.059532 185.621405 51.713712 17.808696 93.838127 19.863545 161.990636 7.534448l10.959197-2.054849v47.946488 48.288963l-12.671572 2.7398c-7.191973 1.369899-25.343144 6.164548-57.535786 6.164548-38.394649 0-75.002007-4.452174-105.824749-13.014047-166.100335-46.234113-279.459532-193.155853-279.459532-361.995986 0-168.155184 115.756522-318.844147 277.747157-360.968562 43.15184-11.301672 63.781271-11.986622 93.153177-11.986622 28.427253 0 53.083613 1.712374 70.207358 5.137123z" fill="#4b66a3" fill-rule="evenodd"/></svg>