<svg height="1024" width="1024" xmlns="http://www.w3.org/2000/svg"><path d="M512 1024c282.77 0 512-229.23 512-512S794.77 0 512 0 0 229.23 0 512s229.23 512 512 512zm76.372-878.448c64.728 13.356 117.126 42.124 167.128 91.783 50.343 50.344 78.426 102.058 92.125 169.868 8.562 42.467 5.822 110.62-6.507 151.716-14.726 49.316-47.946 108.222-69.864 124.66-25.686 18.837-54.796 23.632-78.427 12.673-23.631-11.302-31.508-26.029-80.824-149.662-6.507-16.781-11.302-25-13.014-22.26-1.37 2.396-14.042 33.562-28.426 68.837-30.138 75.002-32.877 80.481-43.837 90.07-29.452 27.056-81.166 23.631-103.427-6.849-7.877-10.617-118.496-277.405-118.496-285.624 0-3.425 11.301-.685 50.343 0l50.687 1.027 24.658 59.933c14.041 32.878 29.795 71.92 35.96 86.647 5.822 14.726 11.644 25.343 13.356 23.973 1.37-1.37 15.07-33.905 30.138-72.262 15.412-38.358 30.48-73.633 33.563-78.085 3.082-4.794 12.671-12.671 21.233-17.808 22.261-13.014 50.344-13.014 72.947.342 19.179 10.96 25.001 21.918 64.728 121.236 13.699 34.59 26.028 62.673 27.398 62.673 1.37 0 6.165-9.59 10.96-21.576 52.74-132.195-22.262-278.774-161.991-316.104-31.508-8.562-89.044-7.535-125.004 1.712-95.893 25-171.237 97.263-201.033 192.129-6.849 22.26-12.084 39.757-13.251 79.067 1.167 32.922 6.402 56.21 13.251 78.471 28.426 89.386 91.784 156.169 177.06 185.622 51.714 17.808 93.838 19.863 161.99 7.534l10.96-2.055v96.236l-12.672 2.74c-7.192 1.37-25.343 6.164-57.536 6.164-38.394 0-75.002-4.452-105.824-13.014-166.1-46.234-279.46-193.156-279.46-361.996 0-168.155 115.757-318.844 277.747-360.969 43.152-11.301 63.782-11.986 93.154-11.986 28.427 0 53.083 1.712 70.207 5.137z" fill="#4b66a3" fill-rule="evenodd"/></svg>