<svg height="415" width="415" xmlns="http://www.w3.org/2000/svg"><g fill="none" fill-rule="evenodd"><path d="M63.942.041h287.075c35.313 0 63.942 28.628 63.942 63.942v287.075c0 35.313-28.629 63.942-63.942 63.942H63.942C28.628 415 0 386.371 0 351.058V63.983C0 28.669 28.628.041 63.942.041" fill="#4b6c91"/><path d="M203.998 290.525h16.974s5.126-.565 7.747-3.385c2.409-2.592 2.332-7.456 2.332-7.456s-.332-22.776 10.237-26.13c10.423-3.306 23.804 22.012 37.986 31.748 10.725 7.365 18.875 5.753 18.875 5.753l37.925-.53s19.838-1.224 10.431-16.822c-.77-1.274-5.48-11.538-28.199-32.626-23.782-22.072-20.594-18.501 8.051-56.68 17.445-23.251 24.418-37.445 22.239-43.524-2.076-5.792-14.908-4.262-14.908-4.262l-42.7.264s-3.168-.431-5.514.973c-2.295 1.373-3.768 4.581-3.768 4.581s-6.761 17.991-15.771 33.294c-19.014 32.286-26.618 33.995-29.726 31.987-7.231-4.673-5.424-18.769-5.424-28.786 0-31.29 4.746-44.336-9.242-47.713-4.641-1.12-8.06-1.861-19.931-1.982-15.237-.155-28.13.047-35.432 3.624-4.858 2.379-8.606 7.679-6.322 7.984 2.823.376 9.213 1.725 12.601 6.335 4.377 5.955 4.224 19.323 4.224 19.323s2.515 36.833-5.872 41.407c-5.755 3.138-13.651-3.268-30.603-32.56-8.684-15.004-15.243-31.591-15.243-31.591s-1.263-3.099-3.519-4.758c-2.736-2.01-6.559-2.647-6.559-2.647l-40.578.265s-6.09.17-8.328 2.819c-1.991 2.358-.159 7.229-.159 7.229s31.766 74.322 67.738 111.776c32.987 34.344 70.438 32.09 70.438 32.09" fill="#fff"/></g></svg>