<?xml version="1.0" encoding="utf-8"?>
<!-- Generator: Adobe Illustrator 27.1.1, SVG Export Plug-In . SVG Version: 6.00 Build 0)  -->
<svg version="1.1" id="layer" xmlns="http://www.w3.org/2000/svg" xmlns:xlink="http://www.w3.org/1999/xlink" x="0px" y="0px"
	 viewBox="0 0 652 652" style="enable-background:new 0 0 652 652;" xml:space="preserve">
<style type="text/css">
	.st0{fill:#5952FF;}
</style>
<path class="st0" d="M289.6,18.7c100,0,250.5,31,321.1,101.1c17.9,17.9,41.3,52.7,41.3,104.3c0,91.3-73.3,230.9-153.8,312.4
	c-41.8,41.8-108.1,96.7-197.8,96.7c-87.5,0-154.3-59.8-173.3-78.8C53.2,480,0,367.6,0,262.2c0-66.3,19-124.4,66.8-172.8
	C111.4,44.3,188,18.7,289.6,18.7z M413.5,382.2c33.7-33.7,42.9-75.5,42.9-98.3c0-16.8-4.3-41.3-25-61.9
	c-32.1-32.1-66.8-40.7-105.4-40.7c-48.4,0-81,15.2-102.7,36.9c-16.8,16.8-31.5,43.5-31.5,81s19.6,73.3,41.3,95.1
	c20.1,20.1,51.1,34.8,83.1,34.8S379.8,415.9,413.5,382.2z"/>
</svg>
