<svg width="1024" height="1024" version="1.1" viewBox=".05 0 327.64 327.79" xmlns="http://www.w3.org/2000/svg">
 <g transform="translate(155.47 87.905)">
  <circle cx="8.2927" cy="75.991" r="163.9" fill="#1ac0f9" opacity=".99949" stroke-width=".52316"/>
  <g transform="translate(-75.367 -41.009)" fill="#fff">
   <path d="m55.82 51.44h-3.57v18.49h3.57zm15.35 0h-3.57v18.49h3.57zm20.97-35.27-3.66-6.35-61.04 35.28 3.66 6.34z"/>
   <path d="m91.78 16.17 3.66-6.35 61.04 35.28-3.66 6.34z"/>
   <path d="m167.27 51.53v-7.32h-167.22v7.32z"/>
   <path d="m19.23 168.35c-8.92-6.6-14.81-17.14-14.81-29.11 0-6.34 1.69-12.59 4.82-18.04h62.46c3.21 5.45 4.82 11.7 4.82 18.04 0 5.54-0.71 10.72-2.94 15.36-4.73-4.55-11.69-6.52-18.74-6.52-12.5 0-23.2 7.77-25.97 19.38-0.98-0.09-1.61-0.18-2.59-0.18-2.41 0.09-4.73 0.45-7.05 1.07z"/>
   <path d="m88.57 153.08v-153.08h7.32v153.98c-2.06-0.99-7.05-0.9-7.32-0.9z"/>
   <path d="m101.06 154.96v-108.52h7.32v113.79c-1.97-2.24-4.46-3.84-7.32-5.27z"/>
   <path d="m49.93 78.15h-18.92v19.02h18.92zm-21.33 0h-18.92v19.02h18.92zm0 21.17h-18.92v19.02h18.92zm21.33 0h-18.92v19.02h18.92zm21.24 0h-18.92v19.02h18.92zm0-31.35h-18.92v19.02h18.92z"/>
   <path d="m31.99 171.21c2.59-10.98 12.5-19.2 24.27-19.2 7.59 0 14.37 3.39 19.01 8.75 4.02-2.77 8.84-4.37 14.1-4.37 13.74 0 24.9 11.16 24.9 24.92 0 2.85-0.45 5.53-1.34 8.12 3.03 4.11 4.91 9.29 4.91 14.83 0 13.75-11.16 24.92-24.9 24.92-6.07 0-11.6-2.15-15.88-5.72-4.55 6.34-11.96 10.54-20.35 10.54-9.64 0-18.02-5.54-22.22-13.58-1.69 0.36-3.39 0.54-5.17 0.54-13.75 0-24.99-11.16-24.99-24.92 0-13.75 11.15-24.92 24.99-24.92 0.89-0.09 1.78-0.09 2.67 0.09z" fill-rule="evenodd"/>
  </g>
 </g>
</svg>
