<svg xmlns="http://www.w3.org/2000/svg" viewBox="0 0 40 40"><defs><style>.logo-redmine_svg__cls-1{fill:#0080ff}</style></defs><g id="logo-redmine_svg__Layer_2" data-name="Layer 2"><g id="logo-redmine_svg__Vrstva_1" data-name="Vrstva 1"><path class="logo-redmine_svg__cls-1" d="M20 40A20 20 0 100 20a20 20 0 0020 20"></path><path d="M17.28 29.22V10.89c-4.68 1.27-7.41 4.58-7.41 9.05a9.43 9.43 0 007.41 9.28m17.88-9.28a13.9 13.9 0 01-4.51 10.6A15.51 15.51 0 0120 34.81a15 15 0 01-10.45-4.05 14 14 0 01-4.69-10.68 14.79 14.79 0 016.69-12.42 16.76 16.76 0 019.6-2.46H22v24.15a9.4 9.4 0 008-9.41 9 9 0 00-4.69-8V6.11c6.42 2.69 9.82 7.6 9.82 13.83" fill="#fff"></path></g></g></svg>
