<svg height="80" viewBox="0 0 80 80" width="80" xmlns="http://www.w3.org/2000/svg"><g fill="none" fill-rule="evenodd"><path d="m39.2954322 80 10.3990999-10.4037556h17.9075061c6.0612487 0 11.0271067-4.9637888 11.0271067-11.063318v-47.4670219c0-6.06021416-4.965858-11.0659045-11.0271067-11.0659045h-56.5759661c-6.06073146 0-11.0260721 5.00594899-11.0260721 11.0659045v47.4672805c0 6.0995293 4.96534064 11.063318 11.0260721 11.063318h17.9069888z" fill="#3bace2"/><path d="m41.2954322 19.3706482c.7806115-1.7200352 1.9929129-3.2054731 3.4780922-4.339403l.7829393-.5470488c1.0558171-.6642181 2.2277689-1.1735037 3.4796441-1.4468988.8194092-.1955408 1.6802028-.3127101 2.5399617-.3127101h.157519.0799235c3.1271015.0398323 5.9802907 1.4078423 7.9747555 3.5585329l1.4073251-.3137448.2353732-.0778542c1.8377218-.5072164 3.6343179-1.1729864 5.2780508-2.0332626-.8214784 2.4248616-2.4631421 4.496146-4.5758109 5.8662252l-.0778542.0382805h.0778542.1585537c2.2277688 0 4.3383684-.6647354 6.1378097-1.8374632-1.1347059 1.6807201-2.4248616 3.1658994-3.8707258 4.5354612-.5871398.5866225-1.2115255 1.133154-1.8772955 1.6419223l.0382805 1.6429569c0 17.0079148-13.3316952 30.9264911-30.1060473 31.827893h-3.5580156c-5.4347939-.2749469-10.4790234-1.9166106-14.8582588-4.6164192 5.9438208 0 11.4564689-1.9145414 15.9531323-5.1619161-4.8476541-.3890124-8.9537531-3.5150794-10.713362-7.8575862l2.3850292.1182039 2.8547411-.157519c-2.4631421-.7032746-4.6133154-2.150432-6.2166985-4.0662666-1.6817547-2.0322281-2.7370545-4.5729658-2.9325954-7.3498526 1.3297295.5866225 2.658683 1.0159847 4.066784 1.3685272l1.0552997.2338213-.8209611-.7043091c-1.6812374-1.6023486-2.9331126-3.673633-3.5580156-5.9425275-.1176866-.3121929-.1564844-.6642181-.2353733-.9769283-.1557084-.7436242-.233304-1.5645854-.233304-2.3464901 0-2.1501733.5465315-4.1844705 1.4851793-5.9818426.8602762 1.3292121 1.8377218 2.5415136 2.932078 3.6751849 1.6812374 1.7984067 3.6369044 3.3624748 5.7868191 4.6531478.3132274.1950235.6647354.4298795 1.0170193.5866225l1.915576.9769283c3.2841032 1.4468987 6.9210077 2.2683772 10.7521597 2.307175h.3132275.4689359.0393151l-.1955409-1.290673-.0387977-1.016502.0387977-.5866225c0-.3121929.0382805-.6642181.077337-.9769283.0788888-.7048264.2749469-1.407325.508251-2.0728364z" fill="#010101"/></g></svg>