<svg height="80" width="80" xmlns="http://www.w3.org/2000/svg"><g fill="none" fill-rule="evenodd"><path d="m39.295 80 10.4-10.404h17.907c6.061 0 11.027-4.964 11.027-11.063V11.066C78.63 5.006 73.663 0 67.602 0H11.026C4.966 0 0 5.006 0 11.066v47.467c0 6.1 4.965 11.064 11.026 11.064h17.907z" fill="#3bace2"/><path d="M41.295 19.37a11.422 11.422 0 0 1 3.479-4.339l.782-.547a10.935 10.935 0 0 1 3.48-1.447c.82-.195 1.68-.312 2.54-.312h.238c3.127.04 5.98 1.407 7.974 3.558l1.408-.314.235-.077c1.838-.508 3.634-1.173 5.278-2.034a11.381 11.381 0 0 1-4.576 5.866l-.078.039h.237c2.228 0 4.338-.665 6.138-1.838a27.097 27.097 0 0 1-3.871 4.536 18.807 18.807 0 0 1-1.877 1.642l.038 1.643c0 17.008-13.332 30.926-30.106 31.828h-3.558a31.182 31.182 0 0 1-14.858-4.617 27.165 27.165 0 0 0 15.953-5.162 12.674 12.674 0 0 1-10.714-7.857l2.385.118 2.855-.158c-2.463-.703-4.613-2.15-6.217-4.066a12.91 12.91 0 0 1-2.932-7.35c1.33.587 2.658 1.016 4.067 1.369l1.055.234-.821-.705a13.04 13.04 0 0 1-3.558-5.942c-.118-.313-.157-.665-.236-.977a11.706 11.706 0 0 1-.233-2.347c0-2.15.547-4.184 1.485-5.982a24.22 24.22 0 0 0 2.932 3.676 26.79 26.79 0 0 0 5.787 4.653c.313.195.665.43 1.017.586l1.916.977a27.299 27.299 0 0 0 10.752 2.307h.821l-.195-1.29-.039-1.017.039-.586c0-.313.038-.665.077-.977.08-.705.275-1.408.509-2.073z" fill="#010101"/></g></svg>