<?xml version="1.0" encoding="UTF-8"?>
<svg width="512pt" height="512pt" version="1.0" viewBox="0 0 512 512" xmlns="http://www.w3.org/2000/svg" xmlns:xlink="http://www.w3.org/1999/xlink">
<defs>
<linearGradient id="a" x1="1000.4" x2="4120.1" y1="4120.6" y2="1001" gradientUnits="userSpaceOnUse">
<stop stop-color="#b53b9c" offset="0"/>
<stop stop-color="#652cde" offset=".49459"/>
</linearGradient>
</defs>
<g transform="matrix(.1 0 0 -.1 200.4 508.23)" fill="#fff">
<path d="m370.98 4836.3c-469-49-847-193-1200-454-493-366-815-906-912-1530-25-160-24-511 1-665 41-254 110-474 216-691 335-682 978-1151 1742-1271 158-25 518-25 676 0 1022 160 1799 937 1959 1959 25 158 25 518 0 676-159 1013-920 1783-1932 1953-116 19-450 33-550 23z" fill="#fff"/>
</g>
<g transform="translate(0 512) scale(.1 -.1)" fill="url(#a)">
<path d="m2375 4874c-469-49-847-193-1200-454-493-366-815-906-912-1530-25-160-24-511 1-665 41-254 110-474 216-691 335-682 978-1151 1742-1271 158-25 518-25 676 0 1022 160 1799 937 1959 1959 25 158 25 518 0 676-159 1013-920 1783-1932 1953-116 19-450 33-550 23zm971-1344c160-40 312-137 414-263 51-63 115-175 130-227s2-57-192-74c-250-23-307-21-349 7-19 12-48 45-66 72-65 100-153 155-247 155-67 0-987-80-1042-91-100-19-177-90-218-201-18-48-60-92-104-109-39-15-434-48-460-38-31 12-29 63 7 166 85 246 294 438 541 499 80 19 1232 121 1391 123 86 1 136-4 195-19zm-210-731c26-18 52-49 79-98 42-77 72-108 139-144 39-21 56-22 296-25 309-4 295 2 287-117-21-281-182-519-432-640-134-64-196-75-447-75-447-1-563-30-789-196-114-84-226-143-288-151-33-5-41-2-54 18s-14 37-5 109c8 62 8 96-1 127-19 67-37 82-136 108-213 55-361 156-470 319-82 124-135 286-135 414 0 82-1 82 265 82 267 0 306 7 377 69 24 22 58 66 76 98 36 67 77 110 118 123 16 5 266 8 555 7l525-2 40-26z" fill="url(#a)"/>
</g>
</svg>
