<?xml version="1.0" standalone="no"?>
<!DOCTYPE svg PUBLIC "-//W3C//DTD SVG 20010904//EN"
 "http://www.w3.org/TR/2001/REC-SVG-20010904/DTD/svg10.dtd">
<svg version="1.0" xmlns="http://www.w3.org/2000/svg"
 width="64.000000pt" height="64.000000pt" viewBox="0 0 64.000000 64.000000"
 preserveAspectRatio="xMidYMid meet">

<g transform="translate(0.000000,64.000000) scale(0.100000,-0.100000)"
fill="#000000" stroke="none">
<path d="M434 480 c-12 -4 -33 -23 -46 -40 l-26 -33 -12 37 c-8 26 -16 36 -27
32 -8 -3 -59 -6 -113 -6 l-99 0 19 -32 c10 -18 42 -89 70 -158 28 -69 55 -129
59 -133 4 -4 23 31 41 78 22 56 36 81 41 73 5 -7 21 -46 36 -85 15 -40 30 -73
33 -73 3 0 27 55 53 123 54 137 59 187 25 211 -25 18 -25 18 -54 6z m-172 -31
c11 -6 31 -35 44 -65 l24 -53 -21 -48 -21 -48 -39 99 c-31 76 -37 101 -28 112
14 17 15 17 41 3z m199 -40 c24 -24 22 -66 -7 -135 l-16 -39 -33 80 c-18 44
-31 83 -28 88 5 8 41 25 56 26 4 1 16 -8 28 -20z"/>
</g>
</svg>
