<?xml version="1.0" encoding="utf-8"?>
<!-- Generator: Adobe Illustrator 28.3.0, SVG Export Plug-In . SVG Version: 6.00 Build 0)  -->
<svg version="1.1" id="Layer_1" xmlns="http://www.w3.org/2000/svg" xmlns:xlink="http://www.w3.org/1999/xlink" x="0px" y="0px"
	 viewBox="0 0 1858 1858" style="enable-background:new 0 0 1858 1858;" xml:space="preserve">
<style type="text/css">
	.st0{fill:#F08705;}
	.st1{fill:#DF6C0C;}
	.st2{fill:#FFFFFF;}
</style>
<g>
	<path class="st0" d="M1858,1778.7c0,44.8-36.8,79.3-79.3,79.3H79.3c-44.8,0-79.3-36.8-79.3-79.3V79.3C0,34.5,36.8,0,79.3,0h1699.3
		c44.8,0,79.3,36.8,79.3,79.3v1699.4H1858z"/>
	<path class="st1" d="M1858,1778.7c0,44.8-36.8,79.3-79.3,79.3H635.8l-370.2-376l230-376l683-848.5l677.2,697.9L1858,1778.7z"/>
	<path class="st2" d="M1525.7,1038.2h-195.5l-207-351.8c46-9.2,80.5-50.6,80.5-98.9V321.9c0-56.3-44.8-101.2-101.2-101.2H757.7
		c-56.3,0-101.2,44.8-101.2,101.2v265.6c0,49.4,34.5,89.7,79.3,98.9l-207,353H333.4c-56.3,0-101.2,44.8-101.2,101.2v265.6
		c0,56.3,44.8,101.2,101.2,101.2h344.9c56.3,0,101.2-44.8,101.2-101.2v-265.6c0-56.3-44.8-101.2-101.2-101.2H645l204.7-349.5h159.8
		l205.8,349.5h-34.5c-56.3,0-101.2,44.8-101.2,101.2v265.6c0,56.3,44.8,101.2,101.2,101.2h344.9c56.3,0,101.2-44.8,101.2-101.2
		v-265.6C1626.9,1084.2,1582.1,1038.2,1525.7,1038.2L1525.7,1038.2z"/>
</g>
</svg>
