<svg height="297" preserveAspectRatio="xMidYMid" viewBox="0 0 256 297" width="297" xmlns="http://www.w3.org/2000/svg" xmlns:xlink="http://www.w3.org/1999/xlink"><defs><filter id="b" height="100.7%" width="100.8%" x="-.4%" y="-.3%"><feOffset dy="2" in="SourceAlpha" result="shadowOffsetInner1"/><feComposite in="shadowOffsetInner1" in2="SourceAlpha" k2="-1" k3="1" operator="arithmetic" result="shadowInnerInner1"/><feColorMatrix in="shadowInnerInner1" values="0 0 0 0 1 0 0 0 0 1 0 0 0 0 1 0 0 0 0.2 0"/></filter><filter id="c" height="100.7%" width="100.8%" x="-.4%" y="-.3%"><feOffset dy="-2" in="SourceAlpha" result="shadowOffsetInner1"/><feComposite in="shadowOffsetInner1" in2="SourceAlpha" k2="-1" k3="1" operator="arithmetic" result="shadowInnerInner1"/><feColorMatrix in="shadowInnerInner1" values="0 0 0 0 0 0 0 0 0 0 0 0 0 0 0 0 0 0 0.1 0"/></filter><filter id="f" height="111.8%" width="102.6%" x="-1%" y="-3%"><feOffset dx="1" dy="3" in="SourceAlpha" result="shadowOffsetOuter1"/><feColorMatrix in="shadowOffsetOuter1" values="0 0 0 0 0 0 0 0 0 0 0 0 0 0 0 0 0 0 0.1 0"/></filter><linearGradient id="a" x1="26.07%" x2="74.949%" y1="68.042%" y2="19.279%"><stop offset="0" stop-color="#058b7e"/><stop offset="0" stop-color="#058d80"/><stop offset="1" stop-color="#058d7f"/></linearGradient><linearGradient id="d" x1="30.048%" x2="81.94%" y1="27.302%" y2="84.64%"><stop offset="0"/><stop offset="1" stop-color="#d8d8d8" stop-opacity="0"/></linearGradient><path id="g" d="M55.58 128.105v34.239c0 9.039 7.396 16.435 16.435 16.435h85.016c9.039 0 16.434-7.396 16.434-16.435v-21.623l33.66 33.66v-46.276z"/><mask id="e" fill="#fff"><path d="M127.683 0C57.166 0 0 55.79 0 124.612s57.166 124.613 127.683 124.613l.271 46.913c65.606-37.27 128-87.019 128-171.526C255.954 55.791 198.2 0 127.683 0z"/></mask></defs><path d="M127.683 0C57.166 0 0 55.79 0 124.612s57.166 124.613 127.683 124.613l.271 46.913c65.606-37.27 128-87.019 128-171.526C255.954 55.791 198.2 0 127.683 0z" fill="url(#a)"/><path d="M127.683 0C57.166 0 0 55.79 0 124.612s57.166 124.613 127.683 124.613l.271 46.913c65.606-37.27 128-87.019 128-171.526C255.954 55.791 198.2 0 127.683 0z" filter="url(#b)"/><path d="M127.683 0C57.166 0 0 55.79 0 124.612s57.166 124.613 127.683 124.613l.271 46.913c65.606-37.27 128-87.019 128-171.526C255.954 55.791 198.2 0 127.683 0z" filter="url(#c)"/><path d="m58.318 168.56 109.037 112.724 144.54-105.666-104.454-93.92-22.334 38.273z" fill="url(#d)" fill-opacity=".21" mask="url(#e)"/><use filter="url(#f)" xlink:href="#g"/><use fill="#f6f6f6" fill-rule="evenodd" xlink:href="#g"/><path d="M207.125 128.105V81.7l-33.66 33.587v-21.42c0-9.039-7.395-16.434-16.434-16.434H72.015c-9.04 0-16.435 7.395-16.435 16.435v34.238z" fill="#e2e2e2"/></svg>