<?xml version="1.0" encoding="utf-8"?>
<!DOCTYPE svg PUBLIC "-//W3C//DTD SVG 1.1//EN" "http://www.w3.org/Graphics/SVG/1.1/DTD/svg11.dtd">
<svg version="1.1" id="Layer_1" xmlns="http://www.w3.org/2000/svg" xmlns:xlink="http://www.w3.org/1999/xlink" x="0px" y="0px"
	 width="48px" height="48px" viewBox="0 0 48 48" enable-background="new 0 0 48 48" xml:space="preserve">
<g>
	<circle fill="#0295EF" cx="24" cy="24" r="24"/>
	<path fill="#FFFFFF" d="M36.616,20.625L24.802,8.811l-0.003,0.003c-0.031-0.037-0.057-0.076-0.091-0.111
		c-0.668-0.668-1.75-0.667-2.417,0c-0.034,0.034-0.059,0.073-0.09,0.109l-0.002-0.002L10.385,20.625
		c-0.668,0.668-0.668,1.749,0,2.417c0.667,0.667,1.749,0.668,2.417,0l8.99-8.99v23.917c0,0.945,0.764,1.709,1.709,1.709
		c0.943,0,1.709-0.765,1.709-1.709V14.053l8.989,8.989c0.668,0.668,1.75,0.667,2.417,0C37.284,22.374,37.284,21.293,36.616,20.625z"
		/>
	<g>
		<path fill="#027DD7" d="M21.792,14.052l-8.99,8.99c-0.634,0.634-1.637,0.658-2.309,0.089l11.298,13.128l0.001,0.009V14.052z"/>
		<polygon fill="#027DD7" points="22.08,38.919 22.08,38.919 22.08,38.919 		"/>
		<path fill="#027DD7" d="M36.648,20.625l-0.098-0.065l0.065,0.065c0.668,0.668,0.668,1.749,0,2.417
			c-0.667,0.667-1.749,0.668-2.417,0l-8.989-8.989v23.916c0,0.944-0.766,1.709-1.709,1.709c-0.354,0-0.681-0.106-0.952-0.289
			l7.755,7.77c7.9-2.146,14.184-8.222,16.611-16.003L36.648,20.625z"/>
	</g>
</g>
</svg>
