<?xml version="1.0" standalone="no"?>
<!DOCTYPE svg PUBLIC "-//W3C//DTD SVG 20010904//EN"
 "http://www.w3.org/TR/2001/REC-SVG-20010904/DTD/svg10.dtd">
<svg version="1.0" xmlns="http://www.w3.org/2000/svg"
 width="438.000000pt" height="458.000000pt" viewBox="0 0 438.000000 458.000000"
 preserveAspectRatio="xMidYMid meet">
<metadata>
Created by potrace 1.15, written by Peter Selinger 2001-2017
</metadata>
<g transform="translate(0.000000,458.000000) scale(0.100000,-0.100000)"
fill="#000000" stroke="none">
<path d="M1519 4480 c-1197 -89 -1309 -99 -1355 -119 -67 -30 -120 -84 -144
-148 -20 -53 -20 -80 -20 -1532 0 -1455 0 -1479 20 -1536 25 -73 69 -152 128
-230 331 -437 641 -832 675 -856 60 -43 125 -59 246 -59 58 0 770 40 1581 90
1659 100 1572 91 1655 175 81 80 75 -56 75 1794 l0 1646 -24 36 c-30 44 -44
54 -609 452 -443 313 -513 357 -598 376 -89 21 -353 6 -1630 -89z m1580 -171
c78 -18 142 -56 381 -229 239 -173 288 -216 273 -231 -12 -12 -2632 -171
-2753 -167 -74 2 -105 8 -141 26 -43 21 -449 337 -463 361 -12 19 4 48 32 60
32 13 2361 188 2522 190 58 0 125 -4 149 -10z m906 -783 c19 -8 41 -29 52 -48
17 -31 18 -99 18 -1438 0 -1385 0 -1406 -20 -1445 -14 -28 -33 -46 -65 -62
-43 -21 -109 -26 -1435 -103 -765 -44 -1419 -80 -1455 -80 -84 0 -147 29 -172
80 -17 33 -18 122 -18 1433 0 1185 2 1403 14 1432 18 42 62 66 135 72 53 5
2808 169 2879 172 18 0 48 -5 67 -13z"/>
<path d="M3305 3028 c-341 -21 -361 -25 -402 -87 -14 -20 -23 -49 -23 -71 l0
-38 115 -12 115 -12 0 -617 0 -616 -48 75 c-206 319 -846 1297 -855 1306 -9 8
-102 5 -335 -12 -367 -25 -380 -27 -417 -56 -33 -26 -64 -91 -65 -134 0 -27 4
-32 31 -38 17 -3 48 -6 69 -6 20 0 58 -3 84 -6 l46 -7 -2 -875 -3 -876 -87
-26 c-104 -30 -128 -50 -136 -115 l-5 -48 99 7 c54 3 213 13 353 21 293 17
322 25 366 99 14 24 25 49 25 57 0 10 -40 23 -138 45 l-137 30 -3 657 c-1 361
1 657 5 657 5 0 203 -309 442 -685 260 -411 456 -709 489 -745 73 -82 115
-102 211 -102 83 -1 153 16 255 62 l66 29 0 980 c0 924 1 980 18 985 9 3 46
10 81 17 91 17 115 41 116 114 0 32 -4 59 -10 60 -5 1 -149 -6 -320 -17z"/>
</g>
</svg>
