<?xml version="1.0" encoding="UTF-8" standalone="no"?>
<!DOCTYPE svg PUBLIC "-//W3C//DTD SVG 1.1//EN" "http://www.w3.org/Graphics/SVG/1.1/DTD/svg11.dtd">
<svg width="100%" height="100%" viewBox="0 0 128 128" version="1.1" xmlns="http://www.w3.org/2000/svg" xmlns:xlink="http://www.w3.org/1999/xlink" xml:space="preserve" xmlns:serif="http://www.serif.com/" style="fill-rule:evenodd;clip-rule:evenodd;stroke-linejoin:round;stroke-miterlimit:2;">
    <g transform="matrix(5.55556,0,0,5.55556,-110.611,-21.7417)">
        <path d="M29.139,24.605C25.812,24.605 23.105,23.116 21.519,20.414C20.114,18.045 20,15.48 20,12.613C20,10.914 20.511,9.434 21.478,8.333C22.366,7.323 23.625,6.668 25.023,6.49C26.682,6.28 28.745,6.262 30.89,6.262C34.38,6.262 35.366,6.305 36.739,6.442C38.565,6.624 40.102,7.305 41.183,8.414C42.28,9.54 42.86,11.044 42.86,12.765L42.86,13.111C42.86,16.047 40.897,18.504 38.162,19.172C37.958,19.654 37.705,20.133 37.405,20.605L37.398,20.617C36.434,22.107 34.169,24.605 29.83,24.605L29.139,24.605Z" style="fill:white;fill-rule:nonzero;"/>
        <path d="M36.595,7.88C35.298,7.75 34.39,7.707 30.889,7.707C28.642,7.707 26.74,7.728 25.206,7.923C23.174,8.183 21.445,9.738 21.445,12.613C21.445,15.487 21.597,17.713 22.764,19.68C24.082,21.927 26.286,23.159 29.139,23.159L29.831,23.159C33.332,23.159 35.234,21.3 36.185,19.831C36.595,19.182 36.898,18.534 37.092,17.886C39.578,17.669 41.414,15.616 41.414,13.11L41.414,12.764C41.414,10.063 39.643,8.183 36.595,7.88Z" style="fill:white;fill-rule:nonzero;"/>
        <path d="M21.446,12.613C21.446,9.738 23.175,8.183 25.206,7.923C26.741,7.728 28.643,7.707 30.89,7.707C34.391,7.707 35.299,7.75 36.595,7.88C39.643,8.182 41.414,10.062 41.414,12.764L41.414,13.11C41.414,15.617 39.578,17.67 37.092,17.886C36.898,18.534 36.595,19.182 36.184,19.831C35.234,21.3 33.332,23.159 29.831,23.159L29.139,23.159C26.286,23.159 24.082,21.927 22.764,19.68C21.597,17.713 21.445,15.53 21.445,12.613" style="fill:rgb(32,32,32);fill-rule:nonzero;"/>
        <path d="M23.065,12.634C23.065,15.422 23.238,17.216 24.145,18.88C25.183,20.803 27.063,21.538 29.203,21.538L29.872,21.538C32.682,21.538 34.044,20.176 34.8,18.988C35.167,18.383 35.492,17.713 35.664,16.87L35.794,16.33L36.572,16.33C38.301,16.33 39.792,14.925 39.792,13.131L39.792,12.807C39.792,10.797 38.539,9.738 36.356,9.479C35.124,9.371 34.389,9.328 30.888,9.328C28.532,9.328 26.847,9.35 25.572,9.544C23.778,9.804 23.065,10.819 23.065,12.634" style="fill:white;fill-rule:nonzero;"/>
        <path d="M35.797,14.126C35.797,14.385 35.991,14.58 36.337,14.58C37.439,14.58 38.045,13.953 38.045,12.916C38.045,11.879 37.439,11.23 36.337,11.23C35.991,11.23 35.797,11.425 35.797,11.684L35.797,14.126Z" style="fill:rgb(32,32,32);fill-rule:nonzero;"/>
        <path d="M25.184,13.997C25.184,15.272 25.897,16.374 26.805,17.239C27.41,17.822 28.361,18.428 29.009,18.817C29.204,18.924 29.398,18.99 29.614,18.99C29.874,18.99 30.09,18.924 30.263,18.817C30.912,18.428 31.862,17.822 32.446,17.239C33.375,16.375 34.088,15.272 34.088,13.997C34.088,12.613 33.051,11.382 31.56,11.382C30.674,11.382 30.069,11.836 29.614,12.462C29.204,11.835 28.577,11.382 27.691,11.382C26.178,11.382 25.184,12.613 25.184,13.997" style="fill:rgb(255,90,22);fill-rule:nonzero;"/>
    </g>
</svg>
