<?xml version="1.0" encoding="UTF-8"?>
<svg id="Layer_2" data-name="Layer 2" xmlns="http://www.w3.org/2000/svg" viewBox="0 0 500 500">
  <defs>
    <style>
      .cls-1 {
        fill: #20232a;
      }

      .cls-2 {
        fill: #35ba95;
      }
    </style>
  </defs>
  <g id="Layer_1-2" data-name="Layer 1">
    <rect class="cls-1" width="500" height="500" rx="85.21" ry="85.21"/>
    <path class="cls-2" d="m363.38,134.87c-35.4,39.87-63.2,74.85-95.47,105.07-8.57,8.03-32.44,5.7-46.49.54-21.52-7.9-40.61-22.4-64.98-28.45,9.72,43.21,49.67,54.73,80.63,71.94,10.16,5.65,37.51-8.23,50.04-20.36,35.13-34.01,66.62-71.76,110.08-119.63,8.37,67.29,16.18,119.91,19.92,172.81.48,6.73-19.51,19.87-31.31,21.7-80.48,12.49-161.29,22.9-242.04,33.61-23.14,3.07-40.58-1.32-43.69-30.22-4.94-45.99-15.02-91.59-17.15-137.62-.71-15.34,14.17-43.28,25.6-45.36,75.33-13.74,151.64-22.15,227.7-31.74,5.39-.68,11.33,3.05,27.17,7.72Z"/>
  </g>
</svg>