<svg xmlns="http://www.w3.org/2000/svg" width="512" height="512" viewBox="0 0 512 512">
    <g transform="translate(0 42)">
        <path fill="currentColor" d="M329.903124,0 C302.719508,0.169965879 278.163866,7.43541485 256.267438,21.8237115 L256,22 L254.958643,21.3188471 C232.999651,7.09814347 208.381809,0 181.136364,0 C80.9412347,0 0,77.7895443 0,175.590901 C0,222.694559 15.4356787,260.499162 52.9039189,303.731747 C78.2127601,332.934256 71.7047536,370.33083 36.9281387,400.856286 L5.17323052,428.729413 L46.8383897,421.70802 C90.9428325,414.27556 127.826558,397.57933 157.353931,371.579692 C158.860552,370.253072 161.049787,370.046741 162.777739,371.06851 L240.136229,416.81196 C250.087416,422.696271 262.3386,423.151854 272.699332,418.022877 C431.279537,339.519332 512,258.808979 512,175.590901 C512,77.7902069 431.057926,0 330.863636,0 L329.903124,0 Z M330.863636,24 C418.011674,24 488,91.2629951 488,175.590901 C488,246.912658 413.227048,321.676245 262.051638,396.514121 C258.965462,398.041901 255.316172,397.906195 252.351988,396.153421 L174.993499,350.409971 C164.447915,344.174181 151.120655,345.344179 141.827639,353.27758 L140.710155,354.252839 C123.170146,369.509478 102.616995,381.126992 78.9354223,389.103834 L78.093,389.384 L78.2609264,389.116366 C98.5545808,355.954096 97.4594159,318.496828 71.0404568,288.013414 C37.1984338,248.964926 24,216.639717 24,175.590901 C24,91.2623222 93.9874957,24 181.136364,24 C204.336541,24 224.831305,30.063594 243.191472,42.3037008 L256,50.8427173 L268.808529,42.3037006 C287.168697,30.0635938 307.663459,24 330.863636,24 Z"></path>
        <circle fill="#ff3ef4" cx="145" cy="206" r="30"></circle>
        <circle fill="#011cea" cx="256" cy="206" r="30"></circle>
        <circle fill="#13ebff" cx="367" cy="206" r="30"></circle>
    </g>
</svg>
