<svg height="1024" width="1024" xmlns="http://www.w3.org/2000/svg"><g fill="none" fill-rule="evenodd"><g fill="#d4130b"><rect height="1020" rx="44.737" width="119" x="452" y="2"/><rect height="1020" rx="44.737" transform="rotate(135 511.5 512)" width="119" x="452" y="2"/><rect height="1020" rx="44.737" transform="rotate(90 511.5 512)" width="119" x="452" y="2"/><rect height="1020" rx="44.737" transform="rotate(-135 511.5 512)" width="119" x="452" y="2"/></g><circle cx="512" cy="512" fill="#fedb00" stroke="#d7191a" stroke-width="77.544" r="325"/><path d="M387 596s36.731 66 124.438 66S635 596.542 635 596.542" stroke="#07090b" stroke-width="32.807"/><ellipse cx="386.5" cy="595" fill="#090b0e" rx="16.5" ry="17"/><path d="M651 595.501c0-9.334-7.387-16.72-16.5-16.496s-16.5 7.608-16.5 16.494c0 8.885 7.387 16.27 16.5 16.496 9.113.226 16.5-7.159 16.5-16.494z" fill="#090b0e"/><circle cx="394.5" cy="421.5" fill="#0b0e10" r="34.5"/><circle cx="630.5" cy="421.5" fill="#0b0e10" r="34.5"/></g></svg>