<svg height="1024" viewBox="0 0 1024 1024" width="1024" xmlns="http://www.w3.org/2000/svg"><g fill="none" fill-rule="evenodd"><g fill="#d4130b"><rect height="1020" rx="44.737" width="119" x="452" y="2"/><rect height="1020" rx="44.737" transform="matrix(-.70710678 .70710678 -.70710678 -.70710678 1235.223791 512.353553)" width="119" x="452" y="2"/><rect height="1020" rx="44.737" transform="matrix(0 1 -1 0 1023.5 .5)" width="119" x="452" y="2"/><rect height="1020" rx="44.737" transform="matrix(-.70710678 -.70710678 .70710678 -.70710678 511.146447 1235.723791)" width="119" x="452" y="2"/></g><ellipse cx="512" cy="512" fill="#fedb00" rx="325" ry="325" stroke="#d7191a" stroke-width="77.544"/><path d="m387 596s36.731352 66 124.437965 66 123.562035-65.45818 123.562035-65.45818" stroke="#07090b" stroke-width="32.807"/><ellipse cx="386.5" cy="595" fill="#090b0e" rx="16.5" ry="17"/><path d="m651 595.501419c0-9.334822-7.387302-16.720535-16.5-16.496452s-16.5 7.608494-16.5 16.493543c0 8.885048 7.387302 16.270762 16.5 16.496451 9.112698.22569 16.5-7.15872 16.5-16.493542z" fill="#090b0e"/><circle cx="394.5" cy="421.5" fill="#0b0e10" r="34.5"/><circle cx="630.5" cy="421.5" fill="#0b0e10" r="34.5"/></g></svg>