<svg version="1.1" viewBox="0 0 100 100" xmlns="http://www.w3.org/2000/svg">
 <defs>
  <style>.st0 {
        fill: #df0f50;
      }

      .st1 {
        fill: #292a33;
      }</style>
 </defs>
 <g focusable="false">
  <path class="st0" d="M90.29,33.33c-2.25-5.29-5.29-10-9.46-14.17-3.88-4.17-8.88-7.21-14.17-9.46-5.28-2.22-10.83-3.33-16.67-3.33-8.63,0-16.96,2.5-24.17,7.25-7.21,4.71-12.79,11.67-15.83,19.42-3.33,8.08-4.17,16.67-2.5,25,1.67,8.33,5.83,16.12,11.96,22.25,4.17,4.11,8.89,7.25,14.17,9.42,5.25,2.25,10.83,3.33,16.38,3.33s11.38-1.08,16.67-3.33c8.04-3.33,14.71-8.87,19.46-16.08,4.71-7.25,7.21-15.58,7.21-24.17,0-5-1.13-10.83-3.04-16.12M25.54,28.33c.56-2.83,1.94-5.24,4.17-7.21,2.25-1.96,5-2.79,7.79-2.79.83-.06,1.67.04,2.5.29,3.33.54,6.13,2.5,7.79,5.25,1.67,2.79,2.5,6.13,1.92,9.17-.56,2.83-1.94,5.25-4.17,7.25-2.21,1.92-5,2.75-7.75,2.75-.86.03-1.61-.06-2.25-.25-3.33-.58-6.08-2.5-7.75-5.29-2.25-2.79-2.79-6.12-2.25-9.17M43.62,65.83c-.56,2.83-1.94,5.24-4.17,7.21-2.25,1.96-5,2.79-7.79,2.79-.89.06-1.63-.04-2.21-.29-3.33-.54-6.13-2.5-7.79-5.25-1.96-2.79-2.5-6.13-1.96-9.17.56-2.83,1.94-5.25,4.17-7.25,2.25-1.92,5-2.75,7.79-2.75.89-.06,1.63.03,2.21.25,3.33.58,6.13,2.5,7.79,5.29.83,1.37,1.67,2.79,1.96,4.46.25,1.42.25,2.99,0,4.71M48.87,55.83c-1.38-.29-2.75-1.12-3.58-2.21-.83-1.13-1.13-2.79-.83-4.17.22-1.39.86-2.5,1.92-3.33,1.08-.89,2.29-1.36,3.63-1.42h1.13c1.38.29,2.75,1.13,3.58,2.25.83,1.08,1.13,2.75.83,4.17-.22,1.39-.86,2.5-1.92,3.33-1.08.86-2.29,1.32-3.63,1.37h-1.13ZM74.71,71.67c-.54,2.79-2.21,5.29-4.17,7.21-2.21,1.96-5,2.79-7.75,2.79-.86.06-1.61-.04-2.25-.29-3.33-.54-6.08-2.5-7.75-5.25-1.96-2.79-2.5-6.12-1.96-9.17.56-2.83,1.94-5.25,4.17-7.25,2.21-1.92,5-2.75,7.79-2.75.89-.03,1.63.06,2.21.25,1.67.29,3.04.83,4.46,1.96,1.39.83,2.5,1.94,3.33,3.33.83,1.37,1.67,2.79,1.92,4.46.29,1.67.29,3.04,0,4.71M80.83,38.87c-.56,2.83-1.94,5.25-4.17,7.25-2.21,1.92-5,2.75-7.79,2.75-.89.06-1.63-.03-2.21-.25-3.33-.58-6.13-2.5-7.79-5.29-1.92-2.79-2.5-6.12-1.92-9.17.56-2.83,1.94-5.24,4.17-7.21,2.21-1.96,5-2.79,7.75-2.79.89-.06,1.64.04,2.25.29,3.33.54,6.08,2.5,7.75,5.25,1.96,2.79,2.5,6.13,1.96,9.17"/>
  <path class="st1" d="M43.33,3.04l-9.17-2.5c-2.21-.54-4.17-.54-6.13-.54-1.94.25-3.89.9-5.83,1.96-1.67,1.08-3.33,2.5-4.42,3.87-1.13,1.67-2.25,3.33-2.79,5.54l-2.21,8.63C20.29,10.83,31.37,4.71,43.33,3.04"/>
  <path class="st1" d="m2.79 57.5-2.25 8.62c-1.08 3.87-0.54 8.04 1.67 11.67 1.96 3.58 5.58 6.08 9.46 7.21l8.88 2.21c-9.42-7.21-15.83-17.75-17.75-29.71"/>
  <path class="st1" d="M88.63,15l-10-2.5c5.06,3.89,9.13,8.61,12.21,14.17,3.06,5.5,5,11.43,5.83,17.79l2.79-10.29c1.08-3.87.54-8.04-1.67-11.67-1.96-3.88-5.29-6.38-9.17-7.5"/>
  <path class="st1" d="M56.67,96.96l9.46,2.5c1.92.54,3.88.54,6.08.54,1.96-.29,3.92-.83,5.83-1.96,1.67-1.08,3.33-2.5,4.46-3.88,1.13-1.67,2.21-3.33,2.79-5.54l2.75-10c-7.75,10-18.88,16.38-31.38,18.33"/>
 </g>
</svg>
