<svg xmlns="http://www.w3.org/2000/svg" width="1024" height="1024">
  <path fill="#fff" fill-rule="evenodd" stroke="#091a34" d="M642.493 862.316v142.53c0 13.163-13.594 21.69-25.077 15.726L512 965.834l-105.414 54.738c-11.48 5.963-25.08-2.563-25.08-15.726v-142.53c0-13.164 13.6-21.69 25.08-15.727L512 901.327l130.493-39.011zM512 0c36.802 0 66.635 29.871 66.635 66.72 0 26.924-15.934 50.106-38.87 60.648v94.575h133.844c140.53 0 254.86 114.478 254.86 255.187v67.868c0 140.709-114.33 255.183-254.86 255.183H350.394c-140.53 0-254.862-114.474-254.862-255.183V477.13c0-140.71 114.331-255.187 254.862-255.187h133.841v-94.575c-22.933-10.542-38.87-33.724-38.87-60.648C445.365 29.87 475.198 0 512 0zm161.61 360.943H350.393c-64.087 0-116.04 52.019-116.04 116.187v67.868c0 64.167 51.953 116.184 116.04 116.184h323.215c64.086 0 116.037-52.017 116.037-116.184V477.13c0-64.168-51.95-116.187-116.037-116.187zm-289.327 83.266c36.802 0 66.635 29.87 66.635 66.72s-29.833 66.72-66.635 66.72c-36.802 0-66.635-29.872-66.635-66.72s29.833-66.72 66.635-66.72zm255.434 0c36.802 0 66.635 29.87 66.635 66.72s-29.833 66.72-66.635 66.72c-36.802 0-66.635-29.872-66.635-66.72s29.833-66.72 66.635-66.72z"/>
</svg>