<svg width="512" height="512" viewBox="0 0 38 40" xmlns="http://www.w3.org/2000/svg"><g fill="none" fill-rule="evenodd"><path d="M13.288.84 36.51 7.987A2.111 2.111 0 0 1 38 10.004v19.86a2.111 2.111 0 0 1-2.732 2.018l-23.222-7.146a2.111 2.111 0 0 1-1.49-2.017V2.859A2.111 2.111 0 0 1 13.288.84z" fill="#FF9ABF" fill-rule="nonzero" opacity=".5"/><path d="m8.01 4.218 23.222 7.146a2.111 2.111 0 0 1 1.49 2.017v19.86a2.111 2.111 0 0 1-2.732 2.018L6.768 28.114a2.111 2.111 0 0 1-1.49-2.018V6.236A2.111 2.111 0 0 1 8.01 4.218z" fill="#F789B2" fill-rule="nonzero" opacity=".8"/><path d="m2.732 8.44 23.222 7.146a2.111 2.111 0 0 1 1.49 2.018v19.86a2.111 2.111 0 0 1-2.732 2.018L1.49 32.336A2.111 2.111 0 0 1 0 30.32v-19.86A2.111 2.111 0 0 1 2.732 8.44z" fill="#FF5B97" fill-rule="nonzero"/><path d="m2.732 8.44 23.222 7.146a2.111 2.111 0 0 1 1.49 2.018v19.86a2.111 2.111 0 0 1-2.732 2.018L1.49 32.336A2.111 2.111 0 0 1 0 30.32v-19.86A2.111 2.111 0 0 1 2.732 8.44z"/><path d="m0 .6.676 1.31a2.104 2.104 0 0 1 2.049-.472l-.008-.002 23.248 7.153c.397.125.737.36.99.663l.104.135-13.414 11.951a2.111 2.111 0 0 1-3.281-.61L0 .6z" fill="#E50322" fill-rule="nonzero" style="mix-blend-mode:multiply" transform="translate(0 7)"/></g></svg>