<svg width="1024" height="1024" xmlns="http://www.w3.org/2000/svg"><defs><linearGradient x1="50%" y1="0%" x2="50%" y2="100%" id="a"><stop stop-color="#00E222" offset="0%"/><stop stop-color="#00C31D" offset="100%"/></linearGradient></defs><g fill="none" fill-rule="evenodd"><path d="M357.01 0h309.98c102.802 0 154.19 0 209.528 17.493a217.48 217.48 0 0 1 129.989 129.989C1024 202.812 1024 254.217 1024 357.009v309.982c0 102.801 0 154.189-17.493 209.527a217.445 217.445 0 0 1-129.989 129.98C821.18 1024 769.792 1024 666.991 1024H357.009c-102.801 0-154.197 0-209.527-17.502a217.445 217.445 0 0 1-129.989-129.98C0 821.18 0 769.792 0 666.991V357.009c0-102.792 0-154.197 17.493-209.527A217.48 217.48 0 0 1 147.482 17.493C202.812 0 254.208 0 357.009 0" fill="url(#a)"/><path d="M760 576c18.778 0 34-15.222 34-34s-15.222-34-34-34-34 15.222-34 34 15.222 34 34 34zm-166 0c18.778 0 34-15.222 34-34s-15.222-34-34-34-34 15.222-34 34 15.222 34 34 34zm-95-197c22.091 0 40-17.909 40-40s-17.909-40-40-40c-22.092 0-40 17.909-40 40s17.908 40 40 40zm-201 0c22.091 0 40-17.909 40-40s-17.909-40-40-40c-22.09 0-40 17.909-40 40s17.91 40 40 40zm478.857 428.16c-4.248-2.46-9.32-3.021-14.018-1.601-26.635 8.05-55.373 12.44-85.339 12.44C539.153 818 427 724.428 427 609c0-115.427 112.153-209 250.5-209C815.847 400 928 493.572 928 609c0 63.757-34.217 120.846-88.164 159.18a12.772 12.772 0 0 0-4.947 13.65l11.792 44.985c3.531 13.468-3.439 18.779-15.488 11.803l-54.336-31.457zM297.553 655.417c31.696 9.44 65.85 14.582 101.447 14.582 5.431 0 10.827-.119 16.187-.356C408.55 650.038 405 629.361 405 608c0-125.92 123.346-228 275.5-228 5.32 0 10.604.125 15.85.371C673.775 260.61 549.242 169 399 169 232.762 169 98 281.151 98 419.5c0 76.051 40.724 144.188 105.013 190.13 6.053 4.325 8.825 11.923 6.9 19.11l-14.149 52.79c-4.27 15.933 3.891 22.166 18.136 13.848l64.453-37.633c5.806-3.39 12.756-4.249 19.2-2.328z" fill="#FFF"/></g></svg>