<?xml version="1.0" encoding="utf-8"?>
<!-- Generator: Adobe Illustrator 28.3.0, SVG Export Plug-In . SVG Version: 6.00 Build 0)  -->
<svg version="1.1" id="Layer_1" xmlns="http://www.w3.org/2000/svg" xmlns:xlink="http://www.w3.org/1999/xlink" x="0px" y="0px"
	 viewBox="0 0 464 464" style="enable-background:new 0 0 464 464;" xml:space="preserve">
<style type="text/css">
	.st0{fill:#50BD37;}
</style>
<g>
	<g>
		<g>
			<path class="st0" d="M231.9,288.4c-32.9,0-56.3-24.1-56.3-56.4c0-32.3,23.4-56.4,56.3-56.4c33.2,0,56.5,24.1,56.5,56.4
				C288.4,264.3,265,288.4,231.9,288.4z M231.8,120.4c-65.1,0-111.4,47.6-111.4,111.6c0,63.9,46.3,111.6,111.4,111.6
				c65.6,0,111.8-47.6,111.8-111.6C343.6,168.1,297.3,120.4,231.8,120.4z M231.7,401.4c-98.9,0-169.1-72.3-169.1-169.4
				c0-97.1,70.2-169.4,169.1-169.4c99.5,0,169.7,72.3,169.7,169.4C401.4,329.1,331.2,401.4,231.7,401.4z M231.5,0
				C96.2,0,0,99.1,0,232C0,365,96.2,464,231.5,464C367.8,464,464,365,464,232C464,99.1,367.8,0,231.5,0z"/>
		</g>
	</g>
</g>
<script  id="bw-fido2-page-script" xmlns=""></script>
</svg>
