<svg version="1.1" viewBox="0 0 100 100" xmlns="http://www.w3.org/2000/svg">
 <defs>
  <style>.st0 {
        fill-rule: evenodd;
      }

      .st0, .st1 {
        fill: #5660f2;
      }</style>
 </defs>
 <path class="st0" d="M66.58,61.07h-12.21c-1.76,0-2.54-1.01-2.54-2.41,0-1.01.18-1.6,1.83-2.96l-2.31-3.65c-3.58,2.49-3.56,4.46-3.56,6.61,0,3.47,2.1,6.94,6.47,6.94h16.85v-12.27l-4.53,1.07v6.67Z"/>
 <path class="st0" d="M48.06,32.25l-4.53,1.07v6.68h-13.49v5.09c0,1.76-1.01,2.54-2.41,2.54-1.01,0-1.6-.18-2.96-1.83l-3.65,2.31c2.49,3.58,4.46,3.56,6.61,3.56,3.47,0,6.94-2.1,6.94-6.47v-.66h13.49v-12.27Z"/>
 <path class="st0" d="M63.66,39.08c-.08.1-.17.18-.26.26-.54.41-1.15.66-4.48.66s-3.57-.26-4.11-.66c-.44-.33-.82-.97-.82-1.79s.38-1.46.82-1.79c.54-.41.78-.67,4.11-.67s3.95.26,4.48.67c.09.07.18.16.26.25.31.36.53.89.53,1.54s-.22,1.18-.53,1.54ZM63.66,30.99c-.33-.1-.66-.17-1-.23-1.17-.19-2.44-.17-3.75-.17-.69,0-1.34,0-1.96.02-1.87.07-3.47.39-4.92,1.83-1.33,1.33-2.05,2.87-2.05,5.1s.72,3.77,2.05,5.1c1.92,1.92,4.13,1.85,6.88,1.85,1.69,0,3.31.03,4.75-.4v1c0,1.76-1.01,2.54-2.41,2.54-1.01,0-3.57.42-4.93-1.23l-3.65,2.31c2.49,3.58,6.44,2.96,8.58,2.96,3.47,0,6.94-2.1,6.94-6.47v-7.65c0-2.23-.72-3.77-2.05-5.1-.74-.74-1.58-1.18-2.48-1.45Z"/>
 <path class="st0" d="M25.43,32.25l-4.53,1.07v6.67H6.57c-1.76,0-2.54-1.01-2.54-2.41,0-1.01.18-1.6,1.83-2.96l-2.31-3.65C-.02,33.47,0,35.44,0,37.59,0,41.06,2.1,44.52,6.47,44.52h18.96v-12.27Z"/>
 <path class="st0" d="m27.4 37.87h10.95v-4.17h-10.95v4.17z"/>
 <path class="st0" d="m39.75 50.79h10.95v-4.17h-10.95v4.17z"/>
 <path class="st0" d="m8.67 37.87h5.67v-4.17h-5.67v4.17z"/>
 <path class="st0" d="m27.4 32.31h5.67v-4.17h-5.67v4.17z"/>
 <path class="st0" d="m56.33 71.87h5.67v-4.17h-5.67v4.17z"/>
 <path class="st0" d="m81.53 71.87h5.67v-4.17h-5.67v4.17z"/>
 <path class="st0" d="M99.55,60.51c-2.35-5.12-10.77-10.85-19.77-5.92l1.98,4.03c5.39-3.37,10.84-.09,12.79,2.45h-14.48c-1.76,0-2.54-1.01-2.54-2.41v-9.45l-4.53,1.41v8.05c0,3.47,2.59,6.94,6.96,6.94h19.48s.56-.85.56-2.59c0-.82-.11-1.76-.45-2.5Z"/>
 <path class="st1" d="M94.4,51.97v-2.19h-.87v-.26h2.08v.26h-.87v2.19h-.35ZM95.96,51.97v-2.45h.48l.68,1.89.7-1.89h.43v2.45h-.32v-1.99l-.68,1.83h-.34l-.66-1.83v2h-.3Z"/>
</svg>
