<svg height="1024" viewBox="0 0 48 48" width="1024" xmlns="http://www.w3.org/2000/svg"><path d="m24 41c-10.5 0-19-8.5-19-19v-12.101562c0-1.597657 1.300781-2.898438 2.898438-2.898438h32.203125c1.597656 0 2.898437 1.300781 2.898437 2.898438v12.101562c0 10.5-8.5 19-19 19z" fill="#f50057"/><path d="m24 31c-.601562 0-1.300781-.199219-1.800781-.699219l-9.5-9.5c-1-1-1-2.601562 0-3.5 1-1 2.601562-1 3.5 0l7.800781 7.699219 7.699219-7.699219c1-1 2.601562-1 3.5 0 1 1 1 2.597657 0 3.5l-9.5 9.5c-.398438.5-1.097656.699219-1.699219.699219z" fill="#fff"/></svg>