<svg height="512" viewBox="0 0 500 500" width="512" xmlns="http://www.w3.org/2000/svg" xmlns:xlink="http://www.w3.org/1999/xlink"><defs><path id="a" d="m65.5865 165.28c12.4149.042 17.808-44.38 39.9785-64.605 20.354-18.5667 67.112-24.933 67.112-46.3988 0-44.84891-48.622-54.2762-91.5571-54.2762-42.9346 0-81.1199 45.4903-81.1199 90.3392 0 44.8488 41.7747 74.8618 65.5865 74.9408z" fill-rule="evenodd"/><path id="b" d="m69.6 154.572c32.494-7.749 46.043-21.415 46.043-65.575 0-44.1602-20.699-88.997-56.3381-88.997-35.6392 0-59.3049 31.8863-59.3049 76.0465 0 44.1605 37.106 86.2735 69.6 78.5255z" fill-rule="evenodd"/><path id="c" d="m30.3863 66.4287c8.8423 0 11.4723-2.2572 15.4692-7.325 4.4819-5.6827 7.8242-12.2743 6.7313-25.8893-1.826-22.7494-11.4132-33.2144-30.1706-33.2144-18.7575 0-22.4162 14.4228-22.4162 33.2144 0 18.7915 11.6288 33.2143 30.3863 33.2143z" fill-rule="evenodd"/><clipPath id="d" clip-rule="evenodd"><path clip-rule="evenodd" d="m2984-68h500v500h-500z"/></clipPath></defs><g clip-path="url(#d)" transform="translate(-2984 68)"><path d="m235.425 429.479c114.215 0 240.944-73.457 224.92-214.74-16.024-141.2823-110.705-214.739-224.92-214.739s-208.1545 64.3949-232.65418 214.739c-24.49972 150.345 118.43918 214.74 232.65418 214.74z" fill="#2c2b29" fill-rule="evenodd" transform="translate(3002.51 -26.4788)"/><path d="m188.85 344.334c91.62 0 193.278-58.894 180.424-172.167-12.854-113.2731-88.804-172.167-180.424-172.167-91.6188 0-166.9745 51.6286-186.62734 172.167-19.65286 120.539 95.00854 172.167 186.62734 172.167z" fill="#fff" fill-rule="evenodd" transform="translate(3047.56 17.3456)"/><use fill="#2c2b29" transform="translate(2990 -39)" xlink:href="#a"/><use fill="#2c2b29" transform="matrix(-1 0 0 1 3478 -39)" xlink:href="#a"/><use fill="#2b2a28" transform="translate(3265.32 122.647)" xlink:href="#b"/><use fill="#fff" transform="translate(3292.63 154.768)" xlink:href="#c"/><use fill="#2b2a28" transform="matrix(-1 0 0 1 3203.93 122.647)" xlink:href="#b"/><use fill="#fff" transform="matrix(-1 0 0 1 3176.62 154.768)" xlink:href="#c"/><path d="m35.2906 50.085c17.6581 0 34.7812-25.9894 34.7812-37.1351 0-11.14574-17.3779-12.9499-35.0359-12.9499s-35.0359 1.80416-35.0359 12.9499c0 11.1457 17.6326 37.1351 35.2906 37.1351z" fill="#2c2b29" fill-rule="evenodd" transform="translate(3200.22 256.501)"/></g></svg>