<svg height="512" viewBox="0 0 500 500" width="512" xmlns="http://www.w3.org/2000/svg" xmlns:xlink="http://www.w3.org/1999/xlink"><defs><path id="b" d="M65.587 165.28c12.414.042 17.807-44.38 39.978-64.605 20.354-18.567 67.112-24.933 67.112-46.399C172.677 9.427 124.055 0 81.12 0S0 45.49 0 90.34c0 44.848 41.775 74.861 65.586 74.94z" fill-rule="evenodd"/><path id="c" d="M69.6 154.572c32.494-7.749 46.043-21.415 46.043-65.575C115.643 44.837 94.944 0 59.305 0 23.665 0 0 31.886 0 76.046c0 44.161 37.106 86.274 69.6 78.526z" fill-rule="evenodd"/><path id="d" d="M30.386 66.429c8.843 0 11.473-2.257 15.47-7.325 4.481-5.683 7.824-12.275 6.73-25.89C50.762 10.465 41.175 0 22.417 0 3.66 0 0 14.423 0 33.214 0 52.006 11.629 66.43 30.386 66.43z" fill-rule="evenodd"/><clipPath id="a" clip-rule="evenodd"><path d="M2984-68h500v500h-500z"/></clipPath></defs><g clip-path="url(#a)" transform="translate(-2984 68)"><path d="M3237.935 403c114.215 0 240.944-73.457 224.92-214.74-16.024-141.282-110.705-214.739-224.92-214.739s-208.154 64.395-232.654 214.74C2980.78 338.604 3123.72 403 3237.935 403z" fill="#2c2b29" fill-rule="evenodd"/><path d="M3236.41 361.68c91.62 0 193.278-58.894 180.424-172.167C3403.98 76.239 3328.03 17.346 3236.41 17.346c-91.619 0-166.975 51.628-186.627 172.167-19.653 120.539 95.008 172.167 186.627 172.167z" fill="#fff" fill-rule="evenodd"/><use fill="#2c2b29" transform="translate(2990 -39)" xlink:href="#b"/><use fill="#2c2b29" transform="matrix(-1 0 0 1 3478 -39)" xlink:href="#b"/><use fill="#2b2a28" transform="translate(3265.32 122.647)" xlink:href="#c"/><use fill="#fff" transform="translate(3292.63 154.768)" xlink:href="#d"/><use fill="#2b2a28" transform="matrix(-1 0 0 1 3203.93 122.647)" xlink:href="#c"/><use fill="#fff" transform="matrix(-1 0 0 1 3176.62 154.768)" xlink:href="#d"/><path d="M3235.51 306.586c17.659 0 34.782-25.99 34.782-37.135 0-11.146-17.378-12.95-35.036-12.95s-35.036 1.804-35.036 12.95c0 11.146 17.633 37.135 35.29 37.135z" fill="#2c2b29" fill-rule="evenodd"/></g></svg>