<svg height="512" width="512" xml:space="preserve" xmlns="http://www.w3.org/2000/svg"><rect height="512" rx="64" ry="64" style="fill:#448ac8;fill-opacity:1;fill-rule:nonzero;stroke:none" width="512"/><path d="M112.258 395.069C82.56 362.758 59.053 320.824 56 264.598v-16.4c1.2-23.747 7.258-45.267 14.844-64.85 9.836-25.381 25.027-49.648 42.978-64.84 0 12.143.302 23.743 1.556 31.25 3.8 22.79 16.502 47.75 32.04 63.28 12.586 12.586 29.462 21.23 46.875 30.462 34.747 18.44 67.796 34.724 102.343 53.12 22.222 11.849 45.093 26.484 51.555 50.004 9.142 33.263-10.253 64.112-25.782 80.467-14.316 15.08-33.089 25.418-55.467 28.907h-26.564c-54.862-6.133-98.303-28.489-128.12-60.929zM244.28 194.291c32.031 16.787 65.102 33.818 97.667 50.778 16.778 8.747 32.04 17.787 43.742 30.467 21.311 23.088 34.609 53.208 32.031 96.875 5.271-5.106 10.062-12.213 14.053-19.533 11.614-21.253 21.018-48.333 23.454-79.69-.129-.915.155-1.39.773-1.563v-31.25C442.24 130.47 367.458 64.474 262.25 56.003h-10.156c-20.555 3.44-40.582 9.311-52.338 22.667-8.262 9.364-14.764 26-15.635 36.715-3.693 45.956 29.249 62.694 60.16 78.907z" style="fill:#fff;fill-opacity:1"/></svg>