<svg enable-background="new 0 0 1024 1024" height="316.227766" viewBox="0 0 1024 1024" width="316.227766" xmlns="http://www.w3.org/2000/svg"><path d="m147.9 154.5c-.2 2.2-.6 4.4-.8 6.7-17.3 197.4 117.2 364.7 342.6 426.4 86.4 23.6 229.3 86.1 215.9 238.9-5.1 57.9-32.4 110.3-76.9 147.6-43.6 36.6-98.5 51.7-155.3 49.8-253.8-8.7-473.4-240.2-473.4-509.8 0-140.2 56.5-267.2 147.9-359.6zm271.1-110.5c38.7-32.5 87.7-46 138-43.8 253.5 11.3 467 241.7 467 509.1 0 121.8-42.7 233.7-113.8 321.5 14.2-209.4-125.4-379.6-366.5-445.5-99.7-27.3-202.6-97-192.6-211.1 4.5-51 28.6-97.3 67.9-130.2z" fill="#3361cc"/></svg>