<?xml version="1.0" encoding="UTF-8"?>
<svg version="1.1" viewBox="0 0 400 400" xmlns="http://www.w3.org/2000/svg">
<g fill-rule="evenodd">
<path d="m193.38 75.001c-19.85 1.796-36.733 10.368-47.968 24.355-9.096 11.324-12.605 22.064-13.565 41.526-0.335 6.774-0.292 9.438 0.397 24.505l0.367 8.043-0.761 0.815c-1.204 1.288-3.076 0.962-10.496-1.828-8.279-3.114-12.248-4.115-15.447-3.896-8.88 0.609-11.545 9.459-4.875 16.192 2.14 2.16 2.157 2.172 12.543 8.989 16.215 10.643 16.83 11.45 14.818 19.442-5.218 20.728-24.087 41.427-49.502 54.306-4.281 2.169-5.568 3.281-5.526 4.771 0.086 3.035 8.067 7.146 20.897 10.765 11.311 3.191 12.818 4.472 14.015 11.91 1.024 6.363 1.771 6.742 14.678 7.449 19.216 1.054 25.181 2.791 40.009 11.655 15.317 9.156 23.247 11.625 37.344 11.625 14.034 0 22.076-2.504 37.343-11.627 10.321-6.167 13.584-7.607 21.407-9.448 5.769-1.357 9.575-1.785 21.106-2.368 10.333-0.524 11.004-0.972 12.307-8.212 1.16-6.45 2.843-7.873 12.483-10.55 13.869-3.852 22.229-8.103 22.229-11.303 0-1.567-1.12-2.449-6.921-5.458-24.842-12.882-44.002-34.509-48.26-54.471-1.576-7.389-0.99-8.041 18.799-20.937 11.321-7.378 13.991-11.278 11.903-17.389-2.261-6.616-8.634-7.01-23.424-1.448-7.429 2.794-9.308 3.123-10.51 1.836l-0.757-0.81 0.441-7.736c1.092-19.211 0.314-34.498-2.273-44.61-7.61-29.751-38.345-49.21-72.801-46.093" fill="#fbfbfb"/>
<path d="m190.78 59.082c-30.011 3.075-55.133 19.731-67.036 44.448-5.512 11.445-7.661 22.361-8.026 40.767-0.099 5.027-0.197 9.14-0.216 9.14s-1.159-0.223-2.534-0.495c-16.614-3.292-30.801 6.961-31.622 22.855-0.601 11.63 4.368 18.795 20.364 29.363 10.423 6.886 10.443 6.917 7.859 12.226-6.941 14.262-19.514 26.081-38.007 35.73-11.845 6.18-15.406 10.843-14.921 19.54 0.592 10.608 10.982 19.365 29.296 24.687 5.588 1.625 6.129 2.068 7.909 6.481 4.205 10.429 10.664 13.726 28.621 14.612 15.275 0.754 20.282 2.165 31.303 8.824 19.024 11.494 31.508 15.177 49.198 14.515 15.804-0.592 26.183-3.942 42.46-13.706 13.053-7.83 17.283-9.007 35.196-9.789 15.188-0.662 21.644-4.269 26.088-14.572 1.7-3.94 2.417-4.619 6.057-5.733 21.349-6.533 31.317-14.928 31.288-26.35-0.021-8.005-3.899-12.688-15.543-18.766-17.921-9.354-30.215-20.852-37.275-34.864-2.951-5.856-2.98-5.808 7.632-12.813 11.913-7.865 16.392-12.453 18.884-19.345 6.893-19.062-9.421-37.045-29.852-32.906-1.374 0.279-2.589 0.507-2.701 0.507s-0.203-2.499-0.203-5.553c0-26.504-4.862-43.049-17.193-58.503-17.271-21.645-47.072-33.368-77.026-30.3m18.953 16.067c28.27 3.307 50.384 21.277 56.657 46.038 2.412 9.524 3.283 24.754 2.352 41.157-0.816 14.368-0.904 14.259 8.601 10.635 9.698-3.698 12.932-4.606 16.436-4.617 6.16-0.018 10.009 3.759 9.599 9.419-0.345 4.772-2.758 7.14-16.66 16.35-16.146 10.697-16.612 11.362-14.069 20.063 6.093 20.835 24.081 40.374 48.704 52.901 4.173 2.123 6.147 3.687 6.145 4.869-6e-3 3.32-7.745 7.393-21.498 11.313-11.037 3.146-12.301 4.202-13.492 11.275-1.165 6.926-1.949 7.337-15.165 7.962-18.105 0.855-25.208 2.93-39.531 11.549-14.343 8.63-22.134 11.249-35 11.766-14.431 0.58-24.392-2.341-39.881-11.694-14.534-8.777-21.273-10.738-39.963-11.633-12.811-0.613-13.68-1.07-14.875-7.836-1.308-7.406-2.464-8.348-14.344-11.689-10.499-2.952-18.366-6.62-20.022-9.336-1.425-2.336-0.459-3.442 5.889-6.742 24.951-12.97 42.183-31.749 48.365-52.705 2.558-8.674 2.058-9.387-14.076-20.07-11.41-7.556-14.318-9.955-15.788-13.026-2.279-4.764-0.028-10.623 4.683-12.188 4.287-1.424 8.405-0.564 21.73 4.539 3.919 1.5 6.312 1.776 7.254 0.837 0.694-0.692 0.702-1.603 0.122-13.093-0.739-14.649-0.193-27.641 1.53-36.388 6.469-32.843 39.005-54.018 76.297-49.656" fill="#040404"/>
<path d="m54.63 0.506c-28.134 4.073-50.133 26.21-54.152 54.494-0.726 5.107-0.715 285.46 0.011 290.67 3.71 26.599 24.096 48.334 50.354 53.685l3.161 0.644h146.3 146.3l3.185-0.654c24.661-5.06 44.502-24.901 49.562-49.562l0.654-3.185v-146.3c0-146.29 0-146.3-0.641-149.47-5.302-26.241-26.997-46.551-53.795-50.361-4.736-0.673-286.28-0.637-290.93 0.037m157.56 58.721c34.609 4.273 61.973 27.103 69.838 58.266 1.998 7.915 3.267 20.396 3.282 32.273 3e-3 2.48 0.107 3.357 0.395 3.353 0.215-4e-3 1.516-0.21 2.891-0.458 24.4-4.409 40.2 21.598 24.848 40.9-3.159 3.971-5.936 6.203-15.023 12.071-9.499 6.135-9.895 6.75-7.464 11.607 7.194 14.374 19.576 26.059 37.579 35.468 11.074 5.787 14.467 9.487 15.521 16.927 1.684 11.888-8.41 21.31-30.188 28.176-4.911 1.549-5.2 1.798-7.07 6.106-4.449 10.25-10.781 13.741-26.328 14.514-18.26 0.909-21.97 1.947-35 9.793-16.498 9.934-26.906 13.213-43.06 13.567-18.561 0.407-28.974-2.619-47.816-13.893-11.617-6.952-16.322-8.395-29.813-9.146-13.218-0.735-16.322-1.228-20.523-3.26-4.627-2.237-8.339-6.224-10.351-11.116-2.041-4.965-2.099-5.011-9.017-7.211-19.562-6.22-29.426-15.469-28.52-26.741 0.592-7.36 4.631-12.173 14.256-16.986 18.086-9.044 31.492-21.408 38.5-35.505 2.946-5.928 3.144-5.587-7.25-12.471-8.058-5.336-11.315-7.897-13.93-10.952-16.579-19.364-1.052-46.365 24.086-41.887 1.547 0.276 2.896 0.501 2.997 0.502 0.102 1e-3 0.276-3.479 0.387-7.733 0.302-11.549 0.999-18.425 2.604-25.703 8.842-40.101 49.202-66.014 94.169-60.461" fill="#fbfb04"/>
<path d="m197.11 58.664c0.559 0.069 1.473 0.069 2.032 0 0.558-0.07 0.101-0.126-1.016-0.126s-1.574 0.056-1.016 0.126m4.056-1e-3c0.555 0.069 1.539 0.07 2.187 3e-3 0.649-0.068 0.195-0.125-1.008-0.126s-1.734 0.054-1.179 0.123m-62.737 24.071-2.022 2.11 2.11-2.022c1.16-1.113 2.109-2.062 2.109-2.11 0-0.23-0.318 0.063-2.197 2.022m-23.013 61.485c1e-3 1.203 0.058 1.657 0.126 1.008 0.067-0.648 0.066-1.632-3e-3 -2.187s-0.124-0.024-0.123 1.179m169.65 4.453c-0.063 4.358-0.022 4.765 0.478 4.761 0.379-4e-3 0.43-0.079 0.165-0.248-0.264-0.167-0.411-1.635-0.478-4.76l-0.096-4.519-0.069 4.766m-153.43 4.766c0 0.601 0.064 0.847 0.143 0.546 0.079-0.3 0.079-0.793 0-1.093-0.079-0.301-0.143-0.055-0.143 0.547m180.55 6.093c0.583 0.602 1.13 1.094 1.216 1.094s-0.321-0.492-0.904-1.094c-0.583-0.601-1.13-1.093-1.216-1.093s0.32 0.492 0.904 1.093m-231.15 17.657c0 1.117 0.056 1.574 0.126 1.015 0.069-0.558 0.069-1.473 0-2.031-0.07-0.559-0.126-0.102-0.126 1.016m223.18 58.437c1.367 1.375 2.555 2.5 2.641 2.5s-0.962-1.125-2.329-2.5-2.555-2.5-2.641-2.5 0.962 1.125 2.329 2.5m-11.25 11.563c0.846 0.859 1.609 1.562 1.695 1.562s-0.536-0.703-1.383-1.562c-0.846-0.86-1.609-1.563-1.695-1.563s0.536 0.703 1.383 1.563m-231.74 12.421-1.077 1.172 1.172-1.077c1.091-1.002 1.316-1.266 1.077-1.266-0.052 0-0.58 0.527-1.172 1.171m1.58 26.172c0.583 0.602 1.13 1.094 1.216 1.094s-0.321-0.492-0.904-1.094c-0.583-0.601-1.13-1.093-1.216-1.093s0.32 0.492 0.904 1.093m274.67 0.078-1.077 1.172 1.172-1.077c1.091-1.002 1.316-1.266 1.077-1.266-0.052 0-0.58 0.527-1.172 1.171m-214.28 32.794c0.301 0.079 0.793 0.079 1.094 0s0.055-0.143-0.547-0.143-0.848 0.064-0.547 0.143m152.81 0c0.3 0.079 0.793 0.079 1.093 0 0.301-0.079 0.055-0.143-0.546-0.143-0.602 0-0.848 0.064-0.547 0.143m-76.407 7.193c0.387 0.074 1.02 0.074 1.407 0 0.386-0.075 0.07-0.136-0.703-0.136-0.774 0-1.09 0.061-0.704 0.136" fill="#95940d"/>
<path d="m194.14 74.903c0.3 0.079 0.793 0.079 1.093 0 0.301-0.079 0.055-0.143-0.546-0.143-0.602 0-0.848 0.064-0.547 0.143m11.25 0c0.3 0.079 0.793 0.079 1.093 0 0.301-0.079 0.055-0.143-0.546-0.143-0.602 0-0.848 0.064-0.547 0.143m45.234 19.316c1.107 1.117 2.084 2.031 2.169 2.031 0.086 0-0.749-0.914-1.856-2.031-1.108-1.117-2.084-2.031-2.17-2.031s0.75 0.914 1.857 2.031m-100.95 0.078-1.708 1.797 1.797-1.708c0.988-0.94 1.797-1.748 1.797-1.797 0-0.232-0.299 0.039-1.886 1.708m135.08 45.078c0 0.602 0.064 0.848 0.143 0.547s0.079-0.793 0-1.094-0.143-0.055-0.143 0.547m-15.913 1.719c2e-3 1.031 0.06 1.415 0.129 0.854 0.07-0.562 0.069-1.406-3e-3 -1.875-0.071-0.47-0.128-0.01-0.126 1.021m-137.18 0.469c0 1.117 0.056 1.574 0.126 1.015 0.069-0.558 0.069-1.473 0-2.031-0.07-0.559-0.126-0.102-0.126 1.016m-16.231 8.281c0 2.062 0.051 2.865 0.112 1.784s0.061-2.768-1e-3 -3.75c-0.062-0.981-0.112-0.097-0.111 1.966m177.3 2.569c0.555 0.069 1.54 0.07 2.188 3e-3 0.648-0.068 0.194-0.125-1.009-0.126s-1.733 0.054-1.179 0.123m-161.06 3.837c0 1.117 0.056 1.574 0.126 1.016 0.069-0.559 0.069-1.473 0-2.032-0.07-0.558-0.126-0.101-0.126 1.016m137.18 1.25c0 0.945 0.058 1.332 0.13 0.859 0.071-0.472 0.071-1.246 0-1.718-0.072-0.473-0.13-0.086-0.13 0.859m-180.74 2.109-1.077 1.172 1.172-1.077c0.645-0.592 1.172-1.119 1.172-1.172 0-0.238-0.264-0.013-1.267 1.077m43.846 3.985c3e-3 0.687 0.067 0.932 0.142 0.543s0.072-0.951-6e-3 -1.25c-0.079-0.299-0.14 0.019-0.136 0.707m136.56 0.781c0 0.602 0.064 0.848 0.143 0.547s0.079-0.793 0-1.094-0.143-0.055-0.143 0.547m-136.25 4.688c0 0.601 0.064 0.847 0.143 0.546 0.079-0.3 0.079-0.793 0-1.093-0.079-0.301-0.143-0.055-0.143 0.547m135.94 0.625c0 0.601 0.064 0.847 0.142 0.546 0.079-0.3 0.079-0.793 0-1.093-0.078-0.301-0.142-0.055-0.142 0.547m-178.82 26.406c0.583 0.601 1.13 1.094 1.216 1.094s-0.32-0.493-0.903-1.094c-0.584-0.602-1.131-1.094-1.217-1.094s0.321 0.492 0.904 1.094m6.553 39.765-2.022 2.11 2.11-2.022c1.959-1.879 2.252-2.197 2.022-2.197-0.048 0-0.997 0.949-2.11 2.109m24.467 66.553c0.475 0.072 1.178 0.07 1.562-5e-3 0.385-0.074-4e-3 -0.132-0.863-0.13-0.86 2e-3 -1.174 0.063-0.699 0.135m158.44 0c0.475 0.072 1.179 0.07 1.563-5e-3 0.384-0.074-4e-3 -0.132-0.864-0.13-0.859 2e-3 -1.174 0.063-0.699 0.135m-82.342 23.439c0.562 0.07 1.405 0.069 1.875-3e-3 0.47-0.071 0.01-0.128-1.021-0.126s-1.416 0.06-0.854 0.129m5.776-2e-3c0.472 0.071 1.246 0.071 1.718 0 0.473-0.072 0.086-0.13-0.859-0.13s-1.332 0.058-0.859 0.13" fill="#74743f"/>
</g>
</svg>
