<?xml version="1.0" encoding="utf-8"?>
<!-- Generator: Adobe Illustrator 15.1.0, SVG Export Plug-In . SVG Version: 6.00 Build 0)  -->
<!DOCTYPE svg PUBLIC "-//W3C//DTD SVG 1.1//EN" "http://www.w3.org/Graphics/SVG/1.1/DTD/svg11.dtd">
<svg version="1.1" id="Layer_1" xmlns="http://www.w3.org/2000/svg" xmlns:xlink="http://www.w3.org/1999/xlink" x="0px" y="0px"
	 width="200px" height="214px" viewBox="0 0 200 214" enable-background="new 0 0 200 214" xml:space="preserve">
<g>
	<g>
		<path fill="#F071AA" d="M80,48c-2.435,1.899-4.944,3.723-10,3c-4.63-5.068-0.451-14.766,4-17c-0.737-2.263-3.812-2.188-4-5
			c0.61-7.057,5.126-10.207,11-12c-2.761-1.572-6.841-1.826-8-5c3.746-16.157,31.42-7.366,38,0C95.552,18.886,84.426,30.092,80,48z"
			/>
		<path fill="#989998" d="M111,12c12.88-3.632,28.738-1.591,36,6c-41.107-6.646-54.606,36.963-34,63c-2.296,1.371-3.216,4.118-5,6
			c-0.667,0-1.333,0-2,0c-0.816-2.516-5.271-1.395-7-3c0-0.333,0-0.667,0-1c0-3.333,0-6.667,0-10c0-0.333,0-0.667,0-1
			c-4.463,1.217-11.056,8.934-16,13c-4.827-3.645-1.831-19.981-6-21c1.331-5.003,1.15-11.516,3-16
			C84.426,30.092,95.552,18.886,111,12z"/>
		<path fill="#F071AA" d="M153,22c24.311,3.357,39.036,16.297,44,39c-0.609,2.391,1.255,7.255-1,8c-5.684-4.53-18.532-3.034-27-2
			c-2.333,0-4.667,0-7,0C163.066,47.933,160.012,32.988,153,22z"/>
		<path fill="#9F7243" d="M138,38c16.736,10.788-9.396,28.925-14,13C121.954,43.922,126.432,35.656,138,38z M137,51
			c12.65-0.176-4.292-17.929-6-6c-0.132,2.465-0.15,4.818,1,6C133.667,51,135.333,51,137,51z"/>
		<path fill="#0D0E0D" d="M131,45c0.241-1.759,1.721-2.279,4-2c-0.775,3.443,0.557,4.776,4,4c0.279,2.279-0.241,3.759-2,4
			c-1.667,0-3.333,0-5,0C130.85,49.818,130.868,47.465,131,45z"/>
		<path fill="#F071AA" d="M163,70c5.309,3.411,16.352,2.084,22,0c-2.801,11.533-12.45,16.216-27,16c2.125-4.542,2.342-10.991,4-16
			C162.333,70,162.667,70,163,70z"/>
		<path fill="#29B24B" d="M99,73c0,3.333,0,6.667,0,10C97.345,81.922,97.345,74.078,99,73z"/>
		<path fill="#40B549" d="M156,116c1.663,4.688,1.663,16.313,0,21C156,130,156,123,156,116z"/>
		<path fill="#ABD49A" d="M16,189c3.695-1.662,14.305-1.662,18,0C28,189,22,189,16,189z"/>
		<path fill="#4EB848" d="M88,194c-0.667,0-1.333,0-2,0c2.712-3.127,8.333-3.432,13-2c0,0.333,0,0.667,0,1
			C94.9,192.9,90.803,192.805,88,194z"/>
		<path fill="#F071AA" d="M80,195c3.3-15.4,28.924-18.031,38-6c2.091-0.576,2.854-2.479,6-2c2.35,4.221,2.77,11.15-1,14
			c-5.186-1.186-6.164,1.836-9,3c-7.377-1.289-8.352-8.98-15-11c0-0.333,0-0.667,0-1c-4.667-1.432-10.288-1.127-13,2
			c0.667,0,1.333,0,2,0c-0.013,1.531-2.729,3.287-2,0c-3.677,0.656-4.98,3.688-7,6C77.093,199.898,79.797,196.273,80,195z"/>
		<path fill="#CECCCB" d="M147,18c3.512-0.178,3.289,3.378,6,4c7.012,10.988,10.066,25.933,9,45c2.333,0,4.667,0,7,0
			c-0.125,2.208-4.242,0.425-6,1c-1.454,0.443,0.102,0.878,0,2c-0.333,0-0.667,0-1,0c-1.658,5.009-1.875,11.458-4,16
			c-3.33,0.265-3.968,6.532-2,9c-2.632-1.035-3.368-3.965-6-5c-0.775-0.89-1.075-2.258-1-4c-3.887,4.115-4.783,11.217-9,15
			c-2.584-3.416-3.357-8.643-5-13c-3.128,3.872-5.453,8.547-9,12c-1.002,2.665-4.036,3.297-6,5c-2.113-7.886-7.338-12.662-12-18
			c1.784-1.882,2.704-4.629,5-6C92.394,54.963,105.893,11.354,147,18z M128,28c-17.004-1.135-22.536,24.791-10,33
			C143.768,80.485,161.408,27.018,128,28z"/>
		<path fill="#EDDFE4" d="M128,28c-11.173,3.581-18.654,21.424-10,33C105.464,52.791,110.996,26.865,128,28z"/>
		<path fill="#989998" d="M131,45c1.708-11.929,18.65,5.824,6,6c1.759-0.241,2.279-1.721,2-4c2.707-2.351-1.648-6.708-4-4
			C132.721,42.721,131.241,43.241,131,45z"/>
		<path fill="#ABD49A" d="M118,132c-3.348,3.984-6.695,7.973-12,10c-0.45-7.268,1.646-10.93,0-17c-3.852,4.816-8.152,9.182-15,11
			c-0.319-2.318,0.161-3.839,1-5c6.389-12.943,9.922-28.745,14-44c0.667,0,1.333,0,2,0c4.662,5.338,9.887,10.114,12,18
			C121.904,113.389,121.457,125.875,118,132z"/>
		<path fill="#4EB848" d="M125,182c17.773-7.561,28.88-21.787,31-45c1.663-4.688,1.663-16.313,0-21c-1.436-9.232-0.771-20.562-6-26
			c2.632,1.035,3.368,3.965,6,5c0.564,8.102,2.723,14.609,3,23c0,6.333,0,12.667,0,19c-2.074,26.26-15.693,40.975-35,50
			c-3.146-0.479-3.909,1.424-6,2c0.367-1.701-0.779-1.887-2-2C116.497,182.831,122.518,184.184,125,182z"/>
		<path fill="#4EB848" d="M118,132c-9.091,27.909-28.257,45.743-48,63c-5.766,3.232-9.976,8.023-17,10
			c14.996-20.67,28.113-43.221,38-69c6.848-1.818,11.148-6.184,15-11c1.646,6.07-0.45,9.732,0,17
			C111.305,139.973,114.652,135.984,118,132z"/>
		<path fill="#40B549" d="M67,123c3.827-0.211,6.525-6.757,9-5c-0.712,5.621-1.288,11.379-2,17c7.457-3.209,11.465-9.869,19-13
			c-0.042,3.292-1.688,4.979-1,9c-0.839,1.161-1.319,2.682-1,5c-9.887,25.779-23.004,48.33-38,69c-0.248,1.086-1.988,0.68-2,2
			c-2.934-0.85,1.301-2.518,0-5c1.434-1.232,1.895-3.438,2-6c-14.66,3.73-34.696,10.966-51,4c-1.25-9.583,6.167-10.5,14-11
			c6,0,12,0,18,0c1,0,2,0,3,0c3.695-0.639,9.961,1.295,12-1c2,0,4,0,6,0C61.256,168.59,63.358,145.023,67,123z"/>
		<path fill="#FFFFFF" d="M128,28c33.408-0.982,15.768,52.485-10,33C109.346,49.424,116.827,31.581,128,28z M124,51
			c4.604,15.925,30.736-2.212,14-13C126.432,35.656,121.954,43.922,124,51z"/>
		<path fill="#FFFFFF" d="M139,47c-3.443,0.776-4.775-0.557-4-4C137.352,40.292,141.707,44.649,139,47z"/>
		<path fill="#EDDFE4" d="M196,69c2.255-0.745,0.391-5.609,1-8C198.941,61.41,198.609,73.142,196,69z"/>
		<path fill="#29B24B" d="M126,100c3.547-3.453,5.872-8.128,9-12c1.643,4.357,2.416,9.584,5,13c4.217-3.783,5.113-10.885,9-15
			c-0.075,1.742,0.225,3.11,1,4c5.229,5.438,4.564,16.768,6,26c0,7,0,14,0,21c-2.12,23.213-13.227,37.439-31,45
			c-3.667-8-9.598-13.734-15-20C117.52,144.537,131.786,124.221,126,100z"/>
		<path fill="#95CE8E" d="M67,123c1.715-8.284,3.615-16.385,7-23c5.281-8.386,12.094-15.24,25-16c1.729,1.605,6.184,0.484,7,3
			c-4.078,15.255-7.611,31.057-14,44c-0.688-4.021,0.958-5.708,1-9c-7.535,3.131-11.543,9.791-19,13c0.712-5.621,1.288-11.379,2-17
			C73.525,116.243,70.827,122.789,67,123z"/>
		<path fill="#16A54A" d="M125,182c-2.482,2.184-8.503,0.831-9,5c1.221,0.113,2.367,0.299,2,2c-9.076-12.031-34.7-9.4-38,6
			c-3.333,0-6.667,0-10,0c19.743-17.257,38.909-35.091,48-63c3.457-6.125,3.904-18.611,2-27c1.964-1.703,4.998-2.335,6-5
			c5.786,24.221-8.48,44.537-16,62C115.402,168.266,121.333,174,125,182z"/>
		<path fill="#ABD49A" d="M37,189c2.039-2.295,8.305-0.361,12-1C46.961,190.295,40.695,188.361,37,189z"/>
		<path fill="#95CE8E" d="M159,118c1.663,4.025,1.663,14.975,0,19C159,130.667,159,124.333,159,118z"/>
		<path fill="#16A54A" d="M74,100c1.397-11.603,3.033-22.967,3-36c4.169,1.019,1.173,17.355,6,21c4.944-4.066,11.537-11.783,16-13
			c0,0.333,0,0.667,0,1c-1.655,1.078-1.655,8.922,0,10c0,0.333,0,0.667,0,1C86.094,84.76,79.281,91.614,74,100z"/>
		<path fill="#16A54A" d="M2,200c16.304,6.966,36.34-0.27,51-4c-0.105,2.563-0.566,4.768-2,6C38.99,209.383,8.902,217.441,2,200z"/>
	</g>
</g>
</svg>
