<svg height="1024" viewBox="0 0 188.457 188.482" width="1024" xmlns="http://www.w3.org/2000/svg"><g stroke-width=".421"><path d="m33.832279 164.4446c-.737291-.34541-1.269781-.734-.409607-1.51115.532488-.43175 1.105938-.82033 1.679386-1.2089 5.365846-3.66995 10.404008-7.68527 13.721819-13.60031 2.785323-4.92202 2.334758-7.81478-1.1469-11.44154-19.415347-20.46522-27.935161-44.945769-23.675254-73.8734 2.416678-16.320368 9.502871-30.438779 19.824955-42.700641 6.226019-7.4262 13.639896-13.4276038 21.750106-18.4359707.491527-.3022286 1.187858-.3885802 1.269779-1.16574052-.163844-.4317553-.450566-.30222858-.69633-.30222858-13.803741 0-27.607479-.30222856-41.370256.0863555-13.189331.43175527-24.57639115 11.1824733-24.53543054 26.5961533.0819214 45.03212 0 90.064252 0 135.139532 0 13.98889 10.11728154 25.68948 23.34757054 26.20758 11.182257.47493 22.364514.0864 33.587734.0431.819212.0431 1.638424.0863 2.457638.0863h59.147181c14.74583 0 29.49167.0864 44.2375 0 13.68085 0 24.78119-11.65739 24.78119-26.03486v-.25899-25.25772c0-.60444.2048-1.25207-.16384-1.89971-.73729.0431-1.02401.6908-1.43363 1.12255-7.94636 8.41925-17.32636 15.19782-27.60746 19.9903-25.1908 11.70058-50.83218 12.5209-76.84219 3.10865-2.252838-.8635-4.710476-.94987-7.045233-.34541-3.440694.90669-6.840427 1.98607-10.240161 3.06547-9.9944 3.28134-20.193601 4.74931-30.638567 2.59053zm29.696471-72.75084c.696332-.949859 1.064977-1.51115 1.474584-2.072428 5.365844-7.16714 10.731691-14.334294 16.097535-21.544611 1.556505-2.072427 3.113009-4.188031 4.096066-6.692214 1.146897-2.849589-.08193-5.526473-2.867247-6.562688-1.228819-.38858-2.539559-.561283-3.850302-.474932-7.290995-.04317-14.62295-.04317-21.913946 0-1.024015 0-2.048031.129528-3.031088.388581-2.293798.604459-3.686458 3.065467-3.11301 5.526474.409608 1.640671 1.638426 2.935938 3.194932 3.324518.983054.259054 2.007071.388581 3.031086.345405 4.423752.04317 8.888462 0 13.312213.04317.491529 0 1.105937-.345404 1.474582.431754-.368645.51811-.73729 1.036217-1.105936 1.511146-6.3489 8.462415-12.656841 16.968007-19.005742 25.430415-1.556506 2.115611-2.375719 4.447093-1.22882 7.037626 1.146897 2.590534 3.481656 3.065464 5.857374 3.238174 1.884187.12952 3.80934.0431 5.73449.0431 6.635624 0 13.230291.0432 19.865914-.0431 3.522617-.0431 5.406806-2.288316 5.038161-5.742366-.286725-2.72006-2.048034-4.144855-5.324884-4.188026-5.77545-.04313-11.550904 0-17.735962.000001zm47.51436-22.710353c-5.1201-4.706137-10.77266-5.008366-16.302346-1.55432-6.717546 4.144855-9.175184 10.923421-8.355971 18.78138.778252 7.339838 3.809339 13.341252 11.10034 15.802253 4.546637 1.55432 8.765577.99304 12.492997-2.201949.98305-.820343 1.26977-.647632 1.96611.259049 1.35169 1.81338 3.68646 2.50418 5.73449 1.68385 2.04804-.64763 3.39973-2.633716 3.39973-4.878842.041-8.635118.0819-17.270224 0-25.905344-.041-3.454046-3.11302-5.656001-6.30794-4.96519-1.7613.388579-2.74436 1.64067-3.72741 2.979113zm28.38574 16.018135c-.16386 10.793903 8.31499 18.954088 18.96475 17.831518 9.78961-1.03621 16.13852-8.764647 15.81084-19.688064-.32771-10.793893-7.94639-18.176916-18.39135-17.831513-9.78959.30223-16.71195 8.591945-16.38424 19.688059zm-3.60455-8.591935c0-6.778566.0409-13.513955 0-20.292519 0-3.454047-2.089-5.612827-5.202-5.56965-3.0311.04317-5.03816 2.201955-5.07913 5.526472-.0409 2.029254 0 4.015329 0 6.04458v34.324588c0 2.676876 1.55651 5.008362 3.60454 5.569642 2.82628.82034 5.73449-.94987 6.47179-3.928979.12288-.518108.2048-1.036214.16383-1.597493.082-6.692219.0409-13.384423.0409-20.076641z" fill="none"/><path d="m57.138888 188.32069c-11.182257 0-22.405475.38858-33.587732-.0431-13.230289-.56128-23.34757015-12.26187-23.34757015-26.20758 0-45.03211.0819214-90.064244 0-135.139542 0-15.413679 11.42802215-26.16439703 24.57639115-26.55297718 13.762777-.38858015 27.566515-.0863555 41.370256-.0863555.245764 0 .573448-.1295267.69633.30222859-.081926.77712949-.819212.86348109-1.269779 1.16570959-8.11021 5.008367-15.524087 11.0097715-21.750106 18.4359685-10.281124 12.261863-17.408277 26.3371-19.824955 42.700644-4.259907 28.884469 4.300868 53.408194 23.675254 73.873404 3.440696 3.66992 3.891263 6.51953 1.1469 11.44155-3.317811 5.91505-8.355973 9.93037-13.721819 13.60028-.573448.34541-1.146898.77717-1.720346 1.16575-.860173.77715-.327684 1.16574.409606 1.51114.163842.38858.368645.734.614411 1.07939 4.710473 4.40389 9.175186 9.11006 13.803738 13.60031 2.170915 2.1156 4.341829 4.31756 6.430823 6.5195.860172.82035 2.293797 1.0794 2.498598 2.63372z" fill="#0180c7"/><path d="m57.138888 188.32069c-.204801-1.51114-1.638426-1.77019-2.498598-2.67688-2.088994-2.24513-4.259908-4.40392-6.430823-6.5195-4.628552-4.49027-9.093265-9.19642-13.803738-13.60033-.245766-.3454-.450569-.69079-.614411-1.07938 10.444967 2.15878 20.644167.69081 30.679528-2.54736 3.399734-1.07938 6.799467-2.15878 10.240161-3.06547 2.334757-.64763 4.792395-.5181 7.045233.34541 25.96904 9.41228 51.6104 8.54876 76.84219-3.10863 10.2811-4.7925 19.6611-11.5279 27.60746-19.94713.40962-.43174.69634-1.07937 1.43363-1.12257.36864.60446.16384 1.25211.16384 1.89974v25.2577c.082 14.42065-10.89553 26.1644-24.57639 26.29393h-.2048c-14.74583.0864-29.49167 0-44.2375 0h-59.188142c-.819212-.0864-1.638425-.12953-2.45764-.12953z" fill="#0172b1"/><path d="m63.52875 91.69376c6.185058 0 12.001471-.04313 17.776922 0 3.23589.04313 4.997199 1.467966 5.324884 4.188026.368645 3.41088-1.515543 5.699174-5.038161 5.742364-6.635624.0864-13.230287.0431-19.865914.0431-1.925148 0-3.80934.0864-5.734491-.0431-2.375716-.12953-4.710472-.64764-5.857371-3.238172-1.146899-2.590533-.327685-4.922015 1.228817-7.037626 6.307942-8.462408 12.656842-16.968 19.005742-25.43041.368647-.518108.737293-1.036214 1.105939-1.511147-.409607-.733983-.983057-.388579-1.474583-.431754-4.42375-.04317-8.88846 0-13.31221-.04317-1.024018 0-2.048034-.129527-3.031091-.345405-2.334756-.561282-3.768378-3.022289-3.235891-5.440122.368645-1.640674 1.597467-2.979114 3.153971-3.367694.983055-.259055 2.007071-.388581 3.031088-.388581 7.290994-.04317 14.622952-.04317 21.913946 0 1.310741-.04317 2.580522.129526 3.850302.474933 2.785323.993036 3.973183 3.713097 2.867245 6.562686-.983054 2.461008-2.53956 4.57661-4.096064 6.692213-5.365846 7.21031-10.731692 14.377464-16.097535 21.501433-.450568.561278-.860173 1.122556-1.515545 2.072429z" fill="#0180c7"/><path d="m111.04311 68.983407c.98305-1.338443 2.00706-2.590534 3.68646-2.93594 3.23587-.690808 6.26697 1.511146 6.30792 4.965192.12289 8.635116.082 17.270234 0 25.905342 0 2.245138-1.39265 4.231209-3.39972 4.878849-2.04803.82032-4.38279.17269-5.73448-1.68385-.69634-.90669-.98307-1.079388-1.96612-.259057-3.72742 3.194997-7.94637 3.756267-12.493002 2.201957-7.290996-2.504181-10.281123-8.505595-11.100336-15.802262-.860175-7.90113 1.638426-14.636521 8.355971-18.781377 5.570647-3.49722 11.223207-3.194991 16.343307 1.511146zm-14.500077 15.759082c.08189 1.89973.655374 3.713104 1.720349 5.224253 2.211868 3.108641 6.430818 3.756274 9.420938 1.424794.49154-.38858.9421-.863516 1.35171-1.424794 2.29379-3.281353 2.29379-8.67829 0-11.959644-1.14689-1.683846-2.94917-2.676876-4.87432-2.72006-4.505667-.302226-7.659632 3.367695-7.618677 9.455451zm42.885817.259053c-.32771-11.096114 6.59465-19.385829 16.42521-19.688059 10.44495-.345403 18.06364 7.03762 18.39133 17.831513.32769 10.923417-6.02123 18.651854-15.81081 19.688064-10.69074 1.12257-19.16959-7.037615-19.00573-17.831518zm10.2811-1.036214c-.082 2.158784.53249 4.274382 1.76132 6.044585 2.25282 3.10864 6.47177 3.713103 9.42093 1.295267.45059-.345409.81923-.77716 1.18788-1.208913 2.37571-3.281351 2.37571-8.807815.0409-12.089169-1.14688-1.640663-2.94916-2.676876-4.87431-2.72006-4.42374-.259053-7.53677 3.28135-7.53677 8.67829zm-13.88565-7.555721c0 6.692218.0409 13.384422 0 20.076641.0409 3.065471-2.25284 5.612822-5.16104 5.699182-.49154 0-1.02402-.0431-1.51555-.17271-2.04803-.56128-3.60454-2.849581-3.60454-5.569642v-34.324588c0-2.029251-.0409-4.015326 0-6.04458.0409-3.324517 2.04803-5.483296 5.07913-5.483296 3.113-.04317 5.202 2.115601 5.202 5.569649.0409 6.735389 0 13.513952 0 20.249344z" fill="#0180c7"/></g><path d="m27.032811.4205975h134.391899c14.70487 0 26.6244 12.5640915 26.6244 28.0641215v130.821991c0 15.50004-11.91953 28.06413-26.6244 28.06413h-134.391899c-14.704873 0-26.6244219-12.56409-26.6244219-28.06413v-130.821991c0-15.50003 11.9195489-28.0641215 26.6244219-28.0641215z" fill="none" stroke="#0180c7" stroke-miterlimit="10" stroke-width=".841"/></svg>