<svg height="1024" viewBox="0 0 188.457 188.482" width="1024" xmlns="http://www.w3.org/2000/svg"><g stroke-width=".421"><path d="M33.832 164.445c-.737-.346-1.27-.734-.41-1.512.533-.431 1.107-.82 1.68-1.208 5.366-3.67 10.404-7.686 13.722-13.6 2.785-4.923 2.335-7.816-1.147-11.442-19.415-20.466-27.935-44.946-23.675-73.874 2.416-16.32 9.503-30.438 19.825-42.7 6.226-7.427 13.64-13.428 21.75-18.436.491-.303 1.188-.389 1.27-1.166-.164-.432-.451-.302-.697-.302-13.804 0-27.607-.303-41.37.086C11.59.723.204 11.474.245 26.887c.081 45.032 0 90.064 0 135.14 0 13.989 10.117 25.69 23.347 26.207 11.182.475 22.365.087 33.588.043.82.044 1.638.087 2.457.087h59.148c14.745 0 29.491.086 44.237 0 13.681 0 24.781-11.658 24.781-26.035V136.812c0-.604.205-1.252-.163-1.9-.738.044-1.024.691-1.434 1.123-7.946 8.42-17.326 15.198-27.608 19.99-25.19 11.7-50.832 12.521-76.842 3.109-2.253-.864-4.71-.95-7.045-.345-3.44.906-6.84 1.986-10.24 3.065-9.995 3.281-20.194 4.75-30.639 2.59zM63.53 91.694c.696-.95 1.065-1.511 1.474-2.073a9329.218 9329.218 0 0 0 16.098-21.544c1.556-2.073 3.113-4.188 4.096-6.692 1.147-2.85-.082-5.527-2.867-6.563a10.512 10.512 0 0 0-3.85-.475c-7.292-.043-14.624-.043-21.915 0-1.024 0-2.048.13-3.03.388-2.294.605-3.687 3.066-3.114 5.527.41 1.64 1.639 2.936 3.195 3.324.983.26 2.007.389 3.031.346 4.424.043 8.889 0 13.313.043.491 0 1.106-.345 1.474.432a45.83 45.83 0 0 1-1.106 1.51C63.98 74.38 57.671 82.887 51.322 91.349c-1.556 2.116-2.375 4.447-1.228 7.038 1.147 2.59 3.481 3.065 5.857 3.238 1.884.13 3.81.043 5.735.043 6.635 0 13.23.043 19.865-.043 3.523-.043 5.407-2.288 5.039-5.742-.287-2.72-2.048-4.145-5.325-4.188-5.776-.043-11.551 0-17.736 0zm47.514-22.71c-5.12-4.707-10.773-5.009-16.302-1.555-6.718 4.145-9.175 10.924-8.356 18.781.778 7.34 3.81 13.342 11.1 15.803 4.547 1.554 8.766.993 12.493-2.202.983-.82 1.27-.648 1.966.259 1.352 1.813 3.687 2.504 5.735 1.684 2.048-.648 3.4-2.634 3.4-4.88.04-8.634.081-17.27 0-25.905-.042-3.454-3.114-5.656-6.308-4.965-1.762.389-2.745 1.641-3.728 2.98zm28.386 16.018c-.164 10.793 8.315 18.954 18.965 17.831 9.79-1.036 16.138-8.765 15.81-19.688-.327-10.794-7.946-18.177-18.39-17.832-9.79.303-16.713 8.592-16.385 19.689zm-3.605-8.592c0-6.779.041-13.514 0-20.293 0-3.454-2.089-5.613-5.202-5.57-3.03.044-5.038 2.202-5.079 5.527-.04 2.03 0 4.015 0 6.044v34.325c0 2.677 1.557 5.008 3.605 5.57 2.826.82 5.734-.95 6.472-3.93.122-.517.204-1.035.163-1.597.082-6.692.041-13.384.041-20.076z" fill="none"/><path d="M57.139 188.32c-11.182 0-22.406.39-33.588-.042C10.321 187.716.204 176.016.204 162.07c0-45.032.082-90.064 0-135.14C.204 11.517 11.632.766 24.78.377 38.543-.01 52.346.291 66.15.291c.246 0 .574-.13.697.302-.082.777-.82.864-1.27 1.166-8.11 5.008-15.524 11.01-21.75 18.436-10.281 12.262-17.409 26.337-19.825 42.7-4.26 28.885 4.3 53.409 23.675 73.874 3.44 3.67 3.891 6.52 1.147 11.442-3.318 5.915-8.356 9.93-13.722 13.6-.573.345-1.147.777-1.72 1.166-.86.777-.328 1.165.41 1.51.163.39.368.735.614 1.08 4.71 4.404 9.175 9.11 13.803 13.6a235.013 235.013 0 0 1 6.431 6.52c.86.82 2.294 1.08 2.499 2.634z" fill="#0180c7"/><path d="M57.139 188.32c-.205-1.51-1.639-1.77-2.499-2.676-2.089-2.245-4.26-4.404-6.43-6.52-4.63-4.49-9.094-9.196-13.804-13.6a5.572 5.572 0 0 1-.615-1.08c10.445 2.16 20.644.691 30.68-2.547 3.4-1.08 6.8-2.159 10.24-3.065a11.243 11.243 0 0 1 7.045.345c25.97 9.412 51.61 8.549 76.842-3.108a90.585 90.585 0 0 0 27.608-19.948c.41-.431.696-1.079 1.434-1.122.368.604.163 1.252.163 1.9v25.257c.082 14.42-10.895 26.165-24.576 26.294h-.205c-14.746.087-29.492 0-44.237 0H59.597c-.82-.086-1.639-.13-2.458-.13z" fill="#0172b1"/><path d="M63.529 91.694c6.185 0 12.001-.043 17.777 0 3.236.043 4.997 1.468 5.325 4.188.368 3.41-1.516 5.699-5.039 5.742-6.635.087-13.23.043-19.866.043-1.925 0-3.809.087-5.734-.043-2.376-.13-4.71-.647-5.857-3.238-1.147-2.59-.328-4.922 1.228-7.038 6.308-8.462 12.657-16.968 19.006-25.43.369-.518.737-1.036 1.106-1.511-.41-.734-.983-.389-1.474-.432-4.424-.043-8.889 0-13.313-.043-1.024 0-2.048-.13-3.03-.346-2.336-.56-3.77-3.022-3.237-5.44.369-1.64 1.598-2.979 3.154-3.367.983-.26 2.007-.389 3.031-.389 7.291-.043 14.623-.043 21.914 0 1.311-.043 2.58.13 3.85.475 2.786.993 3.974 3.713 2.868 6.563-.983 2.46-2.54 4.576-4.096 6.692A4647.55 4647.55 0 0 1 65.044 89.62c-.45.562-.86 1.123-1.515 2.073z" fill="#0180c7"/><path d="M111.043 68.983c.983-1.338 2.007-2.59 3.687-2.936 3.235-.69 6.267 1.512 6.307 4.966.123 8.635.082 17.27 0 25.905 0 2.245-1.392 4.231-3.4 4.879-2.047.82-4.382.173-5.734-1.684-.696-.907-.983-1.08-1.966-.26-3.727 3.196-7.946 3.757-12.493 2.203-7.29-2.504-10.281-8.506-11.1-15.802-.86-7.901 1.638-14.637 8.356-18.782 5.57-3.497 11.223-3.195 16.343 1.511zm-14.5 15.76c.082 1.9.655 3.713 1.72 5.224 2.212 3.108 6.431 3.756 9.421 1.425a7.24 7.24 0 0 0 1.352-1.425c2.294-3.282 2.294-8.679 0-11.96-1.147-1.684-2.95-2.677-4.874-2.72-4.506-.302-7.66 3.368-7.619 9.455zm42.886.259c-.328-11.097 6.595-19.386 16.425-19.689 10.445-.345 18.064 7.038 18.391 17.832.328 10.923-6.02 18.652-15.81 19.688-10.691 1.123-19.17-7.038-19.006-17.831zm10.281-1.037a9.92 9.92 0 0 0 1.761 6.045c2.253 3.109 6.472 3.713 9.421 1.295.45-.345.82-.777 1.188-1.209 2.376-3.281 2.376-8.808.041-12.089-1.147-1.64-2.95-2.677-4.874-2.72-4.424-.259-7.537 3.281-7.537 8.678zm-13.886-7.555c0 6.692.041 13.384 0 20.076.041 3.066-2.253 5.613-5.16 5.7a6.046 6.046 0 0 1-1.516-.173c-2.048-.562-3.605-2.85-3.605-5.57V62.118c0-2.029-.04-4.015 0-6.044.041-3.325 2.048-5.483 5.08-5.483 3.112-.044 5.201 2.115 5.201 5.57.041 6.735 0 13.513 0 20.249z" fill="#0180c7"/></g><path d="M27.033.42h134.392c14.705 0 26.624 12.565 26.624 28.065v130.822c0 15.5-11.92 28.064-26.624 28.064H27.033c-14.705 0-26.625-12.564-26.625-28.064V28.485C.408 12.985 12.328.42 27.033.42z" fill="none" stroke="#0180c7" stroke-miterlimit="10" stroke-width=".841"/></svg>