<svg height="400" width="400" xmlns="http://www.w3.org/2000/svg"><g fill-rule="evenodd"><path d="M180.378 10.049c.702.087 1.757.085 2.344-.004s.012-.161-1.277-.158c-1.289.002-1.769.075-1.067.162m35.547 0c.702.087 1.757.085 2.344-.004s.012-.161-1.277-.158c-1.289.002-1.769.075-1.067.162m3.675.758c.07.359.39.739.713.845.479.159.497.087.101-.394-.267-.323-.37-.703-.228-.845.141-.141.039-.257-.228-.257-.266 0-.427.293-.358.651m-56.288 1.771c-.017.366-.338.844-.714 1.063s-.486.403-.243.41c.644.017 1.423-1.054 1.189-1.636-.129-.322-.212-.265-.232.163M152.55 14.47c.138.224.017.708-.27 1.074-.47.601-.454.614.161.131.752-.59.924-1.612.27-1.612-.227 0-.3.183-.161.407m-16.732 2.577c-.312.312.041.922.533.922.202 0 .368-.264.368-.586 0-.604-.461-.776-.901-.336m125.024 1.898c.103.537.317.977.477.977s.207-.44.105-.977c-.103-.537-.318-.976-.478-.976s-.207.439-.104.976m5.857 1.233c.484.104.879.43.879.725 0 .294.174.642.385.773.246.152.266-.088.056-.66-.207-.561-.681-.923-1.265-.963-.881-.06-.884-.053-.055.125m-143.001.786c-.45.449-.285.911.325.911a.587.587 0 0 0 .586-.586c0-.61-.462-.775-.911-.325m155.849 1.963c-.44.44-.268.901.336.901.322 0 .586-.165.586-.367 0-.493-.61-.846-.922-.534M113.477 25c-.285.461.084 1.172.609 1.172.202 0 .367-.352.367-.781 0-.824-.568-1.052-.976-.391m-3.852 1.834c-.467.466-.252 1.291.336 1.291a.577.577 0 0 0 .586-.563c0-.652-.558-1.093-.922-.728m177.777 1.55c.269.108.489.435.489.727s.15.623.334.737.251-.228.15-.758c-.111-.576-.442-.953-.823-.934-.405.019-.46.103-.15.228m-186.23 3.061c0 .323.264.586.586.586s.586-.263.586-.586c0-.322-.264-.586-.586-.586s-.586.264-.586.586m-4.037 1.628c-.495.495-.257.911.521.911.434 0 .782-.26.782-.586 0-.594-.827-.801-1.303-.325m-3.971 2.083c-.285.461.085 1.172.609 1.172.202 0 .368-.351.368-.781 0-.824-.569-1.051-.977-.391m210.526.034c-.403.652.503 1.399 1.042.86.45-.451.168-1.284-.435-1.284-.19 0-.463.191-.607.424m4.123 2.538c0 .34.208.549.463.464.725-.242.845-1.083.155-1.083a.62.62 0 0 0-.618.619M86.99 39.312c-.365.365.076.922.728.922.31 0 .563-.263.563-.586 0-.588-.824-.803-1.291-.336m-3.917 1.964c-.45.45-.285.912.325.912a.587.587 0 0 0 .586-.586c0-.61-.462-.775-.911-.326m230.599.326c0 .402.256.593.683.511.824-.158.772-.852-.077-1.028-.353-.074-.606.141-.606.517M80.859 43.555c0 .322.264.586.586.586a.587.587 0 1 0-.586-.586m239.063 2.148c0 .504.198.781.488.684a.768.768 0 0 0 .488-.684.767.767 0 0 0-.488-.683c-.29-.097-.488.18-.488.683m-242.969 0c0 .215.264.391.586.391s.586-.176.586-.391-.264-.39-.586-.39-.586.175-.586.39M74.784 47.3c-.403.651.502 1.398 1.041.859.451-.451.169-1.284-.434-1.284-.19 0-.463.191-.607.425m246.9 1.821c.072.376.145.816.161.977.017.161.181.293.366.293.186 0 .253-.44.15-.977-.102-.537-.326-.976-.497-.976s-.252.307-.18.683m4.488.684c0 .322.176.586.391.586.214 0 .39-.264.39-.586 0-.323-.176-.586-.39-.586-.215 0-.391.263-.391.586m-252.393.781c-.027.107-.073.327-.103.488s-.209.536-.397.832c-.239.378-.179.485.202.358.298-.099.562-.561.587-1.027.039-.745-.156-1.183-.289-.651M69 51.443c-.44.44-.268.901.336.901.322 0 .586-.166.586-.368 0-.492-.61-.845-.922-.533m259.125.315c0 .322.264.586.586.586s.586-.264.586-.586-.264-.586-.586-.586-.586.264-.586.586M66.797 53.711c0 .322.264.586.586.586s.586-.264.586-.586-.264-.586-.586-.586-.586.264-.586.586m263.281 0c0 .322.264.586.586.586s.586-.264.586-.586-.264-.586-.586-.586-.586.264-.586.586M64.627 55.503c-.402.651.503 1.398 1.042.859.451-.451.169-1.284-.435-1.284-.189 0-.462.191-.607.425m267.025 1.528c.001.674.653 1.826.878 1.551.083-.101-.08-.623-.363-1.16-.284-.538-.515-.714-.515-.391m-268.978.425c-.335.542.408 1.307.947.974.448-.277.161-1.399-.358-1.399-.18 0-.444.191-.589.425m275.607 2.505c0 .358.189.588.42.511s.42-.307.42-.511-.189-.434-.42-.511-.42.153-.42.511m1.953 1.921c0 .34.279.618.619.618.69 0 .57-.841-.155-1.082-.255-.085-.464.123-.464.464M59.064 63.69c-.302.483-.328.763-.071.763.224 0 .511-.271.638-.603.351-.916-.028-1.023-.567-.16m283.124.177c0 .322.263.586.585.586.323 0 .586-.264.586-.586s-.263-.586-.586-.586a.587.587 0 0 0-.585.586m2.148 1.758c-.156.252-.108.634.107.849.26.261.485.238.674-.068.156-.252.108-.634-.107-.849-.26-.26-.485-.238-.674.068m1.843 2.404c.203.608 1.077.715 1.107.135.012-.215-.272-.451-.631-.526-.407-.084-.586.063-.476.391m2.259 2.088c0 .358.188.588.419.511s.42-.307.42-.511-.189-.434-.42-.511-.419.153-.419.511m-297.83 1.985c-.633.464-.653.554-.12.554.351 0 .754-.187.895-.416.414-.67.044-.736-.775-.138m299.783-.032c0 .358.189.588.42.511s.419-.307.419-.511-.188-.434-.419-.511-.42.153-.42.511M44.309 75.825c-.337.545.68 1.217 1.142.755.376-.375.014-1.189-.529-1.189-.19 0-.465.195-.613.434m-1.947 1.943c-.403.652.503 1.399 1.041.86.451-.451.169-1.284-.434-1.284-.19 0-.463.191-.607.424m309.982.802c0 .185.439.336.976.336s.977-.067.977-.15c0-.082-.44-.233-.977-.336s-.976-.035-.976.15m4.163.991c-.141.141-.257.491-.257.778 0 .581 1.007.713 1.34.174.266-.43-.73-1.306-1.083-.952m-316.273.712a.587.587 0 0 0 1.172 0 .587.587 0 0 0-1.172 0m318.163 1.761c-.134.216.039.502.384.634.748.287 1.165-.029.805-.611-.324-.525-.873-.535-1.189-.023m2.15 2.146c0 .358.189.588.42.511s.42-.307.42-.511-.189-.434-.42-.511-.42.153-.42.511M34.239 88.073c-.276.718.456 1.216.995.677.417-.417.117-1.25-.45-1.25-.179 0-.424.258-.545.573m330.214 2.357c0 .322.264.586.586.586s.586-.264.586-.586c0-.323-.264-.586-.586-.586s-.586.263-.586.586M30.078 94.336c0 .322.264.586.586.586s.586-.264.586-.586-.264-.586-.586-.586-.586.264-.586.586m334.576-.186c.26.42 1.752.752 1.752.39 0-.169-.434-.391-.964-.493-.531-.101-.885-.055-.788.103m3.974 1.805c-.509.51-.266.92.545.92.455 0 .746-.205.659-.464-.19-.571-.842-.817-1.204-.456m-342.456 4.631c0 .322.264.586.586.586s.586-.264.586-.586-.264-.586-.586-.586-.586.264-.586.586m-2.083 3.581c-.496.495-.258.911.52.911.434 0 .782-.26.782-.586 0-.595-.827-.801-1.302-.325m350.77 1.963c-.44.44-.268.901.336.901.323 0 .586-.165.586-.367 0-.493-.61-.846-.922-.534m-197.761 1.599c-2.468 1.197-4.162 4.556-4.86 9.638-.235 1.71-.677 3.592-.983 4.183-.305.591-.737 2.444-.96 4.117-.222 1.674-.729 3.835-1.125 4.802-.397.967-.844 2.95-.994 4.408-.229 2.232-.468 2.862-1.509 3.988l-1.237 1.338-12.189.113-12.189.114-1.567 1.53c-2.14 2.091-2.487 3.994-2.308 12.675.147 7.147.263 7.699 2.033 9.608 1.652 1.782 3.599 2.163 11.054 2.163 10.044 0 11.245.934 8.721 6.784-.384.888-.818 2.634-.965 3.88-.148 1.246-.594 3.004-.992 3.906-.398.903-.898 2.784-1.112 4.18-.214 1.397-.748 3.506-1.187 4.688-.438 1.181-.803 2.713-.81 3.403-.007.691-.344 2.097-.748 3.125-.404 1.029-.941 2.867-1.193 4.085-.632 3.057-.641 3.059-13.691 3.059h-10.815l-1.822 1.419c-2.6 2.026-2.994 3.613-2.994 12.066 0 7.9.395 9.704 2.59 11.837l1.477 1.435 8.347.12 8.347.119.534 1.277c.637 1.526.172 5.506-1.011 8.641-.405 1.074-.911 3.197-1.124 4.718s-.741 3.542-1.172 4.492c-.593 1.308-.785 2.572-.792 5.208l-.008 3.48 2.281 2.281 2.281 2.282h8.676c9.66 0 9.872-.046 12.217-2.641 1.062-1.176 1.427-1.973 1.61-3.52.13-1.1.511-2.53.845-3.177.335-.647.797-2.529 1.027-4.182s.735-3.813 1.123-4.801.834-2.939.993-4.336c.158-1.396.536-3.022.838-3.613.303-.591.723-1.98.932-3.086.621-3.272-.352-3.066 14.5-3.066h13.243l.403 1.06c.517 1.36-.227 7.394-1.224 9.926-.391.994-.837 2.927-.99 4.297-.154 1.37-.605 3.252-1.002 4.184-1.879 4.402-1.456 7.726 1.368 10.761l2.078 2.233 9.537-.117 9.537-.118 1.626-1.581c1.332-1.295 1.7-1.981 2.036-3.799.225-1.219.668-2.716.983-3.326s.698-2.24.85-3.623.591-3.323.975-4.311.887-3.148 1.117-4.801.666-3.485.969-4.071.744-2.109.98-3.384c.613-3.318-.281-3.112 14.448-3.33l13.205-.196 1.048-.976c.577-.537 1.57-1.733 2.207-2.656l1.158-1.68v-7.971c0-9.154-.055-9.341-3.634-12.507l-1.094-.967-9.062-.006c-5.079-.004-9.319-.17-9.648-.38-.904-.576-.667-6.307.374-9.019.448-1.165.987-3.316 1.198-4.779.212-1.462.649-3.169.971-3.792s.775-2.495 1.007-4.16c.231-1.665.68-3.529.997-4.143.318-.613.814-2.578 1.104-4.368 1.07-6.609.724-6.455 14.617-6.493 13.826-.037 14.355-.158 16.309-3.706l1.277-2.318.018-7.248.019-7.248-1.117-1.737c-2.434-3.785-2.084-3.672-11.902-3.816l-8.661-.128-1.074-1.02c-1.271-1.206-1.318-1.772-.338-4.047.405-.94.853-2.805.995-4.143.143-1.339.585-3.184.983-4.102.399-.917.851-2.81 1.005-4.207.155-1.396.612-3.38 1.015-4.409 3.088-7.865-1.719-11.835-13.914-11.491-8.19.231-11.367 1.531-12.128 4.963-.119.537-.549 1.855-.955 2.929-.406 1.075-.855 3.008-.999 4.297-.143 1.289-.585 3.095-.981 4.012s-.837 2.763-.979 4.102c-.142 1.338-.596 3.217-1.009 4.176-.414.959-.861 2.786-.994 4.061-.188 1.8-.499 2.61-1.393 3.628l-1.151 1.31-12.362-.001-12.361-.002-1.27-1.19c-1.492-1.399-1.521-1.656-.471-4.318.439-1.114.962-3.318 1.162-4.899.2-1.58.633-3.393.961-4.028.329-.635.782-2.481 1.008-4.103.225-1.622.664-3.557.975-4.301 1.521-3.641-.292-8.06-4.004-9.759-3.249-1.488-15.98-1.424-19.115.096m199.554 2.891c.241.724 1.082.845 1.082.155 0-.34-.278-.619-.618-.619s-.549.209-.464.464m2.076 3.806c-.289.468.446.931.966.609.437-.27.15-.972-.397-.972-.19 0-.446.163-.569.363m-362.463 5.767c-.466.467-.252 1.291.337 1.291a.577.577 0 0 0 .586-.563c0-.652-.558-1.093-.923-.728m-4.156 10.862c0 .322.176.586.391.586s.391-.264.391-.586c0-.323-.176-.586-.391-.586s-.391.263-.391.586m376.775 11.887c-.289.467.446.93.966.609.437-.27.15-.973-.397-.973-.189 0-.446.164-.569.364m-380.811 1.85c-.45.449-.285.911.325.911a.587.587 0 0 0 .586-.586c0-.61-.462-.775-.911-.325m-.163 11.08c-.581.233-.861.655-.826 1.244l.054.892.169-.879c.093-.483.41-.879.705-.879s.644-.176.777-.391c.28-.452.278-.452-.879.013m208.48 11.188c.997 1.268.798 4.676-.441 7.549-.417.967-.92 3.033-1.117 4.591-.198 1.559-.648 3.391-1 4.072-.353.681-.791 2.438-.976 3.903-.184 1.466-.616 3.21-.96 3.876-.345.666-.861 2.645-1.148 4.397-.477 2.911-1.516 6.358-2.284 7.579-.6.954-27.025.678-27.995-.293-.92-.92-.978-1.768-.243-3.565.297-.725.666-2.372.822-3.661.155-1.289.538-2.838.851-3.442.312-.604.811-2.483 1.109-4.175.297-1.693.811-3.6 1.142-4.24.33-.639.717-2.188.859-3.442.142-1.253.587-3.127.989-4.163.403-1.036.906-3.112 1.119-4.613.284-2.005.671-3.086 1.459-4.073l1.072-1.344h25.92zM5.123 172.363c.035.669.089.715.225.191.099-.379.33-.596.514-.482.184.113.444.028.579-.191.136-.219-.113-.397-.559-.397-.587 0-.792.238-.759.879m.008 24.173c-.041.798.159 1.07.888 1.209.691.132.885.034.731-.367-.116-.302-.44-.46-.721-.352-.303.117-.579-.153-.678-.661-.144-.74-.174-.717-.22.171m386.053 6.632c-.348.564-.094.684.78.367.661-.24.675-.303.11-.52-.354-.136-.754-.067-.89.153m-5.539 28.094c-1.151.463-1.115.7.097.63.537-.031.976-.276.976-.544.001-.269-.043-.477-.097-.464-.054.014-.493.184-.976.378m-1.239 5.75c-.022.608-.272.879-.812.879-.43 0-.781.159-.781.354 0 .527 1.596.011 1.827-.591.11-.285.109-.744-.002-1.02s-.215-.106-.232.378m-1.524 6.954c.176.848.869.9 1.028.077.082-.428-.109-.684-.512-.684-.375 0-.59.253-.516.607m-366.866 4.276c0 .322.263.586.586.586.322 0 .586-.264.586-.586s-.264-.586-.586-.586a.587.587 0 0 0-.586.586m362.89 5.86c0 .322.176.586.391.586s.391-.264.391-.586c0-.323-.176-.586-.391-.586s-.391.263-.391.586m-2.343 4.101c0 .215.263.391.585.391.323 0 .586-.176.586-.391s-.263-.39-.586-.39c-.322 0-.585.175-.585.39m-1.879 3.936c.077.231.307.42.511.42s.434-.189.511-.42-.153-.42-.511-.42-.588.189-.511.42m-350.633 1.879c-.266.43.729 1.306 1.083.953.141-.142.257-.492.257-.778 0-.582-1.007-.713-1.34-.175m2.196 4.371c.077.231.307.42.511.42s.434-.189.511-.42-.153-.42-.511-.42-.588.189-.511.42m344.456.198c0 .34.209.549.464.464.724-.241.844-1.082.155-1.082a.62.62 0 0 0-.619.618m-1.953 3.874c0 .358.189.588.42.511s.42-.307.42-.511-.189-.434-.42-.511-.42.153-.42.511m-338.672 1.953c0 .322.264.586.586.586s.586-.264.586-.586-.264-.586-.586-.586-.586.264-.586.586m3.516 2.103c0 .19.441.429.98.532.793.152.895.086.538-.345-.494-.594-1.518-.721-1.518-.187m330.934 2.028c.077.231.307.42.511.42s.434-.189.511-.42-.153-.42-.511-.42-.588.189-.511.42m-328.95 1.338c-.023.573.219.781.908.781.517 0 .858-.132.758-.293-.099-.161-.419-.293-.711-.293s-.619-.22-.727-.488c-.109-.269-.211-.137-.228.293m326.922.781c0 .322.264.586.586.586s.586-.264.586-.586-.264-.586-.586-.586-.586.264-.586.586m-3.906 5.827c0 .34.278.618.618.618.69 0 .57-.841-.154-1.082-.256-.085-.464.124-.464.464m-2.18 1.841c-.333.539.431 1.282.974.947.233-.145.425-.409.425-.588 0-.52-1.122-.807-1.399-.359m-2.117 2.488c0 .323.264.586.586.586s.586-.263.586-.586c0-.322-.264-.586-.586-.586s-.586.264-.586.586m-3.895 1.55c-.262.315-.385.798-.274 1.074.124.31.213.236.232-.195.017-.383.426-.855.91-1.049.594-.239.673-.362.243-.378-.35-.014-.85.233-1.111.548m-312.843 9.44c-.049 1.005.109 1.256.882 1.404.654.125.882.027.749-.321a.552.552 0 0 0-.717-.299c-.344.133-.582-.178-.69-.903-.166-1.104-.166-1.104-.224.119m306.671.998c.242.724 1.083.844 1.083.154 0-.34-.279-.618-.619-.618s-.549.208-.464.464m-1.859 1.899c-.371.601.137.988.638.487.281-.281.288-.499.021-.664-.219-.135-.516-.056-.659.177m-10.34 8.379c0 .322.264.586.586.586s.586-.264.586-.586-.264-.586-.586-.586-.586.264-.586.586m-1.953 1.953c0 .322.264.586.586.586s.586-.264.586-.586-.264-.586-.586-.586-.586.264-.586.586m-1.953 1.921c0 .34.278.618.618.618.69 0 .57-.841-.154-1.082-.255-.085-.464.123-.464.464m-6.25 4.329c0 .322.264.586.586.586s.586-.264.586-.586-.264-.586-.586-.586-.586.264-.586.586m-1.953 1.986c0 .34.209.549.464.464.724-.242.844-1.083.154-1.083a.62.62 0 0 0-.618.619m-5.99 3.548c-.449.449-.284.911.326.911a.587.587 0 0 0 .586-.586c0-.61-.462-.775-.912-.325m-3.971 2.083a.726.726 0 0 0 .107.85c.26.26.485.237.674-.068a.726.726 0 0 0-.107-.85c-.26-.26-.485-.238-.674.068m-6.445 4.492c0 .403.256.594.683.512.824-.159.772-.852-.077-1.028-.354-.074-.606.141-.606.516m-3.907 1.954c0 .322.264.586.586.586a.587.587 0 1 0-.586-.586m-12.109 6.282c0 .69.841.57 1.082-.155.085-.255-.123-.463-.464-.463a.62.62 0 0 0-.618.618m-4.207 1.799c.241.724 1.082.844 1.082.154a.62.62 0 0 0-.618-.618c-.341 0-.549.208-.464.464m-9.986 3.702c-.449.45-.284.912.326.912a.588.588 0 0 0 .586-.586c0-.61-.462-.775-.912-.326m-231.119.409c.322.12.809.394 1.083.611.372.294.435.231.251-.248-.135-.353-.623-.627-1.083-.611-.572.022-.651.1-.251.248m225 2.065c0 .504.197.781.488.684a.77.77 0 0 0 .488-.684.769.769 0 0 0-.488-.683c-.291-.097-.488.18-.488.683m-6.176 1.983c.077.231.307.42.511.42.205 0 .435-.189.512-.42.076-.231-.153-.42-.512-.42-.358 0-.588.189-.511.42m-117.647 2.021c-.003.425.29.684.776.684s.779-.259.775-.684c-.005-.585-.061-.599-.391-.097-.342.52-.427.52-.769 0-.329-.502-.386-.488-.391.097m20.995 2.454c.11.576.441.952.822.933.405-.019.46-.102.15-.227a.848.848 0 0 1-.488-.728c0-.291-.151-.623-.334-.737-.184-.113-.252.228-.15.759m68.957-.305c-.139.376-.441.812-.671.97-.258.177-.174.29.219.293.372.004.715-.4.824-.97.216-1.126-.002-1.297-.372-.293m-52.479 1.829c.263.318.366.761.227.986-.149.24.118.395.65.377.496-.017.682-.12.414-.228-.269-.109-.488-.428-.488-.709s-.289-.622-.642-.758c-.528-.202-.557-.144-.161.332m35.791.054c-.782.782-.784 1.339-.004 1.339.335 0 .495-.183.357-.407-.139-.225-.04-.664.22-.977.632-.762.2-.728-.573.045m-83.366 1.901c.075.358.311.642.526.631.58-.031.473-.905-.135-1.107-.328-.11-.475.069-.391.476m-4.193 1.833c-.333.539.432 1.282.974.947.234-.145.425-.409.425-.589 0-.519-1.122-.806-1.399-.358m-6.023 4.474c0 .34.209.549.464.464.724-.242.844-1.083.154-1.083a.62.62 0 0 0-.618.619m-4.103 1.728c-.134.216.039.502.384.634.748.287 1.165-.029.805-.611-.324-.525-.873-.535-1.189-.023m-75.194 2.364c0 .227.183.3.408.162.224-.139.707-.018 1.074.27.6.47.613.454.13-.162-.589-.752-1.612-.923-1.612-.27m65.234 4.111c0 .34.209.549.464.464.725-.242.845-1.082.155-1.082a.62.62 0 0 0-.619.618m-4.296 1.921c0 .402.256.593.683.511.823-.158.772-.852-.077-1.028-.354-.074-.606.141-.606.517m-5.86 3.906c0 .358.189.588.42.511s.42-.307.42-.511-.189-.434-.42-.511-.42.153-.42.511m-8.057 1.94c-.121.315-.129.799-.018 1.074.11.276.215.121.232-.345.017-.465.25-.935.519-1.043.382-.155.38-.204-.012-.228-.276-.017-.6.227-.721.542m3.994-.286c-.439.439-.235 1.276.31 1.276.739 0 1.099-1.058.446-1.308-.287-.111-.628-.096-.756.032m-50.527.592a.77.77 0 0 0 .684.488c.286 0 .594-.22.683-.488.097-.291-.18-.488-.683-.488-.504 0-.781.197-.684.488m2.127 3.668c-.365.364.076.922.728.922.31 0 .563-.264.563-.586 0-.589-.824-.803-1.291-.336m42.307.336c0 .322.176.586.391.586.214 0 .39-.264.39-.586s-.176-.586-.39-.586c-.215 0-.391.264-.391.586m-4.297 1.953c0 .402.256.594.684.512.823-.159.771-.852-.077-1.029-.354-.074-.607.142-.607.517m-31.857 3.745c-.403.651.503 1.398 1.042.859.45-.45.168-1.284-.435-1.284-.189 0-.463.191-.607.425m4.449.046c.287.367.409.85.27 1.075-.138.224-.066.407.162.407.653 0 .482-1.022-.27-1.612-.616-.483-.632-.47-.162.13m21.549.311c0 .503.197.78.488.683a.769.769 0 0 0 .488-.683.769.769 0 0 0-.488-.684c-.291-.097-.488.18-.488.684" fill="#f5f8fc"/><path d="M181.25 10.126c-1.692.15-2.539.393-2.539.728 0 1.034-1.347 1.244-8.013 1.249-6.717.006-6.848.022-7.226.885-.367.835-.63.885-5.279.988-4.629.103-4.913.155-5.273.976-.353.804-.676.877-4.385.98-3.668.102-4.004.175-4.004.871 0 .897-.764 1.122-4.28 1.261-2.331.092-2.542.174-2.761 1.077-.222.911-.378.968-2.351.858-2.847-.159-3.809.131-3.96 1.193-.114.805-.359.888-2.931.993-2.557.104-2.818.191-2.93.976-.111.779-.379.874-2.776.978-2.407.105-2.687.205-3.018 1.075-.32.841-.603.958-2.327.958-1.682 0-1.963.108-1.963.758 0 1.019-.673 1.39-2.517 1.39-1.318 0-1.574.141-1.78.977-.195.789-.462.963-1.39.908-1.988-.117-2.845.212-2.977 1.143-.106.75-.397.896-1.98.998-1.675.107-1.856.211-1.856 1.074 0 .886-.142.955-1.953.955-1.823 0-1.953.065-1.953.977 0 1.05-.2 1.132-2.441.997-1.24-.075-1.465.034-1.465.704 0 1.027-.654 1.424-2.344 1.424-1.127 0-1.389.156-1.494.894-.089.627-.462.962-1.248 1.119-.757.151-1.16.496-1.24 1.058-.1.698-.423.854-1.975.954-1.544.099-1.855.248-1.855.887 0 .431-.41.955-.934 1.194-.513.234-1.126.848-1.361 1.364-.378.829-.605.911-1.944.697-1.392-.223-1.536-.16-1.769.769-.159.631-.612 1.102-1.203 1.251-.575.144-.995.569-1.068 1.08-.084.592-.467.9-1.292 1.037-.692.116-1.172.434-1.172.78 0 .37-.597.71-1.63.928-1.215.256-1.686.569-1.852 1.228-.13.517-.628.986-1.202 1.13-.629.158-.98.52-.98 1.012 0 .485-.347.854-.942 1.003a1.67 1.67 0 0 0-1.18 1.18c-.144.576-.52.942-.968.942-.454 0-.824.37-.976.977-.179.713-.507.977-1.215.977-.712 0-.969.209-.969.791 0 .566-.332.857-1.171 1.025-.645.129-1.172.48-1.172.781s-.428.71-.951.908c-1.234.47-6.793 6.028-7.262 7.262-.199.523-.618.951-.931.951-.332 0-.622.45-.694 1.074-.088.77-.373 1.11-1.002 1.2-.634.09-.879.387-.879 1.066 0 .673-.272 1.011-.954 1.182-.581.146-1.001.569-1.075 1.081a1.104 1.104 0 0 1-.962.963c-.498.071-.935.49-1.07 1.027-.125.499-.579 1-1.008 1.112-.43.112-.955.66-1.167 1.218-.24.631-.684 1.015-1.176 1.015-.674 0-.791.253-.791 1.715 0 1.491-.124 1.747-.95 1.954-.592.149-.996.569-1.074 1.117-.076.533-.438.923-.924.992-.475.068-.982.596-1.247 1.301-.247.652-.824 1.284-1.285 1.404-.718.188-.801.409-.586 1.557.231 1.229.153 1.376-.943 1.79-.836.315-1.194.71-1.194 1.313 0 .977-1.05 2.213-1.594 1.876-.198-.122-.36.408-.36 1.178.001 1.113-.189 1.472-.923 1.751-1.109.422-1.408 1.08-1.136 2.502.175.914.03 1.131-1.017 1.526-1.101.415-1.22.622-1.22 2.106 0 1.408-.127 1.663-.879 1.769-.746.106-.909.422-1.074 2.078-.166 1.657-.329 1.973-1.075 2.078-.775.111-.879.351-.879 2.051 0 1.783-.071 1.926-.956 1.926-.877 0-.966.169-1.074 2.035-.105 1.805-.229 2.061-1.095 2.266-.873.206-.976.427-.976 2.103 0 1.597-.166 2.005-1.13 2.773-1.026.819-1.11 1.067-.924 2.716.212 1.884-.327 2.951-1.49 2.951-.434 0-.558.65-.558 2.922 0 2.78-.047 2.934-.963 3.164-.93.233-.966.371-1.074 4.011-.105 3.573-.157 3.777-.99 3.895-.848.12-.879.27-.879 4.225 0 4.118-.356 5.611-1.337 5.611-.81 0-1.064 2.247-.965 8.531.087 5.528-.292 7.859-1.189 7.305-.654-.404-.795 1.746-.801 12.143-.005 11.19.142 13.106.979 12.784.853-.327 1.106 1.374 1.006 6.763-.123 6.69.159 8.641 1.274 8.8.797.114.843.35.947 4.865.108 4.682.122 4.749 1.074 4.988.941.236.965.333.965 3.946 0 3.431.057 3.703.774 3.703.899 0 1.13.743 1.274 4.102.09 2.097.193 2.357.979 2.468.984.14 1.01.229.892 3.094-.076 1.851.008 2.082.875 2.412 1.193.453 1.544 1.318 1.224 3.02-.228 1.215-.15 1.354.969 1.744 1.135.396 1.216.55 1.216 2.312 0 1.66.106 1.903.879 2.012.764.109.894.39.996 2.151.101 1.747.236 2.043.977 2.149.71.101.88.414.98 1.801.098 1.35.303 1.748 1.051 2.032.746.284.954.683 1.051 2.017.102 1.405.272 1.699 1.098 1.895.797.191.982.479 1.01 1.579.054 2.129.111 2.26 1.04 2.392.701.1.903.414.998 1.55.084 1.007.335 1.481.857 1.617.434.114.878.734 1.077 1.505.214.825.621 1.364 1.097 1.454.982.187 1.396.834 1.165 1.822-.128.551.079.909.678 1.172.474.209.914.731.977 1.161.288 1.953.529 2.539 1.046 2.539.979 0 1.04.62 1.006 10.127-.035 9.998.175 12.69.967 12.386 1.115-.427 1.363 1.772 1.363 12.076 0 8.814.084 10.333.572 10.333 1.205 0 1.381 1.514 1.381 11.888 0 9.922.032 10.378.739 10.378 1.154 0 1.214.579 1.214 11.658v10.422l.879.386c.841.369.883.613.987 5.71l.109 5.324 1.159.232c1.109.222 1.155.313 1.063 2.097-.091 1.773-.042 1.872.979 1.99.764.087 1.074.344 1.074.888 0 .457.394.915.977 1.136.537.205.976.63.976.946s.484.805 1.074 1.088c.593.283 1.129.895 1.196 1.366.097.674.425.878 1.563.973 1.052.087 1.545.357 1.826.998.382.87.469.879 8.259.879h7.872l.246-.976c.215-.857.456-.977 1.968-.977 1.483 0 1.74-.121 1.848-.869.069-.478.559-1.085 1.09-1.348.53-.264 1.076-.796 1.213-1.182.188-.53.665-.702 1.943-.702 1.484 0 1.723-.121 1.927-.977.197-.825.491-.995 1.896-1.097 1.347-.098 1.732-.303 2.026-1.075.271-.713.652-.953 1.516-.953.9 0 1.182-.194 1.279-.879.1-.701.438-.918 1.672-1.074 1.251-.158 1.591-.382 1.778-1.172.203-.858.438-.976 1.947-.976 1.507 0 1.743-.119 1.948-.977.194-.812.497-.996 1.793-1.093 1.168-.086 1.655-.332 1.938-.976.227-.518.796-.909 1.428-.982.735-.085 1.086-.378 1.171-.977.103-.72.411-.873 1.953-.973 1.545-.099 1.85-.252 1.953-.976.101-.709.415-.88 1.801-.98 1.357-.098 1.747-.301 2.037-1.063.197-.519.798-1.053 1.335-1.188.537-.134 1.082-.579 1.212-.987.166-.523.603-.744 1.479-.748 1.523-.008 2.085-.344 2.275-1.362.118-.626.507-.804 1.961-.898 1.554-.101 1.849-.256 2.055-1.075.193-.769.488-.956 1.507-.956.94 0 1.367-.228 1.653-.879.264-.603.784-.918 1.655-1.002.898-.086 1.27-.321 1.27-.8 0-1.1.757-1.545 2.282-1.341 1.32.176 1.464.095 1.902-1.071.417-1.108.609-1.234 1.581-1.039 1.236.247 1.653.046 2.282-1.095.237-.43.792-.835 1.233-.901.47-.07.902-.516 1.042-1.074.209-.834.46-.955 1.982-.955 1.52 0 1.774-.121 1.981-.948.426-1.696 2.902-1.553 2.902.167 0 .689.348.764 4.004.865 3.775.105 4.011.16 4.125.962.142.995 3.712 1.578 7.163 1.169 2.149-.255 3.849.211 3.849 1.054 0 .915.924 1.028 8.398 1.028 7.383 0 8.399.118 8.399.977 0 .276.278.609.618.739 1.032.396 33.757.275 33.757-.125 0-1.379 1.142-1.591 8.589-1.591 7.632 0 8.598-.113 8.598-1.004 0-.932 1.431-1.362 3.658-1.1 3.631.427 7.209-.131 7.354-1.147.114-.799.38-.863 4.418-1.066 2.363-.119 4.159-.251 3.99-.293-.169-.043-.119-.429.111-.858.37-.691.818-.782 3.878-.782 3.364 0 3.466-.027 3.705-.976.234-.933.376-.977 3.167-.977 2.632 0 2.922-.075 2.922-.758 0-1.111.685-1.382 3.494-1.387 2.36-.003 2.533-.064 2.756-.98.203-.83.47-.98 1.78-1.002 2.929-.05 3.734-.171 3.513-.529-.477-.771 1.026-1.594 2.911-1.594 1.671 0 1.913-.105 2.023-.879.106-.743.399-.897 1.902-.995 1.546-.1 1.831-.259 2.196-1.227.394-1.044.526-1.099 2.194-.911 1.637.185 1.784.128 1.905-.726.113-.801.375-.942 1.941-1.043 1.675-.109 1.829-.208 2.051-1.319.216-1.077.355-1.178 1.354-.978 1.749.35 2.793-.079 2.793-1.147 0-.855.157-.931 1.926-.931 1.7 0 1.94-.103 2.05-.879.105-.733.405-.899 1.804-1 1.345-.097 1.748-.304 2.028-1.041.193-.506.723-1.038 1.179-1.183.456-.144.971-.643 1.144-1.107.256-.687.63-.845 2.003-.845 1.479 0 1.718-.121 1.922-.976.164-.69.536-1.013 1.267-1.098.719-.085 1.072-.382 1.157-.977.1-.703.416-.876 1.781-.975 1.359-.098 1.661-.262 1.661-.899 0-.515.398-.918 1.172-1.188.715-.249 1.171-.682 1.171-1.11 0-.86.693-1.159 2.076-.894.863.165 1.049.058 1.049-.601 0-.559.408-.949 1.35-1.29.86-.311 1.391-.78 1.465-1.294.07-.493.457-.856.993-.932.537-.076.968-.48 1.108-1.037.126-.502.578-1.004 1.006-1.116.427-.112.871-.562.985-1.001.217-.827 1.408-1.432 2.046-1.037.202.124.423-.166.492-.644.093-.641.484-.943 1.482-1.147.747-.151 1.421-.467 1.499-.701.231-.692 3.101-3.544 3.568-3.544.236 0 .63-.439.874-.976.245-.537.609-.977.808-.977.425 0 5.762-5.402 5.762-5.832 0-.161.428-.487.95-.725.677-.309.986-.805 1.074-1.723.086-.892.396-1.409 1.003-1.676.536-.235.879-.728.879-1.262 0-.609.298-.951.977-1.121.606-.153.976-.523.976-.977 0-.447.366-.823.943-.968.543-.137 1.038-.616 1.168-1.133.123-.493.591-.992 1.039-1.109s.913-.591 1.034-1.053.635-.998 1.143-1.191c.758-.289.923-.63.923-1.916 0-1.333.141-1.6.954-1.804.581-.146 1.002-.569 1.075-1.082.075-.528.447-.888.999-.967.851-.121.941-.331 1.031-2.414.027-.612.371-1.12.922-1.362.483-.212.879-.66.879-.996 0-.834.78-1.548 1.692-1.548.652 0 .726-.208.55-1.527-.22-1.633.204-2.379 1.351-2.379.451 0 .704-.291.704-.807 0-1.137.704-2.318 1.38-2.318.393 0 .573-.427.573-1.36 0-1.125.168-1.402.976-1.605.537-.135.993-.534 1.013-.886l.097-1.794c.048-.882.292-1.207 1.039-1.386.849-.204.978-.451.989-1.898.013-1.62.536-2.38 1.647-2.394.316-.004.489-.614.489-1.731 0-2.218.3-2.962 1.195-2.962.611 0 .738-.371.837-2.442.104-2.192.206-2.454.995-2.566.75-.106.88-.363.884-1.758.008-2.347.37-3.39 1.178-3.39.72 0 1.49-2.668.999-3.462-.501-.811.279-2.852 1.228-3.213.896-.341.952-.529.878-2.997-.105-3.56-.111-3.538.888-3.68.833-.118.889-.339 1.074-4.226.18-3.786.263-4.132 1.074-4.488.85-.373.879-.562.879-5.736 0-5.679.346-7.497 1.355-7.11.532.204.598-1.844.598-18.562 0-16.243-.077-18.792-.572-18.792-1.083 0-1.381-1.516-1.381-7.015v-5.504l-.977-.372c-.951-.361-.976-.472-.976-4.249v-3.877l-1.13-.394c-1.121-.391-1.128-.413-.926-2.934.22-2.734-.088-4.731-.673-4.369-.539.333-1.693-1.646-1.402-2.405.474-1.235-.186-4.037-.95-4.037-.867 0-1.169-.759-1.169-2.935 0-1.464-.121-1.716-.879-1.823-.798-.114-.89-.367-.994-2.737-.103-2.354-.2-2.624-.976-2.734-.746-.106-.878-.4-.98-2.174-.098-1.708-.241-2.05-.856-2.05-.998 0-1.37-.683-1.37-2.517 0-1.319-.14-1.575-.976-1.78-.797-.195-.983-.487-1.011-1.585-.054-2.129-.111-2.26-1.04-2.392-.733-.104-.899-.404-1-1.804-.098-1.363-.3-1.746-1.074-2.041-.648-.246-.953-.665-.953-1.306 0-.681-.272-1.012-.977-1.189-.86-.216-.977-.454-.977-1.995 0-1.452-.125-1.751-.733-1.751-.997 0-1.748-.993-1.492-1.972.155-.594-.032-.897-.714-1.157-.642-.243-1.004-.775-1.185-1.736-.19-1.013-.46-1.385-1.007-1.385-.431 0-.899-.399-1.106-.943-.197-.519-.72-1.058-1.162-1.198-.652-.207-.804-.582-.804-1.987 0-1.477-.116-1.731-.789-1.731-.454 0-.971-.398-1.215-.934-.234-.513-.846-1.124-1.359-1.358-.514-.234-.934-.698-.934-1.03s-.439-.771-.976-.975c-.686-.261-.977-.665-.977-1.358 0-.725-.206-.986-.781-.986-.43 0-.795-.219-.811-.488-.087-1.417-.412-2.098-1.316-2.756-.549-.4-.998-.98-.998-1.289s-.42-.753-.933-.987c-.514-.234-1.125-.845-1.359-1.359-.234-.513-.697-.933-1.03-.933-.332 0-.771-.44-.975-.977s-.644-.976-.976-.976c-.333 0-.773-.44-.977-.977s-.643-.976-.975-.976-.803-.437-1.046-.97-.74-1.063-1.104-1.179-.861-.646-1.104-1.179-.714-.969-1.046-.969-.771-.44-.975-.977-.6-.976-.88-.976c-.28-.001-.971-.528-1.537-1.172-.632-.721-1.408-1.172-2.014-1.172-.642 0-1.071-.272-1.233-.782-.137-.43-.591-.781-1.011-.781-.434 0-.954-.418-1.205-.969-.243-.533-.777-1.075-1.186-1.205s-.906-.661-1.103-1.179c-.197-.519-.63-.944-.963-.944-.332 0-.805-.442-1.051-.982-.326-.716-.854-1.047-1.945-1.222-1.351-.216-1.684-.519-1.543-1.409.025-.161-.397-.293-.939-.293-.666 0-1.126-.31-1.421-.957-.24-.526-.939-1.132-1.554-1.347-.726-.253-1.118-.663-1.118-1.169 0-.637-.302-.801-1.66-.899-1.38-.1-1.681-.268-1.785-.999-.078-.549-.396-.879-.847-.879-1.24 0-1.958-.445-1.958-1.214 0-.603-.29-.739-1.572-.739-1.439 0-1.593-.101-1.81-1.186-.227-1.134-.314-1.181-2.015-1.074-1.614.101-1.8.022-2.016-.865-.182-.751-.55-1.022-1.588-1.172-1.03-.149-1.38-.404-1.476-1.074-.105-.742-.365-.879-1.668-.879-1.259 0-1.624-.176-1.979-.956-.326-.715-.793-.986-1.848-1.074-1.022-.086-1.517-.361-1.797-.997-.284-.648-.714-.879-1.634-.879-1.68 0-3.253-.637-3.253-1.316 0-.73-.857-1.028-2.955-1.028-1.498 0-1.749-.123-1.958-.957-.211-.84-.488-.972-2.254-1.075-1.748-.101-2.03-.232-2.138-.995-.116-.815-.322-.879-2.832-.879-2.723 0-2.99-.161-2.753-1.66.025-.162-.845-.293-1.933-.293-2.159 0-3.49-.511-3.49-1.338 0-.554-2.48-1.209-3.108-.821-.866.535-3.489-.272-3.609-1.111-.107-.751-.383-.838-2.853-.893-1.504-.033-2.935-.077-3.18-.097-.246-.021-.555-.471-.688-1-.235-.936-.356-.966-4.242-1.074-3.795-.106-4.006-.156-4.123-.979-.119-.837-.295-.871-5.078-.977-4.713-.103-4.974-.152-5.34-.988-.377-.859-.527-.879-6.69-.879-7.117 0-8.772-.215-9.023-1.174-.283-1.081-28.616-1.678-38.394-.809m14.963 97.507c3.712 1.699 5.525 6.118 4.004 9.759-.311.744-.75 2.679-.975 4.301-.226 1.622-.679 3.468-1.008 4.103-.328.635-.761 2.448-.961 4.028-.2 1.581-.723 3.785-1.162 4.899-1.05 2.662-1.021 2.919.471 4.318l1.27 1.19 12.361.002 12.362.001 1.151-1.31c.894-1.018 1.205-1.828 1.393-3.628.133-1.275.58-3.102.994-4.061.413-.959.867-2.838 1.009-4.176.142-1.339.583-3.185.979-4.102s.838-2.723.981-4.012c.144-1.289.593-3.222.999-4.297.406-1.074.836-2.392.955-2.929.761-3.432 3.938-4.732 12.128-4.963 12.195-.344 17.002 3.626 13.914 11.491-.403 1.029-.86 3.013-1.015 4.409-.154 1.397-.606 3.29-1.005 4.207-.398.918-.84 2.763-.983 4.102-.142 1.338-.59 3.203-.995 4.143-.98 2.275-.933 2.841.338 4.047l1.074 1.02 8.661.128c9.818.144 9.468.031 11.902 3.816l1.117 1.737-.019 7.248-.018 7.248-1.277 2.318c-1.954 3.548-2.483 3.669-16.309 3.706-13.893.038-13.547-.116-14.617 6.493-.29 1.79-.786 3.755-1.104 4.368-.317.614-.766 2.478-.997 4.143-.232 1.665-.685 3.537-1.007 4.16s-.759 2.33-.971 3.792c-.211 1.463-.75 3.614-1.198 4.779-1.041 2.712-1.278 8.443-.374 9.019.329.21 4.569.376 9.648.38l9.062.006 1.094.967c3.579 3.166 3.634 3.353 3.634 12.507v7.971l-1.158 1.68c-.637.923-1.63 2.119-2.207 2.656l-1.048.976-13.205.196c-14.729.218-13.835.012-14.448 3.33-.236 1.275-.677 2.798-.98 3.384s-.739 2.418-.969 4.071-.733 3.813-1.117 4.801-.823 2.928-.975 4.311-.535 3.013-.85 3.623-.758 2.107-.983 3.326c-.336 1.818-.704 2.504-2.036 3.799l-1.626 1.581-9.537.118-9.537.117-2.078-2.233c-2.824-3.035-3.247-6.359-1.368-10.761.397-.932.848-2.814 1.002-4.184.153-1.37.599-3.303.99-4.297.997-2.532 1.741-8.566 1.224-9.926l-.403-1.06h-13.243c-14.852 0-13.879-.206-14.5 3.066-.209 1.106-.629 2.495-.932 3.086-.302.591-.68 2.217-.838 3.613-.159 1.397-.605 3.348-.993 4.336s-.893 3.148-1.123 4.801-.692 3.535-1.027 4.182c-.334.647-.715 2.077-.845 3.177-.183 1.547-.548 2.344-1.61 3.52-2.345 2.595-2.557 2.641-12.217 2.641h-8.676l-2.281-2.282-2.281-2.281.008-3.48c.007-2.636.199-3.9.792-5.208.431-.95.959-2.971 1.172-4.492s.719-3.644 1.124-4.718c1.183-3.135 1.648-7.115 1.011-8.641l-.534-1.277-8.347-.119-8.347-.12-1.477-1.435c-2.195-2.133-2.59-3.937-2.59-11.837 0-8.453.394-10.04 2.994-12.066l1.822-1.419h10.815c13.05 0 13.059-.002 13.691-3.059.252-1.218.789-3.056 1.193-4.085.404-1.028.741-2.434.748-3.125.007-.69.372-2.222.81-3.403.439-1.182.973-3.291 1.187-4.688.214-1.396.714-3.277 1.112-4.18.398-.902.844-2.66.992-3.906.147-1.246.581-2.992.965-3.88 2.524-5.85 1.323-6.784-8.721-6.784-7.455 0-9.402-.381-11.054-2.163-1.77-1.909-1.886-2.461-2.033-9.608-.179-8.681.168-10.584 2.308-12.675l1.567-1.53 12.189-.114 12.189-.113 1.237-1.338c1.041-1.126 1.28-1.756 1.509-3.988.15-1.458.597-3.441.994-4.408.396-.967.903-3.128 1.125-4.802.223-1.673.655-3.526.96-4.117.306-.591.748-2.473.983-4.183.698-5.082 2.392-8.441 4.86-9.638 3.135-1.52 15.866-1.584 19.115-.096m-7.637 59.727c-.788.987-1.175 2.068-1.459 4.073-.213 1.501-.716 3.577-1.119 4.613-.402 1.036-.847 2.91-.989 4.163-.142 1.254-.529 2.803-.859 3.442-.331.64-.845 2.547-1.142 4.24-.298 1.692-.797 3.571-1.109 4.175-.313.604-.696 2.153-.851 3.442-.156 1.289-.525 2.936-.822 3.661-.735 1.797-.677 2.645.243 3.565.97.971 27.395 1.247 27.995.293.768-1.221 1.807-4.668 2.284-7.579.287-1.752.803-3.731 1.148-4.397.344-.666.776-2.41.96-3.876.185-1.465.623-3.222.976-3.903.352-.681.802-2.513 1-4.072.197-1.558.7-3.624 1.117-4.591 1.239-2.873 1.438-6.281.441-7.549l-.822-1.044h-25.92z" fill="#047bfc"/></g></svg>