<svg preserveAspectRatio="xMidYMid" version="1.1" viewBox="0 0 256 256" xmlns="http://www.w3.org/2000/svg"><defs><linearGradient id="a" x1="50%" x2="50%" y2="100%"><stop stop-color="#24ADFF" offset="0"/><stop stop-color="#7B71FF" offset="1"/></linearGradient></defs><circle cx="128" cy="128" r="108.22" fill="#fff" fill-rule="evenodd"/><path d="m128 0c70.692 0 128 57.308 128 128s-57.308 128-128 128-128-57.308-128-128 57.308-128 128-128zm-6.3205 118.22-45.892 40.979c-4.7274 3.7198-7.8292 9.8596-7.8292 16.767 0 11.278 8.2737 20.508 18.386 20.508h86.247c10.112 0 18.386-9.2295 18.386-20.508 0-11.281-8.2737-20.508-18.386-20.508h-65.291c-0.968 0-1.5799-1.1598-1.108-2.1034l16.833-33.704c0.61489-0.98322-0.49313-2.1613-1.3455-1.4307zm50.911-58.859h-86.247c-10.112 0-18.386 9.2265-18.386 20.508 0 11.278 8.2737 20.508 18.386 20.508h65.291c0.968 0 1.5799 1.1598 1.108 2.1034l-16.833 33.704c-0.61489 0.98322 0.49313 2.1613 1.3455 1.4307l45.892-40.985c4.7274-3.7228 7.8292-9.8596 7.8292-16.767 0-11.278-8.2737-20.508-18.386-20.502z" fill="url(#a)"/></svg>
