<?xml version="1.0" encoding="UTF-8"?>
<svg version="1.1" xmlns="http://www.w3.org/2000/svg" width="257" height="257">
<path d="M0 0 C1.00740234 0.79277344 1.00740234 0.79277344 2.03515625 1.6015625 C2.67582031 2.06820313 3.31648438 2.53484375 3.9765625 3.015625 C23.27061684 18.21700114 38.14194058 48.96250651 43.03515625 72.6015625 C43.2106877 75.96006426 42.90362366 78.50009164 40.75390625 81.2265625 C38.65230249 82.90784551 37.25763168 83.18051127 34.59765625 83.4765625 C33.83582031 83.57710938 33.07398437 83.67765625 32.2890625 83.78125 C29.31451882 83.54411134 28.23011335 82.59885655 26.03515625 80.6015625 C25.00537109 78.359375 25.00537109 78.359375 24.24609375 75.7265625 C23.80160889 74.26259033 23.80160889 74.26259033 23.34814453 72.76904297 C22.88384033 71.20114014 22.88384033 71.20114014 22.41015625 69.6015625 C17.01683227 52.50946547 9.04680539 37.72238316 -1.96484375 23.6015625 C-2.37154297 23.07288574 -2.77824219 22.54420898 -3.19726562 21.99951172 C-8.36997094 15.48536222 -15.73520979 11.02046491 -23.96484375 9.6015625 C-34.31071771 8.64747614 -44.10860355 10.56264282 -52.46484375 17.05078125 C-59.08666066 23.89677426 -60.35074258 32.12689734 -60.23828125 41.28125 C-59.2279129 53.55000853 -53.74200805 63.31731628 -44.90234375 71.6640625 C-34.99418073 79.98223315 -23.81441777 85.84462921 -12.25585938 91.47558594 C-7.86250705 93.63480812 -3.50296357 95.85767991 0.84765625 98.1015625 C1.75555908 98.56506104 2.66346191 99.02855957 3.59887695 99.50610352 C8.53550881 102.08388566 12.61550818 104.73944114 16.78515625 108.4140625 C20.53795361 111.30488921 22.9370363 111.94317686 27.67480469 111.42358398 C29.84807121 111.09196222 32.01072272 110.71729912 34.17578125 110.3359375 C39.63096833 109.40787663 45.01170753 109.337912 50.53515625 109.3515625 C51.51508545 109.34753418 52.49501465 109.34350586 53.50463867 109.33935547 C58.7294151 109.37501947 63.63967112 109.70236555 68.74438477 110.84326172 C75.83449172 112.11502773 75.83449172 112.11502773 82.32128906 109.72094727 C83.41013016 108.86458719 84.48620754 107.99181537 85.55078125 107.10546875 C92.80372857 101.51205703 100.42135221 97.70385465 108.72265625 93.9140625 C121.49179851 88.02885632 133.09368695 81.55184529 144.03515625 72.6015625 C144.73640625 72.05886719 145.43765625 71.51617187 146.16015625 70.95703125 C155.4855971 63.4154342 160.09429529 53.45262483 161.3515625 41.625 C161.69051335 33.16216275 160.0744932 25.48515972 154.78515625 18.7265625 C145.42958907 11.49726059 137.02985131 8.40209299 125.03515625 9.6015625 C109.47134699 13.24415616 101.64251776 24.10605353 93.55566406 37.03442383 C86.31577549 48.91419836 80.85119088 60.90896684 77.16333008 74.34472656 C75.5095524 80.09835687 75.5095524 80.09835687 73.10546875 82.6484375 C69.67989851 84.22549248 66.50928741 83.70696787 63.03515625 82.6015625 C59.97265625 80.5390625 59.97265625 80.5390625 58.03515625 77.6015625 C58.38272759 71.79836247 59.73936214 66.58853205 61.59765625 61.1015625 C61.8594165 60.32474121 62.12117676 59.54791992 62.39086914 58.74755859 C65.21901172 50.6504688 68.93151606 43.11809069 73.03515625 35.6015625 C73.61265625 34.53164063 74.19015625 33.46171875 74.78515625 32.359375 C78.93404706 24.96436128 83.77838852 18.2456639 89.03515625 11.6015625 C89.59847656 10.8590625 90.16179687 10.1165625 90.7421875 9.3515625 C98.33222181 -0.10366272 109.10059837 -6.40934452 121.03515625 -8.3984375 C137.36181798 -9.94024704 151.81510947 -7.75837801 165.03515625 2.6015625 C172.68430828 9.5698241 178.30285639 19.6093794 179.25610352 30.01293945 C180.06345092 48.46194184 177.40501076 64.01083199 165.09765625 78.5390625 C150.96188965 93.43125808 133.84436497 102.59387108 115.39208984 111.06494141 C110.00699277 113.55649179 104.98236725 116.32299879 100.03515625 119.6015625 C103.34124198 122.29628947 106.72012408 124.79496705 110.22265625 127.2265625 C126.32909265 138.93245167 137.58664081 154.72453076 141.56640625 174.41015625 C143.36822614 186.67754665 141.60011729 197.74845783 134.82421875 208.24609375 C129.47218339 215.29255079 122.81685998 220.77204089 114.03515625 222.6015625 C102.03386985 223.95382012 92.28020595 222.66209084 82.41015625 215.3515625 C80.9356667 214.12066174 79.47692482 212.87063283 78.03515625 211.6015625 C77.35582031 211.02792969 76.67648438 210.45429688 75.9765625 209.86328125 C62.85779236 197.92085307 57.12555465 180.11352719 56.09423828 162.82470703 C55.76897581 150.58569859 58.56759799 139.53667902 64.03515625 128.6015625 C54.7978559 127.42857198 46.2724566 127.42857198 37.03515625 128.6015625 C37.54175781 129.76171875 37.54175781 129.76171875 38.05859375 130.9453125 C38.50460938 131.986875 38.950625 133.0284375 39.41015625 134.1015625 C39.85101563 135.1225 40.291875 136.1434375 40.74609375 137.1953125 C47.20160937 154.25352347 45.6614103 174.39209647 38.59765625 190.9765625 C32.23008232 203.95661704 21.47815786 215.93712244 7.91015625 221.5390625 C-0.93104928 224.05166088 -12.33709626 224.07968271 -20.6640625 220.03515625 C-30.52610158 213.89021849 -35.86570714 206.29441732 -39.96484375 195.6015625 C-43.57331384 179.00260009 -39.10539186 162.55277759 -30.21875 148.41699219 C-26.43153721 142.93379237 -21.73862811 138.22206021 -16.96484375 133.6015625 C-16.24039063 132.89128906 -15.5159375 132.18101562 -14.76953125 131.44921875 C-9.98812935 127.02593804 -4.63469174 123.77342418 1.03515625 120.6015625 C-1.63257468 117.42154991 -5.04665125 115.91776188 -8.71484375 114.1640625 C-10.15434914 113.45585484 -11.59310586 112.7461241 -13.03125 112.03515625 C-13.8164502 111.64827637 -14.60165039 111.26139648 -15.41064453 110.86279297 C-42.6782175 97.39841886 -42.6782175 97.39841886 -53.96484375 87.6015625 C-55.32802734 86.47814453 -55.32802734 86.47814453 -56.71875 85.33203125 C-68.03819739 75.69953578 -76.85322357 62.22121526 -78.18579102 47.09326172 C-78.89829471 30.58919529 -77.58767524 17.27570539 -65.96484375 4.6015625 C-48.29540809 -11.11340644 -19.60499088 -14.44578276 0 0 Z M83.03515625 132.6015625 C74.67951275 143.55313408 72.63986201 155.06984104 74.03515625 168.6015625 C76.20060656 180.97556425 81.92375036 192.78451176 92.03515625 200.6015625 C97.97898777 204.43094903 102.95212175 206.64660038 110.03515625 205.6015625 C116.17782208 203.05976974 119.58602165 199.23823548 123.03515625 193.6015625 C126.08986264 184.43744332 124.41340832 174.31149331 120.6484375 165.66796875 C112.31646302 149.83116496 99.54472495 139.16462561 83.03515625 132.6015625 Z M-7.44140625 148.94140625 C-17.79418098 159.85508983 -23.52612784 171.78855909 -23.2734375 186.96484375 C-22.69916287 193.73256127 -20.37722319 197.549023 -15.40234375 202.0390625 C-11.62483179 205.12669477 -8.19734996 206.02784702 -3.2734375 205.9375 C6.22040253 204.55599367 13.19983036 197.70645228 18.72265625 190.35546875 C26.8260781 178.01800898 29.17201589 163.29728777 26.3046875 148.9453125 C24.52871501 142.62430019 22.32488958 137.58692826 18.03515625 132.6015625 C9.42736485 132.6015625 -1.72049089 143.25785679 -7.44140625 148.94140625 Z " fill="#FD682C" transform="translate(77.96484375,21.3984375)"/>
</svg>
