<svg xmlns="http://www.w3.org/2000/svg" fill="#ff692d" viewBox="0 0 257 257" class="fill-orange-9">
    <path
        d="M184.058 231c-10.37 0-20.66-4.665-29.216-13.305-12.701-12.455-19.747-29.614-19.853-48.302-.066-12.428 3.152-24.298 8.86-33.39a98 98 0 0 0-14.86-1.116h-.993c-5.232 0-10.185.385-14.847 1.103 5.682 9.065 8.913 20.948 8.847 33.389-.092 18.688-7.152 35.835-19.853 48.303-9.191 9.277-20.396 13.983-31.534 13.225-9.748-.651-18.555-5.569-24.793-13.81-10.264-13.133-10.98-32.166-1.92-50.908 6.7-13.85 19.429-28.258 38.248-37.589-6.82-4.719-13.429-7.776-20.647-11.099-11.893-5.489-25.363-11.71-42.156-26.557-21.482-19.1-25.853-54.483-9.152-74.208C19.142 6.116 33.472-.118 48.372.002c15.403.146 29.852 7.07 39.653 19.034 2.08 2.365 23.005 26.849 32.077 62.95.954 3.814-1.417 7.656-5.258 8.427l-3.827.77c-2.98.599-5.867-1.289-6.583-4.253C96.21 53.315 75.88 30.094 75.668 29.855l-.238-.279c-6.808-8.36-16.476-13.026-27.204-13.12-10.079-.079-19.68 3.989-25.534 10.914-10.86 12.84-7.113 38.213 7.535 51.24 14.966 13.238 26.754 18.674 38.144 23.938 10.105 4.665 20.502 9.464 31.865 19.326 8.397-2.193 17.655-3.442 27.76-3.442h.993c10.119 0 19.363 1.249 27.76 3.442 11.337-9.849 21.747-14.647 31.865-19.326 11.39-5.264 23.178-10.7 38.157-23.952 14.648-13.013 18.383-38.387 7.523-51.226-5.788-6.859-15.192-10.913-25.204-10.913h-.331c-10.741.093-20.396 4.758-27.204 13.119l-.238.28c-.212.238-20.542 23.46-28.753 57.06-.729 2.965-3.616 4.839-6.583 4.254l-3.827-.77c-3.841-.772-6.225-4.613-5.258-8.428 9.085-36.1 29.998-60.584 32.077-62.95 9.814-11.95 24.25-18.874 39.653-19.02 14.9-.107 29.23 6.114 38.197 16.734 16.687 19.738 12.317 55.108-9.179 74.208-16.807 14.86-30.276 21.081-42.169 26.571-7.218 3.336-13.84 6.38-20.648 11.098 18.82 9.318 31.561 23.739 38.249 37.589 9.059 18.742 8.344 37.776-1.92 50.908-6.238 8.254-15.045 13.159-24.793 13.81-.768.053-1.55.08-2.318.08zm-23.044-90.491c-6.119 6.473-9.669 17.147-9.602 28.79.039 8.268 2.039 24.019 14.952 36.646l.093.093c5.801 5.875 12.516 8.879 18.833 8.44 5.033-.332 9.483-2.884 12.86-7.377l.106-.133c6.238-7.948 6.278-20.828.093-33.601-6.066-12.534-18.449-25.653-37.322-32.871zm-65.016 0c-18.873 7.218-31.256 20.337-37.322 32.871-6.185 12.773-6.145 25.653.093 33.602l.105.133c3.378 4.492 7.828 7.044 12.86 7.377 6.331.425 13.033-2.566 18.834-8.441l.093-.093c12.899-12.627 14.899-28.378 14.952-36.645.066-11.697-3.523-22.41-9.602-28.79z"></path>
</svg>