<svg width="431" height="431" viewBox="0 0 431 431" fill="none" xmlns="http://www.w3.org/2000/svg">
<g clip-path="url(#clip0_3697_31895)">
<path d="M140.645 81.4562C154.662 74.1018 170.288 70.331 186.125 70.4816C219.698 70.4816 241.085 85.0479 250.285 114.18C260.881 101.722 273.6 91.2277 287.855 83.1822C302.608 74.7152 319.055 70.4816 337.195 70.4816C362.375 70.4816 380.375 78.1572 391.195 93.5082C402.015 108.859 407.418 131.906 407.405 162.648V336.245C407.405 340.585 408.015 343.528 409.235 345.104C410.455 346.681 413.095 348.098 417.155 349.235L431.405 353.964V364.589H346.935C339.601 364.589 334.325 361.832 331.105 356.318C327.885 350.805 326.258 342.537 326.225 331.516V152.022C326.225 134.304 324.261 121.706 320.335 114.23C316.408 106.754 309.845 103.013 300.645 103.006C286.025 103.006 270.458 111.653 253.945 128.946C255.673 140.096 256.496 151.366 256.405 162.648V336.245C256.405 340.585 257.015 343.528 258.235 345.104C259.455 346.681 262.095 348.098 266.155 349.235L280.365 353.964V364.589H195.875C188.541 364.589 183.261 361.832 180.035 356.318C176.808 350.805 175.181 342.537 175.155 331.516V152.022C175.155 134.304 173.195 121.706 169.275 114.23C165.355 106.754 158.788 103.013 149.575 103.006C135.221 103.006 120.468 110.881 105.315 126.631V336.245C105.315 340.585 105.915 343.628 107.135 345.394C108.355 347.16 110.855 348.646 114.655 349.824L128.455 353.964V364.589H0.134766V353.964L14.3448 349.235C18.4048 348.058 21.0448 346.681 22.2648 345.104C23.4848 343.528 24.0948 340.585 24.0948 336.245V113.053C24.0948 108.723 23.4848 105.77 22.2648 104.193C21.0448 102.617 18.4048 101.237 14.3448 100.053L0.134766 95.334V84.7086L97.5948 66.9897H104.495V108.324C115.04 97.5115 127.243 88.4422 140.645 81.4562Z" fill="black"/>
</g>
<defs>
<clipPath id="clip0_3697_31895">
<rect width="431" height="431" fill="white"/>
</clipPath>
</defs>
</svg>
