<svg xmlns="http://www.w3.org/2000/svg" viewBox="0 0 431.27 431.27"><path d="M140.51 80.99a95.75 95.75 0 0 1 45.48-11q50.36 0 64.16 43.8a139.1 139.1 0 0 1 37.57-31.07q22.13-12.73 49.34-12.73 37.77 0 54 23.08t16.21 69.3v174c0 4.35.61 7.3 1.83 8.88s3.86 3 7.92 4.14l14.25 4.74v10.65H346.8q-11 0-15.83-8.29t-4.88-24.86V151.72q0-26.64-5.89-37.88t-19.69-11.25q-21.93 0-46.7 26a210 210 0 0 1 2.46 33.78v174c0 4.35.61 7.3 1.83 8.88s3.86 3 7.92 4.14l14.21 4.74v10.65h-84.49q-11 0-15.84-8.29t-4.88-24.86V151.72q0-26.64-5.88-37.88t-19.7-11.25q-21.53 0-44.26 23.68v210.1c0 4.35.6 7.4 1.82 9.17s3.72 3.26 7.52 4.44l13.8 4.15v10.65H0v-10.65l14.21-4.74q6.09-1.77 7.92-4.14c1.22-1.58 1.83-4.53 1.83-8.88V112.66q0-6.51-1.83-8.88t-7.92-4.15L0 94.9V84.25l97.46-17.76h6.9v41.43a142.5 142.5 0 0 1 36.15-26.93"/></svg>