<svg width="512" height="512" fill="none" xmlns="http://www.w3.org/2000/svg"><path d="M0 128c0-44.804 0-67.206 8.72-84.32A80 80 0 0 1 43.68 8.72C60.795 0 83.197 0 128 0h256c44.804 0 67.206 0 84.319 8.72a80.002 80.002 0 0 1 34.962 34.96C512 60.795 512 83.197 512 128v256c0 44.804 0 67.206-8.719 84.319a80.004 80.004 0 0 1-34.962 34.962C451.206 512 428.804 512 384 512H128c-44.804 0-67.206 0-84.32-8.719a80.002 80.002 0 0 1-34.96-34.962C0 451.206 0 428.804 0 384V128z" fill="url(#a)"/><path d="M149 92h62.129v131.085h89.742V92H363v328h-62.129V277.944h-89.742V420H149V92z" fill="#fff"/><defs><linearGradient id="a" x1="256" y1="0" x2="256" y2="512" gradientUnits="userSpaceOnUse"><stop stop-color="#FF960E"/><stop offset="1" stop-color="#F35C00"/></linearGradient></defs></svg>