<svg height="80" viewBox="0 0 80 80" width="80" xmlns="http://www.w3.org/2000/svg"><g fill="none" fill-rule="evenodd"><g fill="#e01e5a" transform="translate(0 42)"><path d="m17.0033898 8.50169492c0 4.57288138-3.7355932 8.30847458-8.30847455 8.30847458s-8.30847457-3.7355932-8.30847457-8.30847458c0-4.57288136 3.73559322-8.30847458 8.30847457-8.30847458h8.30847455z"/><path d="m21.1898305 8.50169492c0-4.57288136 3.7355932-8.30847458 8.3084746-8.30847458 4.5728813 0 8.3084746 3.73559322 8.3084746 8.30847458v20.80338978c0 4.5728814-3.7355933 8.3084746-8.3084746 8.3084746-4.5728814 0-8.3084746-3.7355932-8.3084746-8.3084746z"/></g><g fill="#36c5f0"><path d="m29.4983051 17.0033898c-4.5728814 0-8.3084746-3.7355932-8.3084746-8.30847455s3.7355932-8.30847457 8.3084746-8.30847457c4.5728813 0 8.3084746 3.73559322 8.3084746 8.30847457v8.30847455z"/><path d="m29.4983051 21.1898305c4.5728813 0 8.3084746 3.7355932 8.3084746 8.3084746 0 4.5728813-3.7355933 8.3084746-8.3084746 8.3084746h-20.80338985c-4.57288135 0-8.30847457-3.7355933-8.30847457-8.3084746 0-4.5728814 3.73559322-8.3084746 8.30847457-8.3084746z"/></g><g fill="#2eb67d" transform="translate(42)"><path d="m20.9966102 29.4983051c0-4.5728814 3.7355932-8.3084746 8.3084745-8.3084746 4.5728814 0 8.3084746 3.7355932 8.3084746 8.3084746 0 4.5728813-3.7355932 8.3084746-8.3084746 8.3084746h-8.3084745z"/><path d="m16.8101695 29.4983051c0 4.5728813-3.7355932 8.3084746-8.30847458 8.3084746-4.57288136 0-8.30847458-3.7355933-8.30847458-8.3084746v-20.80338985c0-4.57288135 3.73559322-8.30847457 8.30847458-8.30847457 4.57288138 0 8.30847458 3.73559322 8.30847458 8.30847457z"/></g><g fill="#ecb22e" transform="translate(42 42)"><path d="m8.50169492 20.9966102c4.57288138 0 8.30847458 3.7355932 8.30847458 8.3084745 0 4.5728814-3.7355932 8.3084746-8.30847458 8.3084746-4.57288136 0-8.30847458-3.7355932-8.30847458-8.3084746v-8.3084745z"/><path d="m8.50169492 16.8101695c-4.57288136 0-8.30847458-3.7355932-8.30847458-8.30847458 0-4.57288136 3.73559322-8.30847458 8.30847458-8.30847458h20.80338978c4.5728814 0 8.3084746 3.73559322 8.3084746 8.30847458 0 4.57288138-3.7355932 8.30847458-8.3084746 8.30847458z"/></g></g></svg>