<svg height="80" width="80" xmlns="http://www.w3.org/2000/svg"><g fill="none" fill-rule="evenodd"><g fill="#e01e5a"><path d="M17.003 50.502c0 4.573-3.735 8.308-8.308 8.308S.386 55.075.386 50.502s3.736-8.309 8.309-8.309h8.308zM21.19 50.502c0-4.573 3.735-8.309 8.308-8.309s8.309 3.736 8.309 8.309v20.803c0 4.573-3.736 8.309-8.309 8.309-4.573 0-8.308-3.736-8.308-8.309z"/></g><g fill="#36c5f0"><path d="M29.498 17.003c-4.573 0-8.308-3.735-8.308-8.308S24.925.386 29.498.386s8.309 3.736 8.309 8.309v8.308zM29.498 21.19c4.573 0 8.309 3.735 8.309 8.308s-3.736 8.309-8.309 8.309H8.695c-4.573 0-8.309-3.736-8.309-8.309 0-4.573 3.736-8.308 8.309-8.308z"/></g><g fill="#2eb67d"><path d="M62.997 29.498c0-4.573 3.735-8.308 8.308-8.308s8.309 3.735 8.309 8.308-3.736 8.309-8.309 8.309h-8.308zM58.81 29.498c0 4.573-3.735 8.309-8.308 8.309s-8.309-3.736-8.309-8.309V8.695c0-4.573 3.736-8.309 8.309-8.309 4.573 0 8.308 3.736 8.308 8.309z"/></g><g fill="#ecb22e"><path d="M50.502 62.997c4.573 0 8.308 3.735 8.308 8.308s-3.735 8.309-8.308 8.309-8.309-3.736-8.309-8.309v-8.308zM50.502 58.81c-4.573 0-8.309-3.735-8.309-8.308s3.736-8.309 8.309-8.309h20.803c4.573 0 8.309 3.736 8.309 8.309 0 4.573-3.736 8.308-8.309 8.308z"/></g></g></svg>