<?xml version="1.0" encoding="UTF-8"?>
<svg width="80px" height="80px" viewBox="0 0 80 80" version="1.1" xmlns="http://www.w3.org/2000/svg" xmlns:xlink="http://www.w3.org/1999/xlink">
    <!-- Generator: Sketch 52.6 (67491) - http://www.bohemiancoding.com/sketch -->
    <title>Service/Slack</title>
    <desc>Created with Sketch.</desc>
    <g id="Service/Slack" stroke="none" stroke-width="1" fill="none" fill-rule="evenodd">
        <g id="Slack_Mark">
            <g id="Group" transform="translate(0.000000, 42.000000)" fill="#E01E5A">
                <path d="M17.0033898,8.50169492 C17.0033898,13.0745763 13.2677966,16.8101695 8.69491525,16.8101695 C4.1220339,16.8101695 0.386440678,13.0745763 0.386440678,8.50169492 C0.386440678,3.92881356 4.1220339,0.193220339 8.69491525,0.193220339 L17.0033898,0.193220339 L17.0033898,8.50169492 Z" id="Path"></path>
                <path d="M21.1898305,8.50169492 C21.1898305,3.92881356 24.9254237,0.193220339 29.4983051,0.193220339 C34.0711864,0.193220339 37.8067797,3.92881356 37.8067797,8.50169492 L37.8067797,29.3050847 C37.8067797,33.8779661 34.0711864,37.6135593 29.4983051,37.6135593 C24.9254237,37.6135593 21.1898305,33.8779661 21.1898305,29.3050847 L21.1898305,8.50169492 Z" id="Path"></path>
            </g>
            <g id="Group" fill="#36C5F0">
                <path d="M29.4983051,17.0033898 C24.9254237,17.0033898 21.1898305,13.2677966 21.1898305,8.69491525 C21.1898305,4.1220339 24.9254237,0.386440678 29.4983051,0.386440678 C34.0711864,0.386440678 37.8067797,4.1220339 37.8067797,8.69491525 L37.8067797,17.0033898 L29.4983051,17.0033898 Z" id="Path"></path>
                <path d="M29.4983051,21.1898305 C34.0711864,21.1898305 37.8067797,24.9254237 37.8067797,29.4983051 C37.8067797,34.0711864 34.0711864,37.8067797 29.4983051,37.8067797 L8.69491525,37.8067797 C4.1220339,37.8067797 0.386440678,34.0711864 0.386440678,29.4983051 C0.386440678,24.9254237 4.1220339,21.1898305 8.69491525,21.1898305 L29.4983051,21.1898305 Z" id="Path"></path>
            </g>
            <g id="Group" transform="translate(42.000000, 0.000000)" fill="#2EB67D">
                <path d="M20.9966102,29.4983051 C20.9966102,24.9254237 24.7322034,21.1898305 29.3050847,21.1898305 C33.8779661,21.1898305 37.6135593,24.9254237 37.6135593,29.4983051 C37.6135593,34.0711864 33.8779661,37.8067797 29.3050847,37.8067797 L20.9966102,37.8067797 L20.9966102,29.4983051 Z" id="Path"></path>
                <path d="M16.8101695,29.4983051 C16.8101695,34.0711864 13.0745763,37.8067797 8.50169492,37.8067797 C3.92881356,37.8067797 0.193220339,34.0711864 0.193220339,29.4983051 L0.193220339,8.69491525 C0.193220339,4.1220339 3.92881356,0.386440678 8.50169492,0.386440678 C13.0745763,0.386440678 16.8101695,4.1220339 16.8101695,8.69491525 L16.8101695,29.4983051 Z" id="Path"></path>
            </g>
            <g id="Group" transform="translate(42.000000, 42.000000)" fill="#ECB22E">
                <path d="M8.50169492,20.9966102 C13.0745763,20.9966102 16.8101695,24.7322034 16.8101695,29.3050847 C16.8101695,33.8779661 13.0745763,37.6135593 8.50169492,37.6135593 C3.92881356,37.6135593 0.193220339,33.8779661 0.193220339,29.3050847 L0.193220339,20.9966102 L8.50169492,20.9966102 Z" id="Path"></path>
                <path d="M8.50169492,16.8101695 C3.92881356,16.8101695 0.193220339,13.0745763 0.193220339,8.50169492 C0.193220339,3.92881356 3.92881356,0.193220339 8.50169492,0.193220339 L29.3050847,0.193220339 C33.8779661,0.193220339 37.6135593,3.92881356 37.6135593,8.50169492 C37.6135593,13.0745763 33.8779661,16.8101695 29.3050847,16.8101695 L8.50169492,16.8101695 Z" id="Path"></path>
            </g>
        </g>
    </g>
</svg>