<svg xmlns="http://www.w3.org/2000/svg" xmlns:xlink="http://www.w3.org/1999/xlink" viewBox="0 0 270.933 270.933" height="1024" width="1024"><defs><linearGradient id="a"><stop offset="0" style="stop-color:#2f6389;stop-opacity:1"/><stop style="stop-color:#56addf;stop-opacity:1" offset="1"/></linearGradient><linearGradient spreadMethod="pad" y2="26.709" x2="125.488" y1="295.488" x1="125.488" gradientUnits="userSpaceOnUse" id="b" xlink:href="#a"/><linearGradient gradientUnits="userSpaceOnUse" y2="172.297" x2="99.266" y1="165.417" x1="103.722" id="d" xlink:href="#a"/><filter height="1.19" y="-.095" width="1.19" x="-.095" id="c" style="color-interpolation-filters:sRGB"><feGaussianBlur stdDeviation="4.17"/></filter><filter height="1.12" y="-.06" width="1.12" x="-.06" id="f" style="color-interpolation-filters:sRGB"><feGaussianBlur stdDeviation="6.598"/></filter><filter height="1.12" y="-.06" width="1.12" x="-.06" id="e" style="color-interpolation-filters:sRGB"><feGaussianBlur stdDeviation="4.289"/></filter></defs><g style="display:inline" transform="translate(0 -26.067)"><rect ry="26.458" rx="26.458" y="26.067" height="270.933" width="270.933" style="fill:url(#b);fill-opacity:1;fill-rule:nonzero;stroke:#0ff;stroke-width:.26458332;stroke-opacity:1"/></g><path style="fill:#000;fill-opacity:.5;fill-rule:nonzero;stroke:#0ff;stroke-width:.2639235;stroke-opacity:1;filter:url(#c)" d="M79.375 138.773a52.785 52.785 0 0 0-52.785 52.785 52.785 52.785 0 0 0 52.785 52.785 52.785 52.785 0 0 0 52.785-52.785 52.785 52.785 0 0 0-52.785-52.785zm12.594 28.239a13.09 13.09 0 0 1 13.09 13.09 13.09 13.09 0 0 1-13.09 13.09 13.09 13.09 0 0 1-13.09-13.09 13.09 13.09 0 0 1 13.09-13.09z"/><path d="M110.351 174.81a13.09 13.09 0 0 1-13.09 13.09 13.09 13.09 0 0 1-13.09-13.09 13.09 13.09 0 0 1 13.09-13.09 13.09 13.09 0 0 1 13.09 13.09z" style="opacity:1;fill:url(#d);fill-opacity:1;fill-rule:nonzero;stroke:#0ff;stroke-width:.27767283;stroke-opacity:1;filter:url(#filter7223)"/><path d="M84.667 133.482a52.785 52.785 0 0 0-52.785 52.785 52.785 52.785 0 0 0 52.785 52.785 52.785 52.785 0 0 0 52.785-52.785 52.785 52.785 0 0 0-52.785-52.785zM97.26 161.72a13.09 13.09 0 0 1 13.09 13.09 13.09 13.09 0 0 1-13.09 13.09 13.09 13.09 0 0 1-13.09-13.09 13.09 13.09 0 0 1 13.09-13.09z" style="fill:#fff;fill-opacity:1;fill-rule:nonzero;stroke:#0ff;stroke-width:.2639235;stroke-opacity:1"/><g><path d="M79.375 105.79a85.78 85.774 0 0 0-.369.018h.142v16.073a69.696 69.691 0 0 1 .227-.008 69.696 69.691 0 0 1 69.697 69.692 69.696 69.691 0 0 1-.017.327h16.089a85.78 85.774 0 0 0 .011-.327 85.78 85.774 0 0 0-85.78-85.775zm-85.762 85.253a85.78 85.774 0 0 0-.018.521 85.78 85.774 0 0 0 .018.37zm85.535 86.178v.099h-.294a85.78 85.774 0 0 0 .521.019 85.78 85.774 0 0 0 2.35-.118z" style="opacity:1;fill:#000;fill-opacity:.39215686;fill-rule:nonzero;stroke:#0ff;stroke-width:.41842526;stroke-opacity:1;filter:url(#e)"/><path style="opacity:1;fill:#000;fill-opacity:.39215686;fill-rule:nonzero;stroke:#0ff;stroke-width:.6437217;stroke-opacity:1;filter:url(#f)" d="M79.905 59.615a131.97 131.956 0 0 0-.568.029h.217V84.37a107.225 107.214 0 0 1 .35-.012 107.225 107.214 0 0 1 107.227 107.215 107.225 107.214 0 0 1-.026.503h24.751a131.97 131.956 0 0 0 .018-.503A131.97 131.956 0 0 0 79.904 59.616zM-52.037 190.77a131.97 131.956 0 0 0-.028.802 131.97 131.956 0 0 0 .028.569zM79.554 323.347v.152h-.452a131.97 131.956 0 0 0 .803.029 131.97 131.956 0 0 0 3.616-.181z"/><path d="M84.667 54.324a131.97 131.956 0 0 0-.567.028h.217v24.726a107.225 107.214 0 0 1 .35-.012 107.225 107.214 0 0 1 107.226 107.215 107.225 107.214 0 0 1-.026.504h24.752a131.97 131.956 0 0 0 .017-.504A131.97 131.956 0 0 0 84.666 54.325zM-47.274 185.478a131.97 131.956 0 0 0-.029.802 131.97 131.956 0 0 0 .029.568zM84.317 318.055v.153h-.452a131.97 131.956 0 0 0 .802.028 131.97 131.956 0 0 0 3.616-.18z" style="opacity:1;fill:#fff;fill-opacity:1;fill-rule:nonzero;stroke:#0ff;stroke-width:.6437217;stroke-opacity:1"/><path style="opacity:1;fill:#fff;fill-opacity:1;fill-rule:nonzero;stroke:#0ff;stroke-width:.41842526;stroke-opacity:1" d="M84.667 100.498a85.78 85.774 0 0 0-.369.019h.141v16.072a69.696 69.691 0 0 1 .228-.008 69.696 69.691 0 0 1 69.697 69.692 69.696 69.691 0 0 1-.017.328h16.088a85.78 85.774 0 0 0 .012-.328 85.78 85.774 0 0 0-85.78-85.774zm-85.762 85.253a85.78 85.774 0 0 0-.019.521 85.78 85.774 0 0 0 .019.37zm85.534 86.178v.1h-.294a85.78 85.774 0 0 0 .522.018 85.78 85.774 0 0 0 2.35-.118z"/></g></svg>