<svg height="528" viewBox="0 0 48 48" width="528" xmlns="http://www.w3.org/2000/svg"><path d="M9 42h23l10-10V9a3 3 0 0 0-3-3H9a3 3 0 0 0-3 3v30a3 3 0 0 0 3 3z" fill="#ffc107"/><path d="M32 42V32h10z" fill="#ffecb3"/><path d="M32 20a8 8 0 0 0-16 0 8.002 8.002 0 0 0 5 7.414V35h6v-7.586A8.002 8.002 0 0 0 32 20z" fill="none" stroke="#fff" stroke-miterlimit="10" stroke-width="2"/><path d="M22 35h4v3h-4z" fill="#fff"/><path d="M21 31h6" fill="none" stroke="#fff" stroke-miterlimit="10" stroke-width="2"/></svg>