<?xml version="1.0" encoding="utf-8"?>
<!-- Generator: Adobe Illustrator 27.1.1, SVG Export Plug-In . SVG Version: 6.00 Build 0)  -->
<svg version="1.1" id="Layer_1" xmlns="http://www.w3.org/2000/svg" xmlns:xlink="http://www.w3.org/1999/xlink" x="0px" y="0px"
	 viewBox="0 0 49 49" style="enable-background:new 0 0 49 49;" xml:space="preserve">
<style type="text/css">
	.st0{fill:#FFE900;}
</style>
<path class="st0" d="M48.1,26.4L0,31.5L0.6,37l48.1-5.1L48.1,26.4z"/>
<path d="M23.3,16.1c-1.1,0-2.2,0.3-3.1,0.9c-0.9,0.6-1.6,1.5-2,2.5s-0.5,2.1-0.3,3.2c0.2,1.1,0.7,2.1,1.5,2.8
	c0.8,0.8,1.8,1.3,2.8,1.5c1.1,0.2,2.2,0.1,3.2-0.3c1-0.4,1.9-1.1,2.5-2c0.6-0.9,0.9-2,0.9-3.1c0-0.7-0.1-1.4-0.4-2.1
	c-0.3-0.7-0.7-1.3-1.2-1.8c-0.5-0.5-1.1-0.9-1.8-1.2C24.8,16.2,24,16.1,23.3,16.1L23.3,16.1z M23.3,24.7c-0.6,0-1.2-0.2-1.7-0.5
	c-0.5-0.3-0.9-0.8-1.1-1.4c-0.2-0.6-0.3-1.2-0.2-1.8c0.1-0.6,0.4-1.1,0.8-1.6c0.4-0.4,1-0.7,1.6-0.8c0.6-0.1,1.2-0.1,1.8,0.2
	c0.6,0.2,1,0.6,1.4,1.1c0.3,0.5,0.5,1.1,0.5,1.7c0,0.8-0.3,1.6-0.9,2.2C24.9,24.4,24.1,24.7,23.3,24.7L23.3,24.7z"/>
<path d="M41.2,16.1c-1.1,0-2.2,0.3-3.1,0.9c-0.9,0.6-1.6,1.5-2,2.5c-0.4,1-0.5,2.1-0.3,3.2c0.2,1.1,0.7,2.1,1.5,2.8
	c0.8,0.8,1.8,1.3,2.8,1.5c1.1,0.2,2.2,0.1,3.2-0.3c1-0.4,1.9-1.1,2.5-2c0.6-0.9,0.9-2,0.9-3.1c0-0.7-0.1-1.5-0.4-2.1
	c-0.3-0.7-0.7-1.3-1.2-1.8c-0.5-0.5-1.1-0.9-1.8-1.2C42.6,16.2,41.9,16.1,41.2,16.1L41.2,16.1z M41.2,24.7c-0.6,0-1.2-0.2-1.7-0.5
	c-0.5-0.3-0.9-0.8-1.1-1.4c-0.2-0.6-0.3-1.2-0.2-1.8c0.1-0.6,0.4-1.1,0.8-1.6c0.4-0.4,1-0.7,1.6-0.8c0.6-0.1,1.2-0.1,1.8,0.2
	c0.6,0.2,1,0.6,1.4,1.1c0.3,0.5,0.5,1.1,0.5,1.7c0,0.8-0.3,1.6-0.9,2.2C42.8,24.4,42,24.7,41.2,24.7L41.2,24.7z"/>
<path d="M37.8,15.8v-2.5H26.7v2.5H31v11.1h2.5V15.8H37.8z"/>
<path d="M8.3,18.8v2.5h3.4c-0.8,2.1-2.3,3.4-4,3.4c-0.8,0-1.5-0.2-2.2-0.5c-0.7-0.4-1.2-0.9-1.7-1.5c-0.4-0.6-0.7-1.4-0.8-2.1
	c-0.1-0.8,0-1.5,0.3-2.2c0.3-0.7,0.8-1.3,1.3-1.8s1.3-0.8,2-1c0.7-0.1,1.5-0.1,2.2,0.1c0.7,0.2,1.4,0.6,1.9,1.2l1.8-1.8
	c-1-1-2.3-1.7-3.6-1.9C7.7,12.9,6.3,13,5,13.5c-1.3,0.5-2.4,1.4-3.2,2.6c-0.8,1.2-1.2,2.5-1.2,3.9c0,0.9,0.2,1.9,0.5,2.7
	c0.4,0.9,0.9,1.6,1.5,2.3c0.7,0.7,1.4,1.2,2.3,1.5c0.9,0.4,1.8,0.5,2.7,0.5c2.4,0,4.6-1.6,5.9-4v3.7H16v-8H8.3z"/>
</svg>
