<?xml version="1.0" encoding="utf-8"?>
<!-- Generator: Adobe Illustrator 25.4.1, SVG Export Plug-In . SVG Version: 6.00 Build 0)  -->
<svg version="1.1"
	 id="svg4525" inkscape:version="0.92.1 r15371" sodipodi:docname="BADOO.svg" xmlns:cc="http://creativecommons.org/ns#" xmlns:dc="http://purl.org/dc/elements/1.1/" xmlns:inkscape="http://www.inkscape.org/namespaces/inkscape" xmlns:rdf="http://www.w3.org/1999/02/22-rdf-syntax-ns#" xmlns:sodipodi="http://sodipodi.sourceforge.net/DTD/sodipodi-0.dtd" xmlns:svg="http://www.w3.org/2000/svg"
	 xmlns="http://www.w3.org/2000/svg" xmlns:xlink="http://www.w3.org/1999/xlink" x="0px" y="0px" viewBox="0 0 128.8 128.8"
	 style="enable-background:new 0 0 128.8 128.8;" xml:space="preserve">
<style type="text/css">
	.st0{fill-rule:evenodd;clip-rule:evenodd;fill:#783BF9;}
	.st1{fill-rule:evenodd;clip-rule:evenodd;fill:#F99DF0;}
</style>
<sodipodi:namedview  bordercolor="#666666" borderopacity="1.0" fit-margin-bottom="0" fit-margin-left="0" fit-margin-right="0" fit-margin-top="0" id="base" inkscape:current-layer="layer1" inkscape:cx="449.73135" inkscape:cy="344.53354" inkscape:document-units="mm" inkscape:pageopacity="0.0" inkscape:pageshadow="2" inkscape:showpageshadow="false" inkscape:window-height="715" inkscape:window-maximized="1" inkscape:window-width="1366" inkscape:window-x="-8" inkscape:window-y="-8" inkscape:zoom="0.436992" pagecolor="#ffffff" showgrid="false" units="px">
	</sodipodi:namedview>
<path class="st0" d="M44.9,0h39.1c12.9,0,19.4,0,26.4,2.2c7.6,2.8,13.6,8.8,16.3,16.3c2.2,7,2.2,13.4,2.2,26.4v39
	c0,12.9,0,19.4-2.2,26.4c-2.8,7.6-8.8,13.6-16.3,16.3c-7,2.2-13.4,2.2-26.4,2.2h-39c-12.9,0-19.4,0-26.4-2.2
	C11,123.9,5,117.9,2.2,110.3C0,103.3,0,96.8,0,83.9v-39C0,32,0,25.5,2.2,18.6C5,11,11,5,18.6,2.2C25.5,0,32,0,44.9,0"/>
<path class="st1" d="M90.5,55.8c0,14.3-11.5,26-25.9,26c-0.1,0-0.1,0-0.2,0c-14.3,0.1-26-11.4-26.1-25.8c0-0.1,0-0.2,0-0.3V55h9.2
	v0.8c0,9.3,7.6,16.9,16.9,16.9s16.9-7.6,16.9-16.9V55h9.2V55.8z M86.3,30.2c-9.3-0.3-17.9,5-21.9,13.5c-4-8.5-12.6-13.8-21.9-13.5
	c-13.5,0.2-24.3,11.1-24.4,24.6c0,26.5,25.4,47.9,46.3,47.9s46.3-21.5,46.3-47.9C110.7,41.2,99.4,30.2,86.3,30.2z"/>
</svg>
