<svg enable-background="new 0 0 947.383 947.383" height="947.383" viewBox="0 0 947.383 947.383" width="947.383" xmlns="http://www.w3.org/2000/svg"><g stroke="#000"><path d="m566.828 2.896-93.137 49.266-93.454-49.434c-17.958-9.499-38.475 7.352-32.646 26.814l50.675 169.197c24.891-7.776 50.084-11.69 75.425-11.69 24.992 0 49.839 3.814 74.396 11.378l51.356-168.616c5.936-19.482-14.611-36.438-32.615-26.915z"/><path d="m782.74036 722.65505c0-230.9453-79.88442-515.21197-310.82972-515.21197s-314.29209 292.34551-314.29209 523.29081c0 230.943 85.65503 208.1059 316.60033 208.1059 230.9453.003 308.52148 14.76171 308.52148-216.18474zm-275.1036 50.10644v41.0297c0 13.26065-10.75135 24.01085-24.012 24.01085h-20.69885c-13.2618 0-24.012-10.7502-24.012-24.01085v-37.35085c-28.5982-3.51325-62.9395-13.9978-91.28355-32.79915-10.3408-6.85975-13.3193-21.0634-6.64585-31.5261l21.3647-33.49145c6.74475-10.56965 20.75635-13.85635 31.4088-7.23925 24.56055 15.2605 45.2893 21.61195 66.01805 21.61195 30.6797 0 42.9525-10.4328 42.9525-34.36085 0-49.0912-158.30555-55.83825-158.30555-163.2149 0-61.9735 34.9738-104.92485 94.49205-117.80945v-40.8135c0-12.70175 10.2971-23 23-23h22.7217c12.7029 0 23 10.2971 23 23v39.58645c30.0978 4.7771 54.61695 17.73875 75.5826 35.4085 9.85205 8.303 11.0975 23.0184 2.65765 32.75085l-23.1633 26.70185c-7.73835 8.924-21.01165 10.7111-30.6774 3.9261-15.73315-11.0446-30.6912-16.5669-47.7158-16.5669-26.3833 0-39.26905 7.3623-39.26905 31.9056 0 46.63365 158.30555 49.0889 158.30555 160.75965-.001 59.52055-31.29495 106.15305-95.72025 121.49175z" stroke-width="1.15"/></g></svg>