<svg xmlns="http://www.w3.org/2000/svg" fill="none" viewBox="0 0 24 24">
  <path fill="url(#prefix__a)"
    d="M6.738 6.781C3.145 6.781.459 9.722.258 13c.124.705.536 2.1 1.18 2.028.805-.09 2.833 0 4.563-3.132 1.264-2.287 3.863-5.114.737-5.114z" />
  <path fill="url(#prefix__b)"
    d="M5.908 8.003C4.7 9.915 3.074 12.655 2.526 13.517c-.652 1.025-2.38.59-2.237-.88a6.579 6.579 0 006.532 7.356c4.157 0 14.068-5.177 13.065-10.365-1.057-3.05-4.029-5.237-7.396-5.237-3.368 0-5.526 1.94-6.582 3.612z" />
  <path fill="url(#prefix__c)" fill-opacity=".4"
    d="M5.908 8.003C4.7 9.915 3.074 12.655 2.526 13.517c-.652 1.025-2.38.59-2.237-.88a6.579 6.579 0 006.532 7.356c4.157 0 14.068-5.177 13.065-10.365-1.057-3.05-4.029-5.237-7.396-5.237-3.368 0-5.526 1.94-6.582 3.612z" />
  <path fill="url(#prefix__d)"
    d="M5.908 8.003C4.7 9.915 3.074 12.655 2.526 13.517c-.652 1.025-2.38.59-2.237-.88a6.579 6.579 0 006.532 7.356c4.157 0 14.068-5.177 13.065-10.365-1.057-3.05-4.029-5.237-7.396-5.237-3.368 0-5.526 1.94-6.582 3.612z" />
  <path fill="url(#prefix__e)" fill-opacity=".6"
    d="M5.908 8.003C4.7 9.915 3.074 12.655 2.526 13.517c-.652 1.025-2.38.59-2.237-.88a6.579 6.579 0 006.532 7.356c4.157 0 14.068-5.177 13.065-10.365-1.057-3.05-4.029-5.237-7.396-5.237-3.368 0-5.526 1.94-6.582 3.612z" />
  <path fill="url(#prefix__f)" fill-opacity=".9"
    d="M5.908 8.003C4.7 9.915 3.074 12.655 2.526 13.517c-.652 1.025-2.38.59-2.237-.88a6.579 6.579 0 006.532 7.356c4.157 0 14.068-5.177 13.065-10.365-1.057-3.05-4.029-5.237-7.396-5.237-3.368 0-5.526 1.94-6.582 3.612z" />
  <path fill="url(#prefix__g)"
    d="M6.761 19.996s9.923.02 11.606.02c3.055 0 5.377-2.494 5.377-5.404 0-2.91-2.369-5.388-5.377-5.388-3.008 0-4.74 2.25-6.04 4.706-1.525 2.878-3.47 6.032-5.566 6.066z" />
  <path fill="url(#prefix__h)" fill-opacity=".4"
    d="M6.761 19.996s9.923.02 11.606.02c3.055 0 5.377-2.494 5.377-5.404 0-2.91-2.369-5.388-5.377-5.388-3.008 0-4.74 2.25-6.04 4.706-1.525 2.878-3.47 6.032-5.566 6.066z" />
  <path fill="url(#prefix__i)" fill-opacity=".9"
    d="M6.761 19.996s9.923.02 11.606.02c3.055 0 5.377-2.494 5.377-5.404 0-2.91-2.369-5.388-5.377-5.388-3.008 0-4.74 2.25-6.04 4.706-1.525 2.878-3.47 6.032-5.566 6.066z" />
  <defs>
    <radialGradient id="prefix__a" cx="0" cy="0" r="1"
      gradientTransform="matrix(4.74587 5.68661 -7.92676 9.67584 .703 7.64)"
      gradientUnits="userSpaceOnUse">
      <stop stop-color="#4894FE" />
      <stop offset=".695" stop-color="#0934B3" />
    </radialGradient>
    <radialGradient id="prefix__b" cx="0" cy="0" r="1"
      gradientTransform="matrix(-20.8632 24.0655 -18.3881 -14.8191 20.587 -.889)"
      gradientUnits="userSpaceOnUse">
      <stop offset=".165" stop-color="#23C0FE" />
      <stop offset=".534" stop-color="#1C91FF" />
    </radialGradient>
    <radialGradient id="prefix__c" cx="0" cy="0" r="1"
      gradientTransform="matrix(-4.95945 -4.16349 -9.27702 11.5666 5.51 8.06)"
      gradientUnits="userSpaceOnUse">
      <stop stop-color="#fff" />
      <stop offset=".661" stop-color="#ADC0FF" stop-opacity="0" />
    </radialGradient>
    <radialGradient id="prefix__d" cx="0" cy="0" r="1"
      gradientTransform="rotate(-139.764 9.153 5.558) scale(7.2987 11.0847)"
      gradientUnits="userSpaceOnUse">
      <stop stop-color="#033ACC" />
      <stop offset="1" stop-color="#368EFF" stop-opacity="0" />
    </radialGradient>
    <radialGradient id="prefix__e" cx="0" cy="0" r="1"
      gradientTransform="matrix(6.36769 14.6947 -15.8643 6.873 5.081 3.897)"
      gradientUnits="userSpaceOnUse">
      <stop offset=".593" stop-color="#3464E3" stop-opacity="0" />
      <stop offset="1" stop-color="#033ACC" />
    </radialGradient>
    <radialGradient id="prefix__f" cx="0" cy="0" r="1"
      gradientTransform="rotate(135 10.005 4.598) scale(23.5577 36.9069)"
      gradientUnits="userSpaceOnUse">
      <stop stop-color="#4BFDE8" />
      <stop offset=".544" stop-color="#4BFDE8" stop-opacity="0" />
    </radialGradient>
    <radialGradient id="prefix__h" cx="0" cy="0" r="1"
      gradientTransform="matrix(9.923 3.93528 -12.5734 16.7598 9.69 10.493)"
      gradientUnits="userSpaceOnUse">
      <stop stop-color="#fff" />
      <stop offset=".785" stop-color="#fff" stop-opacity="0" />
    </radialGradient>
    <radialGradient id="prefix__i" cx="0" cy="0" r="1"
      gradientTransform="matrix(-11.0857 9.55446 -13.1411 -8.06007 23.412 8.387)"
      gradientUnits="userSpaceOnUse">
      <stop stop-color="#4BFDE8" />
      <stop offset=".585" stop-color="#4BFDE8" stop-opacity="0" />
    </radialGradient>
    <linearGradient id="prefix__g" x1="15.258" x2="15.258" y1="20.005" y2="9.352"
      gradientUnits="userSpaceOnUse">
      <stop stop-color="#0086FF" />
      <stop offset=".49" stop-color="#0BF" />
    </linearGradient>
  </defs>
</svg>
