<svg width="32" height="32" xmlns="http://www.w3.org/2000/svg">
 <title>icon</title>

 <g>
  <title>Layer 1</title>
  <g id="STYLE_COLOR">
   <path d="m12.20245,11.19292l0.00031,-0.0011l6.71765,4.02379l4.00293,-1.68451l0.00018,0.00068a6.4768,6.4768 0 0 1 2.57648,-0.53178c0.14764,0 0.29358,0.0067 0.43878,0.01639a10.00075,10.00075 0 0 0 -18.041,-3.01381c0.03422,-0.00043 0.06792,-0.00258 0.10222,-0.00258a7.96073,7.96073 0 0 1 4.20245,1.19292z" fill="#0364b8" id="svg_1"/>
   <path d="m12.20276,11.19182l-0.00031,0.0011a7.96073,7.96073 0 0 0 -4.20245,-1.19292c-0.0343,0 -0.06805,0.00215 -0.10223,0.00258a7.99676,7.99676 0 0 0 -6.46045,12.57019l5.924,-2.49292l2.63342,-1.10819l5.86353,-2.46746l3.06213,-1.28859l-6.71764,-4.02379z" fill="#0078d4" id="svg_2"/>
   <path d="m25.93878,13.01639c-0.1452,-0.00969 -0.29114,-0.01639 -0.43878,-0.01639a6.4768,6.4768 0 0 0 -2.57648,0.53178l-0.00018,-0.00068l-4.00293,1.68451l1.16077,0.69528l3.80493,2.27911l1.66009,0.99438l5.67633,3.40007a6.5002,6.5002 0 0 0 -5.28375,-9.56805l0,-0.00001z" fill="#1490df" id="svg_3"/>
   <path d="m25.5462,19.18437l-1.66009,-0.99437l-3.80493,-2.2791l-1.16077,-0.69528l-3.06213,1.28858l-5.86353,2.46746l-2.63342,1.10819l-5.924,2.49292a7.98889,7.98889 0 0 0 6.56267,3.42723l17.5,0a6.49837,6.49837 0 0 0 5.72253,-3.41556l-5.67633,-3.40007z" fill="#28a8ea" id="svg_4"/>
  </g>
 </g>
</svg>