<?xml version="1.0" encoding="utf-8"?>
<!-- Generator: Adobe Illustrator 28.3.0, SVG Export Plug-In . SVG Version: 6.00 Build 0)  -->
<svg version="1.1" id="Layer_1" xmlns="http://www.w3.org/2000/svg" xmlns:xlink="http://www.w3.org/1999/xlink" x="0px" y="0px"
	 viewBox="0 0 32 32" style="enable-background:new 0 0 32 32;" xml:space="preserve">
<style type="text/css">
	.st0{fill:#0364B8;}
	.st1{fill:#0078D4;}
	.st2{fill:#1490DF;}
	.st3{fill:#28A8EA;}
</style>
<g id="STYLE_COLOR">
	<path class="st0" d="M12.2,11.44L12.2,11.44l6.72,4.02l4-1.68l0,0c0.81-0.35,1.69-0.53,2.58-0.53c0.15,0,0.29,0.01,0.44,0.02
		c-1.37-5.35-6.82-8.57-12.17-7.2c-2.41,0.62-4.5,2.11-5.87,4.19c0.03,0,0.07,0,0.1,0C9.48,10.25,10.94,10.66,12.2,11.44z"/>
	<path class="st1" d="M12.2,11.44L12.2,11.44c-1.26-0.78-2.72-1.19-4.2-1.19c-0.03,0-0.07,0-0.1,0c-4.42,0.05-7.95,3.68-7.9,8.1
		c0.02,1.6,0.52,3.16,1.44,4.48l5.92-2.49l2.63-1.11l5.86-2.47l3.06-1.29L12.2,11.44z"/>
	<path class="st2" d="M25.94,13.27c-0.15-0.01-0.29-0.02-0.44-0.02c-0.89,0-1.76,0.18-2.58,0.53l0,0l-4,1.68l1.16,0.7l3.8,2.28
		l1.66,0.99l5.68,3.4c1.7-3.16,0.52-7.1-2.64-8.81C27.77,13.59,26.86,13.33,25.94,13.27z"/>
	<path class="st3" d="M25.55,19.43l-1.66-0.99l-3.8-2.28l-1.16-0.7l-3.06,1.29l-5.86,2.47l-2.63,1.11l-5.92,2.49
		c1.49,2.15,3.95,3.43,6.56,3.43h17.5c2.39,0,4.59-1.31,5.72-3.42L25.55,19.43z"/>
</g>
</svg>
