<?xml version="1.0" encoding="UTF-8"?>
<svg id="Layer_1" xmlns="http://www.w3.org/2000/svg" version="1.1" viewBox="0 0 100 100">
  <!-- Generator: Adobe Illustrator 29.8.2, SVG Export Plug-In . SVG Version: 2.1.1 Build 3)  -->
  <defs>
    <style>
      .st0 {
        fill: #fff;
      }

      .st1 {
        fill: #818181;
      }
    </style>
  </defs>
  <rect class="st1" width="100" height="100" rx="30" ry="30"/>
  <path class="st0" d="M.45,47.99c-.5.18-.57.19-.3-.3,5.21-2.76,11.93-5.04,17.68-6.42,21.48-5.14,47.6-4.89,69.3-1.19,4.23.72,8.45,1.81,12.65,2.72.57.33-.19.78-.46,1.03-4.8,4.43-15.83.48-21.66-.5-23.11-3.88-55.07-3.37-77.22,4.64H.44v.02Z"/>
  <path class="st0" d="M54.19,52.44c-2.67,1.56-.2,9.74-2.75,9.74h-5.76l-.02.02v-5.76c0-1.73-2.04-3.9-3.76-4.22-7.64-1.4-9.86,8.35-5.03,11.53,1.63,1.07,5.58.72,5.84,1.11.46.7-.62,1.03-.79,1.27-.22.3-.12.74-.56,1.06-.81.58-2.46.18-3.46.38s-3.39,2.04-1.79,2.55c.24.08,4.44-.17,4.94-.28,1.64-.38,3.09-1.48,3.8-3.01.41-.88-.1-1.75,1.1-2.15,2.72-.91,6.26,1.23,8.59-1.76.27-.33,1.19-2.09,1.19-2.36v-7.98c0-.56-1.17-.36-1.54-.14ZM43.03,62.18h-.01c-2.51-.1-5.28.83-5.63-2.49-.23-2.14-.06-4.87,2.56-5.19,1.27-.15,3.08.93,3.08,2.21v5.47Z"/>
  <path class="st0" d="M63.72,46.51c1.14-.14,2.34.53,2.6,1.69.73,3.25-.35,8.78.06,12.36.05.46.18,1.24.59,1.48.44.26,9.17.29,10.22.16,2.42-.31,1.59-6.15-.77-6.95-2.83-.95-4.01,1.29-6.61.99-1.24-.14-1.38-.44-.63-1.46,1.31-1.78,5.84-6.56,7.55-7.83,1.31-.97,2.57-.9,4.14-.59-1.33,1.65-3.93,3.61-5.04,5.31-.24.36-.36.59-.28,1.05,6.2-1.61,8.35,10.95,2.79,11.81-1.75.27-10.42.31-12.09,0-1.21-.22-2.53-1.94-2.53-3.09v-14.93h0Z"/>
  <path class="st0" d="M29.42,51.98c-2.1-.74-9.09-.69-11.23,0-1.44.47-2.99,1.67-3.25,3.25h-.02v14.93c1.3-.06,2.34-1.03,2.59-2.29.57-2.8-.66-10.67.37-12.56.49-.9,2.88-1.29,3.84-1.12v6.65c0,.18,1.24,2.08,1.51,2.34,2.38,2.28,6.92,1.72,8.61-1.09s1.02-8.9-2.42-10.11ZM25.38,61.5c-1.69-1.56-1.55-7.09,1.54-7.32,5.58-.41,2.8,11.33-1.54,7.32Z"/>
  <path class="st0" d="M60.17,35.87h-4.29c-.26,0-1.6-2.9-1.93-3.39-3.97-5.9-11.87-5.37-15.6.34-.73,1.12-1.84,4.33-2.91,4.45-2.3.26.35-3.94.96-4.92,6.82-10.97,20.21-8.34,23.77,3.52h0Z"/>
  <path class="st0" d="M61.06,52.13v13.45c0,.14-1.16,2.26-1.35,2.5-1.27,1.66-3.75,2.18-5.75,1.94.05-2.36,1.77-2.1,2.95-2.96,2.63-1.92.99-9.51,1.56-12.64.23-1.3,1.24-2.33,2.59-2.29Z"/>
  <path class="st0" d="M48.09,74.56c-.06-.04-.34-.76-.78-1.14-.91-.8-2.01-1.41-3.1-1.92.92-.54,3.97-4.76,4.58-4.81.41-.03,2.36,1.55,2.65,2.01,1.77,2.84-2.38,6.43-3.35,5.86h0Z"/>
</svg>