<?xml version="1.0" encoding="UTF-8"?>
<svg id="Layer_1" xmlns="http://www.w3.org/2000/svg" version="1.1" viewBox="0 0 100 100">
  <!-- Generator: Adobe Illustrator 29.8.2, SVG Export Plug-In . SVG Version: 2.1.1 Build 3)  -->
  <defs>
    <style>
      .st0 {
        fill: #009d4e;
      }

      .st1 {
        fill: #be0000;
      }

      .st2 {
        fill: #019e4e;
      }
    </style>
  </defs>
  <path class="st2" d="M50.68.08c2.32.24,7.6,1.66,9.63,2.83,3.68,2.12,5.53,7.39,0,5.58-1-.33-1.69-1.44-2.67-1.91-4.05-1.95-12.84-1.87-16.91.08-1.6.76-2.69,2.76-4.53,2.58-3.13-.32-1.22-3.93.28-5.3,1.74-1.6,8.29-3.59,10.63-3.86.96-.11,2.59-.1,3.56,0,0,0,.01,0,.01,0Z"/>
  <path class="st0" d="M97.47,39.21h0c-1.55-16.93-17.06-28.49-33.29-29.5-8.74-.54-23.29-.2-32.06.54-11.59.97-22.97,9.82-27.31,20.48-.5,1.23-2.45,6.84-2.45,7.72v27.7h37.38c1.81,0-.79-8.28,2.81-9.9,1.36-.61,14.22-.48,15.45.3,2.47,1.56.68,6.08,1.41,8.25.91,2.69,10.91.87,13.37.82,8.22-.15,16.47.15,24.69.02v-12.71c0-4.33.38-9.53,0-13.72ZM75.6,43.79l-51.38.51c-.83-5.28,3.32-11.87,8.62-12.99,3.82-.81,9.43-.06,13.53-.2,1.21-.04,2.32-.53,3.52-.55,10.96-.17,25.95-2.11,25.71,13.24h0Z"/>
  <path class="st0" d="M88.14,89.35c-9.58,9.75-20.23,9.98-33.12,10.36-17.71.52-33.86,1.95-45.75-13.29-1.06-1.35-5.71-8.16-5.72-9.34,0-.45.45-1.31.82-1.54,1.2-.72,17.57-.16,20.62-.23,1.34-.03,2.57-.53,4.02-.55,22.03-.37,44.11.33,66.14.03,1.8.3,1.35,1.59.89,2.91-.92,2.62-5.88,9.57-7.92,11.65h0Z"/>
  <path class="st1" d="M45.44,57.62c1.32-.31,7.18-.35,8.52-.1,3.63.68,3.44,9.68,2.43,12.05-1.37,3.22-12.75,3.64-13.38-1.11-.36-2.73-.8-10.1,2.43-10.84Z"/>
</svg>