<?xml version="1.0" encoding="UTF-8"?>
<svg id="Layer_2" data-name="Layer 2" xmlns="http://www.w3.org/2000/svg" viewBox="0 0 243.37 243.37">
  <defs>
    <style>
      .cls-1 {
        fill: #fff;
      }

      .cls-2 {
        fill: #1e7ec2;
      }

      .cls-3 {
        fill: none;
      }
    </style>
  </defs>
  <g id="Layer_1-2" data-name="Layer 1">
    <rect class="cls-3" width="243.37" height="243.37"/>
    <rect class="cls-1" x="44.19" y="45.37" width="155" height="116"/>
    <path class="cls-2" d="m121.69,39.86c26.83,0,53.67.16,80.5-.11,7.05-.07,12.79,4.96,14.13,11.31.59,2.79.83,5.52.84,8.31,0,32.67.05,65.33-.05,98-.01,4.55-.58,9.03-3.58,13.01-2.6,3.46-5.92,4.93-9.91,5.47-1.15.16-2.33.03-3.5.03-24.67,0-49.33.04-74-.04-3.12,0-5.62.78-8.24,2.61-8.61,6.01-17.44,11.72-26.25,17.43-3.99,2.59-8.11,4.98-12.24,7.34-1.6.91-2.88.18-3.11-1.61-.15-1.15-.07-2.33-.07-3.5,0-6.5.02-13-.02-19.5-.02-2.65-.07-2.72-2.81-2.73-10.67-.03-21.33,0-32-.02-9.12-.01-15.15-6.01-15.16-15.18-.02-35.17,0-70.33-.01-105.5,0-7,3.08-12.03,9.68-14.57,1.63-.63,3.53-.74,5.3-.75,26.83-.04,53.67-.03,80.5-.03Zm14.63,36.03c2.79.27,6.53.15,10.34.74,5.77.9,11.12,2.44,16.28,5.12,8.11,4.21,11.91,10.95,12.27,19.86.09,2.33.02,4.66.01,7,0,4.57-1.57,8.71-3.85,12.52-4.72,7.89-12.52,11.92-20.45,15.67-2.65,1.25-5.46,2.18-8.21,3.22-8.76,3.31-17.72,5.51-27.16,5.9-8.33.35-16.38-1.09-24.31-3.21-5.57-1.48-10.8-4.11-15.28-7.74-6.37-5.16-9.03-12.35-9.71-20.32-.27-3.12.18-6.2.91-9.29,1.73-7.3,4.56-13.95,9.62-19.64,6.19-6.96,13.89-11.69,22.33-15.17,5.55-2.29,11.33-4.34,17.2-5.47,6.9-1.32,14.01-1.52,21.04-2.18.83-.08,1.68.06,2.49-.07,1.54-.24,3.51-2,3.24-3.25-.29-1.32-1.01-2.79-2.01-3.64-.89-.75-2.42-.99-3.68-1.02-5.44-.14-10.72,1.34-16.07,1.78-6.12.5-11.86,2.25-17.61,4.02-9,2.78-17.3,6.99-24.81,12.77-12.6,9.69-20.26,21.85-19.74,38.27.06,1.83.07,3.67,0,5.5-.2,5.82,1.89,10.97,4.81,15.78,3.98,6.57,10.05,10.82,16.86,14.03,9.77,4.6,20.19,6.44,30.91,6.78,3.79.12,7.54-.56,11.29-.81,5.46-.36,10.61-1.75,15.83-3.07,9.14-2.32,17.61-6.24,25.52-11.24,3.87-2.45,7.81-5.17,10.78-8.58,5.41-6.2,8.05-13.75,8.04-22.1,0-4.29-.04-8.55-1-12.78-1.71-7.51-5.24-13.59-11.89-17.97-9.8-6.47-20.79-8.48-32.11-9.34-4.23-.32-8.5.12-12.8.68-6.72.88-13.04,2.83-19.44,4.77-2.02.61-3.54,1.62-4.92,3.08-2.74,2.9-2.27,4.71,1.5,6.1,1.29.47,2.16-.09,3.24-.56,9.43-4.04,19.22-6.44,30.54-6.13Zm21.89,24.51c.02-3.22-2.23-4.73-5.58-3.71-5.6,1.7-11.16,3.52-16.79,5.12-7.33,2.09-14.71,4.05-22.07,6.04-6.27,1.69-12.58,3.23-18.81,5.07-3.58,1.06-7.05,2.51-10.52,3.91-1.74.7-2.29,2.33-2.14,4.04.13,1.52,2.24,3.06,4.03,2.97,1.11-.05,2.24-.38,3.3-.77,9.48-3.47,19.37-5.47,29.04-8.25,12.33-3.55,24.59-7.33,36.92-10.89,2-.58,2.72-1.63,2.61-3.53Zm-63.5,37.51c.65-.09,1.31-.13,1.95-.26,4.45-.91,8.86-2.07,13.35-2.7,6.02-.85,11.63-3.06,17.37-4.8,9.07-2.75,17.58-6.98,26.33-10.57,1.8-.74,3.57-1.73,5.11-2.93,2-1.55,1.88-3.72.16-5.57-2.13-2.28-4.25-1.06-6.29-.03-12.72,6.39-25.94,11.52-39.65,15.3-4.37,1.2-8.94,1.7-13.41,2.52-1.92.35-3.89.55-5.74,1.12-2.07.64-3.28,3.51-2.65,5.79.49,1.76,1.82,2.21,3.48,2.13Zm49.24-56.1c-.47.17-1.71.55-2.88,1.08-2.09.94-4.11,2.07-6.23,2.93-7.7,3.11-15.56,5.76-23.69,7.55-5.55,1.22-11.12,2.37-16.71,3.45-3.99.77-8.03,1.3-12.02,2.08-1.77.34-3.3,2.21-3.1,3.37.47,2.74,3.28,4.51,6.17,3.92,2.23-.45,4.46-1.13,6.71-1.24,6.73-.34,13.18-2.2,19.71-3.54,10.38-2.14,20.36-5.74,30.06-10,2.21-.97,4.15-2.59,6.15-4.01.47-.34.89-1.07.92-1.64.08-1.99-2.09-3.92-5.08-3.94Z"/>
  </g>
</svg>