<?xml version="1.0" encoding="UTF-8" standalone="no"?>
<svg
   clip-rule="evenodd"
   fill-rule="evenodd"
   stroke-linejoin="round"
   stroke-miterlimit="2"
   viewBox="0 0 1024 1024"
   version="1.1"
   id="svg5"
   xmlns="http://www.w3.org/2000/svg"
   xmlns:svg="http://www.w3.org/2000/svg">
  <defs
     id="defs5" />
  <rect
     style="fill:#ececec"
     id="rect5"
     width="1024"
     height="1024"
     x="0"
     y="0"
     rx="128" />
  <g
     id="g3"
     transform="matrix(1.1403552,0,0,1.1403552,-69.332719,-63.019557)">
    <g
       id="g2"
       transform="matrix(1.5553772,0,0,1.5553772,12.56009,-439.52347)">
      <path
         fill-rule="evenodd"
         clip-rule="evenodd"
         d="M 6.58685,2 C 4.0536,2 2,4.01072 2,6.49107 l 0.00181,-10e-6 C 2.00061,6.52834 2,6.56577 2,6.60334 c 0,1.44883 0.90411,2.6909 2.19006,3.21484 0.1414,0.05761 0.1414,0.36162 0,0.41922 C 2.90411,10.7613 2,12.0034 2,13.4522 c 0,0.0376 6.1e-4,0.075 0.00181,0.1123 H 2 c 0,2.4803 2.0536,4.4911 4.58685,4.4911 h 7.22425 c 2.5333,0 4.5869,-2.0108 4.5869,-4.4911 v -0.2489 c -0.0548,-1.3899 -0.9421,-2.5708 -2.1874,-3.0782 -0.1414,-0.0576 -0.1414,-0.36161 0,-0.41922 1.2453,-0.5074 2.1326,-1.68829 2.1874,-3.07824 V 6.49106 C 18.398,4.01072 16.3444,2 13.8111,2 Z m 0.80269,10.9722 c 0,0.1411 0.11681,0.2555 0.2609,0.2555 h 5.09706 c 0.1441,0 0.2609,-0.1144 0.2609,-0.2555 0,-0.1271 -0.0959,-0.2336 -0.2225,-0.2617 -1.2513,-0.2778 -2.1856,-1.3734 -2.1856,-2.6827 0,-1.3093 0.9343,-2.40494 2.1856,-2.68274 0.1266,-0.02811 0.2225,-0.13461 0.2225,-0.26172 0,-0.14108 -0.1168,-0.25545 -0.2609,-0.25545 H 7.65044 c -0.14409,0 -0.2609,0.11437 -0.2609,0.25545 0,0.12711 0.09591,0.23361 0.22252,0.26172 1.25136,0.2778 2.18558,1.37344 2.18558,2.68274 0,1.3093 -0.93422,2.4049 -2.18558,2.6827 -0.12661,0.0281 -0.22252,0.1346 -0.22252,0.2617 z"
         fill="#000000"
         id="path1"
         transform="matrix(11.052033,0,0,11.052033,114.12679,401.17242)" />
      <path
         d="m 25.5757,10.1901 c -0.5495,-0.53796 -0.5495,-1.41023 0,-1.94822 0.5494,-0.538 1.4403,-0.538 1.9898,0 l 1.6581,1.62354 c 0.5495,0.53798 0.5495,1.41028 0,1.94828 -0.5494,0.538 -1.4403,0.538 -1.9898,0 z"
         fill="#000000"
         id="path2"
         transform="matrix(11.052033,0,0,11.052033,114.12679,401.17242)" />
      <path
         fill-rule="evenodd"
         clip-rule="evenodd"
         d="M 19.2007,6.82789 C 19.2007,4.16152 21.4083,2 24.1315,2 h 6.5363 c 2.7232,0 4.9308,2.16152 4.9308,4.82789 v 6.39981 c 0,2.6663 -2.2076,4.8279 -4.9308,4.8279 h -6.5363 c -2.7232,0 -4.9308,-2.1616 -4.9308,-4.8279 z M 24.1315,7.277 c 0,-0.24804 0.2054,-0.44911 0.4587,-0.44911 h 5.6189 c 0.2533,0 0.4587,0.20107 0.4587,0.44911 v 5.5016 c 0,0.248 -0.2054,0.4491 -0.4587,0.4491 h -5.6189 c -0.2533,0 -0.4587,-0.2011 -0.4587,-0.4491 z"
         fill="#000000"
         id="path3"
         transform="matrix(11.052033,0,0,11.052033,114.12679,401.17242)" />
    </g>
    <g
       id="g1"
       transform="matrix(1.5553772,0,0,1.5553772,-585.70024,-144.69072)">
      <path
         d="m 36.86,2 c -0.2533,0 -0.4587,0.20107 -0.4587,0.44911 v 7.74709 c 0,4.3406 3.5938,7.8594 8.027,7.8594 h 7.9123 c 0.2534,0 0.4587,-0.2011 0.4587,-0.4492 v -3.9296 c 0,-0.2481 -0.2053,-0.4491 -0.4587,-0.4491 h -9.747 c -0.2533,0 -0.4587,-0.2011 -0.4587,-0.4491 V 2.44911 C 42.1349,2.20107 41.9295,2 41.6762,2 Z"
         fill="#000000"
         id="path4"
         transform="matrix(11.052033,0,0,11.052033,114.12679,401.17242)" />
      <path
         d="m 58.8769,2 c 0.2533,0 0.4587,0.20107 0.4587,0.44911 V 12.7786 c 0,0.248 0.2053,0.4491 0.4587,0.4491 h 4.0135 c 0.2533,0 0.4586,-0.2011 0.4586,-0.4491 V 2.44911 C 64.2664,2.20107 64.4718,2 64.7251,2 h 4.8162 C 69.7946,2 70,2.20107 70,2.44911 V 12.9185 c 0,0.1963 -0.0874,0.3828 -0.2394,0.5108 l -5.2362,4.4091 c -0.1664,0.1401 -0.3787,0.2172 -0.5982,0.2172 h -4.2504 c -0.2195,0 -0.4317,-0.0771 -0.5982,-0.2172 L 53.8414,13.4293 C 53.6894,13.3013 53.602,13.1148 53.602,12.9185 V 2.44911 C 53.602,2.20107 53.8074,2 54.0607,2 Z"
         fill="#000000"
         id="path5"
         transform="matrix(11.052033,0,0,11.052033,114.12679,401.17242)" />
    </g>
  </g>
</svg>
