<?xml version="1.0" encoding="UTF-8"?>
<svg width="80px" height="80px" viewBox="0 0 80 80" version="1.1" xmlns="http://www.w3.org/2000/svg" xmlns:xlink="http://www.w3.org/1999/xlink">
    <!-- Generator: Sketch 47.1 (45422) - http://www.bohemiancoding.com/sketch -->
    <title>voxer</title>
    <desc>Created with Sketch.</desc>
    <defs>
        <path d="M64.2711587,0.000133333333 C72.8905687,0.0354135778 79.9385219,7.06755951 79.9996,15.6811529 L79.9996,64.3188471 C79.9383681,72.9541355 72.8550211,80 64.206,80 L15.794,80 C7.10733333,80 0,72.8926667 0,64.206 L0,15.794 C0,7.12906282 7.07182016,0.0355675245 15.7288413,0.000133333333 L64.2711587,0.000133333333 L64.2711587,0.000133333333 Z" id="path-1"></path>
        <path d="M59.4754006,73.5002841 C58.2160247,73.8263935 56.8969677,74 55.5393333,74 L7.12733333,74 C4.6045891,74 2.21504785,73.4005585 0.0941125607,72.3370785 L0.0941137591,0.519751921 L59.4754006,0.519751921 L59.4754006,73.5002841 Z" id="path-3"></path>
    </defs>
    <g id="icons" stroke="none" stroke-width="1" fill="none" fill-rule="evenodd">
        <g id="voxer">
            <g id="Group">
                <g id="Page-1">
                    <g id="Group-3">
                        <mask id="mask-2" fill="white">
                            <use xlink:href="#path-1"></use>
                        </mask>
                        <g id="Clip-2"></g>
                        <path d="M64.2062667,80.0001333 L15.7936,80.0001333 C7.1076,80.0001333 -0.0004,72.8928 -0.0004,64.2061333 L-0.0004,15.7934667 C-0.0004,7.10746667 7.1076,0.000133333333 15.7936,0.000133333333 L64.2062667,0.000133333333 C72.8929333,0.000133333333 79.9996,7.10746667 79.9996,15.7934667 L79.9996,64.2061333 C79.9996,72.8928 72.8929333,80.0001333 64.2062667,80.0001333" id="Fill-1" fill="#EB6226" mask="url(#mask-2)"></path>
                    </g>
                    <g id="Group-6" transform="translate(8.666667, 6.000000)">
                        <mask id="mask-4" fill="white">
                            <use xlink:href="#path-3"></use>
                        </mask>
                        <g id="Clip-5"></g>
                        <path d="M6.74106667,74.0001333 C6.17573333,62.1188 4.72906667,50.3774667 1.1144,38.9888 C-1.57893333,30.5041333 1.03173333,23.8788 9.28373333,20.6241333 C13.9410667,18.7868 19.0730667,17.9068 24.0764,17.2694667 C28.3157333,16.7294667 33.1164,17.1334667 37.3217333,17.1334667 C37.3217333,17.1334667 37.1917333,16.3554667 37.1437333,16.1714667 C36.5030667,13.7101333 35.8244,11.2588 35.1757333,8.7988 C34.1857333,5.03946667 35.4024,2.58413333 38.7850667,1.47613333 C44.6164,-0.433866667 47.4177333,0.4468 48.9384,4.7528 C49.7857333,7.1528 50.4790667,9.60613333 51.2977333,12.0168 C57.6464,30.7034667 60.8050667,54.2201333 58.9470667,74.0001333" id="Fill-4" fill="#FEFEFE" mask="url(#mask-4)"></path>
                    </g>
                    <path d="M25.0685333,57.3708667 C25.0685333,57.3708667 28.5298667,60.3708667 37.3632,60.3708667 C49.3632,60.3708667 57.1965333,50.3708667 57.1965333,50.3708667" id="Stroke-7" stroke="#EB6226" stroke-width="4" stroke-linecap="round"></path>
                    <path d="M26.7479333,44.5375333 C26.7479333,46.2868667 25.3306,47.7042 23.5812667,47.7042 C21.8326,47.7042 20.4146,46.2868667 20.4146,44.5375333 C20.4146,42.7882 21.8326,41.3708667 23.5812667,41.3708667 C25.3306,41.3708667 26.7479333,42.7882 26.7479333,44.5375333" id="Fill-9" fill="#EB6226"></path>
                    <path d="M54.8188667,37.323 C55.4155333,38.967 54.5662,40.783 52.9215333,41.3796667 C51.2775333,41.9756667 49.4615333,41.1263333 48.8648667,39.4823333 C48.2688667,37.8383333 49.1182,36.0223333 50.7622,35.4256667 C52.4062,34.8296667 54.2222,35.679 54.8188667,37.323" id="Fill-11" fill="#EB6226"></path>
                </g>
            </g>
        </g>
    </g>
</svg>