<svg height="1024" viewBox="0 0 275.025 275.025" width="1024" xmlns="http://www.w3.org/2000/svg"><path d="M274.975 76.339a796.835 796.835 0 0 0-.106-8.253c-.12-6.171-.519-12.415-1.565-17.991-1.145-6.081-2.695-11.606-5.496-17.134-2.842-5.609-6.74-10.457-10.962-14.782-4.325-4.222-9.172-8.12-14.783-10.962-5.527-2.802-11.05-4.35-17.134-5.495C219.353.675 213.108.276 206.94.157c-2.077-.04-3.866-.067-8.256-.107-4.165-.039-7.585-.054-10.105-.054H86.449c-2.52 0-5.94.015-10.106.054-4.39.04-6.176.067-8.255.107C61.92.277 55.676.675 50.1 1.722c-6.082 1.144-11.607 2.693-17.135 5.495-5.608 2.842-10.457 6.74-14.78 10.962-4.223 4.325-8.122 9.173-10.964 14.782-2.8 5.528-4.35 11.053-5.494 17.134C.678 55.671.28 61.915.161 68.086a758.85 758.85 0 0 0-.108 8.253A1121.75 1121.75 0 0 0 0 86.445v102.13c0 2.52.015 5.94.053 10.106.04 4.39.069 6.178.108 8.255.118 6.17.517 12.413 1.565 17.989 1.143 6.084 2.693 11.607 5.494 17.134 2.842 5.611 6.74 10.459 10.963 14.783 4.324 4.222 9.173 8.12 14.781 10.963 5.528 2.8 11.053 4.351 17.135 5.494 5.577 1.047 11.82 1.447 17.99 1.566 2.078.04 3.865.065 8.254.106 4.167.04 7.587.054 10.107.054h102.129c2.52 0 5.94-.014 10.105-.054 4.39-.041 6.179-.066 8.256-.106 6.168-.119 12.413-.519 17.989-1.566 6.084-1.143 11.607-2.694 17.134-5.494 5.61-2.843 10.458-6.741 14.783-10.963 4.222-4.324 8.12-9.172 10.962-14.783 2.8-5.527 4.35-11.05 5.496-17.134 1.046-5.576 1.445-11.82 1.565-17.989.039-2.077.065-3.865.106-8.255.04-4.166.054-7.586.054-10.106V86.445c0-2.519-.014-5.94-.054-10.106" fill="#303f5c"/><path d="M131.847 92.646a18.062 18.062 0 0 0 3.365 4.5 17.243 17.243 0 0 0 4.488 3.174c1.621.786 3.346 1.279 5.096 1.407 1.742.125 3.344-.12 4.753-.672a9.28 9.28 0 0 0 3.576-2.494c.96-1.089 1.679-2.412 2.099-3.914.42-1.497.542-3.17.314-4.96-.23-1.79-.79-3.53-1.607-5.147a18.043 18.043 0 0 0-3.174-4.42 17.379 17.379 0 0 0-4.325-3.251c-1.59-.839-3.303-1.398-5.06-1.599-1.765-.203-3.408-.024-4.868.477a9.314 9.314 0 0 0-3.769 2.417c-1.03 1.091-1.805 2.441-2.263 3.989s-.595 3.287-.35 5.152c.244 1.864.847 3.671 1.725 5.341zm97.335 81.488c-.012-.31-.027-.614-.043-.92a67.62 67.62 0 0 0-.378-4.18c-.165-1.388-.36-2.775-.563-4.174-.204-1.4-.414-2.809-.61-4.239l-2.644-20.736-2.731-21.427a17.283 17.283 0 0 0-.42-2.153 13.217 13.217 0 0 0-.65-1.88 10.926 10.926 0 0 0-.872-1.621 9.807 9.807 0 0 0-1.086-1.373 9.571 9.571 0 0 0-1.341-1.172c-.485-.35-1.004-.662-1.559-.934s-1.146-.506-1.769-.706a16.044 16.044 0 0 0-1.977-.485c-.271-.05-.544-.094-.818-.138-.272-.042-.546-.082-.818-.122-.275-.039-.55-.08-.824-.122-.274-.04-.55-.085-.824-.132-.19-.033-.376-.061-.56-.09-.182-.026-.362-.053-.539-.074a21.025 21.025 0 0 0-1.008-.101c-.654-.046-1.247-.046-1.784.005s-1.019.154-1.445.316a3.565 3.565 0 0 0-1.126.663 3.717 3.717 0 0 0-.82 1.048c-.17.317-.313.673-.43 1.072a9.181 9.181 0 0 0-.27 1.328 15.263 15.263 0 0 0-.125 1.598c-.018.579-.012 1.206.017 1.882l2.411 25.557.535 5.483c.323 3.307.757 7.744 1.197 12.276l1.245 12.822c.355 3.675.617 6.411.687 7.175.098 1.086.225 2.05.319 2.892.094.842.156 1.564.126 2.168-.029.602-.149 1.089-.42 1.46-.272.371-.697.628-1.334.771-.011.003-.021.005-.032.006a.259.259 0 0 1-.035.005.167.167 0 0 1-.031.005.252.252 0 0 1-.032.003c-.496.034-.895-.389-1.216-1.04-.32-.655-.561-1.539-.74-2.428-.18-.89-.296-1.78-.369-2.452-.072-.671-.1-1.12-.1-1.12a4896.114 4896.114 0 0 1-2.932-25.96c-.4-3.623-.818-7.42-1.243-11.325l-.451-4.153-.442-4.038-.422-3.868-.402-3.641a22.884 22.884 0 0 0-.584-3.268 14.901 14.901 0 0 0-1.077-2.912 11.02 11.02 0 0 0-1.687-2.486 10.776 10.776 0 0 0-2.428-1.994c-.104-.063-.21-.124-.314-.185l-.323-.18a10.344 10.344 0 0 0-.678-.335 17.154 17.154 0 0 0-2.33-.855 26.717 26.717 0 0 0-2.37-.563 80.843 80.843 0 0 0-2.4-.417c-.805-.13-1.612-.259-2.42-.415a21.124 21.124 0 0 0-2.671-.35 13.577 13.577 0 0 0-2.142.031 9.12 9.12 0 0 0-1.854.368 6.732 6.732 0 0 0-1.56.71 5.844 5.844 0 0 0-1.258 1.056 6.399 6.399 0 0 0-1.024 1.549 8.831 8.831 0 0 0-.648 1.966 13.535 13.535 0 0 0-.265 2.386c-.025.865.015 1.8.122 2.804a513.812 513.812 0 0 1 .906 9.524 765.692 765.692 0 0 1 .751 9.519c.131 1.783.413 4.923.799 8.76.385 3.835.871 8.363 1.416 12.927.54 4.556 1.138 9.146 1.74 13.112.604 3.96 1.211 7.296 1.78 9.353.198.718.366 1.376.56 2.086.193.712.408 1.473.694 2.394.287.921.646 2.001 1.127 3.35.48 1.346 1.082 2.96 1.85 4.945-.611-.222-1.391-.3-2.28-.571-.888-.272-1.887-.738-2.932-1.733-1.05-.999-2.146-2.532-3.225-4.939-1.084-2.416-2.15-5.709-3.135-10.222-.29-1.827-.579-3.951-.861-6.277a414.414 414.414 0 0 1-.838-7.49c-.274-2.637-.54-5.382-.796-8.14a1484.526 1484.526 0 0 1-1.405-16.172l-.219-2.649c-.132-1.612-.269-3.225-.405-4.837a790.769 790.769 0 0 0-.876-9.678 484.392 484.392 0 0 0-.5-4.84 35.984 35.984 0 0 0-.345-2.45 24.33 24.33 0 0 0-.489-2.178 17.827 17.827 0 0 0-.649-1.927 13.687 13.687 0 0 0-.822-1.697l-.016.005a11.68 11.68 0 0 0-1.664-2.234 12.664 12.664 0 0 0-2.193-1.82 17.996 17.996 0 0 0-2.79-1.489 30.755 30.755 0 0 0-3.465-1.24 80.25 80.25 0 0 0-2.372-.667 78.626 78.626 0 0 0-4.846-1.116 78.175 78.175 0 0 0-2.463-.45 27.968 27.968 0 0 0-.772-.122 30.05 30.05 0 0 0-2.202-.24c-1.463-.1-2.795-.066-4 .11-1.208.178-2.288.498-3.246.967a8.45 8.45 0 0 0-2.512 1.862c-.72.776-1.32 1.706-1.807 2.795l.005.001c-.23.517-.435 1.07-.615 1.66-.18.59-.335 1.215-.466 1.878a25.32 25.32 0 0 0-.322 2.102 34.132 34.132 0 0 0-.183 2.328c-.011.241-.015.482-.021.724l-.013 1.646c.002.015 0 .031 0 .047a54.608 54.608 0 0 0 .1 2.415c.097 1.49.187 2.97.27 4.444s.163 2.94.238 4.403c.075 1.461.145 2.918.215 4.372.07 1.453.137 2.904.206 4.354.088 1.891.175 3.779.266 5.669.093 1.89.189 3.782.293 5.68.104 1.898.217 3.802.341 5.715.125 1.915.263 3.837.415 5.774.175 2.224.315 4.448.463 6.67.146 2.223.3 4.44.503 6.652.203 2.21.454 4.411.799 6.596a64.318 64.318 0 0 0 1.348 6.5c.582 2.208 1.372 4.143 2.362 5.815.988 1.667 2.174 3.071 3.555 4.224 1.375 1.148 2.94 2.044 4.694 2.702 1.742.654 3.669 1.073 5.77 1.27.601.054 1.159.096 1.691.13a34.18 34.18 0 0 0 1.525.051c.494.006.975-.002 1.46-.023.486-.02.976-.054 1.488-.1a43.57 43.57 0 0 0 1.58-.174c.558-.07 1.148-.152 1.786-.248.639-.096 1.324-.203 2.07-.323s1.554-.253 2.436-.398c2.523-.412 4.841-.776 7.028-1.112 2.167-.335 4.208-.644 6.19-.948 1.967-.3 3.877-.6 5.796-.913 1.907-.313 3.824-.64 5.811-1.004a929.79 929.79 0 0 1 8.528-1.52c2.788-.485 5.55-.96 8.286-1.432 2.707-.469 5.389-.938 8.045-1.42 2.629-.473 5.232-.96 7.81-1.468 1.721-.341 3.21-.901 4.482-1.684a10.497 10.497 0 0 0 3.159-2.99c.844-1.211 1.484-2.643 1.936-4.295.449-1.647.708-3.518.787-5.61l-.005-3.332zm-27.388-75.089a13.451 13.451 0 0 0 2.281 3.375 11.649 11.649 0 0 0 3.039 2.376c1.098.586 2.27.951 3.457 1.039 1.181.087 2.27-.108 3.225-.535a6.367 6.367 0 0 0 2.429-1.916c.652-.834 1.14-1.848 1.421-2.993s.359-2.421.195-3.784a13.048 13.048 0 0 0-1.117-3.908 13.579 13.579 0 0 0-2.183-3.332 11.842 11.842 0 0 0-2.955-2.418c-1.086-.618-2.247-1.022-3.439-1.15-1.196-.133-2.306.025-3.288.422a6.36 6.36 0 0 0-2.529 1.873c-.688.837-1.203 1.866-1.503 3.037-.3 1.175-.385 2.49-.212 3.896a13 13 0 0 0 1.179 4.018zm-29.084 3.732a14.925 14.925 0 0 0 2.674 3.763 13.397 13.397 0 0 0 3.566 2.635c1.289.646 2.661 1.045 4.055 1.133 1.387.087 2.663-.143 3.785-.628a7.538 7.538 0 0 0 2.848-2.163c.764-.936 1.336-2.072 1.67-3.354.332-1.28.426-2.704.24-4.223a13.93 13.93 0 0 0-1.3-4.356 14.972 14.972 0 0 0-2.544-3.71 13.677 13.677 0 0 0-3.458-2.689c-1.269-.685-2.632-1.131-4.029-1.271-1.403-.141-2.71.039-3.865.489a7.525 7.525 0 0 0-2.98 2.107c-.812.94-1.42 2.096-1.778 3.41-.357 1.317-.462 2.791-.264 4.366.2 1.571.68 3.091 1.38 4.491" fill="#5fa3de"/><path d="M122.108 204.615c-.265-.113-.474-.195-.657-.269-.183-.071-.342-.132-.51-.2-.167-.067-.343-.141-.562-.239l-.328-.14-.611-.262c-.22-.096-.441-.19-.614-.263a21.761 21.761 0 0 0-.33-.14c-1.614-.657-3.008-1.393-4.201-2.27a12.218 12.218 0 0 1-3-3.127c-.813-1.225-1.441-2.653-1.906-4.34-.466-1.69-.768-3.641-.93-5.911-.078-1.515-.15-3.024-.219-4.53a1038.229 1038.229 0 0 1-.367-8.966c-.056-1.486-.11-2.963-.161-4.438-.076-2.154-.148-4.295-.221-6.424a3435.75 3435.75 0 0 0-.22-6.344c-.076-2.1-.153-4.186-.237-6.258a770.758 770.758 0 0 0-.27-6.167c-.075-1.057-.065-1.928.044-2.638.11-.711.319-1.26.64-1.676.323-.417.757-.7 1.317-.877.559-.177 1.242-.249 2.063-.242l.234.003c.079.003.16.005.241.01.081.002.164.007.248.01l.255.015c.362.024.724.04 1.085.05.362.008.722.013 1.082.02s.72.012 1.078.024c.358.01.715.028 1.071.055.038.004.076.005.115.008l.114.005.112.003.112.003a5.362 5.362 0 0 0 1.76-.264c.535-.177 1.018-.446 1.446-.801s.802-.795 1.118-1.318a7.637 7.637 0 0 0 .78-1.807c.193-.66.317-1.305.367-1.936.051-.63.028-1.247-.071-1.847-.1-.6-.276-1.185-.53-1.75a7.95 7.95 0 0 0-1.011-1.65l-.136-.17a14.019 14.019 0 0 0-.288-.337 9.995 9.995 0 0 0-1.63-1.449 9.616 9.616 0 0 0-1.584-.905 11.157 11.157 0 0 0-1.686-.607 16.678 16.678 0 0 0-1.789-.384c-1.79-.289-3.179-.559-4.256-.938-1.08-.378-1.843-.866-2.383-1.587-.542-.723-.858-1.679-1.045-2.995-.187-1.318-.245-2.995-.27-5.159l-.008-.581-.005-.583a75.417 75.417 0 0 0-.018-1.166 20.545 20.545 0 0 0-.448-3.81 19.315 19.315 0 0 0-1.118-3.53 17.832 17.832 0 0 0-1.46-2.734 16.79 16.79 0 0 0-1.901-2.405 15.867 15.867 0 0 0-5.047-3.568 77.181 77.181 0 0 0-4.783-1.95 65.984 65.984 0 0 0-4.927-1.605 58.75 58.75 0 0 0-5.076-1.2 54.572 54.572 0 0 0-7.004-.865l-.594-.029a12.064 12.064 0 0 0-2.964.214 11.02 11.02 0 0 0-3.795 1.512 10.882 10.882 0 0 0-2.832 2.644c-.356.477-.68.989-.967 1.531-.288.545-.54 1.119-.754 1.724a14.038 14.038 0 0 0-.521 1.897 15.765 15.765 0 0 0-.273 2.058 71.405 71.405 0 0 0-.107 2.079c-.028.693-.047 1.39-.063 2.086-.016.695-.03 1.391-.045 2.087-.014.695-.03 1.392-.052 2.088-.023.662-.043 1.254-.07 1.781-.027.528-.06.991-.107 1.398a6.92 6.92 0 0 1-.191 1.055c-.083.3-.187.551-.32.761a1.721 1.721 0 0 1-.682.616c-.288.149-.641.244-1.079.301-.437.06-.959.08-1.581.08a69.568 69.568 0 0 1-2.195-.045 8.962 8.962 0 0 0-1.965.157 8.13 8.13 0 0 0-1.786.563 7.86 7.86 0 0 0-3.364 2.869 8.834 8.834 0 0 0-.427.728c-.131.251-.25.512-.358.778a9.256 9.256 0 0 0-.47 1.6 9.954 9.954 0 0 0-.123.803c-.015.135-.018.275-.027.412l-.008 1.284c.083 1.275.374 2.481.86 3.589a9.902 9.902 0 0 0 2.03 2.984c.86.871 1.897 1.611 3.098 2.187 1.196.575 2.552.99 4.053 1.214.994.149 1.812.382 2.479.71.664.325 1.18.745 1.57 1.269.39.522.654 1.148.819 1.888.164.74.228 1.593.215 2.57-.035 2.578-.067 5.16-.094 7.74a2026.908 2026.908 0 0 0-.103 15.512c-.006 2.588-.005 5.178.004 7.769l.008 2.154.012 2.154c.005.718.008 1.436.014 2.155l.019 2.154c.02 1.831.086 3.658.214 5.471.125 1.816.312 3.62.572 5.403.26 1.784.593 3.549 1.012 5.288a49.638 49.638 0 0 0 1.528 5.136 18.821 18.821 0 0 0 1.771 3.682 15.443 15.443 0 0 0 2.375 2.921 15.301 15.301 0 0 0 2.947 2.206 18.129 18.129 0 0 0 3.489 1.543 23.51 23.51 0 0 0 3.045.779c1.017.188 2.036.313 3.058.381a30.7 30.7 0 0 0 3.058.042 37.368 37.368 0 0 0 3.048-.237l.013-.001.056-.007h.013l.042-.006.04-.005a47.5 47.5 0 0 0 2.047-.301 55.534 55.534 0 0 0 2.035-.384c2.431-.502 4.84-1.019 7.232-1.541 2.373-.519 4.728-1.044 7.07-1.572 2.323-.526 4.632-1.056 6.933-1.582 2.28-.524 4.553-1.046 6.819-1.562l.968-.223c.321-.072.644-.146.965-.22l.962-.218.962-.217a45.104 45.104 0 0 0-1.002-.441zM73.596 79.306a19.72 19.72 0 0 0 3.311 4.084c1.252 1.169 2.637 2.12 4.107 2.775.336.149.67.282 1.006.401a12.607 12.607 0 0 0 1.988.532c.327.058.651.103.973.134 1.124.107 2.211.044 3.235-.17a9.64 9.64 0 0 0 2.84-1.076 9.023 9.023 0 0 0 2.286-1.871 9.034 9.034 0 0 0 1.572-2.561l.035-.092.033-.09c.01-.032.022-.063.033-.095l.033-.09c.006-.022.014-.04.022-.06l.022-.062.023-.059.022-.061a9.614 9.614 0 0 0 .37-1.553c.042-.27.075-.546.096-.827.02-.28.032-.566.033-.858a19.252 19.252 0 0 0-.167-2.631 19.835 19.835 0 0 0-.501-2.531 19.186 19.186 0 0 0-1.465-3.824 18.357 18.357 0 0 0-2.216-3.364 17.36 17.36 0 0 0-2.896-2.767 16.664 16.664 0 0 0-3.509-2.034 11.938 11.938 0 0 0-3.048-.858 10.944 10.944 0 0 0-1.797-.106 10.296 10.296 0 0 0-3.373.645 9.68 9.68 0 0 0-1.51.723c-.04.022-.08.047-.12.07-.04.025-.079.047-.118.072a4.145 4.145 0 0 0-.116.074l-.114.076c-.077.053-.153.105-.229.16a9.054 9.054 0 0 0-.222.164l-.218.17a10.242 10.242 0 0 0-.52.46 9.798 9.798 0 0 0-.577.601 8.99 8.99 0 0 0-1.757 3.07 9.595 9.595 0 0 0-.45 2.077 19.213 19.213 0 0 0-.067 1.002 12.64 12.64 0 0 0-.009.339c-.018 1.692.253 3.432.764 5.134a20.813 20.813 0 0 0 2.195 4.877" fill="#99d53f"/></svg>