<?xml version="1.0" encoding="UTF-8" standalone="no"?>
<svg
   width="192"
   height="192"
   viewBox="0 0 192 192"
   version="1.1"
   id="svg20"
   sodipodi:docname="icon.svg"
   xmlns:inkscape="http://www.inkscape.org/namespaces/inkscape"
   xmlns:sodipodi="http://sodipodi.sourceforge.net/DTD/sodipodi-0.dtd"
   xmlns:xlink="http://www.w3.org/1999/xlink"
   xmlns="http://www.w3.org/2000/svg"
   xmlns:svg="http://www.w3.org/2000/svg">
  <sodipodi:namedview
     id="namedview22"
     pagecolor="#ffffff"
     bordercolor="#000000"
     borderopacity="0.25"
     inkscape:showpageshadow="2"
     inkscape:pageopacity="0.0"
     inkscape:pagecheckerboard="0"
     inkscape:deskcolor="#d1d1d1"
     showgrid="false" />
  <defs
     id="defs10">
    <linearGradient
       id="linear-gradient"
       y1="0.5"
       x2="1"
       y2="0.5"
       gradientUnits="objectBoundingBox">
      <stop
         offset="0"
         stop-color="#e3156a"
         id="stop2" />
      <stop
         offset="1"
         stop-color="#91187f"
         id="stop4" />
    </linearGradient>
    <clipPath
       id="clip-logo_without_text">
      <rect
         width="192"
         height="192"
         id="rect7"
         x="0"
         y="0" />
    </clipPath>
    <linearGradient
       inkscape:collect="always"
       xlink:href="#linear-gradient"
       id="linearGradient186"
       gradientUnits="userSpaceOnUse"
       y1="810.18018"
       x2="-1568.6968"
       y2="810.18018"
       gradientTransform="scale(0.9311538,1.0739364)"
       x1="-1636.373" />
    <linearGradient
       inkscape:collect="always"
       xlink:href="#linear-gradient"
       id="linearGradient188"
       gradientUnits="userSpaceOnUse"
       y1="1026.4122"
       x2="-1172.385"
       y2="1026.4122"
       gradientTransform="scale(1.1634148,0.85953867)"
       x1="-1313.726" />
  </defs>
  <g
     id="logo_without_text"
     data-name="logo without text"
     clip-path="url(#clip-logo_without_text)">
    <g
       id="Group_46"
       data-name="Group 46"
       transform="translate(14,35)">
      <g
         id="Group_45"
         data-name="Group 45">
        <g
           id="Group_42"
           data-name="Group 42"
           transform="translate(13.064,34.188)">
          <path
             id="Path_170"
             data-name="Path 170"
             d="m -1461.505,851.181 a 70.211,70.211 0 0 1 -30.587,-17.439 70.253,70.253 0 0 1 -30.74,17.481 49.776,49.776 0 0 0 -0.882,9.351 49.745,49.745 0 0 0 30.936,45.848 49.54,49.54 0 0 0 32.08,-46.3 49.912,49.912 0 0 0 -0.807,-8.941 z m -32.907,36.595 h -0.01 l -18.858,-18.857 5.8,-5.813 13.07,13.07 20.44,-20.446 5.805,5.8 z m 32.907,-36.595 a 70.211,70.211 0 0 1 -30.587,-17.439 70.253,70.253 0 0 1 -30.74,17.481 49.776,49.776 0 0 0 -0.882,9.351 49.745,49.745 0 0 0 30.936,45.848 49.54,49.54 0 0 0 32.08,-46.3 49.912,49.912 0 0 0 -0.807,-8.941 z m -32.907,36.595 h -0.01 l -18.858,-18.857 5.8,-5.813 13.07,13.07 20.44,-20.446 5.805,5.8 z m 2.319,-54.034 a 70.253,70.253 0 0 1 -30.74,17.481 49.776,49.776 0 0 0 -0.882,9.351 49.745,49.745 0 0 0 30.936,45.848 49.54,49.54 0 0 0 32.08,-46.3 49.912,49.912 0 0 0 -0.807,-8.94 70.211,70.211 0 0 1 -30.586,-17.44 z m -2.319,54.034 h -0.01 l -18.858,-18.857 5.8,-5.813 13.07,13.07 20.44,-20.446 5.805,5.8 z m 32.907,-36.595 a 70.211,70.211 0 0 1 -30.587,-17.439 70.253,70.253 0 0 1 -30.74,17.481 49.776,49.776 0 0 0 -0.882,9.351 49.745,49.745 0 0 0 30.936,45.848 49.54,49.54 0 0 0 32.08,-46.3 49.912,49.912 0 0 0 -0.807,-8.941 z m -32.907,36.595 h -0.01 l -18.858,-18.857 5.8,-5.813 13.07,13.07 20.44,-20.446 5.805,5.8 z m 32.907,-36.595 a 70.211,70.211 0 0 1 -30.587,-17.439 70.253,70.253 0 0 1 -30.74,17.481 49.776,49.776 0 0 0 -0.882,9.351 49.745,49.745 0 0 0 30.936,45.848 49.54,49.54 0 0 0 32.08,-46.3 49.912,49.912 0 0 0 -0.807,-8.941 z m -32.907,36.595 h -0.01 l -18.858,-18.857 5.8,-5.813 13.07,13.07 20.44,-20.446 5.805,5.8 z"
             transform="translate(1523.715,-833.742)"
             fill="url(#linear-gradient)"
             style="fill:url(#linearGradient186)" />
        </g>
        <g
           id="Group_44"
           data-name="Group 44">
          <g
             id="Group_43"
             data-name="Group 43">
            <path
               id="Path_171"
               data-name="Path 171"
               d="m -1365.831,827.564 a 13.031,13.031 0 0 0 -1.9,-2.387 c -0.221,-0.224 -0.458,-0.436 -0.7,-0.64 a 12.572,12.572 0 0 0 -7.488,-3.04 h -95.881 a 12.571,12.571 0 0 0 -7.488,3.04 6.589,6.589 0 0 0 -0.687,0.64 12.315,12.315 0 0 0 -1.9,2.37 12.682,12.682 0 0 0 -1.879,6.662 v 5 l -1.589,1.639 -0.274,0.29 a 82.04,82.04 0 0 1 -38.151,22.35 c -0.366,0.1 -0.737,0.2 -1.111,0.29 l -1.617,0.4 -0.357,1.622 c -0.125,0.586 -0.246,1.181 -0.363,1.778 a 67.17,67.17 0 0 0 -1.192,12.612 66.477,66.477 0 0 0 12.037,38.276 66.735,66.735 0 0 0 27.909,22.956 c 0.96,0.424 1.929,0.824 2.915,1.206 l 0.927,0.357 0.932,-0.34 c 1.268,-0.449 2.516,-0.943 3.75,-1.46 a 66.933,66.933 0 0 0 31.877,-28.445 h 71.364 a 12.628,12.628 0 0 0 8.225,-3.035 c 0.257,-0.212 0.486,-0.425 0.723,-0.662 a 13.245,13.245 0 0 0 1.9,-2.382 12.65,12.65 0 0 0 1.879,-6.654 v -65.8 a 12.741,12.741 0 0 0 -1.861,-6.643 z m -105.859,0.009 c 0.22,-0.017 0.443,-0.025 0.673,-0.025 h 94.334 c 0.229,0 0.45,0.008 0.67,0.025 h 1 l -0.161,0.145 -46.692,41.311 a 2.983,2.983 0 0 1 -3.946,0 l -46.691,-41.311 -0.162,-0.145 z m -5.975,6.636 a 6.509,6.509 0 0 1 0.494,-2.516 l 40.03,35.431 -2.857,2.524 q -0.218,-1.478 -0.511,-2.932 c -0.05,-0.315 -0.109,-0.619 -0.178,-0.935 l -0.346,-1.639 -1.626,-0.4 c -0.391,-0.1 -0.781,-0.2 -1.173,-0.3 a 82.218,82.218 0 0 1 -33.833,-18.366 z m -6.874,103.054 a 61.95,61.95 0 0 1 -38.5,-57.075 61.877,61.877 0 0 1 1.105,-11.634 87.3,87.3 0 0 0 38.251,-21.767 87.316,87.316 0 0 0 38.066,21.713 61.8,61.8 0 0 1 1.01,11.135 61.673,61.673 0 0 1 -39.932,57.628 z m 39.56,-30.6 a 66.556,66.556 0 0 0 5.73,-27.024 c 0,-0.835 -0.017,-1.658 -0.051,-2.49 l 6.737,-5.967 6.748,5.967 a 2.983,2.983 0 0 0 3.946,0 l 6.746,-5.967 39.92,35.311 0.187,0.171 z m 74.941,-6.654 a 6.525,6.525 0 0 1 -0.492,2.507 l -40,-35.389 40.012,-35.406 a 6.568,6.568 0 0 1 0.483,2.49 z"
               transform="translate(1528.394,-821.497)"
               fill="url(#linear-gradient)"
               style="fill:url(#linearGradient188)" />
          </g>
        </g>
      </g>
    </g>
  </g>
</svg>
