<svg height="47" width="47" xmlns="http://www.w3.org/2000/svg" xmlns:xlink="http://www.w3.org/1999/xlink"><filter id="a" color-interpolation-filters="sRGB" height="1.2398" width="1.2936" x="-.14682" y="-.1199"><feGaussianBlur stdDeviation=".14193438"/></filter><linearGradient id="b" gradientUnits="userSpaceOnUse" x1="438.70041" x2="351.701295" y1="317.00509" y2="361.966265"><stop offset="0" stop-color="#2a2a2a"/><stop offset="1" stop-color="#515151"/></linearGradient><g transform="matrix(.36292 0 0 .36292 -131.67 -80.4)"><path d="m393.83 366.85c-.69448 1.1996-2.5254 5.7452-2.5254 5.7452h46.467l12.753-39.017 2.3177-5.2002c-3.784-14.138-10.384-24.991-16.149-36.817 3.9427-6.6749 8.0148-13.21 10.903-20.231l-11.357-18.386-29.769 4.1534-4.4196 30.179 11.964 10.357z" fill="#fff" stroke="#023c59"/><path d="m444.43 282.78c.82311 1.0648.69919 1.452 2.07 3.3494l-.10971-7.1178s2.9505 1.3488 2.7389.8093c-.86345-2.1259-2.1812-4.0852-3.1623-5.8929-3.092 6.2336-6.4117 12.047-9.1319 16.445 2.4465-2.1495 5.4387-4.1371 7.595-7.5933z" fill="#000c14"/><path d="m366.47 316.69c1.511-.71428 78.582-4.9694 78.582-4.9694l-5.4892 48.909-74.071-1.2608z" fill="#490d0d"/><path d="m366.43 317.06c.54186 0 77.48-4.2395 77.48-4.2395l-4.4181 47.95s-71.707-.18062-74.868 0c.00001-1.3095 1.8062-43.71 1.8062-43.71z" fill="#fff" fill-opacity=".11765"/><path d="m366.43 317.06c.54186 0 76.854-3.793 76.854-3.793l-3.7931 47.503s-71.707-.18062-74.868 0c.00001-1.3095 1.8062-43.71 1.8062-43.71z" fill="url(#b)"/><path d="m411.83 283.41c-.23082-.26419-1.8187 2.0014-3.8682 3.5413l.48205-6.0602s-3.8828.66292-3.5987.15784c1.932-2.7561 3.6608-4.7671 5.4383-6.2093.13739.91813 1.3471 4.7126 1.7825 5.8748.80212-.58576.96582-.98407 1.6997-1.9319.98485 5.8186 5.6805 12.317 5.5958 14.604.1363-.61641-5.9728-8.192-7.5315-9.9761z" fill="#000c14"/><g stroke-linecap="round" stroke-linejoin="round"><path d="m386.08 349.95c-.29677.76687-1.602 18.789-1.7028 19.024 4.2602-.0417 7.7421-1.3615 10.885-2.9904m11.28-52.121c.82543-.13199 6.1306-.27904 6.1954-.47302 6.3109-18.89 4.5659-13.914 6.5134-19.845.19129-.5826-5.9178-8.1582-7.4765-9.9423-.23082-.26419-1.8187 2.0014-3.8682 3.5413l.48205-6.0602s-3.8828.66292-3.5987.15784c.2841-.50507 5.1139-6.1872 5.1139-6.1872l-5.8399.85232c3.6628-4.1343 4.0653-9.0079 4.2259-14.526l3.0661-3.2144c-.91008-12.436 18.397-8.7004 26.247-12.324 1.9276-6.5818 13.154-13.796 13.693-19.741l-18.874.85325c-3.2656 1.5579-6.5311 2.6312-9.7967 5.1694-.38361-5.0764-.64233-8.8022-.3125-10.074-10.146 2.6013-18.417 11.574-26.835 20.049-4.2007 6.9163-.40263 23.193-7.8287 31.694 3.8082 4.1764 7.7915 8.1427 9.9753 14.268-16.252 16.893-6.8917 23.623-22.35 44.447 7.747 10.41 13.412 21.216 16.162 32.577l17.551 3.7881 7.7024-7.8724-11.996.0947c-3.1298-10.174-5.5202-19.645-5.8084-29.345 3.6575-8.9418 6.6021-16.735 13.132-30.305" fill="#006ea1" stroke="#023c59"/><path d="m393.58 248.23c.625 0 21.111.91452 21.111.91452-2.4743 2.5605-2.9498 4.7215-3.125 9.0179l-18.39-6.0601z" stroke="#000"/><path d="m416.13 247.74c-3.1356-2.156-7.5808-3.1564-12.122-4.0722l9.8806.0316v-3.504c2.3105 1.1273 4.1511 2.9595 5.9662 4.8298v-4.2616c1.9002 1.3785 3.4873 3.2936 4.7982 5.6821l5.6821-.47351c1.0451-2.3456 2.2543-4.6474 4.5457-6.6607v3.283c1.4427-1.6814 2.7802-3.573 4.7035-4.2932 0 0-.0316 3.6934 0 3.6934h7.0395c-3.3846 1.0178-7.3454 1.6129-8.3338 4.3879z" fill="#000c14" stroke="#000"/><path d="m436.86 291.62c2.1744.56821 23.188 29.547 22.549 28.853-.66494-.72281 11.843-11.53 11.843-11.53 1.0792-4.8586 1.3227-9.7172.88705-14.576l-7.5315-11.238 12.943 7.3867 5.2478-1.1377 7.1897 14.396-4.7982 2.7148c-4.8284 15.374-15.489 27.443-25.128 40.09 0 0-6.6923-9.8806-9.4702-12.374-.63032-.56585 2.336-5.8715 2.336-5.8715-3.1818-12.104-10.296-25.059-16.068-36.713z" fill="#006ea1" stroke="#023c59"/><path d="m477.68 290.52c-.37881.59977-3.8196 5.5874-3.8196 5.5874l11.301 10.417" fill="none" stroke="#023c59"/></g><path d="m424.77 260.84-7.6339 5.1339 8.2589 7.6339c-1.8594-3.6139-6.7409-6.0525-.625-12.768z" fill-opacity=".1164"/><path d="m432.14 254.86c-.20641.17857-12.732 11.295-12.5 11.295 3.0824 4.5849 7.5884 8.763 13.17 12.634 11.548-4.1532 16.482-14.727 38.973-8.2589-10.365-7.7473-25.27-11.472-39.643-15.67z" fill="#ffe300" stroke="#a59c00" stroke-opacity=".99216"/><path d="m411.96 258.3c1.6306 7.512 9.0132 3.5652 14.023.87592 3.2082-1.3185 5.1693-4.942 6.1611-4.7869 2.4725.86974 10.443 3.3954 11.053 1.3014 1.4614-2.4518-1.5126-10.096-5.0316-9.6672-8.2258 1.3158-27.498-4.2993-26.205 12.277z" fill="#96d8ff" stroke="#000"/><path d="m424.63 267.09c.67618 1.8256.94929 4.4174 2.0345 6.7218 2.0787-1.3857 4.8907-2.3951 7.1674-2.9495-3.6645-.17325-7.711-1.1746-9.2019-3.7723z" fill="#fff"/><path d="m466.29 269.06c-13.511-6.5975-34.664 8.4525-41.741-2.4554.27971 2.2456.60947 5.0656 2.0573 7.3946 3.2677-1.719 6.33-2.4015 9.8224-3.4464" fill="none" stroke="#a59c00" stroke-linecap="round" stroke-linejoin="round" stroke-opacity=".99216"/><path d="m438.41 261.14c-.31291.0783 3.6243.90027 3.7533 1.1031-.66032-1.0365-2.2003-1.4918-3.7533-1.1031z" fill="none" stroke="#a59c00" stroke-linecap="round" stroke-linejoin="round" stroke-opacity=".99216"/><path d="m468.82 334.46-8.7248 11.26c-3.1415-4.5067-5.8982-8.4461-9.0987-11.789.12197-.74187.47756-1.5113.68241-2.0115 5.7704 6.6657 11.475 7.2434 17.141 2.5408z" fill-opacity=".2963"/><path d="m436.58 290.76c-3.4322 2.9705-4.6015 3.6423-8.856 3.019 5.1377 2.1605 6.091 1.7676 8.856-3.019z" fill-opacity=".1164"/><path d="m418.24 372.07c-6.4679.0561-20.813.0101-26.184.0126.73861-1.8594 1.412-3.4745 2.2791-5.0865 4.5444.7702 18.516 3.0995 23.905 5.0739z" fill-opacity=".1164"/><path d="m481.17 302.18c-2.9915-2.7784-3.4627-3.2277-6.6553-6.1525 1.5188-2.2334 2.8973-4.212 3.2836-4.7911-.17818 3.2264.71427 5.2002 3.3716 10.944z" fill-opacity=".2963"/><path d="m408.84 368.32c-4.016-.87434-12.817-2.7487-17.002-3.6628-.63045-2.6247-1.5312-5.3751-2.2108-7.3417 2.4616 2.2914 12.388 13.268 23.457 6.9502-1.2712 1.2665-2.3344 2.2153-4.2446 4.0543z" fill-opacity=".2963"/><path d="m432.72 279.37-1.1522 1.2785.99436 1.5626 1.3258-1.5152z" fill-opacity=".11765" filter="url(#a)"/></g></svg>