<?xml version="1.0" encoding="UTF-8"?>
<svg version="1.1" xmlns="http://www.w3.org/2000/svg" width="630" height="630">
<path d="M0 0 C2.70665595 0.00016124 5.4126255 -0.01354082 8.11914062 -0.04101562 C35.88551305 -0.31819725 62.0444591 3.1744249 88.84179688 10.37060547 C89.69612305 10.59441895 90.55044922 10.81823242 91.43066406 11.04882812 C146.30387348 25.59837811 193.46659531 57.07579009 233.27929688 96.68310547 C234.4160083 97.81268677 234.4160083 97.81268677 235.57568359 98.96508789 C239.87650571 103.27879816 243.94133304 107.69128515 247.84179688 112.37060547 C256.64223681 101.62524072 265.28374256 90.79225764 273.61132812 79.67529297 C274.06805908 79.07031982 274.52479004 78.46534668 274.99536133 77.84204102 C275.8756466 76.67572289 276.75072281 75.50545007 277.61987305 74.33081055 C278.64675047 72.97378266 279.73885169 71.66656606 280.84179688 70.37060547 C281.50179687 70.37060547 282.16179688 70.37060547 282.84179688 70.37060547 C282.23987977 74.34694727 280.99211153 77.32224356 279.06835938 80.84326172 C278.2089978 82.4266333 278.2089978 82.4266333 277.33227539 84.04199219 C276.71666748 85.16105957 276.10105957 86.28012695 275.46679688 87.43310547 C274.84281006 88.58311035 274.21882324 89.73311523 273.57592773 90.91796875 C270.57860559 96.43766755 267.53663335 101.93007431 264.43164062 107.39013672 C263.66182861 108.75416626 263.66182861 108.75416626 262.87646484 110.14575195 C261.91392374 111.84560274 260.94069067 113.53945492 259.95556641 115.22631836 C259.31337158 116.36121704 259.31337158 116.36121704 258.65820312 117.51904297 C258.28123291 118.17050293 257.9042627 118.82196289 257.51586914 119.49316406 C256.65855085 121.88098645 256.95504535 123.02031236 257.84179688 125.37060547 C259.21257106 127.40626371 260.61423813 129.35329981 262.09179688 131.30810547 C293.39380243 174.03810093 311.70280293 224.10539329 318.84179688 276.37060547 C319.01759277 277.53180908 319.19338867 278.6930127 319.37451172 279.8894043 C320.09229491 285.73140354 320.0439544 291.59785534 320.08007812 297.47607422 C320.08814987 298.74993484 320.09622162 300.02379547 320.10453796 301.33625793 C320.119511 304.03854224 320.12936467 306.74080102 320.13696289 309.44311523 C320.14568614 312.14908327 320.16623508 314.85451457 320.19848633 317.56030273 C320.5079991 345.66717502 317.26346957 372.22326029 309.84179688 399.37060547 C309.58027832 400.33659668 309.31875977 401.30258789 309.04931641 402.29785156 C300.36043692 433.86620552 286.2363529 464.29117268 267.84179688 491.37060547 C267.20661133 492.31202393 267.20661133 492.31202393 266.55859375 493.27246094 C249.69722716 518.07684056 228.61551408 542.03284675 204.84179688 560.37060547 C203.83761719 561.19173828 202.8334375 562.01287109 201.79882812 562.85888672 C186.94572701 574.96157799 170.7859247 585.44757182 153.84179688 594.37060547 C153.06384766 594.78874512 152.28589844 595.20688477 151.484375 595.63769531 C120.36559744 612.28417644 86.66330258 622.92230785 51.84179688 628.37060547 C50.67914307 628.55824463 49.51648926 628.74588379 48.31860352 628.93920898 C35.33308234 630.76092754 22.33606786 630.70813764 9.24291992 630.6862793 C5.31140068 630.68313118 1.38064492 630.70661079 -2.55078125 630.73193359 C-22.71993421 630.783449 -42.51883272 629.48488205 -62.15820312 624.62060547 C-63.2288501 624.36239014 -64.29949707 624.1041748 -65.40258789 623.83813477 C-68.66080431 623.03860624 -71.91033183 622.21109617 -75.15820312 621.37060547 C-76.16351074 621.1129541 -77.16881836 620.85530273 -78.20458984 620.58984375 C-121.64824432 609.25393194 -161.66324514 587.9400492 -196.15820312 559.37060547 C-197.14304687 558.57138672 -198.12789063 557.77216797 -199.14257812 556.94873047 C-206.80660268 550.62947327 -213.92806046 543.80990687 -220.97070312 536.80810547 C-222.27744995 535.5151355 -222.27744995 535.5151355 -223.6105957 534.19604492 C-229.5495489 528.22885134 -234.91136817 521.9488128 -240.15820312 515.37060547 C-241.17046677 514.15036128 -242.18562721 512.93250774 -243.20507812 511.71826172 C-255.27363439 497.14478725 -265.31296631 481.07638044 -274.15820312 464.37060547 C-274.49126465 463.74299316 -274.82432617 463.11538086 -275.16748047 462.46875 C-292.97958124 428.58845117 -304.17833112 392.29521655 -309.15820312 354.37060547 C-309.28751976 353.43984444 -309.28751976 353.43984444 -309.41944885 352.49028015 C-310.28107086 345.70990431 -310.35445172 338.96055402 -310.39648438 332.13232422 C-310.40455612 330.85750687 -310.41262787 329.58268951 -310.42094421 328.26924133 C-310.43589925 325.56873723 -310.44576272 322.86825852 -310.45336914 320.16772461 C-310.46210686 317.46175765 -310.48269658 314.75632493 -310.51489258 312.05053711 C-310.81985472 284.31261184 -307.43415402 258.129304 -300.15820312 231.37060547 C-299.89668457 230.40316406 -299.63516602 229.43572266 -299.36572266 228.43896484 C-282.70265492 167.9090703 -245.19309775 108.96481507 -195.15820312 70.37060547 C-193.65193359 69.13890625 -193.65193359 69.13890625 -192.11523438 67.88232422 C-177.26213326 55.77963295 -161.10233095 45.29363912 -144.15820312 36.37060547 C-143.38025391 35.95246582 -142.60230469 35.53432617 -141.80078125 35.10351562 C-110.62298415 18.42546296 -77.0027779 7.96339889 -42.15820312 2.37060547 C-41.07845215 2.18369141 -39.99870117 1.99677734 -38.88623047 1.80419922 C-25.99523605 -0.14607955 -13.01007044 -0.00403441 0 0 Z " fill="#0B77D2" transform="translate(310.158203125,-0.37060546875)"/>
<path d="M0 0 C0.66 0 1.32 0 2 0 C1.39782154 3.95551229 0.16742714 6.92956128 -1.73828125 10.4375 C-2.30571045 11.4881665 -2.87313965 12.53883301 -3.45776367 13.62133789 C-4.37585815 15.29377563 -4.37585815 15.29377563 -5.3125 17 C-5.93680908 18.14525146 -6.56111816 19.29050293 -7.2043457 20.47045898 C-9.12479708 23.98666366 -11.06197518 27.49345126 -13 31 C-13.59006836 32.0739502 -14.18013672 33.14790039 -14.78808594 34.25439453 C-16.4093296 37.19725374 -18.04487318 40.13153338 -19.6875 43.0625 C-20.17968018 43.95388672 -20.67186035 44.84527344 -21.17895508 45.76367188 C-21.63939209 46.57513672 -22.0998291 47.38660156 -22.57421875 48.22265625 C-22.97213623 48.93172119 -23.37005371 49.64078613 -23.7800293 50.37133789 C-25 52 -25 52 -28 53 C-28.73395686 54.97629749 -29.3906963 56.98178459 -30 59 C-30.91358563 60.87852815 -31.87314652 62.73520813 -32.87109375 64.5703125 C-33.44061768 65.62275146 -34.0101416 66.67519043 -34.59692383 67.75952148 C-35.20431396 68.87012939 -35.8117041 69.9807373 -36.4375 71.125 C-37.05842529 72.26976807 -37.67935059 73.41453613 -38.3190918 74.59399414 C-41.30488007 80.09055024 -44.31281573 85.57467986 -47.3359375 91.05078125 C-47.84068604 91.96520996 -48.34543457 92.87963867 -48.86547852 93.82177734 C-49.8109043 95.53078559 -50.75918845 97.23821654 -51.71069336 98.94384766 C-52.13229736 99.70358887 -52.55390137 100.46333008 -52.98828125 101.24609375 C-53.35477783 101.90279053 -53.72127441 102.5594873 -54.09887695 103.23608398 C-55.13537764 105.15616093 -55.13537764 105.15616093 -56 108 C-56.66 108 -57.32 108 -58 108 C-58.21914063 108.78375 -58.43828125 109.5675 -58.6640625 110.375 C-60.44039844 115.19499926 -62.87870873 119.51938611 -65.375 124 C-66.47150451 125.98819834 -67.56785459 127.97648186 -68.6640625 129.96484375 C-69.22254883 130.97401855 -69.78103516 131.98319336 -70.35644531 133.02294922 C-72.35896532 136.6502114 -74.33993669 140.28888765 -76.31860352 143.92919922 C-81.8243521 154.05797361 -87.39132225 164.15257134 -92.96951294 174.24154663 C-97.5873148 182.59542705 -102.15987317 190.97177987 -106.6875 199.375 C-110.78137428 206.97246029 -114.97017685 214.50585889 -119.25 222 C-124.91099859 231.92126625 -130.2729075 241.98619814 -135.60140991 252.08807373 C-140.62044137 261.59742128 -145.77320436 271.00801389 -151.1171875 280.33984375 C-155.56694171 288.14623638 -159.79607962 296.05968981 -164 304 C-169.20754705 313.8355358 -174.53979994 323.57705675 -180.06640625 333.23828125 C-184.89129374 341.71443494 -189.46206313 350.3168206 -194.02471924 358.93569946 C-199.02931951 368.38333017 -204.18484978 377.72750338 -209.48828125 387.01171875 C-213.20511091 393.53702569 -216.73761094 400.13837272 -220.19506836 406.80395508 C-223.98166124 414.06140123 -228.03163941 421.16003182 -232.08911133 428.26855469 C-236.42709465 435.90299336 -240.5500561 443.63487285 -244.57397461 451.43896484 C-244.99686768 452.2583252 -245.41976074 453.07768555 -245.85546875 453.921875 C-246.22309326 454.63956055 -246.59071777 455.35724609 -246.96948242 456.09667969 C-248 458 -248 458 -250 461 C-254.24963589 460.49045133 -256.85645412 457.84672944 -259.9375 455.125 C-261.1001266 454.1196369 -262.26289092 453.11443304 -263.42578125 452.109375 C-264.0182666 451.59310547 -264.61075195 451.07683594 -265.22119141 450.54492188 C-268.00151935 448.13016546 -270.81246308 445.75208269 -273.625 443.375 C-274.16640625 442.91617432 -274.7078125 442.45734863 -275.265625 441.98461914 C-278.62736526 439.14080965 -282.02009906 436.33945099 -285.4375 433.5625 C-289.55762781 430.20932239 -293.60335635 426.78216444 -297.625 423.3125 C-302.85678044 418.80004405 -308.15553558 414.37832193 -313.5 410 C-319.4370966 405.13617863 -325.3027093 400.20156658 -331.11328125 395.1875 C-335.39951079 391.49520527 -339.76388488 387.90931698 -344.15625 384.34375 C-347.47686594 381.60697862 -350.74043709 378.80893615 -354 376 C-359.01591689 371.67827137 -364.09175299 367.44520804 -369.23046875 363.26953125 C-375.10799411 358.45311061 -380.87611914 353.505057 -386.66601562 348.58398438 C-392.22068034 343.8648039 -397.78059925 339.15924951 -403.4375 334.5625 C-408.30049424 330.60556582 -413.05700203 326.53564058 -417.80615234 322.44384766 C-422.22308718 318.64598499 -426.70953997 314.94319959 -431.23046875 311.26953125 C-437.10799411 306.45311061 -442.87611914 301.505057 -448.66601562 296.58398438 C-454.22068034 291.8648039 -459.78059925 287.15924951 -465.4375 282.5625 C-469.68393133 279.10725238 -473.8528055 275.57284676 -478 272 C-486.27339297 264.87737508 -494.64274072 257.91089435 -503.41796875 251.41015625 C-503.94003906 250.94480469 -504.46210938 250.47945312 -505 250 C-505 249.34 -505 248.68 -505 248 C-500.23743972 249.51369275 -495.66604049 251.32729423 -491.06640625 253.265625 C-490.31141342 253.58150574 -489.55642059 253.89738647 -488.77854919 254.22283936 C-486.37233883 255.22985318 -483.96733382 256.2397038 -481.5625 257.25 C-470.41120408 261.92926545 -459.24068895 266.53934873 -448 271 C-441.50500836 273.5897104 -435.01896817 276.20091913 -428.5390625 278.828125 C-426.74870279 279.55339744 -424.95833803 280.27865744 -423.16796875 281.00390625 C-420.41317923 282.12010867 -417.65844363 283.23644372 -414.90380859 284.35302734 C-403.47692271 288.98443352 -392.04196115 293.59463603 -380.59130859 298.16699219 C-379.84493134 298.46504257 -379.09855408 298.76309296 -378.32955933 299.07017517 C-376.68630093 299.72606852 -375.04282759 300.38142348 -373.39920044 301.03639221 C-369.02504663 302.78161227 -364.66030268 304.54212689 -360.3203125 306.37109375 C-353.20321357 309.34698337 -346.04046267 312.2058163 -338.875 315.0625 C-337.56897739 315.58390166 -336.26298769 316.10538575 -334.95703125 316.62695312 C-328.15754838 319.34310825 -328.15754838 319.34310825 -321.35449219 322.05029297 C-313.40048017 325.21393183 -305.50050103 328.50812313 -297.59521484 331.79101562 C-294.51686196 333.06897206 -291.43736491 334.34387321 -288.35546875 335.61328125 C-286.27030342 336.47502012 -284.18880977 337.34577121 -282.11328125 338.23046875 C-277.35023578 340.22648024 -273.15496872 341.55174185 -268 342 C-267.41734375 341.23558594 -266.8346875 340.47117187 -266.234375 339.68359375 C-258.90671523 330.09882074 -251.38200455 320.67945207 -243.8125 311.28515625 C-239.78134474 306.27059417 -235.83139582 301.19864812 -231.91699219 296.09277344 C-224.55871827 286.50302904 -217.04418144 277.03844551 -209.4831543 267.6081543 C-204.73505738 261.68128303 -200.04200303 255.71215367 -195.35888672 249.73388672 C-193.07546702 246.8203318 -190.78752803 243.91032965 -188.5 241 C-185.71334562 237.45429795 -182.92745509 233.90800615 -180.14453125 230.359375 C-175.3974666 224.30825227 -170.62926315 218.27639973 -165.81640625 212.27734375 C-163.50617046 209.38085457 -161.23445409 206.45570721 -158.96484375 203.52734375 C-155.14818612 198.61804457 -151.29681141 193.73590454 -147.45263672 188.84814453 C-146.01020011 187.01297728 -144.56930522 185.17661062 -143.12890625 183.33984375 C-137.78811643 176.53100445 -132.41950303 169.74650069 -127 163 C-121.17693527 155.74927268 -115.41229978 148.46040582 -109.76171875 141.07421875 C-104.74330092 134.51566579 -99.64457827 128.03131718 -94.46875 121.59619141 C-91.19688665 117.52003002 -87.98345039 113.40503845 -84.8125 109.25 C-81.07292441 104.35068261 -77.20822082 99.56974903 -73.28515625 94.81640625 C-70.33866654 91.18492064 -67.49757667 87.47860775 -64.65795898 83.76342773 C-61.53571222 79.68253804 -58.34731283 75.66137819 -55.12890625 71.65625 C-48.56089317 63.4612979 -42.08525343 55.22494645 -35.94921875 46.69921875 C-30.30241948 38.87970313 -24.44473373 31.22540766 -18.45800781 23.66430664 C-15.69293207 20.16947796 -12.96197662 16.65162357 -10.2578125 13.109375 C-9.30684692 11.86921631 -9.30684692 11.86921631 -8.33666992 10.60400391 C-7.08444815 8.96946735 -5.83709122 7.33119069 -4.5949707 5.68896484 C-4.02609131 4.94855957 -3.45721191 4.2081543 -2.87109375 3.4453125 C-2.36505615 2.78031738 -1.85901855 2.11532227 -1.33764648 1.43017578 C-0.89622314 0.95821777 -0.4547998 0.48625977 0 0 Z " fill="#FCFDFE" transform="translate(591,70)"/>
<path d="M0 0 C5.75 1.75 5.75 1.75 8 4 C7.34 4 6.68 4 6 4 C5.67 4.66 5.34 5.32 5 6 C3.2925002 4.71937515 1.62626404 3.38232443 0 2 C0 1.34 0 0.68 0 0 Z " fill="#C0D5F0" transform="translate(86,318)"/>
</svg>
