<svg xmlns:xlink="http://www.w3.org/1999/xlink" xmlns="http://www.w3.org/2000/svg" viewBox="0 0 65 64" fill="none" width="65"  height="64" >
    <path d="M21.103 40C11.648 40 4 31.932 4 22S11.648 4 21.103 4h17.794C48.352 4 56 12.068 56 22s-7.648 18-17.103 18H21.103Z" fill="#86A9FF"></path>
    <path d="M32.636 47.274V58.25c0 .955-.769 1.75-1.691 1.75a1.66 1.66 0 0 1-1.192-.517l-16.68-17.18C9.806 38.963 8 34.39 8 29.657 8 19.914 15.648 12 25.103 12h17.794C52.352 12 60 19.914 60 29.657s-7.648 17.657-17.103 17.657H32.636v-.04Z" fill="#578CFF"></path>
    <path d="M21.02 40h17.837C48.334 40 56 31.745 56 21.582c0-1.203-.116-2.364-.308-3.526C52.572 14.323 48.026 12 42.979 12H25.143C15.666 12 8 20.255 8 30.418c0 1.203.116 2.364.308 3.484C11.428 37.635 15.974 40 21.021 40Z" fill="#0057CC"></path>
</svg>