<svg xmlns="http://www.w3.org/2000/svg" viewBox="0 0 36 36" width="36" height="36">
  <defs>
    <ellipse id="a" cx="17.398" cy="17.34" rx="17.398" ry="17.34" />
    <linearGradient id="b" x1="30.41%" y1="26.181%" x2="87.592%" y2="86.514%">
      <stop stop-color="#262626" stop-opacity="0.2" offset="0%" />
      <stop stop-color="#262626" stop-opacity="0.02" offset="100%" />
    </linearGradient>
    <radialGradient id="d" gradientTransform="scale(0.99664)" cx="22.727%" cy="13.068%" r="379.282%" fx="22.727%" fy="13.068%">
      <stop stop-color="#fff" stop-opacity="0.1" offset="0%" />
      <stop stop-color="#fff" stop-opacity="0" offset="100%" />
    </radialGradient>
  </defs>
  <g fill="none" fill-rule="evenodd">
    <path d="M -1 -1 h 38 v 38 H -1 Z" />
    <g transform="translate(0.582 0.583)">
      <mask id="c" fill="#fff">
        <use xmlns:xlink="http://www.w3.org/1999/xlink" xlink:href="#a" />
      </mask>
      <use fill="#2a56c6" fill-rule="nonzero" 
        xmlns:xlink="http://www.w3.org/1999/xlink" xlink:href="#a" />
      <path fill="url(#b)" fill-rule="nonzero" mask="url(&quot;#c&quot;)" d="M 18.782 34.68 L 8.304 24.236 L 25.9 9.656 l 8.897 9.063 v 15.96" />
      <g fill-opacity="0.2" fill-rule="nonzero">
        <path fill="#fff" d="M 17.398 0.177 c 9.57 0 17.34 7.724 17.4 17.26 v -0.097 c 0 -9.576 -7.79 -17.34 -17.4 -17.34 C 7.79 0 0 7.764 0 17.34 v 0.098 C 0.06 7.9 7.81 0.178 17.398 0.178 Z" />
        <path fill="#263238" d="M 17.398 34.502 c 9.57 0 17.34 -7.724 17.4 -17.26 v 0.098 c 0 9.576 -7.79 17.34 -17.4 17.34 C 7.79 34.68 0 26.916 0 17.34 v -0.1 c 0.06 9.538 7.81 17.262 17.398 17.262 Z" />
      </g>
      <path fill="#f1f1f1" fill-rule="nonzero" d="M 22.934 8.67 H 5.16 c -0.632 0 -1.028 0.71 -0.672 1.24 l 2.63 4.06 v 7.31 c 0 2.602 2.135 4.73 4.744 4.73 h 11.072 c 2.61 0 4.745 -2.128 4.745 -4.73 V 13.4 c 0 -2.602 -2.14 -4.73 -4.75 -4.73 Z" />
      <path opacity="0.1" fill="#000" fill-rule="nonzero" d="M 7.117 13.97 l -2.63 -4.06 c -0.078 -0.097 -0.118 -0.215 -0.118 -0.334 c -0.02 0.178 0.02 0.375 0.11 0.532 l 2.63 4.06 v -0.198 Z m 15.817 12.04 H 11.862 c -2.61 0 -4.745 -2.128 -4.745 -4.73 v 0.198 c 0 2.6 2.136 4.73 4.745 4.73 h 11.072 c 2.61 0 4.745 -2.13 4.745 -4.73 v -0.197 c 0 2.61 -2.14 4.73 -4.75 4.73 Z" />
      <path opacity="0.2" fill="#fff" fill-rule="nonzero" d="M 22.934 8.67 H 5.16 c -0.514 0 -0.87 0.453 -0.81 0.906 c 0.06 -0.374 0.375 -0.71 0.81 -0.71 h 17.774 c 2.61 0 4.745 2.13 4.745 4.73 V 13.4 c 0 -2.602 -2.14 -4.73 -4.75 -4.73 Z" />
      <path fill="#bdbdbd" fill-rule="nonzero" d="M 23.725 17.34 c 0 0.65 -0.534 1.182 -1.186 1.182 H 12.25 c -0.653 0 -1.186 -0.532 -1.186 -1.182 c 0 -0.65 0.533 -1.182 1.186 -1.182 h 10.28 c 0.653 0 1.187 0.532 1.187 1.182 Z m -4.745 3.94 c 0 0.65 -0.534 1.183 -1.186 1.183 h -5.536 c -0.653 0 -1.186 -0.532 -1.186 -1.182 c 0 -0.65 0.533 -1.18 1.186 -1.18 h 5.536 c 0.652 0 1.186 0.53 1.186 1.18 Z m 4.745 -7.88 c 0 0.65 -0.534 1.18 -1.186 1.18 H 12.25 c -0.653 0 -1.186 -0.53 -1.186 -1.18 c 0 -0.65 0.533 -1.183 1.186 -1.183 h 10.28 c 0.653 0 1.187 0.532 1.187 1.182 Z" />
      <ellipse fill="url(#d)" fill-rule="nonzero" cx="17.398" cy="17.34" rx="17.398" ry="17.34" />
    </g>
  </g>
</svg>