<?xml version="1.0" encoding="UTF-8" standalone="no"?>
<svg
   width="1100.04"
   height="1100.04"
   viewBox="0 0 1100.04 1100.04"
   fill="none"
   version="1.1"
   id="svg6"
   sodipodi:docname="icon.svg"
   inkscape:version="1.4.4 (dcaf3e7, 2026-05-05)"
   xmlns:inkscape="http://www.inkscape.org/namespaces/inkscape"
   xmlns:sodipodi="http://sodipodi.sourceforge.net/DTD/sodipodi-0.dtd"
   xmlns="http://www.w3.org/2000/svg"
   xmlns:svg="http://www.w3.org/2000/svg">
  <sodipodi:namedview
     id="namedview6"
     pagecolor="#ffffff"
     bordercolor="#000000"
     borderopacity="0.25"
     inkscape:showpageshadow="2"
     inkscape:pageopacity="0.0"
     inkscape:pagecheckerboard="0"
     inkscape:deskcolor="#d1d1d1"
     inkscape:zoom="0.82496997"
     inkscape:cx="-124.24695"
     inkscape:cy="532.74666"
     inkscape:window-width="3840"
     inkscape:window-height="2054"
     inkscape:window-x="-11"
     inkscape:window-y="-11"
     inkscape:window-maximized="1"
     inkscape:current-layer="svg6" />
  <mask
     id="a"
     maskUnits="userSpaceOnUse"
     x="32"
     y="8"
     width="128"
     height="176">
    <path
       d="M 130.334,184 H 61.6 c -8.9435,0 -13.4152,0 -16.9625,-1.404 A 20,20 0 0 1 33.4045,171.362 C 32,167.815 32,163.343 32,154.4 V 37.6 c 0,-8.9435 0,-13.4152 1.4045,-16.9625 A 20,20 0 0 1 44.6375,9.4045 C 48.1848,8 52.6565,8 61.6,8 H 100 l 54.793,54.7933 v 10e-5 c 1.661,1.6609 2.492,2.4914 3.13,3.4305 a 11.99,11.99 0 0 1 1.862,4.5011 c 0.212,1.1154 0.212,2.3014 0.21,4.6735 -0.035,48.9185 -0.057,49.4005 -0.058,78.9675 0,8.966 0,13.45 -1.405,16.997 a 20,20 0 0 1 -11.233,11.233 C 143.752,184 139.279,184 130.334,184"
       fill="#ffffff"
       id="path1" />
  </mask>
  <g
     id="g6"
     transform="translate(150.02002)">
    <g
       mask="url(#a)"
       transform="matrix(6.2502276,0,0,6.2502276,-200.00728,-50.001821)"
       id="g4">
      <path
         d="M 159.94,184 H 31.9999 V 8 h 68 l 59.9991,60 z"
         fill="#3186ff"
         id="path2" />
      <g
         filter="url(#b)"
         id="g3">
        <path
           d="M 43,192 H 149 V 20 H 43 Z"
           fill="url(#c)"
           id="path3"
           style="fill:url(#c)" />
      </g>
    </g>
    <path
       d="m 768.7468,343.7319 c -15.6631,-11.7554 -35.1263,-18.72 -56.2208,-18.72 H 505.0183 c -44.1829,0 -80.003,-35.8189 -80.003,-80.0017 V 0 Z"
       fill="#76bbff"
       id="path4" />
    <rect
       x="200.0135"
       y="662.52411"
       width="400.01459"
       height="75.002701"
       rx="37.5014"
       fill="#ffffff"
       id="rect4" />
    <rect
       x="200.0135"
       y="843.7807"
       width="300.01089"
       height="75.002701"
       rx="37.5014"
       fill="#ffffff"
       id="rect5" />
  </g>
  <defs
     id="defs6">
    <linearGradient
       id="c"
       x1="96"
       y1="59.283901"
       x2="54.6124"
       y2="171.338"
       gradientUnits="userSpaceOnUse">
      <stop
         offset=".33"
         stop-color="#3186FF"
         id="stop5" />
      <stop
         offset="1"
         stop-color="#A9A8FF"
         id="stop6" />
    </linearGradient>
    <filter
       id="b"
       x="31"
       y="8"
       width="130"
       height="196"
       filterUnits="userSpaceOnUse"
       color-interpolation-filters="sRGB">
      <feFlood
         flood-opacity="0"
         result="BackgroundImageFix"
         id="feFlood6" />
      <feBlend
         mode="normal"
         in="SourceGraphic"
         in2="BackgroundImageFix"
         result="shape"
         id="feBlend6" />
      <feGaussianBlur
         stdDeviation="6"
         result="effect1_foregroundBlur_37242_8762"
         id="feGaussianBlur6" />
    </filter>
  </defs>
</svg>
