<?xml version="1.0" encoding="utf-8"?>
<!-- Generator: Adobe Illustrator 27.1.1, SVG Export Plug-In . SVG Version: 6.00 Build 0)  -->
<svg version="1.1" id="Layer_1" xmlns="http://www.w3.org/2000/svg" xmlns:xlink="http://www.w3.org/1999/xlink" x="0px" y="0px"
	 viewBox="0 0 65 65" style="enable-background:new 0 0 65 65;" xml:space="preserve">
<style type="text/css">
	.st0{filter:url(#Adobe_OpacityMaskFilter);}
	.st1{fill-rule:evenodd;clip-rule:evenodd;fill:#FFFFFF;}
	.st2{mask:url(#mask-2_00000006665360651253008030000015816150460199801270_);fill:#4285F4;}
	.st3{filter:url(#Adobe_OpacityMaskFilter_00000042706646416909094340000014114009894923936904_);}
	
		.st4{mask:url(#mask-4_00000071529964006230326400000009231776704501900474_);fill:url(#Path_00000079475144282146193040000000712700487540611996_);}
	.st5{filter:url(#Adobe_OpacityMaskFilter_00000090265914281599433530000003821920637436859831_);}
	.st6{mask:url(#mask-7_00000022520222893580989330000007313347011654691486_);fill:#F1F1F1;}
	.st7{filter:url(#Adobe_OpacityMaskFilter_00000122717926511010767890000014295326223961237694_);}
	.st8{mask:url(#mask-9_00000161609306530163113920000000929194771099055537_);}
	.st9{fill:#A1C2FA;}
	.st10{filter:url(#Adobe_OpacityMaskFilter_00000116222507633265271690000016569726697613428640_);}
	.st11{mask:url(#mask-11_00000022540471834104287010000008614794088117403279_);fill:#FFFFFF;fill-opacity:0.2;}
	.st12{filter:url(#Adobe_OpacityMaskFilter_00000145018276576021927760000008182710564685854861_);}
	.st13{mask:url(#mask-13_00000103239531573292680690000003765358567480238473_);fill:#1A237E;fill-opacity:0.2;}
	.st14{filter:url(#Adobe_OpacityMaskFilter_00000012466808145921034760000011677951616500107909_);}
	.st15{mask:url(#mask-15_00000077305256161532744720000012577079319692252821_);fill:#1A237E;fill-opacity:0.1;}
	.st16{fill:url(#Path_00000043451749834792482720000000051822332812799877_);}
</style>
<g id="Page-1">
	<g id="Consumer-Apps-Docs-Large-VD-R8" transform="translate(-451.000000, -463.000000)">
		<g id="Hero" transform="translate(0.000000, 63.000000)">
			<g id="Personal" transform="translate(277.000000, 309.000000)">
				<g id="Docs-icon" transform="translate(174.000000, 91.000000)">
					<g id="Group_00000039815731916415579800000015534583280530273727_">
						<g id="Clipped">
							<g id="SVGID_1_">
							</g>
							<defs>
								<filter id="Adobe_OpacityMaskFilter" filterUnits="userSpaceOnUse" x="9" y="0" width="47" height="65">
									<feColorMatrix  type="matrix" values="1 0 0 0 0  0 1 0 0 0  0 0 1 0 0  0 0 0 1 0"/>
								</filter>
							</defs>
							
								<mask maskUnits="userSpaceOnUse" x="9" y="0" width="47" height="65" id="mask-2_00000006665360651253008030000015816150460199801270_">
								<g class="st0">
									<path id="path-1_00000183935517126922670080000004706986475968830651_" class="st1" d="M38.4,0h-25C11,0,9,2,9,4.4v56.1
										C9,63,11,65,13.4,65h38.2c2.4,0,4.4-2,4.4-4.4V17.7L38.4,0z"/>
								</g>
							</mask>
							<path id="Path" class="st2" d="M38.4,0h-25C11,0,9,2,9,4.4v56.1C9,63,11,65,13.4,65h38.2c2.4,0,4.4-2,4.4-4.4V17.7l-10.3-7.4
								L38.4,0z"/>
						</g>
						<g id="Clipped_00000165925366152088101390000010280308576248348823_">
							<g id="SVGID_00000147203491768933154180000003553119466771936907_">
							</g>
							<defs>
								
									<filter id="Adobe_OpacityMaskFilter_00000079474888357132997350000004637925761171662505_" filterUnits="userSpaceOnUse" x="39.7" y="16.4" width="16.3" height="16.4">
									<feColorMatrix  type="matrix" values="1 0 0 0 0  0 1 0 0 0  0 0 1 0 0  0 0 0 1 0"/>
								</filter>
							</defs>
							
								<mask maskUnits="userSpaceOnUse" x="39.7" y="16.4" width="16.3" height="16.4" id="mask-4_00000071529964006230326400000009231776704501900474_">
								<g style="filter:url(#Adobe_OpacityMaskFilter_00000079474888357132997350000004637925761171662505_);">
									<path id="path-3_00000112630886451024378310000005509522231997115801_" class="st1" d="M38.4,0h-25C11,0,9,2,9,4.4v56.1
										C9,63,11,65,13.4,65h38.2c2.4,0,4.4-2,4.4-4.4V17.7L38.4,0z"/>
								</g>
							</mask>
							
								<linearGradient id="Path_00000099625204886200472630000012845442209873264524_" gradientUnits="userSpaceOnUse" x1="-247.7274" y1="430.1849" x2="-247.7274" y2="429.2706" gradientTransform="matrix(16.3362 0 0 -16.4273 4094.7495 7084.606)">
								<stop  offset="0" style="stop-color:#1A237E;stop-opacity:0.2"/>
								<stop  offset="1" style="stop-color:#1A237E;stop-opacity:2.000000e-02"/>
							</linearGradient>
							
								<polygon id="Path_00000090998338887362948090000011852889388768502181_" style="mask:url(#mask-4_00000071529964006230326400000009231776704501900474_);fill:url(#Path_00000099625204886200472630000012845442209873264524_);" points="
								39.7,16.4 56,32.9 56,17.7 							"/>
						</g>
						<g id="Clipped_00000144335446987501849120000017546506348405273220_">
							<g id="SVGID_00000166665808299023528170000016341914041806363325_">
							</g>
							<defs>
								
									<filter id="Adobe_OpacityMaskFilter_00000128483523559334780750000014354531136917989307_" filterUnits="userSpaceOnUse" x="20.8" y="32.5" width="23.5" height="20.7">
									<feColorMatrix  type="matrix" values="1 0 0 0 0  0 1 0 0 0  0 0 1 0 0  0 0 0 1 0"/>
								</filter>
							</defs>
							
								<mask maskUnits="userSpaceOnUse" x="20.8" y="32.5" width="23.5" height="20.7" id="mask-7_00000022520222893580989330000007313347011654691486_">
								<g style="filter:url(#Adobe_OpacityMaskFilter_00000128483523559334780750000014354531136917989307_);">
									<path id="path-6_00000014612766244683087220000015715282377240356502_" class="st1" d="M38.4,0h-25C11,0,9,2,9,4.4v56.1
										C9,63,11,65,13.4,65h38.2c2.4,0,4.4-2,4.4-4.4V17.7L38.4,0z"/>
								</g>
							</mask>
							<path id="Shape" class="st6" d="M20.8,47.3h23.5v-3H20.8V47.3z M20.8,53.2h17.6v-3H20.8V53.2z M20.8,32.5v3h23.5v-3H20.8z
								 M20.8,41.4h23.5v-3H20.8V41.4z"/>
						</g>
						<g id="Clipped_00000063615607702338479990000008985842598221619864_">
							<g id="SVGID_00000020378314834367208940000013498735039779991945_">
							</g>
							<defs>
								
									<filter id="Adobe_OpacityMaskFilter_00000134241510452460128540000007662852722663464638_" filterUnits="userSpaceOnUse" x="38.4" y="0" width="17.6" height="17.7">
									<feColorMatrix  type="matrix" values="1 0 0 0 0  0 1 0 0 0  0 0 1 0 0  0 0 0 1 0"/>
								</filter>
							</defs>
							
								<mask maskUnits="userSpaceOnUse" x="38.4" y="0" width="17.6" height="17.7" id="mask-9_00000161609306530163113920000000929194771099055537_">
								<g style="filter:url(#Adobe_OpacityMaskFilter_00000134241510452460128540000007662852722663464638_);">
									<path id="path-8_00000000938359746877663320000013099713011969658284_" class="st1" d="M38.4,0h-25C11,0,9,2,9,4.4v56.1
										C9,63,11,65,13.4,65h38.2c2.4,0,4.4-2,4.4-4.4V17.7L38.4,0z"/>
								</g>
							</mask>
							<g id="Group" class="st8">
								<g transform="translate(26.437500, -2.954545)">
									<path id="Path_00000108293691220478987810000008368361833893993350_" class="st9" d="M11.9,3v13.3c0,2.4,2,4.4,4.4,4.4
										h13.2L11.9,3z"/>
								</g>
							</g>
						</g>
						<g id="Clipped_00000070114019615027412780000010867843500974598021_">
							<g id="SVGID_00000146470665538987885370000003387335333340250289_">
							</g>
							<defs>
								
									<filter id="Adobe_OpacityMaskFilter_00000107571196478059309540000000463614026554652071_" filterUnits="userSpaceOnUse" x="9" y="0" width="29.4" height="4.8">
									<feColorMatrix  type="matrix" values="1 0 0 0 0  0 1 0 0 0  0 0 1 0 0  0 0 0 1 0"/>
								</filter>
							</defs>
							
								<mask maskUnits="userSpaceOnUse" x="9" y="0" width="29.4" height="4.8" id="mask-11_00000022540471834104287010000008614794088117403279_">
								<g style="filter:url(#Adobe_OpacityMaskFilter_00000107571196478059309540000000463614026554652071_);">
									<path id="path-10_00000108999938727035637760000004299573033297463454_" class="st1" d="M38.4,0h-25C11,0,9,2,9,4.4v56.1
										C9,63,11,65,13.4,65h38.2c2.4,0,4.4-2,4.4-4.4V17.7L38.4,0z"/>
								</g>
							</mask>
							<path id="Path_00000091011883715167295770000000281009595859620235_" class="st11" d="M13.4,0C11,0,9,2,9,4.4v0.4
								c0-2.4,2-4.4,4.4-4.4h25V0H13.4z"/>
						</g>
						<g id="Clipped_00000150100259450524749640000013996628121810574497_">
							<g id="SVGID_00000086652122051173849110000002827149217323571074_">
							</g>
							<defs>
								
									<filter id="Adobe_OpacityMaskFilter_00000031206198798946935190000005276083653725010359_" filterUnits="userSpaceOnUse" x="9" y="60.2" width="47" height="4.8">
									<feColorMatrix  type="matrix" values="1 0 0 0 0  0 1 0 0 0  0 0 1 0 0  0 0 0 1 0"/>
								</filter>
							</defs>
							
								<mask maskUnits="userSpaceOnUse" x="9" y="60.2" width="47" height="4.8" id="mask-13_00000103239531573292680690000003765358567480238473_">
								<g style="filter:url(#Adobe_OpacityMaskFilter_00000031206198798946935190000005276083653725010359_);">
									<path id="path-12_00000080202354503203791700000009663305867633827205_" class="st1" d="M38.4,0h-25C11,0,9,2,9,4.4v56.1
										C9,63,11,65,13.4,65h38.2c2.4,0,4.4-2,4.4-4.4V17.7L38.4,0z"/>
								</g>
							</mask>
							<path id="Path_00000006684209341947994950000008296348333787349926_" class="st13" d="M51.6,64.6H13.4c-2.4,0-4.4-2-4.4-4.4
								v0.4C9,63,11,65,13.4,65h38.2c2.4,0,4.4-2,4.4-4.4v-0.4C56,62.6,54,64.6,51.6,64.6z"/>
						</g>
						<g id="Clipped_00000116218724055260859410000002261142663580768384_">
							<g id="SVGID_00000140002261428100278390000014664059931679466143_">
							</g>
							<defs>
								
									<filter id="Adobe_OpacityMaskFilter_00000011744996059191933610000012908526415670856064_" filterUnits="userSpaceOnUse" x="38.4" y="13.3" width="17.6" height="4.8">
									<feColorMatrix  type="matrix" values="1 0 0 0 0  0 1 0 0 0  0 0 1 0 0  0 0 0 1 0"/>
								</filter>
							</defs>
							
								<mask maskUnits="userSpaceOnUse" x="38.4" y="13.3" width="17.6" height="4.8" id="mask-15_00000077305256161532744720000012577079319692252821_">
								<g style="filter:url(#Adobe_OpacityMaskFilter_00000011744996059191933610000012908526415670856064_);">
									<path id="path-14_00000140005722580533447110000001141077729797677708_" class="st1" d="M38.4,0h-25C11,0,9,2,9,4.4v56.1
										C9,63,11,65,13.4,65h38.2c2.4,0,4.4-2,4.4-4.4V17.7L38.4,0z"/>
								</g>
							</mask>
							<path id="Path_00000161598356951014167120000005829978711715178887_" class="st15" d="M42.8,17.7c-2.4,0-4.4-2-4.4-4.4v0.4
								c0,2.4,2,4.4,4.4,4.4H56v-0.4H42.8z"/>
						</g>
					</g>
					
						<radialGradient id="Path_00000082333305349298105590000016096316254731515269_" cx="-259.1385" cy="445.6075" r="1.6125" gradientTransform="matrix(47 0 0 -47 12190 20945.3203)" gradientUnits="userSpaceOnUse">
						<stop  offset="0" style="stop-color:#FFFFFF;stop-opacity:0.1"/>
						<stop  offset="1" style="stop-color:#FFFFFF;stop-opacity:0"/>
					</radialGradient>
					
						<path id="Path_00000085966981651435548610000005955471472103139232_" style="fill:url(#Path_00000082333305349298105590000016096316254731515269_);" d="
						M38.4,0h-25C11,0,9,2,9,4.4v56.1C9,63,11,65,13.4,65h38.2c2.4,0,4.4-2,4.4-4.4V17.7L38.4,0z"/>
				</g>
			</g>
		</g>
	</g>
</g>
</svg>
