<svg clip-rule="evenodd" fill-rule="evenodd" stroke-linejoin="round" stroke-miterlimit="2" viewBox="0 0 1024 1024" xmlns="http://www.w3.org/2000/svg"><g fill-rule="nonzero"><path d="M965.261 612.247c-13.912 71.572-124.601 149.9-251.728 165.08-66.291 7.91-131.56 15.18-201.158 11.988-113.822-5.215-203.635-27.168-203.635-27.168 0 11.08.683 21.63 2.05 31.498 14.797 112.329 111.383 119.058 202.875 122.196 92.344 3.16 174.57-22.768 174.57-22.768l3.793 83.483s-64.59 34.685-179.653 41.064c-63.449 3.488-142.23-1.596-233.99-25.883C79.375 939.062 45.15 726.927 39.913 511.682c-1.596-63.908-.612-124.17-.612-174.57 0-220.1 144.209-284.614 144.209-284.614C256.224 19.104 380.995 5.06 510.707 4h3.187C643.607 5.06 768.46 19.104 841.168 52.498c0 0 144.204 64.515 144.204 284.614 0 0 1.81 162.39-20.11 275.135" fill="#3088d4"/><path d="M815.274 348.723v266.504H709.69v-258.67c0-54.528-22.942-82.205-68.833-82.205-50.739 0-76.169 32.831-76.169 97.75v141.586h-104.96V372.103c0-64.92-25.435-97.75-76.175-97.75-45.89 0-68.833 27.676-68.833 82.203v258.67H209.137V348.724c0-54.468 13.868-97.75 41.725-129.773 28.726-32.022 66.345-48.438 113.045-48.438 54.03 0 94.946 20.767 122 62.306l26.298 44.087 26.305-44.087c27.047-41.539 67.963-62.306 121.999-62.306 46.694 0 84.314 16.416 113.045 48.438 27.852 32.022 41.72 75.305 41.72 129.773" fill="#fff"/></g></svg>