<svg clip-rule="evenodd" fill-rule="evenodd" stroke-linejoin="round" stroke-miterlimit="2" viewBox="0 0 1024 1024" xmlns="http://www.w3.org/2000/svg"><g fill-rule="nonzero"><path d="m169.446 111.27c-2.545 13.093-22.794 27.422-46.05 30.199-12.127 1.447-24.067 2.777-36.799 2.193-20.822-.954-37.252-4.97-37.252-4.97 0 2.027.125 3.957.375 5.762 2.707 20.549 20.376 21.78 37.113 22.354 16.893.578 31.935-4.165 31.935-4.165l.694 15.272s-11.816 6.345-32.865 7.512c-11.607.638-26.019-.292-42.805-4.735-36.406-9.636-42.667-48.443-43.625-87.819-.292-11.691-.112-22.715-.112-31.935 0-40.264 26.381-52.066 26.381-52.066 13.302-6.109 36.127-8.678 59.856-8.872h.583c23.729.194 46.569 2.763 59.87 8.872 0 0 26.38 11.802 26.38 52.066 0 0 .331 29.707-3.679 50.332" fill="#3088d4" transform="matrix(5.46641 0 0 5.46641 39 4)"/><path d="m142.008 64.062v48.753h-19.315v-47.32c0-9.975-4.197-15.038-12.592-15.038-9.282 0-13.934 6.006-13.934 17.882v25.901h-19.201v-25.901c0-11.876-4.653-17.882-13.935-17.882-8.395 0-12.592 5.063-12.592 15.038v47.32h-19.315v-48.753c0-9.964 2.537-17.882 7.633-23.74 5.255-5.858 12.137-8.861 20.68-8.861 9.884 0 17.369 3.799 22.318 11.398l4.811 8.065 4.812-8.065c4.948-7.599 12.433-11.398 22.318-11.398 8.542 0 15.424 3.003 20.68 8.861 5.095 5.858 7.632 13.776 7.632 23.74" fill="#fff" transform="matrix(5.46641 0 0 5.46641 39 -1.46641)"/></g></svg>