<?xml version="1.0" encoding="utf-8"?>
<!-- Generator: Adobe Illustrator 28.3.0, SVG Export Plug-In . SVG Version: 6.00 Build 0)  -->
<svg version="1.1" id="Layer_1" xmlns="http://www.w3.org/2000/svg" xmlns:xlink="http://www.w3.org/1999/xlink" x="0px" y="0px"
	 viewBox="0 0 45 45" style="enable-background:new 0 0 45 45;" xml:space="preserve">
<style type="text/css">
	.st0{fill:#FFFFFF;}
</style>
<g>
	<path class="st0" d="M7.2,32.1v-5.3H2.2V32h5.1V32.1z"/>
	<path class="st0" d="M41.9,29c-0.1,0.6-0.3,1.3-0.6,1.9c0,0.1-0.1,0.2-0.1,0.4c-0.5,1.2-1,2.2-1.6,3.3c-0.6,0.8-1.1,1.6-1.7,2.4
		c-0.3,0.4-0.6,0.7-0.9,1.1l0.1-0.1c-0.5,0.5-0.9,0.9-1.5,1.4c-0.2,0.2-0.6,0.4-0.8,0.6c-0.1,0-0.2,0.1-0.2,0.1
		c-0.7,0.5-1.4,0.8-2.2,1.2c-0.9,0.5-2,0.8-3,1.1c-1,0.2-2.2,0.5-3.2,0.6c-1.3,0.1-2.5,0.1-3.9-0.1c-5.9-0.8-10.8-4.2-13.8-8.9
		c0.7,0.8,1.4,1.5,2.2,2.1c1.4,1.1,3,1.9,4.8,2.2c0.8,0.2,1.7,0.2,2.5,0.2c0.2,0,0.5,0,0.7,0c1.3,0,2.5-0.2,3.7-0.7
		c0.2-0.1,0.3-0.1,0.6-0.2c0.3-0.1,0.8-0.4,1.1-0.5c0.1,0,0.1-0.1,0.2-0.1c3.6-2,6.2-5.5,6.7-10c0.1-0.8,0.1-1.8,0.1-2.6
		c3.2,0,5.9,2,7.2,4.7c0.1,0.4,0.2,0.7,0.3,1.1c0-0.2,0-0.4,0-0.6c0-0.9-0.1-1.8-0.2-2.7c-1.1-6.2-6.5-10.8-13-10.8
		c-0.8,0-1.5,0.1-2.3,0.2c0,0,0,0-0.1,0c-2.3,0.4-3.9,1.1-6.4,2.9c-1,0.7-3.1,2.6-4.7,4.1c-0.8,0.8-2.2,0-2-1.2
		c0.2-1.1,0.6-2.2,1.3-3.5C8,13.8,8,8.9,14.4,4.5c3.7-2.6,9.8-3.3,15.4-1.2c3.4-1.9,8.4-2,12.9,2.9c0.5,0.5,0.1,1.3-0.6,1.3
		c-1.3,0-3,0.4-4.4,1.4c0.1,0.1,0.2,0.4,0.5,0.6C43.5,16.9,43.4,23.7,41.9,29z"/>
</g>
</svg>
