<svg enable-background="new 0 0 280 280" viewBox="0 0 280 280" xmlns="http://www.w3.org/2000/svg"><path d="m207.2 108.7c-7.8-4.3-18.1-4.3-25.6 1.1-1.4 1.4-3.6 1.4-5 0l-23.1-13.5c0 .7-.4 0-.4 0 0-.7.4-.7.4-.7l23.2-13.6c1.4-.7 3.6-.7 5 .7 7.5 5.3 17.8 5.7 25.6.4 10.7-6.4 14.2-19.6 8.5-30.9-5.3-9.2-16.7-13.5-27-10.7-10.3 3.2-17.4 13.2-16.7 23.8.4 1.8-.7 3.6-2.5 5l-23.1 13.5c-.4-.7-.4-.7-.7-.7h-.4v-26.7c0-1.4 1.1-3.2 2.8-4.3 10-4.3 15.6-15.3 13.2-26-2.5-10.7-11.7-18.8-22.8-18.8-11.4 0-20.6 8.2-23.1 18.8s3.2 21.7 13.2 26c1.8 1.1 2.8 2.8 2.8 4.6v26.7c0-.4-.4-.4-.4-.4h-.7l-23.1-13.5c-1.8-.7-2.8-2.5-2.5-4.3 1.1-10.7-6-21-16.4-24.5-10.7-3.2-22 1.8-27.4 11-5.7 10-3.6 22 4.6 29.5 8.2 7.1 20.6 7.1 29.5 1.4 1.4-1.4 3.6-1.4 5-.7l23.1 13.5s.4 0 .4.7l-.4.7-23.1 13.5c-1.4.7-3.6.7-5-.7-7.5-5.3-17.8-5.3-25.6-1.1-10.7 6.4-14.2 20.3-8.5 31.3 5.3 8.9 16.7 13.9 27 10.7 10.3-3.6 17.4-12.8 16.7-23.5-.4-1.8.7-4.3 2.5-5l23.1-13.5h.7s.4 0 .4.7v26.7c0 1.8-1.1 3.6-2.8 3.9-10 5-15.6 15.6-13.2 26.3 2.5 10.7 11.7 18.1 22.8 18.1 11.4 0 20.6-7.5 23.1-18.1 2.5-10.7-3.2-21.3-13.2-26.3-1.8-.4-2.8-2.1-2.8-3.9v-26.7c0-.7.4-.7.4-.7h.7l23.1 13.5c1.8.7 2.8 3.2 2.5 5-.7 10.7 6.4 19.9 16.7 23.5 10.3 3.2 21.7-1.8 27-10.7 5.8-10.9 2.2-24.7-8.5-31.1z" fill="#ff9800" transform="matrix(1.6505322 0 0 1.5731258 -88.105336 -10.096218)"/></svg>