<svg viewBox="0 0 280 280" xmlns="http://www.w3.org/2000/svg"><path d="M253.885 160.903c-12.874-6.765-29.875-6.765-42.254 1.73a5.98 5.98 0 0 1-8.252 0l-38.128-21.237c0 1.101-.66 0-.66 0 0-1.101.66-1.101.66-1.101l38.293-21.395c2.31-1.101 5.942-1.101 8.252 1.101 12.38 8.338 29.38 8.967 42.254.63 17.66-10.068 23.438-30.834 14.03-48.61-8.748-14.473-27.564-21.237-44.565-16.832-17 5.034-28.72 20.765-27.564 37.44.66 2.832-1.155 5.663-4.126 7.866l-38.127 21.237c-.66-1.101-.66-1.101-1.156-1.101h-.66V78.628c0-2.202 1.816-5.034 4.622-6.764 16.505-6.765 25.748-24.07 21.787-40.902-4.127-16.832-19.312-29.574-37.633-29.574-18.816 0-34 12.9-38.127 29.574s5.282 34.137 21.787 40.902c2.971 1.73 4.622 4.404 4.622 7.236v42.002c0-.629-.66-.629-.66-.629h-1.156L88.997 99.236c-2.971-1.101-4.622-3.933-4.127-6.764 1.816-16.833-9.903-33.036-27.068-38.542-17.661-5.034-36.312 2.832-45.225 17.304-9.408 15.732-5.942 34.61 7.593 46.408 13.534 11.169 34 11.169 48.69 2.202 2.311-2.202 5.942-2.202 8.253-1.101l38.127 21.237s.66 0 .66 1.101l-.66 1.101-38.127 21.238c-2.31 1.1-5.942 1.1-8.253-1.102-12.379-8.337-29.38-8.337-42.253-1.73-17.661 10.068-23.438 31.934-14.03 49.239 8.748 14 27.564 21.866 44.564 16.832 17.001-5.663 28.72-20.136 27.564-36.968-.66-2.832 1.156-6.765 4.127-7.866l38.127-21.237h1.155s.66 0 .66 1.101v42.003c0 2.831-1.815 5.663-4.62 6.135-16.506 7.865-25.75 24.54-21.788 41.373 4.126 16.832 19.311 28.474 37.632 28.474 18.816 0 34.001-11.799 38.128-28.474 4.126-16.832-5.282-33.508-21.788-41.373-2.97-.63-4.621-3.304-4.621-6.135v-42.003c0-1.101.66-1.101.66-1.101h1.156l38.127 21.237c2.97 1.101 4.621 5.034 4.126 7.866-1.155 16.832 10.564 31.305 27.564 36.968 17 5.034 35.817-2.831 44.564-16.832 9.574-17.147 3.632-38.856-14.03-48.924z" fill="#ff9800"/></svg>