<svg data-name="Layer 1" xmlns="http://www.w3.org/2000/svg" viewBox="0 0 105 105"><circle cx="51.95" cy="53.05" r="36.47" style="fill:#fff"/><path d="M82.89 21.92A43 43 0 0 0 71 13.41a43.11 43.11 0 0 1-57.66 57.52 42.9 42.9 0 0 0 8.15 11.52l.37.37a43.11 43.11 0 0 0 61-60.9z" style="fill:#6ebe4a"/><path d="M22.08 31.7a9.56 9.56 0 0 1-6.78-16.32A52.3 52.3 0 0 1 52.5 0a9.57 9.57 0 1 1 0 19.13 33.28 33.28 0 0 0-23.65 9.77 9.54 9.54 0 0 1-6.77 2.8z" style="fill:#d541d8"/><path d="M54.16.15a9.56 9.56 0 0 1-.47 18.9A33.55 33.55 0 0 1 86.05 52.5a9.48 9.48 0 0 1 19 0A52.5 52.5 0 0 0 54.16.15z" style="fill:#fbab18"/><path d="M95.53 43.05a9.46 9.46 0 0 0-9.48 9.45A33.55 33.55 0 0 1 53.69 86a9.56 9.56 0 0 1 .47 18.9A52.5 52.5 0 0 0 105 52.5a9.46 9.46 0 0 0-9.47-9.45z" style="fill:#005073"/><path d="M28 29.64A9.57 9.57 0 0 1 14.13 16.8a52.16 52.16 0 0 0 0 71.4A9.57 9.57 0 0 1 28 75.36a33.34 33.34 0 0 1 0-45.72z" style="fill:#ff3d67"/><path d="M52.5 105a52.3 52.3 0 0 1-37.2-15.38A9.57 9.57 0 0 1 28.85 76.1a33.28 33.28 0 0 0 23.65 9.77 9.57 9.57 0 1 1 0 19.13z" style="fill:#00bceb"/></svg>