<svg id="Layer_1" data-name="Layer 1" xmlns="http://www.w3.org/2000/svg" viewBox="0 0 105 105"><defs><style>.cls-1{fill:#fff;}.cls-2{fill:#6ebe4a;}.cls-3{fill:#d541d8;}.cls-4{fill:#fbab18;}.cls-5{fill:#005073;}.cls-6{fill:#ff3d67;}.cls-7{fill:#00bceb;}</style></defs><title>WebexTeams_Icon_CB01</title><circle class="cls-1" cx="51.95" cy="53.05" r="36.47"/><path class="cls-2" d="M82.89,21.92A43,43,0,0,0,71,13.41,43.11,43.11,0,0,1,13.34,70.93a42.9,42.9,0,0,0,8.15,11.52l.37.37a43.11,43.11,0,0,0,61-60.9Z"/><path class="cls-3" d="M22.08,31.7A9.56,9.56,0,0,1,15.3,15.38,52.3,52.3,0,0,1,52.5,0a9.57,9.57,0,1,1,0,19.13A33.28,33.28,0,0,0,28.85,28.9,9.54,9.54,0,0,1,22.08,31.7Z"/><path class="cls-4" d="M54.16.15a9.56,9.56,0,0,1-.47,18.9A33.55,33.55,0,0,1,86.05,52.5a9.48,9.48,0,0,1,19,0A52.5,52.5,0,0,0,54.16.15Z"/><path class="cls-5" d="M95.53,43.05a9.46,9.46,0,0,0-9.48,9.45A33.55,33.55,0,0,1,53.69,86a9.56,9.56,0,0,1,.47,18.9A52.5,52.5,0,0,0,105,52.5,9.46,9.46,0,0,0,95.53,43.05Z"/><path class="cls-6" d="M28,29.64A9.57,9.57,0,0,1,14.13,16.8a52.16,52.16,0,0,0,0,71.4A9.57,9.57,0,0,1,28,75.36a33.34,33.34,0,0,1,0-45.72Z"/><path class="cls-7" d="M52.5,105A52.3,52.3,0,0,1,15.3,89.62,9.57,9.57,0,0,1,28.85,76.1,33.28,33.28,0,0,0,52.5,85.87a9.57,9.57,0,1,1,0,19.13Z"/></svg>