<svg height="256" viewBox="-71 73 256 256" width="256" xmlns="http://www.w3.org/2000/svg"><path d="M158.5 329h-203c-14.6 0-26.5-11.8-26.5-26.5v-203C-71 84.8-59.2 73-44.5 73h203.1c14.6 0 26.5 11.8 26.5 26.5v203.1c-.1 14.6-11.9 26.4-26.6 26.4z" fill="#554b47"/><path d="m150.5 191.3-18-12.3-14.2 9.7L75 159.1l14.2-9.7-18-12.3-14.2 9.7-14.2-9.7-18 12.3 14.2 9.7-43.4 29.6-14.2-9.7-18 12.3 14.2 9.7-14.2 9.7 18 12.3 14.2-9.7L39 242.9l-14.2 9.7 18 12.3 14.2-9.7 14.2 9.7 18-12.3-14.2-9.7 43.4-29.6 14.2 9.7 18-12.3-14.2-9.7zM57 230.6 13.6 201 57 171.4l43.4 29.6z" fill="#fff"/></svg>