<svg height="80" viewBox="0 0 80 80" width="80" xmlns="http://www.w3.org/2000/svg"><g fill="#303c42"><circle cx="50" cy="31" r="8"/><path d="m29.0701901 60.2547285c-1.7763592.9032544-3.9315794.6353658-5.4263951-.6744878-.6773489-.5392723-1.6642055-.4556218-2.238779.1897691s-.5330431 1.62358.0942157 2.2191161c2.6054732 2.2742084 6.3860716 2.6578295 9.4046479.9542992 3.0185763-1.7035304 4.6061574-5.1166781 3.9492798-8.4905743-.6568776-3.3738963-3.4126374-5.9608226-6.855251-6.4352592-.4279611-.0637715-.8637455.0474139-1.2070183.3079571-.3432729.2605433-.5644513.6479909-.6126111 1.0731371-.1152423.8776848.5096353 1.6820892 1.3972155 1.7986343 2.1239061.279389 3.8141484 1.8970615 4.1651836 3.9863535.3510352 2.0892919-.7194698 4.1601729-2.6379946 5.1031734z"/><path d="m39.0066071.00001499c-20.9227988-.0181661-38.13318472 16.47184021-39.00496044 37.37231971-.02009813.4463074.14448817.881199.45505787 1.2024137.23363856.2213938.52777408.3684323.84510748.4224697 1.10514054.3574744 9.75124009 4.0947064 14.78938079 6.4995339.5622045.2419673 1.2120219.1545093 1.690215-.2274837 2.5588618-2.2291733 5.9153457-3.3204003 9.2961822-3.0222832.5617842.0624986 1.1156974-.1713293 1.462686-.6174558l6.8583722-8.9693567c.247438-.3248407.3634821-.7309143.3250414-1.1374184 0-.2599814 0-.487465 0-.7149487.0541252-7.9324988 6.4238875-14.3754252 14.3567998-14.5217043 7.9329122-.146279 14.5359652 6.0574349 14.8826135 13.9825436.3466482 7.9251087-5.6895256 14.6814489-13.604925 15.2281072-.3328826.0229234-.6506408.1477322-.9101158.3574743l-10.8888847 8.9368591c-.3503374.2908069-.5625851.7152178-.5850744 1.1699161-.3793773 6.8860191-6.0713232 12.2773164-12.9691494 12.284119-5.8467655.0469151-10.9829372-3.8713116-12.4815873-9.5218171-.1189829-.4520374-.4269111-.8309507-.8451075-1.0399254l-6.1757854-3.0222833c-.63220927-.3255242-1.40267686-.2023063-1.90177872.3041441-.49910187.5064504-.61091703 1.2785056-.27599824 1.9056974 8.78181746 17.0259341 28.63193016 25.1535756 46.83589286 19.1769868s29.3705468-24.2874002 26.3473031-43.2039461c-3.0232438-18.9165458-19.340961-32.83656117-38.5012853-32.84396191z"/></g></svg>