<svg height="80" width="80" xmlns="http://www.w3.org/2000/svg"><g fill="#303c42"><circle cx="50" cy="31" r="8"/><path d="M29.07 60.255a4.886 4.886 0 0 1-5.426-.675c-.678-.539-1.664-.455-2.239.19s-.533 1.624.094 2.22a8.198 8.198 0 0 0 9.405.953c3.018-1.703 4.606-5.116 3.95-8.49-.658-3.374-3.413-5.961-6.856-6.435a1.606 1.606 0 0 0-1.207.308 1.57 1.57 0 0 0-.613 1.073 1.61 1.61 0 0 0 1.397 1.798c2.124.28 3.815 1.897 4.166 3.987a4.803 4.803 0 0 1-2.638 5.103z"/><path d="M39.007 0C18.084-.018.873 16.472.002 37.372c-.02.447.144.882.455 1.203.233.221.527.368.845.422 1.105.358 9.751 4.095 14.79 6.5a1.658 1.658 0 0 0 1.69-.228 12.483 12.483 0 0 1 9.296-3.022 1.625 1.625 0 0 0 1.462-.617l6.859-8.97c.247-.325.363-.73.325-1.137v-.715c.054-7.933 6.424-14.376 14.356-14.522 7.933-.146 14.536 6.058 14.883 13.983.347 7.925-5.69 14.681-13.605 15.228-.333.023-.65.147-.91.357L39.56 54.791c-.35.29-.562.715-.585 1.17-.38 6.886-6.071 12.277-12.969 12.284a12.806 12.806 0 0 1-12.482-9.522 1.625 1.625 0 0 0-.845-1.04l-6.176-3.022a1.625 1.625 0 0 0-2.177 2.21c8.782 17.026 28.632 25.154 46.836 19.177S80.53 51.76 77.508 32.844C74.485 13.927 58.167.007 39.007 0z"/></g></svg>