<?xml version="1.0" encoding="utf-8"?>
<!-- Generator: Adobe Illustrator 22.1.0, SVG Export Plug-In . SVG Version: 6.00 Build 0)  -->
<svg version="1.1" id="Layer_1" xmlns="http://www.w3.org/2000/svg" xmlns:xlink="http://www.w3.org/1999/xlink" x="0px" y="0px"
	 viewBox="0 0 1000 1000" style="enable-background:new 0 0 1000 1000;" xml:space="preserve">
<style type="text/css">
	.st0{fill:#6515DD;}
	.st1{fill:#FFFFFF;}
</style>
<rect x="-0.1" class="st0" width="1000.1" height="1000.1"/>
<g>
	<g>
		<g>
			<path class="st1" d="M235.9,651c-24.7,0-44.9,20.1-44.9,44.9c0,24.7,20.1,44.9,44.9,44.9s44.9-20.1,44.9-44.9
				C280.8,671.1,260.7,651,235.9,651z"/>
		</g>
		<path class="st1" d="M788,259.4l-282.4,90v-89.1l-304.5,97.2v258.2l262.5-83.8v88.7l345.3-110.3l-93.5-91.4L788,259.4z
			 M463.6,487.7L243,558.1V388.3L463.6,318V487.7z M730.7,491.2L505.5,563V393.5L713,327.1l-47.5,100.3L730.7,491.2z"/>
	</g>
</g>
</svg>
