<svg viewBox="0 0 128 128" version="1.1" xmlns="http://www.w3.org/2000/svg" xmlns:xlink="http://www.w3.org/1999/xlink">
	<defs>
		<linearGradient x1="76.0077856%" y1="30.8164837%" x2="3.20549956%" y2="70.7051948%" id="linearGradient-1">
			<stop stop-color="#0052CC" offset="18%"></stop>
			<stop stop-color="#2684FF" offset="100%"></stop>
		</linearGradient>
	</defs>
	<g stroke="none" stroke-width="1" fill="none" fill-rule="evenodd">
		<g id="Web/loading">
			<g id="stride-blue">
				<g id="Stride-blue" transform="translate(0.000000, 12.358621)">
					<path d="M35.9973001,0 L35.9973001,20.6302865 C35.9973001,49.1938558 21.6434898,60.2216817 3.38183576,61.8908594 C1.45458762,62.0841914 -0.0096586852,63.7082824 4.79783111e-05,65.6418206 C4.79783111e-05,73.331291 4.79783111e-05,91.5046979 4.79783111e-05,99.4004712 C-0.00151632727,100.432086 0.422607976,101.418806 1.17263936,102.128491 C1.92267075,102.838176 2.93239328,103.208172 3.96425477,103.151432 C49.6935407,100.825836 77.2363234,67.5173012 77.2363234,26.1629542 L77.3678373,26.1629542 L77.3678373,0 L35.9973001,0 Z"
						  id="Shape" fill="url(#linearGradient-1)" fill-rule="nonzero"></path>
					<path d="M127.607834,97.7366785 L79.2522535,0 L35.9630314,0 L87.0394347,100.099914 C88.0036757,101.977518 89.938024,103.15788 92.0495007,103.157116 L124.286555,103.157116 C125.57852,103.143552 126.772654,102.466649 127.447466,101.365335 C128.122278,100.26402 128.182862,98.89318 127.607834,97.7366785 Z"
						  id="Shape" fill="#2684FF" fill-rule="nonzero"></path>
				</g>
			</g>
		</g>
	</g>
</svg>
