<svg viewBox="0 0 128 128" xmlns="http://www.w3.org/2000/svg"><linearGradient id="a" x1="76.008%" x2="3.205%" y1="30.816%" y2="70.705%"><stop offset=".18" stop-color="#0052cc"/><stop offset="1" stop-color="#2684ff"/></linearGradient><g fill="none"><path d="M35.997 0v20.63c0 28.564-14.354 39.592-32.615 41.26A3.753 3.753 0 0 0 0 65.643V99.4a3.748 3.748 0 0 0 1.173 2.728c.75.71 1.76 1.08 2.791 1.023 45.73-2.325 73.272-35.634 73.272-76.988h.132V0z" fill="url(#a)" transform="translate(0 12.359)"/><path d="M127.608 110.095 79.252 12.36H35.963l51.076 100.1a5.63 5.63 0 0 0 5.01 3.057h32.238a3.753 3.753 0 0 0 3.32-5.42z" fill="#2684ff"/></g></svg>