<svg viewBox="0 0 128 128" xmlns="http://www.w3.org/2000/svg" xmlns:xlink="http://www.w3.org/1999/xlink"><linearGradient id="a" x1="76.007786%" x2="3.2055%" y1="30.816484%" y2="70.705195%"><stop offset=".18" stop-color="#0052cc"/><stop offset="1" stop-color="#2684ff"/></linearGradient><g fill="none" transform="translate(0 12.358621)"><path d="m35.9973001 0v20.6302865c0 28.5635693-14.3538103 39.5913952-32.61546434 41.2605729-1.92724814.193332-3.39149445 1.817423-3.38178778 3.7509612v33.7586506c-.00156431 1.0316148.42256 2.0183348 1.17259138 2.7280198.75003139.709685 1.75975392 1.079681 2.79161541 1.022941 45.72928593-2.325596 73.27206863-35.6341308 73.27206863-76.9884778h.1315139v-26.1629542z" fill="url(#a)"/><path d="m127.607834 97.7366785-48.3555805-97.7366785h-43.2892221l51.0764033 100.099914c.964241 1.877604 2.8985893 3.057966 5.010066 3.057202h32.2370543c1.291965-.013564 2.486099-.690467 3.160911-1.791781.674812-1.101315.735396-2.472155.160368-3.6286565z" fill="#2684ff"/></g></svg>