<svg id="svg" version="1.1" xmlns="http://www.w3.org/2000/svg" xmlns:xlink="http://www.w3.org/1999/xlink" width="400" height="400" viewBox="0, 0, 400,400"><g id="svgg"><path id="path0" d="M180.378 10.049 C 181.080 10.136,182.135 10.134,182.722 10.045 C 183.309 9.956,182.734 9.884,181.445 9.887 C 180.156 9.889,179.676 9.962,180.378 10.049 M215.925 10.049 C 216.627 10.136,217.682 10.134,218.269 10.045 C 218.856 9.956,218.281 9.884,216.992 9.887 C 215.703 9.889,215.223 9.962,215.925 10.049 M219.600 10.807 C 219.670 11.166,219.990 11.546,220.313 11.652 C 220.792 11.811,220.810 11.739,220.414 11.258 C 220.147 10.935,220.044 10.555,220.186 10.413 C 220.327 10.272,220.225 10.156,219.958 10.156 C 219.692 10.156,219.531 10.449,219.600 10.807 M163.312 12.578 C 163.295 12.944,162.974 13.422,162.598 13.641 C 162.222 13.860,162.112 14.044,162.355 14.051 C 162.999 14.068,163.778 12.997,163.544 12.415 C 163.415 12.093,163.332 12.150,163.312 12.578 M152.550 14.470 C 152.688 14.694,152.567 15.178,152.280 15.544 C 151.810 16.145,151.826 16.158,152.441 15.675 C 153.193 15.085,153.365 14.063,152.711 14.063 C 152.484 14.063,152.411 14.246,152.550 14.470 M135.818 17.047 C 135.506 17.359,135.859 17.969,136.351 17.969 C 136.553 17.969,136.719 17.705,136.719 17.383 C 136.719 16.779,136.258 16.607,135.818 17.047 M260.842 18.945 C 260.945 19.482,261.159 19.922,261.319 19.922 C 261.479 19.922,261.526 19.482,261.424 18.945 C 261.321 18.408,261.106 17.969,260.946 17.969 C 260.786 17.969,260.739 18.408,260.842 18.945 M266.699 20.178 C 267.183 20.282,267.578 20.608,267.578 20.903 C 267.578 21.197,267.752 21.545,267.963 21.676 C 268.209 21.828,268.229 21.588,268.019 21.016 C 267.812 20.455,267.338 20.093,266.754 20.053 C 265.873 19.993,265.870 20.000,266.699 20.178 M123.698 20.964 C 123.248 21.413,123.413 21.875,124.023 21.875 C 124.346 21.875,124.609 21.611,124.609 21.289 C 124.609 20.679,124.147 20.514,123.698 20.964 M279.547 22.927 C 279.107 23.367,279.279 23.828,279.883 23.828 C 280.205 23.828,280.469 23.663,280.469 23.461 C 280.469 22.968,279.859 22.615,279.547 22.927 M113.477 25.000 C 113.192 25.461,113.561 26.172,114.086 26.172 C 114.288 26.172,114.453 25.820,114.453 25.391 C 114.453 24.567,113.885 24.339,113.477 25.000 M109.625 26.834 C 109.158 27.300,109.373 28.125,109.961 28.125 C 110.283 28.125,110.547 27.872,110.547 27.562 C 110.547 26.910,109.989 26.469,109.625 26.834 M287.402 28.384 C 287.671 28.492,287.891 28.819,287.891 29.111 C 287.891 29.403,288.041 29.734,288.225 29.848 C 288.409 29.962,288.476 29.620,288.375 29.090 C 288.264 28.514,287.933 28.137,287.552 28.156 C 287.147 28.175,287.092 28.259,287.402 28.384 M101.172 31.445 C 101.172 31.768,101.436 32.031,101.758 32.031 C 102.080 32.031,102.344 31.768,102.344 31.445 C 102.344 31.123,102.080 30.859,101.758 30.859 C 101.436 30.859,101.172 31.123,101.172 31.445 M97.135 33.073 C 96.640 33.568,96.878 33.984,97.656 33.984 C 98.090 33.984,98.438 33.724,98.438 33.398 C 98.438 32.804,97.611 32.597,97.135 33.073 M93.164 35.156 C 92.879 35.617,93.249 36.328,93.773 36.328 C 93.975 36.328,94.141 35.977,94.141 35.547 C 94.141 34.723,93.572 34.496,93.164 35.156 M303.690 35.190 C 303.287 35.842,304.193 36.589,304.732 36.050 C 305.182 35.599,304.900 34.766,304.297 34.766 C 304.107 34.766,303.834 34.957,303.690 35.190 M307.813 37.728 C 307.813 38.068,308.021 38.277,308.276 38.192 C 309.001 37.950,309.121 37.109,308.431 37.109 C 308.091 37.109,307.813 37.388,307.813 37.728 M86.990 39.312 C 86.625 39.677,87.066 40.234,87.718 40.234 C 88.028 40.234,88.281 39.971,88.281 39.648 C 88.281 39.060,87.457 38.845,86.990 39.312 M83.073 41.276 C 82.623 41.726,82.788 42.188,83.398 42.188 C 83.721 42.188,83.984 41.924,83.984 41.602 C 83.984 40.992,83.522 40.827,83.073 41.276 M313.672 41.602 C 313.672 42.004,313.928 42.195,314.355 42.113 C 315.179 41.955,315.127 41.261,314.278 41.085 C 313.925 41.011,313.672 41.226,313.672 41.602 M80.859 43.555 C 80.859 43.877,81.123 44.141,81.445 44.141 C 81.768 44.141,82.031 43.877,82.031 43.555 C 82.031 43.232,81.768 42.969,81.445 42.969 C 81.123 42.969,80.859 43.232,80.859 43.555 M319.922 45.703 C 319.922 46.207,320.120 46.484,320.410 46.387 C 320.679 46.297,320.898 45.990,320.898 45.703 C 320.898 45.417,320.679 45.109,320.410 45.020 C 320.120 44.923,319.922 45.200,319.922 45.703 M76.953 45.703 C 76.953 45.918,77.217 46.094,77.539 46.094 C 77.861 46.094,78.125 45.918,78.125 45.703 C 78.125 45.488,77.861 45.313,77.539 45.313 C 77.217 45.313,76.953 45.488,76.953 45.703 M74.784 47.300 C 74.381 47.951,75.286 48.698,75.825 48.159 C 76.276 47.708,75.994 46.875,75.391 46.875 C 75.201 46.875,74.928 47.066,74.784 47.300 M321.684 49.121 C 321.756 49.497,321.829 49.937,321.845 50.098 C 321.862 50.259,322.026 50.391,322.211 50.391 C 322.397 50.391,322.464 49.951,322.361 49.414 C 322.259 48.877,322.035 48.438,321.864 48.438 C 321.693 48.438,321.612 48.745,321.684 49.121 M326.172 49.805 C 326.172 50.127,326.348 50.391,326.563 50.391 C 326.777 50.391,326.953 50.127,326.953 49.805 C 326.953 49.482,326.777 49.219,326.563 49.219 C 326.348 49.219,326.172 49.482,326.172 49.805 M73.779 50.586 C 73.752 50.693,73.706 50.913,73.676 51.074 C 73.646 51.235,73.467 51.610,73.279 51.906 C 73.040 52.284,73.100 52.391,73.481 52.264 C 73.779 52.165,74.043 51.703,74.068 51.237 C 74.107 50.492,73.912 50.054,73.779 50.586 M69.000 51.443 C 68.560 51.883,68.732 52.344,69.336 52.344 C 69.658 52.344,69.922 52.178,69.922 51.976 C 69.922 51.484,69.312 51.131,69.000 51.443 M328.125 51.758 C 328.125 52.080,328.389 52.344,328.711 52.344 C 329.033 52.344,329.297 52.080,329.297 51.758 C 329.297 51.436,329.033 51.172,328.711 51.172 C 328.389 51.172,328.125 51.436,328.125 51.758 M66.797 53.711 C 66.797 54.033,67.061 54.297,67.383 54.297 C 67.705 54.297,67.969 54.033,67.969 53.711 C 67.969 53.389,67.705 53.125,67.383 53.125 C 67.061 53.125,66.797 53.389,66.797 53.711 M330.078 53.711 C 330.078 54.033,330.342 54.297,330.664 54.297 C 330.986 54.297,331.250 54.033,331.250 53.711 C 331.250 53.389,330.986 53.125,330.664 53.125 C 330.342 53.125,330.078 53.389,330.078 53.711 M64.627 55.503 C 64.225 56.154,65.130 56.901,65.669 56.362 C 66.120 55.911,65.838 55.078,65.234 55.078 C 65.045 55.078,64.772 55.269,64.627 55.503 M331.652 57.031 C 331.653 57.705,332.305 58.857,332.530 58.582 C 332.613 58.481,332.450 57.959,332.167 57.422 C 331.883 56.884,331.652 56.708,331.652 57.031 M62.674 57.456 C 62.339 57.998,63.082 58.763,63.621 58.430 C 64.069 58.153,63.782 57.031,63.263 57.031 C 63.083 57.031,62.819 57.222,62.674 57.456 M338.281 59.961 C 338.281 60.319,338.470 60.549,338.701 60.472 C 338.932 60.395,339.121 60.165,339.121 59.961 C 339.121 59.757,338.932 59.527,338.701 59.450 C 338.470 59.373,338.281 59.603,338.281 59.961 M340.234 61.882 C 340.234 62.222,340.513 62.500,340.853 62.500 C 341.543 62.500,341.423 61.659,340.698 61.418 C 340.443 61.333,340.234 61.541,340.234 61.882 M59.064 63.690 C 58.762 64.173,58.736 64.453,58.993 64.453 C 59.217 64.453,59.504 64.182,59.631 63.850 C 59.982 62.934,59.603 62.827,59.064 63.690 M342.188 63.867 C 342.188 64.189,342.451 64.453,342.773 64.453 C 343.096 64.453,343.359 64.189,343.359 63.867 C 343.359 63.545,343.096 63.281,342.773 63.281 C 342.451 63.281,342.188 63.545,342.188 63.867 M344.336 65.625 C 344.180 65.877,344.228 66.259,344.443 66.474 C 344.703 66.735,344.928 66.712,345.117 66.406 C 345.273 66.154,345.225 65.772,345.010 65.557 C 344.750 65.297,344.525 65.319,344.336 65.625 M346.179 68.029 C 346.382 68.637,347.256 68.744,347.286 68.164 C 347.298 67.949,347.014 67.713,346.655 67.638 C 346.248 67.554,346.069 67.701,346.179 68.029 M348.438 70.117 C 348.438 70.475,348.626 70.705,348.857 70.628 C 349.088 70.551,349.277 70.321,349.277 70.117 C 349.277 69.913,349.088 69.683,348.857 69.606 C 348.626 69.529,348.438 69.759,348.438 70.117 M50.608 72.102 C 49.975 72.566,49.955 72.656,50.488 72.656 C 50.839 72.656,51.242 72.469,51.383 72.240 C 51.797 71.570,51.427 71.504,50.608 72.102 M350.391 72.070 C 350.391 72.428,350.580 72.658,350.811 72.581 C 351.042 72.504,351.230 72.274,351.230 72.070 C 351.230 71.866,351.042 71.636,350.811 71.559 C 350.580 71.482,350.391 71.712,350.391 72.070 M44.309 75.825 C 43.972 76.370,44.989 77.042,45.451 76.580 C 45.827 76.205,45.465 75.391,44.922 75.391 C 44.732 75.391,44.457 75.586,44.309 75.825 M42.362 77.768 C 41.959 78.420,42.865 79.167,43.403 78.628 C 43.854 78.177,43.572 77.344,42.969 77.344 C 42.779 77.344,42.506 77.535,42.362 77.768 M352.344 78.570 C 352.344 78.755,352.783 78.906,353.320 78.906 C 353.857 78.906,354.297 78.839,354.297 78.756 C 354.297 78.674,353.857 78.523,353.320 78.420 C 352.783 78.317,352.344 78.385,352.344 78.570 M356.507 79.561 C 356.366 79.702,356.250 80.052,356.250 80.339 C 356.250 80.920,357.257 81.052,357.590 80.513 C 357.856 80.083,356.860 79.207,356.507 79.561 M40.234 80.273 C 40.234 80.596,40.498 80.859,40.820 80.859 C 41.143 80.859,41.406 80.596,41.406 80.273 C 41.406 79.951,41.143 79.688,40.820 79.688 C 40.498 79.688,40.234 79.951,40.234 80.273 M358.397 82.034 C 358.263 82.250,358.436 82.536,358.781 82.668 C 359.529 82.955,359.946 82.639,359.586 82.057 C 359.262 81.532,358.713 81.522,358.397 82.034 M360.547 84.180 C 360.547 84.538,360.736 84.768,360.967 84.691 C 361.198 84.614,361.387 84.384,361.387 84.180 C 361.387 83.976,361.198 83.746,360.967 83.669 C 360.736 83.592,360.547 83.822,360.547 84.180 M34.239 88.073 C 33.963 88.791,34.695 89.289,35.234 88.750 C 35.651 88.333,35.351 87.500,34.784 87.500 C 34.605 87.500,34.360 87.758,34.239 88.073 M364.453 90.430 C 364.453 90.752,364.717 91.016,365.039 91.016 C 365.361 91.016,365.625 90.752,365.625 90.430 C 365.625 90.107,365.361 89.844,365.039 89.844 C 364.717 89.844,364.453 90.107,364.453 90.430 M30.078 94.336 C 30.078 94.658,30.342 94.922,30.664 94.922 C 30.986 94.922,31.250 94.658,31.250 94.336 C 31.250 94.014,30.986 93.750,30.664 93.750 C 30.342 93.750,30.078 94.014,30.078 94.336 M364.654 94.150 C 364.914 94.570,366.406 94.902,366.406 94.540 C 366.406 94.371,365.972 94.149,365.442 94.047 C 364.911 93.946,364.557 93.992,364.654 94.150 M368.628 95.955 C 368.119 96.465,368.362 96.875,369.173 96.875 C 369.628 96.875,369.919 96.670,369.832 96.411 C 369.642 95.840,368.990 95.594,368.628 95.955 M26.172 100.586 C 26.172 100.908,26.436 101.172,26.758 101.172 C 27.080 101.172,27.344 100.908,27.344 100.586 C 27.344 100.264,27.080 100.000,26.758 100.000 C 26.436 100.000,26.172 100.264,26.172 100.586 M24.089 104.167 C 23.593 104.662,23.831 105.078,24.609 105.078 C 25.043 105.078,25.391 104.818,25.391 104.492 C 25.391 103.897,24.564 103.691,24.089 104.167 M374.859 106.130 C 374.419 106.570,374.591 107.031,375.195 107.031 C 375.518 107.031,375.781 106.866,375.781 106.664 C 375.781 106.171,375.171 105.818,374.859 106.130 M177.098 107.729 C 174.630 108.926,172.936 112.285,172.238 117.367 C 172.003 119.077,171.561 120.959,171.255 121.550 C 170.950 122.141,170.518 123.994,170.295 125.667 C 170.073 127.341,169.566 129.502,169.170 130.469 C 168.773 131.436,168.326 133.419,168.176 134.877 C 167.947 137.109,167.708 137.739,166.667 138.865 L 165.430 140.203 153.241 140.316 L 141.052 140.430 139.485 141.960 C 137.345 144.051,136.998 145.954,137.177 154.635 C 137.324 161.782,137.440 162.334,139.210 164.243 C 140.862 166.025,142.809 166.406,150.264 166.406 C 160.308 166.406,161.509 167.340,158.985 173.190 C 158.601 174.078,158.167 175.824,158.020 177.070 C 157.872 178.316,157.426 180.074,157.028 180.976 C 156.630 181.879,156.130 183.760,155.916 185.156 C 155.702 186.553,155.168 188.662,154.729 189.844 C 154.291 191.025,153.926 192.557,153.919 193.247 C 153.912 193.938,153.575 195.344,153.171 196.372 C 152.767 197.401,152.230 199.239,151.978 200.457 C 151.346 203.514,151.337 203.516,138.287 203.516 L 127.472 203.516 125.650 204.935 C 123.050 206.961,122.656 208.548,122.656 217.001 C 122.656 224.901,123.051 226.705,125.246 228.838 L 126.723 230.273 135.070 230.393 L 143.417 230.512 143.951 231.789 C 144.588 233.315,144.123 237.295,142.940 240.430 C 142.535 241.504,142.029 243.627,141.816 245.148 C 141.603 246.669,141.075 248.690,140.644 249.640 C 140.051 250.948,139.859 252.212,139.852 254.848 L 139.844 258.328 142.125 260.609 L 144.406 262.891 153.082 262.891 C 162.742 262.891,162.954 262.845,165.299 260.250 C 166.361 259.074,166.726 258.277,166.909 256.730 C 167.039 255.630,167.420 254.200,167.754 253.553 C 168.089 252.906,168.551 251.024,168.781 249.371 C 169.011 247.718,169.516 245.558,169.904 244.570 C 170.292 243.582,170.738 241.631,170.897 240.234 C 171.055 238.838,171.433 237.212,171.735 236.621 C 172.038 236.030,172.458 234.641,172.667 233.535 C 173.288 230.263,172.315 230.469,187.167 230.469 L 200.410 230.469 200.813 231.529 C 201.330 232.889,200.586 238.923,199.589 241.455 C 199.198 242.449,198.752 244.382,198.599 245.752 C 198.445 247.122,197.994 249.004,197.597 249.936 C 195.718 254.338,196.141 257.662,198.965 260.697 L 201.043 262.930 210.580 262.813 L 220.117 262.695 221.743 261.114 C 223.075 259.819,223.443 259.133,223.779 257.315 C 224.004 256.096,224.447 254.599,224.762 253.989 C 225.077 253.379,225.460 251.749,225.612 250.366 C 225.764 248.983,226.203 247.043,226.587 246.055 C 226.971 245.067,227.474 242.907,227.704 241.254 C 227.934 239.601,228.370 237.769,228.673 237.183 C 228.976 236.597,229.417 235.074,229.653 233.799 C 230.266 230.481,229.372 230.687,244.101 230.469 L 257.306 230.273 258.354 229.297 C 258.931 228.760,259.924 227.564,260.561 226.641 L 261.719 224.961 261.719 216.990 C 261.719 207.836,261.664 207.649,258.085 204.483 L 256.991 203.516 247.929 203.510 C 242.850 203.506,238.610 203.340,238.281 203.130 C 237.377 202.554,237.614 196.823,238.655 194.111 C 239.103 192.946,239.642 190.795,239.853 189.332 C 240.065 187.870,240.502 186.163,240.824 185.540 C 241.146 184.917,241.599 183.045,241.831 181.380 C 242.062 179.715,242.511 177.851,242.828 177.237 C 243.146 176.624,243.642 174.659,243.932 172.869 C 245.002 166.260,244.656 166.414,258.549 166.376 C 272.375 166.339,272.904 166.218,274.858 162.670 L 276.135 160.352 276.153 153.104 L 276.172 145.856 275.055 144.119 C 272.621 140.334,272.971 140.447,263.153 140.303 L 254.492 140.175 253.418 139.155 C 252.147 137.949,252.100 137.383,253.080 135.108 C 253.485 134.168,253.933 132.303,254.075 130.965 C 254.218 129.626,254.660 127.781,255.058 126.863 C 255.457 125.946,255.909 124.053,256.063 122.656 C 256.218 121.260,256.675 119.276,257.078 118.247 C 260.166 110.382,255.359 106.412,243.164 106.756 C 234.974 106.987,231.797 108.287,231.036 111.719 C 230.917 112.256,230.487 113.574,230.081 114.648 C 229.675 115.723,229.226 117.656,229.082 118.945 C 228.939 120.234,228.497 122.040,228.101 122.957 C 227.705 123.874,227.264 125.720,227.122 127.059 C 226.980 128.397,226.526 130.276,226.113 131.235 C 225.699 132.194,225.252 134.021,225.119 135.296 C 224.931 137.096,224.620 137.906,223.726 138.924 L 222.575 140.234 210.213 140.233 L 197.852 140.231 196.582 139.041 C 195.090 137.642,195.061 137.385,196.111 134.723 C 196.550 133.609,197.073 131.405,197.273 129.824 C 197.473 128.244,197.906 126.431,198.234 125.796 C 198.563 125.161,199.016 123.315,199.242 121.693 C 199.467 120.071,199.906 118.136,200.217 117.392 C 201.738 113.751,199.925 109.332,196.213 107.633 C 192.964 106.145,180.233 106.209,177.098 107.729 M376.652 110.620 C 376.893 111.344,377.734 111.465,377.734 110.775 C 377.734 110.435,377.456 110.156,377.116 110.156 C 376.776 110.156,376.567 110.365,376.652 110.620 M378.728 114.426 C 378.439 114.894,379.174 115.357,379.694 115.035 C 380.131 114.765,379.844 114.063,379.297 114.063 C 379.107 114.063,378.851 114.226,378.728 114.426 M16.265 120.193 C 15.799 120.660,16.013 121.484,16.602 121.484 C 16.924 121.484,17.188 121.231,17.188 120.921 C 17.188 120.269,16.630 119.828,16.265 120.193 M12.109 131.055 C 12.109 131.377,12.285 131.641,12.500 131.641 C 12.715 131.641,12.891 131.377,12.891 131.055 C 12.891 130.732,12.715 130.469,12.500 130.469 C 12.285 130.469,12.109 130.732,12.109 131.055 M388.884 142.942 C 388.595 143.409,389.330 143.872,389.850 143.551 C 390.287 143.281,390.000 142.578,389.453 142.578 C 389.264 142.578,389.007 142.742,388.884 142.942 M8.073 144.792 C 7.623 145.241,7.788 145.703,8.398 145.703 C 8.721 145.703,8.984 145.439,8.984 145.117 C 8.984 144.507,8.522 144.342,8.073 144.792 M7.910 155.872 C 7.329 156.105,7.049 156.527,7.084 157.116 L 7.138 158.008 7.307 157.129 C 7.400 156.646,7.717 156.250,8.012 156.250 C 8.307 156.250,8.656 156.074,8.789 155.859 C 9.069 155.407,9.067 155.407,7.910 155.872 M216.390 167.060 C 217.387 168.328,217.188 171.736,215.949 174.609 C 215.532 175.576,215.029 177.642,214.832 179.200 C 214.634 180.759,214.184 182.591,213.832 183.272 C 213.479 183.953,213.041 185.710,212.856 187.175 C 212.672 188.641,212.240 190.385,211.896 191.051 C 211.551 191.717,211.035 193.696,210.748 195.448 C 210.271 198.359,209.232 201.806,208.464 203.027 C 207.864 203.981,181.439 203.705,180.469 202.734 C 179.549 201.814,179.491 200.966,180.226 199.169 C 180.523 198.444,180.892 196.797,181.048 195.508 C 181.203 194.219,181.586 192.670,181.899 192.066 C 182.211 191.462,182.710 189.583,183.008 187.891 C 183.305 186.198,183.819 184.291,184.150 183.651 C 184.480 183.012,184.867 181.463,185.009 180.209 C 185.151 178.956,185.596 177.082,185.998 176.046 C 186.401 175.010,186.904 172.934,187.117 171.433 C 187.401 169.428,187.788 168.347,188.576 167.360 L 189.648 166.016 202.608 166.016 L 215.568 166.016 216.390 167.060 M5.123 172.363 C 5.158 173.032,5.212 173.078,5.348 172.554 C 5.447 172.175,5.678 171.958,5.862 172.072 C 6.046 172.185,6.306 172.100,6.441 171.881 C 6.577 171.662,6.328 171.484,5.882 171.484 C 5.295 171.484,5.090 171.722,5.123 172.363 M5.131 196.536 C 5.090 197.334,5.290 197.606,6.019 197.745 C 6.710 197.877,6.904 197.779,6.750 197.378 C 6.634 197.076,6.310 196.918,6.029 197.026 C 5.726 197.143,5.450 196.873,5.351 196.365 C 5.207 195.625,5.177 195.648,5.131 196.536 M391.184 203.168 C 390.836 203.732,391.090 203.852,391.964 203.535 C 392.625 203.295,392.639 203.232,392.074 203.015 C 391.720 202.879,391.320 202.948,391.184 203.168 M385.645 231.262 C 384.494 231.725,384.530 231.962,385.742 231.892 C 386.279 231.861,386.718 231.616,386.718 231.348 C 386.719 231.079,386.675 230.871,386.621 230.884 C 386.567 230.898,386.128 231.068,385.645 231.262 M384.406 237.012 C 384.384 237.620,384.134 237.891,383.594 237.891 C 383.164 237.891,382.813 238.050,382.813 238.245 C 382.813 238.772,384.409 238.256,384.640 237.654 C 384.750 237.369,384.749 236.910,384.638 236.634 C 384.527 236.358,384.423 236.528,384.406 237.012 M382.882 243.966 C 383.058 244.814,383.751 244.866,383.910 244.043 C 383.992 243.615,383.801 243.359,383.398 243.359 C 383.023 243.359,382.808 243.612,382.882 243.966 M16.016 248.242 C 16.016 248.564,16.279 248.828,16.602 248.828 C 16.924 248.828,17.188 248.564,17.188 248.242 C 17.188 247.920,16.924 247.656,16.602 247.656 C 16.279 247.656,16.016 247.920,16.016 248.242 M378.906 254.102 C 378.906 254.424,379.082 254.688,379.297 254.688 C 379.512 254.688,379.688 254.424,379.688 254.102 C 379.688 253.779,379.512 253.516,379.297 253.516 C 379.082 253.516,378.906 253.779,378.906 254.102 M376.563 258.203 C 376.563 258.418,376.826 258.594,377.148 258.594 C 377.471 258.594,377.734 258.418,377.734 258.203 C 377.734 257.988,377.471 257.813,377.148 257.813 C 376.826 257.813,376.563 257.988,376.563 258.203 M374.684 262.139 C 374.761 262.370,374.991 262.559,375.195 262.559 C 375.399 262.559,375.629 262.370,375.706 262.139 C 375.783 261.908,375.553 261.719,375.195 261.719 C 374.837 261.719,374.607 261.908,374.684 262.139 M24.051 264.018 C 23.785 264.448,24.780 265.324,25.134 264.971 C 25.275 264.829,25.391 264.479,25.391 264.193 C 25.391 263.611,24.384 263.480,24.051 264.018 M26.247 268.389 C 26.324 268.620,26.554 268.809,26.758 268.809 C 26.962 268.809,27.192 268.620,27.269 268.389 C 27.346 268.158,27.116 267.969,26.758 267.969 C 26.400 267.969,26.170 268.158,26.247 268.389 M370.703 268.587 C 370.703 268.927,370.912 269.136,371.167 269.051 C 371.891 268.810,372.011 267.969,371.322 267.969 C 370.981 267.969,370.703 268.247,370.703 268.587 M368.750 272.461 C 368.750 272.819,368.939 273.049,369.170 272.972 C 369.401 272.895,369.590 272.665,369.590 272.461 C 369.590 272.257,369.401 272.027,369.170 271.950 C 368.939 271.873,368.750 272.103,368.750 272.461 M30.078 274.414 C 30.078 274.736,30.342 275.000,30.664 275.000 C 30.986 275.000,31.250 274.736,31.250 274.414 C 31.250 274.092,30.986 273.828,30.664 273.828 C 30.342 273.828,30.078 274.092,30.078 274.414 M33.594 276.517 C 33.594 276.707,34.035 276.946,34.574 277.049 C 35.367 277.201,35.469 277.135,35.112 276.704 C 34.618 276.110,33.594 275.983,33.594 276.517 M364.528 278.545 C 364.605 278.776,364.835 278.965,365.039 278.965 C 365.243 278.965,365.473 278.776,365.550 278.545 C 365.627 278.314,365.397 278.125,365.039 278.125 C 364.681 278.125,364.451 278.314,364.528 278.545 M35.578 279.883 C 35.555 280.456,35.797 280.664,36.486 280.664 C 37.003 280.664,37.344 280.532,37.244 280.371 C 37.145 280.210,36.825 280.078,36.533 280.078 C 36.241 280.078,35.914 279.858,35.806 279.590 C 35.697 279.321,35.595 279.453,35.578 279.883 M362.500 280.664 C 362.500 280.986,362.764 281.250,363.086 281.250 C 363.408 281.250,363.672 280.986,363.672 280.664 C 363.672 280.342,363.408 280.078,363.086 280.078 C 362.764 280.078,362.500 280.342,362.500 280.664 M358.594 286.491 C 358.594 286.831,358.872 287.109,359.212 287.109 C 359.902 287.109,359.782 286.268,359.058 286.027 C 358.802 285.942,358.594 286.151,358.594 286.491 M356.414 288.332 C 356.081 288.871,356.845 289.614,357.388 289.279 C 357.621 289.134,357.813 288.870,357.813 288.691 C 357.813 288.171,356.691 287.884,356.414 288.332 M354.297 290.820 C 354.297 291.143,354.561 291.406,354.883 291.406 C 355.205 291.406,355.469 291.143,355.469 290.820 C 355.469 290.498,355.205 290.234,354.883 290.234 C 354.561 290.234,354.297 290.498,354.297 290.820 M350.402 292.370 C 350.140 292.685,350.017 293.168,350.128 293.444 C 350.252 293.754,350.341 293.680,350.360 293.249 C 350.377 292.866,350.786 292.394,351.270 292.200 C 351.864 291.961,351.943 291.838,351.513 291.822 C 351.163 291.808,350.663 292.055,350.402 292.370 M37.559 301.810 C 37.510 302.815,37.668 303.066,38.441 303.214 C 39.095 303.339,39.323 303.241,39.190 302.893 C 39.084 302.618,38.762 302.484,38.473 302.594 C 38.129 302.727,37.891 302.416,37.783 301.691 C 37.617 300.587,37.617 300.587,37.559 301.810 M344.230 302.808 C 344.472 303.532,345.313 303.652,345.313 302.962 C 345.313 302.622,345.034 302.344,344.694 302.344 C 344.354 302.344,344.145 302.552,344.230 302.808 M342.371 304.707 C 342.000 305.308,342.508 305.695,343.009 305.194 C 343.290 304.913,343.297 304.695,343.030 304.530 C 342.811 304.395,342.514 304.474,342.371 304.707 M332.031 313.086 C 332.031 313.408,332.295 313.672,332.617 313.672 C 332.939 313.672,333.203 313.408,333.203 313.086 C 333.203 312.764,332.939 312.500,332.617 312.500 C 332.295 312.500,332.031 312.764,332.031 313.086 M330.078 315.039 C 330.078 315.361,330.342 315.625,330.664 315.625 C 330.986 315.625,331.250 315.361,331.250 315.039 C 331.250 314.717,330.986 314.453,330.664 314.453 C 330.342 314.453,330.078 314.717,330.078 315.039 M328.125 316.960 C 328.125 317.300,328.403 317.578,328.743 317.578 C 329.433 317.578,329.313 316.737,328.589 316.496 C 328.334 316.411,328.125 316.619,328.125 316.960 M321.875 321.289 C 321.875 321.611,322.139 321.875,322.461 321.875 C 322.783 321.875,323.047 321.611,323.047 321.289 C 323.047 320.967,322.783 320.703,322.461 320.703 C 322.139 320.703,321.875 320.967,321.875 321.289 M319.922 323.275 C 319.922 323.615,320.131 323.824,320.386 323.739 C 321.110 323.497,321.230 322.656,320.540 322.656 C 320.200 322.656,319.922 322.935,319.922 323.275 M313.932 326.823 C 313.483 327.272,313.648 327.734,314.258 327.734 C 314.580 327.734,314.844 327.471,314.844 327.148 C 314.844 326.538,314.382 326.373,313.932 326.823 M309.961 328.906 C 309.805 329.159,309.853 329.541,310.068 329.756 C 310.328 330.016,310.553 329.993,310.742 329.688 C 310.898 329.435,310.850 329.053,310.635 328.838 C 310.375 328.578,310.150 328.600,309.961 328.906 M303.516 333.398 C 303.516 333.801,303.772 333.992,304.199 333.910 C 305.023 333.751,304.971 333.058,304.122 332.882 C 303.768 332.808,303.516 333.023,303.516 333.398 M299.609 335.352 C 299.609 335.674,299.873 335.938,300.195 335.938 C 300.518 335.938,300.781 335.674,300.781 335.352 C 300.781 335.029,300.518 334.766,300.195 334.766 C 299.873 334.766,299.609 335.029,299.609 335.352 M287.500 341.634 C 287.500 342.324,288.341 342.204,288.582 341.479 C 288.667 341.224,288.459 341.016,288.118 341.016 C 287.778 341.016,287.500 341.294,287.500 341.634 M283.293 343.433 C 283.534 344.157,284.375 344.277,284.375 343.587 C 284.375 343.247,284.097 342.969,283.757 342.969 C 283.416 342.969,283.208 343.177,283.293 343.433 M273.307 347.135 C 272.858 347.585,273.023 348.047,273.633 348.047 C 273.955 348.047,274.219 347.783,274.219 347.461 C 274.219 346.851,273.757 346.686,273.307 347.135 M42.188 347.544 C 42.510 347.664,42.997 347.938,43.271 348.155 C 43.643 348.449,43.706 348.386,43.522 347.907 C 43.387 347.554,42.899 347.280,42.439 347.296 C 41.867 347.318,41.788 347.396,42.188 347.544 M267.188 349.609 C 267.188 350.113,267.385 350.390,267.676 350.293 C 267.944 350.203,268.164 349.896,268.164 349.609 C 268.164 349.323,267.944 349.015,267.676 348.926 C 267.385 348.829,267.188 349.106,267.188 349.609 M261.012 351.592 C 261.089 351.823,261.319 352.012,261.523 352.012 C 261.728 352.012,261.958 351.823,262.035 351.592 C 262.111 351.361,261.882 351.172,261.523 351.172 C 261.165 351.172,260.935 351.361,261.012 351.592 M143.365 353.613 C 143.362 354.038,143.655 354.297,144.141 354.297 C 144.627 354.297,144.920 354.038,144.916 353.613 C 144.911 353.028,144.855 353.014,144.525 353.516 C 144.183 354.036,144.098 354.036,143.756 353.516 C 143.427 353.014,143.370 353.028,143.365 353.613 M164.360 356.067 C 164.470 356.643,164.801 357.019,165.182 357.000 C 165.587 356.981,165.642 356.898,165.332 356.773 C 165.063 356.664,164.844 356.337,164.844 356.045 C 164.844 355.754,164.693 355.422,164.510 355.308 C 164.326 355.195,164.258 355.536,164.360 356.067 M233.317 355.762 C 233.178 356.138,232.876 356.574,232.646 356.732 C 232.388 356.909,232.472 357.022,232.865 357.025 C 233.237 357.029,233.580 356.625,233.689 356.055 C 233.905 354.929,233.687 354.758,233.317 355.762 M180.838 357.591 C 181.101 357.909,181.204 358.352,181.065 358.577 C 180.916 358.817,181.183 358.972,181.715 358.954 C 182.211 358.937,182.397 358.834,182.129 358.726 C 181.860 358.617,181.641 358.298,181.641 358.017 C 181.641 357.736,181.352 357.395,180.999 357.259 C 180.471 357.057,180.442 357.115,180.838 357.591 M216.629 357.645 C 215.847 358.427,215.845 358.984,216.625 358.984 C 216.960 358.984,217.120 358.801,216.982 358.577 C 216.843 358.352,216.942 357.913,217.202 357.600 C 217.834 356.838,217.402 356.872,216.629 357.645 M133.263 359.546 C 133.338 359.904,133.574 360.188,133.789 360.177 C 134.369 360.146,134.262 359.272,133.654 359.070 C 133.326 358.960,133.179 359.139,133.263 359.546 M129.070 361.379 C 128.737 361.918,129.502 362.661,130.044 362.326 C 130.278 362.181,130.469 361.917,130.469 361.737 C 130.469 361.218,129.347 360.931,129.070 361.379 M123.047 365.853 C 123.047 366.193,123.256 366.402,123.511 366.317 C 124.235 366.075,124.355 365.234,123.665 365.234 C 123.325 365.234,123.047 365.513,123.047 365.853 M118.944 367.581 C 118.810 367.797,118.983 368.083,119.328 368.215 C 120.076 368.502,120.493 368.186,120.133 367.604 C 119.809 367.079,119.260 367.069,118.944 367.581 M43.750 369.945 C 43.750 370.172,43.933 370.245,44.158 370.107 C 44.382 369.968,44.865 370.089,45.232 370.377 C 45.832 370.847,45.845 370.831,45.362 370.215 C 44.773 369.463,43.750 369.292,43.750 369.945 M108.984 374.056 C 108.984 374.396,109.193 374.605,109.448 374.520 C 110.173 374.278,110.293 373.438,109.603 373.438 C 109.263 373.438,108.984 373.716,108.984 374.056 M104.688 375.977 C 104.688 376.379,104.944 376.570,105.371 376.488 C 106.194 376.330,106.143 375.636,105.294 375.460 C 104.940 375.386,104.688 375.601,104.688 375.977 M98.828 379.883 C 98.828 380.241,99.017 380.471,99.248 380.394 C 99.479 380.317,99.668 380.087,99.668 379.883 C 99.668 379.679,99.479 379.449,99.248 379.372 C 99.017 379.295,98.828 379.525,98.828 379.883 M90.771 381.823 C 90.650 382.138,90.642 382.622,90.753 382.897 C 90.863 383.173,90.968 383.018,90.985 382.552 C 91.002 382.087,91.235 381.617,91.504 381.509 C 91.886 381.354,91.884 381.305,91.492 381.281 C 91.216 381.264,90.892 381.508,90.771 381.823 M94.765 381.537 C 94.326 381.976,94.530 382.813,95.075 382.813 C 95.814 382.813,96.174 381.755,95.521 381.505 C 95.234 381.394,94.893 381.409,94.765 381.537 M44.238 382.129 C 44.328 382.397,44.635 382.617,44.922 382.617 C 45.208 382.617,45.516 382.397,45.605 382.129 C 45.702 381.838,45.425 381.641,44.922 381.641 C 44.418 381.641,44.141 381.838,44.238 382.129 M46.365 385.797 C 46.000 386.161,46.441 386.719,47.093 386.719 C 47.403 386.719,47.656 386.455,47.656 386.133 C 47.656 385.544,46.832 385.330,46.365 385.797 M88.672 386.133 C 88.672 386.455,88.848 386.719,89.063 386.719 C 89.277 386.719,89.453 386.455,89.453 386.133 C 89.453 385.811,89.277 385.547,89.063 385.547 C 88.848 385.547,88.672 385.811,88.672 386.133 M84.375 388.086 C 84.375 388.488,84.631 388.680,85.059 388.598 C 85.882 388.439,85.830 387.746,84.982 387.569 C 84.628 387.495,84.375 387.711,84.375 388.086 M52.518 391.831 C 52.115 392.482,53.021 393.229,53.560 392.690 C 54.010 392.240,53.728 391.406,53.125 391.406 C 52.936 391.406,52.662 391.597,52.518 391.831 M56.967 391.877 C 57.254 392.244,57.376 392.727,57.237 392.952 C 57.099 393.176,57.171 393.359,57.399 393.359 C 58.052 393.359,57.881 392.337,57.129 391.747 C 56.513 391.264,56.497 391.277,56.967 391.877 M78.516 392.188 C 78.516 392.691,78.713 392.968,79.004 392.871 C 79.272 392.782,79.492 392.474,79.492 392.188 C 79.492 391.901,79.272 391.593,79.004 391.504 C 78.713 391.407,78.516 391.684,78.516 392.188 " stroke="none" fill="#f5f8fc" fill-rule="evenodd"></path><path id="path1" d="M181.250 10.126 C 179.558 10.276,178.711 10.519,178.711 10.854 C 178.711 11.888,177.364 12.098,170.698 12.103 C 163.981 12.109,163.850 12.125,163.472 12.988 C 163.105 13.823,162.842 13.873,158.193 13.976 C 153.564 14.079,153.280 14.131,152.920 14.952 C 152.567 15.756,152.244 15.829,148.535 15.932 C 144.867 16.034,144.531 16.107,144.531 16.803 C 144.531 17.700,143.767 17.925,140.251 18.064 C 137.920 18.156,137.709 18.238,137.490 19.141 C 137.268 20.052,137.112 20.109,135.139 19.999 C 132.292 19.840,131.330 20.130,131.179 21.192 C 131.065 21.997,130.820 22.080,128.248 22.185 C 125.691 22.289,125.430 22.376,125.318 23.161 C 125.207 23.940,124.939 24.035,122.542 24.139 C 120.135 24.244,119.855 24.344,119.524 25.214 C 119.204 26.055,118.921 26.172,117.197 26.172 C 115.515 26.172,115.234 26.280,115.234 26.930 C 115.234 27.949,114.561 28.320,112.717 28.320 C 111.399 28.320,111.143 28.461,110.937 29.297 C 110.742 30.086,110.475 30.260,109.547 30.205 C 107.559 30.088,106.702 30.417,106.570 31.348 C 106.464 32.098,106.173 32.244,104.590 32.346 C 102.915 32.453,102.734 32.557,102.734 33.420 C 102.734 34.306,102.592 34.375,100.781 34.375 C 98.958 34.375,98.828 34.440,98.828 35.352 C 98.828 36.402,98.628 36.484,96.387 36.349 C 95.147 36.274,94.922 36.383,94.922 37.053 C 94.922 38.080,94.268 38.477,92.578 38.477 C 91.451 38.477,91.189 38.633,91.084 39.371 C 90.995 39.998,90.622 40.333,89.836 40.490 C 89.079 40.641,88.676 40.986,88.596 41.548 C 88.496 42.246,88.173 42.402,86.621 42.502 C 85.077 42.601,84.766 42.750,84.766 43.389 C 84.766 43.820,84.356 44.344,83.832 44.583 C 83.319 44.817,82.706 45.431,82.471 45.947 C 82.093 46.776,81.866 46.858,80.527 46.644 C 79.135 46.421,78.991 46.484,78.758 47.413 C 78.599 48.044,78.146 48.515,77.555 48.664 C 76.980 48.808,76.560 49.233,76.487 49.744 C 76.403 50.336,76.020 50.644,75.195 50.781 C 74.503 50.897,74.023 51.215,74.023 51.561 C 74.023 51.931,73.426 52.271,72.393 52.489 C 71.178 52.745,70.707 53.058,70.541 53.717 C 70.411 54.234,69.913 54.703,69.339 54.847 C 68.710 55.005,68.359 55.367,68.359 55.859 C 68.359 56.344,68.012 56.713,67.417 56.862 C 66.855 57.003,66.378 57.480,66.237 58.042 C 66.093 58.618,65.717 58.984,65.269 58.984 C 64.815 58.984,64.445 59.354,64.293 59.961 C 64.114 60.674,63.786 60.938,63.078 60.938 C 62.366 60.938,62.109 61.147,62.109 61.729 C 62.109 62.295,61.777 62.586,60.938 62.754 C 60.293 62.883,59.766 63.234,59.766 63.535 C 59.766 63.836,59.338 64.245,58.815 64.443 C 57.581 64.913,52.022 70.471,51.553 71.705 C 51.354 72.228,50.935 72.656,50.622 72.656 C 50.290 72.656,50.000 73.106,49.928 73.730 C 49.840 74.500,49.555 74.840,48.926 74.930 C 48.292 75.020,48.047 75.317,48.047 75.996 C 48.047 76.669,47.775 77.007,47.093 77.178 C 46.512 77.324,46.092 77.747,46.018 78.259 C 45.945 78.775,45.572 79.148,45.056 79.222 C 44.558 79.293,44.121 79.712,43.986 80.249 C 43.861 80.748,43.407 81.249,42.978 81.361 C 42.548 81.473,42.023 82.021,41.811 82.579 C 41.571 83.210,41.127 83.594,40.635 83.594 C 39.961 83.594,39.844 83.847,39.844 85.309 C 39.844 86.800,39.720 87.056,38.894 87.263 C 38.302 87.412,37.898 87.832,37.820 88.380 C 37.744 88.913,37.382 89.303,36.896 89.372 C 36.421 89.440,35.914 89.968,35.649 90.673 C 35.402 91.325,34.825 91.957,34.364 92.077 C 33.646 92.265,33.563 92.486,33.778 93.634 C 34.009 94.863,33.931 95.010,32.835 95.424 C 31.999 95.739,31.641 96.134,31.641 96.737 C 31.641 97.714,30.591 98.950,30.047 98.613 C 29.849 98.491,29.687 99.021,29.687 99.791 C 29.688 100.904,29.498 101.263,28.764 101.542 C 27.655 101.964,27.356 102.622,27.628 104.044 C 27.803 104.958,27.658 105.175,26.611 105.570 C 25.510 105.985,25.391 106.192,25.391 107.676 C 25.391 109.084,25.264 109.339,24.512 109.445 C 23.766 109.551,23.603 109.867,23.438 111.523 C 23.272 113.180,23.109 113.496,22.363 113.601 C 21.588 113.712,21.484 113.952,21.484 115.652 C 21.484 117.435,21.413 117.578,20.528 117.578 C 19.651 117.578,19.562 117.747,19.454 119.613 C 19.349 121.418,19.225 121.674,18.359 121.879 C 17.486 122.085,17.383 122.306,17.383 123.982 C 17.383 125.579,17.217 125.987,16.253 126.755 C 15.227 127.574,15.143 127.822,15.329 129.471 C 15.541 131.355,15.002 132.422,13.839 132.422 C 13.405 132.422,13.281 133.072,13.281 135.344 C 13.281 138.124,13.234 138.278,12.318 138.508 C 11.388 138.741,11.352 138.879,11.244 142.519 C 11.139 146.092,11.087 146.296,10.254 146.414 C 9.406 146.534,9.375 146.684,9.375 150.639 C 9.375 154.757,9.019 156.250,8.038 156.250 C 7.228 156.250,6.974 158.497,7.073 164.781 C 7.160 170.309,6.781 172.640,5.884 172.086 C 5.230 171.682,5.089 173.832,5.083 184.229 C 5.078 195.419,5.225 197.335,6.062 197.013 C 6.915 196.686,7.168 198.387,7.068 203.776 C 6.945 210.466,7.227 212.417,8.342 212.576 C 9.139 212.690,9.185 212.926,9.289 217.441 C 9.397 222.123,9.411 222.190,10.363 222.429 C 11.304 222.665,11.328 222.762,11.328 226.375 C 11.328 229.806,11.385 230.078,12.102 230.078 C 13.001 230.078,13.232 230.821,13.376 234.180 C 13.466 236.277,13.569 236.537,14.355 236.648 C 15.339 236.788,15.365 236.877,15.247 239.742 C 15.171 241.593,15.255 241.824,16.122 242.154 C 17.315 242.607,17.666 243.472,17.346 245.174 C 17.118 246.389,17.196 246.528,18.315 246.918 C 19.450 247.314,19.531 247.468,19.531 249.230 C 19.531 250.890,19.637 251.133,20.410 251.242 C 21.174 251.351,21.304 251.632,21.406 253.393 C 21.507 255.140,21.642 255.436,22.383 255.542 C 23.093 255.643,23.263 255.956,23.363 257.343 C 23.461 258.693,23.666 259.091,24.414 259.375 C 25.160 259.659,25.368 260.058,25.465 261.392 C 25.567 262.797,25.737 263.091,26.563 263.287 C 27.360 263.478,27.545 263.766,27.573 264.866 C 27.627 266.995,27.684 267.126,28.613 267.258 C 29.314 267.358,29.516 267.672,29.611 268.808 C 29.695 269.815,29.946 270.289,30.468 270.425 C 30.902 270.539,31.346 271.159,31.545 271.930 C 31.759 272.755,32.166 273.294,32.642 273.384 C 33.624 273.571,34.038 274.218,33.807 275.206 C 33.679 275.757,33.886 276.115,34.485 276.378 C 34.959 276.587,35.399 277.109,35.462 277.539 C 35.750 279.492,35.991 280.078,36.508 280.078 C 37.487 280.078,37.548 280.698,37.514 290.205 C 37.479 300.203,37.689 302.895,38.481 302.591 C 39.596 302.164,39.844 304.363,39.844 314.667 C 39.844 323.481,39.928 325.000,40.416 325.000 C 41.621 325.000,41.797 326.514,41.797 336.888 C 41.797 346.810,41.829 347.266,42.536 347.266 C 43.690 347.266,43.750 347.845,43.750 358.924 L 43.750 369.346 44.629 369.732 C 45.470 370.101,45.512 370.345,45.616 375.442 L 45.725 380.766 46.884 380.998 C 47.993 381.220,48.039 381.311,47.947 383.095 C 47.856 384.868,47.905 384.967,48.926 385.085 C 49.690 385.172,50.000 385.429,50.000 385.973 C 50.000 386.430,50.394 386.888,50.977 387.109 C 51.514 387.314,51.953 387.739,51.953 388.055 C 51.953 388.371,52.437 388.860,53.027 389.143 C 53.620 389.426,54.156 390.038,54.223 390.509 C 54.320 391.183,54.648 391.387,55.786 391.482 C 56.838 391.569,57.331 391.839,57.612 392.480 C 57.994 393.350,58.081 393.359,65.871 393.359 L 73.743 393.359 73.989 392.383 C 74.204 391.526,74.445 391.406,75.957 391.406 C 77.440 391.406,77.697 391.285,77.805 390.537 C 77.874 390.059,78.364 389.452,78.895 389.189 C 79.425 388.925,79.971 388.393,80.108 388.007 C 80.296 387.477,80.773 387.305,82.051 387.305 C 83.535 387.305,83.774 387.184,83.978 386.328 C 84.175 385.503,84.469 385.333,85.874 385.231 C 87.221 385.133,87.606 384.928,87.900 384.156 C 88.171 383.443,88.552 383.203,89.416 383.203 C 90.316 383.203,90.598 383.009,90.695 382.324 C 90.795 381.623,91.133 381.406,92.367 381.250 C 93.618 381.092,93.958 380.868,94.145 380.078 C 94.348 379.220,94.583 379.102,96.092 379.102 C 97.599 379.102,97.835 378.983,98.040 378.125 C 98.234 377.313,98.537 377.129,99.833 377.032 C 101.001 376.946,101.488 376.700,101.771 376.056 C 101.998 375.538,102.567 375.147,103.199 375.074 C 103.934 374.989,104.285 374.696,104.370 374.097 C 104.473 373.377,104.781 373.224,106.323 373.124 C 107.868 373.025,108.173 372.872,108.276 372.148 C 108.377 371.439,108.691 371.268,110.077 371.168 C 111.434 371.070,111.824 370.867,112.114 370.105 C 112.311 369.586,112.912 369.052,113.449 368.917 C 113.986 368.783,114.531 368.338,114.661 367.930 C 114.827 367.407,115.264 367.186,116.140 367.182 C 117.663 367.174,118.225 366.838,118.415 365.820 C 118.533 365.194,118.922 365.016,120.376 364.922 C 121.930 364.821,122.225 364.666,122.431 363.847 C 122.624 363.078,122.919 362.891,123.938 362.891 C 124.878 362.891,125.305 362.663,125.591 362.012 C 125.855 361.409,126.375 361.094,127.246 361.010 C 128.144 360.924,128.516 360.689,128.516 360.210 C 128.516 359.110,129.273 358.665,130.798 358.869 C 132.118 359.045,132.262 358.964,132.700 357.798 C 133.117 356.690,133.309 356.564,134.281 356.759 C 135.517 357.006,135.934 356.805,136.563 355.664 C 136.800 355.234,137.355 354.829,137.796 354.763 C 138.266 354.693,138.698 354.247,138.838 353.689 C 139.047 352.855,139.298 352.734,140.820 352.734 C 142.340 352.734,142.594 352.613,142.801 351.786 C 143.227 350.090,145.703 350.233,145.703 351.953 C 145.703 352.642,146.051 352.717,149.707 352.818 C 153.482 352.923,153.718 352.978,153.832 353.780 C 153.974 354.775,157.544 355.358,160.995 354.949 C 163.144 354.694,164.844 355.160,164.844 356.003 C 164.844 356.918,165.768 357.031,173.242 357.031 C 180.625 357.031,181.641 357.149,181.641 358.008 C 181.641 358.284,181.919 358.617,182.259 358.747 C 183.291 359.143,216.016 359.022,216.016 358.622 C 216.016 357.243,217.158 357.031,224.605 357.031 C 232.237 357.031,233.203 356.918,233.203 356.027 C 233.203 355.095,234.634 354.665,236.861 354.927 C 240.492 355.354,244.070 354.796,244.215 353.780 C 244.329 352.981,244.595 352.917,248.633 352.714 C 250.996 352.595,252.792 352.463,252.623 352.421 C 252.454 352.378,252.504 351.992,252.734 351.563 C 253.104 350.872,253.552 350.781,256.612 350.781 C 259.976 350.781,260.078 350.754,260.317 349.805 C 260.551 348.872,260.693 348.828,263.484 348.828 C 266.116 348.828,266.406 348.753,266.406 348.070 C 266.406 346.959,267.091 346.688,269.900 346.683 C 272.260 346.680,272.433 346.619,272.656 345.703 C 272.859 344.873,273.126 344.723,274.436 344.701 C 277.365 344.651,278.170 344.530,277.949 344.172 C 277.472 343.401,278.975 342.578,280.860 342.578 C 282.531 342.578,282.773 342.473,282.883 341.699 C 282.989 340.956,283.282 340.802,284.785 340.704 C 286.331 340.604,286.616 340.445,286.981 339.477 C 287.375 338.433,287.507 338.378,289.175 338.566 C 290.812 338.751,290.959 338.694,291.080 337.840 C 291.193 337.039,291.455 336.898,293.021 336.797 C 294.696 336.688,294.850 336.589,295.072 335.478 C 295.288 334.401,295.427 334.300,296.426 334.500 C 298.175 334.850,299.219 334.421,299.219 333.353 C 299.219 332.498,299.376 332.422,301.145 332.422 C 302.845 332.422,303.085 332.319,303.195 331.543 C 303.300 330.810,303.600 330.644,304.999 330.543 C 306.344 330.446,306.747 330.239,307.027 329.502 C 307.220 328.996,307.750 328.464,308.206 328.319 C 308.662 328.175,309.177 327.676,309.350 327.212 C 309.606 326.525,309.980 326.367,311.353 326.367 C 312.832 326.367,313.071 326.246,313.275 325.391 C 313.439 324.701,313.811 324.378,314.542 324.293 C 315.261 324.208,315.614 323.911,315.699 323.316 C 315.799 322.613,316.115 322.440,317.480 322.341 C 318.839 322.243,319.141 322.079,319.141 321.442 C 319.141 320.927,319.539 320.524,320.313 320.254 C 321.028 320.005,321.484 319.572,321.484 319.144 C 321.484 318.284,322.177 317.985,323.560 318.250 C 324.423 318.415,324.609 318.308,324.609 317.649 C 324.609 317.090,325.017 316.700,325.959 316.359 C 326.819 316.048,327.350 315.579,327.424 315.065 C 327.494 314.572,327.881 314.209,328.417 314.133 C 328.954 314.057,329.385 313.653,329.525 313.096 C 329.651 312.594,330.103 312.092,330.531 311.980 C 330.958 311.868,331.402 311.418,331.516 310.979 C 331.733 310.152,332.924 309.547,333.562 309.942 C 333.764 310.066,333.985 309.776,334.054 309.298 C 334.147 308.657,334.538 308.355,335.536 308.151 C 336.283 308.000,336.957 307.684,337.035 307.450 C 337.266 306.758,340.136 303.906,340.603 303.906 C 340.839 303.906,341.233 303.467,341.477 302.930 C 341.722 302.393,342.086 301.953,342.285 301.953 C 342.710 301.953,348.047 296.551,348.047 296.121 C 348.047 295.960,348.475 295.634,348.997 295.396 C 349.674 295.087,349.983 294.591,350.071 293.673 C 350.157 292.781,350.467 292.264,351.074 291.997 C 351.610 291.762,351.953 291.269,351.953 290.735 C 351.953 290.126,352.251 289.784,352.930 289.614 C 353.536 289.461,353.906 289.091,353.906 288.637 C 353.906 288.190,354.272 287.814,354.849 287.669 C 355.392 287.532,355.887 287.053,356.017 286.536 C 356.140 286.043,356.608 285.544,357.056 285.427 C 357.504 285.310,357.969 284.836,358.090 284.374 C 358.211 283.912,358.725 283.376,359.233 283.183 C 359.991 282.894,360.156 282.553,360.156 281.267 C 360.156 279.934,360.297 279.667,361.110 279.463 C 361.691 279.317,362.112 278.894,362.185 278.381 C 362.260 277.853,362.632 277.493,363.184 277.414 C 364.035 277.293,364.125 277.083,364.215 275.000 C 364.242 274.388,364.586 273.880,365.137 273.638 C 365.620 273.426,366.016 272.978,366.016 272.642 C 366.016 271.808,366.796 271.094,367.708 271.094 C 368.360 271.094,368.434 270.886,368.258 269.567 C 368.038 267.934,368.462 267.188,369.609 267.188 C 370.060 267.188,370.313 266.897,370.313 266.381 C 370.313 265.244,371.017 264.063,371.693 264.063 C 372.086 264.063,372.266 263.636,372.266 262.703 C 372.266 261.578,372.434 261.301,373.242 261.098 C 373.779 260.963,374.235 260.564,374.255 260.212 C 374.274 259.859,374.318 259.052,374.352 258.418 C 374.400 257.536,374.644 257.211,375.391 257.032 C 376.240 256.828,376.369 256.581,376.380 255.134 C 376.393 253.514,376.916 252.754,378.027 252.740 C 378.343 252.736,378.516 252.126,378.516 251.009 C 378.516 248.791,378.816 248.047,379.711 248.047 C 380.322 248.047,380.449 247.676,380.548 245.605 C 380.652 243.413,380.754 243.151,381.543 243.039 C 382.293 242.933,382.423 242.676,382.427 241.281 C 382.435 238.934,382.797 237.891,383.605 237.891 C 384.325 237.891,385.095 235.223,384.604 234.429 C 384.103 233.618,384.883 231.577,385.832 231.216 C 386.728 230.875,386.784 230.687,386.710 228.219 C 386.605 224.659,386.599 224.681,387.598 224.539 C 388.431 224.421,388.487 224.200,388.672 220.313 C 388.852 216.527,388.935 216.181,389.746 215.825 C 390.596 215.452,390.625 215.263,390.625 210.089 C 390.625 204.410,390.971 202.592,391.980 202.979 C 392.512 203.183,392.578 201.135,392.578 184.417 C 392.578 168.174,392.501 165.625,392.006 165.625 C 390.923 165.625,390.625 164.109,390.625 158.610 L 390.625 153.106 389.648 152.734 C 388.697 152.373,388.672 152.262,388.672 148.485 L 388.672 144.608 387.542 144.214 C 386.421 143.823,386.414 143.801,386.616 141.280 C 386.836 138.546,386.528 136.549,385.943 136.911 C 385.404 137.244,384.250 135.265,384.541 134.506 C 385.015 133.271,384.355 130.469,383.591 130.469 C 382.724 130.469,382.422 129.710,382.422 127.534 C 382.422 126.070,382.301 125.818,381.543 125.711 C 380.745 125.597,380.653 125.344,380.549 122.974 C 380.446 120.620,380.349 120.350,379.573 120.240 C 378.827 120.134,378.695 119.840,378.593 118.066 C 378.495 116.358,378.352 116.016,377.737 116.016 C 376.739 116.016,376.367 115.333,376.367 113.499 C 376.367 112.180,376.227 111.924,375.391 111.719 C 374.594 111.524,374.408 111.232,374.380 110.134 C 374.326 108.005,374.269 107.874,373.340 107.742 C 372.607 107.638,372.441 107.338,372.340 105.938 C 372.242 104.575,372.040 104.192,371.266 103.897 C 370.618 103.651,370.313 103.232,370.313 102.591 C 370.313 101.910,370.041 101.579,369.336 101.402 C 368.476 101.186,368.359 100.948,368.359 99.407 C 368.359 97.955,368.234 97.656,367.626 97.656 C 366.629 97.656,365.878 96.663,366.134 95.684 C 366.289 95.090,366.102 94.787,365.420 94.527 C 364.778 94.284,364.416 93.752,364.235 92.791 C 364.045 91.778,363.775 91.406,363.228 91.406 C 362.797 91.406,362.329 91.007,362.122 90.463 C 361.925 89.944,361.402 89.405,360.960 89.265 C 360.308 89.058,360.156 88.683,360.156 87.278 C 360.156 85.801,360.040 85.547,359.367 85.547 C 358.913 85.547,358.396 85.149,358.152 84.613 C 357.918 84.100,357.306 83.489,356.793 83.255 C 356.279 83.021,355.859 82.557,355.859 82.225 C 355.859 81.893,355.420 81.454,354.883 81.250 C 354.197 80.989,353.906 80.585,353.906 79.892 C 353.906 79.167,353.700 78.906,353.125 78.906 C 352.695 78.906,352.330 78.687,352.314 78.418 C 352.227 77.001,351.902 76.320,350.998 75.662 C 350.449 75.262,350.000 74.682,350.000 74.373 C 350.000 74.064,349.580 73.620,349.067 73.386 C 348.553 73.152,347.942 72.541,347.708 72.027 C 347.474 71.514,347.011 71.094,346.678 71.094 C 346.346 71.094,345.907 70.654,345.703 70.117 C 345.499 69.580,345.059 69.141,344.727 69.141 C 344.394 69.141,343.954 68.701,343.750 68.164 C 343.546 67.627,343.107 67.188,342.775 67.188 C 342.443 67.188,341.972 66.751,341.729 66.218 C 341.486 65.685,340.989 65.155,340.625 65.039 C 340.261 64.923,339.764 64.393,339.521 63.860 C 339.278 63.327,338.807 62.891,338.475 62.891 C 338.143 62.891,337.704 62.451,337.500 61.914 C 337.296 61.377,336.900 60.938,336.620 60.938 C 336.340 60.937,335.649 60.410,335.083 59.766 C 334.451 59.045,333.675 58.594,333.069 58.594 C 332.427 58.594,331.998 58.322,331.836 57.812 C 331.699 57.382,331.245 57.031,330.825 57.031 C 330.391 57.031,329.871 56.613,329.620 56.062 C 329.377 55.529,328.843 54.987,328.434 54.857 C 328.025 54.727,327.528 54.196,327.331 53.678 C 327.134 53.159,326.701 52.734,326.368 52.734 C 326.036 52.734,325.563 52.292,325.317 51.752 C 324.991 51.036,324.463 50.705,323.372 50.530 C 322.021 50.314,321.688 50.011,321.829 49.121 C 321.854 48.960,321.432 48.828,320.890 48.828 C 320.224 48.828,319.764 48.518,319.469 47.871 C 319.229 47.345,318.530 46.739,317.915 46.524 C 317.189 46.271,316.797 45.861,316.797 45.355 C 316.797 44.718,316.495 44.554,315.137 44.456 C 313.757 44.356,313.456 44.188,313.352 43.457 C 313.274 42.908,312.956 42.578,312.505 42.578 C 311.265 42.578,310.547 42.133,310.547 41.364 C 310.547 40.761,310.257 40.625,308.975 40.625 C 307.536 40.625,307.382 40.524,307.165 39.439 C 306.938 38.305,306.851 38.258,305.150 38.365 C 303.536 38.466,303.350 38.387,303.134 37.500 C 302.952 36.749,302.584 36.478,301.546 36.328 C 300.516 36.179,300.166 35.924,300.070 35.254 C 299.965 34.512,299.705 34.375,298.402 34.375 C 297.143 34.375,296.778 34.199,296.423 33.419 C 296.097 32.704,295.630 32.433,294.575 32.345 C 293.553 32.259,293.058 31.984,292.778 31.348 C 292.494 30.700,292.064 30.469,291.144 30.469 C 289.464 30.469,287.891 29.832,287.891 29.153 C 287.891 28.423,287.034 28.125,284.936 28.125 C 283.438 28.125,283.187 28.002,282.978 27.168 C 282.767 26.328,282.490 26.196,280.724 26.093 C 278.976 25.992,278.694 25.861,278.586 25.098 C 278.470 24.283,278.264 24.219,275.754 24.219 C 273.031 24.219,272.764 24.058,273.001 22.559 C 273.026 22.397,272.156 22.266,271.068 22.266 C 268.909 22.266,267.578 21.755,267.578 20.928 C 267.578 20.374,265.098 19.719,264.470 20.107 C 263.604 20.642,260.981 19.835,260.861 18.996 C 260.754 18.245,260.478 18.158,258.008 18.103 C 256.504 18.070,255.073 18.026,254.828 18.006 C 254.582 17.985,254.273 17.535,254.140 17.006 C 253.905 16.070,253.784 16.040,249.898 15.932 C 246.103 15.826,245.892 15.776,245.775 14.953 C 245.656 14.116,245.480 14.082,240.697 13.976 C 235.984 13.873,235.723 13.824,235.357 12.988 C 234.980 12.129,234.830 12.109,228.667 12.109 C 221.550 12.109,219.895 11.894,219.644 10.935 C 219.361 9.854,191.028 9.257,181.250 10.126 M196.213 107.633 C 199.925 109.332,201.738 113.751,200.217 117.392 C 199.906 118.136,199.467 120.071,199.242 121.693 C 199.016 123.315,198.563 125.161,198.234 125.796 C 197.906 126.431,197.473 128.244,197.273 129.824 C 197.073 131.405,196.550 133.609,196.111 134.723 C 195.061 137.385,195.090 137.642,196.582 139.041 L 197.852 140.231 210.213 140.233 L 222.575 140.234 223.726 138.924 C 224.620 137.906,224.931 137.096,225.119 135.296 C 225.252 134.021,225.699 132.194,226.113 131.235 C 226.526 130.276,226.980 128.397,227.122 127.059 C 227.264 125.720,227.705 123.874,228.101 122.957 C 228.497 122.040,228.939 120.234,229.082 118.945 C 229.226 117.656,229.675 115.723,230.081 114.648 C 230.487 113.574,230.917 112.256,231.036 111.719 C 231.797 108.287,234.974 106.987,243.164 106.756 C 255.359 106.412,260.166 110.382,257.078 118.247 C 256.675 119.276,256.218 121.260,256.063 122.656 C 255.909 124.053,255.457 125.946,255.058 126.863 C 254.660 127.781,254.218 129.626,254.075 130.965 C 253.933 132.303,253.485 134.168,253.080 135.108 C 252.100 137.383,252.147 137.949,253.418 139.155 L 254.492 140.175 263.153 140.303 C 272.971 140.447,272.621 140.334,275.055 144.119 L 276.172 145.856 276.153 153.104 L 276.135 160.352 274.858 162.670 C 272.904 166.218,272.375 166.339,258.549 166.376 C 244.656 166.414,245.002 166.260,243.932 172.869 C 243.642 174.659,243.146 176.624,242.828 177.237 C 242.511 177.851,242.062 179.715,241.831 181.380 C 241.599 183.045,241.146 184.917,240.824 185.540 C 240.502 186.163,240.065 187.870,239.853 189.332 C 239.642 190.795,239.103 192.946,238.655 194.111 C 237.614 196.823,237.377 202.554,238.281 203.130 C 238.610 203.340,242.850 203.506,247.929 203.510 L 256.991 203.516 258.085 204.483 C 261.664 207.649,261.719 207.836,261.719 216.990 L 261.719 224.961 260.561 226.641 C 259.924 227.564,258.931 228.760,258.354 229.297 L 257.306 230.273 244.101 230.469 C 229.372 230.687,230.266 230.481,229.653 233.799 C 229.417 235.074,228.976 236.597,228.673 237.183 C 228.370 237.769,227.934 239.601,227.704 241.254 C 227.474 242.907,226.971 245.067,226.587 246.055 C 226.203 247.043,225.764 248.983,225.612 250.366 C 225.460 251.749,225.077 253.379,224.762 253.989 C 224.447 254.599,224.004 256.096,223.779 257.315 C 223.443 259.133,223.075 259.819,221.743 261.114 L 220.117 262.695 210.580 262.813 L 201.043 262.930 198.965 260.697 C 196.141 257.662,195.718 254.338,197.597 249.936 C 197.994 249.004,198.445 247.122,198.599 245.752 C 198.752 244.382,199.198 242.449,199.589 241.455 C 200.586 238.923,201.330 232.889,200.813 231.529 L 200.410 230.469 187.167 230.469 C 172.315 230.469,173.288 230.263,172.667 233.535 C 172.458 234.641,172.038 236.030,171.735 236.621 C 171.433 237.212,171.055 238.838,170.897 240.234 C 170.738 241.631,170.292 243.582,169.904 244.570 C 169.516 245.558,169.011 247.718,168.781 249.371 C 168.551 251.024,168.089 252.906,167.754 253.553 C 167.420 254.200,167.039 255.630,166.909 256.730 C 166.726 258.277,166.361 259.074,165.299 260.250 C 162.954 262.845,162.742 262.891,153.082 262.891 L 144.406 262.891 142.125 260.609 L 139.844 258.328 139.852 254.848 C 139.859 252.212,140.051 250.948,140.644 249.640 C 141.075 248.690,141.603 246.669,141.816 245.148 C 142.029 243.627,142.535 241.504,142.940 240.430 C 144.123 237.295,144.588 233.315,143.951 231.789 L 143.417 230.512 135.070 230.393 L 126.723 230.273 125.246 228.838 C 123.051 226.705,122.656 224.901,122.656 217.001 C 122.656 208.548,123.050 206.961,125.650 204.935 L 127.472 203.516 138.287 203.516 C 151.337 203.516,151.346 203.514,151.978 200.457 C 152.230 199.239,152.767 197.401,153.171 196.372 C 153.575 195.344,153.912 193.938,153.919 193.247 C 153.926 192.557,154.291 191.025,154.729 189.844 C 155.168 188.662,155.702 186.553,155.916 185.156 C 156.130 183.760,156.630 181.879,157.028 180.976 C 157.426 180.074,157.872 178.316,158.020 177.070 C 158.167 175.824,158.601 174.078,158.985 173.190 C 161.509 167.340,160.308 166.406,150.264 166.406 C 142.809 166.406,140.862 166.025,139.210 164.243 C 137.440 162.334,137.324 161.782,137.177 154.635 C 136.998 145.954,137.345 144.051,139.485 141.960 L 141.052 140.430 153.241 140.316 L 165.430 140.203 166.667 138.865 C 167.708 137.739,167.947 137.109,168.176 134.877 C 168.326 133.419,168.773 131.436,169.170 130.469 C 169.566 129.502,170.073 127.341,170.295 125.667 C 170.518 123.994,170.950 122.141,171.255 121.550 C 171.561 120.959,172.003 119.077,172.238 117.367 C 172.936 112.285,174.630 108.926,177.098 107.729 C 180.233 106.209,192.964 106.145,196.213 107.633 M188.576 167.360 C 187.788 168.347,187.401 169.428,187.117 171.433 C 186.904 172.934,186.401 175.010,185.998 176.046 C 185.596 177.082,185.151 178.956,185.009 180.209 C 184.867 181.463,184.480 183.012,184.150 183.651 C 183.819 184.291,183.305 186.198,183.008 187.891 C 182.710 189.583,182.211 191.462,181.899 192.066 C 181.586 192.670,181.203 194.219,181.048 195.508 C 180.892 196.797,180.523 198.444,180.226 199.169 C 179.491 200.966,179.549 201.814,180.469 202.734 C 181.439 203.705,207.864 203.981,208.464 203.027 C 209.232 201.806,210.271 198.359,210.748 195.448 C 211.035 193.696,211.551 191.717,211.896 191.051 C 212.240 190.385,212.672 188.641,212.856 187.175 C 213.041 185.710,213.479 183.953,213.832 183.272 C 214.184 182.591,214.634 180.759,214.832 179.200 C 215.029 177.642,215.532 175.576,215.949 174.609 C 217.188 171.736,217.387 168.328,216.390 167.060 L 215.568 166.016 202.608 166.016 L 189.648 166.016 188.576 167.360 " stroke="none" fill="#047bfc" fill-rule="evenodd"></path></g></svg>