<?xml version="1.0" encoding="utf-8"?>
<!-- Generator: Adobe Illustrator 27.0.0, SVG Export Plug-In . SVG Version: 6.00 Build 0)  -->
<svg version="1.1" id="Eitaa" xmlns="http://www.w3.org/2000/svg" xmlns:xlink="http://www.w3.org/1999/xlink" x="0px" y="0px"
	 viewBox="0 0 100 100" style="enable-background:new 0 0 100 100;" xml:space="preserve">
<style type="text/css">
	.st0{fill:#EF7C00;}
	.st1{fill:#FFFFFF;}
</style>
<polygon id="Background" class="st0" points="72.1,100 27.9,100 25.1,99.9 19.6,98.8 14.5,96.7 10.1,93.7 6.3,89.9 3.3,85.5 
	1.2,80.4 0.1,74.9 0,72.1 0,27.9 0.1,25.1 1.2,19.6 3.3,14.5 6.3,10.1 10.1,6.3 14.5,3.3 19.6,1.2 25.1,0.1 27.9,0 72.5,0 75.3,0.1 
	80.7,1.2 85.5,3.3 89.9,6.3 93.7,10.1 96.7,14.5 98.8,19.6 99.9,25.1 100,27.9 100,72.5 99.9,75.3 98.8,80.7 96.7,85.5 93.7,89.9 
	89.9,93.7 85.5,96.7 80.4,98.8 74.9,99.9 "/>
<polygon id="Content" class="st1" points="98.3,43.3 96.4,44.7 91.7,49.3 88.7,52.5 84.9,56.5 78.4,62.7 76.3,64.5 74.1,66.3 
	70.3,68.9 66.5,70.9 62.7,72.1 60.8,72.5 58.7,72.7 53.3,72.5 51.2,72.1 49.7,71.7 48.7,72.4 48.3,74.1 47.7,75.7 47.1,78.9 
	47.1,80.4 47.1,82.1 46.3,82.1 44.4,81.7 40.8,79.9 37.6,77.1 35.1,73.6 34.3,71.7 33.5,69.2 32.9,66.7 32.9,65.5 31.7,64.3 
	29.9,62.4 27.7,59.1 26.9,56.7 26.7,55.5 26.5,53.5 26.9,49.3 28.5,45.2 31.1,41.2 32.9,39.3 34.9,37.3 39.7,33.7 45.1,30.9 
	50.7,28.8 53.7,28.1 56.1,27.7 61.6,27.5 63.7,27.7 65.5,28.1 68.7,29.3 71.5,30.9 73.7,33.1 74.5,34.4 75.1,35.2 75.3,36.1 
	75.3,36.9 75.3,37.5 74.8,38.7 74.5,38.9 73.6,39.9 70.9,41.9 67.3,43.7 63.1,45.5 60.8,46.1 58.8,46.5 55.1,46.8 51.9,46.7 
	49.1,46 46.9,44.9 45.3,43.5 44.3,41.7 44,39.5 44.3,38.3 44.3,37.1 43.6,37.3 41.7,38.3 40.9,38.8 39.5,40.3 38.4,42.1 37.7,44.1 
	37.5,45.1 37.3,46.3 37.5,47.9 37.5,48.8 37.7,50.1 38.3,50.8 39.1,52.3 40,53.3 40.8,54.1 40.4,54.5 38.7,57.3 37.5,59.9 
	37.1,61.7 36.9,65.5 37.1,67.3 37.5,69.1 39.1,72.3 40,73.6 40.8,74.7 43.2,76.7 43.9,76.9 43.9,76.5 44.3,74 45.1,71.1 45.7,69.5 
	47.7,66.3 50.7,63.5 54.4,61.1 56.7,59.9 59.2,58.7 63.5,56.5 67.3,54.8 72.4,52.1 73.9,51.2 75.6,49.9 78.5,46.7 80.8,42.9 
	82.3,38.5 82.7,36.1 83.1,33.9 83.3,28.7 83.1,26.5 82.7,24.7 81.7,21.3 80,18.1 77.9,15.3 75.3,12.9 72.1,11.1 68.8,9.5 65.1,8.5 
	63.1,8.3 60.7,8.1 55.9,8.7 50.9,10.1 46,12.4 41.1,15.5 36.3,19.1 31.9,23.5 27.7,28.5 25.9,31.2 24.3,33.7 21.3,39.2 18.9,44.9 
	17.3,50.7 16.7,53.7 16.4,56.3 16.1,62.9 16.3,65.3 16.7,68 17.9,72.9 19.9,77.1 22.5,80.9 24.3,82.5 25.9,84.1 29.9,86.9 
	32.1,87.9 34,88.7 37.7,90.1 41.7,90.9 45.5,91.5 49.3,91.5 53.2,91.2 56.9,90.4 60.7,89.1 62.5,88.3 65.6,86.7 71.9,82.1 
	75.1,79.1 78,76 84.7,67.6 90,60.4 93.1,56.3 96.9,51.7 98.9,50 99.6,49.6 100,49.2 100,43.3 100,42.1 "/>
</svg>
