<?xml version="1.0" encoding="UTF-8"?>
<svg version="1.1" viewBox="0 0 500 500" xmlns="http://www.w3.org/2000/svg">
<path d="m118.8 269.7v-162.5h-71c-20.9 0-37.8 17-37.8 37.9v335.9c0 16.9 20.4 25.3 32.3 13.4l78.1-78.1h222.4c20.9 0 37.8-16.9 37.8-37.8v-71h-223.9c-20.9 0-37.9-16.9-37.9-37.8z" fill="#00ac47"/>
<path d="m451.6 0h-294.9c-20.9 0-37.8 16.9-37.8 37.8v69.4h223.9c20.9 0 37.8 16.9 37.8 37.8v162.4h71c20.9 0 37.8-16.9 37.8-37.8v-231.8c0-20.9-16.9-37.8-37.8-37.8z" fill="#5bb974"/>
<path d="m342.8 107.2h-224v162.4c0 20.9 16.9 37.8 37.8 37.8h223.9v-162.3c0.1-20.9-16.8-37.9-37.7-37.9z" fill="#00832d"/>
</svg>