<svg height="80" width="80" xmlns="http://www.w3.org/2000/svg"><mask id="a" fill="#fff"><path d="M0 .42h68.259V80H0" fill-rule="evenodd"/></mask><g fill="none" fill-rule="evenodd"><path d="m45.797 49.13-.152.043-.086.049c-.77.218-1.548.398-2.343.515-.607.089-1.065-.254-1.072-.863-.005-.428-.009-.855-.012-1.283l.021-2.298c-.003-.168-.01-.336-.009-.505 0-.588.227-.835.958-1.003.927-.212 1.8-.511 2.521-1.182.866-.804 1.303-1.808 1.502-2.942l-7.503-.015c-.272 0-.544.003-.816-.001-1.022-.017-1.721-.723-1.72-1.75 0-4.044.006-8.087.01-12.131 0-.039-.005-.077-.008-.116-.078-.757.14-1.377.812-1.798.261-.164.545-.232.845-.232 3.955-.002 7.91.002 11.866-.003 1.053-.001 1.925 1.061 1.588 2.1.08.197.066.404.066.609 0 4.47.002 8.938-.001 13.408-.004 3.993-2.506 7.729-6.194 9.263-.094.038-.182.09-.273.135m-22.027.285c-.586.16-1.183.25-1.78.338-.462.068-.763-.189-.935-.606l.004-3.852c.022-.378-.13-.783.173-1.117.15-.165.32-.278.55-.336.672-.169 1.354-.305 1.967-.67 1.128-.673 1.83-1.645 2.14-2.912.05-.199.095-.4.142-.6-2.708-.005-5.415-.01-8.123-.013-.235 0-.465-.008-.693-.072-.69-.192-1.219-.821-1.22-1.533-.005-4.094.003-8.189.006-12.283-.057-.654 0-1.267.55-1.735.3-.253.628-.407 1.02-.407 3.982 0 7.964.003 11.945-.002 1.053-.001 1.926 1.061 1.589 2.1.081.197.066.404.066.61 0 4.461.025 8.924-.008 13.385-.022 2.96-1.175 5.452-3.342 7.47-.113.106-.222.215-.333.322-1.124.861-2.34 1.54-3.718 1.913m43.958-20.922c-1.207-6.585-4.09-12.337-8.646-17.245a33.447 33.447 0 0 0-6.454-5.402c-4.429-2.847-9.254-4.591-14.486-5.21C37.504.561 36.857.57 36.23.42h-4.515c-.05.114-.154.073-.236.08-1.162.103-2.32.235-3.466.452-8.384 1.59-15.269 5.705-20.598 12.354C3.031 18.775.617 25.047.096 32.042a34.163 34.163 0 0 0 .736 10.06 32.404 32.404 0 0 0 2.483 7.123c.097.194.194.388.292.58 1.82 3.585 4.162 6.779 7.096 9.537 1.545 1.453 3.195 2.766 4.983 3.901 5.477 3.476 11.455 5.299 17.949 5.38.398.006.507.104.505.511-.019 3.476-.011 6.953-.01 10.429 0 .135.01.27.018.437.112-.046.183-.072.251-.104 6.528-3.067 12.523-6.943 17.867-11.801a50.87 50.87 0 0 0 3.06-3.034c.419-.451.834-.91 1.254-1.36.649-.694 1.21-1.47 1.822-2.2.706-.842 1.34-1.737 1.965-2.638 1.383-1.992 2.617-4.07 3.655-6.265a50.249 50.249 0 0 0 1.467-3.372c.015-.022.035-.041.044-.065 1.206-3.134 1.978-6.377 2.39-9.705.144-1.159.237-2.326.295-3.49a32.368 32.368 0 0 0-.49-7.473" fill="#67ba46" mask="url(#a)" transform="translate(6)"/><path d="M51.559 49.222c-.77.218-1.548.398-2.343.515-.607.089-1.065-.254-1.072-.863-.005-.428-.009-.855-.012-1.283l.022-2.298c.22-.511.698-.604 1.163-.71 2.162-.487 3.486-1.898 3.798-4.082.039-.273.206-.56.01-.84l-7.503-.015c-.272 0-.544.003-.816 0-1.022-.018-1.721-.724-1.721-1.751.001-4.044.007-8.087.01-12.131 0-.039-.004-.077-.007-.116.11-.048.117-.162.166-.25.338-.603.842-.927 1.544-.927 3.926 0 7.851-.002 11.776.002.799 0 1.398.468 1.625 1.243.08.196.066.403.066.608 0 4.47.002 8.938-.001 13.408-.004 3.993-2.506 7.729-6.194 9.263-.094.038-.182.09-.273.135l-.152.043a8.68 8.68 0 0 1-.086.049M33.488 47.503c-1.125.86-2.34 1.54-3.718 1.912-.586.16-1.183.25-1.78.338-.462.067-.763-.189-.935-.606l.005-3.852c.211-.492.665-.594 1.12-.699 2.195-.506 3.454-1.816 3.83-4.023.05-.293.216-.606.021-.913-2.708-.004-5.416-.01-8.123-.013a2.58 2.58 0 0 1-.693-.072c-.69-.191-1.219-.821-1.22-1.533-.005-4.094.003-8.188.006-12.283.292-.764.79-1.283 1.656-1.284 3.953-.008 7.908-.006 11.861-.002.768.001 1.373.489 1.586 1.242.082.197.067.404.067.61 0 4.461.026 8.924-.008 13.385-.022 2.961-1.175 5.452-3.342 7.47-.112.106-.222.215-.333.323" fill="#fefefe"/><g fill="#50a245"><path d="M37.105 25.715c-.214-.753-.819-1.24-1.587-1.242a3873.39 3873.39 0 0 0-11.861.002c-.867.001-1.364.52-1.656 1.284-.057-.654 0-1.267.551-1.735.299-.253.627-.407 1.02-.407 3.981 0 7.962.002 11.944-.002 1.054 0 1.926 1.062 1.589 2.1M58.199 25.715c-.227-.775-.826-1.242-1.625-1.242-3.925-.004-7.85-.002-11.775-.003-.703 0-1.207.325-1.545.928-.049.088-.056.202-.165.25-.079-.757.139-1.377.81-1.798.262-.164.546-.232.847-.232 3.954-.002 7.91.001 11.864-.003 1.054 0 1.926 1.062 1.589 2.1M53.125 39.66c.196.282.028.568-.01.84-.312 2.185-1.636 3.596-3.798 4.084-.465.105-.943.198-1.163.709-.004-.168-.01-.337-.01-.505 0-.588.228-.835.958-1.003.927-.212 1.8-.512 2.521-1.181.866-.806 1.303-1.809 1.502-2.944M32.031 39.66c.195.307.029.62-.022.913-.375 2.207-1.634 3.517-3.83 4.023-.454.105-.908.207-1.12.699.022-.378-.13-.783.173-1.117.15-.165.32-.278.55-.335.673-.17 1.354-.305 1.967-.67 1.128-.674 1.83-1.646 2.14-2.912.05-.2.095-.4.142-.6"/></g></g></svg>