<svg height="80" viewBox="0 0 80 80" width="80" xmlns="http://www.w3.org/2000/svg" xmlns:xlink="http://www.w3.org/1999/xlink"><mask id="a" fill="#fff"><path d="m0 .42075676h68.2585946v79.57924324h-68.2585946" fill="#fff" fill-rule="evenodd"/></mask><g fill="none" fill-rule="evenodd" transform="translate(6)"><path d="m45.7967135 49.1304649c-.0501621.0138378-.1007567.0285405-.1513513.0423783-.028973.0164325-.0575136.0328649-.0864865.0488649-.7705946.217946-1.5481081.3987027-2.3429189.515027-.6067027.0890811-1.0646487-.2534054-1.0715676-.8631351-.0056216-.4276757-.0090811-.8549189-.0125406-1.283027.006919-.7654054.0147028-1.5312433.0216217-2.2970811-.0034595-.1686487-.009946-.3368649-.0095135-.5050811.0008648-.5881081.2274594-.8358919.9582702-1.0032432.9267027-.2123244 1.7993514-.5115676 2.5210811-1.1818379.8661622-.8047567 1.3029189-1.808 1.5018378-2.9427027-2.5011891-.0051892-5.0019459-.0099459-7.5031351-.0147027-.272-.0004324-.5444324.0034595-.8164324-.0012973-1.0218379-.0168648-1.7206487-.7225946-1.7202162-1.7496216.0012973-4.0436757.0064864-8.0873513.0099459-12.131027 0-.0389189-.0043243-.0774054-.0069189-.1163243-.0782703-.7567568.1392432-1.3764325.8112432-1.7976217.2616217-.1638919.5452973-.2317838.8458379-.2317838 3.955027-.0021621 7.9096216.0012973 11.8650811-.003027 1.0529729-.0012973 1.9256216 1.0611892 1.5883243 2.1003243.08.1963244.0661621.4030271.0661621.6084325 0 4.4691892.0021622 8.9383784-.0012973 13.408-.0034594 3.9926486-2.5055135 7.7288648-6.1937297 9.2627027-.0938378.0384865-.182054.0903784-.2728649.1357838.0652973.0812973.144.1042162.2257298.1068108-.0817298-.0025946-.1608649-.0255135-.2261622-.1068108m-22.0263784.2845405c-.5859459.1591351-1.1835675.2503784-1.7807567.3377297-.4618379.0678919-.7623784-.1885405-.9349189-.6058378.0017297-1.2843243.003027-2.5677838.0047567-3.8521081.0220541-.377946-.1297297-.7827027.172973-1.1165406.150054-.1651891.3204324-.278054.550054-.336.672-.169081 1.353946-.3048648 1.9662703-.6698378 1.1282162-.6732973 1.8300541-1.644973 2.140973-2.912.0488649-.1993513.0947027-.4.1414054-.5997838-2.7078919-.0051892-5.4153514-.0103784-8.1232433-.0138378-.2343783-.0004324-.4652972-.0082162-.6931891-.0717838-.6897298-.1915676-1.2185946-.8211892-1.2194595-1.532973-.0051892-4.0938378.0025946-8.1885405.0056216-12.2832432-.0566486-.6538378.0004325-1.267027.5509189-1.7349189.2988109-.2525406.6270271-.4064865 1.0201081-.4064865 3.9814055-.0008649 7.9628109.0021621 11.9442163-.0021622 1.0534054-.0012973 1.926054 1.0611892 1.5887567 2.1003243.0812973.1963244.0661622.4034595.0661622.6088649.0008648 4.4618378.0255135 8.9241081-.0077838 13.385946-.0220541 2.9604324-1.1749189 5.4512432-3.3418378 7.4702702-.1128649.1050811-.2222703.2144865-.3334054.3217298-1.1243244.8609729-2.3398919 1.5398918-3.7176217 1.9126486m43.9580541-20.9223784c-1.2077838-6.5846486-4.0912433-12.3368648-8.6460541-17.2449729-1.923027-2.07221626-4.0765405-3.87329734-6.4544865-5.40194599-4.4285405-2.84713514-9.2536216-4.59113514-14.4856216-5.20951351-.6378378-.07524325-1.2847567-.06572973-1.9135135-.21578379h-4.5145946c-.0492973.11372973-.1539459.07221622-.2365405.07956757-1.161946.10291892-2.3195676.23481081-3.465946.45232432-8.3835675 1.58875676-15.2683243 5.70464865-20.59718916 12.3537297-4.38313513 5.4685406-6.79697297 11.7414054-7.31848648 18.7355676-.25254054 3.3894054-.00735135 6.7481081.73556756 10.060973.55221622 2.4652973 1.37556757 4.8462702 2.4838919 7.1225946.09686486.1937297.19372973.3878919.29189189.5807567 1.82010811 3.5844325 4.16172973 6.777946 7.09578379 9.5364325 1.5450811 1.4525405 3.1952432 2.7658378 4.9833513 3.9009729 5.4763244 3.4758919 11.4542703 5.2985946 17.9485406 5.3803244.3982703.0051891.5068108.1037837.5046486.5107027-.0181621 3.4758918-.0108108 6.9522162-.0099459 10.4285405.0004324.1349189.0112432.2694054.0185946.4371892.112-.0462703.1824865-.0717838.2508108-.1037838 6.528-3.0672432 12.5228108-6.9431351 17.8672432-11.8015135 1.0633514-.9669189 2.0808649-1.9796757 3.0594595-3.033946.419027-.451027.8341622-.9102702 1.2544865-1.3604324.6486486-.6936216 1.2099459-1.468973 1.8218378-2.1989189.7057297-.8423784 1.3396757-1.7375135 1.964973-2.6387027 1.3829189-1.9917838 2.6170811-4.0696216 3.6549189-6.2646487.524973-1.110054 1.0252973-2.2283243 1.4672433-3.3725405.0147027-.0216216.0345945-.0406486.0436756-.0644324 1.2056217-3.1342703 1.9783784-6.3775135 2.3900541-9.7055135.1435676-1.1584865.2365405-2.3251892.2949189-3.4905946.1254054-2.5076757-.0367568-5.0032433-.4895135-7.4724325" fill="#67ba46" mask="url(#a)"/><path d="m45.5589622 49.2217081c-.7705946.217946-1.5481081.3987027-2.342919.515027-.6067027.0890811-1.0646486-.2534054-1.0715675-.8631351-.0056216-.4276757-.0090811-.8549189-.012973-1.2825946.0073514-.7658378.0147027-1.5316757.0220541-2.2979459.2205405-.5111352.6979459-.6041081 1.1636756-.7091892 2.1612973-.4877838 3.4858379-1.8988108 3.7976217-4.0830271.0389189-.2724324.2062702-.5591351.0103783-.8402162-2.5011892-.0051892-5.0019459-.0099459-7.5031351-.0147027-.272-.0004324-.5444324.0034595-.8164324-.0008648-1.0218379-.0172973-1.7210811-.7230271-1.7206487-1.7500541.0012973-4.0436757.0069189-8.0873513.0103784-12.131027 0-.0389189-.0043243-.0774054-.0069189-.1163243.1089729-.0475676.1167567-.1617298.1656216-.2495136.3377297-.6028108.8419459-.9275675 1.5442162-.9275675 3.9251892.0008648 7.8508108-.0012973 11.776.0021621.7982703.0004325 1.3976216.4678919 1.6246487 1.2428108.08.1963244.0661621.4030271.0661621.6084325 0 4.4691892.0021622 8.9383784-.0012973 13.408-.0034594 3.9926486-2.5055135 7.7288648-6.1937297 9.2627027-.0938378.0384865-.1820541.0903784-.2728649.1357838-.0505946.0138378-.1016216.0285405-.1522162.0423783-.0285405.0164325-.0575135.0328649-.086054.0488649" fill="#fefefe"/><path d="m27.4880432 47.5025297c-1.1247567.8605406-2.3398918 1.5398919-3.7176216 1.9126487-.5859459.1591351-1.1835675.2503784-1.7807567.3377297-.4618379.0674595-.7628108-.1885405-.934919-.6058378.0017298-1.2843244.0030271-2.5682162.0047568-3.8521081.2118919-.4921081.6655135-.5941622 1.12-.6988108 2.1954595-.5063784 3.4542703-1.8157838 3.8300541-4.022919.0497297-.2931892.2162162-.6058378.0216216-.9128648-2.7078919-.0047568-5.4157838-.009946-8.1232433-.0134054-.2343783-.0004325-.4652973-.0086487-.6931892-.0717838-.6901621-.1915676-1.2185945-.8211892-1.2194594-1.532973-.0051892-4.0942703.0025946-8.1885405.0056216-12.2832432.2918919-.7636757.7891892-1.2825946 1.6562162-1.2843244 3.9532973-.0077837 7.9078919-.0056216 11.8611892-.0012973.768.0008649 1.3725406.4882163 1.5861622 1.241946.0817297.1963243.0665946.4038919.0665946.6088649.0008648 4.4622702.0255135 8.9245405-.0077838 13.3859459-.0220541 2.9608649-1.1749189 5.4516757-3.3418379 7.4707027-.1128648.1050811-.2222702.2144865-.3334054.3217297" fill="#fefefe"/><g fill="#50a245"><path d="m31.1046054 25.715373c-.2136216-.7537298-.8185946-1.2410811-1.5861622-1.241946-3.9537297-.0043243-7.9078918-.0064865-11.8616216.0012973-.867027.0017298-1.3638919.5206487-1.6562162 1.2843243-.0566486-.6542702.0004324-1.2674594.5513514-1.7349189.2988108-.2529729.627027-.4069189 1.0196756-.4069189 3.9814054-.0008649 7.9628108.0021622 11.9442162-.0017297 1.0538379-.0012973 1.9260541 1.0611892 1.5887568 2.0998919"/><path d="m52.1987459 25.715373c-.2265945-.7749189-.8259459-1.2423784-1.6246486-1.2428108-3.9251892-.0034595-7.8503784-.0012973-11.7755676-.0021622-.7022702 0-1.2064865.3247568-1.5446486.928-.0488649.0877838-.0562162.2015135-.1651892.2495135-.0787027-.7567567.1388108-1.3768649.8112432-1.7976216.2611892-.1638919.5448649-.2322162.8458379-.2322162 3.9545946-.0017298 7.9096216.0012973 11.8646486-.0025946 1.0534054-.0012973 1.9256216 1.0611892 1.5883243 2.0998919"/><path d="m47.1252757 39.6604541c.1958919.281081.0281081.5677837-.0103784.8402162-.3117838 2.1842162-1.6363243 3.5956756-3.7976216 4.0834594-.4657298.1050811-.9431352.1980541-1.1636757.7087568-.0034595-.1677838-.0099459-.3364324-.0099459-.5046487.0008648-.5881081.2278918-.8354594.9582702-1.0032432.9271352-.2123243 1.7993514-.5115676 2.5210811-1.1814054.8661622-.8051892 1.3033514-1.8084324 1.5022703-2.9431351"/><path d="m26.0310919 39.6604541c.1945946.307027.0285405.6196756-.0216216.9124324-.3757838 2.2075676-1.6345946 3.516973-3.8300541 4.0233513-.4544865.1046487-.9081081.2067027-1.12.6983784.0220541-.3779459-.1297297-.7822703.172973-1.1165405.150054-.1651892.3204324-.2776216.550054-.3355676.6724325-.1695135 1.353946-.3048649 1.9662703-.6702703 1.1282162-.6732973 1.8300541-1.6449729 2.140973-2.9115675.0488649-.1993514.0947027-.4.1414054-.6002162"/></g></g></svg>