<?xml version="1.0" encoding="UTF-8" standalone="no"?>
<svg
   height="2500"
   viewBox="0.26 -0.21 500.40032 500"
   width="2500"
   version="1.1"
   id="svg2"
   sodipodi:docname="icon.svg"
   inkscape:version="1.3.2 (091e20ef0f, 2023-11-25, custom)"
   xmlns:inkscape="http://www.inkscape.org/namespaces/inkscape"
   xmlns:sodipodi="http://sodipodi.sourceforge.net/DTD/sodipodi-0.dtd"
   xmlns="http://www.w3.org/2000/svg"
   xmlns:svg="http://www.w3.org/2000/svg">
  <defs
     id="defs2" />
  <sodipodi:namedview
     id="namedview2"
     pagecolor="#ffffff"
     bordercolor="#000000"
     borderopacity="0.25"
     inkscape:showpageshadow="2"
     inkscape:pageopacity="0.0"
     inkscape:pagecheckerboard="0"
     inkscape:deskcolor="#d1d1d1"
     inkscape:zoom="0.1668"
     inkscape:cx="1297.9616"
     inkscape:cy="983.21343"
     inkscape:window-width="1908"
     inkscape:window-height="1038"
     inkscape:window-x="4"
     inkscape:window-y="34"
     inkscape:window-maximized="1"
     inkscape:current-layer="svg2" />
  <rect
     style="fill:#14a800;fill-opacity:1;stroke:#000000;stroke-width:0"
     id="rect2"
     width="500.32037"
     height="500.32037"
     x="0.09981323"
     y="-0.37018678" />
  <path
     d="m 359.92,303.51 c -31.11,0 -51.69,-24.01 -57.45,-33.35 7.36,-59.01 28.93,-77.61 57.45,-77.61 28.18,0 50.13,22.53 50.13,55.48 0,32.95 -21.95,55.48 -50.13,55.48 m 0,-147.18 c -50.71,0 -79.13,33.07 -87.25,67.12 -9.24,-17.34 -16.04,-40.54 -21.4,-62.1 h -70.09 v 87.24 c 0,31.7 -14.38,55.07 -42.59,55.07 -28.21,0 -44.37,-23.37 -44.37,-55.06 l 0.3,-87.25 h -40.4 v 87.24 c 0,25.47 8.26,48.56 23.26,65.04 15.48,16.98 36.64,25.95 61.19,25.95 48.78,0 82.81,-37.41 82.81,-90.96 V 190 c 5.14,19.29 17.2,56.39 40.41,88.92 l -21.68,123.44 h 41.08 l 14.31,-87.52 c 4.7,3.89 9.68,7.41 14.9,10.55 a 90.604,90.604 0 0 0 45.69,14.09 h 0.08 c 1.21,0 2.44,0.07 3.69,0.07 50.29,0 90.34,-38.94 90.34,-91.43 0.01,-52.52 -40,-91.79 -90.28,-91.79"
     fill="#ffffff"
     id="path2" />
</svg>
