<svg height="267.153" viewBox="0 0 255.21 267.153" width="267.153" xmlns="http://www.w3.org/2000/svg"><g clip-rule="evenodd" fill="#6441a4" fill-rule="evenodd"><path d="M255.21 5.351C255.227.695 253.7-.016 249.554 0c-37.656.148-75.313.087-112.969.087-37.99 0-75.98.045-113.97-.079-3.343-.011-5.013.911-6.235 4.102-4.82 12.587-9.907 25.073-14.965 37.567-.958 2.366-1.352 4.734-1.35 7.279C.099 107.94.134 166.924 0 225.907c-.009 4.117 1.005 5.332 5.213 5.28 18.825-.231 37.656-.014 56.482-.177 3.511-.029 4.559.981 4.472 4.484-.229 9.158.061 18.329-.146 27.488-.076 3.342 1.066 4.24 4.27 4.166 8.327-.191 16.662-.162 24.99-.007 2.731.051 4.667-.809 6.569-2.739 10.055-10.209 20.278-20.252 30.32-30.473 2.032-2.068 4.099-2.93 7.004-2.903 14.161.132 28.325-.017 42.487.12 3.057.029 5.271-.785 7.469-3a12316.607 12316.607 0 0 1 62.909-62.921c2.177-2.162 3.122-4.313 3.117-7.418-.092-50.818-.136-101.638.054-152.456zm-24.077 144.451c.003 2.365-.739 4.054-2.397 5.697-11.479 11.373-22.919 22.785-34.266 34.289-1.833 1.859-3.768 2.344-6.227 2.334-17.824-.066-35.65.093-53.473-.133-4.007-.051-6.833 1.053-9.607 3.916-10.189 10.518-20.609 20.813-32.073 32.326 0-11.346-.195-21.138.094-30.916.12-4.063-.885-5.411-5.167-5.333-14.821.271-29.651.005-44.475.177-3.43.04-4.533-.852-4.525-4.42.109-53.141.099-106.281.018-159.421-.005-3.148.744-4.303 4.124-4.298 61.303.094 122.606.096 183.909-.002 3.447-.005 4.084 1.258 4.077 4.345-.083 40.479-.071 80.96-.012 121.439z"/><path d="M126.091 103.574c0 9.822-.228 19.651.105 29.461.146 4.317-1.313 5.488-5.354 5.121-3.632-.33-7.335-.285-10.976-.009-3.563.27-4.911-.649-4.87-4.584.208-19.974.204-39.953.002-59.927-.04-3.892 1.237-4.885 4.841-4.613 3.807.287 7.682.359 11.474-.015 4.187-.414 4.936 1.388 4.852 5.102-.221 9.817-.074 19.642-.074 29.464zM189.088 103.242c.001 10.321-.106 20.644.065 30.962.053 3.093-.925 4.092-3.978 3.938-4.483-.225-8.993-.204-13.479-.007-2.887.127-3.664-.975-3.652-3.74.092-20.642.089-41.284.007-61.926-.011-2.624.865-3.508 3.454-3.421 4.656.156 9.327.187 13.98-.01 2.886-.122 3.688.973 3.653 3.741-.127 10.153-.05 20.308-.05 30.463z"/></g></svg>