<?xml version="1.0" encoding="utf-8"?>
<!-- Generator: Adobe Illustrator 28.3.0, SVG Export Plug-In . SVG Version: 6.00 Build 0)  -->
<svg version="1.1" id="Layer_1" xmlns="http://www.w3.org/2000/svg" xmlns:xlink="http://www.w3.org/1999/xlink" x="0px" y="0px"
	 viewBox="0 0 46 46" style="enable-background:new 0 0 46 46;" xml:space="preserve">
<style type="text/css">
	.st0{opacity:0.5042;fill-rule:evenodd;clip-rule:evenodd;fill:#A2BFFF;enable-background:new    ;}
	.st1{opacity:0.8;fill-rule:evenodd;clip-rule:evenodd;fill:#A0BDFF;enable-background:new    ;}
	.st2{fill-rule:evenodd;clip-rule:evenodd;fill:#1A47FF;}
	.st3{fill-rule:evenodd;clip-rule:evenodd;fill:#5287FF;}
</style>
<g id="Page-1">
	<g id="Workspace" transform="translate(-68.000000, -293.000000)">
		<g id="Drive" transform="translate(68.000000, 293.000000)">
			<g id="logo" transform="translate(2.700000, 2.700000)">
				<path id="Rectangle-Copy-32" class="st0" d="M17.65,1.64L20.9,3c0.5,0.21,0.88,0.62,1.06,1.13l1.29,3.78
					c0.21,0.61,0.71,1.07,1.34,1.22l13.53,3.31c0.84,0.21,1.44,0.96,1.44,1.83v15.78c0,1.04-0.84,1.89-1.89,1.89
					c-0.19,0-0.37-0.03-0.55-0.08l-20.74-6.38c-0.79-0.24-1.33-0.97-1.33-1.8V3.38c0-1.04,0.84-1.89,1.89-1.89
					C17.17,1.49,17.42,1.54,17.65,1.64z"/>
				<path id="Rectangle-Copy-12" class="st1" d="M12.94,5.41l3.25,1.36c0.5,0.21,0.88,0.62,1.06,1.13l1.29,3.78
					c0.21,0.61,0.71,1.07,1.34,1.22L33.4,16.2c0.84,0.21,1.44,0.96,1.44,1.83v15.78c0,1.04-0.84,1.89-1.89,1.89
					c-0.19,0-0.37-0.03-0.55-0.08l-20.74-6.38c-0.79-0.24-1.33-0.97-1.33-1.8V7.15c0-1.04,0.84-1.89,1.89-1.89
					C12.46,5.26,12.71,5.31,12.94,5.41z"/>
				<path id="Rectangle" class="st2" d="M8.22,8.61l3.25,1.36c0.5,0.21,0.88,0.62,1.06,1.13l1.29,3.78
					c0.21,0.61,0.71,1.07,1.34,1.22l13.53,3.31c0.84,0.21,1.44,0.96,1.44,1.83v15.78c0,1.04-0.84,1.89-1.89,1.89
					c-0.19,0-0.37-0.03-0.55-0.08L6.94,32.45c-0.79-0.24-1.33-0.97-1.33-1.8V10.35c0-1.04,0.84-1.89,1.89-1.89
					C7.74,8.47,7.99,8.52,8.22,8.61z"/>
				<path id="Rectangle-Copy-37" class="st3" d="M3.44,16.98l20.95,5.82c0.63,0.18,1.13,0.67,1.31,1.3l3.95,13.81
					c0.14,0.5-0.15,1.02-0.65,1.17c-0.18,0.05-0.36,0.05-0.54-0.01L6.52,32.32c-0.57-0.18-1.02-0.61-1.22-1.17L1.16,19.42
					c-0.35-0.98,0.17-2.06,1.15-2.41C2.67,16.89,3.07,16.87,3.44,16.98z"/>
			</g>
		</g>
	</g>
</g>
</svg>
