<svg height="512" viewBox="0 0 512 512" width="512" xmlns="http://www.w3.org/2000/svg" xmlns:xlink="http://www.w3.org/1999/xlink"><defs><radialGradient id="a" cx=".5" cy=".5" gradientTransform="matrix(1024 1024 -1024 1024 0 -1024)" gradientUnits="userSpaceOnUse" r=".5"><stop offset="0" stop-color="#7b16ff"/><stop offset="1" stop-color="#3818e5"/></radialGradient><path id="b" d="m512 256c0 240-16 256-256 256s-256-16-256-256 21.3333-256 256-256c240 0 256 16 256 256z"/><clipPath id="c" clip-rule="evenodd"><path clip-rule="evenodd" d="m236-220h512v512h-512z"/></clipPath></defs><g clip-path="url(#c)" transform="translate(-236 220)"><use fill="#c4c4c4" transform="translate(236 -220)" xlink:href="#b"/><use fill="url(#a)" transform="translate(236 -220)" xlink:href="#b"/><path d="m0 16c0-8.83656 7.16344-16 16-16h14c115.98 0 210 94.0202 210 210v14c0 8.837-7.163 16-16 16h-88c-8.837 0-16-7.163-16-16v-14c0-49.706-40.2944-90-90-90h-14c-8.83656 0-16-7.163-16-16z" fill="#fff" fill-rule="evenodd" transform="translate(372 -84)"/></g></svg>