<?xml version="1.0" encoding="utf-8"?>
<!-- Generator: Adobe Illustrator 28.3.0, SVG Export Plug-In . SVG Version: 6.00 Build 0)  -->
<svg version="1.1" id="Layer_1" xmlns="http://www.w3.org/2000/svg" xmlns:xlink="http://www.w3.org/1999/xlink" x="0px" y="0px"
	 viewBox="0 0 155 155" style="enable-background:new 0 0 155 155;" xml:space="preserve">
<style type="text/css">
	.st0{fill:#FA005A;}
	.st1{fill:#FFC500;}
</style>
<g>
	<path class="st0" d="M128.75,75.7L53.85,0.81c-0.39-0.39-0.88-0.65-1.41-0.76C51.9-0.05,51.34,0,50.84,0.21s-0.94,0.56-1.24,1.01
		s-0.47,0.99-0.47,1.53v62.97L26.44,43.06c-0.39-0.39-0.88-0.65-1.42-0.76c-0.54-0.11-1.09-0.05-1.6,0.16
		c-0.51,0.21-0.94,0.56-1.24,1.02c-0.3,0.46-0.47,0.99-0.47,1.54v65.02c0,2.04,0.39,4.05,1.17,5.94c0.78,1.88,1.92,3.59,3.36,5.03
		l29.52,29.47c2.91,2.89,6.84,4.52,10.94,4.53h21.6c4.1,0,8.03-1.63,10.93-4.53l29.52-29.47c1.44-1.44,2.58-3.14,3.35-5.02
		c0.78-1.88,1.17-3.89,1.17-5.92V86.64c0-2.03-0.4-4.05-1.18-5.92C131.34,78.84,130.19,77.13,128.75,75.7L128.75,75.7z"/>
	<path class="st1" d="M105.91,103.12c0,1.23-0.49,2.4-1.36,3.27l-23.78,23.87c-0.43,0.43-0.94,0.78-1.51,1.01
		c-0.57,0.23-1.17,0.36-1.78,0.36s-1.22-0.12-1.78-0.36c-0.56-0.24-1.08-0.58-1.51-1.01l-23.73-23.9c-0.86-0.86-1.35-2.02-1.37-3.24
		v-9.11c0-0.61,0.12-1.21,0.36-1.78c0.23-0.56,0.58-1.07,1.01-1.5l8.55-8.55c0.87-0.87,2.05-1.36,3.28-1.36
		c1.23,0,2.41,0.49,3.28,1.36l11.94,11.95l11.92-11.95c0.87-0.87,2.05-1.36,3.28-1.36c1.23,0,2.41,0.49,3.28,1.36l8.53,8.55
		c0.43,0.43,0.78,0.94,1.01,1.5c0.23,0.56,0.36,1.17,0.36,1.78L105.91,103.12L105.91,103.12z"/>
</g>
</svg>
