<svg id="圖層_1" data-name="圖層 1" xmlns="http://www.w3.org/2000/svg" viewBox="0 0 800 800"><defs><style>.cls-1{fill:#333;}</style></defs><title>HackMD_LOGO_vertical</title><path class="cls-1" d="M472.84,281.28V381.46a9.1,9.1,0,0,1-9.1,9.1H336.24a9.1,9.1,0,0,1-9.11-9.1V229.67a9.11,9.11,0,0,1,9.11-9.1h75.89v51.6a9.11,9.11,0,0,0,9.11,9.11Zm-36.42,15.18a3,3,0,0,0-3-3H366.6a3,3,0,0,0-3,3v6.07a3,3,0,0,0,3,3h66.78a3,3,0,0,0,3-3Zm0,24.28a3,3,0,0,0-3-3H366.6a3,3,0,0,0-3,3v6.08a3,3,0,0,0,3,3h66.78a3,3,0,0,0,3-3Zm0,24.29a3,3,0,0,0-3-3H366.6a3,3,0,0,0-3,3v6.07a3,3,0,0,0,3,3h66.78a3,3,0,0,0,3-3Zm32.63-75.89H424.27V224.36a20.58,20.58,0,0,1,3.42,2.66l38.7,38.7A20.07,20.07,0,0,1,469.05,269.14Z"/><path class="cls-1" d="M130.75,447.66h18.57v42h42.3v-42h18.56V552.3H191.62V505.9h-42.3v46.4H130.75Z"/><path class="cls-1" d="M231,531.18c0-16.83,14-25.6,46.21-29.06-.26-8.45-3.65-15.49-14.28-15.49-7.8,0-15.16,3.52-22.08,7.75l-6.78-12.29c8.64-5.44,19.78-10.3,32.26-10.3,19.64,0,29.31,12.09,29.31,34V552.3H280.51l-1.4-8.7h-.52c-7,6-15.1,10.62-24.38,10.62C240.45,554.22,231,544.88,231,531.18Zm46.21.06V513.58c-21.32,2.69-28.42,8.25-28.42,16.19,0,7,4.74,10,11.33,10C266.5,539.76,271.36,536.62,277.19,531.24Z"/><path class="cls-1" d="M312.58,513.07c0-26.18,18.49-41.28,39.42-41.28a33.62,33.62,0,0,1,23,8.83l-9,12c-4.16-3.65-8.13-5.76-13.06-5.76-12.67,0-21.44,10.49-21.44,26.24s8.64,26.11,20.86,26.11c6.15,0,11.78-3,16.26-6.78l7.49,12.16a38.83,38.83,0,0,1-25.67,9.66C329,554.22,312.58,539.12,312.58,513.07Z"/><path class="cls-1" d="M391.62,439.27h18v70.6h.52l29.12-36.16h20.16l-26.95,32,29.7,46.59h-20L422,518.19l-12.29,14.14v20h-18Z"/><path class="cls-1" d="M476.67,447.66h21l18.5,51.13c2.3,6.66,4.42,13.7,6.72,20.55h.64c2.3-6.85,4.29-13.89,6.59-20.55l18.11-51.13h21V552.3h-17V504.43c0-9.67,1.47-23.59,2.37-33.28h-.64l-8.45,24.32-17.22,47h-11l-17.28-47-8.32-24.32H491c.89,9.69,2.36,23.61,2.36,33.28V552.3h-16.7Z"/><path class="cls-1" d="M595.84,447.66h27.9c32.07,0,51,17.28,51,51.9s-18.94,52.74-50,52.74H595.84Zm26.69,89.6c21.05,0,33.15-12,33.15-37.7s-12.1-36.86-33.15-36.86H614.4v74.56Z"/></svg>