<svg height="196" width="196" xmlns="http://www.w3.org/2000/svg"><path d="m-1-1h198v198h-198z" fill="none"/><path d="m0 25h39.150002c-5.970001 5.42-12.600002 10.209999-20.960001 10.889999 23.190001 22.790001 46.119997 45.850006 68.939997 69 3.290001 3.489998 7.389999 7.040001 12.690002 6.040001 6-2.599998 10.419998-7.620003 15.040001-12.059998 20.919998-21.410004 42.309998-42.360004 63.339996-63.650002-6.839996-.16-13.679993-.320004-20.529999-.500004 3.25-3.279997 6.479996-6.579998 9.869995-9.719997h28.460007v40.139999c-5.899994-6.130001-10.479996-13.260002-10.729996-22.059998-17.949997 18.23-36.090012 36.279999-54.26001 54.299995 18.139999 18.389999 36.450012 36.620003 54.779999 54.829994.12001-5.819992.26001-11.639984.400009-17.449982 3.319992 3.22998 6.779999 6.349991 9.809998 9.86998v24.37001h-38.190002c5.779999-4.940002 12.01001-9.410004 19.440002-11.529999-18.089996-17.539993-35.770004-35.510002-53.529999-53.380005-8.360001 7.350006-15.93 19.390007-28.639999 17.870003-9.380005-3.129997-15.639999-11.239998-23.099998-17.299995-18.180004 17.929993-36.200005 36.009995-54.200003 54.12999 6.16.130005 12.32.230011 18.469999.380005-3.23 3.330002-6.35 6.790009-9.879999 9.830002h-26.370001v-39.149994c5.42 5.970001 10.21 12.589996 10.89 20.959991 17.62-18.139999 35.81-35.709999 53.480002-53.799995-17.940002-18.190002-36.040003-36.220001-54.160003-54.220001-.13 5.809998-.26 11.629997-.4 17.450001-3.320001-3.230003-6.78-6.350002-9.81-9.869999v-25.370003z"/><path d="m66.440002 25h24.519997c-2.169998 1.830002-4.239998 3.769999-6.400002 5.610001-6.829994 7.959999-18.409996 3.09-27.349998 4.239998 2.880001-3.459999 6-6.719997 9.230003-9.849998z"/><path d="m117.529999 25h25.040009c-3.430008 3.16-6.690002 6.49-9.970001 9.789997-8.320007.110001-16.640007.140003-24.960007.070004 3.25-3.330002 6.489998-6.68 9.889999-9.860001z"/><path d="m0 78.029999c3.21 4.010002 7.26 7.5 9.61 12.110001.990001 7.370003.35 14.879997.48 22.300003-3.42-3.260002-6.84-6.510002-10.09-9.950005z"/><path d="m185.910004 82.559998c3.419998 3.260002 6.839996 6.510002 10.089996 9.950005v24.459999c-3.210007-4.010002-7.259995-7.5-9.610001-12.110001-.990005-7.370003-.350006-14.889999-.479996-22.300003z"/><path d="m54.029999 169c4.010002-3.190002 7.460003-7.259995 12.07-9.589996 7.380005-1.01001 14.910004-.37001 22.340004-.5-3.260002 3.419998-6.510002 6.839996-9.950005 10.089996z"/><path d="m106.029999 169c4.010002-3.190002 7.459999-7.259995 12.07-9.600006 7.419998-1.009995 14.989998-.299988 22.470009-.37999-3.560013 3.409988-7.090012 6.849991-10.900009 9.979996h-23.639999z"/></svg>