<?xml version="1.0" encoding="utf-8"?>
<!-- Generator: Adobe Illustrator 21.1.0, SVG Export Plug-In . SVG Version: 6.00 Build 0)  -->
<svg version="1.1" id="Layer_1" xmlns="http://www.w3.org/2000/svg" xmlns:xlink="http://www.w3.org/1999/xlink" x="0px" y="0px"
	 viewBox="0 0 30 30" style="enable-background:new 0 0 30 30;" xml:space="preserve">
<style type="text/css">
	.st0{fill:#FF3D57;}
	.st1{fill:#FFCB00;}
	.st2{fill-rule:evenodd;clip-rule:evenodd;fill:#00D647;}
</style>
<g>
	<g>
		<path class="st0" d="M-652.1,119.8c-7.6,0-15.3-2.1-22.2-6.4c-19.6-12.3-25.6-38.2-13.3-57.8l75.4-120.5
			c12.3-19.6,38.2-25.6,57.8-13.3c19.6,12.3,25.6,38.2,13.3,57.8l-75.4,120.5C-624.5,112.8-638.2,119.8-652.1,119.8z"/>
	</g>
	<g>
		<path class="st1" d="M-522.1,119.8c-7.6,0-15.3-2.1-22.2-6.4c-19.6-12.3-25.6-38.2-13.3-57.8l75.4-120.5
			c12.3-19.6,38.2-25.6,57.8-13.3c19.6,12.3,25.6,38.2,13.3,57.8l-75.4,120.5C-494.5,112.8-508.2,119.8-522.1,119.8z"/>
	</g>
	<g>
		<ellipse class="st2" cx="-392.1" cy="78.8" rx="42" ry="40.9"/>
	</g>
</g>
<g>
	<g>
		<path class="st0" d="M4.4,22.9c-0.6,0-1.2-0.2-1.8-0.5c-1.6-1-2.1-3.1-1.1-4.7l6.1-9.8c1-1.6,3.1-2.1,4.7-1.1
			c1.6,1,2.1,3.1,1.1,4.7l-6.1,9.8C6.7,22.4,5.5,22.9,4.4,22.9z"/>
	</g>
	<g>
		<path class="st1" d="M15,22.9c-0.6,0-1.2-0.2-1.8-0.5c-1.6-1-2.1-3.1-1.1-4.7l6.1-9.8c1-1.6,3.1-2.1,4.7-1.1
			c1.6,1,2.1,3.1,1.1,4.7l-6.1,9.8C17.2,22.4,16.1,22.9,15,22.9z"/>
	</g>
	<g>
		<ellipse class="st2" cx="25.6" cy="19.6" rx="3.4" ry="3.3"/>
	</g>
</g>
</svg>
