<svg xmlns="http://www.w3.org/2000/svg" width="30" height="30" xml:space="preserve"><path fill="#49C0EE" d="M13.228 19.758a6.024 6.024 0 0 1-3.321-.996 6.046 6.046 0 0 0 11.097-3.322 6.033 6.033 0 0 0-2.727-5.048 5.99 5.99 0 0 1 .998 3.32 6.046 6.046 0 0 1-6.047 6.046m3.456-15.552c3.14 0 6.016 1.117 8.258 2.972a12.933 12.933 0 0 0-9.985-4.7C7.801 2.479 2 8.281 2 15.435c0 4.02 1.83 7.608 4.699 9.987a12.91 12.91 0 0 1-2.972-8.26c0-7.157 5.802-12.956 12.957-12.956M7.215 14.333a6.088 6.088 0 0 1-.033-.624l.001-.043a9.485 9.485 0 0 1 1.979-5.75c-2.25 1.74-3.708 4.458-3.708 7.522 0 5.246 4.255 9.501 9.501 9.501 3.064 0 5.781-1.457 7.52-3.711a9.448 9.448 0 0 1-5.791 1.981c-5.037.002-9.146-3.918-9.469-8.876"/><path fill="#DDE3F3" d="M22.699 16.539c.021.209.031.416.031.625 0 .041-.004.078-.006.115a9.44 9.44 0 0 1-1.976 5.678 9.48 9.48 0 0 0 3.709-7.519c0-5.249-4.253-9.5-9.501-9.5-3.064 0-5.781 1.456-7.519 3.709a9.45 9.45 0 0 1 5.791-1.981c5.04-.002 9.147 3.921 9.471 8.873m.514-11.088a12.917 12.917 0 0 1 2.973 8.258c0 6.827-5.281 12.405-11.978 12.907a9.87 9.87 0 0 1-.98.053c-.045 0-.09-.008-.135-.008a12.91 12.91 0 0 1-8.122-2.968 12.93 12.93 0 0 0 9.985 4.699c7.155 0 12.957-5.799 12.957-12.956a12.928 12.928 0 0 0-4.7-9.985m-6.529 5.669a6.01 6.01 0 0 1 3.322.996A6.046 6.046 0 0 0 8.91 15.437a6.033 6.033 0 0 0 2.724 5.049 5.997 5.997 0 0 1-.997-3.322 6.047 6.047 0 0 1 6.047-6.044"/></svg>