<svg height="1024" width="1024" xmlns="http://www.w3.org/2000/svg"><linearGradient id="a" x1="17.744%" x2="82.214%" y1="105.83%" y2="-5.862%"><stop offset="0" stop-color="#e32929"/><stop offset="1" stop-color="#ff8d30"/></linearGradient><g fill="none"><path d="M675.453 823.5h-53.87L607.77 864.94h-29.928l61.698-177.266h36.834l61.698 177.266h-32.69l-48.806-145.496-26.705 77.813h37.755zM136.748 688.133v116.95c0 40.978-26.705 62.619-68.604 62.619-41.439 0-68.144-21.64-68.144-62.62V688.134h29.928v116.95c0 23.942 14.734 36.374 37.755 36.374 23.943 0 38.677-12.432 38.677-36.374v-116.95zm97.612 54.792v122.014h-29.928V687.673h28.086l78.273 122.014V687.673h29.928v177.266h-28.086zm554.36-54.792h29.927V865.4H788.72zM1024 801.4c0 41.44-27.165 63.54-69.986 63.54h-66.762V687.673h67.223c42.36 0 69.525 22.1 69.525 63.54zm-30.388-49.726c0-24.403-15.195-37.295-39.137-37.295H917.18v124.777h36.834c24.403 0 39.598-12.892 39.598-37.295zm-494.965 46.503c19.799-7.367 31.77-24.402 31.77-52.95 0-40.057-23.482-57.093-58.935-57.093h-62.619V865.4h29.928V714.378h31.77c17.497 0 28.547 8.288 28.547 30.849s-11.05 31.31-28.547 31.31h-15.655l42.36 89.323H531.8z" fill="#000"/><path d="M492.987 111.36h37.45v221.818h-37.45zm-327.83 221.818h-37.45V111.36h37.45zm145.19 26.503h37.45v84.694h-37.45zm-91.608-95.065h37.45V401.74h-37.45zm182.64 0h37.45V401.74h-37.45zM858.843 111.36h37.45v221.818h-37.45zm-145.19-25.927h-37.45V.74h37.45zm91.608 94.489h-37.45V43.374h37.45zm-183.216 0h-37.45V43.374h37.45z" fill="url(#a)" transform="translate(0 155.5)"/></g></svg>