<svg height="1024" viewBox="0 0 1024 1024" width="1024" xmlns="http://www.w3.org/2000/svg" xmlns:xlink="http://www.w3.org/1999/xlink"><linearGradient id="a" x1="17.743628%" x2="82.213643%" y1="105.82987%" y2="-5.862338%"><stop offset="0" stop-color="#e32929"/><stop offset="1" stop-color="#ff8d30"/></linearGradient><g fill="none" transform="translate(0 155.5)"><path d="m675.453237 668.000138h-53.870503l-13.81295 41.438849h-29.928057l61.697841-177.266187h36.834533l61.697841 177.266187h-32.690647l-48.805755-145.496403-26.705036 77.81295h37.755395zm-538.705036-135.366906v116.94964c0 40.978417-26.705036 62.618705-68.6043161 62.618705-41.4388489 0-68.1438849-21.640288-68.1438849-62.618705v-116.94964h29.9280576v116.94964c0 23.942446 14.7338129 36.374101 37.7553956 36.374101 23.9424461 0 38.6762588-12.431655 38.6762588-36.374101v-116.94964zm97.611511 54.791366v122.014389h-29.928057v-177.266187h28.086331l78.273381 122.014388v-122.014388h29.928057v177.266187h-28.08633zm554.359712-54.791366h29.928058v177.266187h-29.928058zm235.280576 113.266187c0 41.438849-27.165468 63.539568-69.985612 63.539568h-66.762589v-177.266187h67.223021c42.359712 0 69.52518 22.100719 69.52518 63.539568zm-30.388489-49.726619c0-24.402878-15.194245-37.294964-39.136691-37.294964h-37.294964v124.776978h36.834532c24.402878 0 39.597123-12.892086 39.597123-37.294964zm-494.964029 46.503597c19.798561-7.366906 31.769784-24.402878 31.769784-52.94964 0-40.057554-23.482014-57.093525-58.935252-57.093525h-62.618705v177.266187h29.928058v-151.021583h31.769784c17.496403 0 28.546763 8.28777 28.546763 30.848921s-11.05036 31.309352-28.546763 31.309352h-15.654676l42.359712 89.323741h34.532374z" fill="#000"/><path d="m492.98701 111.359943h37.449829v221.818221h-37.449829zm-327.830047 221.818221h-37.449829v-221.818221h37.449829zm145.190109 26.502956h37.449829v84.69423h-37.449829zm-91.608045-95.064951h37.44983v137.123991h-37.44983zm182.639938 0h37.44983v137.123991h-37.44983zm457.464072-153.256226h37.449829v221.818221h-37.449829zm-145.190109-25.926805h-37.449829v-84.69422985h37.449829zm91.608045 94.488801h-37.44983v-136.5478403h37.44983zm-183.216089 0h-37.44983v-136.5478403h37.44983z" fill="url(#a)"/></g></svg>