<svg height="80" viewBox="0 0 80 67" width="80" xmlns="http://www.w3.org/2000/svg"><g fill="none" fill-rule="evenodd"><path d="m2.68921569 2.98431373c1.67058823-1.78725491 4.08235294-2.84313726 6.5245098-2.90196079 20.49117651-.00294118 40.98333331.00098039 61.47450981-.00196078 1.895098.03333333 3.7882353.62941176 5.3215686 1.75294117 2.427451 1.7009804 3.9313726 4.61862745 3.9588236 7.57745098.0117647 9.28137259.0009803 18.56274509.0049019 27.84411769-.0078431 1.0519607.0509804 2.117647-.1833333 3.1529411-.5490196 2.9235294-2.5764706 5.5137255-5.2715686 6.7676471-1.25.6156863-2.6450981.8519608-4.0284314.8852941-5.5705883.0127451-11.1431373-.0156863-16.7137255.0137255-4.2147059 5.7882353-8.4598039 11.5519608-12.6843137 17.3323529-.3333334.4303922-.6147059.9039216-1.0039216 1.2882353-.0382353-6.2088235 0-12.4186274-.0196078-18.6274509-10.1215687-.0117647-20.2421569-.0009804-30.36372554-.0058824-1.0254902-.0382353-2.06176471-.1029412-3.04313725-.4333333-1.80196079-.5539216-3.39803922-1.6921569-4.56960785-3.1617647-1.1990196-1.5215687-1.91862745-3.4127451-2.03529411-5.3460785-.02843138-.8833333-.01078432-1.7666666-.01568628-2.65.00196078-8.9549019-.00294118-17.9098039.00196078-26.86372545-.01568627-2.4382353.95000001-4.86960785 2.64607844-6.62254902z" fill="#14a1cf"/><g fill="#feffff"><path d="m52.3068627 7.81372549c1.0647059-.35882353 2.2656863-.61764706 3.354902-.21666667.7696078.28333334 1.1931373 1.07156863 1.3637255 1.83137255.504902 2.05196083.6441176 4.16960783.8647059 6.26470593.3715686 3.5343137.9921568 7.0421568 1.8029412 10.5009803.4686274-.8264705.7823529-1.7284313 1.1578431-2.5990196 1.2333333-3.1107843 2.5647059-6.1892156 3.5490196-9.3911764.4058824-1.3450981.7637255-2.7411765 1.5794118-3.909804.9666666-1.36372544 2.4352941-2.38039211 4.0627451-2.77156858.6539215-.0627451 1.4088235-.15784314 1.9666666.27058823.427451.32745099.4833334.92450981.4294118 1.42156863-.0813726.59019608-.2411765 1.16764702-.4107843 1.73823532-.5843137 1.8872549-1.3343137 3.717647-2.1 5.5372549-.9588235 2.2333333-1.9931373 4.4333333-3.1127451 6.5892157-1.6009804 3.2372549-3.4294118 6.3872549-5.7254902 9.1852941-1.3607843 1.6980392-2.9009804 3.2509804-4.5843137 4.6294117-1.2539216 1.0078432-2.5803922 1.9431373-4.0343138 2.6401961-1.1980392.5637255-2.5049019 1.0029412-3.845098.9343138-.3176471-.009804-.6539216-.1509804-.8235294-.4284314-.1833333-.3568628-.1284314-.772549-.072549-1.1519608.2-1.2186275.6774509-2.3960784 1.3882353-3.4068628.8039215-1.0147058 1.9127451-1.7323529 3.0431372-2.3372549.7960784-.4529411 1.6382353-.817647 2.4598039-1.2215686-.0705882-.2029412-.1598039-.4-.2705882-.5833333-1.1343137-1.8784314-2.2392157-3.7803922-3.1323529-5.7882353-1.3450981-2.9372549-2.4392157-6.0509804-2.6558824-9.2970588-.0588235-1.6215687-.0127451-3.2656863.3882353-4.8450981.2009804-.7892157.4794118-1.59215683 1.0401961-2.20196075.6049019-.69411765 1.4490196-1.12254902 2.3166666-1.39313726z"/><path d="m26.4705882 9.80294118c1.1588236-1.05 2.5156863-2.05588236 4.1205883-2.21372549.8872549-.10784314 1.7627451.28627451 2.3754902.91470588 1.0686274 1.04019608 1.5568627 2.65098043 1.2186274 4.10784313-.4911765 2.0803922-1.2568627 4.0813726-1.9529412 6.0990196-.1215686.3352941-.2549019.6686275-.3166666 1.022549.5205882-.3431372.9107843-.8392157 1.372549-1.2509804 1.2421569-1.1078431 2.3872549-2.3166666 3.5764706-3.4794117.8627451-.8382353 1.6156863-1.7843137 2.5333333-2.5647059.8333333-.7656863 1.8588235-1.5323529 3.0558824-1.4323529.9313725-.0392157 1.8931372.4088235 2.395098 1.2068627.3970588.5745098.5578431 1.2686274.6676471 1.9480392.1421568 1.6970588-.109804 3.3901961-.3480392 5.0676471-.25 2.1843137-.4960785 4.3705882-.6166667 6.5666666-.1254902 2.054902.2235294 4.1019608.6843137 6.0960785.1245098.7078431.322549 1.4068627.3794118 2.1245098-.1558824.617647-.6401961 1.0892157-1.1686275 1.4107843-.8088235.472549-1.7421568.7519608-2.6833333.7215686-1.1441177.0245098-2.2460784-.4539216-3.1343137-1.1509804-.759804-.577451-1.4019608-1.3098039-1.8892157-2.1294117-.7529412-1.2754902-.9333334-2.7901961-.9686275-4.2441177-.145098-2.2235294.1990196-4.4401961.2343138-6.6598039-.6862746.8205882-1.4637255 1.5578431-2.1980393 2.3343137-1.2647058 1.2519608-2.4990196 2.5333333-3.7666666 3.782353-.8647059.867647-1.6950981 1.772549-2.6313726 2.5656862-.7352941.6313726-1.5990196 1.2362745-2.6058823 1.259804-.6627451.0382352-1.3480392-.027451-1.9372549-.3558824-1.254902-.6303922-2.0519608-2.0156863-2.0519608-3.4088235-.0627451-1.8990196.6882353-3.6882353 1.3196078-5.4411765.2470588-.7284314.5990196-1.4186275.8284314-2.1519608-.2921569.1784314-.5156863.4392157-.7490196.6833333-1.0529412 1.1401961-2.1009804 2.2833334-3.1137255 3.459804-1.3990196 1.6343137-2.7745098 3.2941176-4.2980392 4.8156862-.9401961.8637255-1.9196079 1.7931373-3.1803922 2.1441177-.9803921.204902-2.07843135-.054902-2.80392154-.7627451-.65-.6039216-1.02254902-1.4480392-1.21372549-2.3009804-.21862745-1.0460784-.2-2.1323529-.01764706-3.1823529.22941176-1.3352942.59509804-2.6450981 1.02254902-3.9294118.65392157-2.0333333 1.43823527-4.022549 2.26666667-5.9901961.7323529-1.6833333 1.4411765-3.3872549 2.3882353-4.9656863.7882353-1.22647055 1.9392157-2.36274505 3.4254902-2.63137251.7333333-.05 1.5039216-.09019607 2.2019608.18529412.572549.21470588 1.1107843.58235294 1.4352941 1.10980392.3205882.53039216.2431372 1.17843137.2019608 1.76764707-.3392157 2.5196078-1.4235294 4.845098-2.2411765 7.2294118-.1215686.3470588-.2490196.6941176-.3127451 1.0568627.1480392-.104902.2901961-.2205882.4107843-.3568627 1.8656863-2.0980393 3.5911765-4.3166667 5.4637255-6.4088236.8470588-.9147059 1.6705882-1.8568627 2.6215686-2.66862742z"/></g></g></svg>