<svg height="80" viewBox="0 0 80 67" width="80" xmlns="http://www.w3.org/2000/svg"><g fill="none" fill-rule="evenodd"><path d="M2.69 2.984C4.36 1.197 6.771.141 9.213.082 29.704.08 50.197.083 70.688.08c1.895.034 3.788.63 5.322 1.753 2.427 1.701 3.931 4.619 3.959 7.578.011 9.281 0 18.563.005 27.844-.008 1.052.05 2.118-.184 3.153-.549 2.923-2.576 5.514-5.271 6.767-1.25.616-2.645.852-4.029.886-5.57.013-11.143-.016-16.714.014-4.214 5.788-8.46 11.551-12.684 17.332-.333.43-.615.904-1.004 1.288-.038-6.209 0-12.419-.02-18.627-10.12-.012-20.242-.001-30.363-.006-1.026-.038-2.062-.103-3.043-.434-1.802-.553-3.398-1.692-4.57-3.161A9.636 9.636 0 0 1 .057 39.12c-.029-.884-.01-1.767-.016-2.65.002-8.955-.003-17.91.002-26.864A9.54 9.54 0 0 1 2.69 2.984z" fill="#14a1cf"/><g fill="#feffff"><path d="M52.307 7.814c1.065-.36 2.266-.618 3.355-.217.77.283 1.193 1.072 1.363 1.831.505 2.052.645 4.17.865 6.265.372 3.534.992 7.042 1.803 10.501.469-.826.782-1.728 1.158-2.599 1.233-3.11 2.565-6.19 3.549-9.391.406-1.345.764-2.741 1.58-3.91.966-1.364 2.435-2.38 4.062-2.771.654-.063 1.409-.158 1.967.27.427.328.483.925.43 1.422-.082.59-.242 1.167-.412 1.738-.584 1.887-1.334 3.718-2.1 5.537a99.228 99.228 0 0 1-3.112 6.59c-1.601 3.237-3.43 6.387-5.726 9.185a31.245 31.245 0 0 1-4.584 4.63c-1.254 1.007-2.58 1.942-4.034 2.64-1.198.563-2.505 1.002-3.846.934-.317-.01-.653-.151-.823-.429-.183-.357-.128-.772-.073-1.152a8.284 8.284 0 0 1 1.389-3.407c.804-1.014 1.912-1.732 3.043-2.337.796-.453 1.638-.818 2.46-1.221a3.09 3.09 0 0 0-.271-.584c-1.134-1.878-2.24-3.78-3.132-5.788-1.345-2.937-2.44-6.051-2.656-9.297-.06-1.622-.013-3.266.388-4.845.201-.79.48-1.592 1.04-2.202.605-.694 1.45-1.123 2.317-1.393zM26.47 9.803c1.16-1.05 2.516-2.056 4.121-2.214.887-.108 1.763.286 2.376.915 1.068 1.04 1.557 2.65 1.218 4.108-.49 2.08-1.257 4.081-1.953 6.099-.121.335-.255.668-.316 1.022.52-.343.91-.839 1.372-1.25 1.242-1.108 2.387-2.317 3.577-3.48.862-.838 1.615-1.784 2.533-2.565.833-.765 1.859-1.532 3.056-1.432.931-.04 1.893.409 2.395 1.207.397.574.558 1.268.668 1.948.142 1.697-.11 3.39-.348 5.067-.25 2.185-.496 4.371-.617 6.567-.126 2.055.223 4.102.684 6.096.125.708.323 1.407.38 2.125-.156.617-.64 1.089-1.169 1.41-.809.473-1.742.752-2.683.722-1.144.025-2.246-.454-3.135-1.15a7.477 7.477 0 0 1-1.889-2.13c-.753-1.276-.933-2.79-.968-4.244-.146-2.224.199-4.44.234-6.66-.686.82-1.464 1.558-2.198 2.334-1.265 1.252-2.5 2.533-3.767 3.782-.865.868-1.695 1.773-2.631 2.566-.735.631-1.6 1.236-2.606 1.26-.663.038-1.348-.028-1.937-.356-1.255-.63-2.052-2.016-2.052-3.409-.063-1.899.688-3.688 1.32-5.441.246-.728.598-1.419.828-2.152-.292.178-.516.44-.75.683a133.393 133.393 0 0 0-3.113 3.46c-1.399 1.634-2.775 3.294-4.298 4.816-.94.864-1.92 1.793-3.18 2.144-.98.205-2.079-.055-2.804-.763-.65-.604-1.023-1.448-1.214-2.3-.219-1.047-.2-2.133-.018-3.183.23-1.335.595-2.645 1.023-3.93.654-2.033 1.438-4.022 2.266-5.99.733-1.683 1.442-3.387 2.389-4.965.788-1.227 1.939-2.363 3.425-2.632.734-.05 1.504-.09 2.202.186.573.214 1.111.582 1.435 1.11.321.53.244 1.178.202 1.767-.339 2.52-1.423 4.845-2.24 7.23-.122.346-.25.694-.313 1.056.148-.105.29-.22.41-.357 1.866-2.098 3.591-4.316 5.464-6.408.847-.915 1.67-1.857 2.622-2.67z"/></g></g></svg>