<?xml version="1.0" encoding="utf-8"?>
<!-- Generator: Adobe Illustrator 28.3.0, SVG Export Plug-In . SVG Version: 6.00 Build 0)  -->
<svg version="1.1" id="Layer_1" xmlns="http://www.w3.org/2000/svg" xmlns:xlink="http://www.w3.org/1999/xlink" x="0px" y="0px"
	 viewBox="0 0 1570 1570" style="enable-background:new 0 0 1570 1570;" xml:space="preserve">
<style type="text/css">
	.st0{fill:#8449D4;}
</style>
<path class="st0" d="M1556.32,722.58c-0.11-1.22-0.22-2.4-0.32-3.58c-3.47-40.16-9.94-80.43-20.31-119.4
	c-0.46-1.72-0.91-3.44-1.35-5.15c-2.03-7.86-4.12-15.71-6.27-23.54c-0.32-1.15-0.32-1.15-0.63-2.29
	c-2.89-10.51-6.13-20.91-9.7-31.22c-0.38-1.09-0.75-2.15-1.12-3.21c-5.14-14.93-10.68-29.66-16.74-44.24
	c-0.32-0.77-0.63-1.52-0.94-2.26c-10.05-24.12-21.53-47.36-34.07-70.28c-0.94-1.72-0.94-1.72-1.87-3.41
	c-7.34-13.44-14.83-26.72-23.14-39.59c-1.42-2.19-2.85-4.39-4.25-6.59c-5.94-9.34-12.08-18.5-18.51-27.5
	c-1.57-2.18-3.13-4.37-4.69-6.56c-6.29-8.89-12.74-17.59-19.67-25.99c-2.58-3.13-5.14-6.25-7.62-9.46
	c-4.39-5.69-8.83-11.24-13.74-16.5c-2.53-2.66-4.97-5.3-7.27-8.16c-4.64-5.81-9.48-11.26-14.73-16.53c-1.4-1.38-2.8-2.77-4.19-4.16
	c-2-2-4.01-4-6.01-6c-2.57-2.55-5.14-5.1-7.69-7.66c-2.02-2.02-4.04-4.04-6.07-6.05c-0.97-0.97-1.94-1.94-2.92-2.91
	c-5.93-5.93-11.94-11.73-18.21-17.31c-1.62-1.43-3.23-2.88-4.83-4.33c-22.15-20.18-45.88-38.88-70.32-56.19
	c-0.73-0.51-1.43-1.01-2.14-1.51c-16.35-11.58-33.23-22.45-50.59-32.46c-2.29-1.32-4.58-2.64-6.86-3.97
	c-34.24-19.99-70.38-37.07-107.41-51.2c-3.14-1.2-6.26-2.42-9.37-3.71c-4.09-1.73-8.13-3.44-12.33-4.88
	c-0.98-0.29-1.93-0.57-2.88-0.84c-1.12-0.34-2.21-0.66-3.29-0.98c-6.08-1.78-12.17-3.55-18.16-5.61c-11.86-4.14-23.82-7.52-36-10.57
	c-3.45-0.86-6.91-1.73-10.35-2.63c-31.25-8.21-63.77-14.7-95.97-17.53c-3.6-0.31-7.17-0.67-10.75-1.12
	c-26.47-3.43-52.76-3.86-79.41-3.82c-0.96,0-1.89,0.01-2.82,0.01c-6.35,0.01-12.71,0.02-19.06,0.06c-0.87,0-1.71,0.01-2.54,0.01
	c-2.41,0.01-4.83,0.02-7.24,0.04c-0.75,0.01-1.48,0.02-2.22,0.02c-4.07,0.03-8.05,0.17-12.09,0.68c-2.01,0.27-4.02,0.53-6.04,0.67
	c-0.67,0.03-1.31,0.05-1.96,0.08c-1.14,0.04-1.14,0.04-2.25,0.09c-8.32,0.34-16.52,1.02-24.78,2.07c-2.4,0.31-4.8,0.61-7.21,0.88
	c-40.11,4.36-79.32,12.08-118.2,22.82c-2.02,0.56-4.04,1.11-6.06,1.66c-12.71,3.46-25.31,7.18-37.76,11.49
	c-1.09,0.38-2.15,0.75-3.21,1.11c-14.93,5.15-29.66,10.69-44.24,16.75c-0.77,0.32-1.52,0.63-2.26,0.94
	c-24.12,10.05-47.36,21.53-70.28,34.07c-1.72,0.94-1.72,0.94-3.41,1.87c-13.44,7.34-26.72,14.83-39.59,23.14
	c-2.19,1.42-4.39,2.85-6.59,4.25c-9.34,5.94-18.5,12.07-27.5,18.51c-2.18,1.57-4.37,3.13-6.56,4.69c-8.9,6.29-17.59,12.74-26,19.68
	c-3.66,3.02-7.34,5.99-11.09,8.89c-6.9,5.34-13.54,10.95-20.1,16.7c-1.19,1.05-2.38,2.09-3.57,3.14
	c-5.98,5.09-11.6,10.46-17.15,16.01l-2.94,2.94c-2.06,2.07-4.13,4.13-6.2,6.2c-2.65,2.66-5.31,5.32-7.97,7.98
	c-2.09,2.08-4.18,4.17-6.27,6.26c-1,1.01-2,2.01-3.01,3.01c-5.52,5.51-10.98,11.03-16.05,16.96c-1.27,1.48-2.58,2.93-3.89,4.37
	c-24.72,26.81-47.35,56.01-67.37,86.47c-1.62,2.48-3.25,4.95-4.89,7.41c-9.43,14.11-18.21,28.5-26.52,43.29
	c-0.59,1.06-1.17,2.08-1.74,3.1c-19.03,33.63-35.31,69.08-48.96,105.22c-0.36,0.94-0.7,1.86-1.04,2.78
	c-1.8,4.74-3.54,9.48-5.14,14.29c-0.25,0.75-0.49,1.48-0.74,2.21c-2.32,7.02-4.62,14.05-6.79,21.12c-0.44,1.46-0.89,2.92-1.33,4.38
	C23.95,615.23,11.23,674.37,9.24,732.32c-0.06,1.9-0.15,3.79-0.24,5.68c-1.08,7.05-1.16,14.02-1.17,21.14v4.45
	c-0.01,3.16-0.02,6.31-0.02,9.47c0,3.23,0.01,6.46-0.01,9.7c-0.12,29.84,0.81,59.49,4.09,89.18c0.1,0.91,0.2,1.8,0.3,2.68
	c2.25,20.58,5.43,40.92,9.39,61.24c0.14,0.73,0.28,1.43,0.42,2.14c4.76,24.41,10.67,48.7,17.92,72.5c0.37,1.19,0.72,2.34,1.08,3.5
	c2.91,9.77,6.14,19.38,9.72,28.92c0.76,2.03,1.53,4.05,2.28,6.08c9.55,26.83,20.48,53.07,33.25,78.53c0.88,1.75,0.88,1.75,1.75,3.47
	c12.16,24.12,25.01,47.8,39.48,70.61c0.52,0.81,1.02,1.6,1.52,2.39c6.37,10.08,12.96,19.98,19.9,29.68
	c1.57,2.18,3.13,4.37,4.69,6.56c6.29,8.9,12.74,17.59,19.68,26c3.02,3.66,5.99,7.34,8.89,11.09c5.34,6.9,10.95,13.54,16.7,20.1
	c1.05,1.19,2.1,2.38,3.14,3.57c5.09,5.98,10.46,11.6,16.01,17.15l2.94,2.94c2.07,2.06,4.13,4.13,6.2,6.2
	c2.66,2.65,5.32,5.31,7.98,7.97c2.08,2.09,4.17,4.18,6.26,6.27c1.01,1,2.01,2,3.01,3.01c5.51,5.52,11.03,10.98,16.96,16.05
	c1.48,1.27,2.93,2.58,4.37,3.89c26.81,24.72,56.01,47.35,86.47,67.37c2.48,1.62,4.95,3.25,7.41,4.89
	c14.12,9.43,28.51,18.21,43.3,26.53c1.05,0.59,2.07,1.16,3.09,1.73c43.26,24.5,89.68,45.63,137.38,59.81c4.37,1.3,8.75,2.58,13.09,4
	c17.61,5.89,35.51,10.39,53.55,14.72c0.68,0.16,1.33,0.31,1.98,0.47c7.25,1.74,14.48,3.34,21.83,4.59
	c5.56,0.92,11.12,1.8,16.65,2.91c10.59,2.19,21.28,3.64,32,5.05c1.34,0.17,2.65,0.34,3.96,0.51c7.33,0.98,14.65,1.93,22.03,2.44
	c3.3,0.2,6.59,0.41,9.87,0.73c18.08,1.87,36.04,2.12,54.19,2.09c2.56,0,5.12-0.01,7.68-0.01c27.45,0,59.01,2.88,85.75-3.8
	c2.02-0.54,2.02-0.54,4.03-0.81c1.06-0.13,1.06-0.13,2.1-0.26c1.22-0.14,1.22-0.14,2.41-0.29c1.74-0.21,3.49-0.42,5.23-0.63
	c2.8-0.34,5.6-0.68,8.39-1.02c2.81-0.34,5.62-0.68,8.42-1.02c0.9-0.11,1.78-0.22,2.66-0.32c2.94-0.35,5.87-0.73,8.8-1.16
	c2-1.11,2-1.11,4.4-1.46c1.01-0.16,2-0.32,2.98-0.47c1.12-0.18,2.2-0.36,3.28-0.53c15.91-2.56,31.63-5.71,47.28-9.51
	c1.23-0.3,1.23-0.3,2.44-0.59c8.25-2,16.47-4.03,24.58-6.54c3.76-1.19,7.51-2.34,11.31-3.39c9.66-2.68,19.17-5.57,28.59-9
	c2.12-0.78,4.24-1.54,6.36-2.29c0.77-0.27,1.51-0.53,2.26-0.79c1.49-0.52,2.97-1.04,4.46-1.56c5.1-1.76,10.13-3.66,15.14-5.69
	c0.99-0.4,1.96-0.79,2.92-1.18c20.2-8.08,40.08-16.49,59.53-26.25c1.18-0.59,2.33-1.17,3.47-1.75
	c24.12-12.16,47.8-25.01,70.61-39.48c0.81-0.52,1.6-1.02,2.39-1.52c10.08-6.37,19.98-12.96,29.68-19.9
	c2.18-1.57,4.37-3.13,6.56-4.69c8.89-6.29,17.59-12.74,25.99-19.67c3.13-2.58,6.25-5.14,9.46-7.62c5.69-4.39,11.24-8.83,16.5-13.75
	c2.66-2.52,5.3-4.96,8.16-7.26c5.81-4.64,11.26-9.48,16.53-14.73c1.38-1.4,2.77-2.8,4.16-4.19c2-2,4-4.01,6-6.01
	c2.55-2.57,5.1-5.14,7.66-7.69c2.02-2.02,4.04-4.04,6.06-6.07c0.96-0.97,1.93-1.94,2.9-2.92c5.93-5.93,11.73-11.94,17.31-18.21
	c1.43-1.62,2.88-3.23,4.33-4.83c20.18-22.15,38.88-45.88,56.19-70.32c0.51-0.73,1.01-1.43,1.51-2.14
	c11.58-16.35,22.45-33.23,32.46-50.59c1.32-2.29,2.64-4.58,3.97-6.86c19.99-34.24,37.07-70.38,51.2-107.41
	c1.2-3.14,2.42-6.26,3.71-9.37c1.73-4.09,3.44-8.13,4.88-12.33c0.43-1.45,0.43-1.45,0.84-2.88c0.34-1.12,0.66-2.21,0.98-3.29
	c1.78-6.08,3.55-12.17,5.61-18.16c4.14-11.86,7.52-23.82,10.57-36c0.86-3.45,1.73-6.91,2.63-10.35
	c9.11-34.68,15.61-70.55,18.76-106.28c0.2-2.29,0.4-4.57,0.61-6.85C1559.43,815.08,1560.13,768.19,1556.32,722.58z M1254.44,519.81
	c0,0.78-0.01,1.57-0.01,2.37c-0.05,12.35-1.14,23.87-4.43,35.82c-0.22,0.97-0.43,1.94-0.65,2.93
	c-7.05,30.25-24.81,57.78-45.67,80.17c-2.39,2.59-4.69,5.23-6.99,7.9c-5.66,6.31-12.16,11.62-18.69,17
	c-0.81,0.68-1.62,1.35-2.45,2.05c-16.45,13.45-33.96,25.4-52.43,35.89c-4.05,2.33-7.12,4.48-10.12,8.06
	c-0.54,0.6-1.07,1.2-1.62,1.81c-4.66,7.4-4.8,14.35-4.86,22.9c-0.17,18.42-2.37,35.58-7.52,53.29c-0.28,1.15-0.57,2.29-0.86,3.47
	c-2.28,8.89-5.8,16.65-10.14,24.67c-0.91,1.69-1.78,3.38-2.65,5.08c-4.56,8.46-10.62,15.03-17.35,21.78
	c-0.66,0.69-1.31,1.38-1.99,2.09c-10.7,10.44-27.17,15.18-41.01,19.91c-0.63,0.22-1.25,0.43-1.9,0.66
	c-11.12,3.82-22.28,7.19-33.66,10.15c-0.8,0.21-1.6,0.42-2.42,0.63c-23.75,6.21-47.78,11.84-72.02,15.81
	c-21.46,3.58-39.54,10.75-55,26.75c-0.47,0.49-0.94,0.97-1.43,1.48c-15.95,16.62-29.85,35.2-43.09,54.02
	c-1.82,2.59-3.68,5.14-5.55,7.69c-7.82,10.64-14.99,21.58-21.93,32.81c0.93-0.3,0.93-0.3,1.88-0.6
	c15.38-4.96,30.79-9.81,46.23-14.56c3.35-1.03,6.7-2.07,10.04-3.1c10.3-3.18,20.6-6.28,31-9.11c5.52-1.51,10.94-3.24,16.35-5.13
	c7.25-2.48,14.52-4.68,21.92-6.66c5.1-1.38,10.09-2.99,15.08-4.72c8.79-3.03,17.73-5.42,26.73-7.76c1.07-0.28,2.13-0.56,3.23-0.84
	c1.42-0.37,1.42-0.37,2.87-0.75c2.69-0.72,2.69-0.72,5.25-1.84c3.79-1.45,7.41-1.31,11.42-1.31c1.26,0.01,1.26,0.01,2.55,0.01
	c13.36,0.26,24.04,4.61,33.37,14.07c3.35,3.7,6.02,7.75,8.71,11.93c0.6,0.92,1.2,1.83,1.82,2.77c1.9,2.9,3.79,5.81,5.67,8.72
	c1.25,1.9,2.49,3.8,3.73,5.7c6.31,9.64,12.56,19.33,18.77,29.05c0.57,0.88,1.13,1.77,1.72,2.68c11.56,18.15,11.56,18.15,9.66,28.45
	c-2.53,3.48-3.96,4.65-8,6c-10.48,1.15-16.87-2.24-25-8.56c-8.55-6.53-14.91-7.53-25.48-7.97c-9.51-0.49-18.86-2.41-25.87-9.28
	c-4.03-5.35-6.11-11.81-7.71-18.25c-1.11-3.46-1.86-4.14-4.94-5.94c-9.37-1.64-17.98,1.12-26.7,4.2c-3.41,1.19-6.84,2.32-10.27,3.46
	c-1.75,0.58-3.49,1.16-5.23,1.75c-10.13,3.42-20.37,6.48-30.63,9.48c-10.51,3.08-20.95,6.29-31.33,9.81
	c-6.99,2.38-14.06,4.48-21.14,6.56c-9.98,2.94-19.89,6.07-29.76,9.36c-1.12,0.38-2.24,0.75-3.39,1.13
	c-3.19,1.07-6.37,2.16-9.55,3.25c-0.94,0.31-1.87,0.63-2.84,0.95c-7,2.42-13.4,5.6-19.91,9.11c-23.8,12.74-23.8,12.74-37.75,8.94
	c-9.25-3.5-14.27-10.4-18.41-19.07c-5.4-14.48-1.24-33.23,4.96-46.89c15.04-32.14,33.67-62.11,52.67-92.02
	c2.11-3.33,4.2-6.67,6.28-10.02c-12.97,4.58-25.73,9.57-38.29,15.16c-1.33,0.59-2.66,1.18-4,1.77c-8.66,3.79-16.26,8.18-23.71,14.07
	c-0.77,0.59-1.54,1.18-2.33,1.78c-2.19,1.69-4.37,3.39-6.55,5.09c-1.56,1.23-3.12,2.45-4.69,3.67c-0.75,0.59-1.51,1.18-2.29,1.79
	c-2.95,2.3-5.92,4.58-8.89,6.86c-11.61,8.92-23.06,18.03-34.4,27.3c-1.73,1.41-3.46,2.82-5.2,4.23c-1.47,1.19-1.47,1.19-2.96,2.4
	c-0.84,0.69-1.69,1.37-2.55,2.08c-0.71,0.59-1.41,1.19-2.14,1.8c-0.54,0.43-1.09,0.86-1.65,1.3c-2.06,2.6-2.75,5.63-3.66,8.76
	c-4.38,13.85-12.08,24.23-24.88,31.48c-2.68,1.39-5.38,2.71-8.1,4.01c-11.31,5.46-18.02,12.59-25.71,22.45
	c-0.81,1.02-1.61,2.05-2.44,3.11c-5.14,6.57-10.05,13.3-14.87,20.1c-2.98,4.2-5.99,8.37-9,12.54c-1.11,1.54-2.23,3.08-3.34,4.61
	c-0.83,1.15-0.83,1.15-1.68,2.33c-1.64,2.26-3.27,4.53-4.9,6.79c-6.13,8.51-12.31,16.98-18.54,25.41
	c-3.94,5.35-7.85,10.72-11.73,16.11c-6.18,8.58-12.45,17.1-18.73,25.61c-2.93,3.96-5.85,7.93-8.77,11.89
	c-1.17,1.58-2.33,3.17-3.5,4.75c-0.58,0.78-1.16,1.57-1.75,2.37c-1.75,2.38-3.5,4.75-5.25,7.13c-0.58,0.78-1.15,1.57-1.75,2.37
	c-1.17,1.59-2.34,3.17-3.5,4.76c-2.9,3.93-5.79,7.86-8.68,11.8c-8.71,11.88-17.59,23.64-26.57,35.32c-0.55,0.72-1.1,1.43-1.66,2.17
	c-4.59,5.99-9.11,11.87-14.6,17.07c-3.08,3.12-5.74,6.6-8.49,10.01c-2,2.45-4.09,4.75-6.25,7.06c-7.9,8.86-13.49,18.99-18.17,29.83
	c-2.33,5.28-4.92,9.9-9.83,13.21c-2.38,0.77-4.44,1.02-6.94,1.09c-0.83,0.04-1.67,0.08-2.52,0.12c-3.74-0.82-5.18-2.61-7.54-5.56
	c-7.44-19.2-2.54-41.73,5.08-59.98c1.26-2.77,2.73-5.41,4.2-8.07c6.61-12.12,5.55-22.28,2.4-35.52c-1.84-9.29-1.65-17.22,3.47-25.23
	c7.32-9.9,19.02-10.89,30.35-12.69c16.26-2.66,26.85-9.13,36.5-22.51c3.22-4.6,6.37-9.24,9.52-13.88
	c3.38-4.99,6.83-9.94,10.29-14.87c5.04-7.18,10.06-14.36,15.07-21.56c0.66-0.96,1.33-1.92,2.01-2.91c2.04-2.92,4.07-5.85,6.11-8.78
	c9.41-13.53,18.82-27.05,28.28-40.55c1.74-2.48,3.48-4.96,5.21-7.44c0.58-0.83,1.16-1.65,1.76-2.51c1.16-1.66,2.32-3.32,3.48-4.98
	c3-4.3,6.03-8.58,9.09-12.84c0.62-0.87,1.25-1.75,1.9-2.66c1.18-1.66,2.37-3.31,3.57-4.96c6.16-8.66,9.85-17.73,12.59-27.94
	c5.7-19.83,16.3-32.91,34.12-43.12c1.83-0.97,3.66-1.93,5.5-2.88c11.19-5.96,20.67-15.03,30.2-23.29c2.87-2.48,5.79-4.88,8.74-7.27
	c10.67-8.69,20.95-17.79,30.93-27.27c3.18-3.02,6.4-5.99,9.72-8.86c13.6-11.16,13.6-11.16,21.47-26.18
	c-0.77-3.11-2.13-4.17-4.56-6.25c-7.89-3.96-16.18-6.47-24.75-8.47c-6.05-1.42-11.92-3.27-17.84-5.18c-5.01-1.62-10.03-3.1-15.1-4.5
	c-27.97-7.73-56.02-18.39-79.56-35.66c-17.76-12.71-42.84-10.63-63.28-7.28c-20.99,3.91-39.93,13.64-57.34,25.72
	c-7.26,4.97-15.23,8.88-24.13,9.37c-0.76,0.11-1.52,0.22-2.3,0.33c-9.5,0.84-16.73-3.84-24.7-8.33c-1.66-0.92-3.33-1.83-4.99-2.75
	C360,827.35,343.95,817.95,330,806c-0.9-0.67-0.9-0.67-1.83-1.36c-7.65-5.86-14.29-15.19-16.17-24.64
	c-2.4-29.68,6.67-55.7,25.25-78.79c2.17-2.5,4.41-4.87,6.75-7.21c0.82-0.83,1.64-1.66,2.48-2.52
	c16.23-15.62,36.85-23.23,58.25-28.88c1.83-0.48,3.65-0.99,5.47-1.5c31.18-8.45,64.52-9.77,96.61-11.66
	c16.81-1,33.5-2.14,50.19-4.44c1.26-0.17,2.51-0.33,3.81-0.51c18.16-2.44,35.69-5.88,53.19-11.49c0.91-0.29,1.81-0.57,2.75-0.87
	c2.61-0.83,5.21-1.69,7.81-2.57c0.73-0.24,1.45-0.48,2.2-0.72c13.67-4.82,26.49-12.5,39.24-19.34c10.58-5.68,21.23-11.18,32-16.5
	c0.94-0.47,1.88-0.94,2.86-1.42c32.87-16.27,67.99-28.56,103.98-35.72c2.8-0.56,5.56-1.2,8.32-1.91c5.16-1.28,10.33-1.95,15.59-2.65
	c2.54-0.34,5.07-0.7,7.6-1.06c1.95-0.27,3.89-0.53,5.84-0.8c0.88-0.13,1.76-0.26,2.67-0.39c15.74-2.12,31.72-2.29,47.58-2.3h2.57
	c12.55,0.01,24.71,0.45,36.99,3.25c1.21,0.26,2.42,0.52,3.67,0.79c10.79,2.38,21.15,5.62,31.58,9.21c3.07,1.04,6.13,2.08,9.2,3.12
	c0.74,0.26,1.48,0.51,2.24,0.77c4.41,1.49,8.83,2.9,13.29,4.23c4.55,1.38,8.92,2.97,13.3,4.78c5.95,2.41,12,4.54,18.03,6.72
	c0.72,0.26,1.43,0.52,2.17,0.79c26.79,9.75,26.79,9.75,53.9,18.59c1.14,0.35,2.28,0.7,3.46,1.06c11.28,2.82,22.8,3.29,34.37,3.26
	c2.22-0.01,4.45,0.02,6.67,0.04c13.2,0.06,26.3-1.25,38.37-6.99c0.75-0.34,1.49-0.68,2.26-1.04c6.87-3.28,12.71-7.36,18.49-12.33
	c0.66-0.52,1.32-1.03,2-1.56c6.44-5.53,9.6-13.85,13-21.44c0.29-0.65,0.59-1.3,0.89-1.97c8.94-20.19,14.24-48.64,6.11-70.03
	c-6.55-14.3-18.08-25.25-29-36.25c-0.91-0.92-1.83-1.85-2.77-2.8c-6.1-6.07-12.5-11.58-19.23-16.95c-4.18-3.49-8.3-7.05-12.41-10.62
	c-1.35-1.17-2.71-2.34-4.07-3.51c-13.49-11.84-26.69-24.09-35.52-39.87c-0.36-0.65-0.73-1.29-1.1-1.96
	c-9.79-17.82-15.51-36.85-15.4-57.29c0-1.26,0.01-2.52,0.02-3.82c0.33-18.29,5.7-36.31,18.48-49.93
	c16.03-15.4,41.25-16.49,60.75-6.5c0.69,0.35,1.37,0.7,2.08,1.06c8.85,4.65,16.25,10.96,23.83,17.4
	c11.95,10.11,24.12,15.25,39.22,19.1c9.49,2.49,16.74,5.24,22.12,13.94c0.69,3.81,0.69,3.81,0,7c-4.36,4.89-11.69,6.45-18,7
	c-4.11,0.17-8.22,0.21-12.33,0.25c-2.43,0.03-4.87,0.06-7.3,0.1c-3.81,0.04-7.62,0.09-11.43,0.13c-3.69,0.04-7.39,0.09-11.08,0.14
	c-1.69,0.01-1.69,0.01-3.41,0.03c-11.77,0.18-27.12,1.41-37.01,8.47c-4.79,5.65-7.19,12.25-6.74,19.67
	c2.65,19.26,23.42,33.46,37.89,44.56c4.02,3.1,7.88,6.38,11.74,9.68c3.24,2.78,6.55,5.45,9.92,8.09
	c11.07,9.04,22.48,19.48,29.75,31.88c0.66,1.09,1.32,2.17,2,3.29c4.37,7.3,8.03,14.74,11,22.71c0.36,0.93,0.72,1.86,1.09,2.82
	C1253.27,490.13,1254.56,504.72,1254.44,519.81z"/>
</svg>
