<svg version="1.1" viewBox="0 0 100 100" xmlns="http://www.w3.org/2000/svg">
 <defs>
  <style>.st0 {
        fill: #fff;
      }

      .st1 {
        fill: #a62626;
        fill-rule: evenodd;
      }</style>
 </defs>
 <rect class="st0" width="100" height="100" rx="30" ry="30"/>
 <path class="st1" d="M33.57,63.3h-.48c-1.75-.27-2.96-1.91-2.7-3.66,2.15-14.17,2.86-36.78,2.86-36.94.16-1.75,1.51-3.18,3.35-3.1,1.74.08,3.11,1.52,3.1,3.26,0,.95-.8,23.17-2.95,37.74-.24,1.57-1.6,2.72-3.18,2.7ZM79.2,69.19c-1.39,0-2.62-.9-3.03-2.23-.54-1.64.34-3.41,1.98-3.95.03,0,.06-.02.09-.03,15.05-4.77,15.29-8.44,15.37-10.43.16-3.1-2.23-7.08-3.18-8.44-1.03-1.43-.71-3.42.71-4.46,1.43-1.03,3.42-.71,4.46.71.48.64,4.77,6.61,4.38,12.58-.4,7.25-5.97,11.7-19.82,16.16-.16,0-.32.02-.48.04-.16.02-.32.04-.48.04h0ZM35.96,80.41c-.97.03-1.89-.42-2.47-1.19-1.08-1.33-.89-3.28.44-4.37.04-.03.08-.06.12-.09,6.53-5.18,10.91-9.8,13.77-13.85-1.59-.8-3.26-1.99-4.14-3.98-.8-1.83-1.28-4.86,1.51-8.92,3.98-5.89,7.96-7.25,9.47-7.56,2.03-.43,4.05.79,4.62,2.79.4,1.43,1.35,5.97-1.51,12.9,3.82-.08,6.85-1.11,9.15-3.03,4.45-3.58,4.7-9.64,4.7-9.71.08-1.74,1.52-3.12,3.27-3.1,1.74.08,3.11,1.52,3.1,3.26,0,.32-.32,8.84-6.93,14.41-4.14,3.5-9.8,5.02-16.64,4.46-3.26,5.01-8.44,10.91-16.48,17.27-.56.46-1.27.71-1.99.72h.01ZM53.24,48.25c-1.12.96-2.09,2.09-2.86,3.34-1.04,1.59-1.12,2.47-1.04,2.71.16.4.95.8,1.75,1.11,1.51-3.02,1.99-5.41,2.15-7.16ZM54.03,70.62c.07,1.72,1.46,3.08,3.18,3.1h.16c.24,0,5.57-.16,13.22-1.91,1.73-.36,2.84-2.04,2.48-3.77,0-.02,0-.03-.01-.05-.36-1.73-2.04-2.84-3.77-2.48-.02,0-.03,0-.05.01-7.09,1.51-12.1,1.75-12.18,1.75-1.76.09-3.11,1.59-3.03,3.35ZM.61,79.14c.55.8,1.59,1.27,2.55,1.27.64,0,1.27-.16,1.91-.55,20.23-14.73,21.02-34,21.02-34.8,0-1.75-1.35-3.18-3.1-3.26-1.75-.08-3.18,1.35-3.26,3.1,0,.64-.8,16.96-18.4,29.78-1.43,1.03-1.75,3.02-.72,4.45h0Z"/>
</svg>
