<svg version="1.0" xmlns="http://www.w3.org/2000/svg" width="682.667" height="682.667" viewBox="0 0 512 512"><path d="M227 23.5C155.7 32.4 91.5 74.3 54.9 136.1c-17.2 29-28.3 62.1-31.8 95.1-1.4 12.5-1.4 37.1 0 49.6 3.5 32.9 15.6 68.7 32.3 96.2 35.7 58.4 92.4 97.1 161.6 110.2 13.6 2.5 50.5 3.6 64.8 1.8C373.9 477.7 449 416.8 478 330.1c8.4-25 12-47.5 12-74.1 0-26.6-3.6-49.1-12-74-11.9-35.6-30.2-65.4-55.9-91-38.9-38.7-87.9-62.3-141.3-68-13-1.3-40.8-1.1-53.8.5zm43.1 114.3c17.3 4.8 31.2 19.4 35.4 37.3 5.4 23-6.2 46.8-28 57.5l-8 3.9h-27l-8-3.9c-15.6-7.6-26.4-22.3-28.8-39.1-3.5-24.3 12.3-48.9 35.7-55.6 8.2-2.3 20.4-2.4 28.7-.1zm-.6 129.2c9.7.9 16.6 2 31 5 11.6 2.4 32.7 11.6 43.5 19 7.8 5.4 16.4 14.5 20.2 21.5 3.3 5.9 3.3 6.2 3.6 21.5.3 13.9.1 16.1-1.8 21.2-2.7 7.2-9.2 14.1-16.8 17.6l-5.7 2.7h-173l-5.7-2.8c-7-3.5-14.1-11.2-16.5-18.2-1.4-3.9-1.8-8.3-1.8-19.6v-14.5l3.7-7.5c9.7-19.5 35-35 69.4-42.4 18.5-4 33-5 49.9-3.5z" fill="#1974fc"/></svg>