<?xml version="1.0" encoding="utf-8"?>
<svg version="1.2" baseProfile="tiny" id="Camada_1"
	 xmlns="http://www.w3.org/2000/svg" xmlns:xlink="http://www.w3.org/1999/xlink" x="0px" y="0px" viewBox="0 0 784 784"
	 xml:space="preserve">
<g>
	<path fill="#FFFFFF" d="M596.7,407.1c10.8,3.5,19.2,9.4,25.3,18.4c12.6,18.5,8.7,46.2-8.9,60.6c-3.4,2.8-3.5,4.8-1.7,8.3
		c10.2,20.2,15.1,41.7,14.5,64.2c-1.4,47.7-22.8,84.8-61,112.4c-22.6,16.4-48.3,23.6-76.1,23.7c-20.2,0.1-40.3-0.1-60.5,0.2
		c-2.9,0-6.5,1.5-8.7,3.6c-32.2,30.7-86.1,30.7-118.1,0c-1.7-1.7-4.6-3.3-6.8-3.2c-54.6,1.8-90.9-27.2-118.2-70.7
		c-15.7-25.1-23.5-53.1-26.6-82.5c-3.5-33.4-0.9-66.6,3.8-99.6c4-28.3,10-56.3,15-84.4c0.3-1.5,0.2-3.5-0.7-4.7
		c-15.1-21.2-6.5-50.4,20-62.9c13.6-6.4,25.5-15,37.6-23.6c3-2.2,3.1-3.9,1.7-6.9c-9.9-21.7-13.2-44.2-7.2-67.6
		c4.6-18.1,14.8-31.2,33.5-36.1c3.5-0.9,3.7-3.3,4.1-5.9c3.7-25.8,11.8-50.2,24.4-73c4-7.2,8.6-14.4,14.1-20.5
		c9.5-10.4,21.5-15.3,35.7-11.1c14.1,4.2,22,14.4,23.7,28.6c3.2,26.9,18.5,46.6,37,64.5c14.7,14.3,33,23,51,32
		c28.8,14.4,57.7,28.4,84.1,47.1c25.2,17.9,46.9,39,61.2,66.8c18.7,36.2,21.7,74,10.5,113C598.5,400.7,597.7,403.5,596.7,407.1z
		 M460.2,529.2c1,2.2,1.9,4,2.7,5.8c9.5,22.9,16.5,46.5,19.9,71c2.4,17.1,3.1,34.5,4.5,51.7c0.5,6,1,6.5,6.9,5.4
		c7.1-1.3,14.1-3,21.2-4c12.5-1.9,23.3-7.3,33.7-14.1c5.1-3.4,7.1-7.2,7.1-13.5c-0.3-33.3-0.2-66.7,0-100c0-4-1.4-5.9-4.7-7.6
		c-9.6-5-19.1-10.3-28.6-15.5c-1.5-0.8-2.8-1.9-4.7-3.2c11.3-8.4,20.3-17.8,26.9-29.4c10-17.6,13.8-36.6,13-56.7
		c-0.1-2.4,0.3-5.4,1.7-7.3c10.2-14.2,15.7-30,17.3-47.2c3.4-38.5-9.9-71-36.3-98.5c-21.5-22.4-47.8-38.1-75.1-52.4
		c-22.2-11.6-45.2-21.7-66.3-34.9c-36.6-23-63.3-54.2-71.4-98.4c-0.7-3.6-2.1-7.5-6.2-7.3c-3,0.2-5.8,2.8-8.7,4.5
		c-0.5,0.3-0.7,1.1-1,1.7c-4.3,8.6-9,17.1-12.9,25.9c-11.5,25.8-17.5,52.7-14.1,81.2c0.7,5.9,2.2,11.6,3.5,18c-1.6-0.7-3-1-3.9-1.7
		c-6-5-12.2-9.7-17.6-15.2c-6.1-6.2-13.2-5.7-17.4,2c-0.8,1.4-1.4,3-1.8,4.6c-6.3,23-2.2,44.5,9.3,64.9c2.7,4.7,5.7,9.2,8.8,14.1
		c-3.9,2.7-7.6,5-11,7.6c-18.9,13.8-36.2,30-58,39.6c-7.2,3.2-8.8,11.7-4.2,18.4c2.7,3.9,6.5,7,10.2,10.9c-1.4,3.8-3.6,8.2-4.7,12.8
		c-4.7,20.6-9.7,41.1-13.4,61.9c-6,33.3-8.9,67-7.6,101c0.8,22.1,4.8,43.6,13.8,64.1c14.4,32.9,35.4,59.3,71.1,70.7
		c2.9,0.9,5.9,1.2,9.9,1.9c-2-2.4-3.2-4-4.6-5.5c-8.9-9.8-18.1-19.4-26.7-29.5c-15.9-18.8-27.9-39.5-34.5-63.6
		c-4.1-15.2-6.4-30.5-6.5-46c-0.1-18.7,0.5-37.4,2.7-55.9c3.4-27.9,7.7-55.9,13.1-83.5c4.8-24.1,15.7-45.6,33.3-63.3
		c15.4-15.5,34.2-25.7,54.3-33.7c6.6-2.6,13.3-4.9,19.9-7.3c-15.3-2.9-28.5-9.3-39.3-20.3c-10.7-10.8-19.7-30.9-18.8-41.7
		c3.4,2.4,6.6,5.1,10.2,7.1c17.7,10.1,37.2,13,57.2,14.1c1.3,0.1,2.6-1,4.3-1.7c-1.9-1-3.1-1.4-3.9-2.1
		c-8.6-7.8-15.1-17.1-19.4-27.8c-11.7-29-6.9-57.7,2.5-86.1c0.1-0.4,0.6-0.8,0.7-0.9c2.9,6.4,5.5,13,8.7,19.3
		c16.9,32.5,43.1,55.4,75.2,72.2c26.4,13.8,53.1,27.2,79,41.9c22.2,12.5,42.1,28,56.9,49.4c15.1,21.9,22,45.7,17.9,72.3
		c-0.9,5.9-3,11.6-4.6,18c-3.2-3.9-5.4-7-8.1-9.6c-2.8-2.7-5.8-5.6-9.3-7.3c-22.3-10.7-44.7-1.9-53.5,21.2
		c-4.9,12.8-11.9,23.8-23.3,31.6c-3.2,2.2-3.2,4.3-2.2,7.4c3.3,10.4,3,21.1,0.3,31.5c-7.7,29.6-27.6,48.6-54.4,61.3
		c-4.4,2.1-8.9,3.8-14.5,6.2C410.4,535.1,435.1,535.4,460.2,529.2z M225.8,398.9c0.3,2.4,0.5,6.3,1.2,10
		c4.6,25.9,27.1,38.2,51.3,28.1c23.9-10,38.6-40.9,32.2-67.6c-6.7-27.6-34.8-39.2-58.5-23.6C233.4,357.9,226.7,376.3,225.8,398.9z
		 M437.1,369c-0.1-17.9-14-32-31.5-31.8c-18.4,0.2-32.6,14.6-32.5,32.9c0.1,17.3,14.7,31.8,31.9,31.8
		C422.6,401.9,437.2,387,437.1,369z M585.5,437.3c-7.5-0.1-14,6.3-14.1,13.9c-0.1,7.1,6.2,13.8,13,13.9c7.7,0.1,14.4-6.4,14.6-14.1
		C599.1,443.5,593.1,437.4,585.5,437.3z"/>
	<path d="M460.2,529.2c-25.2,6.3-49.9,6-75.9,0.1c5.6-2.4,10.1-4.1,14.5-6.2c26.8-12.7,46.7-31.7,54.4-61.3c2.7-10.4,3-21-0.3-31.5
		c-1-3.1-1-5.2,2.2-7.4c11.3-7.8,18.4-18.8,23.3-31.6c8.8-23,31.2-31.9,53.5-21.2c3.5,1.7,6.5,4.5,9.3,7.3c2.7,2.6,4.9,5.7,8.1,9.6
		c1.7-6.4,3.7-12.1,4.6-18c4.2-26.5-2.8-50.3-17.9-72.3c-14.7-21.4-34.7-36.9-56.9-49.4c-26-14.6-52.6-28.1-79-41.9
		c-32.1-16.7-58.3-39.6-75.2-72.2c-3.3-6.3-5.9-12.9-8.7-19.3c-0.1,0.1-0.5,0.5-0.7,0.9c-9.3,28.5-14.1,57.1-2.5,86.1
		c4.3,10.7,10.8,20,19.4,27.8c0.9,0.8,2.1,1.2,3.9,2.1c-1.7,0.7-3,1.8-4.3,1.7c-19.9-1.1-39.5-4-57.2-14.1c-3.6-2-6.8-4.7-10.1-7.1
		c-0.9,10.8,8.1,30.9,18.8,41.7c10.8,11,24,17.4,39.3,20.3c-6.6,2.4-13.4,4.7-19.9,7.3c-20.1,8-38.9,18.2-54.3,33.7
		c-17.6,17.7-28.5,39.2-33.3,63.3c-5.5,27.6-9.7,55.5-13.1,83.5c-2.2,18.5-2.8,37.3-2.7,55.9c0.1,15.5,2.3,30.7,6.5,46
		c6.6,24.2,18.6,44.8,34.5,63.6c8.6,10.1,17.8,19.6,26.7,29.5c1.3,1.5,2.5,3,4.6,5.5c-3.9-0.7-7-1-9.9-1.9
		c-35.7-11.4-56.7-37.7-71.1-70.7c-8.9-20.4-12.9-41.9-13.8-64.1c-1.3-33.9,1.6-67.6,7.6-101c3.7-20.8,8.7-41.3,13.4-61.9
		c1.1-4.6,3.3-9,4.7-12.8c-3.7-3.9-7.5-7-10.2-10.9c-4.6-6.7-3.1-15.2,4.2-18.4c21.9-9.6,39.1-25.8,58-39.6c3.5-2.5,7.1-4.9,11-7.6
		c-3.1-4.9-6.1-9.4-8.8-14.1c-11.6-20.4-15.6-41.9-9.3-64.9c0.4-1.6,1-3.2,1.8-4.6c4.2-7.7,11.3-8.2,17.4-2
		c5.4,5.5,11.7,10.3,17.6,15.2c0.9,0.8,2.3,1.1,3.9,1.7c-1.2-6.3-2.8-12.1-3.5-18c-3.4-28.4,2.7-55.3,14.1-81.2
		c3.9-8.8,8.6-17.3,12.9-25.9c0.3-0.6,0.5-1.4,1-1.7c2.8-1.7,5.7-4.3,8.7-4.5c4-0.2,5.5,3.7,6.2,7.3c8.1,44.2,34.8,75.4,71.4,98.4
		c21.1,13.2,44.1,23.3,66.3,34.9c27.3,14.2,53.6,30,75.1,52.4c26.4,27.4,39.7,59.9,36.3,98.5c-1.5,17.3-7.1,33.1-17.3,47.2
		c-1.4,1.9-1.8,4.9-1.7,7.3c0.9,20.1-3,39-13,56.7c-6.6,11.6-15.7,21-26.9,29.4c1.9,1.3,3.2,2.4,4.7,3.2c9.5,5.2,19,10.5,28.6,15.5
		c3.3,1.7,4.7,3.6,4.7,7.6c-0.2,33.3-0.3,66.7,0,100c0.1,6.3-1.9,10.1-7.1,13.5c-10.4,6.8-21.2,12.2-33.7,14.1
		c-7.1,1.1-14.1,2.7-21.2,4c-5.8,1.1-6.4,0.6-6.9-5.4c-1.4-17.2-2.1-34.6-4.5-51.7c-3.5-24.5-10.4-48.1-19.9-71
		C462.1,533.1,461.2,531.3,460.2,529.2z M524.1,468.3c0.9-0.6,1.3-0.8,1.6-1.1c0.7-0.9,1.4-1.9,1.9-2.9
		c8.8-15.3,12.9-31.6,11.5-49.3c-0.7-8.4-2.5-16.5-8.2-23.1c-8.5-9.9-26.9-8.4-33.1,2.8c-5.5,9.9-10.8,20-16.2,30
		c10.5,0.9,22,2.6,30.9,11.2C521.6,444.7,525,455.6,524.1,468.3z M447.5,508.7c2,0.3,2.6,0.6,3.2,0.5c19.3-2.6,36.1-10.1,49-25.2
		c5.9-6.9,6.6-15.2,5.5-23.6c-0.8-6.6-4.7-11.3-11.6-12.9c-4.9-1.1-9.7-2.1-14.6-3.1c-3.5-0.7-4.3,0.9-4.9,4.3
		c-1.7,9.9-3.4,20-6.3,29.6C464.4,489.9,457.7,499.9,447.5,508.7z"/>
	<path d="M225.8,398.9c0.8-22.6,7.6-41,26.1-53.1c23.7-15.5,51.8-4,58.5,23.6c6.4,26.7-8.3,57.5-32.2,67.6
		c-24.1,10.1-46.7-2.2-51.3-28.1C226.3,405.2,226.1,401.4,225.8,398.9z"/>
	<path d="M437.1,369c0.1,17.9-14.5,32.9-32,32.9c-17.2,0-31.8-14.5-31.9-31.8c-0.1-18.3,14.1-32.7,32.5-32.9
		C423.1,337.1,437,351.1,437.1,369z M423.9,355.6c-0.1-4.8-4.5-9-9.1-8.7c-4.3,0.2-8.1,4.4-7.9,8.7c0.2,4.6,4.3,8.7,8.7,8.6
		C419.8,364,424,359.7,423.9,355.6z"/>
	<path d="M585.5,437.3c7.6,0.1,13.6,6.2,13.5,13.7c-0.1,7.7-6.9,14.2-14.6,14.1c-6.8-0.1-13.1-6.8-13-13.9
		C571.5,443.7,578,437.3,585.5,437.3z"/>
	<path fill="#FFFFFF" d="M524.1,468.3c0.9-12.8-2.5-23.6-11.5-32.3c-8.9-8.6-20.4-10.4-30.9-11.2c5.4-10,10.7-20,16.2-30
		c6.2-11.2,24.6-12.7,33.1-2.8c5.7,6.6,7.5,14.7,8.2,23.1c1.4,17.6-2.7,34-11.5,49.3c-0.6,1-1.2,2-1.9,2.9
		C525.4,467.6,524.9,467.7,524.1,468.3z"/>
	<path fill="#FFFFFF" d="M447.5,508.7c10.2-8.8,16.9-18.8,20.4-30.4c2.9-9.6,4.6-19.7,6.3-29.6c0.6-3.4,1.4-5,4.9-4.3
		c4.9,1,9.8,2,14.6,3.1c6.8,1.6,10.7,6.2,11.6,12.9c1.1,8.4,0.4,16.7-5.5,23.6c-12.9,15.1-29.7,22.6-49,25.2
		C450.1,509.3,449.5,509,447.5,508.7z"/>
	<path fill="#FFFFFF" d="M423.9,355.6c0.1,4.1-4.1,8.4-8.2,8.5c-4.4,0.1-8.5-3.9-8.7-8.6c-0.2-4.3,3.6-8.4,7.9-8.7
		C419.4,346.6,423.8,350.9,423.9,355.6z"/>
</g>
</svg>
