<?xml version="1.0" encoding="utf-8"?>
<!-- Generator: Adobe Illustrator 27.1.1, SVG Export Plug-In . SVG Version: 6.00 Build 0)  -->
<svg version="1.1" id="layer" xmlns="http://www.w3.org/2000/svg" xmlns:xlink="http://www.w3.org/1999/xlink" x="0px" y="0px"
	 viewBox="0 0 652 652" style="enable-background:new 0 0 652 652;" xml:space="preserve">
<style type="text/css">
	.st0{fill:#08C7FB;}
	.st1{fill:#FFFFFF;}
</style>
<g>
	<path class="st0" d="M326.3,641.9L326.3,641.9C152.3,641.9,10.4,500.7,10.4,326c0-174.1,141.1-315.9,315.9-315.9h236.6
		c43.7,0,78.6,35.6,78.6,78.6v236.6C641.6,500.7,500.4,641.9,326.3,641.9"/>
	<path class="st1" d="M321.6,482.6c4,2.7,9.4,2,12.1-2l99.5-138.5l22.9-32.3c5.4-7.4,0-18.1-9.4-18.1h-44.4H297.4l37-111.6
		c1.3-3.4,0-7.4-3.4-10.1c-4-2.7-9.4-2-12.1,2l-99.5,138.5l-22.9,32.3c-5.4,7.4,0,18.1,9.4,18.1h44.4h105.5l-37,111.6
		C316.9,475.9,318.3,479.9,321.6,482.6"/>
</g>
</svg>
