<svg clip-rule="evenodd" fill-rule="evenodd" stroke-linejoin="round" stroke-miterlimit="2" viewBox="0 0 1024 1024" xmlns="http://www.w3.org/2000/svg"><g fill-rule="nonzero" transform="matrix(21.2292 0 0 21.2292 2.74535 2)"><path d="m24.001 31.838-7.838-7.838 7.838-7.838v-16.162l-22.384 22.384c-.887.887-.887 2.345 0 3.232l22.384 22.384s3.428-2.286 3.428-8c-.177-3.032-1.388-5.913-3.428-8.162z" fill="#2684ff"/><path d="m17.387 22.477.15.149 6.464-6.464v-16.162l-12.116 12.114c.911 3.87 2.806 7.44 5.502 10.363z" fill="#1d78f2"/><path d="m19.041 20.897.114.114 4.848-4.848v-16.163l-10.135 10.133c.635 4.016 2.434 7.759 5.173 10.764z" fill="#126ae5"/><path d="m24.001 16.162v-16.162l-8 8c.175 4.245 1.867 8.289 4.766 11.394z" fill="#0b60da"/><path d="m18.286 8c0 5.424 3.894 9.567 4.097 9.778l1.618-1.616v-16.162l-5.511 5.511c-.137.822-.205 1.655-.204 2.489z" fill="#0154ce"/><path d="m24.001 16.162 7.836 7.838-7.836 7.838v16.162l22.382-22.384c.887-.887.887-2.345 0-3.232l-22.382-22.384s-3.429 2.286-3.429 8c.177 3.032 1.388 5.913 3.429 8.162z" fill="#2482fd"/><path d="m30.613 25.523-.15-.149-6.462 6.464v16.162l12.114-12.114c-.911-3.87-2.806-7.44-5.502-10.363z" fill="#1d78f2"/><path d="m28.959 27.103-.114-.114-4.847 4.848v16.163l10.133-10.133c-.636-4.015-2.434-7.758-5.172-10.764z" fill="#126ae5"/><path d="m24.001 31.838v16.162l8-8c-.176-4.245-1.868-8.29-4.768-11.394z" fill="#0b60da"/><path d="m29.715 40c0-5.424-3.894-9.567-4.098-9.778l-1.616 1.616v16.162l5.51-5.511c.137-.823.205-1.655.204-2.489z" fill="#0154ce"/><path d="m24.001 31.838-7.838-7.838h-12.734v3.429l20.572 20.571s3.428-2.286 3.428-8c-.177-3.032-1.388-5.913-3.428-8.162z" fill="#2684ff"/></g></svg>