<svg clip-rule="evenodd" fill-rule="evenodd" stroke-linejoin="round" stroke-miterlimit="2" viewBox="0 0 1024 1024" xmlns="http://www.w3.org/2000/svg"><g fill-rule="nonzero"><path d="M512.267 677.895 345.873 511.501l166.394-166.395V2L37.073 477.194c-18.83 18.83-18.83 49.783 0 68.613l475.194 475.195s72.774-48.53 72.774-169.834c-3.757-64.367-29.466-125.528-72.774-173.273z" fill="#2684ff"/><path d="m371.857 479.169 3.185 3.163 137.225-137.226V2L255.054 259.17A490.147 490.147 0 0 0 371.857 479.17z" fill="#1d78f2"/><path d="m406.97 445.627 2.42 2.42 102.92-102.92V2L297.152 217.115A441.654 441.654 0 0 0 406.97 445.627z" fill="#126ae5"/><path d="M512.267 345.106V2L342.434 171.834c3.715 90.118 39.635 175.968 101.178 241.885z" fill="#0b60da"/><path d="M390.943 171.834c0 115.147 82.666 203.1 86.976 207.579l34.348-34.307V2L395.273 118.994a319.162 319.162 0 0 0-4.33 52.84z" fill="#0154ce"/><path d="M512.267 345.106 678.62 511.501 512.267 677.895v343.107L987.42 545.807c18.83-18.83 18.83-49.782 0-68.613L512.267 2s-72.795 48.53-72.795 169.834c3.758 64.367 29.467 125.528 72.795 173.272z" fill="#2482fd"/><path d="m652.635 543.833-3.185-3.163-137.183 137.225v343.107l257.17-257.17a490.147 490.147 0 0 0-116.802-220z" fill="#1d78f2"/><path d="m617.522 577.375-2.42-2.42-102.898 102.919v343.128l215.115-215.116a442.107 442.107 0 0 0-109.797-228.511z" fill="#126ae5"/><path d="M512.267 677.895v343.107l169.834-169.834c-3.736-90.118-39.656-175.99-101.22-241.886z" fill="#0b60da"/><path d="M633.571 851.168c0-115.147-82.666-203.1-86.997-207.58l-34.307 34.307v343.107L629.24 904.007a319.35 319.35 0 0 0 4.331-52.839z" fill="#0154ce"/><path d="M512.267 677.895 345.873 511.501H75.54v72.795l436.727 436.706s72.774-48.53 72.774-169.834c-3.757-64.367-29.466-125.528-72.774-173.273z" fill="#2684ff"/></g></svg>