<?xml version="1.0" encoding="UTF-8" standalone="no"?>
<!-- Created with Inkscape (http://www.inkscape.org/) -->

<svg
   xmlns:dc="http://purl.org/dc/elements/1.1/"
   xmlns:cc="http://creativecommons.org/ns#"
   xmlns:rdf="http://www.w3.org/1999/02/22-rdf-syntax-ns#"
   xmlns:svg="http://www.w3.org/2000/svg"
   xmlns="http://www.w3.org/2000/svg"
   xmlns:sodipodi="http://sodipodi.sourceforge.net/DTD/sodipodi-0.dtd"
   xmlns:inkscape="http://www.inkscape.org/namespaces/inkscape"
   width="49.350773mm"
   height="49.423195mm"
   viewBox="0 0 174.86494 175.12155"
   id="svg2"
   version="1.1"
   inkscape:version="0.91 r13725"
   sodipodi:docname="Reddit.svg">
  <defs
     id="defs4" />
  <sodipodi:namedview
     id="base"
     pagecolor="#ffffff"
     bordercolor="#666666"
     borderopacity="1.0"
     inkscape:pageopacity="0.0"
     inkscape:pageshadow="2"
     inkscape:zoom="1.4"
     inkscape:cx="154.12861"
     inkscape:cy="34.39108"
     inkscape:document-units="px"
     inkscape:current-layer="layer3"
     showgrid="false"
     inkscape:snap-object-midpoints="false"
     inkscape:snap-others="true"
     inkscape:snap-to-guides="true"
     showguides="true"
     inkscape:snap-page="false"
     inkscape:snap-bbox="true"
     inkscape:bbox-paths="false"
     inkscape:bbox-nodes="false"
     inkscape:window-width="1366"
     inkscape:window-height="705"
     inkscape:window-x="-8"
     inkscape:window-y="-8"
     inkscape:window-maximized="1"
     fit-margin-top="0"
     fit-margin-left="0"
     fit-margin-right="0"
     fit-margin-bottom="0">
    <inkscape:grid
       type="xygrid"
       id="grid4193"
       originx="-283.46284"
       originy="-538.11441" />
  </sodipodi:namedview>
  <metadata
     id="metadata7">
    <rdf:RDF>
      <cc:Work
         rdf:about="">
        <dc:format>image/svg+xml</dc:format>
        <dc:type
           rdf:resource="http://purl.org/dc/dcmitype/StillImage" />
        <dc:title />
      </cc:Work>
    </rdf:RDF>
  </metadata>
  <g
     inkscape:groupmode="layer"
     id="layer2"
     inkscape:label="Background"
     transform="translate(-0.4684983,0.16081395)"
     style="display:inline">
    <path
       style="fill:#ff4500;fill-opacity:1"
       d="M 83.489491,174.87114 C 64.14825,173.21022 49.790043,168.07947 35.920475,157.87287 13.419472,141.3144 0.4684983,115.55599 0.4684983,87.361833 c 0,-43.416648 30.6211187,-79.355011 73.6601427,-86.4509601 17.56841,-2.8965454 37.024309,0.1437878 53.298659,8.3288681 39.56691,19.899925 57.65093,65.790406 42.67483,108.292719 -10.28193,29.18023 -37.27453,51.4209 -68.17131,56.17006 -6.078379,0.93431 -14.761949,1.48458 -18.441329,1.16862 z"
       id="path4245"
       inkscape:connector-curvature="0"
       sodipodi:nodetypes="ssssssss" />
  </g>
  <g
     inkscape:groupmode="layer"
     id="layer3"
     inkscape:label="Reddit icon"
     style="display:inline">
    <path
       style="display:inline;fill:#fdfdfd;fill-opacity:1"
       d="m 83.018087,175.06362 c -55.345391,0.0386 -27.672696,0.0193 0,0 z m 19.625563,-37.60573 c 6.01991,-1.41193 10.37862,-2.92559 14.65911,-5.09069 13.32229,-6.73853 21.66282,-17.92521 21.66282,-29.05511 0,-3.364699 0.0723,-3.521405 2.87667,-6.236025 2.22582,-2.154585 3.09678,-3.546755 3.84952,-6.153175 0.8966,-3.10459 0.89949,-3.62085 0.0369,-6.58806 -2.41969,-8.323441 -11.07464,-12.073287 -18.82055,-8.154211 l -2.99379,1.514718 -3.08522,-1.898347 c -5.93327,-3.650787 -16.48607,-7.226352 -23.290343,-7.891395 -1.86438,-0.182219 -4.21478,-0.455254 -5.22315,-0.606746 l -1.83337,-0.275437 0.78731,-3.941105 c 0.43302,-2.167604 1.33532,-6.445554 2.00512,-9.506554 0.66979,-3.061001 1.50903,-7.213124 1.86497,-9.22694 0.51446,-2.910754 0.86543,-3.661485 1.71175,-3.661485 0.58553,0 4.773803,0.790881 9.307273,1.757513 4.53348,0.966632 8.33595,1.757512 8.44993,1.757512 0.11399,0 0.36968,0.865871 0.56822,1.924158 0.5023,2.677478 1.80666,4.340073 4.4715,5.699573 6.39553,3.262753 13.59408,-1.084509 13.59408,-8.209568 0,-8.827602 -10.88457,-12.682874 -16.41616,-5.814538 -1.06906,1.327401 -1.60541,1.570702 -2.63627,1.195863 -0.71179,-0.25882 -5.60196,-1.352202 -10.86707,-2.42974 -6.973153,-1.427103 -9.833503,-1.794777 -10.532493,-1.353862 -1.06721,0.673178 -0.92941,0.175791 -3.86965,13.967733 -3.49721,16.404632 -3.70847,17.333718 -4.0099,17.635143 -0.15933,0.159336 -2.68831,0.537863 -5.61995,0.841163 -8.894154,0.920181 -18.668424,4.060551 -25.257927,8.115114 l -3.046869,1.874756 -2.992296,-1.49112 c -7.810944,-3.892363 -16.480416,-0.140935 -18.898738,8.177802 -0.86259,2.96721 -0.859697,3.48347 0.03691,6.58806 0.752734,2.60642 1.6237,3.99859 3.849514,6.153175 2.804387,2.71462 2.876673,2.871326 2.876673,6.236025 0,15.37461 15.8014,30.0469 36.907763,34.27049 6.9923,1.39923 7.46674,1.43492 16.40345,1.23412 5.8405,-0.13122 10.050515,-0.55579 13.474263,-1.35881 z M 78.004797,126.29256 c -4.84733,-1.09132 -10.329493,-3.52615 -11.93583,-5.30113 -1.280881,-1.41536 -0.73324,-3.55941 0.909149,-3.55941 0.639805,0 2.137891,0.66529 3.329086,1.47841 8.043475,5.49058 26.194355,5.47068 34.264628,-0.0375 2.59945,-1.77422 4.72669,-1.72524 4.98891,0.11485 0.12339,0.86594 -0.42913,1.72735 -1.75816,2.74105 -6.45291,4.92187 -19.399793,6.9048 -29.797783,4.5638 z m -14.78361,-21.76867 c -3.018029,-1.63752 -4.510444,-4.24976 -4.513163,-7.899545 -0.0029,-4.183455 1.940224,-6.890585 5.887667,-8.201715 2.809383,-0.93313 3.144852,-0.9331 5.589581,5.5e-4 6.579045,2.51256 7.925385,10.720415 2.477965,15.10663 -2.839275,2.28616 -6.374669,2.65838 -9.44205,0.99408 z m 40.887053,0.2701 c -2.79684,-1.45461 -4.360318,-3.22302 -5.021978,-5.680245 -1.224055,-4.545765 1.080328,-8.982725 5.552208,-10.690565 2.44473,-0.93365 2.7802,-0.93368 5.58959,-5.5e-4 3.94744,1.31113 5.89078,4.01826 5.88767,8.201715 -0.003,3.716205 -1.5249,6.307345 -4.63819,7.895625 -2.8004,1.42866 -4.99251,1.51017 -7.3693,0.27402 z"
       id="path4245-1"
       inkscape:connector-curvature="0"
       sodipodi:nodetypes="ccssssssscssscsssssssssssssscsscsssssssscsssscsccscsssssssscss" />
  </g>
</svg>
