<svg height="186.796" viewBox="0 0 174.865 175.122" width="186.523" xmlns="http://www.w3.org/2000/svg"><path d="m83.489491 174.87114c-19.341241-1.66092-33.699448-6.79167-47.569016-16.99827-22.501003-16.55847-35.4519767-42.31688-35.4519767-70.511037 0-43.416648 30.6211187-79.355011 73.6601427-86.4509601 17.56841-2.8965454 37.024309.1437878 53.298659 8.3288681 39.56691 19.899925 57.65093 65.790406 42.67483 108.292719-10.28193 29.18023-37.27453 51.4209-68.17131 56.17006-6.078379.93431-14.761949 1.48458-18.441329 1.16862z" fill="#ff4500" transform="translate(-.468498 .160814)"/><path d="m83.018087 175.06362c-55.345391.0386-27.672696.0193 0 0zm19.625563-37.60573c6.01991-1.41193 10.37862-2.92559 14.65911-5.09069 13.32229-6.73853 21.66282-17.92521 21.66282-29.05511 0-3.364699.0723-3.521405 2.87667-6.236025 2.22582-2.154585 3.09678-3.546755 3.84952-6.153175.8966-3.10459.89949-3.62085.0369-6.58806-2.41969-8.323441-11.07464-12.073287-18.82055-8.154211l-2.99379 1.514718-3.08522-1.898347c-5.93327-3.650787-16.48607-7.226352-23.290343-7.891395-1.86438-.182219-4.21478-.455254-5.22315-.606746l-1.83337-.275437.78731-3.941105c.43302-2.167604 1.33532-6.445554 2.00512-9.506554.66979-3.061001 1.50903-7.213124 1.86497-9.22694.51446-2.910754.86543-3.661485 1.71175-3.661485.58553 0 4.773803.790881 9.307273 1.757513 4.53348.966632 8.33595 1.757512 8.44993 1.757512.11399 0 .36968.865871.56822 1.924158.5023 2.677478 1.80666 4.340073 4.4715 5.699573 6.39553 3.262753 13.59408-1.084509 13.59408-8.209568 0-8.827602-10.88457-12.682874-16.41616-5.814538-1.06906 1.327401-1.60541 1.570702-2.63627 1.195863-.71179-.25882-5.60196-1.352202-10.86707-2.42974-6.973153-1.427103-9.833503-1.794777-10.532493-1.353862-1.06721.673178-.92941.175791-3.86965 13.967733-3.49721 16.404632-3.70847 17.333718-4.0099 17.635143-.15933.159336-2.68831.537863-5.61995.841163-8.894154.920181-18.668424 4.060551-25.257927 8.115114l-3.046869 1.874756-2.992296-1.49112c-7.810944-3.892363-16.480416-.140935-18.898738 8.177802-.86259 2.96721-.859697 3.48347.03691 6.58806.752734 2.60642 1.6237 3.99859 3.849514 6.153175 2.804387 2.71462 2.876673 2.871326 2.876673 6.236025 0 15.37461 15.8014 30.0469 36.907763 34.27049 6.9923 1.39923 7.46674 1.43492 16.40345 1.23412 5.8405-.13122 10.050515-.55579 13.474263-1.35881zm-24.638853-11.16533c-4.84733-1.09132-10.329493-3.52615-11.93583-5.30113-1.280881-1.41536-.73324-3.55941.909149-3.55941.639805 0 2.137891.66529 3.329086 1.47841 8.043475 5.49058 26.194355 5.47068 34.264628-.0375 2.59945-1.77422 4.72669-1.72524 4.98891.11485.12339.86594-.42913 1.72735-1.75816 2.74105-6.45291 4.92187-19.399793 6.9048-29.797783 4.5638zm-14.78361-21.76867c-3.018029-1.63752-4.510444-4.24976-4.513163-7.899545-.0029-4.183455 1.940224-6.890585 5.887667-8.201715 2.809383-.93313 3.144852-.9331 5.589581.00055 6.579045 2.51256 7.925385 10.720415 2.477965 15.10663-2.839275 2.28616-6.374669 2.65838-9.44205.99408zm40.887053.2701c-2.79684-1.45461-4.360318-3.22302-5.021978-5.680245-1.224055-4.545765 1.080328-8.982725 5.552208-10.690565 2.44473-.93365 2.7802-.93368 5.58959-.00055 3.94744 1.31113 5.89078 4.01826 5.88767 8.201715-.003 3.716205-1.5249 6.307345-4.63819 7.895625-2.8004 1.42866-4.99251 1.51017-7.3693.27402z" fill="#fdfdfd"/></svg>