<svg height="528" viewBox="0 0 48 48" width="528" xmlns="http://www.w3.org/2000/svg"><path d="m9 42h23l10-10v-23c0-1.65625-1.34375-3-3-3h-30c-1.65625 0-3 1.34375-3 3v30c0 1.65625 1.34375 3 3 3z" fill="#ffc107"/><path d="m32 42v-10h10z" fill="#ffecb3"/><path d="m32 20c0-4.417969-3.582031-8-8-8s-8 3.582031-8 8c0 3.355469 2.070313 6.226563 5 7.414063v7.585937h6v-7.585937c2.929688-1.1875 5-4.058594 5-7.414063z" fill="none" stroke="#fff" stroke-miterlimit="10" stroke-width="2"/><path d="m22 35h4v3h-4z" fill="#fff"/><path d="m21 31h6" fill="none" stroke="#fff" stroke-miterlimit="10" stroke-width="2"/></svg>