<?xml version="1.0" encoding="UTF-8" standalone="no"?>
<svg
   viewBox="0 0 36.054688 36"
   width="142"
   height="141.78462"
   fill="none"
   class="logo with-wordmark"
   aria-labelledby="logo-14-title"
   version="1.1"
   id="svg53"
   sodipodi:docname="icon.svg"
   inkscape:version="1.2.2 (b0a8486541, 2022-12-01)"
   xmlns:inkscape="http://www.inkscape.org/namespaces/inkscape"
   xmlns:sodipodi="http://sodipodi.sourceforge.net/DTD/sodipodi-0.dtd"
   xmlns="http://www.w3.org/2000/svg"
   xmlns:svg="http://www.w3.org/2000/svg">
  <sodipodi:namedview
     id="namedview55"
     pagecolor="#505050"
     bordercolor="#eeeeee"
     borderopacity="1"
     inkscape:showpageshadow="0"
     inkscape:pageopacity="0"
     inkscape:pagecheckerboard="0"
     inkscape:deskcolor="#505050"
     showgrid="false"
     inkscape:zoom="4.3737652"
     inkscape:cx="57.501944"
     inkscape:cy="54.415358"
     inkscape:window-width="1856"
     inkscape:window-height="1043"
     inkscape:window-x="64"
     inkscape:window-y="0"
     inkscape:window-maximized="1"
     inkscape:current-layer="svg53" />
  <defs
     id="defs50">
    <linearGradient
       id="logo-14-a"
       x1="23.450001"
       x2="18.57"
       y1="18.09"
       y2="-2.77"
       gradientUnits="userSpaceOnUse">
      <stop
         stop-color="#E2DBFF"
         id="stop16" />
      <stop
         offset="1"
         stop-color="#6D4AFF"
         id="stop18" />
    </linearGradient>
    <linearGradient
       id="logo-14-b"
       x1="35.25"
       x2="18.57"
       y1="38.169998"
       y2="2.55"
       gradientUnits="userSpaceOnUse">
      <stop
         offset=".27"
         stop-color="#E2DBFF"
         id="stop21" />
      <stop
         offset="1"
         stop-color="#6D4AFF"
         id="stop23" />
    </linearGradient>
    <linearGradient
       id="paint1_linear_213_165"
       x1="394.34399"
       y1="328.811"
       x2="176.76601"
       y2="28.745399"
       gradientUnits="userSpaceOnUse"
       gradientTransform="matrix(0.0977312,0,0,0.0977312,-8.9763659,-9.0135482)">
      <stop
         stop-color="#BFE8FF"
         id="stop886" />
      <stop
         offset="0.3075"
         stop-color="#BFACFF"
         id="stop888" />
      <stop
         offset="1"
         stop-color="#7348FF"
         id="stop890" />
    </linearGradient>
    <radialGradient
       id="paint0_radial_213_165"
       cx="0"
       cy="0"
       r="1"
       gradientUnits="userSpaceOnUse"
       gradientTransform="matrix(-16.956227,45.542823,-60.688746,-22.595265,24.156758,-10.482047)">
      <stop
         offset="0.5561"
         stop-color="#07B9FF"
         stop-opacity="0"
         id="stop881" />
      <stop
         offset="0.9944"
         stop-color="#07B9FF"
         id="stop883" />
    </radialGradient>
  </defs>
  <title
     id="logo-14-title">Proton Mail</title>
  <path
     fill-rule="evenodd"
     clip-rule="evenodd"
     d="m 4.5105391,3.8869698 c -1.944851,0 -3.51832301,1.573472 -3.51832301,3.518323 V 28.515232 c 0,1.944851 1.57347201,3.518323 3.51832301,3.518323 H 22.444214 v -8.434202 c 0,-2.189179 1.768935,-3.958114 3.958114,-3.958114 h 8.600346 V 7.4052928 c 0,-1.944851 -1.573473,-3.518323 -3.518324,-3.518323 z"
     fill="#6d49ff"
     id="path869"
     style="stroke-width:0.0977311" />
  <path
     fill-rule="evenodd"
     clip-rule="evenodd"
     d="m 0.99221609,7.4052928 c 0,-1.944851 1.57347201,-3.518323 3.51832301,-3.518323 H 31.48435 c 1.944851,0 3.518324,1.573472 3.518324,3.518323 V 19.641239 h -8.600346 c -2.189179,0 -3.958114,1.768935 -3.958114,3.958114 v 8.434202 H 4.5105391 c -1.944851,0 -3.51832301,-1.573472 -3.51832301,-3.518323 z"
     fill="url(#paint0_radial_213_165)"
     id="path871"
     style="fill:url(#paint0_radial_213_165);stroke-width:0.0977311" />
  <path
     fill-rule="evenodd"
     clip-rule="evenodd"
     d="m 0.99221609,7.4052928 c 0,-1.944851 1.57347201,-3.518323 3.51832301,-3.518323 H 31.48435 c 1.944851,0 3.518324,1.573472 3.518324,3.518323 V 19.641239 h -7.232109 v -8.815354 c 0,-1.5148332 -1.22164,-2.7364732 -2.736474,-2.7364732 H 0.99221609 Z"
     fill="url(#paint1_linear_213_165)"
     id="path873"
     style="fill:url(#paint1_linear_213_165);stroke-width:0.0977311" />
  <path
     fill-rule="evenodd"
     clip-rule="evenodd"
     d="m 23.472151,20.935884 c -0.638967,0.702688 -1.027937,1.6369 -1.027937,2.663469 v 8.424429 h -6.010468 v -1.632111 c 0,-0.840488 0.293193,-1.641884 0.840488,-2.28691 l 6.196158,-7.271201 z"
     fill="#b8d8ff"
     id="path875"
     style="stroke-width:0.0977311" />
  <path
     d="m 25.913672,27.557466 h 1.241186 c 0.04886,0.215009 0.175916,0.410471 0.351832,0.537522 0.175917,0.136824 0.390925,0.195462 0.615707,0.185689 0.557068,0 0.928446,-0.31274 0.928446,-0.762303 0,-0.449564 -0.381151,-0.703665 -1.143454,-0.703665 h -0.488656 v -1.016404 h 0.430017 c 0.732984,0 1.03595,-0.273648 1.03595,-0.674346 0,-0.400698 -0.322512,-0.684118 -0.772076,-0.684118 -0.205235,-0.0098 -0.400698,0.05864 -0.557068,0.185689 -0.15637,0.136824 -0.244328,0.322513 -0.263874,0.517975 h -1.182548 c 0.03909,-0.713437 0.605934,-1.729842 2.00349,-1.729842 1.123909,0 1.905758,0.645026 1.905758,1.544153 0,0.293194 -0.08796,0.576614 -0.263874,0.811169 -0.166143,0.234555 -0.410471,0.410471 -0.684118,0.498429 v 0.01955 c 0.322513,0.05864 0.615706,0.234555 0.820942,0.488656 0.205235,0.254101 0.31274,0.576614 0.302966,0.899127 0,0.977312 -0.899127,1.622338 -2.052355,1.622338 -1.260732,0.0098 -2.140313,-0.693892 -2.228271,-1.739615 z"
     fill="#7348ff"
     id="path877"
     style="stroke-width:0.0977311" />
  <path
     d="m 32.334612,23.521168 h 0.899127 v 5.697729 h -1.163002 v -4.368585 l -1.123908,0.762303 v -1.153228 z"
     fill="#7348ff"
     id="path879"
     style="stroke-width:0.0977311" />
</svg>
