<?xml version="1.0" encoding="utf-8"?>
<!-- Generator: Adobe Illustrator 28.3.0, SVG Export Plug-In . SVG Version: 6.00 Build 0)  -->
<svg version="1.1" id="Layer_1" xmlns="http://www.w3.org/2000/svg" xmlns:xlink="http://www.w3.org/1999/xlink" x="0px" y="0px"
	 viewBox="0 0 341.93 341.93" style="enable-background:new 0 0 341.93 341.93;" xml:space="preserve">
<path color-rendering="auto" image-rendering="auto" shape-rendering="auto" text-rendering="auto" d="M109.05,0L73.09,50.64v28.63
	L41.81,94.15l-0.28-0.13v186.76l121.99,57.63l7.45,3.52l7.46-3.52l121.99-57.63V94.02l-0.23,0.11l-31.3-14.89v-28.6l-1.1-1.54
	L232.92,0l-35.96,50.64v0.05L170.8,13.84l-25.96,36.57l-0.93-1.31L109.05,0z M115.41,29.42L129.32,49H88.78l13.74-19.35
	L115.41,29.42z M239.28,29.42L253.19,49h-40.54l13.74-19.35L239.28,29.42z M177.16,43.26l13.91,19.58h-40.53l13.74-19.36
	L177.16,43.26z M84.94,58.87h19.22v64.74l-19.22-9.08V58.87z M114.03,58.87h19.13v78.43l-19.13-9.04V58.87z M208.81,58.87h19.22
	v69.33l-19.22,9.08V58.87z M237.9,58.87h19.13v55.63l-19.13,9.04V58.87z M146.69,72.72h19.23v80.07l-19.23-9.08V72.72z
	 M175.79,72.72h19.13v71.14l-19.13,9.04V72.72z M268.88,93.99l16.93,6.92l-16.93,8V93.99z M73.09,94.02v14.92l-16.92-8L73.09,94.02z
	 M56.43,117.55l107.08,50.59v153.78L56.43,271.33L56.43,117.55z M285.5,117.55v153.78l-107.08,50.58V168.13L285.5,117.55z"/>
<script  id="bw-fido2-page-script" xmlns=""></script>
</svg>
