<?xml version="1.0" encoding="utf-8"?>
<!-- Generator: Adobe Illustrator 28.3.0, SVG Export Plug-In . SVG Version: 6.00 Build 0)  -->
<svg version="1.1"
	 id="svg4614" xmlns:svg="http://www.w3.org/2000/svg" xmlns:dc="http://purl.org/dc/elements/1.1/" xmlns:cc="http://creativecommons.org/ns#" xmlns:rdf="http://www.w3.org/1999/02/22-rdf-syntax-ns#"
	 xmlns="http://www.w3.org/2000/svg" xmlns:xlink="http://www.w3.org/1999/xlink" x="0px" y="0px" viewBox="0 0 595.5 595.5"
	 style="enable-background:new 0 0 595.5 595.5;" xml:space="preserve">
<style type="text/css">
	.st0{fill:#FF8C00;}
	.st1{fill:#FFFFFF;}
</style>
<path class="st0" d="M517.3,595.5H78.2C35,595.5,0,560.5,0,517.3V78.2C0,35,35,0,78.2,0h439.1c43.2,0,78.2,35,78.2,78.2v439.1
	C595.5,560.5,560.5,595.5,517.3,595.5z"/>
<path class="st1" d="M409.5,45.2l-35.2,152.7c-16.4-9.4-30.9-13.9-45-18.6c-14.1-4.7-30.2-4.9-51.4-4.9c-28.2,0-53.9,5-79.7,19.1
	c-25.8,14.1-47.3,30.3-66.1,53.8c-18.8,21.1-32.8,49.1-44.5,77.3c-11.8,30.6-16.7,63.5-16.7,96.4c0,42.3,9.7,72.9,30.8,96.4
	c21.1,21.1,49.4,32.8,82.2,32.8c14.1,0,25.8-0.1,35.3-2.5c9.4-2.3,18.5-4.6,27.9-9.3c9.4-4.7,18.9-9.1,26-16.1
	c9.4-4.7,19.1-12,30.8-19.1l-9.8,37.7h115.5l115-495.7H409.5z M317.6,442.1c-9.4,7-21.1,12-32.8,16.7c-11.7,4.7-23.4,6.8-32.8,6.8
	c-21.1,0-35.1-4.3-44.5-13.7c-11.8-9.4-16.6-25.8-16.6-47c0-18.8,2.2-38,9.3-56.8c4.7-18.8,12.2-35.2,21.5-46.9
	c9.4-14.1,20.8-25.8,37.2-32.8c14.1-9.4,30.6-14.2,49.4-14.2c7,0,16.5,2.5,25.9,4.9c9.4,2.4,18.8,4.5,23.5,6.8L317.6,442.1z"/>
</svg>
