<svg height="2500" viewBox="582.815 50.107 1334.369 2399.786" width="2500" xmlns="http://www.w3.org/2000/svg"><path clip-rule="evenodd" d="m1255.052 50.107c8.354 14.087 17.649 27.707 24.894 42.343 27.24 55.036 42.553 113.672 48.776 174.521 3.633 35.522 4.773 71.299 7.096 106.955.046.682.852 1.313 2.41 3.577 17.959-18.772 26.168-42.135 33.4-65.375 7.223-23.204 11.651-47.279 17.72-72.703 2.938 2.942 6.461 5.434 8.621 8.798 25.484 39.686 40.496 83.495 51.504 129.065 11.288 46.739 15.241 94.399 19.954 142.004.117 1.189.674 2.332 1.774 5.978 3.683-3.927 7.071-6.474 9.076-9.845 16.04-26.975 23.375-56.663 26.646-87.559.35-3.289.662-6.583 1.16-9.85.103-.677.952-1.238 2.358-2.947 2.154 1.919 4.583 3.267 5.844 5.332 31.505 51.685 56.431 106.297 73.887 164.355 14.208 47.25 23.221 95.38 24.737 144.651 2.303 74.959-19.058 143.513-58.297 206.941-37.52 60.65-86.264 111.856-135.883 162.376-39.637 40.356-80.086 79.996-118.05 121.879-18.242 20.127-31.594 44.686-47.111 67.271-1.608 2.344-2.874 4.928-5.301 9.132-4.3-3.267-8.382-5.65-11.579-8.907-65.314-66.544-128.946-134.585-188.119-206.758-37.515-45.753-72.668-93.064-103.339-143.677-22.09-36.455-39.708-75.122-51.691-115.853-14.548-49.445-12.775-99.286 2-148.865 19.326-64.853 54.873-120.9 94.527-174.477 45.27-61.171 92.705-120.736 138.019-181.875 39.212-52.908 73.848-108.813 95.599-171.433 8.683-24.998 13.745-51.257 20.42-76.948 1.443-5.55 2.742-11.135 4.107-16.704 1.613-.466 3.227-.933 4.841-1.402zm-672.237 1405.628v-60.164h1334.369v59.944c-5.696 1.104-11.933 2.705-18.271 3.472-73.12 8.845-142.395 29.775-205.763 67.729-49.489 29.643-89.404 69.276-115.328 121.35-8.082 16.232-13.371 34.013-18.522 51.501-2.908 9.869-7.94 13.38-17.754 13.37-193.721-.181-387.44-.181-581.158-.298-4.859-.005-9.713-.898-15.075-1.426-4.446-13.718-8.224-26.805-12.902-39.556-17.979-49.021-49.264-88.205-89.905-120.344-47.108-37.251-100.985-60.872-158.498-75.986-28.842-7.579-58.692-11.296-88.079-16.795-4.013-.751-7.993-1.698-13.114-2.797zm631.196 564.076c0-24.491.435-46.892-.088-69.268-1.158-49.548-2.952-99.08-4.153-148.623-.449-18.558 11.269-32.803 29.127-36.816 16.54-3.717 33.794 4.751 40.821 21.087 2.192 5.093 2.515 11.349 2.375 17.038-1.564 63.7-3.411 127.395-5.11 191.09-.217 8.146-.029 16.307-.029 25.404h59.518c.938-11.125 1.914-20.95 2.573-30.8 3.978-59.398 7.841-118.806 11.872-178.198.422-6.217 1.468-12.419 2.615-18.553 3.309-17.697 22.283-31.298 39.736-28.671 18.433 2.774 33.928 20.989 31.64 38.8-6.636 51.613-13.842 103.153-20.837 154.718-2.296 16.906-4.735 33.799-6.884 50.725-.498 3.932-.073 7.979-.073 12.878h56.45c1.412-4.264 3.478-8.683 4.311-13.322 7.044-39.297 13.935-78.624 20.732-117.965 5.379-31.127 10.353-62.328 15.908-93.431 3.973-22.244 25.193-36.86 45.736-32.119 20.744 4.786 34.545 27.714 29.718 48.815-14.65 64.062-29.13 128.162-43.78 192.224-1.282 5.606-3.33 11.031-5.262 17.321l-28.688 2.021c-5.794 32.583-11.513 64.74-17.575 98.837h-51.807c-11.815 110.02-23.426 218.11-35.107 326.89h-280.97c-11.364-107.988-22.733-216.055-34.375-326.709h-49.074c-6.71-34.829-12.887-66.889-19.075-99.018-10.746-.879-19.312-1.577-29.198-2.383-3.931-15.715-7.945-30.907-11.525-46.197-12.318-52.654-24.449-105.352-36.733-158.01-4.097-17.562-4.469-34.16 11.872-46.305 23.67-17.591 55.132-3.824 60.326 26.521 9.325 54.476 18.276 109.019 27.599 163.494 3.348 19.563 7.318 39.019 10.971 58.348h58.875c-3.682-28.017-7.018-54.319-10.621-80.582-5.88-42.872-12.204-85.681-17.815-128.582-3.038-23.221 5.752-38.296 24.676-44.781 22.049-7.555 46.136 8.214 47.797 31.669 4.295 60.644 8.292 121.306 12.572 181.943.928 13.151 2.54 26.254 3.948 40.509z" fill="#e60000" fill-rule="evenodd"/></svg>