<svg height="80" viewBox="0 0 80 80" width="80" xmlns="http://www.w3.org/2000/svg" xmlns:xlink="http://www.w3.org/1999/xlink"><mask id="a" fill="#fff"><path d="m39.9984444 80h-39.9984444v-80h39.9984444 39.9984445v80z" fill="#fff" fill-rule="evenodd"/></mask><g fill="none" fill-rule="evenodd"><path d="m74.0798519 0h-68.17629634c-3.2562963 0-5.90370371 2.5837037-5.90370371 5.76888889v68.45925921c0 3.1851852 2.64740741 5.7718519 5.90370371 5.7718519h68.17629634c3.2637037 0 5.917037-2.5866667 5.917037-5.7718519v-68.45925921c0-3.18518519-2.6533333-5.76888889-5.917037-5.76888889" fill="#0065a1" mask="url(#a)"/><g fill="#fefefe"><path d="m17.7908148 11.0127407c3.7940741 0 6.8770371 3.082963 6.8770371 6.882963 0 3.797037-3.082963 6.88-6.8770371 6.88-3.8014815 0-6.877037-3.082963-6.877037-6.88 0-3.8 3.0755555-6.882963 6.877037-6.882963zm-5.9348148 57.1555556h11.8696296v-38.1777778h-11.8696296z"/><path d="m31.1675556 29.9906667h11.3807407v5.2207407h.162963c1.5837037-3.002963 5.4548148-6.1659259 11.2266666-6.1659259 12.0148148 0 14.2325926 7.9037037 14.2325926 18.1837037v20.9392592h-11.8592592v-18.5659259c0-4.4281481-.0785186-10.1229629-6.165926-10.1229629-6.1748148 0-7.117037 4.8266666-7.117037 9.8044444v18.8844444h-11.8607407z"/></g></g></svg>