<svg height="80" width="80" xmlns="http://www.w3.org/2000/svg"><mask id="a" fill="#fff"><path d="M39.998 80H0V0h79.997v80z" fill-rule="evenodd"/></mask><g fill="none" fill-rule="evenodd"><path d="M74.08 0H5.904C2.647 0 0 2.584 0 5.769v68.46C0 77.412 2.647 80 5.904 80H74.08c3.264 0 5.917-2.587 5.917-5.772V5.768C79.997 2.585 77.344 0 74.08 0" fill="#0065a1" mask="url(#a)"/><g fill="#fefefe"><path d="M17.79 11.013c3.795 0 6.878 3.083 6.878 6.883a6.883 6.883 0 0 1-6.877 6.88 6.878 6.878 0 0 1-6.877-6.88c0-3.8 3.075-6.883 6.877-6.883zm-5.934 57.155h11.87V29.991h-11.87zM31.168 29.99h11.38v5.221h.163c1.584-3.003 5.455-6.166 11.227-6.166 12.015 0 14.233 7.904 14.233 18.184v20.94H56.31V49.602c0-4.429-.078-10.123-6.166-10.123-6.174 0-7.117 4.826-7.117 9.804v18.884h-11.86z"/></g></g></svg>