<?xml version="1.0" encoding="utf-8"?>
<!-- Generator: Adobe Illustrator 28.3.0, SVG Export Plug-In . SVG Version: 6.00 Build 0)  -->
<svg version="1.1" id="Layer_1" xmlns="http://www.w3.org/2000/svg" xmlns:xlink="http://www.w3.org/1999/xlink" x="0px" y="0px"
	 viewBox="0 0 300 300" style="enable-background:new 0 0 300 300;" xml:space="preserve">
<style type="text/css">
	.st0{fill:#FFD21E;}
	.st1{fill:#32343D;}
	.st2{fill:#FF323D;}
</style>
<path class="st0" d="M0,146.73C0,73.86,59,14.86,131.87,14.86h51.37C247.72,14.85,300,67.12,300,131.6s-52.26,116.75-116.74,116.76
	c-0.01,0-0.01,0-0.02,0H44.75l-36.12,35c-2.07,1.93-5.31,1.82-7.24-0.24C0.49,282.16,0,280.9,0,279.6C0,279.6,0,146.73,0,146.73z"/>
<path class="st1" d="M195.37,108.36c4.62,1.75,6.5,11.25,11.25,8.75c8.87-4.75,12.25-15.87,7.5-24.75
	c-4.68-8.93-15.71-12.37-24.64-7.68c-0.04,0.02-0.07,0.04-0.11,0.06c-8.94,4.8-12.3,15.93-7.5,24.87
	C183.99,113.86,191.12,106.98,195.37,108.36z M109,108.36c-4.62,1.75-6.5,11.25-11.25,8.75c-8.86-4.8-12.21-15.84-7.5-24.75
	c4.68-8.93,15.71-12.37,24.64-7.68c0.04,0.02,0.07,0.04,0.11,0.06c8.87,4.75,12.25,15.87,7.5,24.87
	C120.25,113.86,113.25,106.98,109,108.36z M153,196.73c36.12,0,47.75-32.25,47.75-48.75c0-16.62-21.37,8.75-47.75,8.75
	c-26.25,0-47.5-25.37-47.5-8.75C105.5,164.48,117,196.73,153,196.73z"/>
<path class="st2" d="M182,187.35c-7.12,5.5-16.62,9.37-29,9.37c-11.5,0-20.62-3.37-27.5-8.5c3.75-7.87,10.87-13.87,19.37-16.5
	c1.5-0.37,3,2.12,4.5,4.75c1.5,2.5,3,5,4.62,5s3.25-2.5,4.87-5s3.25-5,4.75-4.5C171.51,174.53,178.09,180.04,182,187.35z"/>
</svg>
