<svg class="plane_planeSvg__r65kR" viewBox="0 0 220 220" xmlns="http://www.w3.org/2000/svg"><path class="plane_planePath__k9r9v" d="M52.3664 83.2038C47.2619 85.2122 45.5158 90.4704 49.965 94.9196L71.4672 115.662C71.7606 115.92 71.9443 116.259 72.0131 116.649L79.7414 160.479C80.6254 165.492 87.0406 167.085 90.1737 163.066L102.929 146.671C103.36 146.13 104.152 146.053 104.668 146.519L123.175 162.062C128.433 167.321 134.5 167.321 137.332 160.479L182.633 52.4498C185.866 44.6084 179.397 34.6529 166.038 39.9691" fill="black"></path><path class="plane_planePath__k9r9v" d="M81.5895 110.253C106.611 95.4815 126.769 78.577 149.575 64.5889C151.611 63.3404 153.39 65.8072 151.624 67.4153C146.468 72.1129 141.302 76.8335 140.064 78.0163C137.411 80.5501 106.985 105.917 106.985 105.917L91.2212 118.892C94.457 123.745 122.734 150.677 129.283 153.182C146.001 117.042 161.179 83.5704 173.357 51.3186C174.292 48.8429 171.833 46.458 169.379 47.4494L94.7599 77.5976L59.698 91.2497L81.5895 110.253Z" fill="white"></path></svg>
