<?xml version="1.0" standalone="no"?>
<!DOCTYPE svg PUBLIC "-//W3C//DTD SVG 20010904//EN"
 "http://www.w3.org/TR/2001/REC-SVG-20010904/DTD/svg10.dtd">
<svg version="1.0" xmlns="http://www.w3.org/2000/svg"
 width="210.000000pt" height="210.000000pt" viewBox="0 0 210.000000 210.000000"
 preserveAspectRatio="xMidYMid meet">

<g transform="translate(0.000000,210.000000) scale(0.100000,-0.100000)"
fill="#2c275f" stroke="none">
<path d="M380 2084 c-94 -25 -161 -64 -230 -133 -77 -78 -116 -146 -135 -238
-19 -87 -22 -1219 -4 -1305 38 -185 198 -349 377 -387 36 -7 249 -11 665 -11
498 0 622 3 666 15 171 45 312 185 355 351 23 90 24 1259 1 1347 -22 87 -61
155 -127 223 -68 71 -147 117 -239 139 -93 22 -1246 21 -1329 -1z m604 -500
c14 -13 16 -67 16 -433 0 -466 -2 -485 -65 -558 -58 -68 -107 -86 -256 -91
-108 -4 -133 -2 -154 12 l-25 16 0 432 c0 309 3 442 12 472 15 51 102 141 149
154 19 6 96 11 171 11 112 1 139 -2 152 -15z m453 1 c97 -41 154 -125 155
-228 1 -117 -68 -211 -179 -243 -104 -31 -211 10 -278 104 -25 37 -30 54 -33
118 -4 65 -1 81 22 128 27 55 70 96 128 121 44 19 140 19 185 0z"/>
</g>
</svg>
