<?xml version="1.0" encoding="UTF-8" standalone="no"?>
<!DOCTYPE svg PUBLIC "-//W3C//DTD SVG 1.1//EN" "http://www.w3.org/Graphics/SVG/1.1/DTD/svg11.dtd">
<svg width="100%" height="100%" viewBox="0 0 1024 1024" version="1.1" xmlns="http://www.w3.org/2000/svg" xmlns:xlink="http://www.w3.org/1999/xlink" xml:space="preserve" xmlns:serif="http://www.serif.com/" style="fill-rule:evenodd;clip-rule:evenodd;stroke-linejoin:round;stroke-miterlimit:2;">
    <g transform="matrix(5.46641,0,0,5.46641,39,4)">
        <path d="M169.446,111.27C166.901,124.363 146.652,138.692 123.396,141.469C111.269,142.916 99.329,144.246 86.597,143.662C65.775,142.708 49.345,138.692 49.345,138.692C49.345,140.719 49.47,142.649 49.72,144.454C52.427,165.003 70.096,166.234 86.833,166.808C103.726,167.386 118.768,162.643 118.768,162.643L119.462,177.915C119.462,177.915 107.646,184.26 86.597,185.427C74.99,186.065 60.578,185.135 43.792,180.692C7.386,171.056 1.125,132.249 0.167,92.873C-0.125,81.182 0.055,70.158 0.055,60.938C0.055,20.674 26.436,8.872 26.436,8.872C39.738,2.763 62.563,0.194 86.292,0L86.875,0C110.604,0.194 133.444,2.763 146.745,8.872C146.745,8.872 173.125,20.674 173.125,60.938C173.125,60.938 173.456,90.645 169.446,111.27" style="fill:rgb(48,136,212);fill-rule:nonzero;"/>
    </g>
    <g transform="matrix(5.46641,0,0,5.46641,39,-1.46641)">
        <path d="M142.008,64.062L142.008,112.815L122.693,112.815L122.693,65.495C122.693,55.52 118.496,50.457 110.101,50.457C100.819,50.457 96.167,56.463 96.167,68.339L96.167,94.24L76.966,94.24L76.966,68.339C76.966,56.463 72.313,50.457 63.031,50.457C54.636,50.457 50.439,55.52 50.439,65.495L50.439,112.815L31.124,112.815L31.124,64.062C31.124,54.098 33.661,46.18 38.757,40.322C44.012,34.464 50.894,31.461 59.437,31.461C69.321,31.461 76.806,35.26 81.755,42.859L86.566,50.924L91.378,42.859C96.326,35.26 103.811,31.461 113.696,31.461C122.238,31.461 129.12,34.464 134.376,40.322C139.471,46.18 142.008,54.098 142.008,64.062" style="fill:white;fill-rule:nonzero;"/>
    </g>
</svg>
