<?xml version="1.0" standalone="no"?>
<!DOCTYPE svg PUBLIC "-//W3C//DTD SVG 20010904//EN"
 "http://www.w3.org/TR/2001/REC-SVG-20010904/DTD/svg10.dtd">
<svg version="1.0" xmlns="http://www.w3.org/2000/svg"
 width="192.000000pt" height="192.000000pt" viewBox="0 0 192.000000 192.000000"
 preserveAspectRatio="xMidYMid meet">
<metadata>
Created by potrace 1.14, written by Peter Selinger 2001-2017
</metadata>
<g transform="translate(0.000000,192.000000) scale(0.100000,-0.100000)"
fill="#000000" stroke="none">
<path d="M0 960 l0 -960 960 0 960 0 0 960 0 960 -960 0 -960 0 0 -960z m1123
378 c-15 -28 -19 -69 -23 -273 -5 -257 -7 -264 -61 -309 -25 -21 -41 -26 -84
-26 -46 0 -59 5 -90 31 -51 45 -57 77 -53 311 3 189 5 209 23 234 39 51 79 64
198 64 l108 0 -18 -32z m-574 -86 c14 -10 35 -34 46 -53 18 -31 20 -57 25
-269 3 -161 9 -242 18 -257 6 -12 12 -24 12 -27 0 -3 -50 -6 -110 -6 -125 0
-154 10 -192 62 -22 31 -23 43 -26 227 -4 223 -1 249 35 292 51 60 135 74 192
31z m970 1 c64 -48 66 -56 69 -278 3 -186 1 -209 -17 -250 -31 -71 -64 -85
-198 -85 -62 0 -113 2 -113 4 0 2 7 20 15 39 12 28 15 83 15 244 1 216 8 261
47 305 44 49 130 59 182 21z"/>
</g>
</svg>
