<?xml version="1.0" encoding="utf-8"?>
<!-- Generator: Adobe Illustrator 22.0.0, SVG Export Plug-In . SVG Version: 6.00 Build 0)  -->
<svg version="1.1" id="svg" xmlns="http://www.w3.org/2000/svg" xmlns:xlink="http://www.w3.org/1999/xlink" x="0px" y="0px"
	 viewBox="0 0 512 512" style="enable-background:new 0 0 512 512;" xml:space="preserve">
<style type="text/css">
	.st0{fill:#1A8FCE;}
	.st1{fill:#EE6972;}
	.st2{fill:#1A8FCF;}
	.st3{fill:#E76974;}
	.st4{fill:#E76876;}
	.st5{fill:#B3728D;}
</style>
<path class="st0" d="M413.8,104.5c7.8,7.7,15,15.4,21.2,24.5c0.5,0.7,0.9,1.4,1.4,2.1c22.3,32.9,34.1,70.1,34,109.8
	c0,1.2,0,1.2,0,2.4c-0.2,52.4-22,100.3-58.8,137.1c-10.5,10.3-22.3,19.1-34.7,26.9c-0.6,0.4-1.2,0.8-1.9,1.2
	c-2.6,1.6-4.4,2.5-7.5,2.4c-3.2-1.1-3.8-2.3-5.4-5.3c-0.5-0.9-1-1.8-1.5-2.7c-0.5-0.9-1-1.9-1.5-2.9c-0.5-0.9-1-1.9-1.5-2.9
	c-1.2-2.3-2.5-4.7-3.7-7.1c0,1.1,0,2.2,0,3.3c0.1,6.7,0.1,13.4-0.2,20c0,0.8-0.1,1.7-0.1,2.5c-0.7,2.1-0.7,2.1-2.7,3.7
	c-13.5,6.3-28.4,9.9-43.1,12.4c-0.7,0.1-1.4,0.2-2.1,0.4c-47.9,7.9-98.9-5-138.7-32.6c-7.7-5.6-14.9-11.8-21.8-18.3
	c-1-1-2.1-2-3.1-2.9c-13.5-12.7-24.5-27.2-33.4-43.5c-0.3-0.6-0.7-1.2-1-1.9c-24.6-45.4-29.5-98.2-15.2-147.7
	c9.7-31.6,26.8-57.6,49.3-81.4c0.6-0.6,1.2-1.3,1.8-1.9c10.1-10.7,23.1-19,35.2-27.1c2.5,0.1,2.5,0.1,5,1c1.6,2.1,1.6,2.1,2.9,5
	c0.5,1.1,1,2.1,1.5,3.2c0.5,1.2,1.1,2.3,1.6,3.6c0.6,1.2,1.1,2.5,1.7,3.7c1.5,3.2,3,6.4,4.4,9.6c1.3,2.9,2.7,5.8,4,8.6
	c2.1,4.6,4.2,9.1,6.3,13.7c3.9,8.5,7.9,17,11.9,25.4c5.5,11.6,11,23.3,16.4,34.9c5.2,11.2,10.5,22.4,15.8,33.6
	c4.6,9.8,9.2,19.6,13.8,29.4c5.1,11.1,10.3,22.1,15.6,33.1c5.8,12.1,11.5,24.3,17.1,36.4c4.5,9.6,9,19.2,13.5,28.8
	c6.6,13.9,13,27.8,19.4,41.8c0.8-0.6,0.8-0.6,1.6-1.2c0.7-0.5,1.4-1.1,2.2-1.6c0.7-0.5,1.4-1.1,2.1-1.6c4.2-3,7.6-4.6,12.7-5.1
	c0.8-0.1,1.6-0.2,2.4-0.2c0.6-0.1,1.2-0.1,1.9-0.2c-2.2-4.5-4.5-9-6.7-13.5c-0.8-1.5-1.5-3-2.3-4.6c-4.1-8.3-8.3-16.5-12.6-24.7
	c-4.4-8.3-8.6-16.7-12.8-25.1c-0.3-0.7-0.7-1.3-1-2c-2.7-5.4-5.4-10.9-8.1-16.3c-2.4-4.7-4.7-9.5-7.1-14.2c-0.3-0.7-0.7-1.3-1-2
	c-3.7-7.4-7.4-14.7-11.3-21.9c-4.7-8.8-9.2-17.8-13.7-26.8c-0.6-1.1-0.6-1.1-1.2-2.3c-3.2-6.4-6.4-12.8-9.5-19.2
	c-2.8-5.5-5.5-11.1-8.3-16.6c-0.4-0.8-0.8-1.5-1.2-2.3c-4.4-8.9-8.9-17.8-13.6-26.5c-3.8-7.2-7.5-14.5-11.1-21.8
	c-0.3-0.7-0.7-1.3-1-2c-2.7-5.4-5.4-10.9-8.1-16.3c-2-4.1-4.1-8.1-6.1-12.2c-0.7-1.3-1.3-2.6-2-3.9c-4.4-8.8-8.8-17.5-13.6-26.2
	C199,73.1,197.5,70,197,66C270.9,32.4,355.9,48.2,413.8,104.5z"/>
<path class="st1" d="M143,65c0,1,0,2,0,3c-1.9,1.8-3.7,3.3-5.7,4.9c-1.2,1-2.4,2-3.6,3c-0.6,0.5-1.2,1-1.9,1.5
	c-3,2.5-5.9,5.1-8.7,7.8c-0.5,0.5-1,0.9-1.5,1.4C84.1,121.2,61.2,175.6,58,226c-1.5,42.6,5.4,83.2,26,121c0.9,1.7,0.9,1.7,1.9,3.5
	c15.4,28,37.2,52.1,63.1,70.5c0.6,0.4,1.2,0.9,1.9,1.3c16.9,12.1,35.5,21,55.1,27.7c0.8,0.3,1.7,0.6,2.5,0.9
	c35.9,12,82,17.5,118.5,4.9c5-1.7,7.5-2.4,12.3-0.1c3.8,2.5,7.2,5.4,10.6,8.4c1.2,1,2.4,2,3.6,3c7.7,6.4,15.1,13.2,22.4,20
	c1.2,1.1,1.2,1.1,2.3,2.2c1.7,1.8,1.7,1.8,1.7,3.8c-16.2,5.7-32.2,10.8-49,14c-0.8,0.2-1.6,0.3-2.4,0.5c-26.6,5.3-58,5-84.6-0.5
	c-1.5-0.3-1.5-0.3-3-0.6c-39.9-8.4-76.2-24.8-108-50.4c-0.5-0.4-1-0.8-1.6-1.3c-13.5-10.8-25.9-23.1-36.4-36.7
	c-0.7-0.9-1.5-1.8-2.2-2.7C65.2,381.4,48.6,338,43,295c-0.1-0.7-0.2-1.3-0.3-2c-1.1-9.2-1-18.4-1-27.7c0-0.9,0-1.8,0-2.8
	c0-14.1,0.6-27.7,3.3-41.5c0.2-0.9,0.3-1.7,0.5-2.6c6.1-32.2,18.6-64.4,37.5-91.4c0.5-0.8,1.1-1.5,1.6-2.3c7-9.9,14.2-19.3,22.7-28
	c1.2-1.2,2.4-2.5,3.6-3.8C120.9,82.7,131,73,143,65z"/>
<path class="st2" d="M163.4,2c4,1.6,5.1,4.8,6.9,8.5c0.4,0.8,0.8,1.6,1.2,2.4c1,1.9,1.9,3.8,2.8,5.7c2.4,4.8,4.8,9.6,7.2,14.4
	c1.9,3.8,3.8,7.7,5.7,11.5c0.4,0.7,0.7,1.5,1.1,2.2c0.7,1.4,1.4,2.7,2,4.1c1.4,2.8,2.8,5.5,4.4,8.1c1.3,2.2,1.3,2.2,1.3,4.3
	c-1.6,2.9-3.9,3.7-6.9,5.1c-1.6,0.8-1.6,0.8-3.2,1.6c-3,1.2-3,1.2-7,1.2c-2.6-5.4-5.1-10.7-7.7-16.1c-0.9-1.8-1.7-3.6-2.6-5.5
	c-2.5-5.3-5-10.6-7.5-15.8c-0.8-1.7-1.6-3.5-2.5-5.2c-1.2-2.5-2.3-4.9-3.5-7.4c-0.5-1.1-0.5-1.1-1.1-2.2c-1.4-3.1-2.3-5.3-2-8.7
	C153.9,5.7,158.6,2,163.4,2z"/>
<path class="st2" d="M370,415c1.7,2.5,3.2,4.8,4.7,7.4c0.4,0.7,0.8,1.4,1.2,2.2c3,5.5,4.3,10.1,3.1,16.4c1.4,0.1,1.4,0.1,2.8,0.1
	c3.2,0.9,3.2,0.9,5.2,3.3c0.6,1.1,1.1,2.1,1.7,3.3c0.3,0.6,0.6,1.2,0.9,1.8c1,1.9,2,3.7,2.9,5.6c1,1.8,1.9,3.7,2.9,5.5
	c0.9,1.8,1.9,3.5,2.8,5.3c1.5,2.7,3,5.3,4.7,7.9c2,3.3,2,3.3,2,5.3c-3.1-1.3-4.8-2.7-6.9-5.3C384.6,458,368.9,445.3,351,435
	c0.1-1.9,0.2-3.9,0.3-5.8c0.1-1.1,0.1-2.2,0.2-3.3c0.6-3.2,0.9-4,3.5-5.9c2-1.1,4-2.2,6-3.2c1.1-0.5,2.1-1.1,3.2-1.6
	C367,414,367,414,370,415z"/>
<path class="st3" d="M143,65c0,1,0,2,0,3c-1.9,1.8-3.7,3.3-5.7,4.9c-1.2,1-2.4,2-3.6,3c-0.9,0.8-0.9,0.8-1.9,1.5
	c-7.3,6.1-14.4,12.6-20.5,19.9c-1.7,2-3.5,3.8-5.4,5.6c-1-0.7-2-1.3-3-2C129,74.3,129,74.3,143,65z"/>
<path class="st4" d="M143,65c0,1,0,2,0,3c-2.1,2-4.1,3.8-6.3,5.6c-0.6,0.5-1.2,1-1.8,1.5c-2.6,2.1-5.1,4.1-7.9,5.9c-0.3-1-0.7-2-1-3
	c2.3-1.8,4.5-3.6,6.8-5.4c1-0.8,1-0.8,1.9-1.5c0.6-0.5,1.2-1,1.9-1.5c0.9-0.7,0.9-0.7,1.7-1.4C139.9,67.1,141.4,66,143,65z"/>
<path class="st5" d="M143,65c0,1,0,2,0,3c-5.3,5-5.3,5-8,5C136.5,68.8,139.3,67.3,143,65z"/>
</svg>
