<?xml version="1.0" encoding="UTF-8"?><svg xmlns="http://www.w3.org/2000/svg" version="1.1" width="80" height="80">
<path d="M0 0 C1503.15 0 3006.3 0 4555 0 C4555 1503.15 4555 3006.3 4555 4555 C3051.85 4555 1548.7 4555 0 4555 C0 3051.85 0 1548.7 0 0 Z " fill="#fc5800" transform="translate(0,0)"/>
<path d="M0 0 C117.81 0 235.62 0 357 0 C368.49219904 21.83517818 368.49219904 21.83517818 372.27514648 29.42089844 C372.71735535 30.30356384 373.15956421 31.18622925 373.61517334 32.09564209 C375.03578737 34.93257046 376.45356545 37.7709037 377.87109375 40.609375 C378.88408517 42.63468117 379.89719513 44.65992806 380.91041565 46.68511963 C383.01847856 50.89978433 385.12512081 55.11515508 387.23071289 59.33105469 C389.89458028 64.66447238 392.56202312 69.99609224 395.23055935 75.32717514 C397.31958141 79.50155901 399.40665119 83.67691673 401.49318123 87.85254669 C402.47433277 89.81550474 403.45605134 91.7781795 404.43841362 93.74053192 C409.513836 103.88180577 414.52320199 114.04818036 419.39282227 124.29003906 C424.78882938 135.63301294 430.37833808 146.87413261 436.0125885 158.1003418 C437.77436148 161.61081016 439.53347211 165.12260611 441.29187012 168.63476562 C445.02548339 176.09106232 448.76253084 183.54563551 452.5 191 C456.54030286 199.05836486 460.57992273 207.11706847 464.61558771 215.17775726 C466.62484003 219.19062896 468.63722742 223.20191859 470.65026855 227.21289062 C476.15962726 238.20610341 481.57256825 249.2359634 486.85066223 260.34204102 C491.76819632 270.66304352 496.88452443 280.88270579 502.0125885 291.1003418 C503.77436148 294.61081016 505.53347211 298.12260611 507.29187012 301.63476562 C511.02548339 309.09106232 514.76253084 316.54563551 518.5 324 C522.54030286 332.05836486 526.57992273 340.11706847 530.61558771 348.17775726 C532.62484003 352.19062896 534.63722742 356.20191859 536.65026855 360.21289062 C542.15962726 371.20610341 547.57256825 382.2359634 552.85066223 393.34204102 C557.76819632 403.66304352 562.88452443 413.88270579 568.0125885 424.1003418 C569.77436148 427.61081016 571.53347211 431.12260611 573.29187012 434.63476562 C577.02548339 442.09106232 580.76253084 449.54563551 584.5 457 C588.54030286 465.05836486 592.57992273 473.11706847 596.61558771 481.17775726 C598.62484003 485.19062896 600.63722742 489.20191859 602.65026855 493.21289062 C608.16454893 504.21592481 613.58244151 515.25564472 618.86542511 526.37156677 C623.71868735 536.55814561 628.76585291 546.64562623 633.82739258 556.72994995 C635.5555643 560.17320787 637.2810079 563.6178219 639.00585938 567.06274414 C642.66814141 574.37638214 646.33385893 581.68829586 650 589 C654.25771598 597.49153346 658.51397202 605.98379282 662.7668457 614.47775269 C664.44378916 617.82529112 666.12318785 621.17158931 667.80273438 624.51782227 C672.78641809 634.46166839 677.71177956 644.42653201 682.48632812 654.47265625 C687.84908232 665.75584439 693.40896031 676.93514721 699.0125885 688.1003418 C700.77436148 691.61081016 702.53347211 695.12260611 704.29187012 698.63476562 C708.02548339 706.09106232 711.76253084 713.54563551 715.5 721 C719.54030286 729.05836486 723.57992273 737.11706847 727.61558771 745.17775726 C729.62484003 749.19062896 731.63722742 753.20191859 733.65026855 757.21289062 C738.69100835 767.2710618 743.67559798 777.34916648 748.50439453 787.51098633 C753.83703324 798.7325065 759.37187134 809.84706339 764.95145798 820.94751549 C766.70571255 824.43818644 768.45691371 827.93038022 770.20718384 831.42304993 C775.17532515 841.33562551 780.14836117 851.2457408 785.125 861.15405273 C787.89557447 866.67025303 790.66301286 872.18801648 793.42741072 877.70731479 C794.87461252 880.59638218 796.32375973 883.48444482 797.77595139 886.37100792 C805.69998567 902.12266341 813.25763012 918.00703577 820.62321568 934.02495861 C823.82965179 940.95362563 827.15713099 947.8238943 830.5 954.6875 C830.8530722 955.41526642 831.20614441 956.14303284 831.56991577 956.89285278 C836.15225439 966.33355915 840.88419044 975.67149755 845.8125 984.9375 C852.21968401 997.00577815 857.51637262 1009.45694251 862.76757812 1022.05712891 C865.32181528 1028.1563315 867.8488054 1034.01288747 871.375 1039.625 C874.3712242 1044.65051405 876.58647252 1049.71970839 878.67504883 1055.17724609 C880.41080339 1059.65730106 882.37831531 1063.96908713 884.5625 1068.25 C905.45841009 1109.36743144 925.40280609 1152.20841827 940 1196 C945.68747048 1184.68579994 951.27985375 1173.32813827 956.8125 1161.9375 C957.20562378 1161.12885498 957.59874756 1160.32020996 958.00378418 1159.48706055 C963.04690998 1149.11295114 968.06564884 1138.72785978 973.02978516 1128.31567383 C985.82075659 1101.48861362 998.82357436 1074.75952524 1011.8515625 1048.046875 C1012.26066864 1047.20803772 1012.66977478 1046.36920044 1013.09127808 1045.50494385 C1013.91878235 1043.80826813 1014.74628683 1042.11159251 1015.5737915 1040.41491699 C1021.44762079 1028.3708898 1027.31445796 1016.32471937 1033.07373047 1004.2253418 C1035.48130061 999.16851314 1037.90679737 994.12100209 1040.3515625 989.08203125 C1046.61424997 976.17201916 1052.8097943 963.24334602 1058.74194336 950.17651367 C1061.22853648 944.72588348 1063.80786136 939.33141027 1066.49902344 933.97900391 C1067.21477034 932.55143641 1067.930412 931.12381615 1068.64596558 929.69615173 C1069.02713406 928.93611784 1069.40830254 928.17608395 1069.80102158 927.39301872 C1071.92422481 923.1553569 1074.0395521 918.9137648 1076.15576172 914.67260742 C1080.74014646 905.4874559 1085.32660485 896.30334148 1089.91419792 887.11979198 C1092.66961176 881.60374804 1095.4242719 876.08733035 1098.17724609 870.57006836 C1100.86903068 865.17551998 1103.5628508 859.78199234 1106.25799942 854.38912392 C1107.2719905 852.35931986 1108.28528794 850.32916912 1109.29781723 848.29863548 C1114.07411121 838.72122737 1118.8779131 829.16603246 1123.89501953 819.7121582 C1129.48374219 809.17457878 1134.80410434 798.5058211 1140.12261963 787.82992554 C1141.9220488 784.21806237 1143.72408463 780.6075103 1145.52685547 776.99731445 C1149.35365583 769.33274897 1153.17702957 761.66647634 1157 754 C1161.13156918 745.7146685 1165.26379586 737.42966838 1169.39997292 729.14663601 C1171.46409869 725.01271974 1173.52508171 720.8772462 1175.58544922 716.74145508 C1180.69325094 706.50275495 1185.85545919 696.30448273 1191.22112274 686.19847107 C1196.29119321 676.61585973 1201.10375522 666.90366638 1205.93742371 657.20031738 C1207.70324487 653.65566399 1209.47167876 650.11232052 1211.24084473 646.56933594 C1214.99631657 639.04743051 1218.74836065 631.52381748 1222.5 624 C1226.55457851 615.86864572 1230.60981651 607.73762387 1234.66900587 599.6085701 C1236.69427715 595.55236556 1238.71640532 591.49460362 1240.73791504 587.43652344 C1245.40192741 578.08700624 1250.08655024 568.75587848 1254.98632812 559.52734375 C1260.54728861 549.05274558 1265.83471731 538.44437144 1271.12261963 527.82992554 C1272.9220488 524.21806237 1274.72408463 520.6075103 1276.52685547 516.99731445 C1280.35365583 509.33274897 1284.17702957 501.66647634 1288 494 C1292.13156918 485.7146685 1296.26379586 477.42966838 1300.39997292 469.14663601 C1302.46409869 465.01271974 1304.52508171 460.8772462 1306.58544922 456.74145508 C1311.69325094 446.50275495 1316.85545919 436.30448273 1322.22112274 426.19847107 C1327.29119321 416.61585973 1332.10375522 406.90366638 1336.93742371 397.20031738 C1338.70324487 393.65566399 1340.47167876 390.11232052 1342.24084473 386.56933594 C1345.99631657 379.04743051 1349.74836065 371.52381748 1353.5 364 C1357.55457851 355.86864572 1361.60981651 347.73762387 1365.66900587 339.6085701 C1367.69427715 335.55236556 1369.71640532 331.49460362 1371.73791504 327.43652344 C1376.40192741 318.08700624 1381.08655024 308.75587848 1385.98632812 299.52734375 C1391.54728861 289.05274558 1396.83471731 278.44437144 1402.12261963 267.82992554 C1403.9220488 264.21806237 1405.72408463 260.6075103 1407.52685547 256.99731445 C1411.35365583 249.33274897 1415.17702957 241.66647634 1419 234 C1423.13156918 225.7146685 1427.26379586 217.42966838 1431.39997292 209.14663601 C1433.46409869 205.01271974 1435.52508171 200.8772462 1437.58544922 196.74145508 C1442.68834887 186.51258053 1447.84561475 176.3241798 1453.20635986 166.22799683 C1458.34584304 156.51357647 1463.22225652 146.66646108 1468.12261963 136.82992554 C1469.9220488 133.21806237 1471.72408463 129.6075103 1473.52685547 125.99731445 C1477.35365583 118.33274897 1481.17702957 110.66647634 1485 103 C1489.13156918 94.7146685 1493.26379586 86.42966838 1497.39997292 78.14663601 C1499.46409869 74.01271974 1501.52508171 69.8772462 1503.58544922 65.74145508 C1508.28122194 56.32871491 1512.99910592 46.93678116 1517.9296875 37.64453125 C1524.47527065 25.19380337 1530.70928806 12.58142388 1537 0 C1647.22 0 1757.44 0 1871 0 C1865.7987809 10.4024382 1860.5833663 20.79066221 1855.25 31.125 C1854.73475769 32.12430542 1854.73475769 32.12430542 1854.20910645 33.14379883 C1849.35908498 42.54214706 1844.40231601 51.87204118 1839.29785156 61.13525391 C1835.77243179 67.54347621 1832.36457067 74.0060139 1829 80.5 C1825.10906704 88.00886233 1821.13689297 95.46409625 1817.0625 102.875 C1812.18894716 111.74180425 1807.49918303 120.69400916 1802.85571289 129.68310547 C1798.85168704 137.41407021 1794.71551867 145.06334469 1790.51953125 152.69140625 C1786.74512194 159.57648361 1783.10348364 166.524135 1779.5 173.5 C1774.95564789 182.2972612 1770.29168125 191.01591457 1765.51953125 199.69140625 C1761.74512171 206.57648401 1758.10349777 213.52414195 1754.5 220.5 C1749.93153843 229.34354192 1745.24460168 238.10972056 1740.44921875 246.83203125 C1736.87852127 253.34385587 1733.41679743 259.90625833 1730 266.5 C1726.10901218 274.00883512 1722.13689383 281.46409469 1718.0625 288.875 C1713.18894716 297.74180425 1708.49918303 306.69400916 1703.85571289 315.68310547 C1699.85168704 323.41407021 1695.71551867 331.06334469 1691.51953125 338.69140625 C1687.74512194 345.57648361 1684.10348364 352.524135 1680.5 359.5 C1675.95564789 368.2972612 1671.29168125 377.01591457 1666.51953125 385.69140625 C1662.74512194 392.57648361 1659.10348364 399.524135 1655.5 406.5 C1650.95564789 415.2972612 1646.29168125 424.01591457 1641.51953125 432.69140625 C1637.74512171 439.57648401 1634.10349777 446.52414195 1630.5 453.5 C1625.93153843 462.34354192 1621.24460168 471.10972056 1616.44921875 479.83203125 C1612.87852127 486.34385587 1609.41679743 492.90625833 1606 499.5 C1602.10901218 507.00883512 1598.13689383 514.46409469 1594.0625 521.875 C1589.18894716 530.74180425 1584.49918303 539.69400916 1579.85571289 548.68310547 C1575.85168704 556.41407021 1571.71551867 564.06334469 1567.51953125 571.69140625 C1563.74512194 578.57648361 1560.10348364 585.524135 1556.5 592.5 C1551.95564789 601.2972612 1547.29168125 610.01591457 1542.51953125 618.69140625 C1538.74512171 625.57648401 1535.10349777 632.52414195 1531.5 639.5 C1526.93153843 648.34354192 1522.24460168 657.10972056 1517.44921875 665.83203125 C1513.87852127 672.34385587 1510.41679743 678.90625833 1507 685.5 C1503.10901218 693.00883512 1499.13689383 700.46409469 1495.0625 707.875 C1490.18894716 716.74180425 1485.49918303 725.69400916 1480.85571289 734.68310547 C1476.85168704 742.41407021 1472.71551867 750.06334469 1468.51953125 757.69140625 C1464.74512194 764.57648361 1461.10348364 771.524135 1457.5 778.5 C1452.95564789 787.2972612 1448.29168125 796.01591457 1443.51953125 804.69140625 C1439.74512171 811.57648401 1436.10349777 818.52414195 1432.5 825.5 C1427.93153843 834.34354192 1423.24460168 843.10972056 1418.44921875 851.83203125 C1414.87852127 858.34385587 1411.41679743 864.90625833 1408 871.5 C1404.10901288 879.00883377 1400.13694465 886.46412332 1396.0625 893.875 C1391.74147494 901.73539983 1387.55357498 909.65542304 1383.4375 917.625 C1379.05709579 926.10504661 1374.56481317 934.50790095 1369.9375 942.85546875 C1366.18743338 949.62943302 1362.56819416 956.46527646 1358.9765625 963.32421875 C1328.97211584 1020.6160075 1328.97211584 1020.6160075 1316.85498047 1041.90161133 C1314.28573816 1046.43379415 1311.9307432 1051.04271112 1309.63671875 1055.71875 C1307.20059004 1060.60263572 1304.64010027 1065.41926188 1302.08959961 1070.24414062 C1299.74800898 1074.6760208 1297.41750829 1079.11308643 1295.109375 1083.5625 C1288.64637582 1096.0193325 1282.02334966 1108.37642908 1275.27197266 1120.67919922 C1271.6657996 1127.25890767 1268.11182211 1133.86568484 1264.63671875 1140.515625 C1260.80336159 1147.84727877 1256.9721129 1155.15955899 1252.8125 1162.3125 C1249.61255228 1167.84374696 1246.71594017 1173.471143 1243.89453125 1179.203125 C1241.37148924 1184.30034267 1238.69795949 1189.31798285 1236.0390625 1194.34521484 C1233.71520606 1198.74059854 1231.40271882 1203.1412585 1229.11328125 1207.5546875 C1223.71231408 1217.96461616 1218.21949029 1228.31145482 1212.57080078 1238.58911133 C1208.20712323 1246.55661151 1204.02473142 1254.61247985 1199.85571289 1262.68310547 C1195.85168704 1270.41407021 1191.71551867 1278.06334469 1187.51953125 1285.69140625 C1183.74512171 1292.57648401 1180.10349777 1299.52414195 1176.5 1306.5 C1171.93153843 1315.34354192 1167.24460168 1324.10972056 1162.44921875 1332.83203125 C1158.87852127 1339.34385587 1155.41679743 1345.90625833 1152 1352.5 C1148.10901218 1360.00883512 1144.13689383 1367.46409469 1140.0625 1374.875 C1135.18894716 1383.74180425 1130.49918303 1392.69400916 1125.85571289 1401.68310547 C1121.85666628 1409.40445631 1117.7264146 1417.04465854 1113.53491211 1424.6628418 C1109.04349763 1432.85464108 1104.73040643 1441.13514462 1100.45117188 1449.43945312 C1098.22495664 1453.75362688 1095.99280545 1458.05671005 1093.62109375 1462.29296875 C1093.24904312 1462.97343089 1092.87699249 1463.65389304 1092.4936676 1464.35497525 C1091.386012 1466.3164401 1090.22201293 1468.24631336 1089.02919006 1470.15718198 C1083.23642284 1479.73720423 1081.84843709 1487.46442905 1082 1498.60413265 C1081.99235624 1500.23326397 1081.981207 1501.86238187 1081.96691173 1503.4914684 C1081.93787057 1507.94531665 1081.95818155 1512.39774482 1081.98693125 1516.85154364 C1082.00935995 1521.70520296 1081.98512207 1526.55867267 1081.96691227 1531.41231877 C1081.94140164 1539.91096674 1081.94542452 1548.40919866 1081.96898079 1556.90784645 C1082.00387284 1569.5448466 1081.99281467 1582.18151721 1081.97244111 1594.81853424 C1081.93946323 1616.07777384 1081.94360167 1637.33685433 1081.96896362 1658.59609795 C1081.99395009 1679.64247977 1082.00239679 1700.68876144 1081.98880005 1721.73515511 C1081.9875454 1723.69875502 1081.9875454 1723.69875502 1081.98626541 1725.70202363 C1081.9823668 1731.68263176 1081.9782599 1737.66323971 1081.9739866 1743.64384759 C1081.96388447 1757.82902898 1081.9564625 1772.01421151 1081.95042419 1786.19939518 C1081.95013428 1786.87564529 1081.94984436 1787.55189541 1081.94954566 1788.24863795 C1081.93567406 1821.12548455 1081.95123925 1854.00230839 1081.96923828 1886.87915039 C1081.97546612 1898.28478991 1081.98156363 1909.69042947 1081.98712158 1921.09606934 C1081.98746643 1921.8034709 1081.98781128 1922.51087246 1081.98816657 1923.23971044 C1082.00402601 1956.13959493 1081.99894188 1989.03946652 1081.98847264 2021.93935195 C1081.98779315 2024.07585809 1081.98712267 2026.21236424 1081.98645404 2028.34887039 C1081.98200847 2042.50788914 1081.97720231 2056.66690774 1081.97215471 2070.82592629 C1081.96211487 2098.99763272 1081.95419343 2127.16933962 1081.94772786 2155.3410471 C1081.94741996 2156.68258564 1081.94711057 2158.02412419 1081.94679969 2159.36566273 C1081.93723464 2200.67862802 1081.93723053 2241.99158496 1081.94726562 2283.30455017 C1081.9476804 2285.03527778 1081.9476804 2285.03527778 1081.94810355 2286.80096959 C1081.95944946 2333.53398179 1081.98100847 2380.26699043 1082 2427 C982.67 2427 883.34 2427 781 2427 C781.03254883 2397.94308105 781.06509766 2368.88616211 781.09863281 2338.94873047 C781.11860412 2319.54572595 781.13837292 2300.14272274 781.15533447 2280.73971558 C781.15641795 2279.50705344 781.15750142 2278.2743913 781.15861772 2277.00437576 C781.1948805 2235.5039866 781.21467669 2194.00360814 781.22210693 2152.50320435 C781.22235636 2151.13498213 781.2226058 2149.76675991 781.22285526 2148.39853769 C781.22803832 2119.67665359 781.23075109 2090.95476969 781.23061173 2062.23288514 C781.23054435 2047.80406871 781.23095146 2033.37525232 781.23180729 2018.94643592 C781.23193363 2016.76995805 781.23204642 2014.59348018 781.23215864 2012.41700231 C781.23400531 1978.91825897 781.24600298 1945.41955724 781.28753662 1911.9208374 C781.28842885 1911.20105988 781.28932107 1910.48128235 781.29024033 1909.73969338 C781.30468676 1898.13538929 781.31998825 1886.53108633 781.3354033 1874.92678349 C781.37981215 1841.48638746 781.41785616 1808.04603834 781.41413498 1774.60560799 C781.41406147 1773.91734165 781.41398795 1773.22907532 781.41391221 1772.51995243 C781.41218465 1757.40764825 781.4072082 1742.29534694 781.39915927 1727.18304487 C781.39597743 1721.10155405 781.39326287 1715.02006304 781.39070892 1708.93857193 C781.39041814 1708.27299614 781.39012735 1707.60742035 781.38982775 1706.9216756 C781.38042228 1684.84579649 781.41265724 1662.77019929 781.46302706 1640.69438277 C781.51125796 1619.16798872 781.51574807 1597.64193552 781.47584674 1576.11552136 C781.45347199 1563.33116661 781.46437763 1550.54785985 781.5234086 1537.76361636 C781.55957619 1529.21384067 781.5518664 1520.66481612 781.50916221 1512.11507285 C781.4860947 1507.24930097 781.48145514 1502.38555086 781.53055301 1497.51992641 C781.72103159 1477.36698421 781.73373393 1461.10569207 769.45348617 1444.08993496 C767.19256586 1440.83900868 765.42675596 1437.3606393 763.63671875 1433.8359375 C762.98117048 1432.59399232 762.32388577 1431.35296049 761.6640625 1430.11328125 C761.34211914 1429.50436035 761.02017578 1428.89543945 760.68847656 1428.26806641 C758.89299741 1424.8724212 757.09278604 1421.47928475 755.29296875 1418.0859375 C754.93069183 1417.40271423 754.56841492 1416.71949097 754.19515991 1416.01556396 C750.64995272 1409.33304147 747.0772467 1402.6654279 743.5 1396 C739.55333638 1388.64624332 735.61667026 1381.28755842 731.70703125 1373.9140625 C731.34493057 1373.23115646 730.9828299 1372.54825043 730.60975647 1371.84465027 C729.14635957 1369.08440596 727.68307738 1366.32410085 726.21987915 1363.56375122 C721.29458433 1354.27576319 716.30538677 1345.02650049 711.24536133 1335.81103516 C707.22310236 1328.46303622 703.35306359 1321.04042925 699.4987793 1313.60327148 C696.07981539 1307.02320005 692.57030344 1300.49906799 689 1294 C684.90568257 1286.5470628 680.91267417 1279.04987063 677 1271.5 C673.20632415 1264.18257586 669.34449669 1256.91104902 665.375 1249.6875 C660.21846657 1240.29896965 655.18988748 1230.84619221 650.1875 1221.375 C639.80824625 1201.72944043 629.40395079 1182.10061317 618.63671875 1162.6640625 C615.5796197 1157.12076843 612.72838023 1151.49879942 609.9375 1145.81640625 C606.47416899 1138.8916347 602.65748782 1132.14600944 598.93359375 1125.359375 C595.8793069 1119.7918183 592.8861797 1114.19376852 589.9140625 1108.58203125 C588.35396001 1105.64448289 586.75611408 1102.72856616 585.15625 1099.8125 C581.97171958 1093.98345063 578.91860124 1088.09100861 575.875 1082.1875 C571.18063398 1073.11680165 566.37113502 1064.12038179 561.45068359 1055.1706543 C557.87950794 1048.65792368 554.41737986 1042.09459247 551 1035.5 C544.70295596 1023.35252546 538.1531935 1011.34872154 531.54833984 999.36645508 C527.70511296 992.36642715 524.02679508 985.28890037 520.375 978.1875 C513.63300413 965.12803094 506.63083328 952.22153437 499.53955078 939.34887695 C495.88163691 932.67999883 492.36035538 925.9478552 488.875 919.1875 C484.18063398 910.11680165 479.37113502 901.12038179 474.45068359 892.1706543 C470.87950765 885.65792314 467.41741518 879.09457369 464 872.5 C460.2063421 865.18256695 456.34449642 857.91104852 452.375 850.6875 C447.21847089 841.29897752 442.18957305 831.84635222 437.1875 822.375 C431.63331429 811.85911564 426.06259413 801.35316087 420.4375 790.875 C415.09916861 780.93022253 409.79035325 770.97035564 404.5 761 C396.70562937 746.3123268 388.86171447 731.65175753 381 717 C372.7743088 701.66990458 364.57233811 686.32797769 356.4175415 670.96008301 C351.46567031 661.62888238 346.49432397 652.30856978 341.5 643 C336.14173428 633.01310475 330.81240268 623.01134042 325.5 613 C317.7055344 598.31237678 309.86171483 583.6517582 302 569 C293.7743088 553.66990458 285.57233811 538.32797769 277.4175415 522.96008301 C271.85964603 512.48690314 266.27218369 502.03009283 260.66625977 491.58251953 C255.89923929 482.69272155 251.16450692 473.78611848 246.4375 464.875 C241.32268766 455.23307369 236.18487944 445.60450713 231 436 C225.44733574 425.71420567 219.95162754 415.39916506 214.47412109 405.07324219 C209.50385379 395.70405398 204.51460808 386.3455577 199.5 377 C194.14169392 367.01312656 188.81240257 357.01134021 183.5 347 C175.7055344 332.31237678 167.86171483 317.6517582 160 303 C151.7743088 287.66990458 143.57233811 272.32797769 135.4175415 256.96008301 C129.85964603 246.48690314 124.27218369 236.03009283 118.66625977 225.58251953 C113.89923929 216.69272155 109.16450692 207.78611848 104.4375 198.875 C99.32268766 189.23307369 94.18487944 179.60450713 89 170 C83.44733574 159.71420567 77.95162754 149.39916506 72.47412109 139.07324219 C67.50385379 129.70405398 62.51460808 120.3455577 57.5 111 C52.14169392 101.01312656 46.81240257 91.01134021 41.5 81 C34.33251283 67.49383339 27.12468999 54.0098889 19.89550781 40.53662109 C17.87156465 36.76227279 15.85373064 32.98466983 13.8359375 29.20703125 C12.80651561 27.28099373 11.77697244 25.35502109 10.74737549 23.42907715 C10.09032315 22.199411 9.43369629 20.96951739 8.77752686 19.73937988 C7.86846231 18.03527324 6.95770239 16.33207133 6.046875 14.62890625 C5.52963867 13.66025635 5.01240234 12.69160645 4.47949219 11.69360352 C3.03010048 8.97625138 3.03010048 8.97625138 1.30957031 6.39819336 C0 4 0 4 0 0 Z " fill="#FEFEFE" transform="translate(1343,1111)"/>
</svg>
