<?xml version="1.0" encoding="utf-8"?>
<!-- Generator: Adobe Illustrator 27.1.1, SVG Export Plug-In . SVG Version: 6.00 Build 0)  -->
<svg version="1.1" id="Layer_1" xmlns="http://www.w3.org/2000/svg" xmlns:xlink="http://www.w3.org/1999/xlink" x="0px" y="0px"
	 viewBox="0 0 66 66" style="enable-background:new 0 0 66 66;" xml:space="preserve">
<style type="text/css">
	.st0{filter:url(#Adobe_OpacityMaskFilter);}
	.st1{fill-rule:evenodd;clip-rule:evenodd;fill:#FFFFFF;}
	.st2{mask:url(#mask-2_00000015327651690957576680000007153145305542967229_);fill:#F4B400;}
	.st3{filter:url(#Adobe_OpacityMaskFilter_00000149345699125684182800000010310811939639455636_);}
	.st4{mask:url(#mask-4_00000183218992293944789170000002303171151067872917_);fill:#F1F1F1;}
	.st5{filter:url(#Adobe_OpacityMaskFilter_00000181058083440742585500000008042026561537535877_);}
	
		.st6{mask:url(#mask-6_00000113328640158900630490000014288490969505181582_);fill:url(#Path_00000033336996332251928100000006572995777748799632_);}
	.st7{filter:url(#Adobe_OpacityMaskFilter_00000075885005754018542980000001584399371097857962_);}
	.st8{mask:url(#mask-9_00000010309612934380151120000001058860262348010425_);}
	.st9{fill:#FADA80;}
	.st10{filter:url(#Adobe_OpacityMaskFilter_00000116233466248761037870000004279298154360385678_);}
	.st11{mask:url(#mask-11_00000145780728222938836440000008312818526805496736_);fill:#FFFFFF;fill-opacity:0.1;}
	.st12{filter:url(#Adobe_OpacityMaskFilter_00000117647070601055433300000003837079643575791521_);}
	.st13{mask:url(#mask-13_00000036965357498831653710000017040235701731520189_);fill:#FFFFFF;fill-opacity:0.2;}
	.st14{filter:url(#Adobe_OpacityMaskFilter_00000145756424335914221770000013754485979006209699_);}
	.st15{mask:url(#mask-15_00000047048352147511893490000006948875374726278552_);fill:#BF360C;fill-opacity:0.2;}
	.st16{filter:url(#Adobe_OpacityMaskFilter_00000062169173810124210940000004799917262873266822_);}
	.st17{mask:url(#mask-17_00000154386524040838540920000017794126620281003950_);fill:#BF360C;fill-opacity:0.1;}
	.st18{fill:url(#Path_00000010275622078395207880000007262205128210353024_);}
</style>
<g id="Page-1">
	<g id="Consumer-Apps-Slides-Large-VD-R8" transform="translate(-449.000000, -452.000000)">
		<g id="Hero" transform="translate(0.000000, 63.000000)">
			<g id="Personal" transform="translate(277.000000, 299.000000)">
				<g id="Slides-icon" transform="translate(172.000000, 90.000000)">
					<g id="Group_00000012439095835382403850000000260997233688353924_">
						<g id="Clipped">
							<g id="SVGID_1_">
							</g>
							<defs>
								<filter id="Adobe_OpacityMaskFilter" filterUnits="userSpaceOnUse" x="9" y="0" width="47.3" height="65.1">
									<feColorMatrix  type="matrix" values="1 0 0 0 0  0 1 0 0 0  0 0 1 0 0  0 0 0 1 0"/>
								</filter>
							</defs>
							
								<mask maskUnits="userSpaceOnUse" x="9" y="0" width="47.3" height="65.1" id="mask-2_00000015327651690957576680000007153145305542967229_">
								<g class="st0">
									<path id="path-1_00000051371894126880888540000004365762230558696371_" class="st1" d="M38.6,0H13.4C11,0,9,2,9,4.4v56.2
										c0,2.4,2,4.4,4.4,4.4h38.5c2.4,0,4.4-2,4.4-4.4V17.7L38.6,0z"/>
								</g>
							</mask>
							<path id="Path" class="st2" d="M38.6,0H13.4C11,0,9,2,9,4.4v56.2c0,2.4,2,4.4,4.4,4.4h38.5c2.4,0,4.4-2,4.4-4.4V17.7L46,10.4
								L38.6,0z"/>
						</g>
						<g id="Clipped_00000043422764779083666520000013365915370288502169_">
							<g id="SVGID_00000053520841660535473440000008048195123371776917_">
							</g>
							<defs>
								
									<filter id="Adobe_OpacityMaskFilter_00000110430847644509344940000002966523769073581708_" filterUnits="userSpaceOnUse" x="20.8" y="29.6" width="23.7" height="23.7">
									<feColorMatrix  type="matrix" values="1 0 0 0 0  0 1 0 0 0  0 0 1 0 0  0 0 0 1 0"/>
								</filter>
							</defs>
							
								<mask maskUnits="userSpaceOnUse" x="20.8" y="29.6" width="23.7" height="23.7" id="mask-4_00000183218992293944789170000002303171151067872917_">
								<g style="filter:url(#Adobe_OpacityMaskFilter_00000110430847644509344940000002966523769073581708_);">
									<path id="path-3_00000075856788427485396330000010253570413727463040_" class="st1" d="M38.6,0H13.4C11,0,9,2,9,4.4v56.2
										c0,2.4,2,4.4,4.4,4.4h38.5c2.4,0,4.4-2,4.4-4.4V17.7L38.6,0z"/>
								</g>
							</mask>
							<path id="Shape" class="st4" d="M42.3,29.6H23.1c-1.2,0-2.2,1-2.2,2.2V51c0,1.2,1,2.2,2.2,2.2h19.2c1.2,0,2.2-1,2.2-2.2V31.8
								C44.5,30.6,43.5,29.6,42.3,29.6z M41.5,46.6H23.8V36.2h17.8V46.6z"/>
						</g>
						<g id="Clipped_00000077298136692337936030000016793325786509267636_">
							<g id="SVGID_00000123420165403625614740000011753900272375850143_">
							</g>
							<defs>
								
									<filter id="Adobe_OpacityMaskFilter_00000077301609844485682120000016963438424840456842_" filterUnits="userSpaceOnUse" x="39.9" y="16.5" width="16.5" height="16.4">
									<feColorMatrix  type="matrix" values="1 0 0 0 0  0 1 0 0 0  0 0 1 0 0  0 0 0 1 0"/>
								</filter>
							</defs>
							
								<mask maskUnits="userSpaceOnUse" x="39.9" y="16.5" width="16.5" height="16.4" id="mask-6_00000113328640158900630490000014288490969505181582_">
								<g style="filter:url(#Adobe_OpacityMaskFilter_00000077301609844485682120000016963438424840456842_);">
									<path id="path-5_00000153664883599841967770000012243023410538646153_" class="st1" d="M38.6,0H13.4C11,0,9,2,9,4.4v56.2
										c0,2.4,2,4.4,4.4,4.4h38.5c2.4,0,4.4-2,4.4-4.4V17.7L38.6,0z"/>
								</g>
							</mask>
							
								<linearGradient id="Path_00000008852148149149353380000002333375208188273837_" gradientUnits="userSpaceOnUse" x1="-246.9063" y1="430.2151" x2="-246.9063" y2="429.3008" gradientTransform="matrix(16.452 0 0 -16.4483 4110.2173 7094.1855)">
								<stop  offset="0" style="stop-color:#BF360C;stop-opacity:0.2"/>
								<stop  offset="1" style="stop-color:#BF360C;stop-opacity:2.000000e-02"/>
							</linearGradient>
							
								<polygon id="Path_00000029739820725061999180000004005828815870058931_" style="mask:url(#mask-6_00000113328640158900630490000014288490969505181582_);fill:url(#Path_00000008852148149149353380000002333375208188273837_);" points="
								39.9,16.5 56.3,32.9 56.3,17.7 							"/>
						</g>
						<g id="Clipped_00000010277623735556301710000007657722730395641762_">
							<g id="SVGID_00000101082842921333355440000011956934596770005129_">
							</g>
							<defs>
								
									<filter id="Adobe_OpacityMaskFilter_00000139286615315294606350000009546255632215533735_" filterUnits="userSpaceOnUse" x="38.6" y="0" width="17.8" height="17.8">
									<feColorMatrix  type="matrix" values="1 0 0 0 0  0 1 0 0 0  0 0 1 0 0  0 0 0 1 0"/>
								</filter>
							</defs>
							
								<mask maskUnits="userSpaceOnUse" x="38.6" y="0" width="17.8" height="17.8" id="mask-9_00000010309612934380151120000001058860262348010425_">
								<g style="filter:url(#Adobe_OpacityMaskFilter_00000139286615315294606350000009546255632215533735_);">
									<path id="path-8_00000000945401326677714930000006502277417786360223_" class="st1" d="M38.6,0H13.4C11,0,9,2,9,4.4v56.2
										c0,2.4,2,4.4,4.4,4.4h38.5c2.4,0,4.4-2,4.4-4.4V17.7L38.6,0z"/>
								</g>
							</mask>
							<g id="Group" class="st8">
								<g transform="translate(26.625000, -2.958333)">
									<path id="Path_00000178896314335050751180000014221710355843352241_" class="st9" d="M12,3v13.3c0,2.5,2,4.4,4.4,4.4h13.3
										L12,3z"/>
								</g>
							</g>
						</g>
						<g id="Clipped_00000183231861790341585340000009339956949748667071_">
							<g id="SVGID_00000170996551227427537430000010129864507834142855_">
							</g>
							<defs>
								
									<filter id="Adobe_OpacityMaskFilter_00000046297071038631645070000002408454568964742813_" filterUnits="userSpaceOnUse" x="38.6" y="0" width="17.7" height="17.8">
									<feColorMatrix  type="matrix" values="1 0 0 0 0  0 1 0 0 0  0 0 1 0 0  0 0 0 1 0"/>
								</filter>
							</defs>
							
								<mask maskUnits="userSpaceOnUse" x="38.6" y="0" width="17.7" height="17.8" id="mask-11_00000145780728222938836440000008312818526805496736_">
								<g style="filter:url(#Adobe_OpacityMaskFilter_00000046297071038631645070000002408454568964742813_);">
									<path id="path-10_00000123413428609844427510000009177036095758868885_" class="st1" d="M38.6,0H13.4C11,0,9,2,9,4.4v56.2
										c0,2.4,2,4.4,4.4,4.4h38.5c2.4,0,4.4-2,4.4-4.4V17.7L38.6,0z"/>
								</g>
							</mask>
							<polygon id="Path_00000106107712624180841490000000870984685620886678_" class="st11" points="38.6,0 38.6,0.4 56,17.7 
								56.3,17.7 							"/>
						</g>
						<g id="Clipped_00000049207612611331701120000003156216930485115290_">
							<g id="SVGID_00000159460081109086826080000017045553249971168645_">
							</g>
							<defs>
								
									<filter id="Adobe_OpacityMaskFilter_00000048475952063630672870000010985374363613655457_" filterUnits="userSpaceOnUse" x="9" y="0" width="29.6" height="4.8">
									<feColorMatrix  type="matrix" values="1 0 0 0 0  0 1 0 0 0  0 0 1 0 0  0 0 0 1 0"/>
								</filter>
							</defs>
							
								<mask maskUnits="userSpaceOnUse" x="9" y="0" width="29.6" height="4.8" id="mask-13_00000036965357498831653710000017040235701731520189_">
								<g style="filter:url(#Adobe_OpacityMaskFilter_00000048475952063630672870000010985374363613655457_);">
									<path id="path-12_00000027592939294714932910000007392038114664155009_" class="st1" d="M38.6,0H13.4C11,0,9,2,9,4.4v56.2
										c0,2.4,2,4.4,4.4,4.4h38.5c2.4,0,4.4-2,4.4-4.4V17.7L38.6,0z"/>
								</g>
							</mask>
							<path id="Path_00000085211319875117744730000002684871890551456396_" class="st13" d="M13.4,0C11,0,9,2,9,4.4v0.4
								c0-2.4,2-4.4,4.4-4.4h25.1V0H13.4z"/>
						</g>
						<g id="Clipped_00000136381973619367476480000014402301797000743042_">
							<g id="SVGID_00000121985052417843885270000015759597470022382997_">
							</g>
							<defs>
								
									<filter id="Adobe_OpacityMaskFilter_00000104693337984813389920000012408979147159624365_" filterUnits="userSpaceOnUse" x="9" y="60.3" width="47.3" height="4.8">
									<feColorMatrix  type="matrix" values="1 0 0 0 0  0 1 0 0 0  0 0 1 0 0  0 0 0 1 0"/>
								</filter>
							</defs>
							
								<mask maskUnits="userSpaceOnUse" x="9" y="60.3" width="47.3" height="4.8" id="mask-15_00000047048352147511893490000006948875374726278552_">
								<g style="filter:url(#Adobe_OpacityMaskFilter_00000104693337984813389920000012408979147159624365_);">
									<path id="path-14_00000053539092082675917090000003753528682323978624_" class="st1" d="M38.6,0H13.4C11,0,9,2,9,4.4v56.2
										c0,2.4,2,4.4,4.4,4.4h38.5c2.4,0,4.4-2,4.4-4.4V17.7L38.6,0z"/>
								</g>
							</mask>
							<path id="Path_00000040552473845800553370000005237559900273854641_" class="st15" d="M51.9,64.7H13.4c-2.4,0-4.4-2-4.4-4.4
								v0.4c0,2.4,2,4.4,4.4,4.4h38.5c2.4,0,4.4-2,4.4-4.4v-0.4C56.3,62.7,54.3,64.7,51.9,64.7z"/>
						</g>
						<g id="Clipped_00000067918176039509318650000010329174698505989509_">
							<g id="SVGID_00000025444197162586197460000012022233641701946506_">
							</g>
							<defs>
								
									<filter id="Adobe_OpacityMaskFilter_00000016050280850004292110000000079908624304388013_" filterUnits="userSpaceOnUse" x="38.6" y="13.3" width="17.7" height="4.8">
									<feColorMatrix  type="matrix" values="1 0 0 0 0  0 1 0 0 0  0 0 1 0 0  0 0 0 1 0"/>
								</filter>
							</defs>
							
								<mask maskUnits="userSpaceOnUse" x="38.6" y="13.3" width="17.7" height="4.8" id="mask-17_00000154386524040838540920000017794126620281003950_">
								<g style="filter:url(#Adobe_OpacityMaskFilter_00000016050280850004292110000000079908624304388013_);">
									<path id="path-16_00000160157960512006406550000002538876681758914693_" class="st1" d="M38.6,0H13.4C11,0,9,2,9,4.4v56.2
										c0,2.4,2,4.4,4.4,4.4h38.5c2.4,0,4.4-2,4.4-4.4V17.7L38.6,0z"/>
								</g>
							</mask>
							<path id="Path_00000018222523728174275760000003120369240828561559_" class="st17" d="M43,17.7c-2.5,0-4.4-2-4.4-4.4v0.4
								c0,2.5,2,4.4,4.4,4.4h13.3v-0.4H43z"/>
						</g>
					</g>
					
						<radialGradient id="Path_00000011024801188422197560000003211433692423217583_" cx="-258.2007" cy="445.6656" r="1.6125" gradientTransform="matrix(47.3333 0 0 -47.3334 12232 21096.6172)" gradientUnits="userSpaceOnUse">
						<stop  offset="0" style="stop-color:#FFFFFF;stop-opacity:0.1"/>
						<stop  offset="1" style="stop-color:#FFFFFF;stop-opacity:0"/>
					</radialGradient>
					
						<path id="Path_00000080887917375096923730000004773136551984156069_" style="fill:url(#Path_00000011024801188422197560000003211433692423217583_);" d="
						M38.6,0H13.4C11,0,9,2,9,4.4v56.2c0,2.4,2,4.4,4.4,4.4h38.5c2.4,0,4.4-2,4.4-4.4V17.7L38.6,0z"/>
				</g>
			</g>
		</g>
	</g>
</g>
</svg>
