<?xml version="1.0" encoding="utf-8"?>
<svg version="1.1" id="Layer_1" x="0px" y="0px" viewBox="0 0 512 512" style="enable-background:new 0 0 512 512;" xmlns="http://www.w3.org/2000/svg">
  <g>
    <path d="M256,0C114.6,0,0,114.6,0,256c0,141.4,114.6,256,256,256c141.4,0,256-114.6,256-256C512,114.6,397.4,0,256,0z M385.7,220.2 c-0.6,2.4-2,5.9-4,10.2h0.1l-0.2,0.4c-11.6,24.6-41.8,73-41.8,73s-0.1-0.1-0.2-0.3l-8.9,15.3h42.6l-81.3,107.5l18.5-73.1H277 l11.7-48.4c-9.4,2.2-20.5,5.4-33.7,9.6c0,0-17.8,10.4-51.4-20c0,0-22.6-19.8-9.5-24.8c5.6-2.1,27.1-4.8,44-7 c22.9-3.1,36.9-4.7,36.9-4.7s-70.5,1-87.2-1.5c-16.7-2.6-37.9-30.3-42.5-54.7c0,0-7-13.4,15-7c22,6.3,113.1,24.7,113.1,24.7 S155,183,147.1,174.2c-7.9-8.8-23.2-48.1-21.2-72.3c0,0,0.9-6,7.1-4.4c0,0,87.6,39.8,147.5,61.7 C340.3,180.9,392.4,191.9,385.7,220.2z" style="fill: rgb(66, 132, 238);"/>
  </g>
</svg>