<svg version="1.1" viewBox="0 0 100 100" xmlns="http://www.w3.org/2000/svg">
 <defs>
  <style>.st0 {
        fill: #431e75;
      }

      .st1 {
        fill: #28b67a;
      }</style>
 </defs>
 <path class="st0" d="M69.9,18.68l-19.91,19.93-19.91-19.93L47.89.88c.54-.54,1.32-.88,2.09-.88s1.52.3,2.09.88l17.82,17.8Z"/>
 <path class="st0" d="M67.8,83.38l-15.73,15.75c-.57.54-1.32.88-2.09.88s-1.55-.3-2.09-.88l-15.73-15.71c-.54-.54-.84-1.31-.84-2.09s.3-1.55.84-2.09l15.73-15.71c.27-.27.61-.51.94-.64.37-.13.74-.24,1.11-.24s.78.07,1.15.24c.37.13.67.37.94.64l15.73,15.71c.27.27.51.61.64.94.14.37.24.74.24,1.15s-.07.78-.24,1.15c-.14.37-.37.67-.64.94"/>
 <path class="st1" d="M49.98,38.57l-29.19,29.23c-.54.54-1.32.88-2.09.88s-1.52-.3-2.09-.88L.88,52.09c-.54-.54-.88-1.31-.88-2.09s.3-1.55.88-2.09l29.19-29.23s19.91,19.89,19.91,19.89Z"/>
 <path class="st1" d="M49.98,38.57l29.23,29.23c.54.54,1.32.88,2.09.88s1.52-.3,2.09-.88l15.73-15.75c.27-.27.51-.61.64-.94.14-.37.24-.74.24-1.15s-.07-.78-.24-1.15c-.14-.37-.37-.67-.64-.94l-29.19-29.2-19.91,19.89h-.03Z"/>
</svg>
