<?xml version="1.0" encoding="UTF-8" standalone="no"?>
<svg
   xmlns:dc="http://purl.org/dc/elements/1.1/"
   xmlns:cc="http://creativecommons.org/ns#"
   xmlns:rdf="http://www.w3.org/1999/02/22-rdf-syntax-ns#"
   xmlns:svg="http://www.w3.org/2000/svg"
   xmlns="http://www.w3.org/2000/svg"
   xmlns:sodipodi="http://sodipodi.sourceforge.net/DTD/sodipodi-0.dtd"
   xmlns:inkscape="http://www.inkscape.org/namespaces/inkscape"
   sodipodi:docname="icon.svg"
   inkscape:version="1.0 (4035a4fb49, 2020-05-01)"
   version="1.1"
   id="svg4506"
   height="116.92913"
   width="116.92913">
  <defs
     id="defs4508" />
  <sodipodi:namedview
     inkscape:document-rotation="0"
     inkscape:window-maximized="0"
     inkscape:window-y="0"
     inkscape:window-x="0"
     inkscape:window-height="1418"
     inkscape:window-width="2560"
     inkscape:snap-global="false"
     units="mm"
     showgrid="false"
     inkscape:current-layer="layer1"
     inkscape:document-units="mm"
     inkscape:cy="68.396061"
     inkscape:cx="65.559127"
     inkscape:zoom="7.9195959"
     inkscape:pageshadow="2"
     inkscape:pageopacity="0.0"
     borderopacity="1.0"
     bordercolor="#666666"
     pagecolor="#ffffff"
     id="base">
    <inkscape:grid
       snapvisiblegridlinesonly="true"
       enabled="true"
       visible="true"
       empspacing="5"
       id="grid5125"
       type="xygrid" />
  </sodipodi:namedview>
  <metadata
     id="metadata4511">
    <rdf:RDF>
      <cc:Work
         rdf:about="">
        <dc:format>image/svg+xml</dc:format>
        <dc:type
           rdf:resource="http://purl.org/dc/dcmitype/StillImage" />
        <dc:title />
      </cc:Work>
    </rdf:RDF>
  </metadata>
  <g
     transform="translate(0,-935.433)"
     id="layer1"
     inkscape:groupmode="layer"
     inkscape:label="Layer 1">
    <circle
       style="fill:#007cc3;fill-rule:evenodd;stroke:none;stroke-width:0.0210157"
       id="circle9"
       r="54.199368"
       cy="990.44196"
       cx="59.066776"
       class="fil0 str0" />
    <path
       sodipodi:nodetypes="csccccccccccccccccccccccccccccccccccccccccccccccccccccccscccccccccccccsccccccccccccscccccccccccccccccccccccccccccccccccccccccccscccccccccccccccccccccccc"
       inkscape:connector-curvature="0"
       id="path5892"
       d="m 47.396023,972.44114 c 0,0 -1.527128,-2.95852 -1.628934,-3.36658 -0.101828,-0.40811 -0.916288,-4.59081 -0.916288,-4.59081 l 1.018094,-1.83636 2.239817,-3.36657 3.2579,-2.55047 0.81447,-0.30606 7.839353,-2.95854 0.712658,-0.71413 -0.814474,-1.22421 -1.119908,-0.61209 -2.055164,-0.5276 -5.14863,-0.52758 -3.995263,0.0351 -2.748853,0.61212 -2.443439,-0.91817 -3.05429,-0.40807 -4.47961,-0.10207 -2.239821,-0.10206 -3.766943,1.42825 -5.701339,6.63119 -0.712671,2.55045 -0.407238,2.24438 -1.934371,4.18275 -1.221738,3.9787 -0.610839,4.28478 v 0.91815 l -2.952483,4.48882 -1.628955,3.3666 v 4.79485 l 0.509045,9.89571 0.916289,3.57088 1.832578,3.2645 2.341609,2.1424 1.01809,4.1829 3.868776,8.5695 4.581442,5.5087 0.305398,0.3061 1.628969,8.2635 -5.59952,10.202 -1.527141,2.3462 -1.425346,0.9182 -2.239807,-0.3063 -1.323517,0.5104 -1.527149,-0.1012 -1.018095,0.816 -1.934382,-0.51 -1.934379,-0.306 -1.628956,1.0201 -0.407242,1.7342 1.11991,-1.0201 1.730757,-0.3061 v 1.6324 l 2.748866,-0.6119 1.52714,0.1012 2.647047,0.6123 c 0,0 2.341623,0.1012 2.748865,0.1012 0.407244,0 2.850659,0.5099 2.850659,0.5099 h 1.832575 l 0.916287,0.51 1.32352,-0.2039 1.32353,0.8163 h 2.036198 l 0.407218,-1.3263 v -0.7142 l 1.32354,0.6122 1.018093,1.0202 0.610863,1.1223 0.101839,-1.3266 -0.712669,-1.632 c 0,0 -0.509045,-0.9182 -0.916287,-0.9182 -0.40723,0 -1.93438,-0.5103 -1.93438,-0.5103 l -1.11991,0.3062 -1.119896,-0.6124 -1.221715,0.5105 -1.018103,-0.5105 -0.40723,-1.0199 -0.712668,-0.3064 0.610849,-1.8361 1.832577,-4.1826 2.443429,-4.0807 2.138013,-2.5507 0.814472,-1.0199 c 0,0 1.018092,-1.5303 1.018092,-1.9383 0,-0.4083 0.203629,-4.6928 0.203629,-4.6928 l -1.32353,-2.7547 -0.610852,-2.2444 11.809908,2.8567 h 0.712677 l 10.079134,7.2432 1.425336,1.8364 0.509046,7.0391 -0.203627,1.6325 -0.712667,1.3261 -0.814473,0.8161 -0.305427,1.4281 -0.407252,0.7144 -1.934368,0.3058 -1.83259,-0.612 -1.1199,-0.3061 h -2.137988 l -1.018103,0.816 -0.509046,1.1223 0.101829,1.2244 0.61085,-1.1223 0.712668,-0.7141 0.61085,-0.1012 -0.101828,1.0201 0.71268,0.6121 1.730762,-0.5101 h 0.814459 l 0.101828,1.1223 2.443429,0.3061 1.730759,-0.3061 1.323519,0.4079 1.934393,0.51 0.712669,-0.1012 0.610839,-0.4079 0.610873,1.9382 0.305414,-2.0406 -0.509035,-2.4483 -1.11991,-0.9181 0.40723,-1.5304 -0.916276,-1.7341 0.101839,-6.4273 5.090476,6.0192 6.719443,5.3049 c 0,0 4.581428,1.6324 4.988658,1.6324 0.407242,0 3.563338,-0.4081 3.563338,-0.4081 l 2.036184,-3.3665 -1.52714,-4.591 0.610861,-1.5303 -3.257908,-4.2845 -6.901547,-7.0273 -1.650461,-5.5211 0.101839,-3.7747 -1.527138,-3.9788 -1.730749,-3.1625 1.018082,-3.1626 -0.814459,-4.5906 -3.471946,-7.81532 1.282515,-0.21644 -2.152432,-3.72617 1.398448,-0.4439 -2.458316,-4.00742 1.033985,-0.5574 -1.842641,-3.0252 0.600764,-0.33635 -2.229731,-1.80602 0.814473,-0.42325 -5.803131,-4.06557 z"
       style="fill:#000000;fill-opacity:1;stroke:none;stroke-width:1.52963" />
  </g>
</svg>
