<svg xmlns="http://www.w3.org/2000/svg" width="48" height="48"><rect width="48" height="48" fill="#4358d8" ry="8"/><path fill="#fff" fill-rule="evenodd" d="M13.95 6.32a1.15 1.15 0 1 1 2-1.16l2.45 4.25.1.02 5.64 1.51a1.15 1.15 0 0 1-.6 2.23l-5.1-1.36-1.36 5.08a1.15 1.15 0 1 1-2.23-.6l1.52-5.63c0-.04.02-.07.03-.1zm11.96 18.42a4.65 4.65 0 1 0-4.66-8.06 4.65 4.65 0 0 0 4.66 8.06zm-1.2-2.04a2.3 2.3 0 1 0-2.3-3.99 2.3 2.3 0 0 0 2.3 3.99zm-6.77 1.28a4.65 4.65 0 1 1-8.05 4.66 4.65 4.65 0 0 1 8.05-4.66zm-2.08 1.14a2.3 2.3 0 1 1-3.98 2.3 2.3 2.3 0 0 1 3.98-2.3zm10.85 11.46a4.65 4.65 0 1 0-4.65-8.05 4.65 4.65 0 0 0 4.65 8.05zm-1.24-2.09a2.3 2.3 0 1 0-2.3-3.98 2.3 2.3 0 0 0 2.3 3.98zm12.64 1.95a4.65 4.65 0 1 1-8.06 4.65 4.65 4.65 0 0 1 8.06-4.65zm-2.06 1.15a2.3 2.3 0 1 1-3.99 2.3 2.3 2.3 0 0 1 3.99-2.3zm.36-6.6a4.65 4.65 0 1 0-4.65-8.06 4.65 4.65 0 0 0 4.65 8.05zm-1.16-2.06a2.3 2.3 0 1 0-2.3-3.98 2.3 2.3 0 0 0 2.3 3.98zm2.06-16.15a4.65 4.65 0 1 1-8.05 4.65 4.65 4.65 0 0 1 8.05-4.65zm-2.08 1.12a2.3 2.3 0 1 1-3.98 2.3 2.3 2.3 0 0 1 3.98-2.3z" clip-rule="evenodd"/></svg>
