<?xml version="1.0" standalone="no"?>
<!DOCTYPE svg PUBLIC "-//W3C//DTD SVG 20010904//EN"
 "http://www.w3.org/TR/2001/REC-SVG-20010904/DTD/svg10.dtd">
<svg version="1.0" xmlns="http://www.w3.org/2000/svg"
 width="512.000000pt" height="512.000000pt" viewBox="0 0 512.000000 512.000000"
 preserveAspectRatio="xMidYMid meet">

<g transform="translate(0.000000,512.000000) scale(0.100000,-0.100000)"
fill="#1974fc" stroke="none">
<path d="M2270 4885 c-713 -89 -1355 -508 -1721 -1126 -172 -290 -283 -621
-318 -951 -14 -125 -14 -371 0 -496 35 -329 156 -687 323 -962 357 -584 924
-971 1616 -1102 136 -25 505 -36 648 -18 921 113 1672 722 1962 1589 84 250
120 475 120 741 0 266 -36 491 -120 740 -119 356 -302 654 -559 910 -389 387
-879 623 -1413 680 -130 13 -408 11 -538 -5z m431 -1143 c173 -48 312 -194
354 -373 54 -230 -62 -468 -280 -575 l-80 -39 -135 0 -135 0 -80 39 c-156 76
-264 223 -288 391 -35 243 123 489 357 556 82 23 204 24 287 1z m-6 -1292 c97
-9 166 -20 310 -50 116 -24 327 -116 435 -190 78 -54 164 -145 202 -215 33
-59 33 -62 36 -215 3 -139 1 -161 -18 -212 -27 -72 -92 -141 -168 -176 l-57
-27 -865 0 -865 0 -57 28 c-70 35 -141 112 -165 182 -14 39 -18 83 -18 196 l0
145 37 75 c97 195 350 350 694 424 185 40 330 50 499 35z"/>
</g>
</svg>
