<?xml version="1.0" encoding="utf-8"?>
<!-- Generator: Adobe Illustrator 22.0.0, SVG Export Plug-In . SVG Version: 6.00 Build 0)  -->
<svg version="1.1" id="Layer_1" xmlns="http://www.w3.org/2000/svg" xmlns:xlink="http://www.w3.org/1999/xlink" x="0px" y="0px"
	 viewBox="0 0 66 66" style="enable-background:new 0 0 66 66;" xml:space="preserve">
<style type="text/css">
	.st0{fill:#00B340;}
</style>
<g>
	<path class="st0" d="M0.5,26.9c0.3-0.1,0.6-0.2,0.8-0.3l9.5-5.9c0.2-0.1,0.3-0.3,0.5-0.4V7.6h10.2v6.5l11-6.7l32,19.6l-5.3,8.6
		l-5.5-3.3h-0.2c0,0,0,0.1,0,0.1v25.6c-1.1,0.3-38.3,0.4-42,0.1v-0.5c0-8.4,0-16.7,0-25.1l-0.1-0.2l-5.8,3.3l-2.1-3.4
		c-0.9-1.5-1.9-3-2.8-4.5c-0.1-0.1-0.2-0.3-0.3-0.4V26.9z"/>
</g>
</svg>
