<?xml version="1.0" encoding="UTF-8"?>
<svg version="1.1" xmlns="http://www.w3.org/2000/svg" width="1200" height="1200">
<path d="M0 0 C1.14533203 -0.02900391 2.29066406 -0.05800781 3.47070312 -0.08789062 C13.8551676 -0.16420382 24.41101889 1.61249148 32.6875 8.3125 C33.27015625 8.76625 33.8528125 9.22 34.453125 9.6875 C42.56972818 16.23534794 46.92139502 25.10231873 48.6875 35.3125 C49.25393507 43.44517555 48.09581232 51.15578037 46.6237793 59.13330078 C46.40426605 60.3658107 46.18475281 61.59832062 45.95858765 62.86817932 C45.35989042 66.21905109 44.75284342 69.56819869 44.14192557 72.91684961 C43.49977944 76.44835841 42.8686469 79.98183529 42.23628235 83.5151062 C41.03624972 90.2107431 39.82658294 96.90460079 38.61332589 103.59785259 C37.24418563 111.15357715 35.88543448 118.71115715 34.52775323 126.26894784 C32.63224108 136.82030844 30.73262154 147.37091145 28.82549667 157.92017937 C25.02573792 178.92318148 25.02573792 178.92318148 21.38294983 199.95385742 C20.82780804 203.22521831 20.25896983 206.49417079 19.69018555 209.76318359 C19.39437797 211.47634093 19.10277496 213.19022909 18.81518555 214.90478516 C16.3140608 229.78218938 13.10671641 243.36778912 0.6875 253.3125 C-9.93524331 259.94255703 -23.51277992 261.82122187 -35.75 263.25 C-55.10443829 265.62035187 -75.66657058 272.08196458 -93.3125 280.3125 C-94.01922852 280.6420166 -94.72595703 280.9715332 -95.45410156 281.31103516 C-112.88153662 289.52127747 -129.22001481 299.31309681 -144.3125 311.3125 C-145.22 312.02792969 -146.1275 312.74335937 -147.0625 313.48046875 C-164.9151401 327.80822678 -182.37742427 344.12243931 -196.3125 362.3125 C-197.22057447 363.4350375 -198.13230501 364.55462328 -199.046875 365.671875 C-216.75471404 387.35648683 -231.77010209 410.57034931 -245.625 434.8671875 C-248.96154477 440.71830533 -252.37046447 446.52297188 -255.8125 452.3125 C-261.16666325 461.33350373 -266.42397147 470.40784387 -271.65625 479.5 C-275.85015663 486.78551336 -280.07013183 494.05510791 -284.3125 501.3125 C-289.1736155 509.62996671 -294.00398226 517.96451663 -298.8125 526.3125 C-304.1916408 535.65113207 -309.60509447 544.96890317 -315.04296875 554.2734375 C-319.32472164 561.60533796 -323.57449767 568.95523622 -327.8125 576.3125 C-336.29161304 591.02830701 -344.84225124 605.7016826 -353.44140625 620.34765625 C-362.17872076 635.23015615 -370.85893786 650.14326357 -379.46533203 665.10205078 C-391.10622542 685.33437276 -402.82037752 705.52227936 -414.6171875 725.6640625 C-414.98323593 726.28906647 -415.34928436 726.91407043 -415.72642517 727.55801392 C-417.56794236 730.70149581 -419.41102433 733.84404434 -421.25708008 736.98486328 C-424.30409847 742.17014854 -427.34750149 747.35647773 -430.33203125 752.578125 C-434.77018038 760.32161185 -439.29478426 767.66840492 -445.3125 774.3125 C-446.10914063 775.20195313 -446.90578125 776.09140625 -447.7265625 777.0078125 C-464.68438014 794.96609136 -488.43869618 805.53850351 -513.18603134 806.41417885 C-516.50758496 806.46304626 -519.82799599 806.48188113 -523.14990234 806.48950195 C-524.40816833 806.49607315 -525.66643433 806.50264435 -526.96282959 806.50941467 C-531.10801965 806.53028498 -535.25320934 806.54080494 -539.3984375 806.55078125 C-540.83715456 806.55483597 -542.27587145 806.55895309 -543.71458817 806.56313133 C-550.48223144 806.58215014 -557.24986409 806.59638482 -564.01752889 806.6047433 C-571.77364754 806.61448621 -579.52947859 806.64074214 -587.28549612 806.68124419 C-593.31650006 806.71163349 -599.34742265 806.72623375 -605.37850153 806.72952431 C-608.96341648 806.73185 -612.54802317 806.7404787 -616.13285446 806.76598549 C-648.65044381 806.98511433 -673.66090028 801.90201219 -698.23046875 779.51171875 C-706.50848502 771.21685441 -712.68953754 761.82247404 -718.4375 751.6875 C-719.54802974 749.75626925 -720.6621702 747.82715048 -721.77645874 745.89808655 C-722.52906731 744.59464722 -723.2805548 743.29055994 -724.03091431 741.98582458 C-727.58311291 735.81500992 -731.25160735 729.71677177 -734.9375 723.625 C-740.78527845 713.93155332 -746.47356301 704.15332154 -752.11206055 694.33691406 C-755.60616267 688.25757233 -759.13108313 682.20463032 -762.76025391 676.20483398 C-766.5668067 669.90978442 -770.31420349 663.5798599 -774.0625 657.25 C-774.40865356 656.66555115 -774.75480713 656.08110229 -775.1114502 655.47894287 C-782.37569165 643.21319641 -789.62701786 630.93982172 -796.87597656 618.66503906 C-803.68876933 607.12950134 -810.51074031 595.59945609 -817.34243774 584.07510376 C-822.36484223 575.60263855 -827.37990512 567.12588565 -832.38769531 558.64477539 C-835.2795532 553.74851509 -838.17598749 548.85501911 -841.078125 543.96484375 C-848.04445798 532.22526665 -854.98384543 520.47134299 -861.875 508.6875 C-867.13329876 499.69595223 -872.43764535 490.7351017 -877.8125 481.8125 C-883.35052856 472.61735281 -888.82206948 463.38540027 -894.25 454.125 C-894.59740234 453.53283691 -894.94480469 452.94067383 -895.30273438 452.33056641 C-899.12574488 445.81142325 -902.92442651 439.27823644 -906.69140625 432.7265625 C-907.33795166 431.60330566 -907.98449707 430.48004883 -908.65063477 429.32275391 C-913.9960029 419.64031096 -914.91545678 409.76752121 -912.57421875 398.87890625 C-906.87369444 381.61149987 -893.03417743 374.13966269 -878.03369141 365.82910156 C-874.10724875 363.64077734 -870.24142366 361.3546308 -866.375 359.0625 C-864.99492307 358.25107856 -863.61471745 357.43987594 -862.234375 356.62890625 C-858.51914085 354.43924695 -854.81980008 352.22392255 -851.125 350 C-839.79862008 343.18270024 -828.40901113 336.46979249 -817.00390625 329.78515625 C-808.72088646 324.92938523 -800.47661893 320.01332699 -792.25 315.0625 C-781.84205737 308.8015772 -771.3753942 302.64841662 -760.87109375 296.55078125 C-757.35083745 294.50592204 -753.84230726 292.44377891 -750.34765625 290.35546875 C-749.58582031 289.90147705 -748.82398438 289.44748535 -748.0390625 288.97973633 C-746.66547358 288.15951903 -745.29410074 287.33556992 -743.92578125 286.5065918 C-735.98267214 281.77264061 -729.26796394 278.59254666 -719.875 278.8125 C-719.04242676 278.82458496 -718.20985352 278.83666992 -717.35205078 278.84912109 C-711.00264 279.05402091 -705.83962801 280.04278874 -700.3125 283.3125 C-699.52617188 283.75980469 -698.73984375 284.20710938 -697.9296875 284.66796875 C-689.960488 289.5731031 -685.11198419 296.13921208 -680.5625 304.1875 C-679.69418093 305.6928067 -678.8256863 307.19801215 -677.95703125 308.703125 C-677.51955566 309.46689453 -677.08208008 310.23066406 -676.63134766 311.01757812 C-674.53060272 314.67307653 -672.39028558 318.30505816 -670.25 321.9375 C-669.83306885 322.64672607 -669.4161377 323.35595215 -668.98657227 324.08666992 C-666.34752004 328.57187528 -663.68371248 333.04139711 -661 337.5 C-654.18268966 348.82637333 -647.46979236 360.21598909 -640.78515625 371.62109375 C-635.99087347 379.79934278 -631.13838551 387.94009388 -626.25 396.0625 C-620.60615263 405.44433925 -615.03036229 414.86346437 -609.5 424.3125 C-609.13584991 424.93463379 -608.77169983 425.55676758 -608.39651489 426.19775391 C-606.03380014 430.23519844 -603.6730291 434.27377733 -601.3125 438.3125 C-594.69585216 449.62786342 -587.98603823 460.88514017 -581.22412109 472.11425781 C-580.29140381 473.6645166 -580.29140381 473.6645166 -579.33984375 475.24609375 C-578.78031006 476.17478271 -578.22077637 477.10347168 -577.64428711 478.06030273 C-576.82148094 479.45175772 -576.0354325 480.86663501 -575.3125 482.3125 C-570.9439097 475.97746314 -567.04644144 469.47529462 -563.3125 462.75 C-557.02832373 451.53363972 -550.57837314 440.42108228 -544.07861328 429.32861328 C-541.1499386 424.32711384 -538.23167954 419.31954524 -535.3125 414.3125 C-531.826369 408.33467921 -528.33925772 402.35744001 -524.84765625 396.3828125 C-518.80683307 386.04266472 -512.79064984 375.68902538 -506.8125 365.3125 C-500.26084264 353.94051357 -493.65992075 342.59803962 -487.03759766 331.26708984 C-484.74338518 327.33777208 -482.45601886 323.4044857 -480.16821289 319.47143555 C-477.82543711 315.44915822 -475.47346944 311.43227954 -473.12207031 307.41503906 C-471.28738639 304.26944228 -469.46766925 301.11549113 -467.6484375 297.9609375 C-453.28877665 273.21756825 -437.50366662 249.18804507 -420.3125 226.3125 C-419.88646484 225.74305664 -419.46042969 225.17361328 -419.02148438 224.58691406 C-405.82410368 207.00751038 -391.68634964 190.11100534 -376.76171875 173.9765625 C-374.74376221 171.78159223 -372.76446555 169.5658379 -370.8125 167.3125 C-357.72130637 152.27489389 -357.72130637 152.27489389 -350.33984375 146.0859375 C-347.88060525 143.93469611 -345.60696992 141.63840102 -343.3125 139.3125 C-339.87068765 135.83944578 -336.38920342 132.50662972 -332.671875 129.33203125 C-330.79021113 127.72140175 -328.93072013 126.0928386 -327.078125 124.44921875 C-318.48605335 116.85978755 -309.60668483 109.77294887 -300.43115234 102.90332031 C-298.34820709 101.33931118 -296.27640459 99.76159523 -294.20703125 98.1796875 C-285.46911982 91.52323744 -276.53084418 85.28368854 -267.3125 79.3125 C-266.39339844 78.71050781 -265.47429688 78.10851562 -264.52734375 77.48828125 C-245.8385598 65.39553869 -226.21152596 54.5629469 -205.88671875 45.4765625 C-203.60967952 44.44688467 -201.40117375 43.34514975 -199.1875 42.1875 C-195.28296616 40.20242187 -191.22799583 38.76755087 -187.1015625 37.3125 C-184.47687007 36.37143381 -181.89541176 35.36206414 -179.3125 34.3125 C-174.92196258 32.53405446 -170.48733775 30.91149527 -166.02734375 29.31640625 C-163.44332535 28.36087714 -160.91398388 27.31840442 -158.375 26.25 C-153.73639421 24.36348568 -149.04700078 23.14339883 -144.171875 22.0234375 C-141.15006865 21.27211406 -138.26518865 20.30251914 -135.3125 19.3125 C-107.4129874 10.65403057 -78.4316923 6.05119023 -49.4375 2.9375 C-48.3281459 2.81805527 -48.3281459 2.81805527 -47.19638062 2.69619751 C-31.50783473 1.03855891 -15.77649929 0.13545935 0 0 Z " fill="#7022D9" transform="translate(999.3125,201.6875)"/>
<path d="M0 0 C0.83257324 0.01208496 1.66514648 0.02416992 2.52294922 0.03662109 C8.87236 0.24152091 14.03537199 1.23028874 19.5625 4.5 C20.34882813 4.94730469 21.13515625 5.39460938 21.9453125 5.85546875 C29.914512 10.7606031 34.76301581 17.32671208 39.3125 25.375 C40.18081907 26.8803067 41.0493137 28.38551215 41.91796875 29.890625 C42.35544434 30.65439453 42.79291992 31.41816406 43.24365234 32.20507812 C45.34439728 35.86057653 47.48471442 39.49255816 49.625 43.125 C50.04193115 43.83422607 50.4588623 44.54345215 50.88842773 45.27416992 C53.52747996 49.75937528 56.19128752 54.22889711 58.875 58.6875 C65.69231034 70.01387333 72.40520764 81.40348909 79.08984375 92.80859375 C83.88412653 100.98684278 88.73661449 109.12759388 93.625 117.25 C99.26884737 126.63183925 104.84463771 136.05096437 110.375 145.5 C110.73915009 146.12213379 111.10330017 146.74426758 111.47848511 147.38525391 C113.84119986 151.42269844 116.2019709 155.46127733 118.5625 159.5 C123.65054994 168.2012541 128.7820068 176.87302141 133.98388672 185.50683594 C139.77847035 195.12633717 145.47756473 204.78436042 151.01000977 214.55688477 C154.85990991 221.33176301 158.84770008 228.01679859 162.875 234.6875 C168.82830218 244.54837504 174.6269287 254.48947493 180.36303711 264.47802734 C183.83195985 270.51407157 187.3357444 276.51998178 190.94433594 282.47363281 C194.55061864 288.44027192 198.06174883 294.46236524 201.57995605 300.48117065 C204.9001137 306.15842799 208.23009189 311.82992692 211.5625 317.5 C211.91602539 318.10179077 212.26955078 318.70358154 212.63378906 319.3236084 C214.97435659 323.30544738 217.3280513 327.27930801 219.6875 331.25 C220.27805176 332.25401855 220.86860352 333.25803711 221.47705078 334.29248047 C225.1168325 340.39188167 229.10615546 345.97531981 233.5625 351.5 C234.41712069 352.64549474 235.27137186 353.79126542 236.125 354.9375 C248.46450217 369.00714401 268.38845074 377.29766526 286.5625 379.5 C310.13330716 380.90824607 332.37658872 375.11034904 350.5625 359.5 C353.43312544 356.64203908 356.07615297 353.6967319 358.5625 350.5 C359.2225 350.83 359.8825 351.16 360.5625 351.5 C359.64453125 353.09114583 358.7265625 354.68229167 357.80859375 356.2734375 C356.90959351 357.83179321 356.90959351 357.83179321 355.99243164 359.42163086 C354.6441673 361.75850123 353.29572613 364.09526859 351.94702148 366.43188477 C348.55608559 372.30722771 345.16795939 378.18412695 341.7890625 384.06640625 C335.47598656 395.04830026 329.10482988 405.99055924 322.625 416.875 C317.05030546 426.23926087 311.5788112 435.65439973 306.1875 445.125 C294.17277831 466.22108323 294.17277831 466.22108323 288.5625 475.5 C288.18577148 476.12535645 287.80904297 476.75071289 287.42089844 477.39501953 C282.51025774 485.48399407 277.17112299 492.68177517 270.5625 499.5 C269.77359375 500.39912109 269.77359375 500.39912109 268.96875 501.31640625 C254.35118919 517.3882652 230.73814878 525.7984001 209.5625 527.5 C205.2833382 527.65141656 201.00666956 527.66717956 196.72509766 527.67700195 C195.46683167 527.68357315 194.20856567 527.69014435 192.91217041 527.69691467 C188.76698035 527.71778498 184.62179066 527.72830494 180.4765625 527.73828125 C179.03784544 527.74233597 177.59912855 527.74645309 176.16041183 527.75063133 C169.39276856 527.76965014 162.62513591 527.78388482 155.85747111 527.7922433 C148.10135246 527.80198621 140.34552141 527.82824214 132.58950388 527.86874419 C126.55849994 527.89913349 120.52757735 527.91373375 114.49649847 527.91702431 C110.91158352 527.91935 107.32697683 527.9279787 103.74214554 527.95348549 C71.22455619 528.17261433 46.21409972 523.08951219 21.64453125 500.69921875 C13.36651498 492.40435441 7.18546246 483.00997404 1.4375 472.875 C0.32697026 470.94376925 -0.7871702 469.01465048 -1.90145874 467.08558655 C-2.65406731 465.78214722 -3.4055548 464.47805994 -4.15591431 463.17332458 C-7.70811291 457.00250992 -11.37660735 450.90427177 -15.0625 444.8125 C-20.91027845 435.11905332 -26.59856301 425.34082154 -32.23706055 415.52441406 C-35.73116267 409.44507233 -39.25608313 403.39213032 -42.88525391 397.39233398 C-46.6918067 391.09728442 -50.43920349 384.7673599 -54.1875 378.4375 C-54.53365356 377.85305115 -54.87980713 377.26860229 -55.2364502 376.66644287 C-62.50069165 364.40069641 -69.75201786 352.12732172 -77.00097656 339.85253906 C-83.81376933 328.31700134 -90.63574031 316.78695609 -97.46743774 305.26260376 C-102.48984223 296.79013855 -107.50490512 288.31338565 -112.51269531 279.83227539 C-115.4045532 274.93601509 -118.30098749 270.04251911 -121.203125 265.15234375 C-128.16945798 253.41276665 -135.10884543 241.65884299 -142 229.875 C-147.25829876 220.88345223 -152.56264535 211.9226017 -157.9375 203 C-163.47552856 193.80485281 -168.94706948 184.57290027 -174.375 175.3125 C-174.72240234 174.72033691 -175.06980469 174.12817383 -175.42773438 173.51806641 C-179.25074488 166.99892325 -183.04942651 160.46573644 -186.81640625 153.9140625 C-187.46295166 152.79080566 -188.10949707 151.66754883 -188.77563477 150.51025391 C-194.1210029 140.82781096 -195.04045678 130.95502121 -192.69921875 120.06640625 C-186.99869444 102.79899987 -173.15917743 95.32716269 -158.15869141 87.01660156 C-154.23224875 84.82827734 -150.36642366 82.5421308 -146.5 80.25 C-145.11992307 79.43857856 -143.73971745 78.62737594 -142.359375 77.81640625 C-138.64414085 75.62674695 -134.94480008 73.41142255 -131.25 71.1875 C-119.92362008 64.37020024 -108.53401113 57.65729249 -97.12890625 50.97265625 C-88.84588646 46.11688523 -80.60161893 41.20082699 -72.375 36.25 C-61.96705737 29.9890772 -51.5003942 23.83591662 -40.99609375 17.73828125 C-37.47583745 15.69342204 -33.96730726 13.63127891 -30.47265625 11.54296875 C-29.71082031 11.08897705 -28.94898438 10.63498535 -28.1640625 10.16723633 C-26.79047358 9.34701903 -25.41910074 8.52306992 -24.05078125 7.6940918 C-16.10767214 2.96014061 -9.39296394 -0.21995334 0 0 Z " fill="#7832FE" transform="translate(279.4375,480.5)"/>
<path d="M0 0 C0.6796582 0.18191895 1.35931641 0.36383789 2.05957031 0.55126953 C12.32691071 3.38529861 21.69399544 7.91711946 31 13 C31.64501465 13.35078613 32.2900293 13.70157227 32.95458984 14.06298828 C42.601386 19.38493824 50.7919068 25.68359381 59 33 C60.28914098 34.06556302 61.58028786 35.12871319 62.875 36.1875 C87.94104606 57.87454475 103.90535941 94.19952604 106.83886719 126.64111328 C107.92980442 142.61177324 107.21098554 158.31893026 104 174 C103.86609863 174.66644531 103.73219727 175.33289063 103.59423828 176.01953125 C98.39138403 200.79142396 84.38370593 223.89543864 67 242 C66.54318848 242.49322754 66.08637695 242.98645508 65.61572266 243.49462891 C49.10526481 261.30926497 28.91765144 273.32347048 6 281 C4.88367188 281.38027344 3.76734375 281.76054688 2.6171875 282.15234375 C-34.28833774 293.71258511 -73.94067949 288.39784902 -108 271 C-144.27389104 251.57825959 -168.64030749 218.90315645 -180.55859375 180.01171875 C-181.04605205 178.34317193 -181.52704825 176.67271657 -182 175 C-182.19352051 174.3188916 -182.38704102 173.6377832 -182.58642578 172.93603516 C-192.18992529 136.9343775 -182.38636551 96.58955275 -164.25537109 65.07861328 C-161.23178961 60.07223975 -157.70205204 55.52399965 -154 51 C-152.95779297 49.63875 -152.95779297 49.63875 -151.89453125 48.25 C-129.87266619 20.01066848 -95.25509494 1.06138087 -59.890625 -3.61328125 C-40.14263827 -5.53442632 -19.165318 -5.28893243 0 0 Z " fill="#681ED3" transform="translate(1003,573)"/>
</svg>
