<svg version="1.0" xmlns="http://www.w3.org/2000/svg" width="1365.333" height="1365.333" viewBox="0 0 1024 1024"><g fill="#60f95c"><path d="M0 512v512h1025V0H0v512zm558-323.5c47.4 5.4 87 16.7 129.7 37 57.4 27.3 106.1 71.2 135.4 122.1 33.9 58.8 40.4 131.7 17.4 193.9-8.6 23.3-25.9 52.8-44 75.3-35.8 44.3-89.2 90.9-163 142.2-49.8 34.6-101.5 66.3-120.9 74-14.6 5.9-23.6 6.3-28.2 1.3-3.9-4.2-3.9-9.2-.3-30.5 2.7-15.5 3.4-22 3.4-33.3 0-16.3-.9-18.9-8.7-24.1-6.7-4.5-15-7-32.8-10-41-6.8-84.5-21.1-119.5-39.3-15.5-8-41.2-24.8-55.3-36-12.6-10-34.5-31.7-43.5-43.1-8.9-11.2-20.8-28.4-26.8-38.8-14.4-25.2-25.4-59.6-29-91.1-1.7-15.5-.7-47.5 2.1-63.1 11.9-67.4 49.8-123.7 115.5-171.7 25.3-18.5 72.1-40.8 106.4-50.7 29.9-8.7 52.5-12.6 93.1-16 9.8-.8 56.3.4 69 1.9z"/><path d="m285.3 392.7-2.3 2.2v152.2l2.5 2.4 2.4 2.5h99.2l2.4-2.5c2.4-2.3 2.5-2.9 2.5-16.5 0-12.7-.2-14.2-2-16-1.9-1.9-3.3-2-36-2h-34v-60.3c0-46.7-.3-60.7-1.2-62-1.1-1.4-3.7-1.7-16.3-1.9-14.3-.3-15.1-.2-17.2 1.9zM414 392.9c-.7 1.3-1 27.7-1 78.5 0 75.3 0 76.6 2 78.6 1.8 1.8 3.3 2 15.8 2 10.8 0 14.2-.3 16-1.6l2.2-1.5v-77.8c0-59.1-.3-78-1.2-78.9-.8-.8-6-1.2-17-1.2-14.5 0-15.8.1-16.8 1.9zM474.6 393.2c-1.4 2-1.6 11.1-1.6 78.1v75.8l2.5 2.4c2.3 2.4 2.9 2.5 15.8 2.5 12.1 0 13.7-.2 16.1-2.1l2.6-2v-45c0-24.7.3-44.9.8-44.9.8.1 8.8 10.7 31 41.2 20.7 28.3 37.1 50.1 39 51.5 2.5 2 28.1 1.8 31-.3l2.2-1.5v-77.8c0-59.1-.3-78-1.2-78.9-.8-.8-6-1.2-16.8-1.2s-16 .4-16.8 1.2c-.9.9-1.2 12.6-1.2 46.5 0 25.5-.4 45.3-.9 45.3s-3.7-3.9-7.2-8.8c-3.4-4.8-11.5-15.7-18-24.2-6.4-8.5-18.1-24.3-25.9-35-7.8-10.7-15.4-20.7-16.8-22.3l-2.6-2.7h-15.2c-14.7 0-15.4.1-16.8 2.2zM639.7 392.8c-1.6 1.7-1.7 8.6-1.7 78.3 0 42 .4 76.9.8 77.5 2.1 3.2 5.2 3.4 53.9 3.4 42.6 0 49.1-.2 51.1-1.6 2.1-1.4 2.2-2.1 2.2-16.8 0-13.5-.2-15.5-1.8-16.9-1.7-1.5-5.6-1.7-35.5-1.7H675v-26h33.9c29.5 0 34.2-.2 35.5-1.6 1.3-1.3 1.6-4.3 1.6-16.9 0-11.2-.3-15.6-1.2-16.2-.7-.4-16.6-1-35.3-1.3l-34-.5-.3-12.8-.3-12.7h33.9c31.6 0 34-.1 35.5-1.8 1.4-1.6 1.7-4.3 1.7-16.8 0-10.3-.4-15.4-1.2-16.2-.9-.9-13.9-1.2-52.3-1.2-48.3 0-51.3.1-52.8 1.8z"/></g></svg>