<?xml version="1.0" encoding="utf-8"?>
<!-- Generator: Adobe Illustrator 27.1.1, SVG Export Plug-In . SVG Version: 6.00 Build 0)  -->
<svg version="1.1" id="Layer_1" xmlns="http://www.w3.org/2000/svg" xmlns:xlink="http://www.w3.org/1999/xlink" x="0px" y="0px"
	 viewBox="0 0 200 200" style="enable-background:new 0 0 200 200;" xml:space="preserve">
<style type="text/css">
	.st0{fill:#9187F6;}
	.st1{fill:#8313DD;}
</style>
<g>
	<path class="st0" d="M68.2,28.9c3-2.5,7.1-2.5,10.1,0.5c7.1,7.1,14.7,14.7,21.8,21.8L89.5,62.4L75.8,48.7c-1.5-1.5-3.6-1.5-5.6-0.5
		c0,0,0,0-0.5,0.5c-16.2,15.7-32,32-48.2,48.2c-1.5,1.5-2,4.1-0.5,5.6l0.5,0.5c15.2,15.2,30.4,30.4,45.7,45.7c1,1.5,2.5,2.5,4.1,3.6
		c1.5,0.5,3.6,0,4.6-1L89,138l10.7,11.2l-20.3,20.3c-1.5,1.5-3,2.5-4.6,3.6c-3,1-6.1,0-8.1-2c-21.3-21.3-43.1-43.1-64.4-64.4
		c-3-3-3-8.1,0-11.2l0,0C24.6,72.5,46.4,50.7,68.2,28.9L68.2,28.9z"/>
	<path class="st1" d="M122,28.9c3-3,8.1-3,11.2,0l0,0l64.4,64.4c2,2,3,5.1,2,8.1c-1,2-2.5,3.6-4.1,5.1l-60.4,60.9
		c-1.5,1.5-3,3-5.1,4.1c-3,1-6.1,0-8.1-2l-21.8-21.3l-10.7-10.7L57.1,105c-3-3-3-8.1,0-10.7l0,0l32-32l11.2-11.2
		C107.3,43.6,114.9,36.5,122,28.9L122,28.9z"/>
</g>
</svg>
