<svg height="1024" viewBox="0 0 136 129" width="1024" xmlns="http://www.w3.org/2000/svg"><path d="m47.8903288 48.2641509s.0599998 8.5394717 4.4447801 17.3713585c4.5047799 8.501434 10.715952 13.9622264 15.8399291 16.1375095 5.2943763-2.4748302 10.4087534-6.770717 13.1999409-11.399434h-14.5343349c-3.7607832-3.116717-6.7199699-8.2874717-7.3991669-14.2641509h42.6382089c-2.1023904 9.609283-6.5639704 18.3484528-10.8143514 23.913849-5.8994592 7.716636-13.8988515 13.6060002-23.0590967 16.976717h-.1343994c-15.2927316-6.0931698-23.5198947-15.690566-28.9486704-26.519434-3.4823844-6.9395094-7.1231681-19.5395094-7.1231681-36.480566h72c.011637 4.7709414-.309125 9.5370029-.960318 14.2641509z" fill="#111820"/></svg>