<svg height="80" width="80" xmlns="http://www.w3.org/2000/svg"><mask id="a" fill="#fff"><path d="M64.271 0C72.891.035 79.94 7.068 80 15.681V64.32C79.938 72.954 72.855 80 64.206 80H15.794C7.107 80 0 72.893 0 64.206V15.794C0 7.129 7.072.036 15.729 0z" fill-rule="evenodd"/></mask><mask id="b" fill="#fff"><path d="M59.475 73.5c-1.259.326-2.578.5-3.936.5H7.127c-2.522 0-4.912-.6-7.033-1.663V.52h59.381z" fill-rule="evenodd"/></mask><g fill="none" fill-rule="evenodd"><path d="M64.206 80H15.794C7.108 80 0 72.893 0 64.206V15.793C0 7.107 7.108 0 15.794 0h48.412C72.893 0 80 7.107 80 15.793v48.413C80 72.893 72.893 80 64.206 80" fill="#eb6226" mask="url(#a)"/><path d="M6.741 74C6.176 62.12 4.73 50.377 1.114 38.99c-2.693-8.485-.082-15.11 8.17-18.365 4.657-1.837 9.79-2.717 14.792-3.355 4.24-.54 9.04-.136 13.246-.136 0 0-.13-.778-.178-.962-.64-2.46-1.32-4.912-1.968-7.372-.99-3.76.226-6.215 3.61-7.323 5.83-1.91 8.632-1.03 10.152 3.277.848 2.4 1.541 4.853 2.36 7.264C57.646 30.703 60.805 54.22 58.948 74" fill="#fefefe" mask="url(#b)" transform="translate(8.667 6)"/><path d="M25.069 57.37s3.46 3 12.294 3c12 0 19.834-10 19.834-10" stroke="#eb6226" stroke-linecap="round" stroke-width="4"/><g fill="#eb6226"><path d="M26.748 44.538a3.166 3.166 0 1 1-6.332 0 3.166 3.166 0 0 1 6.332 0M54.819 37.323a3.166 3.166 0 1 1-5.953 2.16 3.166 3.166 0 0 1 5.953-2.16"/></g></g></svg>