<?xml version="1.0" encoding="UTF-8" standalone="no"?><!DOCTYPE svg PUBLIC "-//W3C//DTD SVG 1.1//EN" "http://www.w3.org/Graphics/SVG/1.1/DTD/svg11.dtd"><svg width="100%" height="100%" viewBox="0 0 800 800" version="1.1" xmlns="http://www.w3.org/2000/svg" xmlns:xlink="http://www.w3.org/1999/xlink" xml:space="preserve" xmlns:serif="http://www.serif.com/" style="fill-rule:evenodd;clip-rule:evenodd;stroke-linejoin:round;stroke-miterlimit:2;"><rect id="Artboard1" x="0" y="0" width="800" height="800" style="fill:none;"/><clipPath id="_clip1"><rect id="Artboard11" serif:id="Artboard1" x="0" y="0" width="800" height="800"/></clipPath><g clip-path="url(#_clip1)"><g><path d="M432.604,68.816c-20.455,-8.447 -43.423,-8.447 -63.879,0c-69.027,28.504 -232.12,95.851 -309.514,127.81c-7.05,2.912 -11.649,9.786 -11.649,17.414c0,7.628 4.599,14.503 11.649,17.414c77.394,31.959 240.487,99.306 309.514,127.81c20.456,8.447 43.424,8.447 63.879,0c69.028,-28.504 232.12,-95.851 309.514,-127.81c7.051,-2.911 11.65,-9.786 11.65,-17.414c0,-7.628 -4.599,-14.502 -11.65,-17.414c-77.394,-31.959 -240.486,-99.306 -309.514,-127.81Z" style="fill:#f9bf2f;"/><path d="M450.918,394.021c-14.69,5.569 -24.405,19.642 -24.405,35.352l0,286.221c0,6.529 3.207,12.641 8.58,16.35c5.373,3.709 12.225,4.542 18.33,2.228c69.705,-26.424 255.339,-96.796 322.172,-122.131c14.69,-5.569 24.405,-19.642 24.405,-35.352l0,-286.221c0,-6.529 -3.208,-12.641 -8.581,-16.35c-5.372,-3.709 -12.225,-4.542 -18.33,-2.228c-69.704,26.424 -255.338,96.796 -322.171,122.131Z" style="fill:#41c8fa;"/><path d="M33.403,274.295c-7.514,-2.984 -16.019,-2.052 -22.708,2.489c-6.69,4.541 -10.695,12.101 -10.695,20.186c0,67.206 0,210.858 0,274.603c0,6.83 3.509,13.182 9.291,16.818c5.782,3.637 13.026,4.048 19.183,1.089c69.343,-33.324 246.947,-118.674 324.345,-155.868c6.435,-3.093 10.431,-9.7 10.182,-16.836c-0.25,-7.135 -4.698,-13.447 -11.334,-16.083c-76.2,-30.262 -246.138,-97.753 -318.264,-126.398Z" style="fill:#f72b60;"/><clipPath id="_clip2"><path d="M33.403,274.295c-7.514,-2.984 -16.019,-2.052 -22.708,2.489c-6.69,4.541 -10.695,12.101 -10.695,20.186c0,67.206 0,210.858 0,274.603c0,6.83 3.509,13.182 9.291,16.818c5.782,3.637 13.026,4.048 19.183,1.089c69.343,-33.324 246.947,-118.674 324.345,-155.868c6.435,-3.093 10.431,-9.7 10.182,-16.836c-0.25,-7.135 -4.698,-13.447 -11.334,-16.083c-76.2,-30.262 -246.138,-97.753 -318.264,-126.398Z"/></clipPath><g clip-path="url(#_clip2)"><path d="M8.137,280.797c1.049,-1.004 2.188,-1.927 3.411,-2.757c7.222,-4.903 16.405,-5.909 24.518,-2.687c72.591,28.829 235.92,93.695 312.56,124.132c7.165,2.846 11.968,9.661 12.237,17.366c0.27,7.705 -4.045,14.839 -10.993,18.178l-100.093,48.101l-241.64,-202.333Z" style="fill:#ba1f47;"/></g></g></g></svg>