<?xml version="1.0" encoding="UTF-8"?><svg id="a" xmlns="http://www.w3.org/2000/svg" viewBox="0 0 552.24 552.24"><path d="M0,0H552.24V552.24H0V0Z" style="fill:#fefefe;"/><path d="M313.37,246.18c4.62-3.94,9.2-7.93,13.87-11.81,16.09-13.4,32.21-26.76,48.33-40.14,.18-.15,.39-.26,.59-.4,1.54,.4,1.18,1.73,1.2,2.73,.07,3.73,.11,7.46-.01,11.19,.1,6.39,.1,12.78,0,19.17,.11,6.87,.08,13.74,.01,20.62,.06,6.4,.1,12.79-.01,19.19,.09,5.76,.11,11.52,0,17.28,.11,5.44,.1,10.89,0,16.33,.11,6.39,.11,12.79,0,19.18,.09,6.71,.11,13.42,0,20.14,.11,5.76,.11,11.52,0,17.29,.11,5.92,.1,11.84,0,17.76,.09,6.39,.1,12.78,0,19.17,.08,6.64,.12,13.28-.02,19.92-.07,1.96,.36,3.96-.43,5.87-.21,.26-.48,.39-.81,.39-79.23,.01-158.46,0-237.69,0-.71,0-1.44,.11-2.14-.14-16.29-1.24-29.17-12.31-32.84-28.25-.47-2.02-.78-4.08-.78-6.17,0-1.36-.03-2.72-.03-4.08,0-56.67,0-113.35,0-170.02,0-1.04,.07-2.07,.11-3.11,1.69-.03,2.58,1.34,3.66,2.25,1.5,1.27,3.02,2.51,4.53,3.76,.19,.11,.37,.24,.55,.38,.27,.2,.52,.42,.76,.65,2.93,2.57,5.95,5.02,8.96,7.49,3.27,2.83,6.65,5.54,9.95,8.32,.19,.12,.36,.25,.53,.38,.18,.13,.34,.27,.5,.42,.08,.07,.16,.15,.24,.22,.17,.14,.32,.29,.48,.45,2.54,2.07,4.99,4.25,7.59,6.25,.18,.13,.35,.27,.51,.42,.17,.14,.32,.3,.48,.46,2.95,2.59,6.09,4.96,9,7.59,.16,.14,.32,.28,.48,.42,.34,.26,.7,.48,1.05,.73,2.46,2.03,4.93,4.07,7.37,6.12,.19,.12,.37,.24,.54,.38,.27,.2,.52,.42,.76,.65,2.65,2.31,5.35,4.56,8.11,6.74,.18,.13,.35,.27,.51,.42,.17,.14,.33,.3,.48,.46,2.43,2.07,4.89,4.1,7.35,6.13,.16,.12,.32,.25,.46,.39,.14,.13,.27,.27,.4,.41,.06,.06,.12,.14,.19,.2,.13,.12,.25,.26,.37,.39,.06,.06,.12,.13,.18,.19,.13,.11,.25,.23,.38,.35,.07,.05,.14,.1,.21,.15,.16,.08,.31,.18,.47,.26,.17,.09,.33,.19,.48,.3,.24,.18,.47,.37,.69,.58,2.27,1.99,4.67,3.82,6.92,5.83,3.36,2.68,6.59,5.51,9.94,8.2,.16,.13,.3,.28,.44,.42,.14,.14,.27,.28,.4,.43,.07,.07,.13,.14,.2,.21,.14,.13,.28,.26,.42,.39,.08,.05,.15,.11,.23,.17,.34,.21,.69,.39,1.02,.63,1.7,1.34,3.29,2.81,5.04,4.08,4.01,3.27,7.64,7.02,12.29,9.46,12.33,6.41,26.24,4.64,36.46-4.59,1.6-1.44,3.28-2.8,4.84-4.28,3.5-2.64,6.58-5.76,9.89-8.62,3.49-3.01,6.99-6.04,10.33-9.22,1.53-1.01,2.81-2.31,4.1-3.59,.21-.21,.44-.39,.67-.57,.14-.11,.3-.2,.46-.28,.14-.08,.3-.16,.44-.25,.07-.05,.14-.09,.2-.14,.12-.1,.25-.21,.37-.31,0,0,.18-.16,.17-.16,.11-.11,.22-.22,.34-.33,0,0,.17-.16,.17-.16,.1-.12,.22-.22,.33-.33,0,0,.17-.16,.17-.17,.11-.12,.22-.23,.33-.34,0,0,.17-.17,.17-.17,.11-.12,.23-.23,.34-.35,.06-.06,.12-.12,.18-.18,.12-.12,.25-.23,.38-.33,.13-.11,.27-.2,.42-.29,.21-.14,.42-.28,.62-.44,.13-.12,.26-.23,.39-.34,.12-.13,.26-.24,.38-.36,.06-.07,.13-.13,.19-.19,.12-.14,.25-.27,.38-.41,.06-.07,.13-.14,.2-.22,.13-.16,.27-.3,.4-.45,.07-.08,.15-.15,.22-.23,6.97-6.23,14.18-12.18,21.14-18.41,.24-.21,.52-.36,.8-.5Z" style="fill:#6d4aff;"/><path d="M376.63,339.69c0-6.72,0-13.43,0-20.15,2.37-1.48,4.98-2.51,7.49-3.69,20.16-9.43,40.27-18.97,60.52-28.21,3.93-1.79,5.16-3.8,4.84-7.84-.37-4.68,0-9.41-.16-14.12-.03-5.08-.09-10.15,.02-15.22-.08-5.6-.09-11.21,0-16.81,.05-.74,.02-1.49,.41-2.16,.18-.29,.42-.37,.74-.24,.02,3.26,.06,6.53,.06,9.79,0,15.29-.03,30.59-.05,45.88-.49,4.65-.1,9.32-.21,13.98-.04,1.5-.01,3.01,0,4.51,.05,.93-.67,1.15-1.33,1.45-14.83,6.72-29.5,13.76-44.26,20.64-8.46,3.94-16.88,7.99-25.4,11.79-.83,.37-1.66,1.1-2.67,.4Z" style="fill:#bcacff;"/><path d="M376.62,414.06c0-6.72,0-13.43,0-20.15,7.8-4.01,15.83-7.55,23.76-11.29,8.58-4.05,17.18-8.07,25.8-12.05,7.03-3.24,13.97-6.66,21.05-9.78,1.52-.67,2.22-1.57,2.2-3.25-.06-4.31-.06-8.62,0-12.93,.01-.92-.4-2.16,1.07-2.51,0,8.8,0,17.59,0,26.39-.51,3.25-.2,6.52-.19,9.77,0,1.7-.63,2.57-2.14,3.27-11.73,5.49-23.45,10.98-35.18,16.46-11.22,5.24-22.4,10.59-33.69,15.69-.83,.37-1.67,1.08-2.68,.38Z" style="fill:#cdc1ff;"/><path d="M450.51,342.1c-.71,.64-.45,1.49-.45,2.25-.02,4.63-.04,9.26,0,13.89,.02,1.43-.33,2.21-1.84,2.84-4.84,2.04-9.57,4.36-14.33,6.59-8.15,3.82-16.28,7.7-24.45,11.48-4.63,2.14-9.27,4.24-13.86,6.47-5.52,2.68-11.1,5.23-16.64,7.87-.76,.36-1.52,.45-2.32,.42,0-6.4,0-12.79,0-19.19,4.09-2.7,8.71-4.35,13.1-6.43,8.52-4.04,17.08-7.98,25.61-11.98,10.49-4.91,20.97-9.85,31.49-14.7,1.96-.9,2.7-2.08,2.63-4.23-.15-4.71-.03-9.43-.06-14.15,.02-1.19-.18-2.4,.41-3.53,.19-.25,.42-.31,.7-.16,0,7.52,0,15.04,0,22.56Z" style="fill:#c8bbff;"/><path d="M376.63,207.75c0-3.89,0-7.78-.03-11.67,0-.76,.26-1.61-.44-2.24,3.36-3.05,6.8-6.01,10.49-8.68,2.24-.39,4.15-1.6,6.14-2.54,13.83-6.56,27.75-12.93,41.58-19.49,4.32-2.05,8.64-4.1,13.02-6.02,.95-.41,2.18-1.47,2.9,.4,0,5.33,0,10.66,0,15.98,.05,.93-.68,1.17-1.33,1.47-9.89,4.68-19.81,9.28-29.72,13.93-8.24,3.86-16.51,7.69-24.73,11.58-5.05,2.39-10.12,4.76-15.2,7.09-.85,.39-1.72,.97-2.67,.19Z" style="fill:#9e87ff;"/><path d="M376.62,414.06c1.66-.33,3.11-1.23,4.63-1.89,3.66-1.58,7.22-3.41,10.82-5.11,8.37-3.95,16.74-7.89,25.12-11.83,4.55-2.14,9.1-4.26,13.67-6.36,5.86-2.71,11.73-5.42,17.61-8.09,1.07-.48,1.62-1.12,1.59-2.36-.07-2.56-.04-5.12,0-7.67,0-.77-.26-1.62,.45-2.26,0,5.99,.14,11.98-.04,17.97-.15,4.83-1.55,9.4-3.79,13.69-4.64,.6-8.43,3.32-12.55,5.17-9.16,4.12-18.33,8.27-27.26,12.87-3.11,1.6-6.1,1.91-9.37,1.89-6.22-.05-12.45,0-18.67-.03-.75,0-1.59,.33-2.27-.31l.07-5.66Z" style="fill:#d1c6ff;"/><path d="M198.14,287.4c-3.68-2.7-7.13-5.68-10.52-8.72-.42-1.87,1.17-1.8,2.16-2.09,4.15-1.18,8.38-2.06,12.58-3.04,17.51-4.07,35.01-8.13,52.49-12.33,1.09-.26,2.21-.32,3.27-.69l.49,.43c.13,.18,.28,.2,.46,.07,4.33,2.31,8.93,3.79,13.81,4.27,4.67,.46,9.26,.06,13.8-1.26,5.16-1.5,9.62-4.14,13.67-7.59,3.87-3.3,7.81-6.53,11.71-9.8,.38-.32,.77-.56,1.29-.49-1.76,2.3-4.15,3.93-6.27,5.84-4.97,4.48-10.03,8.86-15.05,13.27-.24,.21-.52,.36-.78,.54-3.25-.02-6.28,1.12-9.37,1.85-22,5.2-44.04,10.28-66.04,15.5-5.91,1.4-11.84,2.68-17.71,4.23Z" style="fill:#d7cdff;"/><path d="M258.12,260.55c-.07,.53-.34,.8-.9,.93-7.8,1.8-15.6,3.63-23.4,5.46-9.8,2.3-19.6,4.63-29.4,6.93-4.94,1.16-9.89,2.29-14.83,3.43-.85,.2-1.78,.25-1.97,1.38-2.53-1.89-5.02-3.83-7.25-6.07-.13-.26-.32-.45-.61-.52-.14,0-.26-.06-.36-.17-.16-.09-.29-.21-.39-.37l-.06-.05c-.17-.12-.33-.26-.48-.42h-.01c-.16-.17-.32-.34-.51-.47h.01c-.14-.18-.3-.35-.51-.47v.02c.07-1.79,1.6-1.81,2.74-2.09,6.5-1.63,13.03-3.13,19.56-4.65,15.08-3.51,30.16-7,45.2-10.62,.85-.2,1.68-.53,2.58-.42,3.62,2.59,6.79,5.77,10.56,8.17Z" style="fill:#d2c7ff;"/><path d="M150.68,247.98c-3.34-2.54-6.59-5.17-9.63-8.05-.16-.18-.3-.37-.51-.49v.02c-.42-1.92,1.22-1.79,2.21-2.03,7.99-1.94,15.99-3.83,23.99-5.69,13.6-3.16,27.19-6.39,40.8-9.52,1.01-.23,2.01-.54,3.06-.52,3.15,2.43,6.22,4.94,9.14,7.63,.16,.16,.3,.35,.49,.48h0c.46,1.76-1.05,1.73-1.98,1.95-7.7,1.83-15.39,3.66-23.1,5.45-13.62,3.17-27.23,6.39-40.85,9.54-1.26,.29-2.34,1.03-3.62,1.22Z" style="fill:#c6b8ff;"/><path d="M111.19,214.99c-.13,0-.24-.03-.35-.11-.4-1.86,1.18-1.81,2.18-2.09,5.01-1.39,10.09-2.49,15.15-3.66,16.2-3.74,32.37-7.59,48.57-11.35,1.25-.29,2.43-.8,3.67-1.09,3.03,2.21,5.93,4.59,8.64,7.19,.15,.18,.29,.37,.5,.49h-.01c.14,.2,.33,.36,.56,.47,.13,0,.26,.04,.37,.1,.4,1.86-1.18,1.81-2.18,2.09-4.31,1.2-8.69,2.14-13.05,3.14-16.82,3.89-33.63,7.85-50.44,11.81-1.33,.31-2.59,.83-3.9,1.16-3.19-2.36-6.28-4.85-9.13-7.63-.13-.25-.31-.44-.58-.52Z" style="fill:#bbabff;"/><path d="M120.89,223.14c.28-1.36,1.51-1.24,2.44-1.47,6.26-1.5,12.53-2.94,18.78-4.43,8.42-2,16.81-4.13,25.26-6.01,7.05-1.57,14.08-3.25,21.11-4.91,.86-.2,1.78-.27,1.98-1.39,2.46,1.98,4.99,3.88,7.22,6.13,.15,.2,.32,.38,.54,.5,.15,0,.29,.04,.43,.1,.16,.11,.3,.25,.41,.41l.05,.04c.17,.13,.33,.28,.47,.43h.01c.16,.16,.32,.33,.49,.47h0c.15,.17,.31,.34,.5,.47h0c-.1,1.83-1.69,1.69-2.81,1.97-8.98,2.22-18.02,4.21-27.02,6.37-11.95,2.86-23.94,5.56-35.88,8.43-1.25,.3-2.45,.7-3.45,1.55-1.45-.4-2.27-1.66-3.35-2.55-2.43-1.99-4.97-3.86-7.17-6.12Z" style="fill:#bfb0ff;"/><path d="M450.05,156.89c-.56-.01-1.09,.08-1.62,.33-4.54,2.12-9.1,4.21-13.63,6.35-6.48,3.05-12.92,6.2-19.42,9.19-4.99,2.29-9.97,4.58-14.91,6.99-3.93,1.91-7.94,3.66-11.92,5.49-.66,.3-1.3,.72-1.91-.09l.03,.02c.24-.09,.36-.3,.51-.48h-.01c.19-.12,.34-.29,.5-.45h.01c.44-.38,1.03-.56,1.39-1.03l-.02,.03c.22-.11,.39-.28,.51-.49l-.02,.02c.21-.12,.37-.29,.51-.48h0c.18-.13,.33-.29,.5-.45h.01c.44-.39,1.02-.56,1.39-1.04l-.02,.03c.22-.11,.39-.28,.51-.49l-.02,.02c.21-.11,.37-.29,.51-.47h0c.18-.13,.33-.3,.49-.45l.02-.02c.14-.16,.3-.3,.47-.41l.06-.04c.2-.32,.68-.21,.86-.57l-.02,.03c.22-.11,.39-.28,.51-.49l-.02,.02c.21-.12,.37-.29,.51-.47h0c.17-.14,.33-.29,.5-.44,2.97-2.52,5.92-5.07,8.91-7.56,7.28-6.07,14.57-12.13,21.87-18.18,3.43-2.85,6.88-5.68,10.33-8.51,4.66-3.84,11.73-1.06,12.66,3.95,.3,3.38,.37,6.76-.04,10.13Z" style="fill:#9a82ff;"/><path d="M131.41,231.81c-.37-.87-.07-1.32,.85-1.54,2.32-.57,4.6-1.25,6.92-1.8,4.56-1.08,9.14-2.07,13.71-3.14,10.44-2.46,20.86-4.99,31.32-7.39,4.88-1.12,9.76-2.23,14.62-3.41,.73-.18,1.41-.28,1.75-1.04,2.65,1.62,4.82,3.82,7.16,5.82,.17,.14,.33,.29,.48,.44h0c.16,.17,.31,.33,.49,.47h0c.15,.17,.3,.34,.5,.47h-.01c.14,.19,.33,.35,.55,.47,.14,0,.28,.03,.41,.09,.16,.13,.3,.27,.43,.43v.03c-1.43,1.33-3.37,1.28-5.1,1.72-4.53,1.16-9.12,2.08-13.67,3.15-10.49,2.47-20.96,5-31.46,7.46-5.94,1.39-11.91,2.66-17.85,4.06-.76,.18-1.85,.17-1.98,1.38-2.94-1.96-5.56-4.32-8.13-6.72-.15-.18-.29-.38-.51-.49l.02,.02c-.13-.2-.28-.39-.51-.49v.04Z" style="fill:#c2b3ff;"/><path d="M168.82,262.98c-3.05-2.16-5.87-4.59-8.6-7.15-.12-.27-.31-.46-.61-.54-.12,0-.22-.03-.29-.12,.04-1.9,1.63-1.98,2.87-2.27,6.46-1.52,12.91-3.05,19.37-4.57,14.94-3.51,29.89-6.96,44.82-10.5,.86-.2,1.63-.65,2.49-.85,1.91,.9,3.21,2.59,4.89,3.8,1.48,1.06,2.82,2.32,4.22,3.5,.16,.12,.3,.27,.43,.43l.04,.03c.17,.14,.32,.28,.46,.44v.02c-.03,1.7-1.46,1.71-2.54,1.96-9.32,2.17-18.63,4.39-27.95,6.56-12.66,2.95-25.32,5.89-37.96,8.94-.54,.13-1.1,.21-1.64,.32Z" style="fill:#ccc0ff;"/><path d="M161.24,180.8c3.06,2.18,5.94,4.57,8.63,7.19,.12,.25,.31,.43,.57,.52,.13,0,.26,.04,.38,.1,.16,.13,.31,.27,.44,.42l.02,.02c.16,.15,.33,.3,.49,.45h0c0,1.61-1.35,1.61-2.35,1.85-10.27,2.43-20.54,4.83-30.81,7.22-11.05,2.57-22.08,5.24-33.15,7.73-.91,.2-1.84,.66-2.76,0v-11.03c3.53-1.59,7.36-2.03,11.07-2.91,14.6-3.5,29.24-6.87,43.86-10.31,1.25-.3,2.41-.82,3.62-1.25Z" style="fill:#b5a3ff;"/><path d="M102.7,206.31c9.41-2.21,18.82-4.41,28.22-6.63,9.41-2.22,18.81-4.47,28.22-6.68,3.62-.85,7.25-1.68,10.89-2.46,.73-.16,1.41-.26,1.75-1.02,2.99,2.26,5.96,4.54,8.64,7.17-.05,1.13-1.06,1.15-1.75,1.31-7.1,1.69-14.23,3.31-21.34,4.98-4.41,1.04-8.79,2.16-13.2,3.2-10.43,2.46-20.87,4.89-31.31,7.32-.86,.2-1.78,.27-1.98,1.39-2.71-2.2-5.41-4.4-8.12-6.6,0-.66-.01-1.31-.02-1.97Z" style="fill:#b8a7ff;"/><path d="M228.88,236.98c-.09,1.01-.87,1.25-1.66,1.44-7.26,1.69-14.53,3.35-21.79,5.06-10.43,2.45-20.85,4.93-31.27,7.38-4.25,1-8.5,1.99-12.76,2.91-.95,.2-1.61,.61-2.07,1.42-2.65-2.09-5.34-4.13-7.73-6.53-.15-.39-.65-.31-.85-.62l-.05-.05c.99-1.84,2.96-1.74,4.58-2.15,4.99-1.27,10.03-2.37,15.05-3.53,11.04-2.56,22.08-5.12,33.12-7.68,4.94-1.14,9.89-2.25,14.82-3.46,.75-.18,1.86-.13,1.99-1.36,3.06,2.17,5.99,4.5,8.64,7.17Z" style="fill:#c9bcff;"/><path d="M168.82,262.98c.36-.72,.99-.89,1.73-1.06,5.25-1.21,10.48-2.49,15.72-3.73,8.71-2.07,17.42-4.13,26.14-6.18,7.4-1.74,14.82-3.43,22.22-5.18,1-.24,2.05-.22,3.02-.65,.53-.23,1.02-.43,1.26-.99,3.03,2.21,5.9,4.63,8.65,7.19-.54,.67-1.31,.8-2.1,.99-10.82,2.53-21.64,5.08-32.45,7.64-9.19,2.18-18.38,4.38-27.57,6.55-1.78,.42-3.58,.71-5.35,1.18-.96,.25-2.11,.3-2.63,1.42-2.91-1.99-5.55-4.31-8.12-6.71-.15-.19-.28-.39-.51-.5l-.03,.03Z" style="fill:#d0c4ff;"/><path d="M161.24,180.8c-.17,1.25-1.17,1.32-2.11,1.55-6.11,1.43-12.22,2.87-18.33,4.32-8.5,2.02-17,4.07-25.51,6.08-3.4,.8-6.83,1.5-10.23,2.31-.8,.19-1.58,.18-2.37,.21,0-3.2,0-6.4,0-9.6,.74-.97,1.86-1.18,2.94-1.43,13.27-3.07,26.51-6.22,39.78-9.28,2.25-.52,4.48-1.09,6.68-1.79,3.2,2.36,6.27,4.87,9.14,7.63Z" style="fill:#b19eff;"/><path d="M102.7,175.6v-14.4c.48-.57,1.07-.91,1.8-1.08,8.04-1.88,16.07-3.79,24.11-5.62,.31-.07,.63-.03,.95-.04,4.65,3.48,9.03,7.29,13.41,11.09,.45,2.05-1.31,1.92-2.36,2.17-4.65,1.13-9.3,2.26-13.97,3.3-6.85,1.54-13.66,3.25-20.51,4.77-1.15,.25-2.33,.73-3.42-.19Z" style="fill:#aa96ff;"/><path d="M102.7,175.6c2.58,.01,5-.87,7.47-1.44,10.22-2.35,20.41-4.78,30.62-7.16,.93-.22,1.96-.21,2.18-1.45,3.19,2.37,6.25,4.89,9.14,7.62-.05,1.13-1.06,1.14-1.74,1.3-6.47,1.54-12.97,2.99-19.45,4.5-3.94,.92-7.86,1.9-11.79,2.84-5.47,1.3-10.95,2.57-16.43,3.85,0-3.36,0-6.72,0-10.08Z" style="fill:#ae9bff;"/><path d="M129.56,154.47c-.46,.62-1.13,.82-1.84,.98-8.34,1.91-16.68,3.84-25.02,5.76-.02-4.14-.07-8.29-.06-12.43,0-3.07,1.46-5.37,4.1-6.8,2.72-1.47,5.72-1.57,8.16,.29,5.06,3.85,9.97,7.89,14.66,12.2Z" style="fill:#a58fff;"/><path d="M376.56,419.72c8.46,.03,16.92,.06,25.39,.09,.47,0,.93-.01,1.37-.3,6.02-3.94,12.81-6.34,19.24-9.47,2.72-1.32,5.44-2.65,8.21-3.89,4.15-1.85,8.22-3.88,12.29-5.89,1.23-.61,2.39-.85,3.63-.12-.14,.17-.28,.33-.42,.5-.14,.08-.2,.18-.17,.29,.03,.12,.07,.17,.11,.17-4.13,7.9-10.47,13.3-18.71,16.56-5.03,1.99-10.29,2.64-15.65,2.63-11.73-.02-23.47-.03-35.2-.04-.15-.1-.21-.2-.18-.32,.03-.12,.07-.18,.12-.18l-.02-.02Z" style="fill:#d5cbff;"/><path d="M376.57,419.74l.06,.51c-.88,.02-1.76,.05-2.64,.05-78.16,0-156.32,0-234.48-.01-1.09,0-2.24,.34-3.26-.38,1.12-.03,2.23-.07,3.35-.07,78.03,0,156.06,0,234.09,0,.96,0,1.92-.05,2.87-.08Z" style="fill:#d1c6ff;"/><path d="M450.05,156.89c.01-3.38,.02-6.76,.04-10.13,.63,.66,.47,1.5,.47,2.28,0,27.25-.02,54.49-.03,81.74,0,.16-.02,.32-.03,.48-.15,0-.29,0-.44,0-.77-.75-.75-1.73-.75-2.68,0-4.86-.09-9.72,.04-14.57-.1-6.88-.11-13.76,0-20.64-.13-5.5-.04-11-.05-16.51,0-.96,.05-1.92,.76-2.7,0-5.76,0-11.51,0-17.27Z" style="fill:#b09dff;"/><path d="M450.5,319.54c-.15,0-.3,0-.46,0-.51-.46-.67-1.08-.7-1.72-.12-3.33-.12-6.66,0-9.99,.02-.65,.25-1.24,.7-1.73,0-5.57-.01-11.13,.02-16.7,0-.84-.31-1.77,.44-2.49,0,10.87,0,21.74,0,32.62Z" style="fill:#c4b6ff;"/><path d="M391.95,180.82c-.2,.71-.69,1.01-1.39,1.03,.29-.57,.76-.92,1.39-1.03Z" style="fill:#9e87ff;"/><path d="M389.08,183.21c-.2,.71-.69,1.01-1.39,1.03,.3-.57,.75-.93,1.39-1.03Z" style="fill:#9e87ff;"/><path d="M394.84,178.42c-.14,.42-.48,.53-.86,.57,.17-.37,.47-.54,.86-.57Z" style="fill:#9e87ff;"/><path d="M208.23,219.74c-.16-.15-.32-.29-.48-.44,.16,.15,.32,.29,.48,.44Z" style="fill:#c6b8ff;"/><path d="M208.72,220.22l-.49-.47,.49,.47Z" style="fill:#c6b8ff;"/><path d="M209.21,220.69c-.17-.16-.33-.32-.5-.48,.17,.16,.33,.32,.5,.48Z" style="fill:#c6b8ff;"/><path d="M209.75,221.16c-.27-.06-.45-.22-.55-.48,.18,.16,.36,.32,.55,.48Z" style="fill:#c6b8ff;"/><path d="M210.59,221.67c-.14-.14-.29-.29-.43-.43,.14,.14,.29,.29,.43,.43Z" style="fill:#c6b8ff;"/><path d="M395.33,177.96c-.08,.26-.25,.42-.51,.49,.06-.27,.24-.43,.51-.49Z" style="fill:#9e87ff;"/><path d="M396.31,177.07c-.17,.15-.33,.3-.5,.45,.08-.25,.24-.4,.5-.45Z" style="fill:#9e87ff;"/><path d="M395.82,177.51c-.17,.16-.34,.32-.51,.47,.08-.26,.26-.41,.51-.47Z" style="fill:#9e87ff;"/><path d="M393.92,179.03c-.16,.14-.32,.27-.47,.41,.07-.24,.22-.38,.47-.41Z" style="fill:#9e87ff;"/><path d="M393.43,179.46c-.16,.15-.33,.3-.49,.45,.07-.25,.24-.4,.49-.45Z" style="fill:#9e87ff;"/><path d="M238.42,244.7c-.14-.14-.28-.28-.43-.43,.14,.14,.28,.28,.43,.43Z" style="fill:#d0c4ff;"/><path d="M238.91,245.18c-.15-.15-.31-.3-.46-.45,.15,.15,.31,.3,.46,.45Z" style="fill:#d0c4ff;"/><path d="M392.94,179.91c-.17,.16-.34,.31-.51,.47,.08-.26,.26-.41,.51-.47Z" style="fill:#9e87ff;"/><path d="M392.45,180.36c-.08,.26-.25,.42-.51,.49,.06-.27,.24-.43,.51-.49Z" style="fill:#9e87ff;"/><path d="M220.24,229.81c-.16-.16-.33-.32-.49-.48,.16,.16,.33,.32,.49,.48Z" style="fill:#c9bcff;"/><path d="M390.55,181.85c-.17,.15-.33,.31-.5,.46,.07-.25,.24-.41,.5-.46Z" style="fill:#9e87ff;"/><path d="M390.06,182.3c-.17,.16-.34,.32-.51,.48,.08-.26,.26-.41,.51-.48Z" style="fill:#9e87ff;"/><path d="M259.07,261.04c-.19,.27-.34,.2-.46-.07,.15,.01,.31,.03,.46,.07Z" style="fill:#d2c7ff;"/><path d="M389.57,182.76c-.08,.26-.25,.42-.51,.49,.06-.28,.24-.43,.51-.49Z" style="fill:#9e87ff;"/><path d="M387.67,184.25c-.17,.15-.33,.31-.5,.46,.17-.15,.33-.31,.5-.46Z" style="fill:#9e87ff;"/><path d="M387.18,184.7c-.17,.16-.34,.32-.51,.48,.08-.26,.25-.41,.51-.48Z" style="fill:#9e87ff;"/><path d="M170.44,188.52c-.3-.05-.49-.23-.57-.52,.19,.17,.38,.35,.57,.52Z" style="fill:#b8a7ff;"/><path d="M171.26,189.04c-.15-.14-.3-.28-.44-.42,.15,.14,.3,.28,.44,.42Z" style="fill:#b8a7ff;"/><path d="M199.58,212.55c-.16-.14-.31-.29-.47-.43,.16,.15,.31,.29,.47,.43Z" style="fill:#c2b3ff;"/><path d="M171.77,189.51c-.16-.15-.33-.3-.49-.46,.16,.15,.33,.3,.49,.46Z" style="fill:#b8a7ff;"/><path d="M189.55,204.37c-.17-.16-.33-.33-.5-.49,.17,.16,.33,.33,.5,.49Z" style="fill:#bfb0ff;"/><path d="M190.09,204.84c-.28-.05-.46-.21-.56-.48,.19,.16,.37,.32,.56,.48Z" style="fill:#bfb0ff;"/><path d="M198.23,211.56c-.27-.07-.45-.23-.54-.5,.18,.17,.36,.33,.54,.5Z" style="fill:#c2b3ff;"/><path d="M199.06,212.07c-.14-.14-.27-.27-.41-.41,.14,.14,.27,.27,.41,.41Z" style="fill:#c2b3ff;"/><path d="M200.08,213.02c-.16-.15-.33-.31-.49-.46,.16,.15,.33,.31,.49,.46Z" style="fill:#c2b3ff;"/><path d="M200.58,213.49c-.17-.16-.33-.32-.5-.48,.17,.16,.33,.32,.5,.48Z" style="fill:#c2b3ff;"/><path d="M446.19,401.1c-.34-.21-.27-.35,.07-.46-.02,.15-.04,.31-.07,.46Z" style="fill:#d1c6ff;"/><path d="M450.04,193.35v20.63c-2.84,1.81-6,2.97-9.02,4.39-12.28,5.79-24.58,11.53-36.87,17.29-7.81,3.66-15.63,7.29-23.43,10.97-1.26,.59-2.55,1.41-4.09,.93,0-6.88,0-13.76,0-20.63,4.76-2.95,9.98-4.99,15.02-7.37,8.59-4.04,17.19-8.06,25.8-12.05,9.99-4.63,19.91-9.39,29.92-13.97,.85-.39,1.72-.97,2.67-.2Z" style="fill:#a792ff;"/><path d="M450.04,266.28c0,5.83-.05,11.67,.03,17.5,.02,1.59-.46,2.34-1.99,2.99-4.69,1.99-9.28,4.23-13.9,6.39-8.23,3.86-16.45,7.74-24.68,11.6-4.55,2.13-9.11,4.24-13.66,6.36-5.34,2.5-10.68,5.02-16.03,7.51-1.01,.47-2.04,.91-3.2,.89,0-6.4,0-12.79,0-19.19,.69-.82,1.63-1.27,2.57-1.71,14.09-6.63,28.21-13.19,42.3-19.79,8.31-3.9,16.62-7.81,24.95-11.67,1.13-.52,2.2-1.39,3.59-.89Z" style="fill:#b7a6ff;"/><path d="M376.63,247.57c4.97-1.76,9.61-4.25,14.37-6.48,8.45-3.94,16.86-7.98,25.32-11.9,4.34-2.01,8.69-3.98,13.01-6.04,6.26-2.98,12.58-5.82,18.87-8.74,.59-.28,1.18-.47,1.84-.44,0,5.76,0,11.52,0,17.28v1.92c-4.75,2.97-9.97,5.02-15.02,7.38-8.6,4.01-17.19,8.07-25.8,12.06-9.99,4.62-19.92,9.38-29.93,13.96-.85,.39-1.72,.97-2.67,.19,0-6.4,0-12.79,0-19.19Z" style="fill:#ab97ff;"/><path d="M450.04,193.35c-2.45,.27-4.46,1.67-6.61,2.64-6.61,2.99-13.1,6.26-19.69,9.29-7.54,3.46-15.02,7.05-22.54,10.54-7.52,3.49-15.06,6.96-22.52,10.58-.65,.32-1.3,.61-2.06,.53,0-6.4,0-12.79,0-19.19,2.44-.27,4.46-1.67,6.61-2.64,6.61-2.99,13.1-6.27,19.69-9.29,7.54-3.46,15.04-6.99,22.53-10.56,7.49-3.57,15.02-7.04,22.52-10.56,.66-.31,1.3-.61,2.05-.54,0,6.4,0,12.79,0,19.19Z" style="fill:#a28cff;"/><path d="M450.04,323.38c0,5.03-.04,10.05,.02,15.08,.02,1.57-.26,2.49-1.95,3.23-6.12,2.69-12.09,5.73-18.17,8.51-7.53,3.45-14.99,7.03-22.5,10.52-7.51,3.49-15.01,7-22.5,10.53-2.16,1.02-4.36,1.96-6.49,3.04-.59,.3-1.18,.47-1.84,.43,0-5.92,0-11.83,0-17.75,2.99-2.17,6.46-3.44,9.76-4.99,9.18-4.29,18.35-8.61,27.54-12.89,10.63-4.96,21.26-9.94,31.89-14.9,1.27-.59,2.59-1.78,4.23-.8Z" style="fill:#c4b6ff;"/><path d="M450.04,323.38c-1.59-.02-2.89,.88-4.26,1.46-2.49,1.05-4.9,2.3-7.37,3.43-6.67,3.05-13.23,6.36-19.89,9.41-7.61,3.49-15.16,7.1-22.74,10.64-4.98,2.33-10,4.58-14.94,7-1.35,.66-2.81,1.1-4.21,1.64,0-5.76,0-11.52,0-17.27,1.62-.65,3.28-1.22,4.86-1.96,6.57-3.08,13.1-6.24,19.67-9.33,7.71-3.64,15.45-7.24,23.17-10.86,4.91-2.3,9.79-4.66,14.74-6.87,2.62-1.17,5.2-2.42,7.79-3.66,1-.48,2.04-.91,3.19-.9,0,4.48,0,8.96,0,13.43v3.84Z" style="fill:#c0b1ff;"/><path d="M376.63,266.76c2.45-.26,4.46-1.66,6.61-2.64,6.61-2.99,13.11-6.25,19.69-9.3,7.52-3.49,15.05-6.96,22.54-10.53,7.49-3.57,15.1-6.87,22.52-10.58,.65-.32,1.3-.61,2.05-.54,0,5.76,0,11.51,0,17.27-3.54,2.18-7.41,3.69-11.16,5.43-8.67,4.05-17.33,8.11-25.99,12.16-11.05,5.17-22.12,10.29-33.13,15.54-.96,.46-1.97,1.19-3.13,.45v-17.27Z" style="fill:#b09dff;"/><path d="M376.63,284.04c1.02-.19,2-.54,2.93-.98,6.55-3.12,13.08-6.28,19.66-9.34,7.74-3.59,15.5-7.13,23.17-10.86,4.52-2.19,9.1-4.26,13.65-6.37,4.12-1.91,8.25-3.8,12.37-5.71,.53-.24,1.06-.34,1.62-.33,0,5.28,0,10.56,0,15.83-3.33,1.51-6.69,2.98-10,4.53-8.44,3.95-16.84,7.98-25.29,11.89-4.77,2.2-9.54,4.41-14.28,6.67-7.62,3.63-15.28,7.18-22.92,10.75-.28,.13-.61,.16-.92,.23,0-5.44,0-10.88,0-16.31Z" style="fill:#b3a1ff;"/><path d="M279.78,275.97c-3.26,3.38-6.99,6.25-10.43,9.43-2.63,2.43-5.35,4.75-8.04,7.12-.53,.47-1,1.04-1.71,1.26-.46-1.5-1.53-.74-2.33-.55-8.81,2.13-17.65,4.13-26.48,6.22-4.49,1.06-8.99,2.05-13.44,3.24-1.52-.53-2.79-1.5-3.99-2.5-2.73-2.26-5.6-4.37-8.1-6.89,.22-1.97,1.96-1.89,3.22-2.19,5.82-1.43,11.66-2.81,17.5-4.16,16.52-3.8,33-7.75,49.51-11.56,.86-.2,1.7-.52,2.58-.5,.73,.02,1.72-.2,1.7,1.07Z" style="fill:#dcd4ff;"/><path d="M279.78,275.97c-.69-.86-1.54-.56-2.4-.36-8.87,2.11-17.73,4.23-26.6,6.32-10.26,2.42-20.52,4.83-30.78,7.22-3.78,.88-7.58,1.68-11.36,2.58-1.21,.29-2.54,.42-3.37,1.57-1.89-1.27-3.64-2.7-5.22-4.34-.14-.4-.64-.32-.84-.64l-.08-.06c-.18-.1-.33-.23-.45-.4l-.04-.03c-.17-.14-.33-.29-.49-.44h0c.52-1.13,1.68-1.16,2.63-1.39,11.41-2.73,22.83-5.44,34.25-8.12,7.33-1.72,14.68-3.37,22.01-5.09,10.42-2.44,20.82-4.96,31.26-7.33,.88-.2,2.16-1.14,2.97,.36h0c-.21,.1-.35,.29-.5,.46h0c-.16,.15-.33,.3-.49,.45l-.02,.02c-.14,.16-.29,.3-.46,.43l-.05,.04c-.39,.42-1,.57-1.35,1.05l.02-.04c-.23,.11-.4,.28-.52,.5l.02-.03c-.22,.12-.38,.29-.51,.5l.02-.02c-.21,.12-.37,.29-.51,.48h.01c-.19,.12-.34,.29-.5,.45h0c-.15,.16-.31,.31-.48,.45l-.03,.03c-.13,.16-.28,.3-.45,.41l-.07,.06c-.08,.16-.21,.29-.37,.37-.08,.11-.19,.17-.33,.17-.32,.06-.52,.26-.62,.57-1.28,1.43-2.65,2.78-4.3,3.8Z" style="fill:#d9d0ff;"/><path d="M217.35,302.7c.17-1.21,1.28-1.12,2.04-1.31,7.26-1.73,14.55-3.38,21.82-5.08,5.57-1.3,11.13-2.65,16.69-3.98,.71-.17,1.42-.2,2.13-.05,.32,.65-.48,.96-.44,1.51-5.02,5.06-10.35,9.7-17.42,11.69-8.64,2.43-16.96,1.81-24.83-2.78Z" style="fill:#e1d9ff;"/><path d="M288.39,268.28c.18-.7,.67-1,1.35-1.05-.27,.58-.71,.94-1.35,1.05Z" style="fill:#d7cdff;"/><path d="M150.73,248.02c.4,.05,.74,.18,.85,.62-.36-.1-.7-.24-.85-.62Z" style="fill:#c6b8ff;"/><path d="M199.2,288.32c.4,.06,.74,.19,.84,.64-.36-.11-.68-.27-.84-.64Z" style="fill:#d7cdff;"/><path d="M131.42,231.77c.17,.16,.34,.33,.51,.49-.26-.07-.44-.23-.51-.49Z" style="fill:#bfb0ff;"/><path d="M131.9,232.24c.17,.16,.34,.33,.51,.49-.17-.16-.34-.33-.51-.49Z" style="fill:#bfb0ff;"/><path d="M140.54,239.43c.17,.16,.34,.32,.51,.49-.17-.16-.34-.32-.51-.49Z" style="fill:#c2b3ff;"/><path d="M159.61,255.3c.32,.05,.52,.22,.61,.53-.2-.18-.41-.36-.61-.53Z" style="fill:#c9bcff;"/><path d="M168.84,262.95c.17,.17,.34,.33,.51,.5-.26-.08-.44-.23-.51-.5Z" style="fill:#ccc0ff;"/><path d="M290.76,266.29c.17-.16,.34-.32,.5-.47-.08,.25-.25,.41-.5,.47Z" style="fill:#d7cdff;"/><path d="M290.27,266.74l.49-.45c-.07,.25-.23,.4-.49,.45Z" style="fill:#d7cdff;"/><path d="M289.78,267.19c.16-.14,.31-.28,.46-.43-.07,.24-.22,.39-.46,.43Z" style="fill:#d7cdff;"/><path d="M287.9,268.74c.08-.26,.25-.43,.51-.5-.06,.28-.24,.44-.51,.5Z" style="fill:#d7cdff;"/><path d="M287.41,269.2c.08-.26,.25-.42,.51-.5-.07,.27-.25,.43-.51,.5Z" style="fill:#d7cdff;"/><path d="M286.44,270.12c.17-.16,.33-.31,.5-.47-.17,.16-.33,.31-.5,.47Z" style="fill:#d7cdff;"/><path d="M177.48,270.14c.17,.16,.34,.32,.51,.48-.26-.07-.44-.22-.51-.48Z" style="fill:#d0c4ff;"/><path d="M285.95,270.57l.48-.44c-.07,.24-.23,.4-.48,.44Z" style="fill:#d7cdff;"/><path d="M177.98,270.62l.51,.46c-.17-.15-.34-.3-.51-.46Z" style="fill:#d0c4ff;"/><path d="M285.46,271.01c.15-.14,.3-.28,.45-.41-.06,.24-.21,.38-.45,.41Z" style="fill:#d7cdff;"/><path d="M178.49,271.08c.16,.14,.32,.28,.48,.42-.25-.04-.4-.19-.48-.42Z" style="fill:#d0c4ff;"/><path d="M285.03,271.44c.12-.12,.25-.24,.37-.37-.12,.12-.25,.24-.37,.37Z" style="fill:#d7cdff;"/><path d="M179.03,271.55c.13,.12,.26,.25,.39,.37-.13-.12-.26-.25-.39-.37Z" style="fill:#d0c4ff;"/><path d="M284.08,272.18c.08-.33,.29-.51,.62-.57-.21,.19-.41,.38-.62,.57Z" style="fill:#d7cdff;"/><path d="M179.77,272.09c.31,.05,.52,.22,.61,.52-.2-.17-.4-.35-.61-.52Z" style="fill:#d0c4ff;"/><path d="M198.15,287.4c.16,.15,.33,.29,.49,.44-.26-.04-.41-.19-.49-.44Z" style="fill:#d7cdff;"/><path d="M198.68,287.87c.15,.13,.3,.27,.45,.4-.24-.03-.39-.17-.45-.4Z" style="fill:#d7cdff;"/><path d="M111.19,214.99c.3,.05,.5,.23,.58,.52-.19-.17-.39-.35-.58-.52Z" style="fill:#b8a7ff;"/><path d="M286.93,269.67c.17-.16,.34-.32,.51-.48-.08,.26-.25,.42-.51,.48Z" style="fill:#d7cdff;"/></svg>