<svg clip-rule="evenodd" fill-rule="evenodd" stroke-linejoin="round" stroke-miterlimit="1.414" viewBox="0 0 1024 1024" xmlns="http://www.w3.org/2000/svg"><g fill="#336" fill-rule="nonzero"><path d="M511.603 1.032S210.169-8.87 148 325.503v227.74s2.571 24.373 71.122 73.881S465.142 816.02 511.603 816.02s223.931-139.386 292.481-188.895 71.122-73.882 71.122-73.882V325.503C813.036-8.87 511.603 1.032 511.603 1.032zm206.413 448.623H305.19V325.503c41.892-166.044 206.413-168.329 206.413-168.329s164.52 2.285 206.413 168.33z"/><path d="M511.603 867.305s-46.716-4.572-83.276-29.96S148 637.788 148 637.788V982.57s2.064 40.115 46.241 40.115h634.724c44.177 0 46.241-40.115 46.241-40.115V637.788s-243.768 174.17-280.328 199.557-83.275 29.96-83.275 29.96z"/></g></svg>