<svg clip-rule="evenodd" fill-rule="evenodd" stroke-linejoin="round" stroke-miterlimit="1.41421" viewBox="0 0 1024 1024" xmlns="http://www.w3.org/2000/svg"><g fill="#336" fill-rule="nonzero" transform="matrix(1.52334 0 0 1.52334 148 .999645)"><path d="m238.688.021s-197.877-6.5-238.688 213v149.5s1.688 16 46.688 48.5 161.5 124 192 124 147-91.5 192-124 46.688-48.5 46.688-48.5v-149.5c-40.811-219.5-238.688-213-238.688-213zm135.5 294.5h-135.5-135.5v-81.5c27.5-109 135.5-110.5 135.5-110.5s108 1.5 135.5 110.5z"/><path d="m238.688 568.688s-30.667-3.001-54.667-19.667-184.021-131-184.021-131v226.334s1.355 26.333 30.355 26.333h416.666c29 0 30.355-26.333 30.355-26.333v-226.334s-160.022 114.334-184.022 131-54.666 19.667-54.666 19.667z"/></g></svg>