<svg xmlns="http://www.w3.org/2000/svg" width="1024pt" height="1024pt" viewBox="0 0 1024 1024"><path style="stroke:none;fill-rule:nonzero;fill:#ffc107;fill-opacity:1" d="M874.668 896H149.332C102.273 896 64 857.727 64 810.668V213.332C64 166.273 102.273 128 149.332 128h725.336C921.727 128 960 166.273 960 213.332v597.336C960 857.727 921.727 896 874.668 896zm0 0"/><path style="stroke:none;fill-rule:nonzero;fill:#388e3c;fill-opacity:1" d="M149.332 213.332h725.336v597.336H149.332zm0 0"/><path style="stroke:none;fill-rule:nonzero;fill:#fff;fill-opacity:1" d="M597.332 768H768v42.668H597.332zM512 362.668c-35.348 0-64 28.652-64 64 0 35.344 28.652 64 64 64s64-28.656 64-64c0-35.348-28.652-64-64-64zm0 0"/><path style="stroke:none;fill-rule:nonzero;fill:#a5d6a7;fill-opacity:1" d="M341.332 448c-23.562 0-42.664 19.102-42.664 42.668 0 23.562 19.102 42.664 42.664 42.664 23.566 0 42.668-19.102 42.668-42.664C384 467.102 364.898 448 341.332 448zm0 0"/><path style="stroke:none;fill-rule:nonzero;fill:#2e7d32;fill-opacity:1" d="M149.332 213.332h725.336V256H149.332zm0 0"/><path style="stroke:none;fill-rule:nonzero;fill:#ffab00;fill-opacity:1" d="M768 810.668H597.332L682.668 896h170.664zm0 0"/><path style="stroke:none;fill-rule:nonzero;fill:#a5d6a7;fill-opacity:1" d="M682.668 448C659.102 448 640 467.102 640 490.668c0 23.562 19.102 42.664 42.668 42.664 23.562 0 42.664-19.102 42.664-42.664 0-23.566-19.102-42.668-42.664-42.668zm106.664 164.012c0-9.496-3.477-18.645-9.984-25.578-14.782-15.766-46.27-31.766-96.68-31.766-50.41 0-81.898 16-96.684 31.766-6.507 6.933-9.984 16.062-9.984 25.578V640h213.332zm-341.332 0c0-9.496-3.477-18.645-9.984-25.578-14.786-15.766-46.274-31.766-96.684-31.766s-81.898 16-96.68 31.766c-6.507 6.933-9.984 16.062-9.984 25.578V640H448zm0 0"/><path style="stroke:none;fill-rule:nonzero;fill:#fff;fill-opacity:1" d="M640 591.828c0-11.39-4.18-22.355-11.988-30.676C610.282 542.23 572.48 512 512 512c-60.48 0-98.281 30.23-116.012 49.129-7.808 8.32-11.988 19.285-11.988 30.7V640h256zm0 0"/></svg>