<svg width="100px" height="100px" version="1.1" viewBox="0 0 100 100" xmlns="http://www.w3.org/2000/svg">
 <g>
  <path d="m32.859 0h34.281c18.145 0 32.855 14.711 32.855 32.855v34.289c0 18.145-14.711 32.855-32.855 32.855h-34.281c-18.145 0-32.855-14.711-32.855-32.855v-34.289c0-18.145 14.711-32.855 32.855-32.855z" fill="#08d8b2"/>
  <path transform="matrix(.22305 0 0 .22305 .0033456 0)" d="m44.906 270.8v-46.794c0-0.50787-0.4028-1.3135 0.4028-1.6112 0.78808-0.29772 1.0858 0.50787 1.4886 0.91067l16.795 16.795 38.213 38.003 27.898 28.091c1.7338 1.7338 3.5026 1.6988 5.2889-0.087565l26.707-26.409 28.108-28.196 31.593-31.208c1.401-2.2942 2.697-1.6988 4.098-0.19264l42.101 42.504c9.9999 9.9999 19.895 20.087 29.702 30.192 4.9912 5.2013 10.403 9.9999 15.201 15.499 1.401 1.5061 2.697 1.2084 3.9929-0.10508 4.2031-4.2907 8.5113-8.3887 12.697-12.697l13.713-13.888 22.697-22.907 27.092-27.005 12.206-12.101c0.50787-0.49036 0.89316-0.99824 1.5061-0.70052 0.5429 0.29772 0.9457 0.80559 1.0858 1.401v2.2066c0 30.332 0.035026 60.595 0.10508 90.804 0.052538 1.401-0.5429 2.767-1.5937 3.6952-10.998 10.876-21.909 21.804-32.697 32.802l-29.702 29.895c-5.499 5.6041-11.103 10.911-19.001 13.1-6.4623 1.9264-13.31 1.9965-19.807 0.21016-7.3029-1.9089-12.697-6.5148-17.793-11.699-9.8072-10.105-19.807-20.105-29.702-30.105l-31.908-32.399c-2.1015-2.1015-2.3993-2.1015-4.3957-0.10508l-43.905 43.8c-6.9001 7.0052-13.695 14.098-20.893 20.805-9.4044 8.5988-20.297 11.401-32.802 8.196-6.9001-1.8038-12.294-5.6041-17.093-10.595-4.7985-5.0087-10.805-10.7-16.199-16.112-5.4115-5.394-13.1-13.1-19.614-19.702-6.4973-6.5848-10.893-10.595-16.199-16.094-2.8896-2.9947-6.1996-5.499-8.6864-8.8965-0.50787-0.70052-0.78808-1.5411-0.80559-2.3993v-46.9z" fill="#ffd540" stroke="#37374a" stroke-miterlimit="10" stroke-width="10"/>
  <g fill="#fff" stroke="#37374a" stroke-miterlimit="10" stroke-width="10">
   <path transform="matrix(.22305 0 0 .22305 .0033456 0)" d="m266.79 191.21c-1.1208-28.984 21.471-53.379 50.437-54.5s53.362 21.471 54.483 50.437c0.070051 1.5236 0.052539 3.0297-0.017513 4.5534-0.087564 28.493-23.888 51.996-52.591 51.996-28.949-0.070052-52.364-23.555-52.311-52.504z"/>
   <path transform="matrix(.22305 0 0 .22305 .0033456 0)" d="m274.2 88.808c0.29772 28.091-23.205 52.101-50.998 52.399-29.702 0.29772-53.712-22.714-53.905-51.61-0.19264-28.896 22.802-52.994 52.399-53.204 28.879-0.10508 52.399 23.222 52.504 52.101z"/>
   <path transform="matrix(.22305 0 0 .22305 .0033456 0)" d="m169.4 225.9c-42.907 35.709-92.608 5.0963-92.713-36.007 0-29.492 23.205-53.099 52.416-53.099 40.788 0 70.192 45.604 40.297 89.106z"/>
  </g>
 </g>
</svg>
