<svg xmlns="http://www.w3.org/2000/svg" viewBox="0 0 1024 1024" width="1024" height="1024">
	<style>
		tspan { white-space:pre }
		.shp0 { fill: #0d1f33 } 
	</style>
	<g id="surface1">
		<path id="Layer" class="shp0" d="M479 85.1C450.5 88.1 451.8 88 433.8 91.1C430.3 91.7 425.5 92.6 423 93.1C420.5 93.7 416.5 94.6 414 95.1C401.3 97.9 391.2 100.8 374.5 106.2C362.9 110 359.5 111.2 355.8 113.1C354.8 113.6 353.6 114 353 114C352.4 114 349.8 115 347.2 116.1C344.6 117.3 340.9 118.9 339 119.7C323.6 126.2 304.2 136.2 288.1 145.9C270.2 156.6 244.6 174.9 235.5 183.3C233.9 184.8 230.6 187.5 228.3 189.3C222.8 193.5 186.9 229.7 180.4 237.5C177.7 240.8 175.3 243.7 175 244C174.2 244.8 169 251.5 162.3 260.5C143.6 285.6 126 316.1 113.7 345C112.9 346.9 111.5 350.1 110.7 352C109.9 353.9 108.4 357.5 107.5 360C106.6 362.5 105.4 365.4 105 366.5C103.9 369 96.7 391.1 95 397C94.3 399.5 93.4 402.6 93 404C92.5 405.4 91.7 408.7 91 411.5C90.4 414.2 89.5 418.1 89 420C88.5 421.9 87.6 426.2 87 429.5C86.4 432.8 85.5 437.3 85 439.5C84.5 441.7 83.6 447.1 83 451.5C82.4 455.9 81.5 462.4 81 466C77.9 488.1 77 528.8 79.1 550.5C82.4 585 85.8 604.4 94.4 636.3C98.5 651.2 109.4 681.5 115.7 695C119.9 704 128.9 722.3 130.8 725.5C131.7 727.1 134.2 731.3 136.2 734.8C138.3 738.3 140 741.4 140 741.6C140 742.3 159.8 771.7 163.7 776.8C171.3 786.9 171 787.2 171 768.6C171 744.9 173.7 727.6 181.1 705C183.7 697 185 693.8 190.6 682.7C196.7 670.6 202 663 211.4 653.2C227.9 636 241.4 629.9 257.1 632.6C272.3 635.2 281.2 639.2 302.5 653.4C310.8 658.8 317.7 663.6 318 663.9C318.3 664.2 319.2 664.9 320.1 665.5C321 666 324.5 668.4 327.8 670.8C331.2 673.1 334.4 675 334.9 675C335.5 675 336 675.4 336 676C336 676.5 336.5 677 337.1 677C337.7 677 339.4 677.8 340.8 678.9C347.3 683.5 362.1 691 364.7 691C369.6 691 376.8 676.6 380 660.3C381.3 654 380.9 652 378.5 652C373 652 355.7 637.8 346.7 626C344.4 623 341.7 619.6 340.8 618.6C339.8 617.5 339 616.1 339 615.4C339 614.7 338.6 614 338.2 613.8C336.2 613 326.7 594.7 321.6 582C316.3 568.7 314.2 561.8 310.5 544.5C305.7 522.5 305.9 494.7 310.9 475C317.5 449.1 337.4 423.1 361.8 408.7C384.9 395 411.8 386.1 447.8 380C462.5 377.6 466.6 376.8 469.1 375.8C472 374.8 472 376 469 362.5C462.9 334.6 463.6 312.8 472.2 273C478.2 245 486.8 231.6 505.5 221C517.4 214.2 523.7 211 546.5 199.6C572.8 186.6 582 181.4 591 174.6C606.6 162.9 615.2 153.4 620.9 141.5C625.1 133 626.1 129.5 628 118.5C628.6 114.6 629.6 109.6 630.1 107.3C631.4 101.1 631.3 100.3 628.3 99.7C626.7 99.4 623.7 98.7 621.5 98.1C617.7 97.2 612.7 96 603.5 93.9C589.3 90.7 570.3 87.8 551.5 85.9C537.9 84.5 489.5 84 479 85.1Z" />
		<path id="Layer" class="shp0" d="M671.8 115.6C671.4 115.9 671.6 117.6 672.2 119.3C680.1 144.6 679.9 165.3 671.5 189.5C668.3 198.7 658.6 216.8 655 220C654.7 220.3 652.9 222.5 651 225C649.1 227.5 647.2 229.6 646.8 229.8C645.4 230.4 645.9 233.1 647.8 235.8C649.5 238.3 657.1 253.6 659.1 258.5C660.5 262.1 663.7 272.4 664.9 277.4C667.5 288.1 667.3 311.3 664.4 320.7L663.8 323L676.7 323C695.1 323 709.2 325.5 721.7 331.1C724.1 332.2 726.2 333 726.5 333C726.9 333 730.9 335.5 735.5 338.6C751.4 349.1 761.5 362.7 767.9 382C771.2 392 771.7 394 773 401.5C773.6 405.3 774.6 410.9 775.1 413.9C776.3 421.2 776.3 469.7 775 481.8C771.9 510.5 771.8 511.4 768.9 529.7C766.9 542.4 763.1 560.2 758.8 576.5C755.4 589.3 748.2 610.9 744.5 619.5C743.8 621.1 742.4 624.5 741.4 627C739.4 632.1 728.3 654.2 724.4 661C720.9 666.9 706.6 687.9 704.3 690.5C703.3 691.6 700.4 695 697.9 698C688.8 708.9 675 721.3 664 728.6C659.2 731.8 650.7 736 649 736C646.8 736 641.7 732.8 636.4 727.9C631.2 723.2 630.7 723 629.4 724.7C628.7 725.7 628 726.9 628 727.3C628 727.8 626.7 730.1 625 732.5C623.4 734.9 622 737.3 622 737.7C622 738.2 621.2 739.5 620.3 740.6C619.3 741.6 616.8 744.9 614.8 747.9C603.1 764.8 577 789.4 561.5 798C559.3 799.2 556.4 801 555 801.9C551.7 804.2 534.9 812.4 528 815C519.1 818.5 504.9 823 496.5 824.9C493.8 825.6 489.9 826.5 488 827C486.1 827.4 481.4 828.3 477.5 829C473.7 829.6 468.3 830.5 465.7 831.1C463 831.6 459.2 832 457.2 832C455.2 832 450 832.4 445.6 833C431.8 834.7 381.6 836.1 377.8 834.9C373.6 833.5 365.8 829.8 360.2 826.5C354.9 823.4 337.7 811.9 337 811C336.7 810.7 330.7 806.5 323.6 801.7L310.7 793.1L307.6 794.7C305.9 795.6 304.3 796.6 304 797C303.7 797.3 300.6 799.6 297 802C278.8 814.1 263.5 827.6 254.9 839C248.9 847 243.7 856.6 244.3 858.4C244.6 859.2 248.1 862.2 252.2 865.2C260.5 871.5 286.6 889 287.6 889C287.9 889 289.5 889.9 291 891C295.8 894.4 324.2 909.2 334.1 913.4C336.5 914.4 340.5 916.2 343 917.2C345.5 918.3 348.5 919.6 349.8 920.1C351 920.6 353 921.4 354.3 921.9C355.5 922.4 358.1 923.3 360 924C361.9 924.7 364.4 925.6 365.5 926C367.5 926.9 374.4 929.1 385 932.5C408.7 939.9 437.7 945.7 468 949.1C482.8 950.8 531.8 951.4 545 950.1C563.9 948.2 582 945.8 590.5 944C592.7 943.5 597.2 942.6 600.5 942C607.7 940.6 613.6 939.2 625.8 936C634.3 933.7 653.4 927.8 657.5 926C658.6 925.6 661.1 924.7 663 924C664.9 923.3 667.5 922.4 668.8 921.9C670 921.4 672 920.6 673.3 920.1C682.1 916.6 692 912.1 704.5 905.9C718.3 899.1 728.1 893.8 732 891C733.6 889.9 735.1 889 735.4 889C736.4 889 765.9 869.1 773 863.6C805.5 838.6 832.9 811.3 857.7 779C863.1 771.9 883 742.4 883 741.4C883 741.1 883.9 739.5 885 738C888.5 733.1 903.1 705 907.9 693.9C913.4 681.1 920.8 661.7 923.7 652.5C924.6 649.7 925.9 645.5 926.7 643C930.7 630.9 936.2 607.4 939.1 590C943.1 566.3 944.5 547 944.5 517.5C944.5 490.4 944 480.7 941.9 465C938.4 438.4 935.7 425.1 928.6 398.7C925.1 386 915.6 359.1 910.3 347C900.9 325.6 888.7 302.1 882.9 293.8C881.8 292.4 881 290.9 881 290.6C881 289 862.1 261.7 854.7 252.6C853 250.5 850.4 247.2 849 245.4C847.6 243.6 844.7 239.9 842.5 237.1C837.3 230.6 798.1 191.7 791 186C788 183.5 785.3 181.3 785 181C784.3 180.3 777.7 175.2 768.5 168.3C757.9 160.4 747.7 153.6 735 145.9C725.6 140.3 721.6 138.1 706.5 130.2C702.5 128.1 690.8 122.6 684 119.7C682.1 118.9 678.9 117.5 676.8 116.6C672.8 114.8 672.6 114.8 671.8 115.6Z" />
		<path id="Layer" class="shp0" d="M652.2 142.5C649.1 157.4 645.9 171.9 644 178.5C643.4 180.7 642.5 183.8 642.1 185.5C641.6 187.1 640.5 190.7 639.6 193.3C638.6 196 638.1 198.7 638.4 199.3C638.6 200 638.9 199.8 638.9 198.8C639 197.9 639.3 197 639.8 196.8C640.5 196.5 644.3 188.9 646 184.5C650.6 172.7 653.4 157.7 652.8 148C652.6 144.4 652.3 141.9 652.2 142.5Z" />
		<path id="Layer" class="shp0" d="M612 191.3C604 198.7 573.2 216.3 556.5 223C549 226 539.8 230.3 535.5 232.8C515.1 244.6 507.8 250.2 505.6 255.4C502.4 263 498.8 274.9 497.1 283.5C496.5 286.2 495.6 290.6 495 293.2C493.2 301.4 493.1 301.4 504.8 295.5C517.8 289 521 287.6 537.5 281C561 271.7 567.7 268 575.6 259.8C579.4 255.8 583.7 250.9 585 249C586.4 247.1 588.2 244.7 589.1 243.7C590 242.8 591.3 240.7 592.1 239.2C592.8 237.7 594.6 234.7 596.1 232.5C598.3 229.1 607.5 210.6 610 204.5C615.7 190.6 616.2 187.4 612 191.3Z" />
		<path id="Layer" class="shp0" d="M628.5 261.7C622.8 265.8 619.9 268.1 612 274.7C596.9 287.2 594.4 297.4 602.6 313.3C606.4 320.5 613.4 325 620.8 325C625.9 325 626.4 324.8 631.3 319.7C635.1 316 637.1 312.9 638.4 309C640.8 301.8 641.6 287.4 640 280.1C638.6 273.9 633.1 261.3 631.5 260.6C630.9 260.4 629.5 260.9 628.5 261.7Z" />
		<path id="Layer" class="shp0" d="M565.5 298.1C562.7 298.7 549.9 303.1 545.5 305C544.4 305.4 539.7 307.3 535 309C522.5 313.8 503.2 323.4 497.6 327.7C491.2 332.6 489.4 338.1 491 348C493.7 364.3 497.6 374.1 506.5 386.5C512.3 394.6 527.9 410.9 533.7 414.8C538.1 417.9 543 417.6 550.9 413.8C556.5 411.1 571.5 401.9 573 400.1C573.3 399.8 576.4 397 580 394C583.6 391 589 386 592 382.9C597 377.9 599.1 374.9 608.7 359.6C611.8 354.7 612 352 609.4 352C607.2 352 599 348 592.9 343.9C586.3 339.4 580.3 332.9 577.2 326.8C574.6 321.6 571 310.4 571 307.6C571 306.4 570.4 303.7 569.7 301.5C568.6 297.6 568.3 297.4 565.5 298.1Z" />
		<path id="Layer" class="shp0" d="M699.6 358.5C698.7 359.8 698 361.4 698 362C698 362.6 697.6 363.8 697.1 364.8C694 371 692.7 390.5 695 397.4C703.8 424.4 707.6 435.5 714.9 455.5C718.8 466.3 727.9 493.9 730 501.5C734.4 517.2 736.1 524.2 738.7 536.2C739.7 541.1 741 545 741.6 545C742.2 545 743 542.9 743.3 540.2C743.6 537.6 744.4 532.3 745 528.5C746.9 516.3 747.8 507.1 749 487C750.4 465 749.7 425.2 748 417.5C741.9 391.6 735 376.8 723.6 365.4C716.6 358.5 712 356 706.1 356C702 356 701 356.4 699.6 358.5Z" />
		<path id="Layer" class="shp0" d="M667 362.7C662.9 364.2 658.1 366.6 654.3 369.2C652 370.7 649.9 372 649.5 372C649 372 644.9 374.8 641.1 377.7C632.8 384.1 625.7 389.9 622 393.3C619.5 395.6 615 399.5 612 402C609 404.5 606.3 406.7 606 407.1C605.7 407.4 602.4 410 598.5 412.8C594.7 415.6 591.1 418.3 590.5 418.8C580.6 426.8 559.9 438.1 547.6 442.1C541.6 444 540.3 444.1 536.6 443C531.6 441.5 523.6 437.8 523.2 436.7C523 436.3 522.4 436 521.9 436C520 436 508 426 498.1 416.1L487.6 405.8L478.6 406.9C468.3 408.3 459.5 409.7 453.3 411.1C436.9 414.7 430.9 416.1 428 417C426.6 417.4 423.5 418.3 421 419C415.3 420.6 405.1 423.9 402.5 425C401.4 425.4 398.9 426.4 397 427C392.4 428.7 372.6 438.1 372 438.9C371.7 439.3 369.9 440.7 368 441.9C366.1 443.2 360.9 447.9 356.5 452.4C344.3 464.7 340.2 474.4 337.5 497.4C333 534.5 349.4 586.6 373.1 611C383.8 622.1 389.2 623.9 405.3 622.1C410.9 621.4 417.9 620.5 420.8 620C430.2 618.2 437.4 616.9 441.5 616C453.1 613.4 456.6 612.6 469.5 609.4C477.2 607.4 485.1 605.4 487 605C488.9 604.5 492.1 603.7 494 603.1C495.9 602.6 501.1 601.2 505.5 600C509.9 598.8 515 597.4 516.8 596.9C518.5 596.4 521.6 595.5 523.5 595C525.4 594.4 528.6 593.5 530.5 593C532.4 592.4 535.5 591.6 537.3 591.1C539 590.5 542.1 589.7 544.1 589.2C551 587.4 551.5 586.7 547.8 583.4C534.2 571.1 510.1 559.2 486.5 553.1C467.6 548.3 437.3 549.4 407.5 556.1C397.2 558.4 395.3 558.9 388 561C383.9 562.3 377.5 563.5 373.9 563.7C367.4 564.1 367.2 564.1 365.1 561.2C361.7 556.4 362.3 553.4 367.8 548.1C372.7 543.2 380.1 537.1 382.9 535.6C383.8 535.1 384.7 534.4 385 534C385.7 533.1 396.9 525.6 401.6 522.9C410.5 517.8 424 511.2 432 508.1C436.7 506.3 441.4 504.4 442.5 504C447.1 502.1 448.1 501.8 462.5 498C486.6 491.7 512.8 489.4 532.5 492C550.4 494.4 564.7 497.1 574.5 500.1C580.4 501.8 590.5 505.1 592.5 506C593.6 506.4 596.1 507.4 598 508.1C606.8 511.3 629 521.9 637.5 527C640.3 528.7 643.2 530.3 644 530.7C645.5 531.4 674.5 550.6 676.5 552.2C677 552.7 681.6 556 686.5 559.6C691.5 563.1 696.3 566.7 697.3 567.5C698.2 568.3 699.4 569 699.8 569C700.3 569 701.5 569.8 702.6 570.7C704.6 572.5 705.7 573.2 712.8 577.2C716.6 579.3 717.4 578.9 718.6 574.2C719.8 569.8 714.2 542.7 706.9 517.2C706.4 515.5 705.6 512.5 705.1 510.7C704.6 509 703.6 505.5 702.8 503C702 500.5 700.3 495.1 699 491C694.3 475.8 684.2 445.8 682 440.5C681.6 439.4 680.2 435.8 679 432.5C677.8 429.2 676.3 425.4 675.8 424C675.2 422.6 674.4 420.6 673.9 419.5C672.8 416.9 669.6 405.8 668.1 399.7C666.7 393.8 666.6 366.5 668 363.9C668.6 362.9 668.9 362 668.8 362.1C668.6 362.1 667.8 362.4 667 362.7Z" />
		<path id="Layer" class="shp0" d="M492.5 519.6C488.1 520 475.4 522 465 523.9L461.5 524.6L465 525.2C466.9 525.6 472.1 526.2 476.5 526.5C500.2 528.3 524.8 537.4 548.2 553.1C553.3 556.5 557.7 559.6 558 559.9C558.3 560.2 561 562.5 564 565C567 567.4 573.6 573.7 578.5 578.9C596.4 597.8 599.5 600.6 605.2 603.4C615.5 608.5 632.5 610.2 649.5 608C661.5 606.4 670.2 604.9 673 604C674.4 603.6 677.5 602.7 680 602C682.5 601.3 685.5 600.3 686.8 599.7C688.9 598.7 688.9 598.5 687.3 597.7C685.6 596.7 647.7 568.3 641.9 563.6C639 561.2 628.1 554 627.5 554C627.1 554 625.6 553.2 624.2 552.1C612.3 543.7 586.7 532.3 568 527C565.5 526.3 562.4 525.4 561 525C559.6 524.6 556 523.7 553 523.2C550 522.6 545 521.6 542 521C536.3 519.9 501.4 518.9 492.5 519.6Z" />
		<path id="Layer" class="shp0" d="M563 610.2C520.9 624.1 504.6 629.6 495 633C488.7 635.3 481.5 637.8 479 638.6C476.5 639.4 473.6 640.5 472.5 640.9C471.4 641.4 468.9 642.3 467 643C465.1 643.7 462.6 644.6 461.5 645C460.4 645.4 457 646.7 454 647.8C451 648.9 440.4 653 430.4 657L412.3 664.1L411 668.3C410.3 670.6 409.4 673.4 409 674.5C408.6 675.6 407.6 678.1 406.9 680C404.3 687.3 397.7 699.6 391.8 708.2C385.5 717.5 371.6 732.3 364.5 737.6C362.3 739.2 360.3 740.8 360 741.1C358.4 743.1 337.1 756.2 329.3 760C324.3 762.5 320.1 765 320.1 765.5C320 766.1 321.3 767.4 323 768.3C324.6 769.3 326.5 770.6 327.2 771.4C327.9 772.1 334.1 776.4 341 781C347.9 785.6 353.7 789.6 354 789.9C354.3 790.2 355.7 791.1 357.3 791.9C358.8 792.7 360 793.7 360 794.2C360 794.6 360.5 795 361 795C361.6 795 365.4 797.2 369.4 800C383.7 809.6 381.3 809 406.3 809C418.5 809 432.3 808.5 437 808C466.1 804.4 467 804.3 485.8 799.9C495.3 797.6 515.1 791.2 516.5 789.9C517 789.4 518 789 518.8 789C520.2 789 535.8 781.4 543.7 776.9C565.6 764.5 590.9 739.5 603.2 718.2C612.4 702.4 621.3 679.3 624 664.5C624.7 660.6 625.6 656.2 626.1 654.6C626.6 653 627 647.7 627 642.9L627 634L622.4 634C616.9 634 604.3 631.3 598 628.8C588 624.7 582.7 621.4 574.1 613.4L568.5 608.4L563 610.2Z" />
		<path id="Layer" class="shp0" d="M715 617.7C705.8 621.9 699.8 624.1 692.5 626C681.8 628.9 677.8 629.8 672.5 630.9C669.2 631.6 664.9 632.6 662.9 633.1C660.9 633.6 658.1 634 656.8 634C654.5 634 654.2 634.4 653.6 640.2C650.6 667.7 648.2 680 643.6 693C641.3 699.4 641.5 700.3 646 704.4C649.9 707.9 650.2 708 652.8 706.6C659.9 702.9 679.3 683.9 688.5 671.5C690.2 669.3 691.8 667.3 692.1 667C693 666.2 702.5 651.9 705.5 646.9C709.2 640.5 721.3 615.9 720.9 615.6C720.7 615.4 718 616.3 715 617.7Z" />
		<path id="Layer" class="shp0" d="M245.1 668.8C240 671.2 227 684.5 221.3 693C210.8 708.7 202.1 731.5 199.1 751C198.5 754.6 197.6 760.5 197 764.1C195.7 772.9 195.7 795.7 197.1 807.8C198.2 817.2 198.4 817.7 202.4 821.9C210.7 830.6 222.4 840.4 222.9 838.9C223.1 838.1 226 833.4 229.3 828.5C239.3 813.4 263.1 791 281.2 779.5C283.9 777.8 286 776.2 286 775.9C286 775.5 282.7 772.6 278.8 769.5C274.8 766.3 267.9 760 263.5 755.5C253.1 744.9 252.3 742.6 253.9 729C256.6 704.9 254.3 672 249.6 668C248.9 667.5 247.2 667.7 245.1 668.8Z" />
		<path id="Layer" class="shp0" d="M290.5 685.2C290.3 685.9 289.9 690.5 289.6 695.5C289.2 700.4 288.5 707.4 288 711C287.4 714.6 286.7 720.9 286.4 725.1C285.8 732.1 286 733 288.3 736.7C290.9 740.8 295.8 745 298 745C299.1 745 307.9 740.5 317.5 735C325 730.8 334.8 723.7 341.7 717.6L344.9 714.7L339.4 711.9C331 707.5 324.8 704 321.8 701.9C320.4 700.8 318.9 700 318.5 700C318.2 700 315.2 698.2 312 696C308.8 693.8 305.8 692 305.5 692C305.2 692 302.2 690.2 299 688C292.7 683.8 291.2 683.2 290.5 685.2Z" />
	</g>
</svg>