<?xml version="1.0" encoding="UTF-8" standalone="no"?>
<svg
   xmlns:dc="http://purl.org/dc/elements/1.1/"
   xmlns:cc="http://creativecommons.org/ns#"
   xmlns:rdf="http://www.w3.org/1999/02/22-rdf-syntax-ns#"
   xmlns:svg="http://www.w3.org/2000/svg"
   xmlns="http://www.w3.org/2000/svg"
   xmlns:sodipodi="http://sodipodi.sourceforge.net/DTD/sodipodi-0.dtd"
   xmlns:inkscape="http://www.inkscape.org/namespaces/inkscape"
   width="2500"
   height="2500"
   viewBox="0 0 256 255.96217"
   preserveAspectRatio="xMidYMid"
   version="1.1"
   id="svg4"
   sodipodi:docname="icon.svg"
   inkscape:version="1.0.1 (3bc2e813f5, 2020-09-07)">
  <metadata
     id="metadata10">
    <rdf:RDF>
      <cc:Work
         rdf:about="">
        <dc:format>image/svg+xml</dc:format>
        <dc:type
           rdf:resource="http://purl.org/dc/dcmitype/StillImage" />
        <dc:title />
      </cc:Work>
    </rdf:RDF>
  </metadata>
  <defs
     id="defs8" />
  <sodipodi:namedview
     pagecolor="#ffffff"
     bordercolor="#666666"
     borderopacity="1"
     objecttolerance="10"
     gridtolerance="10"
     guidetolerance="10"
     inkscape:pageopacity="0"
     inkscape:pageshadow="2"
     inkscape:window-width="1671"
     inkscape:window-height="980"
     id="namedview6"
     showgrid="false"
     inkscape:zoom="0.27074767"
     inkscape:cx="482.16403"
     inkscape:cy="1216"
     inkscape:window-x="2641"
     inkscape:window-y="199"
     inkscape:window-maximized="0"
     inkscape:current-layer="svg4"
     inkscape:document-rotation="0" />
  <path
     d="m 132.669,252.29758 c -30.422,0 -58.237,-11.117 -79.743,-29.506 l -52.926,7.23 20.447,-50.465 c -7.124,-15.719 -11.12,-33.17 -11.12,-51.575 0,-68.653995 55.222,-124.316995 123.342,-124.316995 68.114,0 123.331,55.663 123.331,124.316995 0,68.666 -55.215,124.316 -123.331,124.316 z m 67.346,-124.672 v -0.346 c 0,-35.872995 -25.298,-61.452995 -68.917,-61.452995 H 83.986 V 190.14358 H 130.4 c 43.958,0.001 69.615,-26.647 69.615,-62.518 z m -68.398,31.974 h -13.78 V 96.379585 h 13.78 c 20.239,0 33.672,11.537995 33.672,31.437995 v 0.346 c 0,20.067 -13.433,31.436 -33.672,31.436 z"
     fill="#2e9fff"
     id="path2" />
</svg>
