<svg xmlns="http://www.w3.org/2000/svg" width="2500" height="2500" viewBox="0 0 256 255.962" preserveAspectRatio="xMidYMid"><path d="M132.669 252.298c-30.422 0-58.237-11.117-79.743-29.506L0 230.022l20.447-50.465c-7.124-15.72-11.12-33.17-11.12-51.575 0-68.654 55.222-124.317 123.342-124.317C200.783 3.665 256 59.328 256 127.982c0 68.666-55.215 124.316-123.331 124.316zm67.346-124.672v-.346c0-35.873-25.298-61.453-68.917-61.453H83.986v124.317H130.4c43.958 0 69.615-26.647 69.615-62.518zM131.617 159.6h-13.78V96.38h13.78c20.239 0 33.672 11.538 33.672 31.438v.346c0 20.067-13.433 31.436-33.672 31.436z" fill="#2e9fff"/></svg>