<svg height="1024" width="1024" xmlns="http://www.w3.org/2000/svg"><path d="M512 0C276.352 0 85.332 191.04 85.332 426.73c0 235.692 191.02 426.73 426.668 426.73V1024c20.309 0 426.668-211.2 426.668-597.27C938.668 191.04 747.648 0 512 0zm0 0" fill="#00897b"/><path d="M931.625 514.348c-30.504 184.53-152.105 321.918-256.637 407.254L346.028 592.64c-91.735-91.735-91.735-240.215 0-331.95 91.734-91.73 240.21-91.73 331.945 0zm0 0" fill="#00796b"/><g fill="#fff"><path d="M512 554.668c-70.594 0-128-57.41-128-128 0-70.594 57.406-128 128-128 57.77 0 128 57.406 128 128 0 70.59-57.406 128-128 128zM512 352c-41.664 0-74.668 32-74.668 74.668 0 42.664 31.555 74.664 74.668 74.664 47.063 0 74.668-27.605 74.668-74.664C586.668 379.605 559.062 352 512 352zm0 0"/><path d="M512 661.332c-127.21 0-234.668-107.477-234.668-234.664C277.332 299.477 384.789 192 512 192s234.668 107.477 234.668 234.668c0 80.148-28.715 128-76.8 128-27.095 0-72.536-16.621-72.536-128V320H640v106.668C640 480.105 651.156 512 669.867 512 693.441 512 704 469.14 704 426.668c0-104.066-87.914-192-192-192s-192 87.934-192 192c0 104.062 87.914 192 192 192 52.543 0 87.105-16.961 87.445-17.152l19.094 38.164c-1.793.894-44.031 21.652-106.539 21.652zm0 0"/></g></svg>