<svg height="1024" viewBox="0 0 1024 1024" width="1024" xmlns="http://www.w3.org/2000/svg"><path d="m512 0c-235.648438 0-426.667969 191.039062-426.667969 426.730469 0 235.691406 191.019531 426.730469 426.667969 426.730469v170.539062c20.308594 0 426.667969-211.199219 426.667969-597.269531 0-235.691407-191.019531-426.730469-426.667969-426.730469zm0 0" fill="#00897b"/><path d="m931.625 514.347656c-30.503906 184.53125-152.105469 321.917969-256.636719 407.253906l-328.960937-328.960937c-91.734375-91.734375-91.734375-240.214844 0-331.949219 91.734375-91.730468 240.210937-91.730468 331.945312 0zm0 0" fill="#00796b"/><g fill="#fff"><path d="m512 554.667969c-70.59375 0-128-57.410157-128-128 0-70.59375 57.40625-128 128-128 57.769531 0 128 57.40625 128 128 0 70.589843-57.40625 128-128 128zm0-202.667969c-41.664062 0-74.667969 32-74.667969 74.667969 0 42.664062 31.554688 74.664062 74.667969 74.664062 47.0625 0 74.667969-27.605469 74.667969-74.664062 0-47.0625-27.605469-74.667969-74.667969-74.667969zm0 0"/><path d="m512 661.332031c-127.210938 0-234.667969-107.476562-234.667969-234.664062 0-127.191407 107.457031-234.667969 234.667969-234.667969s234.667969 107.476562 234.667969 234.667969c0 80.148437-28.714844 128-76.800781 128-27.09375 0-72.535157-16.621094-72.535157-128v-106.667969h42.667969v106.667969c0 53.4375 11.15625 85.332031 29.867188 85.332031 23.574218 0 34.132812-42.859375 34.132812-85.332031 0-104.066407-87.914062-192-192-192s-192 87.933593-192 192c0 104.0625 87.914062 192 192 192 52.542969 0 87.105469-16.960938 87.445312-17.152344l19.09375 38.164063c-1.792968.894531-44.03125 21.652343-106.539062 21.652343zm0 0"/></g></svg>