<?xml version="1.0" encoding="UTF-8" standalone="no"?>
<!DOCTYPE svg PUBLIC "-//W3C//DTD SVG 1.1//EN" "http://www.w3.org/Graphics/SVG/1.1/DTD/svg11.dtd">
<svg width="100%" height="100%" viewBox="0 0 1024 1024" version="1.1" xmlns="http://www.w3.org/2000/svg" xmlns:xlink="http://www.w3.org/1999/xlink" xml:space="preserve" xmlns:serif="http://www.serif.com/" style="fill-rule:evenodd;clip-rule:evenodd;stroke-linejoin:round;stroke-miterlimit:2;">
    <g transform="matrix(21.2292,0,0,21.2292,2.74535,2)">
        <path d="M24.001,31.838L16.163,24L24.001,16.162L24.001,0L1.617,22.384C0.73,23.271 0.73,24.729 1.617,25.616L24.001,48C24.001,48 27.429,45.714 27.429,40C27.252,36.968 26.041,34.087 24.001,31.838Z" style="fill:rgb(38,132,255);fill-rule:nonzero;"/>
        <path d="M17.387,22.477L17.537,22.626L24.001,16.162L24.001,0L11.885,12.114C12.796,15.984 14.691,19.554 17.387,22.477Z" style="fill:rgb(29,120,242);fill-rule:nonzero;"/>
        <path d="M19.041,20.897L19.155,21.011L24.003,16.163L24.003,0L13.868,10.133C14.503,14.149 16.302,17.892 19.041,20.897Z" style="fill:rgb(18,106,229);fill-rule:nonzero;"/>
        <path d="M24.001,16.162L24.001,0L16.001,8C16.176,12.245 17.868,16.289 20.767,19.394L24.001,16.162Z" style="fill:rgb(11,96,218);fill-rule:nonzero;"/>
        <path d="M18.286,8C18.286,13.424 22.18,17.567 22.383,17.778L24.001,16.162L24.001,0L18.49,5.511C18.353,6.333 18.285,7.166 18.286,8Z" style="fill:rgb(1,84,206);fill-rule:nonzero;"/>
        <path d="M24.001,16.162L31.837,24L24.001,31.838L24.001,48L46.383,25.616C47.27,24.729 47.27,23.271 46.383,22.384L24.001,0C24.001,0 20.572,2.286 20.572,8C20.749,11.032 21.96,13.913 24.001,16.162Z" style="fill:rgb(36,130,253);fill-rule:nonzero;"/>
        <path d="M30.613,25.523L30.463,25.374L24.001,31.838L24.001,48L36.115,35.886C35.204,32.016 33.309,28.446 30.613,25.523Z" style="fill:rgb(29,120,242);fill-rule:nonzero;"/>
        <path d="M28.959,27.103L28.845,26.989L23.998,31.837L23.998,48L34.131,37.867C33.495,33.852 31.697,30.109 28.959,27.103Z" style="fill:rgb(18,106,229);fill-rule:nonzero;"/>
        <path d="M24.001,31.838L24.001,48L32.001,40C31.825,35.755 30.133,31.71 27.233,28.606L24.001,31.838Z" style="fill:rgb(11,96,218);fill-rule:nonzero;"/>
        <path d="M29.715,40C29.715,34.576 25.821,30.433 25.617,30.222L24.001,31.838L24.001,48L29.511,42.489C29.648,41.666 29.716,40.834 29.715,40Z" style="fill:rgb(1,84,206);fill-rule:nonzero;"/>
        <path d="M24.001,31.838L16.163,24L3.429,24L3.429,27.429L24.001,48C24.001,48 27.429,45.714 27.429,40C27.252,36.968 26.041,34.087 24.001,31.838Z" style="fill:rgb(38,132,255);fill-rule:nonzero;"/>
    </g>
</svg>
