<svg height="80" viewBox="0 0 80 80" width="80" xmlns="http://www.w3.org/2000/svg"><g fill="none"><path d="m62.3276594 4.69260532c-4.4995905-4.50100472-11.2407073-5.91042498-17.1689545-3.58965329-5.9282471 2.32077169-9.9169009 7.93064911-10.1587049 14.28780017v15.1584512c0 .7908197.641619 1.4319058 1.4330961 1.4319058h13.8697343c4.4875788.2189705 8.8576015-1.4737546 12.024829-4.6578086 6.2297875-6.2594968 6.2297875-16.3711984 0-22.63069528z" fill="#13202f"/><path d="m4.68798259 16.7555167c-4.49657074 4.5796914-5.90460256 11.4408123-3.58611709 17.4745929 2.31848547 6.0337807 7.92283654 10.0934398 14.2737251 10.3395483h15.1599609c.3778964 0 .7400807-.1541811 1.0057448-.428216.2656641-.2740348.4127021-.6450948.408308-1.0303917v-14.1166407c.2229472-4.568157-1.468749-9.0176538-4.6532201-12.2388928-6.2533306-6.3406889-16.3550711-6.3406889-22.60840161 0zm12.23320051 58.5119668c4.4933401 4.5491131 11.1969163 5.9643433 17.0923579 3.6084652 5.8954415-2.3558781 9.8709017-8.0385593 10.1363789-14.4893438v-15.4578893c0-.3853229-.1512096-.7546249-.4199628-1.02551-.2687532-.270885-.6326616-.4208126-1.0105324-.4163321h-13.7952356c-4.4801124-.2273287-8.8438517 1.4976132-12.003006 4.7446666-6.2165767 6.3704842-6.2165767 16.6654593 0 23.0359434zm57.3842339-12.4065488c4.4993183-4.5732381 5.9113821-11.4312791 3.5956994-17.4634133-2.3156828-6.0321343-7.9184102-10.0903751-14.266865-10.3339624h-15.1599609c-.7836638 0-1.4214876.6428304-1.4304952 1.4418422v14.1166407c-.2249825 4.571739 1.4738053 9.0241553 4.6696626 12.2388928 6.2402327 6.3571727 16.3517263 6.3571727 22.5919591 0z" fill="#f03748"/></g></svg>