<svg height="80" width="80" xmlns="http://www.w3.org/2000/svg"><g fill="none"><path d="M62.328 4.693a16.02 16.02 0 0 0-17.17-3.59A15.999 15.999 0 0 0 35 15.391v15.158c0 .791.642 1.432 1.433 1.432h13.87a15.87 15.87 0 0 0 12.025-4.658c6.23-6.26 6.23-16.37 0-22.63z" fill="#13202f"/><path d="M4.688 16.756c-4.497 4.58-5.905 11.44-3.586 17.474 2.318 6.034 7.923 10.094 14.274 10.34h15.16a1.4 1.4 0 0 0 1.005-.429c.266-.274.413-.645.409-1.03V28.994c.223-4.568-1.47-9.017-4.654-12.238a15.813 15.813 0 0 0-22.608 0zm12.233 58.511c4.494 4.55 11.197 5.965 17.093 3.609 5.895-2.356 9.87-8.039 10.136-14.49V48.93c0-.386-.151-.755-.42-1.026a1.4 1.4 0 0 0-1.01-.416H28.923c-4.48-.227-8.844 1.497-12.003 4.745-6.216 6.37-6.216 16.665 0 23.035zm57.384-12.406c4.5-4.573 5.912-11.431 3.596-17.463-2.316-6.033-7.918-10.09-14.267-10.334h-15.16c-.783 0-1.421.642-1.43 1.441v14.117c-.225 4.572 1.474 9.024 4.67 12.239a15.765 15.765 0 0 0 22.591 0z" fill="#f03748"/></g></svg>