<?xml version="1.0" encoding="UTF-8"?>
<svg width="80px" height="80px" viewBox="0 0 80 80" version="1.1" xmlns="http://www.w3.org/2000/svg" xmlns:xlink="http://www.w3.org/1999/xlink">
    <!-- Generator: Sketch 55.1 (78136) - https://sketchapp.com -->
    <title>chatwork</title>
    <desc>Created with Sketch.</desc>
    <g id="chatwork" stroke="none" stroke-width="1" fill="none" fill-rule="evenodd">
        <g id="Group" fill-rule="nonzero">
            <path d="M62.3276594,4.69260532 C57.8280689,0.191600596 51.0869521,-1.21781966 45.1587049,1.10295203 C39.2304578,3.42372372 35.241804,9.03360114 35,15.3907522 L35,30.5492034 C35,31.3400231 35.641619,31.9811092 36.4330961,31.9811092 L50.3028304,31.9811092 C54.7904092,32.2000797 59.1604319,30.5073546 62.3276594,27.3233006 C68.5574469,21.0638038 68.5574469,10.9521022 62.3276594,4.69260532 L62.3276594,4.69260532 Z" id="Path" fill="#13202F"></path>
            <path d="M4.68798259,16.7555167 C0.191411848,21.3352081 -1.21661997,28.196329 1.1018655,34.2301096 C3.42035097,40.2638903 9.02470204,44.3235494 15.3755906,44.5696579 L30.5355515,44.5696579 C30.9134479,44.5696579 31.2756322,44.4154768 31.5412963,44.1414419 C31.8069604,43.8674071 31.9539984,43.4963471 31.9496043,43.1110502 L31.9496043,28.9944095 C32.1725515,24.4262525 30.4808553,19.9767557 27.2963842,16.7555167 C21.0430536,10.4148278 10.9413131,10.4148278 4.68798259,16.7555167 L4.68798259,16.7555167 Z M16.9211831,75.2674835 C21.4145232,79.8165966 28.1180994,81.2318268 34.013541,78.8759487 C39.9089825,76.5200706 43.8844427,70.8373894 44.1499199,64.3866049 L44.1499199,48.9287156 C44.1499199,48.5433927 43.9987103,48.1740907 43.7299571,47.9032056 C43.4612039,47.6323206 43.0972955,47.482393 42.7194247,47.4868735 L28.9241891,47.4868735 C24.4440767,47.2595448 20.0803374,48.9844867 16.9211831,52.2315401 C10.7046064,58.6020243 10.7046064,68.8969994 16.9211831,75.2674835 L16.9211831,75.2674835 Z M74.305417,62.8609347 C78.8047353,58.2876966 80.2167991,51.4296556 77.9011164,45.3975214 C75.5854336,39.3653871 69.9827062,35.3071463 63.6342514,35.063559 L48.4742905,35.063559 C47.6906267,35.063559 47.0528029,35.7063894 47.0437953,36.5054012 L47.0437953,50.6220419 C46.8188128,55.1937809 48.5176006,59.6461972 51.7134579,62.8609347 C57.9536906,69.2181074 68.0651842,69.2181074 74.305417,62.8609347 L74.305417,62.8609347 Z" id="Shape" fill="#F03748"></path>
        </g>
    </g>
</svg>