<svg xmlns="http://www.w3.org/2000/svg" viewBox="0 0 1024 1024"><defs><style>.cls-1{fill:#fff;}.cls-2{fill:#acacac;}.cls-3{fill:#091d3d;}</style></defs><title>Recurso 1</title><g id="Capa_2" data-name="Capa 2"><g id="Capa_1-2" data-name="Capa 1"><rect class="cls-1" x="7.5" y="7.5" width="1009" height="1009" rx="203.99" ry="203.99"/><path class="cls-2" d="M812.51,15A196.33,196.33,0,0,1,1009,211.49v601A196.33,196.33,0,0,1,812.51,1009h-601A196.33,196.33,0,0,1,15,812.51v-601A196.33,196.33,0,0,1,211.49,15h601m0-15h-601C94.69,0,0,94.69,0,211.49v601C0,929.31,94.69,1024,211.49,1024h601c116.8,0,211.49-94.69,211.49-211.49v-601C1024,94.69,929.31,0,812.51,0Z"/><path class="cls-3" d="M512,758.85a11.32,11.32,0,0,1-11.32-11.32V276.47a11.32,11.32,0,1,1,22.64,0V747.53A11.32,11.32,0,0,1,512,758.85Z"/><path class="cls-3" d="M510,147c-201.26,0-365,163.74-365,365S308.74,877,510,877,875,713.26,875,512,711.26,147,510,147Zm0,707.37c-106.65,0-202.06-49-264.89-125.72,7-5.28,11.36-13.57,14.91-20.32,3.27-6.22,7-13.27,10.22-13.27s6.94,7.05,10.21,13.27c5.68,10.81,13.47,25.63,30.68,25.63s25-14.81,30.69-25.63c3.27-6.22,7-13.27,10.22-13.27s7,7.05,10.23,13.27C368,719.15,375.74,734,393,734a11.56,11.56,0,0,0,0-23.12c-3.25,0-7-7.05-10.23-13.27C377,686.75,369.25,671.94,352,671.94s-25,14.81-30.69,25.63c-3.27,6.22-7,13.27-10.22,13.27s-6.95-7.05-10.21-13.27c-5.69-10.81-13.48-25.63-30.68-25.63s-25,14.82-30.68,25.63c-2.72,5.17-5.73,10.89-8.54,12.69a341.13,341.13,0,0,1-49.84-102.84c2.44-4.28,5-7.83,7.27-7.83,3.24,0,6.94,7,10.21,13.26,5.68,10.82,13.47,25.64,30.68,25.64s25-14.82,30.68-25.63c3.27-6.22,7-13.27,10.22-13.27s6.94,7,10.21,13.26c5.68,10.82,13.47,25.63,30.67,25.63s25-14.81,30.69-25.62c3.27-6.23,7-13.27,10.23-13.27s6.95,7,10.22,13.27c5.69,10.81,13.48,25.62,30.69,25.62a11.56,11.56,0,1,0,0-23.12c-3.24,0-6.95-7.05-10.22-13.26C377,591.28,369.25,576.47,352,576.47s-25,14.81-30.69,25.63c-3.27,6.22-7,13.26-10.23,13.26s-6.94-7-10.21-13.26c-5.68-10.82-13.47-25.63-30.67-25.63s-25,14.81-30.69,25.63c-3.27,6.22-7,13.26-10.21,13.26s-7-7-10.21-13.26c-5.69-10.82-13.47-25.63-30.68-25.63a25.27,25.27,0,0,0-13.94,4A342,342,0,0,1,168.29,533c4.23-4.82,7.33-10.61,10-15.59,3.27-6.22,7-13.27,10.21-13.27s6.94,7.05,10.21,13.27C204.34,528.2,212.13,543,229.34,543s25-14.81,30.68-25.63c3.27-6.22,7-13.27,10.22-13.27s6.94,7.05,10.21,13.27C286.13,528.2,293.92,543,311.12,543s25-14.81,30.69-25.63c3.27-6.22,7-13.27,10.23-13.27s6.95,7.05,10.22,13.27C368,528.2,375.74,543,393,543a11.56,11.56,0,1,0,0-23.12c-3.24,0-6.95-7-10.22-13.27C377,495.81,369.25,481,352,481s-25,14.82-30.69,25.63c-3.27,6.22-7,13.27-10.23,13.27s-6.94-7-10.21-13.26C295.23,495.81,287.44,481,270.24,481s-25,14.82-30.69,25.64c-3.27,6.21-7,13.26-10.21,13.26s-7-7-10.21-13.26C213.44,495.81,205.66,481,188.45,481c-8.88,0-15.24,4-20.11,9.27C179.6,311.57,328.52,169.63,510,169.63c188.78,0,342.37,153.59,342.37,342.37S698.78,854.37,510,854.37Z"/><path class="cls-3" d="M730.32,313.71H625.8a14.15,14.15,0,0,0-14.15,14.15V442.71a14.15,14.15,0,0,0,14.15,14.15H730.32a14.15,14.15,0,0,0,14.15-14.15V327.86A14.15,14.15,0,0,0,730.32,313.71Zm-4.17,113.16a10.25,10.25,0,0,1-10.25,10.25H640.21A10.25,10.25,0,0,1,630,426.87V343.7a10.25,10.25,0,0,1,10.25-10.25H715.9a10.25,10.25,0,0,1,10.25,10.25Z"/><path class="cls-3" d="M676.29,425.32a62.87,62.87,0,0,1-15-1.66,34.89,34.89,0,0,1-10.38-4l1.62-16.08a27.86,27.86,0,0,0,9.8,5.74,40.5,40.5,0,0,0,14.28,2.35q13.8,0,13.8-8.33a8.06,8.06,0,0,0-1.09-4.17,14,14,0,0,0-2.33-3.07,16.24,16.24,0,0,0-4.18-2.58q-2.94-1.36-4.59-2l-5.57-2q-3.34-1.12-4.65-1.7l-4.54-1.66A26.88,26.88,0,0,1,659,384q-1.43-.93-3.51-2.61a12.55,12.55,0,0,1-3.09-3.44,22.77,22.77,0,0,1-1.76-4.19,17.71,17.71,0,0,1-.76-5.29,22.77,22.77,0,0,1,6.78-16.17q6.78-7.09,20.88-7.09a53.65,53.65,0,0,1,14.32,1.9,38.09,38.09,0,0,1,10.34,4.14l-1.44,14.49q-12.72-6.9-22.67-6.89a24.81,24.81,0,0,0-9.88,1.83q-4.26,1.83-4.26,6.14a6.9,6.9,0,0,0,3.92,6.3,60.84,60.84,0,0,0,11.88,4.58l6.15,2.29,5.9,2.19a20.75,20.75,0,0,1,5.85,3.12,41.63,41.63,0,0,1,4.32,4.19,15.4,15.4,0,0,1,3.29,5.85,25.21,25.21,0,0,1,1,7.45,29.49,29.49,0,0,1-.55,5.79,18.89,18.89,0,0,1-2.49,5.89,18.48,18.48,0,0,1-5.09,5.46,27.57,27.57,0,0,1-8.74,3.8A49.42,49.42,0,0,1,676.29,425.32Z"/></g></g></svg>