<?xml version="1.0" encoding="UTF-8" standalone="no"?>
<svg
   xmlns:dc="http://purl.org/dc/elements/1.1/"
   xmlns:cc="http://creativecommons.org/ns#"
   xmlns:rdf="http://www.w3.org/1999/02/22-rdf-syntax-ns#"
   xmlns:svg="http://www.w3.org/2000/svg"
   xmlns="http://www.w3.org/2000/svg"
   xmlns:sodipodi="http://sodipodi.sourceforge.net/DTD/sodipodi-0.dtd"
   xmlns:inkscape="http://www.inkscape.org/namespaces/inkscape"
   id=""
   width="280"
   height="180"
   version="1.1"
   sodipodi:docname="icon.svg"
   inkscape:version="0.92.4 (5da689c313, 2019-01-14)">
  <metadata
     id="metadata891">
    <rdf:RDF>
      <cc:Work
         rdf:about="">
        <dc:format>image/svg+xml</dc:format>
        <dc:type
           rdf:resource="http://purl.org/dc/dcmitype/StillImage" />
      </cc:Work>
    </rdf:RDF>
  </metadata>
  <sodipodi:namedview
     pagecolor="#ffffff"
     bordercolor="#666666"
     borderopacity="1"
     objecttolerance="10"
     gridtolerance="10"
     guidetolerance="10"
     inkscape:pageopacity="0"
     inkscape:pageshadow="2"
     inkscape:window-width="1278"
     inkscape:window-height="982"
     id="namedview889"
     showgrid="false"
     inkscape:zoom="2.4"
     inkscape:cx="140"
     inkscape:cy="90"
     inkscape:window-x="0"
     inkscape:window-y="20"
     inkscape:window-maximized="0"
     inkscape:current-layer="" />
  <defs
     id="defs883">
    <style
       id="style881">.bwcls-1{fill:#fff}</style>
  </defs>
  <g
     id="logo"
     transform="matrix(1.6505322,0,0,1.5731258,-88.105336,-10.096218)">
    <path
       d="m 163.9,69.4 c -2.2,-1.2 -5.1,-1.2 -7.2,0.3 -0.4,0.4 -1,0.4 -1.4,0 l -6.5,-3.8 c 0,0.2 -0.1,0 -0.1,0 0,-0.2 0.1,-0.2 0.1,-0.2 l 6.5,-3.8 c 0.4,-0.2 1,-0.2 1.4,0.2 2.1,1.5 5,1.6 7.2,0.1 3,-1.8 4,-5.5 2.4,-8.7 -1.5,-2.6 -4.7,-3.8 -7.6,-3 -2.9,0.9 -4.9,3.7 -4.7,6.7 0.1,0.5 -0.2,1 -0.7,1.4 l -6.5,3.8 c -0.1,-0.2 -0.1,-0.2 -0.2,-0.2 h -0.1 v -7.5 c 0,-0.4 0.3,-0.9 0.8,-1.2 2.8,-1.2 4.4,-4.3 3.7,-7.3 -0.7,-3 -3.3,-5.3 -6.4,-5.3 -3.2,0 -5.8,2.3 -6.5,5.3 -0.7,3 0.9,6.1 3.7,7.3 0.5,0.3 0.8,0.8 0.8,1.3 v 7.5 c 0,-0.1 -0.1,-0.1 -0.1,-0.1 h -0.2 l -6.5,-3.8 c -0.5,-0.2 -0.8,-0.7 -0.7,-1.2 0.3,-3 -1.7,-5.9 -4.6,-6.9 -3,-0.9 -6.2,0.5 -7.7,3.1 -1.6,2.8 -1,6.2 1.3,8.3 2.3,2 5.8,2 8.3,0.4 0.4,-0.4 1,-0.4 1.4,-0.2 l 6.5,3.8 c 0,0 0.1,0 0.1,0.2 l -0.1,0.2 -6.5,3.8 c -0.4,0.2 -1,0.2 -1.4,-0.2 -2.1,-1.5 -5,-1.5 -7.2,-0.3 -3,1.8 -4,5.7 -2.4,8.8 1.5,2.5 4.7,3.9 7.6,3 2.9,-1 4.9,-3.6 4.7,-6.6 -0.1,-0.5 0.2,-1.2 0.7,-1.4 l 6.5,-3.8 h 0.2 c 0,0 0.1,0 0.1,0.2 v 7.5 c 0,0.5 -0.3,1 -0.8,1.1 -2.8,1.4 -4.4,4.4 -3.7,7.4 0.7,3 3.3,5.1 6.4,5.1 3.2,0 5.8,-2.1 6.5,-5.1 0.7,-3 -0.9,-6 -3.7,-7.4 -0.5,-0.1 -0.8,-0.6 -0.8,-1.1 v -7.5 c 0,-0.2 0.1,-0.2 0.1,-0.2 h 0.2 l 6.5,3.8 c 0.5,0.2 0.8,0.9 0.7,1.4 -0.2,3 1.8,5.6 4.7,6.6 2.9,0.9 6.1,-0.5 7.6,-3 1.6,-3.1 0.6,-7 -2.4,-8.8 z"
       transform="matrix(2,0,0,2,-150,-70)"
       id="path885"
       inkscape:connector-curvature="0"
       style="fill:#ff9800" />
  </g>
</svg>
