<svg height="256pt" preserveAspectRatio="xMidYMid meet" viewBox="0 0 256 256" width="256pt" xmlns="http://www.w3.org/2000/svg"><path d="m1105 2548c-366-67-645-233-850-507-61-81-175-292-175-323 0-8-4-18-9-23-23-25-71-304-71-415 0-86 27-273 53-366 39-138 144-334 243-451 24-28 44-56 44-62s5-11 11-11c14 0 39-25 39-39 0-6 6-11 13-11 6 0 32-19 56-41 138-126 374-241 576-280 107-20 355-23 458-5 89 16 181 39 222 56 219 90 354 178 491 322 241 252 354 534 354 883 0 189-27 342-81 462-10 24-19 46-19 50-1 27-90 178-156 265-51 65-174 201-174 191 0-4-12 5-27 19-75 69-213 152-338 204-22 9-49 20-60 24-133 56-448 86-600 58zm425-127c137-36 134-30 49-89-41-28-96-68-124-87-27-20-75-52-105-73-30-20-60-41-66-47-6-5-64-46-129-90-64-44-126-88-137-97-20-17-21-16-48 20-32 44-94 100-124 111-11 5-37 11-56 15-29 5-24 1 25-22 73-35 127-93 169-181l31-66 5-446c5-422 6-448 24-468s28-21 281-21c244 0 264 1 286 19 24 19 24 21 24 230 0 265 10 249-166 261-139 9-206 29-284 85-80 56-141 172-104 196 8 5 123 9 257 9 188 0 257-4 305-16 117-29 225-127 264-239 26-73 26-528 0-594-42-107-155-208-260-231-35-8-150-10-347-8l-295 3-57 28c-79 39-143 104-181 185l-32 67-3 445c-2 250-8 436-12 424-5-12-28-35-52-51s-72-49-108-74c-36-24-67-47-70-50-4-5-52-38-220-153-25-17-47-33-50-36s-25-19-50-35-48-34-52-40c-5-5-6 10-3 35 2 25 7 72 9 105 11 136 89 336 186 481 64 93 199 237 290 305 127 97 343 185 510 209 102 14 332 4 420-19z" transform="matrix(.1 0 0 -.1 0 256)"/></svg>