<svg height="256pt" viewBox="0 0 256 256" width="256pt" xmlns="http://www.w3.org/2000/svg"><path d="M110.5 1.2C73.9 7.9 46 24.5 25.5 51.9 19.4 60 8 81.1 8 84.2c0 .8-.4 1.8-.9 2.3C4.8 89 0 116.9 0 128c0 8.6 2.7 27.3 5.3 36.6 3.9 13.8 14.4 33.4 24.3 45.1 2.4 2.8 4.4 5.6 4.4 6.2s.5 1.1 1.1 1.1c1.4 0 3.9 2.5 3.9 3.9 0 .6.6 1.1 1.3 1.1.6 0 3.2 1.9 5.6 4.1 13.8 12.6 37.4 24.1 57.6 28 10.7 2 35.5 2.3 45.8.5 8.9-1.6 18.1-3.9 22.2-5.6 21.9-9 35.4-17.8 49.1-32.2 24.1-25.2 35.4-53.4 35.4-88.3 0-18.9-2.7-34.2-8.1-46.2-1-2.4-1.9-4.6-1.9-5-.1-2.7-9-17.8-15.6-26.5-5.1-6.5-17.4-20.1-17.4-19.1 0 .4-1.2-.5-2.7-1.9-7.5-6.9-21.3-15.2-33.8-20.4-2.2-.9-4.9-2-6-2.4-13.3-5.6-44.8-8.6-60-5.8zM153 13.9c13.7 3.6 13.4 3 4.9 8.9-4.1 2.8-9.6 6.8-12.4 8.7-2.7 2-7.5 5.2-10.5 7.3-3 2-6 4.1-6.6 4.7-.6.5-6.4 4.6-12.9 9-6.4 4.4-12.6 8.8-13.7 9.7-2 1.7-2.1 1.6-4.8-2-3.2-4.4-9.4-10-12.4-11.1-1.1-.5-3.7-1.1-5.6-1.5-2.9-.5-2.4-.1 2.5 2.2 7.3 3.5 12.7 9.3 16.9 18.1l3.1 6.6.5 44.6c.5 42.2.6 44.8 2.4 46.8s2.8 2.1 28.1 2.1c24.4 0 26.4-.1 28.6-1.9 2.4-1.9 2.4-2.1 2.4-23 0-26.5 1-24.9-16.6-26.1-13.9-.9-20.6-2.9-28.4-8.5-8-5.6-14.1-17.2-10.4-19.6.8-.5 12.3-.9 25.7-.9 18.8 0 25.7.4 30.5 1.6 11.7 2.9 22.5 12.7 26.4 23.9 2.6 7.3 2.6 52.8 0 59.4-4.2 10.7-15.5 20.8-26 23.1-3.5.8-15 1-34.7.8l-29.5-.3-5.7-2.8c-7.9-3.9-14.3-10.4-18.1-18.5l-3.2-6.7-.3-44.5c-.2-25-.8-43.6-1.2-42.4-.5 1.2-2.8 3.5-5.2 5.1s-7.2 4.9-10.8 7.4c-3.6 2.4-6.7 4.7-7 5-.4.5-5.2 3.8-22 15.3-2.5 1.7-4.7 3.3-5 3.6s-2.5 1.9-5 3.5-4.8 3.4-5.2 4c-.5.5-.6-1-.3-3.5.2-2.5.7-7.2.9-10.5 1.1-13.6 8.9-33.6 18.6-48.1 6.4-9.3 19.9-23.7 29-30.5 12.7-9.7 34.3-18.5 51-20.9 10.2-1.4 33.2-.4 42 1.9z"/></svg>