<?xml version="1.0" encoding="UTF-8"?>
<svg version="1.1" viewBox="0 0 900 900" xmlns="http://www.w3.org/2000/svg">
<path d="m369 82.424c-52.311 11.554-101.86 33.663-145 65.46-40.662 29.971-75.235 67.757-101.2 111.12-24.719 41.279-40.17 85.865-48.996 133-31.884 170.28 68.647 346.15 226.2 413.57 82.157 35.156 174.6 38.981 260 14.003 106.71-31.213 192.82-111.37 238.69-211.58 16.413-35.85 24.452-74.205 29.733-113-0.18255-6.321 4.5279-34.751 0.819-38.972l-79.224-0.969c-5.721 0.52-4.996 5.391-5.02 9.941-0.054 10.305-1.597 20.794-2.999 31-5.94 43.251-22.018 84.51-45.861 121-77.909 119.23-236.41 166.04-366.14 107.82-30.956-13.892-59.896-32.838-84-56.826-32.181-32.026-57.489-68.344-73.575-111-42.176-111.84-8.669-241.02 79.575-320.83 35.472-32.082 78.445-56.053 125-67.695 47.804-11.954 65.482-5.9584 70.657-9.503l0.601-83.944c-6.2998-5.0971-74.448 6.3342-79.258 7.3966z" fill="#6380df"/>
<path d="m448 454-112.98-88.093-60.264 73.922c1.56 6.443 15.277 14.109 20.249 18.251l59 48.216 46 37.785c19.877 16.327 37.507 32.873 65 27.608 16.654-3.189 26.652-16.234 36.6-28.689l40.011-50 217.25-272-74.692-61.669-63.595 77.669-137.58 172z" fill="#ffb102"/>
</svg>