<svg xmlns="http://www.w3.org/2000/svg" width="400" height="400"><g fill-rule="evenodd"><path d="M322.656.259c-20.716 1.449-35.358 8.619-53.711 26.301-4.57 4.404-14.57 13.645-43.945 40.609-5.264 4.831-9.629 8.922-9.701 9.089-.071.168 24.231.304 54.004.305h54.135v52.929c0 29.112.131 52.909.292 52.883.162-.025 1.876-1.739 3.81-3.808 7.878-8.428 35.019-36.899 45.108-47.317 14.085-14.545 17.838-19.789 22.284-31.134 16.522-42.17-9.038-89.209-53.453-98.372-4.134-.853-13.646-1.843-16.088-1.675l-2.735.19m.782 268.882v54.297H188.589l-.837 1.064c-.461.586-2.376 2.853-4.255 5.039-2.977 3.463-4.709 6.849-2.945 5.759.169-.104.307-.026.307.174 0 .2.388 1.221.863 2.269.474 1.048.876 1.993.893 2.101.016.107.279.635.583 1.172.305.537.593 1.212.641 1.5.141.852.517 1.022 1.031.467.388-.419.368-.459-.104-.204-.323.173-.456.171-.297-.005.16-.175.094-.555-.145-.844-.24-.288-.37-.537-.29-.554 1.266-.26 1.422-.217 1.328.364-.058.353.002.819.132 1.033.13.215.247.743.26 1.172.013.43.2.749.416.71.216-.039.414.312.441.781.085 1.487.395 2.418.778 2.34.204-.042.39.134.414.39.116 1.282.43 2.02.823 1.932.24-.054.416.034.39.195-.124.785.087 1.29.447 1.068.22-.136.375-.102.344.075-.031.177-.013.454.039.615.053.161.125.688.162 1.172.037.483.243.846.459.807.216-.039.414.312.441.781.085 1.487.394 2.418.778 2.34.204-.042.39.134.414.39.115 1.282.43 2.02.823 1.932.24-.054.416.034.39.195-.124.785.087 1.29.447 1.068.22-.136.375-.102.344.075-.031.177-.013.454.039.615.052.161.125.688.162 1.172.036.483.243.846.459.807.216-.039.414.312.441.781.089 1.57.374 2.415.828 2.464.887.096.932.153.522.648-.529.637-.074 1.372.768 1.242.408-.063.605.136.539.543-.058.354.002.819.132 1.034.13.215.247.742.26 1.172.013.43.2.749.416.71.216-.04.414.312.441.781.085 1.487.395 2.418.778 2.339.204-.041.39.134.414.391.116 1.282.43 2.019.823 1.931.24-.053.416.035.39.196-.133.845.096 1.287.535 1.034.268-.154.358-.137.198.039-.159.176-.071.589.196.919.266.329.307.493.09.363-.217-.129-.745.023-1.172.338-.742.547-.728.565.297.382.591-.105 1.074-.027 1.074.173 0 .201.484.353 1.075.338.963-.025.993-.065.293-.383-.527-.24-.159-.278 1.129-.116 1.318.166 1.831.11 1.652-.179-.176-.284.218-.354 1.214-.216 1.131.157 1.337.105.887-.224-.441-.323-.161-.364 1.134-.168 1.202.182 1.641.131 1.457-.167-.181-.292.2-.362 1.209-.222 1.131.157 1.338.105.888-.224-.441-.323-.161-.365 1.134-.168 1.201.181 1.64.131 1.456-.167-.182-.294.184-.354 1.173-.194.992.161 1.354.101 1.172-.195-.182-.295.165-.359 1.111-.205.875.142 1.376.067 1.376-.207 0-.236.236-.338.525-.228.557.214 36.306-5.741 105.92-17.645 40.248-6.882 41.023-7.066 48.657-11.507 22.223-12.929 30.226-40.201 18.394-62.678-2.833-5.381-5.556-8.733-12.212-15.037-3.289-3.115-17.81-17.045-32.268-30.956-14.459-13.911-26.375-25.293-26.48-25.293-.106 0-.192 24.433-.192 54.297m-297.87-19.825-1.545 1.661 1.661-1.545c.913-.849 1.66-1.596 1.66-1.66 0-.295-.34 0-1.776 1.544m155.879 83.879c-.082.425.005.868.194.985.351.217.207 1.681-.207 2.095-.127.127-.145-.246-.039-.828.198-1.097-.314-1.841-.673-.977-.112.27-.166.139-.12-.29.084-.775.556-1.758.844-1.758.082 0 .083.348.001.773m1.205 3.959a62.5 62.5 0 0 1 .318 1.518c.062.322.315.608.563.635.933.101.987.157.56.584-.241.241-.351.725-.244 1.075.123.404.009.351-.313-.146-.279-.429-.534-.913-.567-1.074-.032-.161-.094-.337-.138-.391-.043-.053-.141-.428-.217-.832-.076-.404-.312-.909-.525-1.122-.213-.213-.291-.637-.174-.942.266-.694.473-.499.737.695m2.038 6.343c-.617.469-.611.539.089 1.044.553.399.625.621.271.845-.336.214-.345.307-.03.311.357.005 1.212 1.722 1.365 2.741.016.107.373.678.794 1.269.421.591.621 1.077.445 1.08-.176.004-.056.177.267.385.432.28.451.38.069.385-.388.004-.365.157.095.616.336.336.832.506 1.102.376.27-.129.197-.017-.163.248-.604.445-.592.537.158 1.186.555.482.638.706.263.71-.445.005-.438.078.038.385.322.208.442.381.266.385-.175.003.056.533.515 1.178.459.644.723 1.172.586 1.172-.136 0 .127.527.586 1.171.459.645.691 1.175.515 1.178-.176.004-.056.177.267.385.432.28.451.38.069.385-.388.004-.365.157.095.616.336.336.832.506 1.102.376.27-.129.197-.017-.163.248-.604.445-.592.537.157 1.186.556.482.639.706.264.71-.445.005-.438.078.038.385.322.208.442.381.266.385-.175.003.088.577.585 1.275.497.699.865 1.312.818 1.363-.177.194.44 1.481.842 1.756.276.189.243.289-.097.293-.389.005-.365.157.094.617.336.336.832.499 1.102.362.27-.137.194-.004-.17.295-.619.509-.613.58.089 1.085.553.4.625.622.271.846-.336.214-.345.307-.03.311.391.005 1.275 1.801 1.158 2.35-.023.107.365.766.862 1.464.497.699.76 1.273.584 1.276-.176.003-.056.176.267.385.432.279.451.38.069.384-.388.005-.365.157.095.617 1.067 1.067 1.48.21.537-1.114-.482-.676-.91-1.464-.952-1.75-.042-.286-.303-.793-.579-1.126-.277-.333-.555-.852-.618-1.152-.282-1.345-.353-1.557-.706-2.109a3.31 3.31 0 0 1-.428-1.27c-.03-.376-.099-.771-.153-.879-.053-.107-.119-.415-.146-.683a.563.563 0 0 0-.552-.489c-.809 0-1.272-1.069-.744-1.722.351-.435.353-.508.004-.299-.456.273-.977-.254-1.187-1.201l-.218-.977c-.06-.268-.277-.752-.482-1.074-.206-.322-.377-.85-.38-1.172-.004-.322-.441-1.196-.972-1.941-.532-.745-1-1.588-1.042-1.875-.042-.286-.303-.792-.58-1.126-.276-.333-.561-.895-.632-1.25-.241-1.203-.317-1.425-.691-2.011-.205-.322-.377-.85-.38-1.172-.004-.322-.441-1.196-.972-1.941-.531-.745-1-1.588-1.042-1.875-.042-.286-.303-.792-.579-1.126-.487-.586-.556-.763-.833-2.147a3.272 3.272 0 0 0-.55-1.172c-.232-.291-.372-.836-.311-1.212.13-.802.164-.795-.677-.155M25 373.633c1.167 1.181 2.21 2.148 2.317 2.148.107 0-.759-.967-1.926-2.148-1.167-1.182-2.21-2.149-2.317-2.149-.108 0 .759.967 1.926 2.149" fill="#0eacf3"/><path d="M67.383.243C56.735 1.82 48.712 4.124 41.705 7.618 1.718 27.556-11.628 77.096 12.983 114.231c7.229 10.909 12.962 15.726 46.197 38.818 1.718 1.194 5.937 4.136 9.375 6.537 3.437 2.402 6.645 4.573 7.129 4.826l.879.459V76.563h51.367c29.206 0 51.367-.148 51.367-.343 0-.478-.993-1.255-1.306-1.021-.141.105-.175.081-.076-.054.1-.136-5.745-6.333-12.988-13.772a7945.982 7945.982 0 0 1-26.841-27.732C118.723 13.522 112.325 8.785 97.683 3.728 89.296.832 74.727-.844 67.383.243m29.883 109.034c0 .161 5.959.293 13.244.293 7.284 0 13.162-.132 13.062-.293-.099-.161-6.059-.293-13.243-.293-7.185 0-13.063.132-13.063.293m81.763 0c3.612.064 9.413.064 12.89 0 3.478-.065.522-.118-6.567-.118-7.09 0-9.936.053-6.323.118m48.412 0c11.763.058 31.011.058 42.774 0 11.763-.057 2.139-.104-21.387-.104-23.525 0-33.149.047-21.387.104m10.247 61.231c0 22.558.047 31.73.105 20.38.057-11.349.057-29.806 0-41.016-.058-11.209-.105-1.923-.105 20.636m22.266 0c0 22.558.047 31.73.105 20.38.057-11.349.057-29.806 0-41.016-.058-11.209-.105-1.923-.105 20.636M158.776 190.82c0 11.387.05 15.989.11 10.227.061-5.762.061-15.079 0-20.703-.061-5.625-.11-.91-.11 10.476m-59.383 86.632c-.105.276-.14 3.836-.076 7.912l.115 7.409.089-7.714.088-7.715H191.78l.119 7.519.118 7.52-.012-7.617-.013-7.618-46.203-.099c-37.343-.08-46.24-.003-46.396.403" fill="#d83daf"/><path d="M97.656 109.582c0 .119 8.614 13.897 19.141 30.617l19.141 30.4v40.729h22.656l.003-20.41.003-20.41 16.628-25.781c9.145-14.18 18.018-27.935 19.717-30.567l3.09-4.785-12.787.012-12.787.012-12.478 20.164c-12.166 19.661-12.493 20.142-13.086 19.264-.334-.496-5.717-9.532-11.96-20.079l-11.353-19.178-12.964-.103c-7.13-.056-12.964-.005-12.964.115m108.594 9.949v10.157h31.641v81.64h21.875v-81.64h31.64V109.375H206.25v10.156M99.609 284.961v7.617h92.188v-15.234H99.609v7.617" fill="#fbfbfb"/><path d="M165.234 61.841c0 .067.572.638 1.27 1.27l1.269 1.147-1.147-1.27c-1.069-1.183-1.392-1.449-1.392-1.147m208.19 68.53-2.135 2.246 2.246-2.135c1.236-1.174 2.246-2.185 2.246-2.246 0-.29-.373.048-2.357 2.135m-11.144 11.524-1.147 1.269 1.269-1.147c.699-.631 1.27-1.203 1.27-1.27 0-.302-.322-.036-1.392 1.148M74.609 204.722c-.752.832-1.519 1.516-1.705 1.52-.186.004-1.176.887-2.201 1.961-1.024 1.074-1.991 1.953-2.148 1.953-.157 0-1.124.879-2.149 1.953-1.024 1.075-1.978 1.954-2.119 1.954-.141 0-.915.659-1.72 1.464-1.451 1.453-2.932 2.8-8.049 7.325a203.79 203.79 0 0 0-4.295 3.906c-.904.859-2.75 2.529-4.1 3.711a185.838 185.838 0 0 0-4.318 3.906 353.428 353.428 0 0 1-4.009 3.711c-7.048 6.411-8.881 8.126-11.756 11.003-3.707 3.71-5.344 5.543-7.005 7.845-.659.913-1.345 1.66-1.523 1.66-.179 0-.324.269-.324.598 0 .329-.264.699-.586.823-.323.124-.586.47-.586.769 0 .299-.176.544-.391.544-.215 0-.391.264-.391.586 0 .322-.175.586-.39.586-.215 0-.391.264-.391.586 0 .322-.176.586-.39.586-.215 0-.391.264-.391.586 0 .322-.176.586-.391.586-.215 0-.39.251-.39.558 0 .307-.251.808-.557 1.115-.307.306-.841 1.235-1.187 2.065-.347.829-.776 1.602-.955 1.717-.441.285-2.453 4.31-2.154 4.31.132 0-.224.791-.791 1.758-.566.967-.928 1.758-.804 1.758s.005.396-.263.879c-.269.483-.51.967-.536 1.074-.026.108-.146.459-.266.781-.536 1.439-2.191 6.556-2.464 7.618a86.496 86.496 0 0 1-.415 1.562c-.063.215-.218.918-.345 1.563a25.188 25.188 0 0 1-.437 1.852 17.209 17.209 0 0 0-.375 1.66c-.094.539-.264 1.463-.379 2.054A87.474 87.474 0 0 0 .492 300c-.35 2.344-.335 21.209.019 23.438.523 3.293.593 3.711.818 4.882.124.645.33 1.612.458 2.149l.557 2.344c.573 2.42.711 2.9 1.322 4.595.33.916.607 1.751.615 1.855.009.105.038.278.065.385l.146.586c.054.215.142.479.196.586.053.108.134.327.179.489.045.161.268.732.497 1.269.229.537.793 1.943 1.254 3.125 1.079 2.766 3.939 8.598 4.627 9.439.293.357.57.903.616 1.214.045.311.367.85.715 1.198.348.347.867 1.163 1.155 1.812.287.65.655 1.181.817 1.181.163 0 .296.183.296.408 0 .224.439.881.976 1.46.537.58.977 1.195.977 1.367 0 .33.206.616 1.649 2.289.489.567 1.417 1.676 2.062 2.464 1.483 1.813 9.115 9.466 10.731 10.762.67.537 1.634 1.328 2.143 1.758a25.982 25.982 0 0 0 1.788 1.367c.475.322 1.093.806 1.373 1.074.281.269.699.488.929.488.23 0 .419.176.419.391 0 .215.263.391.586.391.322 0 .586.175.586.39 0 .215.23.391.512.391.282 0 .889.351 1.351.781.461.43 1.008.781 1.215.781.208 0 .91.449 1.562.997.652.549 1.236.962 1.299.92.381-.258 1.839.556 1.623.906-.158.256-.078.31.202.137.254-.157 1.424.256 2.599.919 1.175.664 2.136 1.107 2.136.985 0-.121.572.078 1.27.444 2.181 1.14 2.615 1.333 2.997 1.333.203 0 .865.203 1.47.451s1.333.498 1.618.555c.286.058.813.234 1.172.39.359.157.887.332 1.172.391a7.29 7.29 0 0 1 1.172.39c.721.314 1.061.422 2.215.7.43.104 1.924.472 3.321.819 4.956 1.231 5.306 1.302 10.156 2.057 2.432.378 21.672.358 23.828-.025l2.539-.453c.43-.077 1.221-.239 1.758-.36 3.772-.852 4.102-.933 4.102-1.009 0-.122 1.59-.471 2.404-.527.463-.032.741-.22.619-.418-.122-.198.059-.252.403-.12.343.132.688.051.765-.181.077-.231.686-.441 1.354-.466.667-.025 1.132-.178 1.033-.34-.099-.161.226-.228.722-.146.496.081 1.136-.039 1.421-.267.376-.301.615-.261.873.147.195.308.357.37.361.137.006-.427.298-.514 2.252-.673.59-.048 1.25-.199 1.464-.336.215-.136 1.27-.357 2.344-.491a89.958 89.958 0 0 0 2.93-.41c.537-.092 1.592-.267 2.344-.389.752-.122 1.806-.299 2.343-.393.537-.094 1.592-.269 2.344-.39a370.68 370.68 0 0 0 2.442-.403c.591-.101 1.646-.277 2.344-.391.698-.114 1.708-.284 2.245-.378 1.237-.215 3.753-.622 5.274-.853a33.192 33.192 0 0 1 2.599-.253c.785-.042 1.36-.186 1.277-.32-.156-.253.454-.341 3.215-.465.893-.04 1.548-.193 1.457-.342-.092-.148.145-.264.525-.257.381.006 1.22-.085 1.864-.202a175.75 175.75 0 0 1 4.97-.811 14.93 14.93 0 0 0 1.904-.425c.645-.205.767-.144.522.263-.263.437-.21.442.3.028.341-.275 1.161-.57 1.822-.653.661-.084 1.581-.273 2.044-.42.644-.204.766-.143.522.264-.268.443-.215.445.324.008.354-.287.828-.409 1.052-.27.224.138.408.047.408-.204 0-.25.258-.356.573-.235.315.121.663.075.773-.103.11-.178.907-.293 1.77-.256.864.037 1.571-.092 1.571-.287 0-.196.258-.256.573-.135.316.121.683.043.816-.173.155-.251.469-.209.869.115.524.424.572.416.292-.047-.249-.414-.172-.493.303-.311.351.135.753.058.894-.17.171-.276.369-.238.593.115.282.446.336.446.342-.001.003-.304.249-.436.579-.31.315.121.683.044.816-.172.155-.251.469-.209.869.115.523.424.571.416.291-.048-.249-.413-.172-.492.304-.31.35.135.752.059.892-.168.141-.227.761-.312 1.38-.188.666.133 1.124.058 1.124-.184 0-.225.396-.358.879-.295.484.062 1.109-.03 1.39-.204.281-.175.94-.21 1.465-.079.575.145.954.071.954-.186 0-.234.396-.375.879-.312.483.062 1.109-.03 1.389-.205.281-.174.955-.206 1.498-.07.702.177.905.116.703-.211-.201-.326.071-.406.944-.278.675.099 1.228.015 1.228-.187s.527-.29 1.172-.196c.773.114 1.171.005 1.171-.32 0-.323-.369-.427-1.074-.301-1.025.183-1.039.165-.297-.382.427-.315.955-.467 1.172-.338.217.13.176-.034-.09-.363-.267-.33-.355-.743-.196-.919.16-.176.07-.193-.198-.039-.439.253-.668-.189-.535-1.034.026-.161-.15-.249-.39-.196-.393.088-.707-.649-.823-1.931-.024-.257-.21-.432-.414-.391-.383.079-.693-.852-.778-2.339-.027-.469-.225-.821-.441-.781-.216.039-.403-.28-.416-.71-.013-.43-.13-.957-.26-1.172-.13-.215-.19-.68-.132-1.034.066-.407-.131-.606-.539-.543-.842.13-1.297-.605-.768-1.242.41-.495.365-.552-.522-.648-.454-.049-.739-.894-.828-2.464-.027-.469-.225-.82-.441-.781-.216.039-.423-.324-.459-.807-.037-.484-.11-1.011-.162-1.172a1.525 1.525 0 0 1-.039-.615c.031-.177-.124-.211-.344-.075-.36.222-.571-.283-.447-1.068.026-.161-.15-.249-.39-.195-.393.088-.708-.65-.823-1.932-.024-.256-.21-.432-.414-.39-.384.078-.693-.853-.778-2.34-.027-.469-.225-.82-.441-.781-.216.039-.422-.324-.459-.807-.037-.484-.109-1.011-.162-1.172a1.525 1.525 0 0 1-.039-.615c.031-.177-.124-.211-.344-.075-.36.222-.571-.283-.447-1.068.026-.161-.15-.249-.39-.195-.393.088-.707-.65-.823-1.932-.024-.256-.21-.432-.414-.39-.383.078-.693-.853-.778-2.34-.027-.469-.225-.82-.441-.781-.216.039-.403-.28-.416-.71-.013-.429-.13-.957-.26-1.172-.13-.214-.19-.68-.132-1.033.065-.407-.133-.609-.539-.549-.354.052-.599.209-.546.35.373.975.402 1.818.063 1.818-.195 0-.378-.175-.404-.39-.095-.76-.18-.987-.733-1.953-.307-.537-.572-1.065-.588-1.172-.017-.108-.419-1.053-.893-2.101-.475-1.048-.863-2.069-.863-2.269 0-.2-.138-.278-.307-.174-.17.105-.345-.25-.389-.789-.061-.737.907-2.135 3.921-5.659 4.773-5.582 4.652-5.33 2.555-5.324-.923.003-26.068-.017-55.877-.043l-54.199-.047v-60.157c0-33.086-.132-60.137-.293-60.113-.162.023-.909.722-1.661 1.554m257.813 18.447c0 .067.571.639 1.269 1.27l1.27 1.147-1.147-1.27c-1.07-1.183-1.392-1.449-1.392-1.147m10.156 9.766c0 .067.571.638 1.27 1.269l1.269 1.148-1.147-1.27c-1.07-1.183-1.392-1.449-1.392-1.147m11.328 11.01c.729.752 1.413 1.368 1.521 1.368.107 0-.401-.616-1.13-1.368-.729-.752-1.413-1.367-1.521-1.367-.107 0 .401.615 1.13 1.367m9.375 8.912c0 .067.572.638 1.27 1.269l1.269 1.147-1.147-1.269c-1.069-1.183-1.392-1.449-1.392-1.147m10.157 9.765c0 .067.571.639 1.269 1.27l1.27 1.147-1.148-1.269c-1.069-1.184-1.391-1.45-1.391-1.148M180.991 332.91c-.167.269-.342.84-.389 1.27-.046.429.008.56.12.29.359-.864.871-.12.673.977-.106.582-.088.955.039.828.414-.414.558-1.878.207-2.095-.189-.117-.276-.56-.194-.985.17-.883-.011-.997-.456-.285m.924 3.549c-.117.305-.039.729.174.942.213.213.449.718.525 1.122.076.404.174.779.217.832.044.054.106.23.138.391.033.161.288.645.567 1.074.322.497.436.55.313.146-.107-.35.003-.834.244-1.075.427-.427.373-.483-.56-.584-.248-.027-.501-.313-.563-.635-.5-2.618-.722-3.082-1.055-2.213m3.452 7.195c-.061.375.079.919.311 1.21.231.29.472.773.535 1.074l.23 1.093c.063.3.341.819.618 1.152.276.334.537.84.579 1.126.042.287.511 1.13 1.042 1.875.531.745.968 1.619.972 1.941.003.322.175.85.38 1.172.352.553.423.765.706 2.109.063.3.341.819.617 1.152.277.334.538.84.58 1.126.042.287.51 1.13 1.042 1.875.531.745.968 1.619.972 1.941.003.322.174.85.38 1.172.205.322.422.806.482 1.074l.218.977c.21.947.731 1.474 1.187 1.201.349-.209.347-.136-.004.299-.528.653-.065 1.722.744 1.722.277 0 .525.22.552.489.027.268.093.576.146.683.054.108.123.503.153.879s.223.947.428 1.27c.353.552.424.764.706 2.109.063.3.341.819.618 1.152.276.333.537.84.579 1.126.042.286.47 1.074.952 1.75.943 1.324.53 2.181-.537 1.114-.46-.46-.483-.612-.095-.617.382-.004.363-.105-.069-.384-.323-.209-.443-.382-.267-.385.176-.003-.024-.489-.445-1.08-.421-.591-.778-1.162-.794-1.27-.153-1.018-1.008-2.735-1.365-2.74-.315-.004-.306-.097.03-.311.354-.224.282-.446-.271-.846-.702-.505-.708-.576-.089-1.085.364-.299.44-.432.17-.295s-.766-.026-1.102-.362c-.459-.46-.483-.612-.094-.617.34-.004.373-.104.097-.293-.376-.257-.836-1.172-.981-1.951-.029-.159-.398-.772-.818-1.363-.421-.591-.621-1.077-.446-1.08.176-.004.056-.177-.266-.385-.476-.307-.483-.38-.038-.385.375-.004.292-.228-.264-.71-.749-.649-.761-.741-.157-1.186.36-.265.433-.377.163-.248-.27.13-.766-.04-1.102-.376-.46-.459-.483-.612-.095-.616.382-.005.363-.105-.069-.385-.323-.208-.443-.381-.267-.385.176-.003-.056-.533-.515-1.178-.459-.644-.722-1.171-.586-1.171.137 0-.127-.528-.586-1.172-.459-.645-.69-1.175-.515-1.178.176-.004.056-.177-.266-.385-.476-.307-.483-.38-.038-.385.375-.004.292-.228-.263-.71-.75-.649-.762-.741-.158-1.186.36-.265.433-.377.163-.248-.27.13-.766-.04-1.102-.376-.46-.459-.483-.612-.095-.616.382-.005.363-.105-.069-.385-.323-.208-.443-.381-.267-.385.176-.003-.024-.489-.445-1.08-.421-.591-.805-1.25-.855-1.465-.248-1.082-.877-2.36-1.29-2.623-.335-.213-.312-.296.084-.301.367-.004.267-.25-.301-.742-.727-.63-.76-.77-.23-.974.347-.133.496-.436.338-.691-.166-.268-.11-.349.136-.196.229.141.367.564.306.939" fill="#6f71f9"/><path d="m128.074 76.466-51.419.099-.154 52.245c-.084 28.735-.084 84.281.001 123.436l.154 71.192h246.782l.074-54.395c.067-48.398-.1-192.213-.222-192.331-.144-.14-151.504-.33-195.216-.246m7.404 52.937 11.965 20.223.883-1.473c.487-.81 6.122-9.911 12.524-20.223l11.64-18.75 12.779-.103c7.028-.057 12.778.039 12.778.213s-8.785 13.931-19.523 30.571l-19.522 30.256-.009 20.606-.009 20.605h-23.046v-40.451l-19.183-30.458c-10.55-16.752-19.271-30.68-19.379-30.952-.158-.393 2.485-.472 12.97-.39l13.167.103 11.965 20.223m155.928-10.067v10.352h-31.25v81.64H237.5v-81.64h-31.25v-20.704h85.156v10.352m-99.308 165.527.106 7.715H99.219v-7.552c0-4.154.118-7.67.262-7.814.144-.144 21.018-.217 46.386-.163l46.125.099.106 7.715" fill="#040404"/></g></svg>