<svg id="svg" version="1.1" xmlns="http://www.w3.org/2000/svg" xmlns:xlink="http://www.w3.org/1999/xlink" width="400" height="400" viewBox="0, 0, 400,400"><g id="svgg"><path id="path0" d="M322.656 0.259 C 301.940 1.708,287.298 8.878,268.945 26.560 C 264.375 30.964,254.375 40.205,225.000 67.169 C 219.736 72.000,215.371 76.091,215.299 76.258 C 215.228 76.426,239.530 76.562,269.303 76.563 L 323.438 76.563 323.438 129.492 C 323.438 158.604,323.569 182.401,323.730 182.375 C 323.892 182.350,325.606 180.636,327.540 178.567 C 335.418 170.139,362.559 141.668,372.648 131.250 C 386.733 116.705,390.486 111.461,394.932 100.116 C 411.454 57.946,385.894 10.907,341.479 1.744 C 337.345 0.891,327.833 -0.099,325.391 0.069 C 324.854 0.106,323.623 0.192,322.656 0.259 M323.438 269.141 L 323.438 323.438 256.013 323.438 L 188.589 323.438 187.752 324.502 C 187.291 325.088,185.376 327.355,183.497 329.541 C 180.520 333.004,178.788 336.390,180.552 335.300 C 180.721 335.196,180.859 335.274,180.859 335.474 C 180.859 335.674,181.247 336.695,181.722 337.743 C 182.196 338.791,182.598 339.736,182.615 339.844 C 182.631 339.951,182.894 340.479,183.198 341.016 C 183.503 341.553,183.791 342.228,183.839 342.516 C 183.980 343.368,184.356 343.538,184.870 342.983 C 185.258 342.564,185.238 342.524,184.766 342.779 C 184.443 342.952,184.310 342.950,184.469 342.774 C 184.629 342.599,184.563 342.219,184.324 341.930 C 184.084 341.642,183.954 341.393,184.034 341.376 C 185.300 341.116,185.456 341.159,185.362 341.740 C 185.304 342.093,185.364 342.559,185.494 342.773 C 185.624 342.988,185.741 343.516,185.754 343.945 C 185.767 344.375,185.954 344.694,186.170 344.655 C 186.386 344.616,186.584 344.967,186.611 345.436 C 186.696 346.923,187.006 347.854,187.389 347.776 C 187.593 347.734,187.779 347.910,187.803 348.166 C 187.919 349.448,188.233 350.186,188.626 350.098 C 188.866 350.044,189.042 350.132,189.016 350.293 C 188.892 351.078,189.103 351.583,189.463 351.361 C 189.683 351.225,189.838 351.259,189.807 351.436 C 189.776 351.613,189.794 351.890,189.846 352.051 C 189.899 352.212,189.971 352.739,190.008 353.223 C 190.045 353.706,190.251 354.069,190.467 354.030 C 190.683 353.991,190.881 354.342,190.908 354.811 C 190.993 356.298,191.302 357.229,191.686 357.151 C 191.890 357.109,192.076 357.285,192.100 357.541 C 192.215 358.823,192.530 359.561,192.923 359.473 C 193.163 359.419,193.339 359.507,193.313 359.668 C 193.189 360.453,193.400 360.958,193.760 360.736 C 193.980 360.600,194.135 360.634,194.104 360.811 C 194.073 360.988,194.091 361.265,194.143 361.426 C 194.195 361.587,194.268 362.114,194.305 362.598 C 194.341 363.081,194.548 363.444,194.764 363.405 C 194.980 363.366,195.178 363.717,195.205 364.186 C 195.294 365.756,195.579 366.601,196.033 366.650 C 196.920 366.746,196.965 366.803,196.555 367.298 C 196.026 367.935,196.481 368.670,197.323 368.540 C 197.731 368.477,197.928 368.676,197.862 369.083 C 197.804 369.437,197.864 369.902,197.994 370.117 C 198.124 370.332,198.241 370.859,198.254 371.289 C 198.267 371.719,198.454 372.038,198.670 371.999 C 198.886 371.959,199.084 372.311,199.111 372.780 C 199.196 374.267,199.506 375.198,199.889 375.119 C 200.093 375.078,200.279 375.253,200.303 375.510 C 200.419 376.792,200.733 377.529,201.126 377.441 C 201.366 377.388,201.542 377.476,201.516 377.637 C 201.383 378.482,201.612 378.924,202.051 378.671 C 202.319 378.517,202.409 378.534,202.249 378.710 C 202.090 378.886,202.178 379.299,202.445 379.629 C 202.711 379.958,202.752 380.122,202.535 379.992 C 202.318 379.863,201.790 380.015,201.363 380.330 C 200.621 380.877,200.635 380.895,201.660 380.712 C 202.251 380.607,202.734 380.685,202.734 380.885 C 202.734 381.086,203.218 381.238,203.809 381.223 C 204.772 381.198,204.802 381.158,204.102 380.840 C 203.575 380.600,203.943 380.562,205.231 380.724 C 206.549 380.890,207.062 380.834,206.883 380.545 C 206.707 380.261,207.101 380.191,208.097 380.329 C 209.228 380.486,209.434 380.434,208.984 380.105 C 208.543 379.782,208.823 379.741,210.118 379.937 C 211.320 380.119,211.759 380.068,211.575 379.770 C 211.394 379.478,211.775 379.408,212.784 379.548 C 213.915 379.705,214.122 379.653,213.672 379.324 C 213.231 379.001,213.511 378.959,214.806 379.156 C 216.007 379.337,216.446 379.287,216.262 378.989 C 216.080 378.695,216.446 378.635,217.435 378.795 C 218.427 378.956,218.789 378.896,218.607 378.600 C 218.425 378.305,218.772 378.241,219.718 378.395 C 220.593 378.537,221.094 378.462,221.094 378.188 C 221.094 377.952,221.330 377.850,221.619 377.960 C 222.176 378.174,257.925 372.219,327.539 360.315 C 367.787 353.433,368.562 353.249,376.196 348.808 C 398.419 335.879,406.422 308.607,394.590 286.130 C 391.757 280.749,389.034 277.397,382.378 271.093 C 379.089 267.978,364.568 254.048,350.110 240.137 C 335.651 226.226,323.735 214.844,323.630 214.844 C 323.524 214.844,323.438 239.277,323.438 269.141 M25.568 249.316 L 24.023 250.977 25.684 249.432 C 26.597 248.583,27.344 247.836,27.344 247.772 C 27.344 247.477,27.004 247.772,25.568 249.316 M181.447 333.195 C 181.365 333.620,181.452 334.063,181.641 334.180 C 181.992 334.397,181.848 335.861,181.434 336.275 C 181.307 336.402,181.289 336.029,181.395 335.447 C 181.593 334.350,181.081 333.606,180.722 334.470 C 180.610 334.740,180.556 334.609,180.602 334.180 C 180.686 333.405,181.158 332.422,181.446 332.422 C 181.528 332.422,181.529 332.770,181.447 333.195 M182.652 337.154 C 182.766 337.667,182.909 338.350,182.970 338.672 C 183.032 338.994,183.285 339.280,183.533 339.307 C 184.466 339.408,184.520 339.464,184.093 339.891 C 183.852 340.132,183.742 340.616,183.849 340.966 C 183.972 341.370,183.858 341.317,183.536 340.820 C 183.257 340.391,183.002 339.907,182.969 339.746 C 182.937 339.585,182.875 339.409,182.831 339.355 C 182.788 339.302,182.690 338.927,182.614 338.523 C 182.538 338.119,182.302 337.614,182.089 337.401 C 181.876 337.188,181.798 336.764,181.915 336.459 C 182.181 335.765,182.388 335.960,182.652 337.154 M184.690 343.497 C 184.073 343.966,184.079 344.036,184.779 344.541 C 185.332 344.940,185.404 345.162,185.050 345.386 C 184.714 345.600,184.705 345.693,185.020 345.697 C 185.377 345.702,186.232 347.419,186.385 348.438 C 186.401 348.545,186.758 349.116,187.179 349.707 C 187.600 350.298,187.800 350.784,187.624 350.787 C 187.448 350.791,187.568 350.964,187.891 351.172 C 188.323 351.452,188.342 351.552,187.960 351.557 C 187.572 351.561,187.595 351.714,188.055 352.173 C 188.391 352.509,188.887 352.679,189.157 352.549 C 189.427 352.420,189.354 352.532,188.994 352.797 C 188.390 353.242,188.402 353.334,189.152 353.983 C 189.707 354.465,189.790 354.689,189.415 354.693 C 188.970 354.698,188.977 354.771,189.453 355.078 C 189.775 355.286,189.895 355.459,189.719 355.463 C 189.544 355.466,189.775 355.996,190.234 356.641 C 190.693 357.285,190.957 357.813,190.820 357.813 C 190.684 357.813,190.947 358.340,191.406 358.984 C 191.865 359.629,192.097 360.159,191.921 360.162 C 191.745 360.166,191.865 360.339,192.188 360.547 C 192.620 360.827,192.639 360.927,192.257 360.932 C 191.869 360.936,191.892 361.089,192.352 361.548 C 192.688 361.884,193.184 362.054,193.454 361.924 C 193.724 361.795,193.651 361.907,193.291 362.172 C 192.687 362.617,192.699 362.709,193.448 363.358 C 194.004 363.840,194.087 364.064,193.712 364.068 C 193.267 364.073,193.274 364.146,193.750 364.453 C 194.072 364.661,194.192 364.834,194.016 364.838 C 193.841 364.841,194.104 365.415,194.601 366.113 C 195.098 366.812,195.466 367.425,195.419 367.476 C 195.242 367.670,195.859 368.957,196.261 369.232 C 196.537 369.421,196.504 369.521,196.164 369.525 C 195.775 369.530,195.799 369.682,196.258 370.142 C 196.594 370.478,197.090 370.641,197.360 370.504 C 197.630 370.367,197.554 370.500,197.190 370.799 C 196.571 371.308,196.577 371.379,197.279 371.884 C 197.832 372.284,197.904 372.506,197.550 372.730 C 197.214 372.944,197.205 373.037,197.520 373.041 C 197.911 373.046,198.795 374.842,198.678 375.391 C 198.655 375.498,199.043 376.157,199.540 376.855 C 200.037 377.554,200.300 378.128,200.124 378.131 C 199.948 378.134,200.068 378.307,200.391 378.516 C 200.823 378.795,200.842 378.896,200.460 378.900 C 200.072 378.905,200.095 379.057,200.555 379.517 C 201.622 380.584,202.035 379.727,201.092 378.403 C 200.610 377.727,200.182 376.939,200.140 376.653 C 200.098 376.367,199.837 375.860,199.561 375.527 C 199.284 375.194,199.006 374.675,198.943 374.375 C 198.661 373.030,198.590 372.818,198.237 372.266 C 198.032 371.943,197.839 371.372,197.809 370.996 C 197.779 370.620,197.710 370.225,197.656 370.117 C 197.603 370.010,197.537 369.702,197.510 369.434 C 197.483 369.165,197.235 368.945,196.958 368.945 C 196.149 368.945,195.686 367.876,196.214 367.223 C 196.565 366.788,196.567 366.715,196.218 366.924 C 195.762 367.197,195.241 366.670,195.031 365.723 C 194.971 365.454,194.873 365.015,194.813 364.746 C 194.753 364.478,194.536 363.994,194.331 363.672 C 194.125 363.350,193.954 362.822,193.951 362.500 C 193.947 362.178,193.510 361.304,192.979 360.559 C 192.447 359.814,191.979 358.971,191.937 358.684 C 191.895 358.398,191.634 357.892,191.357 357.558 C 191.081 357.225,190.796 356.663,190.725 356.308 C 190.484 355.105,190.408 354.883,190.034 354.297 C 189.829 353.975,189.657 353.447,189.654 353.125 C 189.650 352.803,189.213 351.929,188.682 351.184 C 188.151 350.439,187.682 349.596,187.640 349.309 C 187.598 349.023,187.337 348.517,187.061 348.183 C 186.574 347.597,186.505 347.420,186.228 346.036 C 186.157 345.681,185.909 345.154,185.678 344.864 C 185.446 344.573,185.306 344.028,185.367 343.652 C 185.497 342.850,185.531 342.857,184.690 343.497 M25.000 373.633 C 26.167 374.814,27.210 375.781,27.317 375.781 C 27.424 375.781,26.558 374.814,25.391 373.633 C 24.224 372.451,23.181 371.484,23.074 371.484 C 22.966 371.484,23.833 372.451,25.000 373.633 " stroke="none" fill="#0eacf3" fill-rule="evenodd"></path><path id="path1" d="M67.383 0.243 C 56.735 1.820,48.712 4.124,41.705 7.618 C 1.718 27.556,-11.628 77.096,12.983 114.231 C 20.212 125.140,25.945 129.957,59.180 153.049 C 60.898 154.243,65.117 157.185,68.555 159.586 C 71.992 161.988,75.200 164.159,75.684 164.412 L 76.563 164.871 76.563 120.717 L 76.563 76.563 127.930 76.563 C 157.136 76.563,179.297 76.415,179.297 76.220 C 179.297 75.742,178.304 74.965,177.991 75.199 C 177.850 75.304,177.816 75.280,177.915 75.145 C 178.015 75.009,172.170 68.812,164.927 61.373 C 157.684 53.934,145.605 41.455,138.086 33.641 C 118.723 13.522,112.325 8.785,97.683 3.728 C 89.296 0.832,74.727 -0.844,67.383 0.243 M97.266 109.277 C 97.266 109.438,103.225 109.570,110.510 109.570 C 117.794 109.570,123.672 109.438,123.572 109.277 C 123.473 109.116,117.513 108.984,110.329 108.984 C 103.144 108.984,97.266 109.116,97.266 109.277 M179.029 109.277 C 182.641 109.341,188.442 109.341,191.919 109.277 C 195.397 109.212,192.441 109.159,185.352 109.159 C 178.262 109.159,175.416 109.212,179.029 109.277 M227.441 109.277 C 239.204 109.335,258.452 109.335,270.215 109.277 C 281.978 109.220,272.354 109.173,248.828 109.173 C 225.303 109.173,215.679 109.220,227.441 109.277 M237.688 170.508 C 237.688 193.066,237.735 202.238,237.793 190.888 C 237.850 179.539,237.850 161.082,237.793 149.872 C 237.735 138.663,237.688 147.949,237.688 170.508 M259.954 170.508 C 259.954 193.066,260.001 202.238,260.059 190.888 C 260.116 179.539,260.116 161.082,260.059 149.872 C 260.001 138.663,259.954 147.949,259.954 170.508 M158.776 190.820 C 158.776 202.207,158.826 206.809,158.886 201.047 C 158.947 195.285,158.947 185.968,158.886 180.344 C 158.825 174.719,158.776 179.434,158.776 190.820 M99.393 277.452 C 99.288 277.728,99.253 281.288,99.317 285.364 L 99.432 292.773 99.521 285.059 L 99.609 277.344 145.695 277.344 L 191.780 277.344 191.899 284.863 L 192.017 292.383 192.005 284.766 L 191.992 277.148 145.789 277.049 C 108.446 276.969,99.549 277.046,99.393 277.452 " stroke="none" fill="#d83daf" fill-rule="evenodd"></path><path id="path2" d="M97.656 109.582 C 97.656 109.701,106.270 123.479,116.797 140.199 L 135.938 170.599 135.938 190.963 L 135.938 211.328 147.266 211.328 L 158.594 211.328 158.597 190.918 L 158.600 170.508 175.228 144.727 C 184.373 130.547,193.246 116.792,194.945 114.160 L 198.035 109.375 185.248 109.387 L 172.461 109.399 159.983 129.563 C 147.817 149.224,147.490 149.705,146.897 148.827 C 146.563 148.331,141.180 139.295,134.937 128.748 L 123.584 109.570 110.620 109.467 C 103.490 109.411,97.656 109.462,97.656 109.582 M206.250 119.531 L 206.250 129.688 222.070 129.688 L 237.891 129.688 237.891 170.508 L 237.891 211.328 248.828 211.328 L 259.766 211.328 259.766 170.508 L 259.766 129.688 275.586 129.688 L 291.406 129.688 291.406 119.531 L 291.406 109.375 248.828 109.375 L 206.250 109.375 206.250 119.531 M99.609 284.961 L 99.609 292.578 145.703 292.578 L 191.797 292.578 191.797 284.961 L 191.797 277.344 145.703 277.344 L 99.609 277.344 99.609 284.961 " stroke="none" fill="#fbfbfb" fill-rule="evenodd"></path><path id="path3" d="M165.234 61.841 C 165.234 61.908,165.806 62.479,166.504 63.111 L 167.773 64.258 166.626 62.988 C 165.557 61.805,165.234 61.539,165.234 61.841 M373.424 130.371 L 371.289 132.617 373.535 130.482 C 374.771 129.308,375.781 128.297,375.781 128.236 C 375.781 127.946,375.408 128.284,373.424 130.371 M362.280 141.895 L 361.133 143.164 362.402 142.017 C 363.101 141.386,363.672 140.814,363.672 140.747 C 363.672 140.445,363.350 140.711,362.280 141.895 M74.609 204.722 C 73.857 205.554,73.090 206.238,72.904 206.242 C 72.718 206.246,71.728 207.129,70.703 208.203 C 69.679 209.277,68.712 210.156,68.555 210.156 C 68.398 210.156,67.431 211.035,66.406 212.109 C 65.382 213.184,64.428 214.063,64.287 214.063 C 64.146 214.063,63.372 214.722,62.567 215.527 C 61.116 216.980,59.635 218.327,54.518 222.852 C 53.060 224.141,51.128 225.898,50.223 226.758 C 49.319 227.617,47.473 229.287,46.123 230.469 C 44.772 231.650,42.829 233.408,41.805 234.375 C 40.781 235.342,38.977 237.012,37.796 238.086 C 30.748 244.497,28.915 246.212,26.040 249.089 C 22.333 252.799,20.696 254.632,19.035 256.934 C 18.376 257.847,17.690 258.594,17.512 258.594 C 17.333 258.594,17.188 258.863,17.188 259.192 C 17.188 259.521,16.924 259.891,16.602 260.015 C 16.279 260.139,16.016 260.485,16.016 260.784 C 16.016 261.083,15.840 261.328,15.625 261.328 C 15.410 261.328,15.234 261.592,15.234 261.914 C 15.234 262.236,15.059 262.500,14.844 262.500 C 14.629 262.500,14.453 262.764,14.453 263.086 C 14.453 263.408,14.277 263.672,14.063 263.672 C 13.848 263.672,13.672 263.936,13.672 264.258 C 13.672 264.580,13.496 264.844,13.281 264.844 C 13.066 264.844,12.891 265.095,12.891 265.402 C 12.891 265.709,12.640 266.210,12.334 266.517 C 12.027 266.823,11.493 267.752,11.147 268.582 C 10.800 269.411,10.371 270.184,10.192 270.299 C 9.751 270.584,7.739 274.609,8.038 274.609 C 8.170 274.609,7.814 275.400,7.247 276.367 C 6.681 277.334,6.319 278.125,6.443 278.125 C 6.567 278.125,6.448 278.521,6.180 279.004 C 5.911 279.487,5.670 279.971,5.644 280.078 C 5.618 280.186,5.498 280.537,5.378 280.859 C 4.842 282.298,3.187 287.415,2.914 288.477 C 2.748 289.121,2.561 289.824,2.499 290.039 C 2.436 290.254,2.281 290.957,2.154 291.602 C 2.026 292.246,1.830 293.080,1.717 293.454 C 1.604 293.828,1.435 294.575,1.342 295.114 C 1.248 295.653,1.078 296.577,0.963 297.168 C 0.849 297.759,0.637 299.033,0.492 300.000 C 0.142 302.344,0.157 321.209,0.511 323.438 C 1.034 326.731,1.104 327.149,1.329 328.320 C 1.453 328.965,1.659 329.932,1.787 330.469 C 1.915 331.006,2.166 332.061,2.344 332.813 C 2.917 335.233,3.055 335.713,3.666 337.408 C 3.996 338.324,4.273 339.159,4.281 339.263 C 4.290 339.368,4.319 339.541,4.346 339.648 C 4.373 339.756,4.438 340.020,4.492 340.234 C 4.546 340.449,4.634 340.713,4.688 340.820 C 4.741 340.928,4.822 341.147,4.867 341.309 C 4.912 341.470,5.135 342.041,5.364 342.578 C 5.593 343.115,6.157 344.521,6.618 345.703 C 7.697 348.469,10.557 354.301,11.245 355.142 C 11.538 355.499,11.815 356.045,11.861 356.356 C 11.906 356.667,12.228 357.206,12.576 357.554 C 12.924 357.901,13.443 358.717,13.731 359.366 C 14.018 360.016,14.386 360.547,14.548 360.547 C 14.711 360.547,14.844 360.730,14.844 360.955 C 14.844 361.179,15.283 361.836,15.820 362.415 C 16.357 362.995,16.797 363.610,16.797 363.782 C 16.797 364.112,17.003 364.398,18.446 366.071 C 18.935 366.638,19.863 367.747,20.508 368.535 C 21.991 370.348,29.623 378.001,31.239 379.297 C 31.909 379.834,32.873 380.625,33.382 381.055 C 33.890 381.484,34.695 382.100,35.170 382.422 C 35.645 382.744,36.263 383.228,36.543 383.496 C 36.824 383.765,37.242 383.984,37.472 383.984 C 37.702 383.984,37.891 384.160,37.891 384.375 C 37.891 384.590,38.154 384.766,38.477 384.766 C 38.799 384.766,39.063 384.941,39.063 385.156 C 39.063 385.371,39.293 385.547,39.575 385.547 C 39.857 385.547,40.464 385.898,40.926 386.328 C 41.387 386.758,41.934 387.109,42.141 387.109 C 42.349 387.109,43.051 387.558,43.703 388.106 C 44.355 388.655,44.939 389.068,45.002 389.026 C 45.383 388.768,46.841 389.582,46.625 389.932 C 46.467 390.188,46.547 390.242,46.827 390.069 C 47.081 389.912,48.251 390.325,49.426 390.988 C 50.601 391.652,51.562 392.095,51.562 391.973 C 51.562 391.852,52.134 392.051,52.832 392.417 C 55.013 393.557,55.447 393.750,55.829 393.750 C 56.032 393.750,56.694 393.953,57.299 394.201 C 57.904 394.449,58.632 394.699,58.917 394.756 C 59.203 394.814,59.730 394.990,60.089 395.146 C 60.448 395.303,60.976 395.478,61.261 395.537 C 61.546 395.595,62.074 395.771,62.433 395.927 C 63.154 396.241,63.494 396.349,64.648 396.627 C 65.078 396.731,66.572 397.099,67.969 397.446 C 72.925 398.677,73.275 398.748,78.125 399.503 C 80.557 399.881,99.797 399.861,101.953 399.478 C 102.920 399.306,104.062 399.102,104.492 399.025 C 104.922 398.948,105.713 398.786,106.250 398.665 C 110.022 397.813,110.352 397.732,110.352 397.656 C 110.352 397.534,111.942 397.185,112.756 397.129 C 113.219 397.097,113.497 396.909,113.375 396.711 C 113.253 396.513,113.434 396.459,113.778 396.591 C 114.121 396.723,114.466 396.642,114.543 396.410 C 114.620 396.179,115.229 395.969,115.897 395.944 C 116.564 395.919,117.029 395.766,116.930 395.604 C 116.831 395.443,117.156 395.376,117.652 395.458 C 118.148 395.539,118.788 395.419,119.073 395.191 C 119.449 394.890,119.688 394.930,119.946 395.338 C 120.141 395.646,120.303 395.708,120.307 395.475 C 120.313 395.048,120.605 394.961,122.559 394.802 C 123.149 394.754,123.809 394.603,124.023 394.466 C 124.238 394.330,125.293 394.109,126.367 393.975 C 127.441 393.841,128.760 393.656,129.297 393.565 C 129.834 393.473,130.889 393.298,131.641 393.176 C 132.393 393.054,133.447 392.877,133.984 392.783 C 134.521 392.689,135.576 392.514,136.328 392.393 C 137.080 392.272,138.179 392.090,138.770 391.990 C 139.361 391.889,140.416 391.713,141.114 391.599 C 141.812 391.485,142.822 391.315,143.359 391.221 C 144.596 391.006,147.112 390.599,148.633 390.368 C 149.277 390.271,150.447 390.157,151.232 390.115 C 152.017 390.073,152.592 389.929,152.509 389.795 C 152.353 389.542,152.963 389.454,155.724 389.330 C 156.617 389.290,157.272 389.137,157.181 388.988 C 157.089 388.840,157.326 388.724,157.706 388.731 C 158.087 388.737,158.926 388.646,159.570 388.529 C 160.860 388.294,162.897 387.962,164.540 387.718 C 165.124 387.631,165.981 387.440,166.444 387.293 C 167.089 387.088,167.211 387.149,166.966 387.556 C 166.703 387.993,166.756 387.998,167.266 387.584 C 167.607 387.309,168.427 387.014,169.088 386.931 C 169.749 386.847,170.669 386.658,171.132 386.511 C 171.776 386.307,171.898 386.368,171.654 386.775 C 171.386 387.218,171.439 387.220,171.978 386.783 C 172.332 386.496,172.806 386.374,173.030 386.513 C 173.254 386.651,173.438 386.560,173.438 386.309 C 173.438 386.059,173.696 385.953,174.011 386.074 C 174.326 386.195,174.674 386.149,174.784 385.971 C 174.894 385.793,175.691 385.678,176.554 385.715 C 177.418 385.752,178.125 385.623,178.125 385.428 C 178.125 385.232,178.383 385.172,178.698 385.293 C 179.014 385.414,179.381 385.336,179.514 385.120 C 179.669 384.869,179.983 384.911,180.383 385.235 C 180.907 385.659,180.955 385.651,180.675 385.188 C 180.426 384.774,180.503 384.695,180.978 384.877 C 181.329 385.012,181.731 384.935,181.872 384.707 C 182.043 384.431,182.241 384.469,182.465 384.822 C 182.747 385.268,182.801 385.268,182.807 384.821 C 182.810 384.517,183.056 384.385,183.386 384.511 C 183.701 384.632,184.069 384.555,184.202 384.339 C 184.357 384.088,184.671 384.130,185.071 384.454 C 185.594 384.878,185.642 384.870,185.362 384.406 C 185.113 383.993,185.190 383.914,185.666 384.096 C 186.016 384.231,186.418 384.155,186.558 383.928 C 186.699 383.701,187.319 383.616,187.938 383.740 C 188.604 383.873,189.062 383.798,189.062 383.556 C 189.062 383.331,189.458 383.198,189.941 383.261 C 190.425 383.323,191.050 383.231,191.331 383.057 C 191.612 382.882,192.271 382.847,192.796 382.978 C 193.371 383.123,193.750 383.049,193.750 382.792 C 193.750 382.558,194.146 382.417,194.629 382.480 C 195.112 382.542,195.738 382.450,196.018 382.275 C 196.299 382.101,196.973 382.069,197.516 382.205 C 198.218 382.382,198.421 382.321,198.219 381.994 C 198.018 381.668,198.290 381.588,199.163 381.716 C 199.838 381.815,200.391 381.731,200.391 381.529 C 200.391 381.327,200.918 381.239,201.563 381.333 C 202.336 381.447,202.734 381.338,202.734 381.013 C 202.734 380.690,202.365 380.586,201.660 380.712 C 200.635 380.895,200.621 380.877,201.363 380.330 C 201.790 380.015,202.318 379.863,202.535 379.992 C 202.752 380.122,202.711 379.958,202.445 379.629 C 202.178 379.299,202.090 378.886,202.249 378.710 C 202.409 378.534,202.319 378.517,202.051 378.671 C 201.612 378.924,201.383 378.482,201.516 377.637 C 201.542 377.476,201.366 377.388,201.126 377.441 C 200.733 377.529,200.419 376.792,200.303 375.510 C 200.279 375.253,200.093 375.078,199.889 375.119 C 199.506 375.198,199.196 374.267,199.111 372.780 C 199.084 372.311,198.886 371.959,198.670 371.999 C 198.454 372.038,198.267 371.719,198.254 371.289 C 198.241 370.859,198.124 370.332,197.994 370.117 C 197.864 369.902,197.804 369.437,197.862 369.083 C 197.928 368.676,197.731 368.477,197.323 368.540 C 196.481 368.670,196.026 367.935,196.555 367.298 C 196.965 366.803,196.920 366.746,196.033 366.650 C 195.579 366.601,195.294 365.756,195.205 364.186 C 195.178 363.717,194.980 363.366,194.764 363.405 C 194.548 363.444,194.341 363.081,194.305 362.598 C 194.268 362.114,194.195 361.587,194.143 361.426 C 194.091 361.265,194.073 360.988,194.104 360.811 C 194.135 360.634,193.980 360.600,193.760 360.736 C 193.400 360.958,193.189 360.453,193.313 359.668 C 193.339 359.507,193.163 359.419,192.923 359.473 C 192.530 359.561,192.215 358.823,192.100 357.541 C 192.076 357.285,191.890 357.109,191.686 357.151 C 191.302 357.229,190.993 356.298,190.908 354.811 C 190.881 354.342,190.683 353.991,190.467 354.030 C 190.251 354.069,190.045 353.706,190.008 353.223 C 189.971 352.739,189.899 352.212,189.846 352.051 C 189.794 351.890,189.776 351.613,189.807 351.436 C 189.838 351.259,189.683 351.225,189.463 351.361 C 189.103 351.583,188.892 351.078,189.016 350.293 C 189.042 350.132,188.866 350.044,188.626 350.098 C 188.233 350.186,187.919 349.448,187.803 348.166 C 187.779 347.910,187.593 347.734,187.389 347.776 C 187.006 347.854,186.696 346.923,186.611 345.436 C 186.584 344.967,186.386 344.616,186.170 344.655 C 185.954 344.694,185.767 344.375,185.754 343.945 C 185.741 343.516,185.624 342.988,185.494 342.773 C 185.364 342.559,185.304 342.093,185.362 341.740 C 185.427 341.333,185.229 341.131,184.823 341.191 C 184.469 341.243,184.224 341.400,184.277 341.541 C 184.650 342.516,184.679 343.359,184.340 343.359 C 184.145 343.359,183.962 343.184,183.936 342.969 C 183.841 342.209,183.756 341.982,183.203 341.016 C 182.896 340.479,182.631 339.951,182.615 339.844 C 182.598 339.736,182.196 338.791,181.722 337.743 C 181.247 336.695,180.859 335.674,180.859 335.474 C 180.859 335.274,180.721 335.196,180.552 335.300 C 180.382 335.405,180.207 335.050,180.163 334.511 C 180.102 333.774,181.070 332.376,184.084 328.852 C 188.857 323.270,188.736 323.522,186.639 323.528 C 185.716 323.531,160.571 323.511,130.762 323.485 L 76.563 323.438 76.563 263.281 C 76.563 230.195,76.431 203.144,76.270 203.168 C 76.108 203.191,75.361 203.890,74.609 204.722 M332.422 223.169 C 332.422 223.236,332.993 223.808,333.691 224.439 L 334.961 225.586 333.814 224.316 C 332.744 223.133,332.422 222.867,332.422 223.169 M342.578 232.935 C 342.578 233.002,343.149 233.573,343.848 234.204 L 345.117 235.352 343.970 234.082 C 342.900 232.899,342.578 232.633,342.578 232.935 M353.906 243.945 C 354.635 244.697,355.319 245.313,355.427 245.313 C 355.534 245.313,355.026 244.697,354.297 243.945 C 353.568 243.193,352.884 242.578,352.776 242.578 C 352.669 242.578,353.177 243.193,353.906 243.945 M363.281 252.857 C 363.281 252.924,363.853 253.495,364.551 254.126 L 365.820 255.273 364.673 254.004 C 363.604 252.821,363.281 252.555,363.281 252.857 M373.438 262.622 C 373.438 262.689,374.009 263.261,374.707 263.892 L 375.977 265.039 374.829 263.770 C 373.760 262.586,373.438 262.320,373.438 262.622 M180.991 332.910 C 180.824 333.179,180.649 333.750,180.602 334.180 C 180.556 334.609,180.610 334.740,180.722 334.470 C 181.081 333.606,181.593 334.350,181.395 335.447 C 181.289 336.029,181.307 336.402,181.434 336.275 C 181.848 335.861,181.992 334.397,181.641 334.180 C 181.452 334.063,181.365 333.620,181.447 333.195 C 181.617 332.312,181.436 332.198,180.991 332.910 M181.915 336.459 C 181.798 336.764,181.876 337.188,182.089 337.401 C 182.302 337.614,182.538 338.119,182.614 338.523 C 182.690 338.927,182.788 339.302,182.831 339.355 C 182.875 339.409,182.937 339.585,182.969 339.746 C 183.002 339.907,183.257 340.391,183.536 340.820 C 183.858 341.317,183.972 341.370,183.849 340.966 C 183.742 340.616,183.852 340.132,184.093 339.891 C 184.520 339.464,184.466 339.408,183.533 339.307 C 183.285 339.280,183.032 338.994,182.970 338.672 C 182.470 336.054,182.248 335.590,181.915 336.459 M185.367 343.654 C 185.306 344.029,185.446 344.573,185.678 344.864 C 185.909 345.154,186.150 345.637,186.213 345.938 C 186.276 346.238,186.380 346.730,186.443 347.031 C 186.506 347.331,186.784 347.850,187.061 348.183 C 187.337 348.517,187.598 349.023,187.640 349.309 C 187.682 349.596,188.151 350.439,188.682 351.184 C 189.213 351.929,189.650 352.803,189.654 353.125 C 189.657 353.447,189.829 353.975,190.034 354.297 C 190.386 354.850,190.457 355.062,190.740 356.406 C 190.803 356.706,191.081 357.225,191.357 357.558 C 191.634 357.892,191.895 358.398,191.937 358.684 C 191.979 358.971,192.447 359.814,192.979 360.559 C 193.510 361.304,193.947 362.178,193.951 362.500 C 193.954 362.822,194.125 363.350,194.331 363.672 C 194.536 363.994,194.753 364.478,194.813 364.746 C 194.873 365.015,194.971 365.454,195.031 365.723 C 195.241 366.670,195.762 367.197,196.218 366.924 C 196.567 366.715,196.565 366.788,196.214 367.223 C 195.686 367.876,196.149 368.945,196.958 368.945 C 197.235 368.945,197.483 369.165,197.510 369.434 C 197.537 369.702,197.603 370.010,197.656 370.117 C 197.710 370.225,197.779 370.620,197.809 370.996 C 197.839 371.372,198.032 371.943,198.237 372.266 C 198.590 372.818,198.661 373.030,198.943 374.375 C 199.006 374.675,199.284 375.194,199.561 375.527 C 199.837 375.860,200.098 376.367,200.140 376.653 C 200.182 376.939,200.610 377.727,201.092 378.403 C 202.035 379.727,201.622 380.584,200.555 379.517 C 200.095 379.057,200.072 378.905,200.460 378.900 C 200.842 378.896,200.823 378.795,200.391 378.516 C 200.068 378.307,199.948 378.134,200.124 378.131 C 200.300 378.128,200.100 377.642,199.679 377.051 C 199.258 376.460,198.901 375.889,198.885 375.781 C 198.732 374.763,197.877 373.046,197.520 373.041 C 197.205 373.037,197.214 372.944,197.550 372.730 C 197.904 372.506,197.832 372.284,197.279 371.884 C 196.577 371.379,196.571 371.308,197.190 370.799 C 197.554 370.500,197.630 370.367,197.360 370.504 C 197.090 370.641,196.594 370.478,196.258 370.142 C 195.799 369.682,195.775 369.530,196.164 369.525 C 196.504 369.521,196.537 369.421,196.261 369.232 C 195.885 368.975,195.425 368.060,195.280 367.281 C 195.251 367.122,194.882 366.509,194.462 365.918 C 194.041 365.327,193.841 364.841,194.016 364.838 C 194.192 364.834,194.072 364.661,193.750 364.453 C 193.274 364.146,193.267 364.073,193.712 364.068 C 194.087 364.064,194.004 363.840,193.448 363.358 C 192.699 362.709,192.687 362.617,193.291 362.172 C 193.651 361.907,193.724 361.795,193.454 361.924 C 193.184 362.054,192.688 361.884,192.352 361.548 C 191.892 361.089,191.869 360.936,192.257 360.932 C 192.639 360.927,192.620 360.827,192.188 360.547 C 191.865 360.339,191.745 360.166,191.921 360.162 C 192.097 360.159,191.865 359.629,191.406 358.984 C 190.947 358.340,190.684 357.813,190.820 357.813 C 190.957 357.813,190.693 357.285,190.234 356.641 C 189.775 355.996,189.544 355.466,189.719 355.463 C 189.895 355.459,189.775 355.286,189.453 355.078 C 188.977 354.771,188.970 354.698,189.415 354.693 C 189.790 354.689,189.707 354.465,189.152 353.983 C 188.402 353.334,188.390 353.242,188.994 352.797 C 189.354 352.532,189.427 352.420,189.157 352.549 C 188.887 352.679,188.391 352.509,188.055 352.173 C 187.595 351.714,187.572 351.561,187.960 351.557 C 188.342 351.552,188.323 351.452,187.891 351.172 C 187.568 350.964,187.448 350.791,187.624 350.787 C 187.800 350.784,187.600 350.298,187.179 349.707 C 186.758 349.116,186.374 348.457,186.324 348.242 C 186.076 347.160,185.447 345.882,185.034 345.619 C 184.699 345.406,184.722 345.323,185.118 345.318 C 185.485 345.314,185.385 345.068,184.817 344.576 C 184.090 343.946,184.057 343.806,184.587 343.602 C 184.934 343.469,185.083 343.166,184.925 342.911 C 184.759 342.643,184.815 342.562,185.061 342.715 C 185.290 342.856,185.428 343.279,185.367 343.654 " stroke="none" fill="#6f71f9" fill-rule="evenodd"></path><path id="path4" d="M128.074 76.466 L 76.655 76.565 76.501 128.810 C 76.417 157.545,76.417 213.091,76.502 252.246 L 76.656 323.438 200.047 323.438 L 323.438 323.438 323.512 269.043 C 323.579 220.645,323.412 76.830,323.290 76.712 C 323.146 76.572,171.786 76.382,128.074 76.466 M135.478 129.403 L 147.443 149.626 148.326 148.153 C 148.813 147.343,154.448 138.242,160.850 127.930 L 172.490 109.180 185.269 109.077 C 192.297 109.020,198.047 109.116,198.047 109.290 C 198.047 109.464,189.262 123.221,178.524 139.861 L 159.002 170.117 158.993 190.723 L 158.984 211.328 147.461 211.328 L 135.938 211.328 135.938 191.103 L 135.938 170.877 116.755 140.419 C 106.205 123.667,97.484 109.739,97.376 109.467 C 97.218 109.074,99.861 108.995,110.346 109.077 L 123.513 109.180 135.478 129.403 M291.406 119.336 L 291.406 129.688 275.781 129.688 L 260.156 129.688 260.156 170.508 L 260.156 211.328 248.828 211.328 L 237.500 211.328 237.500 170.508 L 237.500 129.688 221.875 129.688 L 206.250 129.688 206.250 119.336 L 206.250 108.984 248.828 108.984 L 291.406 108.984 291.406 119.336 M192.098 284.863 L 192.204 292.578 145.711 292.578 L 99.219 292.578 99.219 285.026 C 99.219 280.872,99.337 277.356,99.481 277.212 C 99.625 277.068,120.499 276.995,145.867 277.049 L 191.992 277.148 192.098 284.863 " stroke="none" fill="#040404" fill-rule="evenodd"></path></g></svg>