<svg height="80" viewBox="0 0 80 80" width="80" xmlns="http://www.w3.org/2000/svg"><path d="m61.7096052 0h-53.52159936c-4.51338858 0-8.18800584 3.67461726-8.18800584 8.22794733v54.00089717c0 4.55333 3.67461726 8.2279473 8.18800584 8.2279473h45.29365176l-2.1168988-7.389176 5.1125108 4.7530376 4.8329204 4.4734471 8.5874209 7.5888835v-71.65503667c0-4.55333007-3.6746173-8.22794733-8.1880057-8.22794733zm-15.417416 52.1635885s-1.4378938-1.7174842-2.6361384-3.2352609c5.2323353-1.477835 7.22941-4.7530375 7.22941-4.7530375-1.6376011 1.0784202-3.1953194 1.8373087-4.5932716 2.356548-1.9970747.8387713-3.9142662 1.3979522-5.7915164 1.7174842-3.8343831.7189469-7.3492344.5192393-10.3448465-.0399415-2.2766648-.4393565-4.233798-1.0784203-5.8713992-1.7174843-.9186543-.3594733-1.9171916-.7988297-2.9157289-1.3580106-.1198245-.0798829-.2396489-.1198245-.3594734-.1997073-.079883-.0399416-.1198245-.0798832-.159766-.1198247-.7189469-.3994149-1.1183618-.6790054-1.1183618-.6790054s1.9171916 3.1953193 6.9897611 4.7130963c-1.1982447 1.5177766-2.6760799 3.3151437-2.6760799 3.3151437-8.8270698-.2795904-12.1821551-6.0711069-12.1821551-6.0711069 0-12.8611604 5.7515749-23.2858897 5.7515749-23.2858897 5.7515748-4.3136811 11.2235593-4.1938566 11.2235593-4.1938566l.3994149.4792978c-7.1894686 2.0769576-10.5046125 5.2323355-10.5046125 5.2323355s.8787128-.4792979 2.356548-1.1583033c4.2737397-1.8772501 7.6687664-2.3964895 9.0667186-2.516314.2396492-.0399414.4393565-.0798829.6790054-.0798829 2.4364311-.319532 5.192394-.399415 8.0681815-.079883 3.7944418.4393564 7.8684738 1.5577182 12.0223891 3.8343832 0 0-3.155378-2.9956119-9.9454315-5.0725695l.5591809-.6390638s5.4719844-.1198245 11.2235593 4.1938566c0 0 5.7515746 10.4247293 5.7515746 23.2858897 0 0-3.3950266 5.7915165-12.2220964 6.0711069zm-18.5727937-18.6526768c-2.2766651 0-4.0740323 1.9970746-4.0740323 4.4335058 0 2.4364308 1.8373087 4.4335055 4.0740323 4.4335055 2.2766648 0 4.0740322-1.9970747 4.0740322-4.4335055.0399413-2.4364312-1.7973674-4.4335058-4.0740322-4.4335058zm14.5786444 0c-2.2766649 0-4.074032 1.9970746-4.074032 4.4335058 0 2.4364308 1.8373084 4.4335055 4.074032 4.4335055 2.2766651 0 4.0740322-1.9970747 4.0740322-4.4335055 0-2.4364312-1.7973671-4.4335058-4.0740322-4.4335058z" fill="#7289da" fill-rule="evenodd" transform="translate(5)"/></svg>