<svg height="80" width="80" xmlns="http://www.w3.org/2000/svg"><path d="M66.71 0H13.188C8.675 0 5 3.675 5 8.228v54c0 4.554 3.675 8.229 8.188 8.229h45.294l-2.117-7.39 5.112 4.754 4.833 4.473 8.588 7.589V8.228C74.898 3.675 71.223 0 66.71 0zM51.292 52.164s-1.438-1.718-2.636-3.236c5.232-1.478 7.23-4.753 7.23-4.753-1.638 1.079-3.196 1.838-4.594 2.357-1.997.839-3.914 1.398-5.791 1.717-3.835.72-7.35.52-10.345-.04a33.528 33.528 0 0 1-5.872-1.717 23.407 23.407 0 0 1-2.915-1.358c-.12-.08-.24-.12-.36-.2-.08-.04-.12-.08-.16-.12-.718-.4-1.118-.679-1.118-.679s1.917 3.196 6.99 4.713c-1.198 1.518-2.676 3.316-2.676 3.316-8.827-.28-12.182-6.072-12.182-6.072 0-12.86 5.751-23.285 5.751-23.285 5.752-4.314 11.224-4.194 11.224-4.194l.4.479c-7.19 2.077-10.505 5.232-10.505 5.232s.878-.479 2.356-1.158c4.274-1.877 7.669-2.396 9.067-2.516.24-.04.44-.08.679-.08 2.436-.32 5.192-.4 8.068-.08a32.559 32.559 0 0 1 12.022 3.834s-3.155-2.995-9.945-5.072l.56-.64s5.471-.12 11.223 4.195c0 0 5.751 10.424 5.751 23.285 0 0-3.395 5.792-12.222 6.072zM32.72 33.51c-2.276 0-4.074 1.997-4.074 4.433 0 2.437 1.838 4.434 4.074 4.434 2.277 0 4.074-1.997 4.074-4.434.04-2.436-1.797-4.433-4.074-4.433zm14.579 0c-2.277 0-4.074 1.997-4.074 4.433 0 2.437 1.837 4.434 4.074 4.434 2.277 0 4.074-1.997 4.074-4.434 0-2.436-1.797-4.433-4.074-4.433z" fill="#7289da" fill-rule="evenodd"/></svg>