<?xml version="1.0" encoding="UTF-8"?>
<!DOCTYPE svg PUBLIC "-//W3C//DTD SVG 1.1//EN" "http://www.w3.org/Graphics/SVG/1.1/DTD/svg11.dtd">
<!-- Creator: CorelDRAW -->
<svg xmlns="http://www.w3.org/2000/svg" xml:space="preserve" width="210mm" height="210mm" version="1.1" style="shape-rendering:geometricPrecision; text-rendering:geometricPrecision; image-rendering:optimizeQuality; fill-rule:evenodd; clip-rule:evenodd"
viewBox="0 0 21000 21000"
 xmlns:xlink="http://www.w3.org/1999/xlink"
 xmlns:xodm="http://www.corel.com/coreldraw/odm/2003">
 <defs>
  <style type="text/css">
   <![CDATA[
    .fil1 {fill:#0E0D1C;fill-rule:nonzero}
    .fil0 {fill:#19324A;fill-rule:nonzero}
    .fil2 {fill:#FF215E;fill-rule:nonzero}
   ]]>
  </style>
 </defs>
 <g id="Layer_x0020_1">
  <metadata id="CorelCorpID_0Corel-Layer"/>
  <g id="_105553147454016">
   <path class="fil0" d="M17558.2 8779.1c-598.57,0 -1197.15,-124.7 -1720.9,-324.23l0 6110.45 -1970.31 -2020.19 0 0c-24.94,-24.94 -49.88,-49.88 -74.82,-74.82 -24.94,-24.94 -24.94,-24.94 -49.88,-49.88 -24.94,-24.94 -49.88,-49.88 -74.82,-49.88 -49.88,-24.94 -99.76,-74.82 -149.64,-99.76 -49.88,-24.94 -99.76,-49.88 -149.64,-74.82 -24.94,0 -49.88,-24.94 -49.88,-24.94 -24.94,0 -49.88,-24.94 -74.82,-24.94 -49.88,-24.94 -99.76,-24.94 -149.64,-49.88 -49.88,-24.94 -99.76,-24.94 -149.64,-24.94 -24.94,0 -74.82,0 -99.76,-24.94 -24.94,0 -49.88,0 -74.82,0 -24.94,0 -74.82,0 -99.76,0l0 0 -9228.06 -0.01 0 -6509.5 9552.25 0c-174.58,-498.81 -274.35,-1047.51 -274.35,-1596.2 0,-648.46 124.7,-1271.97 374.11,-1845.61l-11372.92 0c-947.74,0 -1720.9,773.16 -1720.9,1720.9l0 9926.37c0,947.74 773.16,1720.9 1720.9,1720.9l10200.72 0 4414.49 4514.25 0 0c24.94,24.94 49.88,49.88 99.76,74.82 24.94,0 24.94,24.94 49.88,24.94 49.88,24.94 74.82,74.82 124.7,99.76 24.94,24.94 49.88,24.94 74.82,49.88 24.94,24.94 49.88,24.94 74.82,49.88 24.94,24.94 49.88,24.94 74.82,24.94 24.94,0 49.88,24.94 74.82,24.94 24.94,0 49.88,24.94 74.82,24.94 24.94,0 49.88,24.94 99.76,24.94 24.94,0 49.88,0 74.82,24.94 24.94,0 74.82,24.94 99.76,24.94 24.94,0 49.88,0 74.82,24.94 24.94,0 49.88,0 74.82,24.94 49.88,0 99.76,0 174.58,0l0 0c49.88,0 124.7,0 174.58,0 24.94,0 49.88,0 74.82,0 24.94,0 74.82,0 99.76,-24.94 24.94,0 49.88,-24.94 74.82,-24.94 24.94,0 49.88,-24.94 74.82,-24.94 24.94,0 49.88,-24.94 74.82,-24.94 24.94,0 49.88,-24.94 74.82,-24.94 24.94,0 49.88,-24.94 74.82,-24.94 24.94,-24.94 49.88,-24.94 74.82,-49.88 24.94,-24.94 49.88,-24.94 74.82,-49.88 24.94,-24.94 49.88,-24.94 74.82,-49.88 24.94,-24.94 49.88,-24.94 74.82,-49.88 24.94,-24.94 49.88,-24.94 74.82,-49.88 24.94,-24.94 49.88,-49.88 74.82,-74.82 24.94,-24.94 24.94,-24.94 49.88,-49.88l0 0c24.94,-24.94 49.88,-49.88 74.82,-74.82 24.94,-24.94 24.94,-24.94 49.88,-49.88 24.94,-24.94 49.88,-49.88 49.88,-74.82 24.94,-49.88 74.82,-99.76 99.76,-149.64 24.94,-49.88 49.88,-99.76 74.82,-149.64 0,-24.94 24.94,-49.88 24.94,-74.82 0,-24.94 24.94,-49.88 24.94,-74.82 24.94,-49.88 24.94,-99.76 49.88,-149.64 24.94,-49.88 24.94,-99.76 24.94,-149.64 0,-24.94 0,-74.82 24.94,-99.76 0,-24.94 0,-49.88 0,-49.88 0,-24.94 0,-74.82 0,-99.76l0 0 0.07 -10300.5c-573.64,199.52 -1147.27,324.23 -1745.84,324.23z"/>
   <path class="fil1" d="M15837.29 14565.32l0 4214.96c0,473.87 199.52,897.86 498.81,1197.15 24.94,24.94 49.88,49.88 99.76,74.82 24.94,0 24.94,24.94 49.88,24.94 49.88,24.94 74.82,74.82 124.7,99.76 24.94,24.94 49.88,24.94 74.82,49.88 24.94,24.94 49.88,24.94 74.82,49.88 24.94,24.94 49.88,24.94 74.82,24.94 24.94,24.94 49.88,24.94 74.82,24.94 24.94,0 49.88,24.94 74.82,24.94 24.94,0 49.88,24.94 99.76,24.94 24.94,0 49.88,0 74.82,24.94 24.94,0 74.82,24.94 99.76,24.94 24.94,0 49.88,0 74.82,24.94 24.94,0 49.88,0 74.82,24.94 49.88,0 99.76,0 174.58,0l0 0c49.88,0 124.7,0 174.58,0 24.94,0 49.88,0 74.82,0 24.94,0 74.82,0 99.76,-24.94 24.94,0 49.88,-24.94 74.82,-24.94 24.94,0 49.88,-24.94 74.82,-24.94 24.94,0 49.88,-24.94 74.82,-24.94 24.94,0 49.88,-24.94 74.82,-24.94 24.94,0 49.88,-24.94 74.82,-24.94 24.94,-24.94 49.88,-24.94 74.82,-49.88 24.94,-24.94 49.88,-24.94 74.82,-49.88 24.94,-24.94 49.88,-24.94 74.82,-49.88 24.94,-24.94 49.88,-24.94 74.82,-49.88 24.94,-24.94 49.88,-24.94 74.82,-49.88 24.94,-24.94 49.88,-49.88 74.82,-74.82 24.94,-24.94 24.94,-24.94 49.88,-49.88 24.94,-24.94 49.88,-49.88 74.82,-74.82 24.94,-24.94 24.94,-24.94 49.88,-49.88 24.94,-24.94 49.88,-49.88 49.88,-74.82 74.82,-99.76 124.7,-174.58 174.58,-274.35 0,-24.94 24.94,-49.88 24.94,-74.82 0,-24.94 24.94,-49.88 24.94,-74.82 49.88,-99.76 74.82,-199.52 74.82,-324.23 0,-24.94 0,-74.82 24.94,-99.76 0,-24.94 0,-49.88 0,-49.88 0,-24.94 0,-74.82 0,-99.76 0,-423.99 -149.64,-872.92 -498.81,-1222.09l-2967.86 -2967.94z"/>
   <path class="fil1" d="M14365.8 13767.22c0,-473.87 -199.52,-897.86 -498.81,-1197.15 -24.94,-24.94 -49.88,-49.88 -74.82,-74.82 -24.94,-24.94 -24.94,-24.94 -49.88,-49.88 -24.94,-24.94 -49.88,-49.88 -74.82,-49.88 -99.76,-74.82 -199.52,-124.7 -299.29,-174.58 -24.94,0 -49.88,-24.94 -49.88,-24.94 -24.94,0 -49.88,-24.94 -74.82,-24.94 -99.76,-49.88 -199.52,-74.82 -324.23,-74.82 -24.94,0 -74.82,0 -99.76,-24.94 -24.94,0 -49.88,0 -49.88,0 -24.94,0 -74.82,0 -99.76,0 -423.99,0 -872.92,149.64 -1222.09,498.81 -673.4,673.4 -698.34,1745.84 -24.94,2419.24l498.81 523.75 723.26 -0.01c947.75,-24.94 1720.91,-798.1 1720.91,-1745.84z"/>
   <path class="fil1" d="M1720.9 2095.01c-947.74,0 -1720.9,773.16 -1720.9,1720.9 0,947.74 773.16,1720.9 1720.9,1720.9l1720.91 0.01 0 -1720.9c0,-947.75 -773.16,-1720.91 -1720.91,-1720.91z"/>
   <path class="fil1" d="M3441.81 13767.22l0 -1720.9 -1720.91 0c-947.74,0 -1720.9,773.16 -1720.9,1720.9 0,947.74 773.16,1720.9 1720.9,1720.9 947.75,0 1720.91,-773.16 1720.91,-1720.9z"/>
   <path class="fil2" d="M17558.2 498.81c-1895.49,0 -3441.81,1546.32 -3441.81,3441.81 0,1895.49 1546.32,3441.81 3441.81,3441.81 1895.49,0 3441.81,-1546.32 3441.81,-3441.81 -0.01,-1895.49 -1546.33,-3441.81 -3441.81,-3441.81z"/>
  </g>
 </g>
</svg>
