<?xml version="1.0" standalone="no"?>
<!DOCTYPE svg PUBLIC "-//W3C//DTD SVG 20010904//EN"
 "http://www.w3.org/TR/2001/REC-SVG-20010904/DTD/svg10.dtd">
<svg version="1.0" xmlns="http://www.w3.org/2000/svg"
 width="400.000000pt" height="400.000000pt" viewBox="0 0 400.000000 400.000000"
 preserveAspectRatio="xMidYMid meet">

<g transform="translate(0.000000,400.000000) scale(0.100000,-0.100000)"
fill="#000000" stroke="none">
<path d="M0 2000 l0 -2000 2000 0 2000 0 0 2000 0 2000 -2000 0 -2000 0 0
-2000z m2077 1276 c51 -35 994 -788 1014 -810 27 -29 25 -91 -3 -119 -13 -12
-116 -96 -230 -186 -115 -91 -208 -167 -207 -170 0 -3 84 -71 185 -151 256
-201 274 -218 274 -263 0 -26 -8 -45 -27 -66 -49 -52 -1023 -821 -1048 -827
-14 -3 -35 -4 -47 0 -13 3 -97 65 -188 137 -91 73 -318 253 -505 402 -187 148
-350 281 -362 296 -27 31 -29 66 -5 103 9 15 112 102 227 193 116 91 211 170
213 174 2 5 -94 86 -212 180 -118 94 -222 181 -231 193 -25 36 -19 75 18 112
43 46 1013 815 1040 826 28 11 53 4 94 -24z"/>
<path d="M1699 2908 c-173 -137 -383 -304 -466 -370 -84 -67 -153 -124 -153
-128 0 -4 210 -175 467 -379 411 -327 468 -370 482 -357 9 7 219 174 466 371
248 197 451 361 452 364 1 3 -44 42 -100 86 -56 44 -267 211 -468 371 l-367
292 -313 -250z"/>
<path d="M1277 1740 c-109 -87 -198 -161 -198 -165 0 -13 926 -745 938 -740 6
2 200 154 429 337 l418 333 -444 5 -445 5 -240 193 c-132 105 -244 192 -250
191 -5 0 -99 -72 -208 -159z"/>
<path d="M2368 1772 l-157 -127 165 -3 c91 -1 238 -1 327 0 l161 3 -159 127
c-88 71 -164 128 -170 127 -5 0 -81 -57 -167 -127z"/>
</g>
</svg>
