<?xml version="1.0" encoding="UTF-8"?>
<svg width="1024px" height="1024px" viewBox="0 0 235 293" version="1.1" xmlns="http://www.w3.org/2000/svg" xmlns:xlink="http://www.w3.org/1999/xlink">
    <!-- Generator: Sketch 52.6 (67491) - http://www.bohemiancoding.com/sketch -->
    <title>animatedLogo-0</title>
    <desc>Created with Sketch.</desc>
    <g id="Page-1" stroke="none" stroke-width="1" fill="none" fill-rule="evenodd">
        <g id="animatedLogo-0" transform="translate(-71.000000, -93.000000)">
            <g id="Group-17" transform="translate(75.000000, 97.000000)">
                <path d="M83.6089795,81.3669988 L83.6089795,122.62072 L125.566883,122.57759 C126.099705,122.57759 126.585875,122.563213 127.069589,122.532064 C138.101709,121.806044 146.725079,112.775129 146.725079,101.973492 C146.725079,90.6087715 137.254595,81.3669988 125.608625,81.3669988 L83.6089795,81.3669988 Z M42.1126914,285.126882 C19.1964277,285.126882 0.616403324,266.99796 0.616403324,244.632726 L0.616403324,167.456616 C0.466623823,166.057291 0.385595568,164.634005 0.385595568,163.193947 C0.383140166,161.727531 0.461713019,160.280285 0.616403324,158.852207 L0.616403324,40.8728429 C0.616403324,18.5076092 19.1964277,0.376291002 42.1126914,0.376291002 L125.608625,0.376291002 C183.015916,0.376291002 229.720111,45.9525832 229.720111,101.973492 C229.720111,155.236486 187.089427,199.758492 132.667905,203.333479 C130.354916,203.489226 127.970721,203.568297 125.608625,203.568297 L83.6089795,203.609031 L83.6089795,244.632726 C83.6089795,266.99796 65.0314105,285.126882 42.1126914,285.126882 Z" id="Fill-1" fill="#A2DDEF"></path>
                <path d="M83.6089795,81.3669988 L83.6089795,122.62072 L125.566883,122.57759 C126.099705,122.57759 126.585875,122.563213 127.069589,122.532064 C138.101709,121.806044 146.725079,112.775129 146.725079,101.973492 C146.725079,90.6087715 137.254595,81.3669988 125.608625,81.3669988 L83.6089795,81.3669988 Z M42.1126914,285.126882 C19.1964277,285.126882 0.616403324,266.99796 0.616403324,244.632726 L0.616403324,167.456616 C0.466623823,166.057291 0.385595568,164.634005 0.385595568,163.193947 C0.383140166,161.727531 0.461713019,160.280285 0.616403324,158.852207 L0.616403324,40.8728429 C0.616403324,18.5076092 19.1964277,0.376291002 42.1126914,0.376291002 L125.608625,0.376291002 C183.015916,0.376291002 229.720111,45.9525832 229.720111,101.973492 C229.720111,155.236486 187.089427,199.758492 132.667905,203.333479 C130.354916,203.489226 127.970721,203.568297 125.608625,203.568297 L83.6089795,203.609031 L83.6089795,244.632726 C83.6089795,266.99796 65.0314105,285.126882 42.1126914,285.126882 Z" id="Stroke-3" stroke="#368BD6" stroke-width="7.31760436"></path>
                <path d="M42.112937,244.632007 L42.112937,40.8721241 L125.60887,40.8721241 C160.188292,40.8721241 188.221613,68.2284423 188.221613,101.972773 C188.221613,134.31778 162.466905,160.792332 129.881269,162.932053 C128.466958,163.025501 127.04528,163.073423 125.60887,163.073423 L41.8821292,163.15489" id="Stroke-5" stroke="#368BD6" stroke-width="7.31760436" stroke-linecap="round"></path>
                <path d="M76.3063694,17.6478871 C82.6683151,26.5062832 85.1114398,37.2552053 83.1864049,47.9010949 C81.2589146,58.5541728 75.1940725,67.8342832 66.1090863,74.0377962 C47.352273,86.8449715 21.4060437,82.3858222 8.27210017,64.0963611 C1.91015446,55.237965 -0.532970194,44.4914391 1.39452011,33.8407572 C3.31955501,23.1900754 9.38439712,13.9075689 18.4718387,7.70645204 C37.228652,-5.10072328 63.1724259,-0.641573933 76.3063694,17.6478871 Z M188.563159,285.10364 C175.48569,285.10364 162.619385,279.089419 154.543569,267.844503 L95.8963005,186.170906 C82.7451692,167.855088 87.2999393,142.602549 106.066574,129.771412 C124.833209,116.930692 150.710687,121.37786 163.861819,139.693679 L222.509087,221.367276 C235.662674,239.683094 231.107904,264.935633 212.341269,277.76677 C205.092923,282.724309 196.786299,285.10364 188.563159,285.10364 Z" id="Combined-Shape" fill="#368BD6"></path>
            </g>
        </g>
    </g>
</svg>