<svg height="1024pt" viewBox="0 0 1024 1024" width="1024pt" xmlns="http://www.w3.org/2000/svg"><path d="m512 1024c282.769531 0 512-229.230469 512-512s-229.230469-512-512-512-512 229.230469-512 512 229.230469 512 512 512zm0 0" fill="#fff"/><path d="m607.152344 193.460938-355.195313 26.136718c-28.640625 2.476563-38.625 21.148438-38.625 43.53125v388.210938c0 17.441406 6.222657 32.351562 21.183594 52.277344l83.5 108.25c13.714844 17.433593 26.175781 21.160156 52.363281 19.914062l412.488282-24.890625c34.886718-2.476563 44.867187-18.664063 44.867187-46.039063v-436.746093c0-14.148438-5.601563-18.238281-22.121094-30.285157-.90625-.660156-1.851562-1.347656-2.824219-2.0625l-113.382812-79.632812c-27.414062-19.898438-38.636719-22.402344-82.253906-18.664062zm-227.417969 123.480468c-33.679687 2.273438-41.332031 2.789063-60.457031-12.738281l-48.632813-38.570313c-4.960937-4.988281-2.472656-11.207031 9.984375-12.441406l341.480469-24.886718c28.652344-2.496094 43.605469 7.476562 54.828125 16.179687l58.570312 42.308594c2.492188 1.242187 8.714844 8.695312 1.234376 8.695312l-352.660157 21.164063zm-39.28125 440.171875v-370.78125c0-16.171875 4.984375-23.644531 19.929687-24.902343l405.019532-23.632813c13.738281-1.242187 19.957031 7.472656 19.957031 23.632813v368.296874c0 16.1875-2.5 29.894532-24.9375 31.125l-387.574219 22.414063c-22.429687 1.230469-32.394531-6.222656-32.394531-26.152344zm382.609375-350.890625c2.484375 11.207032 0 22.40625-11.238281 23.667969l-18.675781 3.71875v273.734375c-16.210938 8.707031-31.164063 13.6875-43.621094 13.6875-19.945313 0-24.941406-6.226562-39.882813-24.882812l-122.148437-191.613282v185.394532l38.648437 8.714843s0 22.386719-31.179687 22.386719l-85.972656 4.984375c-2.496094-4.984375 0-17.417969 8.722656-19.910156l22.433594-6.210938v-245.128906l-31.148438-2.492187c-2.5-11.207032 3.722656-27.371094 21.183594-28.625l92.226562-6.210938 127.117188 194.109375v-171.71875l-32.410156-3.714844c-2.488282-13.703125 7.46875-23.65625 19.933593-24.890625zm0 0" fill-rule="evenodd"/></svg>