<svg height="1024pt" viewBox="0 0 1024 1024" width="1024pt" xmlns="http://www.w3.org/2000/svg"><path d="M512 1024c282.77 0 512-229.23 512-512S794.77 0 512 0 0 229.23 0 512s229.23 512 512 512zm0 0" fill="#fff"/><path d="m607.152 193.46-355.195 26.138c-28.64 2.476-38.625 21.148-38.625 43.53V651.34c0 17.441 6.223 32.351 21.184 52.277l83.5 108.25c13.714 17.434 26.175 21.16 52.363 19.914l412.488-24.89c34.887-2.477 44.867-18.664 44.867-46.04V324.106c0-14.148-5.601-18.238-22.12-30.285-.907-.66-1.852-1.347-2.825-2.062l-113.383-79.633c-27.414-19.898-38.636-22.402-82.254-18.664zM379.734 316.942c-33.68 2.274-41.332 2.79-60.457-12.738l-48.632-38.57c-4.961-4.988-2.473-11.207 9.984-12.442l341.48-24.886c28.653-2.496 43.606 7.476 54.828 16.18l58.57 42.308c2.493 1.242 8.716 8.695 1.235 8.695l-352.66 21.164zm-39.28 440.172V386.332c0-16.172 4.983-23.644 19.929-24.902l405.02-23.633c13.738-1.242 19.956 7.473 19.956 23.633v368.297c0 16.187-2.5 29.894-24.937 31.125l-387.574 22.414c-22.43 1.23-32.395-6.223-32.395-26.153zm382.608-350.89c2.485 11.207 0 22.406-11.238 23.668l-18.676 3.718v273.735c-16.21 8.707-31.164 13.687-43.62 13.687-19.946 0-24.942-6.226-39.883-24.883L487.496 504.535V689.93l38.649 8.715s0 22.386-31.18 22.386l-85.973 4.985c-2.496-4.985 0-17.418 8.723-19.91l22.433-6.211v-245.13L409 452.274c-2.5-11.207 3.723-27.37 21.184-28.625l92.226-6.21 127.117 194.109V439.828l-32.41-3.715c-2.488-13.703 7.469-23.656 19.934-24.89zm0 0" fill-rule="evenodd"/></svg>