<svg role="img" viewBox="0 0 24 24" xmlns="http://www.w3.org/2000/svg" id="Affine--Streamline-Simple-Icons" height="24" width="24"><desc>Affine Streamline Icon: https://streamlinehq.com</desc><title>AFFiNE</title><path d="M11.9948 1.3766c-0.5962 0.0055 -1.1835 0.3117 -1.496 0.8633C9.3218 4.294 1.088 18.5025 0.1273 20.2343c-0.3903 0.9368 0.1537 2.0479 1.131 2.3204 0.4061 0.1076 0.8337 0.0533 1.203 0.0664 5.3733 0.005 14.2336 -0.0065 19.6234 0 0.1562 0.0029 0.4285 -0.0014 0.6583 -0.0664 0.709 -0.1974 1.2348 -0.8705 1.2558 -1.6055 0.008 -0.2436 -0.0369 -0.4874 -0.125 -0.713 -0.1113 -0.2414 -0.1953 -0.3671 -0.287 -0.5312l-0.545 -0.9434L14.321 3.656l-0.5449 -0.9434 -0.2734 -0.4726c-0.1236 -0.2046 -0.2846 -0.39 -0.4805 -0.5352 -0.3071 -0.2255 -0.6696 -0.3314 -1.0274 -0.3281Zm0.006 1.3008c0.1467 0.0004 0.2936 0.0735 0.375 0.2148 0.1655 0.2769 0.6486 1.1385 0.8164 1.416 1.8312 3.1736 4.1148 7.1296 6.3047 10.9221L10.3581 5.0895c0.329 -0.5697 1.1259 -1.952 1.2676 -2.1973v-0.002c0.0814 -0.1421 0.2287 -0.2133 0.375 -0.2128zm-2.213 3.4668 7.5548 7.8459c-0.0189 -0.0085 -0.0377 -0.017 -0.0567 -0.0254L9.2858 8.5232c0.0712 -0.622 0.1933 -1.2419 0.3496 -1.8555zM8.3698 8.535 4.2213 21.3203c-0.5326 -0.0002 -1.2787 0.0002 -1.7598 0 -0.1099 -0.0007 -0.6827 0.0033 -0.7579 -0.004 -0.2804 -0.005 -0.478 -0.3305 -0.371 -0.5878 0.6398 -1.1206 4.1786 -7.2439 7.0372 -12.1936Zm0.8437 1.205 5.5743 3.4318 -5.504 -2.2774A9.1593 9.1593 0 0 1 9.2135 9.74zm-0.8594 1.377 -0.6972 9.465c-0.7194 0.3027 -1.4733 0.537 -2.2403 0.7247zm1.1524 0.9083 3.5528 1.2246h-3.086a7.1294 7.1294 0 0 1 -0.33 -0.7734c-0.0508 -0.1501 -0.0956 -0.3 -0.1368 -0.4512zm-0.5527 0.8516c0.0161 0.0437 0.0318 0.0873 0.0488 0.1308l0.834 6.338c-0.3456 0.2621 -0.7092 0.496 -1.088 0.707zm1.8652 1.168h2.3653c0.18 0 0.2928 0.1935 0.2031 0.3496l-1.1836 2.0488a0.233 0.233 0 0 1 -0.4043 0h-0.002l-1.1816 -2.0488c-0.0904 -0.1561 0.0224 -0.3496 0.203 -0.3496zm3.6778 0.0156a7.161 7.161 0 0 1 0.832 0.0996 7.847 7.847 0 0 1 0.463 0.1094l-2.8419 2.4668zm2.381 0.58a9.1839 9.1839 0 0 1 1.0566 0.5274l-5.879 3.1739zm-6.8889 0.2579 1.543 2.6719a7.1154 7.1154 0 0 1 -0.5039 0.67 7.8136 7.8136 0 0 1 -0.3223 0.3456zm8.965 0.9453c0.2738 0.2038 0.5382 0.4222 0.797 0.6485l0.9863 1.0234L10.028 20.168c0.0195 -0.0135 0.0392 -0.0274 0.0586 -0.041zm2.4473 2.6856c0.3799 0.6581 0.848 1.4656 1.1934 2.0645 0.0608 0.0998 0.0519 0.1041 0.0742 0.1367 0.0948 0.2291 -0.0458 0.5041 -0.2793 0.5742 -0.0303 0.0015 -0.0577 0.0146 -0.0918 0.0118 -0.0057 0.005 -0.129 0.0039 -0.2129 0.0039 -3.7797 -0.001 -8.9869 -0.0003 -13.7893 0z" fill="#000000" stroke-width="1"></path></svg>