<?xml version="1.0" encoding="utf-8"?>
<!-- Generator: Adobe Illustrator 28.3.0, SVG Export Plug-In . SVG Version: 6.00 Build 0)  -->
<svg version="1.1" id="Layer_1" xmlns="http://www.w3.org/2000/svg" xmlns:xlink="http://www.w3.org/1999/xlink" x="0px" y="0px"
	 viewBox="0 0 132.3 132.3" style="enable-background:new 0 0 132.3 132.3;" xml:space="preserve">
<style type="text/css">
	.st0{fill:#1A73E8;}
	.st1{fill:#EA4335;}
	.st2{fill:#4285F4;}
	.st3{fill:#FBBC04;}
	.st4{fill:#34A853;}
</style>
<path class="st0" d="M80.2,2.2C75.8,0.8,71,0,66.1,0C52,0,39.3,6.4,30.8,16.5l21.8,18.3L80.2,2.2z"/>
<path class="st1" d="M30.8,16.5C24.1,24.5,20,34.9,20,46.1c0,8.7,1.7,15.7,4.6,22l28-33.3C52.6,34.8,30.8,16.5,30.8,16.5z"/>
<path class="st2" d="M66.2,28.5c9.8,0,17.7,7.9,17.7,17.7c0,4.3-1.6,8.3-4.2,11.4c0,0,13.9-16.6,27.5-32.7
	c-5.6-10.8-15.3-19-27-22.7L52.6,34.8C55.9,31,60.7,28.5,66.2,28.5"/>
<path class="st3" d="M66.2,63.8c-9.8,0-17.7-7.9-17.7-17.7c0-4.3,1.5-8.3,4.1-11.3l-28,33.3c4.8,10.6,12.8,19.2,21,29.9l34.1-40.5
	C76.4,61.4,71.6,63.8,66.2,63.8"/>
<path class="st4" d="M79.1,109.2c15.4-24.1,33.3-35,33.3-63c0-7.7-1.9-14.9-5.2-21.3L45.6,98c2.6,3.4,5.3,7.3,7.9,11.3
	c9.4,14.5,6.8,23.1,12.8,23.1S69.7,123.7,79.1,109.2"/>
</svg>
