<svg clip-rule="evenodd" fill-rule="evenodd" stroke-linejoin="round" stroke-miterlimit="2" viewBox="0 0 1024 1024" xmlns="http://www.w3.org/2000/svg"><g fill-rule="nonzero"><path d="m.065 0v-.71h.228c.058 0 .108.01.15.028.041.019.073.047.096.082.022.036.033.079.033.13 0 .036-.007.068-.02.097-.013.03-.032.054-.057.075s-.054.038-.088.049c-.035.011-.073.017-.115.017-.025 0-.051-.002-.08-.007v.239zm.147-.584v.22c.027.004.051.006.074.006.043 0 .076-.01.1-.029.023-.019.035-.047.035-.084 0-.036-.011-.064-.034-.084-.023-.019-.055-.029-.097-.029z" transform="matrix(143.999858846 0 0 143.999858846 337.03641612 358.75005)"/><path d="m431.35633990538 251.32615530088h20.15998023844v107.42389469912h-20.15998023844z" stroke-width="143.999858846"/><path d="m.219.015c-.027 0-.052-.004-.075-.012s-.043-.02-.059-.035c-.017-.015-.031-.032-.04-.052s-.014-.042-.014-.066c0-.033.009-.063.027-.088s.043-.045.076-.06c.033-.014.071-.021.114-.021.022 0 .043.002.063.006.019.004.038.01.057.017v-.031c0-.03-.008-.054-.025-.073s-.041-.028-.07-.028c-.022 0-.042.005-.06.016s-.031.027-.038.047l-.125-.025c.007-.031.022-.058.044-.081.021-.023.048-.04.079-.053s.065-.019.102-.019c.034 0 .065.005.093.016s.052.026.073.046c.02.02.035.043.047.07.011.027.016.058.016.091v.32h-.125l-.004-.062c-.014.023-.034.041-.061.055-.027.015-.058.022-.095.022zm-.05-.172c0 .019.008.034.023.046s.036.018.061.018c.022 0 .042-.005.059-.014s.031-.022.041-.039c.01-.016.015-.034.015-.054v-.005c-.015-.006-.03-.011-.047-.015-.017-.003-.033-.005-.05-.005-.031 0-.056.006-.074.018-.019.013-.028.029-.028.05z" transform="matrix(143.999858846 0 0 143.999858846 459.57993173 358.75005)"/><path d="m.301.015c-.038 0-.073-.007-.105-.021-.033-.013-.061-.032-.084-.057-.024-.025-.043-.054-.056-.088-.013-.033-.02-.07-.02-.109 0-.04.007-.077.021-.112.013-.034.032-.064.057-.09.024-.025.052-.045.085-.06.033-.014.068-.021.106-.021s.073.007.105.021c.032.015.059.035.082.061.022.026.037.056.046.091l-.133.026c-.01-.023-.024-.041-.042-.054s-.038-.019-.061-.019c-.024 0-.045.007-.063.02-.019.013-.033.032-.044.055-.011.024-.016.051-.016.08s.005.055.016.078c.01.023.024.041.043.053.019.013.04.02.064.02s.046-.006.065-.019.034-.031.043-.054l.133.026c-.009.035-.025.066-.048.092-.024.026-.053.046-.086.06s-.069.021-.108.021z" transform="matrix(143.999858846 0 0 143.999858846 540.21937539 358.75005)"/><path d="m.306.015c-.039 0-.075-.007-.108-.021-.033-.013-.062-.033-.086-.058s-.043-.054-.056-.089c-.013-.034-.02-.071-.02-.112 0-.039.007-.076.02-.11s.032-.064.056-.089c.023-.025.051-.044.083-.058s.067-.021.104-.021c.039 0 .074.007.106.02.031.013.058.032.081.057s.04.054.053.088c.012.034.018.072.018.114v.035h-.379c.006.039.02.07.043.092.023.023.051.034.086.034.024 0 .046-.006.066-.017.019-.011.035-.028.048-.049l.125.04c-.012.03-.03.056-.054.077s-.052.038-.084.049c-.032.012-.066.018-.102.018zm-.007-.45c-.031 0-.056.01-.077.03s-.035.047-.042.082h.233c-.005-.035-.018-.062-.038-.082-.021-.02-.046-.03-.076-.03z" transform="matrix(143.999858846 0 0 143.999858846 621.5797315 358.75005)"/><path d="m.144.204c-.018 0-.035-.002-.051-.005-.016-.004-.031-.01-.045-.018l.027-.11c.007.003.016.006.026.009.01.002.019.003.028.003.019 0 .036-.005.051-.015.014-.011.026-.027.035-.05l.009-.023-.213-.523h.153l.125.374.113-.374h.148l-.217.578c-.02.053-.045.092-.076.117s-.069.037-.113.037z" transform="matrix(143.999858846 0 0 143.999858846 50.259929415 502.7502403)"/><path d="m.31.015c-.039 0-.076-.007-.109-.021s-.062-.034-.087-.059-.044-.054-.057-.088c-.014-.034-.021-.071-.021-.111s.007-.077.021-.111c.014-.033.034-.063.059-.088.024-.025.054-.045.088-.059.033-.014.07-.021.11-.021.039 0 .076.007.109.021s.062.033.087.058.044.055.058.088c.013.034.02.071.02.111s-.007.077-.021.111-.033.064-.058.089-.055.045-.088.059c-.034.014-.071.021-.111.021zm.002-.126c.025 0 .048-.007.068-.02s.036-.032.048-.055c.011-.023.017-.049.017-.078s-.006-.056-.017-.079c-.012-.023-.028-.041-.048-.054s-.043-.02-.068-.02-.048.007-.068.02-.036.031-.047.054c-.012.023-.018.05-.018.079s.006.055.018.078c.011.023.027.042.047.055s.043.02.068.02z" transform="matrix(143.999858846 0 0 143.999858846 128.30823143 502.7502403)"/><path d="m.294.015c-.048 0-.09-.01-.125-.031-.036-.02-.064-.049-.083-.087-.02-.037-.03-.082-.03-.133v-.292h.14v.295c0 .038.009.068.027.089.018.022.042.033.073.033s.055-.011.073-.033c.018-.021.027-.051.027-.089v-.295h.14v.292c0 .038-.006.072-.017.103s-.028.057-.049.079-.047.039-.076.051c-.03.012-.063.018-.1.018z" transform="matrix(143.999858846 0 0 143.999858846 218.16375356 502.7502403)"/><path d="m.056 0v-.528h.129l.005.08c.013-.028.031-.05.054-.065s.049-.022.08-.022c.009 0 .019.001.028.002.009.002.018.004.025.007l-.015.138c-.007-.003-.015-.005-.022-.006-.008-.001-.016-.001-.024-.001-.039 0-.068.012-.089.035-.021.024-.031.058-.031.101v.259z" transform="matrix(143.999858846 0 0 143.999858846 303.41206509 502.7502403)"/><path d="m.246.015c-.037 0-.071-.006-.101-.018-.031-.012-.056-.029-.077-.051s-.036-.048-.044-.078l.126-.027c.007.021.019.037.036.049s.038.018.062.018c.023 0 .041-.005.056-.015s.022-.024.022-.041c0-.015-.006-.027-.019-.037-.013-.009-.035-.017-.065-.022l-.028-.005c-.057-.01-.101-.029-.13-.056-.03-.027-.045-.062-.045-.104 0-.033.009-.063.026-.089.017-.025.041-.045.072-.06s.066-.022.106-.022c.035 0 .068.006.097.017.029.012.053.029.072.05s.033.047.04.077l-.125.026c-.007-.02-.017-.036-.032-.047s-.033-.017-.053-.017c-.021 0-.038.005-.051.015s-.02.023-.02.038c0 .013.007.024.02.033s.035.017.066.022l.028.005c.057.01.1.029.13.056.03.028.045.063.045.106 0 .026-.005.05-.015.071-.011.021-.026.04-.045.056s-.042.028-.068.037-.055.013-.086.013z" transform="matrix(143.999858846 0 0 143.999858846 390.67561694 502.7502403)"/><path d="m.306.015c-.039 0-.075-.007-.108-.021-.033-.013-.062-.033-.086-.058s-.043-.054-.056-.089c-.013-.034-.02-.071-.02-.112 0-.039.007-.076.02-.11s.032-.064.056-.089c.023-.025.051-.044.083-.058s.067-.021.104-.021c.039 0 .074.007.106.02.031.013.058.032.081.057s.04.054.053.088c.012.034.018.072.018.114v.035h-.379c.006.039.02.07.043.092.023.023.051.034.086.034.024 0 .046-.006.066-.017.019-.011.035-.028.048-.049l.125.04c-.012.03-.03.056-.054.077s-.052.038-.084.049c-.032.012-.066.018-.102.018zm-.007-.45c-.031 0-.056.01-.077.03s-.035.047-.042.082h.233c-.005-.035-.018-.062-.038-.082-.021-.02-.046-.03-.076-.03z" transform="matrix(143.999858846 0 0 143.999858846 461.37972695 502.7502403)"/><path d="m.056 0v-.528h.129l.005.08c.013-.028.031-.05.054-.065s.049-.022.08-.022c.009 0 .019.001.028.002.009.002.018.004.025.007l-.015.138c-.007-.003-.015-.005-.022-.006-.008-.001-.016-.001-.024-.001-.039 0-.068.012-.089.035-.021.024-.031.058-.031.101v.259z" transform="matrix(143.999858846 0 0 143.999858846 546.05130852 502.7502403)"/><path d="m.209 0-.198-.528h.153l.118.38.12-.38h.148l-.198.528z" transform="matrix(143.999858846 0 0 143.999858846 605.52409974 502.7502403)"/><path d="m.206-.671c0 .015-.003.029-.01.041s-.017.022-.029.028c-.013.007-.026.011-.041.011s-.028-.004-.04-.011c-.013-.006-.022-.016-.029-.028-.008-.012-.011-.026-.011-.041s.003-.029.011-.041c.007-.012.016-.021.029-.029.012-.007.025-.01.04-.01s.028.003.041.01c.012.008.022.017.029.029s.01.026.01.041zm-.15.671v-.528h.14v.528z" transform="matrix(143.999858846 0 0 143.999858846 686.30772589 502.7502403)"/><path d="m.301.015c-.038 0-.073-.007-.105-.021-.033-.013-.061-.032-.084-.057-.024-.025-.043-.054-.056-.088-.013-.033-.02-.07-.02-.109 0-.04.007-.077.021-.112.013-.034.032-.064.057-.09.024-.025.052-.045.085-.06.033-.014.068-.021.106-.021s.073.007.105.021c.032.015.059.035.082.061.022.026.037.056.046.091l-.133.026c-.01-.023-.024-.041-.042-.054s-.038-.019-.061-.019c-.024 0-.045.007-.063.02-.019.013-.033.032-.044.055-.011.024-.016.051-.016.08s.005.055.016.078c.01.023.024.041.043.053.019.013.04.02.064.02s.046-.006.065-.019.034-.031.043-.054l.133.026c-.009.035-.025.066-.048.092-.024.026-.053.046-.086.06s-.069.021-.108.021z" transform="matrix(143.999858846 0 0 143.999858846 722.59530981 502.7502403)"/><path d="m.306.015c-.039 0-.075-.007-.108-.021-.033-.013-.062-.033-.086-.058s-.043-.054-.056-.089c-.013-.034-.02-.071-.02-.112 0-.039.007-.076.02-.11s.032-.064.056-.089c.023-.025.051-.044.083-.058s.067-.021.104-.021c.039 0 .074.007.106.02.031.013.058.032.081.057s.04.054.053.088c.012.034.018.072.018.114v.035h-.379c.006.039.02.07.043.092.023.023.051.034.086.034.024 0 .046-.006.066-.017.019-.011.035-.028.048-.049l.125.04c-.012.03-.03.056-.054.077s-.052.038-.084.049c-.032.012-.066.018-.102.018zm-.007-.45c-.031 0-.056.01-.077.03s-.035.047-.042.082h.233c-.005-.035-.018-.062-.038-.082-.021-.02-.046-.03-.076-.03z" transform="matrix(143.999858846 0 0 143.999858846 803.95566592 502.7502403)"/><path d="m.06-.432-.006-.278h.126l-.006.278z" transform="matrix(143.999858846 0 0 143.999858846 888.62724749 502.7502403)"/><path d="m.246.015c-.037 0-.071-.006-.101-.018-.031-.012-.056-.029-.077-.051s-.036-.048-.044-.078l.126-.027c.007.021.019.037.036.049s.038.018.062.018c.023 0 .041-.005.056-.015s.022-.024.022-.041c0-.015-.006-.027-.019-.037-.013-.009-.035-.017-.065-.022l-.028-.005c-.057-.01-.101-.029-.13-.056-.03-.027-.045-.062-.045-.104 0-.033.009-.063.026-.089.017-.025.041-.045.072-.06s.066-.022.106-.022c.035 0 .068.006.097.017.029.012.053.029.072.05s.033.047.04.077l-.125.026c-.007-.02-.017-.036-.032-.047s-.033-.017-.053-.017c-.021 0-.038.005-.051.015s-.02.023-.02.038c0 .013.007.024.02.033s.035.017.066.022l.028.005c.057.01.1.029.13.056.03.028.045.063.045.106 0 .026-.005.05-.015.071-.011.021-.026.04-.045.056s-.042.028-.068.037-.055.013-.086.013z" transform="matrix(143.999858846 0 0 143.999858846 922.32286113 502.7502403)"/><path d="m.206-.671c0 .015-.003.029-.01.041s-.017.022-.029.028c-.013.007-.026.011-.041.011s-.028-.004-.04-.011c-.013-.006-.022-.016-.029-.028-.008-.012-.011-.026-.011-.041s.003-.029.011-.041c.007-.012.016-.021.029-.029.012-.007.025-.01.04-.01s.028.003.041.01c.012.008.022.017.029.029s.01.026.01.041zm-.15.671v-.528h.14v.528z" transform="matrix(143.999858846 0 0 143.999858846 224.49949677 646.7504306)"/><path d="m.301.015c-.038 0-.073-.007-.105-.021-.033-.013-.061-.032-.084-.057-.024-.025-.043-.054-.056-.088-.013-.033-.02-.07-.02-.109 0-.04.007-.077.021-.112.013-.034.032-.064.057-.09.024-.025.052-.045.085-.06.033-.014.068-.021.106-.021s.073.007.105.021c.032.015.059.035.082.061.022.026.037.056.046.091l-.133.026c-.01-.023-.024-.041-.042-.054s-.038-.019-.061-.019c-.024 0-.045.007-.063.02-.019.013-.033.032-.044.055-.011.024-.016.051-.016.08s.005.055.016.078c.01.023.024.041.043.053.019.013.04.02.064.02s.046-.006.065-.019.034-.031.043-.054l.133.026c-.009.035-.025.066-.048.092-.024.026-.053.046-.086.06s-.069.021-.108.021z" transform="matrix(143.999858846 0 0 143.999858846 260.78708069 646.7504306)"/><path d="m.31.015c-.039 0-.076-.007-.109-.021s-.062-.034-.087-.059-.044-.054-.057-.088c-.014-.034-.021-.071-.021-.111s.007-.077.021-.111c.014-.033.034-.063.059-.088.024-.025.054-.045.088-.059.033-.014.07-.021.11-.021.039 0 .076.007.109.021s.062.033.087.058.044.055.058.088c.013.034.02.071.02.111s-.007.077-.021.111-.033.064-.058.089-.055.045-.088.059c-.034.014-.071.021-.111.021zm.002-.126c.025 0 .048-.007.068-.02s.036-.032.048-.055c.011-.023.017-.049.017-.078s-.006-.056-.017-.079c-.012-.023-.028-.041-.048-.054s-.043-.02-.068-.02-.048.007-.068.02-.036.031-.047.054c-.012.023-.018.05-.018.079s.006.055.018.078c.011.023.027.042.047.055s.043.02.068.02z" transform="matrix(143.999858846 0 0 143.999858846 342.1474368 646.7504306)"/><path d="m.056 0v-.528h.129l.004.068c.015-.025.037-.045.064-.061.027-.015.057-.022.092-.022.039 0 .073.009.102.027.028.019.051.045.067.079s.024.074.024.12v.317h-.14v-.299c0-.037-.008-.066-.025-.087s-.04-.031-.069-.031c-.021 0-.04.005-.056.014-.016.01-.029.024-.038.041s-.014.037-.014.059v.303z" transform="matrix(143.999858846 0 0 143.999858846 432.0046162 646.7504306)"/><path d="m.206-.671c0 .015-.003.029-.01.041s-.017.022-.029.028c-.013.007-.026.011-.041.011s-.028-.004-.04-.011c-.013-.006-.022-.016-.029-.028-.008-.012-.011-.026-.011-.041s.003-.029.011-.041c.007-.012.016-.021.029-.029.012-.007.025-.01.04-.01s.028.003.041.01c.012.008.022.017.029.029s.01.026.01.041zm-.15.671v-.528h.14v.528z" transform="matrix(143.999858846 0 0 143.999858846 547.63565864 646.7504306)"/><path d="m.056 0v-.528h.129l.004.068c.015-.025.037-.045.064-.061.027-.015.057-.022.092-.022.039 0 .073.009.102.027.028.019.051.045.067.079s.024.074.024.12v.317h-.14v-.299c0-.037-.008-.066-.025-.087s-.04-.031-.069-.031c-.021 0-.04.005-.056.014-.016.01-.029.024-.038.041s-.014.037-.014.059v.303z" transform="matrix(143.999858846 0 0 143.999858846 583.92324256 646.7504306)"/><path d="m.285.015c-.037 0-.068-.007-.094-.022-.027-.014-.047-.035-.061-.062-.015-.027-.022-.061-.022-.1v-.246h-.09v-.113h.09v-.18h.14v.18h.144v.113h-.144v.229c0 .025.005.045.016.058.011.014.027.021.049.021.011 0 .024-.002.037-.005s.025-.008.037-.013l.025.105c-.017.011-.037.019-.058.026-.021.006-.044.009-.069.009z" transform="matrix(143.999858846 0 0 143.999858846 667.30049626 646.7504306)"/><path d="m.31.015c-.039 0-.076-.007-.109-.021s-.062-.034-.087-.059-.044-.054-.057-.088c-.014-.034-.021-.071-.021-.111s.007-.077.021-.111c.014-.033.034-.063.059-.088.024-.025.054-.045.088-.059.033-.014.07-.021.11-.021.039 0 .076.007.109.021s.062.033.087.058.044.055.058.088c.013.034.02.071.02.111s-.007.077-.021.111-.033.064-.058.089-.055.045-.088.059c-.034.014-.071.021-.111.021zm.002-.126c.025 0 .048-.007.068-.02s.036-.032.048-.055c.011-.023.017-.049.017-.078s-.006-.056-.017-.079c-.012-.023-.028-.041-.048-.054s-.043-.02-.068-.02-.048.007-.068.02-.036.031-.047.054c-.012.023-.018.05-.018.079s.006.055.018.078c.011.023.027.042.047.055s.043.02.068.02z" transform="matrix(143.999858846 0 0 143.999858846 728.93105302 646.7504306)"/><path d="m.285.015c-.037 0-.068-.007-.094-.022-.027-.014-.047-.035-.061-.062-.015-.027-.022-.061-.022-.1v-.246h-.09v-.113h.09v-.18h.14v.18h.144v.113h-.144v.229c0 .025.005.045.016.058.011.014.027.021.049.021.011 0 .024-.002.037-.005s.025-.008.037-.013l.025.105c-.017.011-.037.019-.058.026-.021.006-.044.009-.069.009z" transform="matrix(143.999858846 0 0 143.999858846 271.80461165 790.7506209)"/><path d="m.056 0v-.746h.14v.276c.016-.023.037-.04.062-.054.025-.013.054-.019.087-.019.039 0 .073.009.102.027.028.019.051.045.067.079s.024.074.024.12v.317h-.14v-.299c0-.037-.008-.066-.025-.087s-.04-.031-.069-.031c-.021 0-.04.005-.056.014-.016.01-.029.024-.038.041s-.014.037-.014.059v.303z" transform="matrix(143.999858846 0 0 143.999858846 334.87533604 790.7506209)"/><path d="m.206-.671c0 .015-.003.029-.01.041s-.017.022-.029.028c-.013.007-.026.011-.041.011s-.028-.004-.04-.011c-.013-.006-.022-.016-.029-.028-.008-.012-.011-.026-.011-.041s.003-.029.011-.041c.007-.012.016-.021.029-.029.012-.007.025-.01.04-.01s.028.003.041.01c.012.008.022.017.029.029s.01.026.01.041zm-.15.671v-.528h.14v.528z" transform="matrix(143.999858846 0 0 143.999858846 420.41201255 790.7506209)"/><path d="m.246.015c-.037 0-.071-.006-.101-.018-.031-.012-.056-.029-.077-.051s-.036-.048-.044-.078l.126-.027c.007.021.019.037.036.049s.038.018.062.018c.023 0 .041-.005.056-.015s.022-.024.022-.041c0-.015-.006-.027-.019-.037-.013-.009-.035-.017-.065-.022l-.028-.005c-.057-.01-.101-.029-.13-.056-.03-.027-.045-.062-.045-.104 0-.033.009-.063.026-.089.017-.025.041-.045.072-.06s.066-.022.106-.022c.035 0 .068.006.097.017.029.012.053.029.072.05s.033.047.04.077l-.125.026c-.007-.02-.017-.036-.032-.047s-.033-.017-.053-.017c-.021 0-.038.005-.051.015s-.02.023-.02.038c0 .013.007.024.02.033s.035.017.066.022l.028.005c.057.01.1.029.13.056.03.028.045.063.045.106 0 .026-.005.05-.015.071-.011.021-.026.04-.045.056s-.042.028-.068.037-.055.013-.086.013z" transform="matrix(143.999858846 0 0 143.999858846 456.69959647 790.7506209)"/><path d="m.108 0v-.418h-.09v-.11h.09v-.03c0-.029.005-.056.014-.08s.021-.045.038-.063c.017-.017.037-.031.06-.041.023-.009.048-.014.076-.014.019 0 .037.002.053.007s.03.01.042.017l-.028.106c-.007-.003-.015-.005-.023-.008s-.017-.004-.026-.004c-.022 0-.038.008-.049.023s-.017.037-.017.066v.021h.342v.528h-.14v-.418h-.202v.418zm.492-.671c0 .015-.004.029-.01.041-.007.012-.017.022-.029.028-.013.007-.026.011-.041.011s-.028-.004-.04-.011c-.013-.006-.022-.016-.029-.028s-.011-.026-.011-.041.004-.029.011-.041.016-.021.029-.029c.012-.007.025-.01.04-.01s.028.003.041.01c.012.008.022.017.029.029.006.012.01.026.01.041z" transform="matrix(143.999858846 0 0 143.999858846 557.49972968 790.7506209)"/><path d="m658.58794414538 683.32672620088h20.15998023844v107.42389469912h-20.15998023844z" stroke-width="143.999858846"/><path d="m.306.015c-.039 0-.075-.007-.108-.021-.033-.013-.062-.033-.086-.058s-.043-.054-.056-.089c-.013-.034-.02-.071-.02-.112 0-.039.007-.076.02-.11s.032-.064.056-.089c.023-.025.051-.044.083-.058s.067-.021.104-.021c.039 0 .074.007.106.02.031.013.058.032.081.057s.04.054.053.088c.012.034.018.072.018.114v.035h-.379c.006.039.02.07.043.092.023.023.051.034.086.034.024 0 .046-.006.066-.017.019-.011.035-.028.048-.049l.125.04c-.012.03-.03.056-.054.077s-.052.038-.084.049c-.032.012-.066.018-.102.018zm-.007-.45c-.031 0-.056.01-.077.03s-.035.047-.042.082h.233c-.005-.035-.018-.062-.038-.082-.021-.02-.046-.03-.076-.03z" transform="matrix(143.999858846 0 0 143.999858846 686.81153597 790.7506209)"/></g></svg>