<?xml version="1.0" encoding="UTF-8" standalone="no"?>
<!DOCTYPE svg PUBLIC "-//W3C//DTD SVG 1.1//EN" "http://www.w3.org/Graphics/SVG/1.1/DTD/svg11.dtd">
<svg width="100%" height="100%" viewBox="0 0 1024 1024" version="1.1" xmlns="http://www.w3.org/2000/svg" xmlns:xlink="http://www.w3.org/1999/xlink" xml:space="preserve" xmlns:serif="http://www.serif.com/" style="fill-rule:evenodd;clip-rule:evenodd;stroke-linejoin:round;stroke-miterlimit:2;">
    <rect id="Artboard1" x="0" y="0" width="1024" height="1024" style="fill:none;"/>
    <clipPath id="_clip1">
        <rect id="Artboard11" serif:id="Artboard1" x="0" y="0" width="1024" height="1024"/>
    </clipPath>
    <g clip-path="url(#_clip1)">
        <g transform="matrix(16.0678,0,0,16.0678,-13.6577,-13.8184)">
            <path d="M49.26,30.66C57.362,30.66 63.93,24.092 63.93,15.99C63.93,7.888 57.362,1.32 49.26,1.32C41.158,1.32 34.59,7.888 34.59,15.99C34.59,24.092 41.158,30.66 49.26,30.66Z" style="fill-rule:nonzero;"/>
            <rect x="0.85" y="1.26" width="29.35" height="29.35" style="fill:rgb(238,154,178);"/>
            <path d="M49.26,36.87L56.92,50.42L64.58,63.98L33.95,63.98L41.6,50.42L49.26,36.87Z" style="fill:rgb(255,197,80);fill-rule:nonzero;"/>
            <path d="M15.52,64.19C23.622,64.19 30.19,57.622 30.19,49.52C30.19,41.418 23.622,34.85 15.52,34.85C7.418,34.85 0.85,41.418 0.85,49.52C0.85,57.622 7.418,64.19 15.52,64.19Z" style="fill:rgb(82,99,243);fill-rule:nonzero;"/>
        </g>
    </g>
</svg>
