<svg height="512pt" viewBox="0 0 512 512" width="512pt" xmlns="http://www.w3.org/2000/svg"><path d="m167.11 35.1.44-.01.04.49-.56.02z" fill="#0ba25e"/><path d="m165.4 38.38c.39-.56 1.15-1.68 1.54-2.24l.7-.11c.52 6.34 2.38 12.45 3.78 18.62 6.02 26.81 12.1 53.6 18.43 80.33 4.15 18.33 8.78 36.57 12.58 54.97 3.3 11.39 5.07 23.14 8.26 34.55 2.06 10.64 5.29 21.02 7.02 31.72-.7 1.17-1.4 2.35-2.11 3.52-.17.27-.53.83-.7 1.11l-.26.45c-.04.08-.13.25-.18.33-.39.72-1.17 2.15-1.56 2.86-.07.13-.22.39-.3.52l-.71 1.26c-.09.15-.26.44-.34.59l-.83 1.45c-.04.08-.13.24-.18.32l-1.03 1.8c-.09.15-.27.47-.36.63-.1.17-.3.5-.4.67l-1.01 1.74c-.08.13-.24.41-.32.54l-.62 1.05c-.1.18-.32.55-.42.73-.4.69-1.19 2.07-1.59 2.77-.07.12-.22.37-.29.5l-.63 1.05c-.1.19-.32.55-.43.74-.37.65-1.13 1.94-1.5 2.59-.09.15-.26.46-.35.61l-.75 1.35c-.07.12-.21.37-.28.49l-.77 1.35c-.08.14-.24.42-.32.56-.4.66-1.18 1.99-1.57 2.66-.09.15-.27.46-.36.62l-.71 1.28c-.07.12-.2.35-.26.47l-.82 1.42c-.07.13-.22.38-.29.5-.42.72-1.25 2.15-1.67 2.87-.07.13-.23.39-.31.52l-.6.99c-.1.18-.31.53-.41.71-.38.66-1.13 1.97-1.51 2.63-.06.11-.2.35-.26.46l-.82 1.46c-.06.11-.18.32-.24.43l-.84 1.47c-.07.11-.21.35-.28.46-.39.66-1.18 1.96-1.57 2.62-.11.17-.31.53-.42.71l-.59 1.1c-.08.14-.23.42-.3.55l-1.03 1.78c-.08.15-.26.45-.34.6-.09.14-.25.43-.33.57-1.69 2.85-3.22 5.79-5.09 8.53-10.65 17.37-20.45 35.28-30.76 52.86-16.74 28.97-33.46 57.94-50.2 86.91-2.51 4.51-5.37 8.83-7.53 13.54-.11.16-.33.48-.44.64-4.01-5.78-7.11-12.16-10.78-18.16-16.74-28.99-33.49-57.97-50.22-86.97-9.3-16.31-18.99-32.42-28.04-48.88 35.84-61.85 71.52-123.81 107.29-185.7.03-.06.1-.17.13-.23l.98-1.68c.04-.07.12-.21.17-.28l.99-1.69c.09-.15.27-.47.37-.62.1-.18.3-.53.4-.71l.99-1.76c.07-.12.21-.36.28-.48l.74-1.18c.13-.19.39-.58.52-.78.36-.54 1.09-1.63 1.46-2.17.04-.18.11-.53.15-.7l.87-1.67c.04-.07.12-.21.16-.28l1-1.68c.1-.16.3-.5.4-.67.11-.19.33-.58.45-.78l.84-1.47c.09-.16.27-.47.36-.62l.7-1.23c.08-.13.24-.41.32-.55.39-.67 1.17-2.01 1.57-2.68.08-.14.24-.42.32-.56l.73-1.33c.06-.1.18-.32.24-.42l.96-1.68c.12-.2.37-.61.5-.81l.65-.98c.14-.2.41-.59.55-.78.12-.2.37-.6.5-.8l.54-1.04c.18-.39.55-1.17.73-1.56l.55-.77c.1-.14.29-.41.39-.55.37-.31 1.12-.95 1.49-1.27l-.07-1.17c.06-.14.2-.42.27-.56l.85-1.69c.07-.12.21-.37.28-.49l.75-1.22c.14-.2.41-.6.55-.8.34-.56 1.03-1.66 1.37-2.21.1-.2.28-.59.38-.79l.53-1.15c.16-.3.5-.91.67-1.22l.66-.94c.14-.19.42-.57.56-.76.12-.2.37-.6.49-.8l.49-1.03c.11-.23.34-.7.45-.93l.86-1.66c.13-.2.38-.62.5-.83l.66-.98c.14-.2.42-.58.56-.78.13-.2.38-.61.5-.81l.51-1.04c.15-.29.44-.86.58-1.15l.68-1.12c.12-.19.36-.57.49-.76.36-.56 1.09-1.68 1.46-2.23.04-.17.13-.51.17-.68l.87-1.66c.03-.07.11-.2.15-.27l1-1.71c.1-.17.29-.5.39-.67.1-.16.29-.5.39-.66l1-1.75c.04-.07.12-.21.16-.29l.94-1.63c.05-.07.14-.22.18-.3l1.01-1.7c.09-.16.27-.46.36-.62.1-.17.3-.52.4-.7l.96-1.69c.06-.11.18-.32.24-.42l.81-1.31c.13-.19.39-.58.51-.77.37-.55 1.09-1.65 1.46-2.2.03-.17.11-.51.15-.68l.85-1.63c.07-.12.22-.37.29-.5l.76-1.19c.14-.19.4-.58.54-.78.35-.56 1.05-1.67 1.4-2.23.05-.16.14-.48.19-.64l.88-1.65c.04-.08.12-.22.16-.3l1.02-1.72c.08-.15.26-.45.35-.6.09-.17.27-.49.36-.65l1-1.78c.05-.07.13-.22.17-.29l.95-1.61c.03-.05.1-.16.13-.21z" fill="#0ba25e"/><path d="m167.55 35.09c32.48-.15 64.97-.02 97.46-.07 26.88.1 53.78-.21 80.65.15.53 1.02 1.07 2.03 1.64 3.04.08.13.23.41.31.55 2.6 4.53 5.24 9.04 7.81 13.58.05.08.13.23.18.3 4.98 8.55 9.94 17.11 14.83 25.71.04.07.13.21.17.29.89 1.53 1.81 3.06 2.72 4.6.08.13.23.4.31.54 1.25 2.2 2.51 4.39 3.78 6.58.05.07.13.21.17.29 1.27 2.18 2.52 4.38 3.78 6.58.08.13.23.39.31.52 1.27 2.14 2.5 4.3 3.72 6.46.08.13.23.4.31.53 11.94 20.62 23.85 41.25 35.75 61.9-1.36 5.99 1.93 11.95.1 17.97-1.11 16.45-7.32 32.46-17.56 45.38-3.33 3.61-.1 8.62-.46 12.9-3.59 4.35-8.21 7.6-12.57 11.11.01 3.28.02 6.56-.13 9.85-3.89 2.57-8.35 4.06-12.3 6.54-.42 1.33-.85 2.67-1.26 4.02-3.17 1.5-6.56 2.47-9.73 3.99-12.55-3.6-24.97-7.61-37.49-11.32-11.65-3.85-23.58-6.87-35.11-11.11l-.66-1.18c-.06-.09-.16-.27-.21-.36l-.95-1.61c-.1-.17-.3-.51-.4-.68-.09-.15-.25-.44-.34-.59-.71-1.26-1.36-2.55-1.94-3.87l-.06-.13-.07-.1c-.44-.7-1.33-2.11-1.78-2.81-.05-.08-.15-.24-.2-.33l-.29-.46c-.17-.29-.52-.86-.69-1.15-.43-.73-1.3-2.19-1.73-2.92-.11-.18-.32-.55-.43-.73l-.61-1.04c-.08-.14-.24-.41-.32-.55l-.97-1.67c-.04-.07-.13-.21-.17-.29l-1.02-1.75c-.09-.16-.27-.48-.36-.63-.1-.18-.31-.55-.41-.73l-.83-1.46c-.1-.17-.3-.53-.4-.7l-.64-1.13c-.09-.15-.26-.45-.35-.6-.39-.72-1.18-2.15-1.58-2.87-.04-.08-.14-.25-.18-.33l-.27-.47c-.19-.28-.56-.84-.75-1.12-.99-1.66-1.92-3.36-2.81-5.07-.05-.08-.14-.25-.18-.33l-.26-.46c-.19-.27-.57-.81-.76-1.07-.44-.79-1.32-2.37-1.76-3.16-.05-.08-.15-.25-.19-.34l-.27-.48c-.2-.33-.59-.98-.79-1.31l-.86-1.45c-.08-.14-.25-.42-.34-.57-.38-.66-1.15-1.99-1.54-2.65-.09-.15-.26-.46-.35-.62-.68-1.13-1.33-2.27-1.97-3.41-.05-.09-.16-.27-.21-.36l-.95-1.63c-.1-.16-.29-.48-.38-.65-.09-.15-.26-.45-.35-.6l-1.01-1.76c-.05-.08-.14-.25-.19-.33l-.82-1.47c-.07-.12-.2-.35-.27-.47-.38-.67-1.15-2-1.53-2.67-.08-.14-.24-.41-.32-.54-.62-1.03-1.24-2.07-1.84-3.1-27.73-48.12-55.5-96.21-83.29-144.3-1.74-3-3.32-6.12-5.45-8.88l-.05-.45z" fill="#fccd48"/><g fill="#089156"><path d="m167.03 35.6.56-.02.05.45-.7.11z"/><path d="m167.64 36.03c2.13 2.76 3.71 5.88 5.45 8.88 27.79 48.09 55.56 96.18 83.29 144.3-12.84 22.36-25.78 44.67-38.67 67.01-1.73-10.7-4.96-21.08-7.02-31.72-3.19-11.41-4.96-23.16-8.26-34.55-3.8-18.4-8.43-36.64-12.58-54.97-6.33-26.73-12.41-53.52-18.43-80.33-1.4-6.17-3.26-12.28-3.78-18.62z"/><path d="m165.27 38.59c.03-.05.1-.16.13-.21-.03.05-.1.16-.13.21z"/><path d="m164.15 40.49c.05-.07.13-.22.17-.29-.04.07-.12.22-.17.29z"/><path d="m162.79 42.92c.09-.17.27-.49.36-.65-.09.16-.27.48-.36.65z"/><path d="m162.44 43.52c.08-.15.26-.45.35-.6-.09.15-.27.45-.35.6z"/><path d="m161.26 45.54c.04-.08.12-.22.16-.3-.04.08-.12.22-.16.3z"/><path d="m160.19 47.83c.05-.16.14-.48.19-.64-.05.16-.14.48-.19.64z"/><path d="m158.79 50.06c.35-.56 1.05-1.67 1.4-2.23-.35.56-1.05 1.67-1.4 2.23z"/><path d="m158.25 50.84c.14-.19.4-.58.54-.78-.14.2-.4.59-.54.78z"/><path d="m157.2 52.53c.07-.12.22-.37.29-.5-.07.13-.22.38-.29.5z"/><path d="m156.2 54.84c.03-.17.11-.51.15-.68-.04.17-.12.51-.15.68z"/><path d="m154.74 57.04c.37-.55 1.09-1.65 1.46-2.2-.37.55-1.09 1.65-1.46 2.2z"/><path d="m154.23 57.81c.13-.19.39-.58.51-.77-.12.19-.38.58-.51.77z"/><path d="m153.18 59.54c.06-.11.18-.32.24-.42-.06.1-.18.31-.24.42z"/><path d="m151.82 61.93c.1-.17.3-.52.4-.7-.1.18-.3.53-.4.7z"/><path d="m151.46 62.55c.09-.16.27-.46.36-.62-.09.16-.27.46-.36.62z"/><path d="m150.27 64.55c.05-.07.14-.22.18-.3-.04.08-.13.23-.18.3z"/><path d="m149.17 66.47c.04-.07.12-.21.16-.29-.04.08-.12.22-.16.29z"/><path d="m147.78 68.88c.1-.16.29-.5.39-.66-.1.16-.29.5-.39.66z"/><path d="m147.39 69.55c.1-.17.29-.5.39-.67-.1.17-.29.5-.39.67z"/><path d="m146.24 71.53c.03-.07.11-.2.15-.27-.04.07-.12.2-.15.27z"/><path d="m145.2 73.87c.04-.17.13-.51.17-.68-.04.17-.13.51-.17.68z"/><path d="m143.74 76.1c.36-.56 1.09-1.68 1.46-2.23-.37.55-1.1 1.67-1.46 2.23z"/><path d="m143.25 76.86c.12-.19.36-.57.49-.76-.13.19-.37.57-.49.76z"/><path d="m141.99 79.13c.15-.29.44-.86.58-1.15-.14.29-.43.86-.58 1.15z"/><path d="m140.98 80.98c.13-.2.38-.61.5-.81-.12.2-.37.61-.5.81z"/><path d="m140.42 81.76c.14-.2.42-.58.56-.78-.14.2-.42.58-.56.78z"/><path d="m139.26 83.57c.13-.2.38-.62.5-.83-.12.21-.37.63-.5.83z"/><path d="m137.95 86.16c.11-.23.34-.7.45-.93-.11.23-.34.7-.45.93z"/><path d="m136.97 87.99c.12-.2.37-.6.49-.8-.12.2-.37.6-.49.8z"/><path d="m136.41 88.75c.14-.19.42-.57.56-.76-.14.19-.42.57-.56.76z"/><path d="m135.08 90.91c.16-.3.5-.91.67-1.22-.17.31-.51.92-.67 1.22z"/><path d="m134.17 92.85c.1-.2.28-.59.38-.79-.1.2-.28.59-.38.79z"/><path d="m132.8 95.06c.34-.56 1.03-1.66 1.37-2.21-.34.55-1.03 1.65-1.37 2.21z"/><path d="m132.25 95.86c.14-.2.41-.6.55-.8-.14.2-.41.6-.55.8z"/><path d="m131.22 97.57c.07-.12.21-.37.28-.49-.07.12-.21.37-.28.49z"/><path d="m130.1 99.82c.06-.14.2-.42.27-.56-.07.14-.21.42-.27.56z"/><path d="m128.68 102.26c.35-.61 1.06-1.83 1.42-2.44l.07 1.17c-.37.32-1.12.96-1.49 1.27z"/><path d="m128.29 102.81c.1-.14.29-.41.39-.55-.1.14-.29.41-.39.55z"/><path d="m127.01 105.14c.18-.39.55-1.17.73-1.56-.18.39-.55 1.17-.73 1.56z"/><path d="m125.97 106.98c.12-.2.37-.6.5-.8-.13.2-.38.6-.5.8z"/><path d="m125.42 107.76c.14-.2.41-.59.55-.78-.14.19-.41.58-.55.78z"/><path d="m124.27 109.55c.12-.2.37-.61.5-.81-.13.2-.38.61-.5.81z"/><path d="m123.07 111.65c.06-.1.18-.32.24-.42-.06.1-.18.32-.24.42z"/><path d="m122.02 113.54c.08-.14.24-.42.32-.56-.08.14-.24.42-.32.56z"/><path d="m120.13 116.77c.08-.13.24-.41.32-.55-.08.14-.24.42-.32.55z"/><path d="m119.07 118.62c.09-.16.27-.47.36-.62-.09.15-.27.46-.36.62z"/><path d="m117.78 120.87c.11-.19.33-.58.45-.78-.12.2-.34.59-.45.78z"/><path d="m117.38 121.54c.1-.16.3-.5.4-.67-.1.17-.3.51-.4.67z"/><path d="m116.22 123.5c.04-.07.12-.21.16-.28-.04.07-.12.21-.16.28z"/><path d="m115.2 125.87c.04-.18.11-.53.15-.7-.04.17-.11.52-.15.7z"/><path d="m113.74 128.04c.36-.54 1.09-1.63 1.46-2.17-.37.54-1.1 1.63-1.46 2.17z"/><path d="m113.22 128.82c.13-.19.39-.58.52-.78-.13.2-.39.59-.52.78z"/><path d="m112.2 130.48c.07-.12.21-.36.28-.48-.07.12-.21.36-.28.48z"/><path d="m110.81 132.95c.1-.18.3-.53.4-.71-.1.18-.3.53-.4.71z"/><path d="m110.44 133.57c.09-.15.27-.47.37-.62-.1.15-.28.47-.37.62z"/><path d="m109.28 135.54c.04-.07.12-.21.17-.28-.05.07-.13.21-.17.28z"/><path d="m108.17 137.45c.03-.06.1-.17.13-.23-.03.06-.1.17-.13.23z"/><path d="m214.9 260.85c.17-.28.53-.84.7-1.11-.17.27-.53.83-.7 1.11z"/><path d="m214.46 261.63c.05-.08.14-.25.18-.33-.04.08-.13.25-.18.33z"/><path d="m212.6 265.01c.08-.13.23-.39.3-.52-.07.13-.22.39-.3.52z"/><path d="m211.55 266.86c.08-.15.25-.44.34-.59-.09.15-.26.44-.34.59z"/><path d="m210.54 268.63c.05-.08.14-.24.18-.32-.04.08-.13.24-.18.32z"/><path d="m209.15 271.06c.09-.16.27-.48.36-.63-.09.15-.27.47-.36.63z"/><path d="m208.75 271.73c.1-.17.3-.5.4-.67-.1.17-.3.5-.4.67z"/><path d="m207.42 274.01c.08-.13.24-.41.32-.54-.08.13-.24.41-.32.54z"/><path d="m206.38 275.79c.1-.18.32-.55.42-.73-.1.18-.32.55-.42.73z"/><path d="m204.5 279.06c.07-.13.22-.38.29-.5-.07.12-.22.37-.29.5z"/><path d="m203.44 280.85c.11-.19.33-.55.43-.74-.1.19-.32.55-.43.74z"/><path d="m201.59 284.05c.09-.15.26-.46.35-.61-.09.15-.26.46-.35.61z"/><path d="m200.56 285.89c.07-.12.21-.37.28-.49-.07.12-.21.37-.28.49z"/><path d="m199.47 287.8c.08-.14.24-.42.32-.56-.08.14-.24.42-.32.56z"/><path d="m197.54 291.08c.09-.16.27-.47.36-.62-.09.15-.27.46-.36.62z"/><path d="m196.57 292.83c.06-.12.19-.35.26-.47-.07.12-.2.35-.26.47z"/><path d="m195.46 294.75c.07-.12.22-.37.29-.5-.07.13-.22.38-.29.5z"/><path d="m193.48 298.14c.08-.13.24-.39.31-.52-.07.13-.23.39-.31.52z"/><path d="m192.47 299.84c.1-.18.31-.53.41-.71-.1.18-.31.53-.41.71z"/><path d="m190.7 302.93c.06-.11.2-.35.26-.46-.06.11-.2.35-.26.46z"/><path d="m189.64 304.82c.06-.11.18-.32.24-.43-.06.11-.18.32-.24.43z"/><path d="m188.52 306.75c.07-.11.21-.35.28-.46-.07.11-.21.35-.28.46z"/><path d="m186.53 310.08c.11-.18.31-.54.42-.71-.11.17-.31.53-.42.71z"/><path d="m185.64 311.73c.07-.13.22-.41.3-.55-.08.14-.23.42-.3.55z"/><path d="m184.27 314.11c.08-.15.26-.45.34-.6-.08.15-.26.45-.34.6z"/><path d="m183.94 314.68c.08-.14.24-.43.33-.57-.09.14-.25.43-.33.57z"/></g><path d="m347.3 38.21c.08.13.23.41.31.55-.08-.14-.23-.42-.31-.55z" fill="#10985b"/><path d="m355.42 52.34c.05.08.13.23.18.3-.05-.07-.13-.22-.18-.3z" fill="#10985b"/><path d="m370.43 78.35c.04.07.13.21.17.29-.04-.08-.13-.22-.17-.29z" fill="#10985b"/><path d="m373.32 83.24c.08.13.23.4.31.54-.08-.14-.23-.41-.31-.54z" fill="#10985b"/><path d="m377.41 90.36c.05.07.13.21.17.29-.04-.08-.12-.22-.17-.29z" fill="#10985b"/><path d="m381.36 97.23c.08.13.23.39.31.52-.08-.13-.23-.39-.31-.52z" fill="#10985b"/><path d="m385.39 104.21c.08.13.23.4.31.53-.08-.13-.23-.4-.31-.53z" fill="#10985b"/><path d="m421.45 166.64c17.39 30.13 34.89 60.21 52.14 90.43.08.13.24.41.32.54.4.66 1.2 1.97 1.59 2.62.08.13.24.4.32.53l.8 1.37c.05.09.15.28.21.37l1 1.74c.1.17.29.52.39.69.09.15.27.46.36.62l.98 1.7c.04.07.12.21.16.28l.98 1.68c.04.07.12.2.16.27l.98 1.7c.1.17.29.5.39.67.09.17.28.5.37.66l1.01 1.78c.14.35.42 1.03.56 1.37l.28.55.13.29.22.29.59.89c.21.33.62.99.83 1.32.12.2.38.6.5.8l.66 1.05c.2.45.6 1.36.8 1.81l.3.54.11.21.09.13c.44.65 1.31 1.96 1.75 2.61.11.18.33.54.45.72l.6 1c.09.16.27.47.36.62l1.01 1.77c.09.16.27.48.36.64s.27.47.36.63l1 1.71c.04.08.13.23.18.3l.91 1.6c.06.1.18.31.24.41l.92 1.61c.11.18.32.55.43.73.09.16.28.48.37.64.74 1.23 1.45 2.48 2.11 3.76.1.21.3.63.39.84l.46 1.04c.12.2.36.61.47.81.15.2.44.58.59.77l.69.98c.12.19.36.57.49.77l1.01 1.75c.09.16.27.48.36.64s.27.47.37.63l1 1.72c.04.08.12.22.16.29l.95 1.66c.04.07.12.2.16.27l.97 1.69c.1.17.3.51.4.69.1.17.3.51.39.68l1 1.72c.04.07.11.21.15.28l1.06 1.98-.01.9c-25.02-7.19-49.64-15.72-74.73-22.65-22.77-7.35-45.75-14.04-68.52-21.35 3.17-1.52 6.56-2.49 9.73-3.99.41-1.35.84-2.69 1.26-4.02 3.95-2.48 8.41-3.97 12.3-6.54.15-3.29.14-6.57.13-9.85 4.36-3.51 8.98-6.76 12.57-11.11.36-4.28-2.87-9.29.46-12.9 10.24-12.92 16.45-28.93 17.56-45.38 1.83-6.02-1.46-11.98-.1-17.97z" fill="#f9c941"/><path d="m510.79 322.4.52.02.29.76-.59.04z" fill="#f9c941"/><path d="m258.22 192.31c.08.13.24.4.32.54-.08-.14-.24-.41-.32-.54z" fill="#e3b73a"/><path d="m260.07 195.52c.07.12.2.35.27.47-.07-.12-.2-.35-.27-.47z" fill="#e3b73a"/><path d="m261.16 197.46c.05.08.14.25.19.33-.05-.08-.14-.25-.19-.33z" fill="#e3b73a"/><path d="m262.36 199.55c.09.15.26.45.35.6-.09-.15-.26-.45-.35-.6z" fill="#e3b73a"/><path d="m262.71 200.15c.09.17.28.49.38.65-.1-.16-.29-.48-.38-.65z" fill="#e3b73a"/><path d="m264.04 202.43c.05.09.16.27.21.36-.05-.09-.16-.27-.21-.36z" fill="#e3b73a"/><path d="m266.22 206.2c.09.16.26.47.35.62-.09-.15-.26-.46-.35-.62z" fill="#e3b73a"/><path d="m268.11 209.47c.09.15.26.43.34.57-.08-.14-.25-.42-.34-.57z" fill="#e3b73a"/><path d="m269.31 211.49c.2.33.59.98.79 1.31-.2-.33-.59-.98-.79-1.31z" fill="#e3b73a"/><path d="m270.37 213.28c.04.09.14.26.19.34-.05-.08-.15-.25-.19-.34z" fill="#e3b73a"/><path d="m272.32 216.78c.19.26.57.8.76 1.07-.19-.27-.57-.81-.76-1.07z" fill="#e3b73a"/><path d="m273.34 218.31c.04.08.13.25.18.33-.05-.08-.14-.25-.18-.33z" fill="#e3b73a"/><path d="m276.33 223.71c.19.28.56.84.75 1.12-.19-.28-.56-.84-.75-1.12z" fill="#e3b73a"/><path d="m277.35 225.3c.04.08.14.25.18.33-.04-.08-.14-.25-.18-.33z" fill="#e3b73a"/><path d="m279.11 228.5c.09.15.26.45.35.6-.09-.15-.26-.45-.35-.6z" fill="#e3b73a"/><path d="m280.1 230.23c.1.17.3.53.4.7-.1-.17-.3-.53-.4-.7z" fill="#e3b73a"/><path d="m281.33 232.39c.1.18.31.55.41.73-.1-.18-.31-.55-.41-.73z" fill="#e3b73a"/><path d="m281.74 233.12c.09.15.27.47.36.63-.09-.16-.27-.48-.36-.63z" fill="#e3b73a"/><path d="m283.12 235.5c.04.08.13.22.17.29-.04-.07-.13-.21-.17-.29z" fill="#e3b73a"/><path d="m284.26 237.46c.08.14.24.41.32.55-.08-.14-.24-.41-.32-.55z" fill="#e3b73a"/><path d="m285.19 239.05c.11.18.32.55.43.73-.11-.18-.32-.55-.43-.73z" fill="#e3b73a"/><path d="m287.35 242.7c.17.29.52.86.69 1.15-.17-.29-.52-.86-.69-1.15z" fill="#e3b73a"/><path d="m288.33 244.31c.05.09.15.25.2.33-.05-.08-.15-.24-.2-.33z" fill="#e3b73a"/><path d="m290.31 247.45.07.1.06.13c-.03-.06-.1-.17-.13-.23z" fill="#e3b73a"/><path d="m292.38 251.55c.09.15.25.44.34.59-.09-.15-.25-.44-.34-.59z" fill="#e3b73a"/><path d="m292.72 252.14c.1.17.3.51.4.68-.1-.17-.3-.51-.4-.68z" fill="#e3b73a"/><path d="m294.07 254.43c.05.09.15.27.21.36-.06-.09-.16-.27-.21-.36z" fill="#e3b73a"/><path d="m294.94 255.97c11.53 4.24 23.46 7.26 35.11 11.11 12.52 3.71 24.94 7.72 37.49 11.32 22.77 7.31 45.75 14 68.52 21.35-.34 4.87.62 9.86-.59 14.64-.93 4.65-6.49 5.38-8.78 9.09-30.77.01-61.53.1-92.29-.03l-.66-.05c-12.71-22.6-25.93-44.92-38.8-67.43z" fill="#e3b73a"/><g fill="#e8b835"><path d="m473.59 257.07c.08.13.24.41.32.54-.08-.13-.24-.41-.32-.54z"/><path d="m475.5 260.23c.08.13.24.4.32.53-.08-.13-.24-.4-.32-.53z"/><path d="m476.62 262.13c.05.09.15.28.21.37-.06-.09-.16-.28-.21-.37z"/><path d="m477.83 264.24c.1.17.29.52.39.69-.1-.17-.29-.52-.39-.69z"/><path d="m478.22 264.93c.09.15.27.46.36.62-.09-.16-.27-.47-.36-.62z"/><path d="m479.56 267.25c.04.07.12.21.16.28-.04-.07-.12-.21-.16-.28z"/><path d="m480.7 269.21c.04.07.12.2.16.27-.04-.07-.12-.2-.16-.27z"/><path d="m481.84 271.18c.1.17.29.5.39.67-.1-.17-.29-.5-.39-.67z"/><path d="m482.23 271.85c.09.17.28.5.37.66-.09-.16-.28-.49-.37-.66z"/><path d="m483.61 274.29c.14.35.42 1.03.56 1.37-.14-.34-.42-1.02-.56-1.37z"/><path d="m484.45 276.21c.09.15.26.44.35.58l-.22-.29z"/><path d="m485.39 277.68c.21.33.62.99.83 1.32-.21-.33-.62-.99-.83-1.32z"/><path d="m486.22 279c.12.2.38.6.5.8-.12-.2-.38-.6-.5-.8z"/><path d="m487.38 280.85c.2.45.6 1.36.8 1.81-.2-.45-.6-1.36-.8-1.81z"/><path d="m488.48 283.2c.05.09.15.26.2.34l-.09-.13z"/><path d="m490.43 286.15c.11.18.33.54.45.72-.12-.18-.34-.54-.45-.72z"/><path d="m491.48 287.87c.09.16.27.47.36.62-.09-.15-.27-.46-.36-.62z"/><path d="m492.85 290.26c.09.16.27.48.36.64-.09-.16-.27-.48-.36-.64z"/><path d="m493.21 290.9c.09.16.27.47.36.63-.09-.16-.27-.47-.36-.63z"/><path d="m494.57 293.24c.04.08.13.23.18.3-.05-.07-.14-.22-.18-.3z"/><path d="m495.66 295.14c.06.1.18.31.24.41-.06-.1-.18-.31-.24-.41z"/><path d="m496.82 297.16c.11.18.32.55.43.73-.11-.18-.32-.55-.43-.73z"/><path d="m497.25 297.89c.09.16.28.48.37.64-.09-.16-.28-.48-.37-.64z"/><path d="m436.06 299.75c25.09 6.93 49.71 15.46 74.73 22.65l.22.82c-28.09.64-56.22.11-84.32.26 2.29-3.71 7.85-4.44 8.78-9.09 1.21-4.78.25-9.77.59-14.64z"/><path d="m499.73 302.29c.1.21.3.63.39.84-.09-.21-.29-.63-.39-.84z"/><path d="m500.58 304.17c.12.2.36.61.47.81-.11-.2-.35-.61-.47-.81z"/><path d="m501.05 304.98c.15.2.44.58.59.77-.15-.19-.44-.57-.59-.77z"/><path d="m502.33 306.73c.12.19.36.57.49.77-.13-.2-.37-.58-.49-.77z"/><path d="m503.83 309.25c.09.16.27.48.36.64-.09-.16-.27-.48-.36-.64z"/><path d="m504.19 309.89c.09.16.27.47.37.63-.1-.16-.28-.47-.37-.63z"/><path d="m505.56 312.24c.04.08.12.22.16.29-.04-.07-.12-.21-.16-.29z"/><path d="m506.67 314.19c.04.07.12.2.16.27-.04-.07-.12-.2-.16-.27z"/><path d="m507.8 316.15c.1.17.3.51.4.69-.1-.18-.3-.52-.4-.69z"/><path d="m508.2 316.84c.1.17.3.51.39.68-.09-.17-.29-.51-.39-.68z"/><path d="m509.59 319.24c.04.07.11.21.15.28-.04-.07-.11-.21-.15-.28z"/><path d="m510.8 321.5c.13.23.38.69.51.92l-.52-.02z"/></g><path d="m148.09 376.07c10.31-17.58 20.11-35.49 30.76-52.86 51.63.19 103.27-.29 154.89.19l.66.05c-26.11.84-52.29-.22-78.4.44-4.98 3.21-8.3 8.41-13.07 11.91-4.43 3.23-7.69 7.73-11.92 11.18-5.93 4.37-10.34 10.43-16.36 14.71-6.96 7.37-14.99 13.58-22.01 20.91-5.26 4.04-9.66 9.03-14.56 13.48-5.39 3.91-9.52 9.21-14.56 13.53-.13.11-.38.33-.51.45-.27.21-.8.65-1.07.86-.13.11-.37.31-.5.42-3.97 3.07-7.01 7.12-10.91 10.27-.13.11-.38.32-.5.42-.13.11-.38.32-.51.42-5.69 4.67-10.25 10.58-16.22 14.93-6.01 5.96-12.79 11.08-18.5 17.36-8.44 6.94-15.74 15.13-24.44 21.78 2.16-4.71 5.02-9.03 7.53-13.54 16.74-28.97 33.46-57.94 50.2-86.91z" fill="#296ad9"/><path d="m89.92 477.16.44-.64-.03.65z" fill="#296ad9"/><path d="m334.4 323.45c30.76.13 61.52.04 92.29.03 28.1-.15 56.23.38 84.32-.26l.59-.04.4.11v.08c-29.66 51.27-59.23 102.6-88.89 153.88-110.93-.03-221.86.1-332.78-.08l.03-.65c8.7-6.65 16-14.84 24.44-21.78 5.71-6.28 12.49-11.4 18.5-17.36 5.97-4.35 10.53-10.26 16.22-14.93.13-.1.38-.31.51-.42.12-.1.37-.31.5-.42 3.9-3.15 6.94-7.2 10.91-10.27.13-.11.37-.31.5-.42.27-.21.8-.65 1.07-.86.13-.12.38-.34.51-.45 5.04-4.32 9.17-9.62 14.56-13.53 4.9-4.45 9.3-9.44 14.56-13.48 7.02-7.33 15.05-13.54 22.01-20.91 6.02-4.28 10.43-10.34 16.36-14.71 4.23-3.45 7.49-7.95 11.92-11.18 4.77-3.5 8.09-8.7 13.07-11.91 26.11-.66 52.29.4 78.4-.44z" fill="#2a71e9"/><path d="m163.01 410.06c.13-.12.38-.34.51-.45-.13.11-.38.33-.51.45z" fill="#286ee6"/><path d="m161.94 410.92c.27-.21.8-.65 1.07-.86-.27.21-.8.65-1.07.86z" fill="#286ee6"/><path d="m161.44 411.34c.13-.11.37-.31.5-.42-.13.11-.37.31-.5.42z" fill="#286ee6"/><path d="m150.03 422.03c.12-.1.37-.31.5-.42-.13.11-.38.32-.5.42z" fill="#286ee6"/><path d="m149.52 422.45c.13-.1.38-.31.51-.42-.13.11-.38.32-.51.42z" fill="#286ee6"/></svg>