<svg height="214" viewBox="0 0 200 214" width="214" xmlns="http://www.w3.org/2000/svg"><path d="M80 48c-2.435 1.899-4.944 3.723-10 3-4.63-5.068-.451-14.766 4-17-.737-2.263-3.812-2.188-4-5 .61-7.057 5.126-10.207 11-12-2.761-1.572-6.841-1.826-8-5 3.746-16.157 31.42-7.366 38 0-15.448 6.886-26.574 18.092-31 36z" fill="#f071aa"/><path d="M111 12c12.88-3.632 28.738-1.591 36 6-41.107-6.646-54.606 36.963-34 63-2.296 1.371-3.216 4.118-5 6h-2c-.816-2.516-5.271-1.395-7-3V72c-4.463 1.217-11.056 8.934-16 13-4.827-3.645-1.831-19.981-6-21 1.331-5.003 1.15-11.516 3-16 4.426-17.908 15.552-29.114 31-36z" fill="#989998"/><path d="M153 22c24.311 3.357 39.036 16.297 44 39-.609 2.391 1.255 7.255-1 8-5.684-4.53-18.532-3.034-27-2h-7c1.066-19.067-1.988-34.012-9-45z" fill="#f071aa"/><path d="M138 38c16.736 10.788-9.396 28.925-14 13-2.046-7.078 2.432-15.344 14-13zm-1 13c12.65-.176-4.292-17.929-6-6-.132 2.465-.15 4.818 1 6z" fill="#9f7243"/><path d="M131 45c.241-1.759 1.721-2.279 4-2-.775 3.443.557 4.776 4 4 .279 2.279-.241 3.759-2 4h-5c-1.15-1.182-1.132-3.535-1-6z" fill="#0d0e0d"/><path d="M163 70c5.309 3.411 16.352 2.084 22 0-2.801 11.533-12.45 16.216-27 16 2.125-4.542 2.342-10.991 4-16z" fill="#f071aa"/><path d="M99 73v10c-1.655-1.078-1.655-8.922 0-10z" fill="#29b24b"/><path d="M156 116c1.663 4.688 1.663 16.313 0 21v-21z" fill="#40b549"/><path d="M16 189c3.695-1.662 14.305-1.662 18 0H16z" fill="#abd49a"/><path d="M88 194h-2c2.712-3.127 8.333-3.432 13-2v1c-4.1-.1-8.197-.195-11 1z" fill="#4eb848"/><path d="M80 195c3.3-15.4 28.924-18.031 38-6 2.091-.576 2.854-2.479 6-2 2.35 4.221 2.77 11.15-1 14-5.186-1.186-6.164 1.836-9 3-7.377-1.289-8.352-8.98-15-11v-1c-4.667-1.432-10.288-1.127-13 2h2c-.013 1.531-2.729 3.287-2 0-3.677.656-4.98 3.688-7 6-1.907-.102.797-3.727 1-5z" fill="#f071aa"/><path d="M147 18c3.512-.178 3.289 3.378 6 4 7.012 10.988 10.066 25.933 9 45h7c-.125 2.208-4.242.425-6 1-1.454.443.102.878 0 2h-1c-1.658 5.009-1.875 11.458-4 16-3.33.265-3.968 6.532-2 9-2.632-1.035-3.368-3.965-6-5-.775-.89-1.075-2.258-1-4-3.887 4.115-4.783 11.217-9 15-2.584-3.416-3.357-8.643-5-13-3.128 3.872-5.453 8.547-9 12-1.002 2.665-4.036 3.297-6 5-2.113-7.886-7.338-12.662-12-18 1.784-1.882 2.704-4.629 5-6-20.606-26.037-7.107-69.646 34-63zm-19 10c-17.004-1.135-22.536 24.791-10 33 25.768 19.485 43.408-33.982 10-33z" fill="#cecccb"/><path d="M128 28c-11.173 3.581-18.654 21.424-10 33-12.536-8.209-7.004-34.135 10-33z" fill="#eddfe4"/><path d="M131 45c1.708-11.929 18.65 5.824 6 6 1.759-.241 2.279-1.721 2-4 2.707-2.351-1.648-6.708-4-4-2.279-.279-3.759.241-4 2z" fill="#989998"/><path d="M118 132c-3.348 3.984-6.695 7.973-12 10-.45-7.268 1.646-10.93 0-17-3.852 4.816-8.152 9.182-15 11-.319-2.318.161-3.839 1-5 6.389-12.943 9.922-28.745 14-44h2c4.662 5.338 9.887 10.114 12 18 1.904 8.389 1.457 20.875-2 27z" fill="#abd49a"/><path d="M125 182c17.773-7.561 28.88-21.787 31-45 1.663-4.688 1.663-16.313 0-21-1.436-9.232-.771-20.562-6-26 2.632 1.035 3.368 3.965 6 5 .564 8.102 2.723 14.609 3 23v19c-2.074 26.26-15.693 40.975-35 50-3.146-.479-3.909 1.424-6 2 .367-1.701-.779-1.887-2-2 .497-4.169 6.518-2.816 9-5zM118 132c-9.091 27.909-28.257 45.743-48 63-5.766 3.232-9.976 8.023-17 10 14.996-20.67 28.113-43.221 38-69 6.848-1.818 11.148-6.184 15-11 1.646 6.07-.45 9.732 0 17 5.305-2.027 8.652-6.016 12-10z" fill="#4eb848"/><path d="M67 123c3.827-.211 6.525-6.757 9-5-.712 5.621-1.288 11.379-2 17 7.457-3.209 11.465-9.869 19-13-.042 3.292-1.688 4.979-1 9-.839 1.161-1.319 2.682-1 5-9.887 25.779-23.004 48.33-38 69-.248 1.086-1.988.68-2 2-2.934-.85 1.301-2.518 0-5 1.434-1.232 1.895-3.438 2-6-14.66 3.73-34.696 10.966-51 4-1.25-9.583 6.167-10.5 14-11h21c3.695-.639 9.961 1.295 12-1h6c6.256-19.41 8.358-42.977 12-65z" fill="#40b549"/><path d="M128 28c33.408-.982 15.768 52.485-10 33-8.654-11.576-1.173-29.419 10-33zm-4 23c4.604 15.925 30.736-2.212 14-13-11.568-2.344-16.046 5.922-14 13z" fill="#fff"/><path d="M139 47c-3.443.776-4.775-.557-4-4 2.352-2.708 6.707 1.649 4 4z" fill="#fff"/><path d="M196 69c2.255-.745.391-5.609 1-8 1.941.41 1.609 12.142-1 8z" fill="#eddfe4"/><path d="M126 100c3.547-3.453 5.872-8.128 9-12 1.643 4.357 2.416 9.584 5 13 4.217-3.783 5.113-10.885 9-15-.075 1.742.225 3.11 1 4 5.229 5.438 4.564 16.768 6 26v21c-2.12 23.213-13.227 37.439-31 45-3.667-8-9.598-13.734-15-20 7.52-17.463 21.786-37.779 16-62z" fill="#29b24b"/><path d="M67 123c1.715-8.284 3.615-16.385 7-23 5.281-8.386 12.094-15.24 25-16 1.729 1.605 6.184.484 7 3-4.078 15.255-7.611 31.057-14 44-.688-4.021.958-5.708 1-9-7.535 3.131-11.543 9.791-19 13 .712-5.621 1.288-11.379 2-17-2.475-1.757-5.173 4.789-9 5z" fill="#95ce8e"/><path d="M125 182c-2.482 2.184-8.503.831-9 5 1.221.113 2.367.299 2 2-9.076-12.031-34.7-9.4-38 6H70c19.743-17.257 38.909-35.091 48-63 3.457-6.125 3.904-18.611 2-27 1.964-1.703 4.998-2.335 6-5 5.786 24.221-8.48 44.537-16 62 5.402 6.266 11.333 12 15 20z" fill="#16a54a"/><path d="M37 189c2.039-2.295 8.305-.361 12-1-2.039 2.295-8.305.361-12 1z" fill="#abd49a"/><path d="M159 118c1.663 4.025 1.663 14.975 0 19v-19z" fill="#95ce8e"/><g fill="#16a54a"><path d="M74 100c1.397-11.603 3.033-22.967 3-36 4.169 1.019 1.173 17.355 6 21 4.944-4.066 11.537-11.783 16-13v1c-1.655 1.078-1.655 8.922 0 10v1c-12.906.76-19.719 7.614-25 16zM2 200c16.304 6.966 36.34-.27 51-4-.105 2.563-.566 4.768-2 6-12.01 7.383-42.098 15.441-49-2z"/></g></svg>