<svg viewBox="0 0 500 500" xmlns="http://www.w3.org/2000/svg"><path d="M153.5 8.1c-34.1.9-61.4 4.1-82.5 9.7C42.1 25.6 21.9 47.2 14.7 78c-6.4 27.6-7 33.5-8.7 94-1.4 49.7-.7 173.6 1.1 199.2l1.2 16.7 2.9-1.7c1.6-.9 8.6-7.3 15.6-14.2 30.1-29.6 51.3-60.6 68.7-100.5 3.4-7.8 4.4-10.3 5.5-14 1.2-4 2.1-6.3 4.6-12 .7-1.6 2.5-6.6 3.9-11s3-8.9 3.5-10c1.2-2.6 2.6-6.2 6.5-17 8.2-22.9 11.5-31.8 12.9-34.8.8-1.8 2.7-6.8 4.2-11.2s3.4-9.6 4.2-11.5c2.8-6.5 3.1-7.5 5.3-13.9 6.4-19.3 21.4-40.8 37.5-53.6 2.8-2.2 5.2-4.3 5.5-4.6 1.3-1.5 14.2-9.1 19.6-11.4 3.3-1.4 6.8-3 7.9-3.5 20.7-9.2 57.2-10.3 80.7-2.6 23.1 7.6 42.7 20.8 56.8 38.1 15.7 19.3 24.7 40.5 27.1 63.3 1.1 10.6 1.2 10.7 5.4 14.2 10.4 8.5 17.6 20.2 20.2 32.7 2.3 11.3 1 12.7-8.6 9.4-45.2-15.7-89.1 13.6-150.5 100.5-14.6 20.6-42.2 64.8-44.8 71.7-1.5 4-5.4 1.6-32.2-19.8-28.1-22.4-28.9-22.9-30.1-19.3-1 3.3-11.1 18.6-15.6 23.7-4.7 5.3-4.8 6.3-.6 9.3 23.8 16.9 60.7 56.5 83.4 89.6 1.8 2.6 2.8.9 7.3-12.8 2.3-6.9 4.8-14.1 5.7-16 .8-1.9 1.9-4.4 2.4-5.5s1.7-4.2 2.8-7c1.8-4.7 6.7-15 11.3-24 1.1-2.2 3.4-6.7 5.1-10s3.8-7.1 4.7-8.5 3.2-5.2 5-8.5c6-11 30.4-46.9 38.6-56.8.8-1 2.7-3.5 4.2-5.6 8.7-12 10.7-12.7 14.1-4.9 1.3 2.9 4.6 8.4 7.3 12.2 5 6.9 8.6 10.4 23.7 22.6 15.7 12.7 30.4 29.4 44.3 50.4s25.6 58.5 25.7 82.3c0 9.6-.1 9.5 11 6.8 43.2-10.6 59-27.9 69.4-76.1 9-42 9-279 0-321-8.6-39.7-21-57.8-47.7-69.2-13.5-5.8-23.6-8-54.2-11.9-22.7-2.8-157.9-4.1-235-2.2m114 109.1c-20.4 7-27.5 12.1-27.5 19.7 0 5.5.5 6.3 4.7 8.4 4.5 2.3 5.1 2.2 16-3.4 20-10.2 30.1-5.5 34.8 16.5 3.4 15.9 21.9 15.5 20.2-.4-3-28.4-26.5-48.2-48.2-40.8" fill="#1a83e4"/><path d="M153 5.6c-1.4.2-10.4.8-20 1.4C39.6 12.2 16.4 32.1 6.1 116c-4.7 38.4-3.7 268.8 1.2 273.7 3.3 3.3 35.5-28.8 54.8-54.7 11-14.7 30.5-48.7 33.4-58 .4-1.4 1.8-4.8 3-7.5 1.2-2.8 3.1-7.5 4.3-10.5 2.6-7.1 10.1-27.6 11.5-31.5.6-1.7 1.6-4.3 2.3-6 1.1-2.6 3-7.9 7.7-21 .6-1.6 1.6-4.4 2.3-6s2.5-6.4 3.9-10.5c1.5-4.1 3.7-10.2 5-13.5s3.5-9.4 5-13.5 3.3-8.9 4-10.5c.7-1.7 2.3-5.9 3.5-9.5 34.8-101.4 182.2-106.7 222-8 1.2 3 2.6 6.4 3.1 7.5 2.8 6.5 4.9 16.5 6.5 31.7.5 4.9 1 6 3.7 7.9 11.7 8.3 21.8 25.8 21.8 37.8 0 3.8.2 3.8-13.5.1-38.6-10.5-77.7 13.9-129.3 80.7-17 22-41.7 59.4-55.7 84.3-6.3 11.2-6.8 11.6-11.3 8.2-4.7-3.5-23.8-18.7-27.5-21.8-9.9-8.4-24.1-18.9-25.5-18.9-1 0-2.9 2.5-5 6.5-3.5 6.8-7.6 12.8-14.9 21.8-5.5 6.8-6 5.5 7 16.3 25.5 21 58.1 56.2 73 78.7 8.2 12.4 8.2 12.5 14.7-7.5 3-9.2 6-17.6 6.6-18.7s2.5-5.6 4.4-10c6.3-15.2 16.9-36.1 25.7-50.8 9.8-16.3 40.2-60.4 43.4-62.7.4-.3 2-2.4 3.7-4.7 3.4-4.8 4.5-4.3 7.3 2.7 1.6 4 9.9 15.4 13.8 18.9 1.5 1.3 6.7 5.6 11.7 9.6 46.3 37.4 68.9 78 74.5 133.8 1.4 13.7 1.1 13.4 9.7 11.3 3.7-.9 8.7-2.1 11.2-2.7 43.1-10.2 62.1-41.1 67.5-109.2 2.2-27.4 2.2-227.9 0-255.3-4.2-52.7-17.6-85.2-40.3-97.8-21.6-12-41.7-16.7-83.8-19.9-12.2-.9-214.1-2-219.5-1.2M345 8c28.3.7 41.5 1.8 62 4.9 52.4 7.9 72.2 26.5 83.4 78.6 9 42 9 279 0 321-10.4 48.1-26.2 65.5-69.4 76.1-11.1 2.7-11 2.8-11-6.8 0-18.9-6.8-45.2-17.3-66.8-11.4-23.6-31.7-48.9-52.7-65.9-15.1-12.2-18.8-15.7-23.7-22.6-2.8-3.9-6.1-9.4-7.3-12.2-3.4-7.8-5.4-7.1-14.1 4.9-1.5 2.1-3.4 4.6-4.2 5.6-8.2 9.9-32.6 45.8-38.6 56.8-1.8 3.3-4 7.1-5 8.5-.9 1.4-3.1 5.2-4.7 8.5-1.7 3.3-4 7.8-5.1 10-4.7 9-9.5 19.3-11.3 24-1.1 2.8-2.3 5.9-2.8 7s-1.6 3.6-2.4 5.5-3.4 9.1-5.7 16c-4.5 13.7-5.5 15.4-7.3 12.8-22.7-33.1-59.6-72.8-83.4-89.6-4.2-2.9-4.1-3.9.6-9.3 4.4-5 14.5-20.4 15.6-23.7 1.2-3.6 1.9-3.1 30.1 19.3 26.9 21.4 30.7 23.7 32.2 19.8 2.6-6.8 30.3-51 44.8-71.7 61.4-86.9 105.3-116.3 150.5-100.5 9.6 3.3 10.9 1.9 8.6-9.4-2.6-12.5-9.8-24.2-20.2-32.7-4.3-3.5-4.3-3.7-5.4-14.2-4.8-46.6-37.5-86.1-83.9-101.4-23.5-7.7-60-6.5-80.7 2.6-1.1.5-4.7 2.1-7.9 3.5-5.3 2.3-18.3 9.9-19.6 11.4-.3.3-2.8 2.4-5.5 4.6-16.1 12.8-31.1 34.3-37.5 53.6-2.1 6.4-2.5 7.4-5.3 13.9-.8 1.9-2.7 7.1-4.2 11.5s-3.4 9.5-4.2 11.2c-1.3 3-4.6 11.9-12.9 34.8-3.9 10.8-5.2 14.4-6.5 17-.5 1.1-2.1 5.6-3.5 10s-3.2 9.4-3.9 11c-2.5 5.7-3.4 8-4.6 12-.7 2.2-1.9 5.6-2.7 7.5-19.2 45-39.7 75.7-71.5 107-7 6.9-14 13.3-15.6 14.2L8.3 388l-1.2-16.7c-3.8-52.8-1.9-243 2.7-269.2C17 60.9 25 44.6 44.8 30.3c14.7-10.6 30.3-15.1 69.2-20C136.5 7.5 272.9 6.1 345 8m-75 106.6c-16.2 3.2-33 14.2-33 21.6 0 12.2 11.3 15.7 24.8 7.7 16.8-9.9 26-5.5 31.6 15 3.9 14.2 14.1 18.3 22 9 8.5-10.1-5.6-42.9-21.2-49.6-2-.9-4.6-2-5.6-2.5-2.1-1.1-14.9-1.9-18.6-1.2m17.7 3.3c15.6 5.7 25.9 20.5 27.9 40.1 1.7 16-16.8 16.4-20.2.4-4.7-22-14.8-26.8-34.8-16.5-10.9 5.6-11.5 5.7-16 3.4-4.2-2.1-4.7-3-4.7-8.4 0-7.6 7.1-12.6 27.5-19.7 5.1-1.7 14.7-1.4 20.3.7" fill="#7ab6ef"/></svg>