<svg height="1024" width="1024" xmlns="http://www.w3.org/2000/svg"><linearGradient id="a" x1="50%" x2="50%" y1="0%" y2="100%"><stop offset="0" stop-color="#ffa900"/><stop offset="1" stop-color="#f70"/></linearGradient><g fill="none" fill-rule="evenodd"><path d="M0 0h1024v1024H0z" fill="url(#a)"/><path d="M.5.5h1023v1023H.5z" stroke="#979797"/><path d="M836 498c-3.559-.807-6.602-3.072-10.171-3.74-7.982-1.493-15.8 4.127-18.774 11.356C805.037 510.519 806 516.798 806 522v149c0 6.628 1.084 14.359-.455 20.83-4.338 18.237-22.146 32.289-41.375 27.715C730.483 711.531 736 672.385 736 646V367c0-10.426 1.119-21.56-.129-31.911-6.119-50.775-71.979-75.12-110.835-43.307-11.408 9.34-21.025 23.063-24.581 37.504C595.688 348.643 598 370.154 598 390v281c0 7.067.968 14.942-.259 21.911-1.825 10.359-9.75 19.695-19.051 24.269-15.678 7.709-39.47.524-45.98-16.455-3.787-9.877-2.71-20.312-2.71-30.725V437c0-30.408 2.132-61.681-.09-92-2.01-27.423-18.968-54.553-45.78-63.401-4.294-1.418-8.578-3.41-13.145-3.581-7.211-.269-15.709-1.044-22.815.241-27.854 5.038-49.011 25.594-55.715 53.027C389.891 341.777 391 354.242 391 365v304c0 8.775.846 18.259-1.456 26.829-3.188 11.869-14.111 20.956-25.714 23.716-18.269 4.346-35.507-7.8-41.102-24.834-2.649-8.067-.728-19.266-.728-27.711V368c0-13.052.68-26.009-2.455-38.714-6.14-24.882-28.319-46.419-53.715-51.027-7.103-1.288-15.607-.509-22.815-.241-7.228.27-14.252 3.4-20.615 6.582-16.956 8.478-29.357 21.627-35.672 39.839C181.625 339.154 184 356.618 184 372v138c0 6.434-1.466 14.914 3.26 20.14 8.965 9.913 24.837 6.028 29.685-5.756C219.068 519.225 218 512.477 218 507v-82c0-27.113-1.839-54.945.054-81.985 1.996-28.513 42.065-41.921 60.164-19.27C288.611 336.751 288 351.167 288 367v313c0 6.392-.884 13.53.259 19.83 4.656 25.661 28.301 50.84 54.831 54.041 9.153 1.105 20.601 1.879 29.625-.326 24.44-5.973 46.204-27.651 50.91-52.545 2.764-14.618 2.375-29.083 2.375-44V365c0-8.379-1.619-18.691.46-26.829 3.359-13.152 16.1-24.459 29.579-26.042 16.653-1.956 33.375 9.888 37.501 26.042 2.153 8.429.46 19.148.46 27.829v290c0 17.823-.467 35.438 4.455 52.711 6.607 23.185 28.595 39.162 50.831 44.838 6.637 1.694 13.019 1.258 19.714.621 6.361-.606 12.423-.769 18.561-2.898 22.562-7.824 39.73-29.1 44.064-52.272 2.242-11.986 1.375-24.851 1.375-37V367c0-18.672-1.318-40.656 18.2-50.4 3.448-1.722 7.208-3.25 10.97-4.145 14.703-3.497 32.552 7.707 37.424 21.676C703.259 344.638 702 355.99 702 367v307c0 6.394-.88 13.528.259 19.83 2.769 15.309 9.294 29.402 19.526 41.116C726.248 740.054 733.601 744 739.6 747c23.814 11.91 53.058 9.926 74.655-6.223 10.471-7.83 17.086-19.89 22.326-31.581C840.188 701.15 840 691.628 840 683V524c0-5.635.975-12.305-.278-17.816-.677-2.978-2.95-5.177-3.722-8.184z" fill="#fffdf9" fill-rule="nonzero"/></g></svg>