<svg height="80" viewBox="0 0 80 80" width="80" xmlns="http://www.w3.org/2000/svg" xmlns:xlink="http://www.w3.org/1999/xlink"><defs><path id="a" d="m39.9821723.03550562c-22.0814981 0-39.9821723 17.90052438-39.9821723 39.98217228s17.9006742 39.9823221 39.9821723 39.9823221c22.0816479 0 39.9823221-17.9006742 39.9823221-39.9823221s-17.9006742-39.98217228-39.9823221-39.98217228z"/><mask id="b" fill="#fff"><use fill="#fff" fill-rule="evenodd" xlink:href="#a"/></mask></defs><g fill="none" fill-rule="evenodd"><use fill="#08c" xlink:href="#a"/><g mask="url(#b)"><g transform="translate(14.23221 21.573034)"><path d="m45.2046742 1.4619176-7.1411236 36.0049438s-.9988015 2.4969289-3.7453184 1.2982772l-16.4794007-12.6343071-5.9925094-2.8961798-10.08734083-3.3959551s-1.54801498-.5490636-1.69782771-1.7475655c-.14981274-1.1985019 1.74771535-1.8477903 1.74771535-1.8477903l40.09992509-15.73033705s3.2958802-1.44808989 3.2958802.94891385" fill="#fefefe"/><path d="m16.5721498 37.0625618s-.4810487-.0450936-1.0802996-1.9429214c-.5992509-1.897528-3.6455431-11.8849438-3.6455431-11.8849438l24.2197753-15.38082394s1.3982022-.84883895 1.3483146 0c0 0 .2497378.14981273-.4993258.84898876-.7490637.69917603-19.0262173 17.12838948-19.0262173 17.12838948" fill="#d3e5f1"/><path d="m24.1574532 30.975236-6.5183521 5.9430711s-.5095131.3865169-1.0669663.1442697l1.2480899-11.0391011" fill="#b6d0e4"/></g></g></g></svg>