<?xml version="1.0" encoding="UTF-8"?>
<svg fill="none" version="1.1" viewBox="0 0 568 568" xmlns="http://www.w3.org/2000/svg">
  <path d="m123.12 63.664c65.12 48.888 135.16 148.02 160.88 201.21 25.719-53.192 95.759-152.32 160.88-201.21 46.987-35.276 123.12-62.57 123.12 24.282 0 17.346-9.945 145.71-15.778 166.55-20.275 72.453-94.155 90.933-159.88 79.748 114.88 19.551 144.1 84.311 80.986 149.07-119.86 122.99-172.27-30.859-185.7-70.281-2.462-7.227-3.614-10.608-3.631-7.733-0.017-2.875-1.169 0.506-3.631 7.733-13.43 39.422-65.842 193.27-185.7 70.281-63.111-64.76-33.889-129.52 80.986-149.07-65.72 11.185-139.6-7.295-159.88-79.748-5.833-20.842-15.778-149.21-15.778-166.55 0-86.852 76.134-59.558 123.12-24.282z" fill="#1185fe"/>
</svg>
