<svg id="svg" version="1.1" width="400" height="400" viewBox="0 0 400 400" xmlns="http://www.w3.org/2000/svg" xmlns:xlink="http://www.w3.org/1999/xlink" ><g id="svgg"><path id="path0" d="M124.324 58.019 C 123.952 58.235,121.824 58.669,119.595 58.982 C 117.366 59.295,115.312 59.741,115.031 59.974 C 114.750 60.207,113.561 60.580,112.388 60.802 C 111.215 61.025,109.973 61.460,109.628 61.769 C 109.283 62.079,108.335 62.456,107.522 62.607 C 104.911 63.091,97.396 71.647,96.542 75.108 C 96.393 75.708,95.921 76.878,95.492 77.707 C 94.446 79.727,94.607 89.793,95.718 91.880 C 96.093 92.584,96.406 93.574,96.413 94.080 C 96.427 95.113,98.216 98.898,99.518 100.649 C 101.958 103.931,104.168 106.400,104.665 106.400 C 104.861 106.400,105.330 106.760,105.707 107.200 C 106.084 107.640,106.640 108.000,106.942 108.000 C 107.245 108.000,107.921 108.337,108.446 108.748 C 108.971 109.159,110.030 109.627,110.800 109.787 C 111.570 109.947,112.641 110.359,113.181 110.702 C 113.796 111.092,115.663 111.430,118.181 111.606 C 120.391 111.761,122.740 112.138,123.400 112.444 C 124.401 112.908,132.962 113.018,174.970 113.109 C 213.173 113.192,225.478 113.333,225.913 113.694 C 226.765 114.401,226.434 121.478,225.481 122.932 C 225.099 123.516,224.675 124.850,224.539 125.897 C 224.403 126.944,224.067 128.070,223.793 128.400 C 223.518 128.730,222.997 130.035,222.635 131.300 C 222.274 132.565,221.803 133.600,221.589 133.600 C 221.375 133.600,221.200 133.946,221.200 134.369 C 221.200 134.792,220.750 135.673,220.200 136.327 C 219.650 136.981,219.200 137.713,219.200 137.954 C 219.200 138.196,218.840 138.618,218.400 138.893 C 217.960 139.168,217.600 139.594,217.600 139.841 C 217.600 140.472,214.081 144.967,211.300 147.890 C 210.805 148.411,210.400 148.920,210.400 149.022 C 210.400 149.998,197.661 162.496,194.400 164.720 C 193.630 165.245,192.730 165.988,192.400 166.372 C 191.895 166.959,187.068 171.155,185.268 172.572 C 184.969 172.808,184.316 173.405,183.816 173.900 C 183.317 174.395,182.807 174.800,182.683 174.800 C 182.559 174.800,181.638 175.565,180.638 176.500 C 178.725 178.287,175.386 181.240,173.460 182.848 C 172.833 183.372,171.945 184.205,171.488 184.700 C 171.030 185.195,170.508 185.600,170.327 185.600 C 170.147 185.600,169.300 186.320,168.446 187.200 C 167.592 188.080,166.765 188.800,166.607 188.800 C 166.450 188.800,165.475 189.655,164.440 190.700 C 163.406 191.745,160.499 194.518,157.980 196.863 C 155.461 199.208,152.460 202.043,151.312 203.163 C 150.164 204.283,149.039 205.200,148.812 205.200 C 148.585 205.200,148.396 205.425,148.391 205.700 C 148.387 205.975,147.738 206.740,146.951 207.400 C 145.173 208.890,144.890 209.173,143.400 210.951 C 142.740 211.738,141.975 212.387,141.700 212.391 C 141.425 212.396,141.200 212.576,141.200 212.791 C 141.200 213.007,140.255 214.134,139.100 215.296 C 137.945 216.458,135.299 219.289,133.219 221.586 C 131.140 223.882,129.160 226.053,128.819 226.408 C 128.479 226.764,127.433 227.943,126.495 229.027 C 125.557 230.112,124.432 231.366,123.995 231.814 C 123.558 232.262,123.200 232.749,123.200 232.896 C 123.200 233.043,122.795 233.613,122.300 234.163 C 120.898 235.720,119.475 237.421,118.600 238.586 C 118.160 239.172,117.485 239.999,117.100 240.425 C 116.715 240.851,116.400 241.344,116.400 241.520 C 116.400 241.696,115.500 242.957,114.400 244.322 C 113.300 245.687,112.400 246.974,112.400 247.182 C 112.400 247.390,112.154 247.704,111.854 247.880 C 111.554 248.056,111.009 248.785,110.644 249.500 C 110.278 250.215,109.822 250.800,109.629 250.800 C 109.436 250.800,109.090 251.340,108.860 252.000 C 108.630 252.660,108.270 253.200,108.060 253.200 C 107.850 253.200,107.502 253.706,107.286 254.324 C 107.071 254.943,106.648 255.716,106.347 256.042 C 105.819 256.616,104.956 258.082,103.663 260.600 C 103.325 261.260,102.827 262.023,102.556 262.296 C 102.286 262.569,101.944 263.346,101.795 264.023 C 101.646 264.700,101.290 265.344,101.003 265.454 C 100.716 265.564,100.287 266.427,100.049 267.371 C 99.811 268.316,99.343 269.315,99.008 269.593 C 98.674 269.871,98.399 270.391,98.398 270.749 C 98.397 271.107,97.952 272.120,97.410 273.000 C 96.868 273.880,96.419 274.965,96.412 275.411 C 96.406 275.857,96.148 276.582,95.839 277.023 C 95.531 277.463,95.064 278.628,94.802 279.612 C 94.540 280.595,94.097 281.670,93.817 282.000 C 93.537 282.330,93.202 283.294,93.072 284.142 C 92.943 284.991,92.468 286.391,92.018 287.255 C 91.568 288.118,91.199 289.404,91.199 290.112 C 91.198 290.821,90.863 291.948,90.455 292.617 C 90.047 293.286,89.589 294.828,89.437 296.044 C 89.285 297.260,88.879 298.782,88.535 299.427 C 88.190 300.072,87.755 302.048,87.568 303.818 C 87.381 305.587,86.938 307.730,86.583 308.579 C 85.629 310.863,85.632 328.126,86.587 330.916 C 86.947 331.969,87.390 334.145,87.570 335.751 C 87.750 337.357,88.170 339.105,88.504 339.636 C 88.837 340.166,89.236 341.320,89.390 342.200 C 89.544 343.080,90.015 344.122,90.435 344.516 C 90.856 344.909,91.200 345.459,91.200 345.737 C 91.200 346.354,96.246 351.018,97.847 351.882 C 98.481 352.224,99.450 352.749,100.000 353.049 C 100.550 353.350,101.414 353.596,101.920 353.598 C 102.426 353.599,103.337 353.857,103.945 354.172 C 104.553 354.486,106.929 354.946,109.225 355.195 C 111.521 355.443,114.288 355.906,115.373 356.223 C 116.458 356.540,118.888 356.807,120.773 356.817 C 122.658 356.826,126.900 357.127,130.200 357.485 C 138.911 358.432,254.747 358.742,258.800 357.829 C 260.230 357.507,263.290 357.132,265.600 356.995 C 267.910 356.859,270.520 356.498,271.400 356.195 C 272.280 355.891,274.170 355.440,275.600 355.192 C 277.030 354.945,278.560 354.514,279.000 354.235 C 279.440 353.957,280.400 353.611,281.132 353.468 C 281.865 353.324,282.925 352.845,283.486 352.404 C 284.048 351.962,284.726 351.600,284.992 351.600 C 285.258 351.600,285.999 351.150,286.638 350.600 C 287.277 350.051,287.953 349.601,288.139 349.600 C 288.626 349.600,292.274 345.587,292.866 344.400 C 293.141 343.850,293.577 343.130,293.836 342.800 C 294.095 342.470,294.600 341.174,294.959 339.920 C 295.317 338.667,295.788 337.531,296.005 337.397 C 296.763 336.928,296.480 328.687,295.640 326.751 C 295.222 325.788,294.749 324.190,294.590 323.200 C 294.430 322.210,294.052 321.045,293.750 320.611 C 293.447 320.177,293.200 319.347,293.200 318.767 C 293.200 318.186,292.750 317.049,292.200 316.238 C 291.650 315.428,291.200 314.676,291.200 314.569 C 291.200 314.189,288.421 311.600,288.013 311.600 C 287.786 311.600,287.600 311.430,287.600 311.221 C 287.600 310.769,283.765 308.200,282.536 307.830 C 282.061 307.686,281.454 307.306,281.187 306.985 C 280.920 306.663,280.402 306.400,280.036 306.400 C 279.669 306.400,278.656 306.034,277.785 305.588 C 276.913 305.141,275.115 304.620,273.790 304.431 C 272.464 304.241,270.753 303.824,269.988 303.504 C 269.222 303.184,267.281 302.793,265.673 302.635 C 264.065 302.476,261.906 302.091,260.875 301.778 C 259.294 301.298,250.498 301.207,204.800 301.199 C 150.225 301.189,149.026 301.167,148.646 300.177 C 148.384 299.494,149.548 296.000,150.038 296.000 C 150.237 296.000,150.400 295.814,150.400 295.587 C 150.400 295.028,151.394 292.944,152.589 291.000 C 153.129 290.120,153.838 288.846,154.163 288.168 C 154.488 287.491,155.034 286.704,155.377 286.419 C 155.720 286.135,156.000 285.652,156.000 285.347 C 156.000 285.042,156.360 284.484,156.800 284.107 C 157.240 283.730,157.600 283.206,157.600 282.942 C 157.600 282.678,158.050 281.927,158.600 281.273 C 159.150 280.619,159.600 279.887,159.600 279.646 C 159.600 279.404,159.960 278.982,160.400 278.707 C 160.840 278.432,161.200 278.020,161.200 277.791 C 161.200 277.358,162.273 275.875,164.000 273.921 C 164.550 273.299,165.304 272.387,165.677 271.895 C 167.731 269.178,172.758 263.196,174.075 261.900 C 174.914 261.076,175.600 260.250,175.600 260.065 C 175.600 259.881,176.405 259.026,177.389 258.165 C 178.373 257.304,179.183 256.476,179.189 256.324 C 179.195 256.171,179.965 255.256,180.900 254.289 C 192.009 242.801,197.319 237.600,197.938 237.600 C 198.192 237.600,198.400 237.399,198.400 237.154 C 198.400 236.676,201.159 234.000,201.651 234.000 C 201.813 234.000,202.060 233.640,202.200 233.200 C 202.340 232.760,202.618 232.400,202.818 232.400 C 203.018 232.400,204.340 231.230,205.756 229.800 C 207.172 228.370,208.432 227.200,208.556 227.200 C 208.896 227.200,213.994 221.981,214.687 220.923 C 215.020 220.416,215.441 220.000,215.623 220.000 C 215.806 220.000,217.090 218.877,218.477 217.504 C 219.865 216.131,222.170 214.016,223.600 212.804 C 225.030 211.592,228.090 208.763,230.400 206.518 C 232.710 204.273,235.275 201.818,236.100 201.064 C 236.925 200.309,237.600 199.504,237.600 199.273 C 237.600 199.043,237.951 198.743,238.380 198.606 C 238.808 198.470,239.267 198.017,239.400 197.600 C 239.533 197.183,239.992 196.730,240.420 196.594 C 240.849 196.457,241.200 196.169,241.200 195.953 C 241.200 195.737,242.438 194.264,243.950 192.680 C 245.463 191.096,247.183 189.260,247.773 188.600 C 251.483 184.448,253.916 181.779,254.700 181.001 C 255.195 180.510,255.600 179.968,255.600 179.796 C 255.600 179.625,255.973 179.105,256.429 178.642 C 257.190 177.869,261.499 172.357,263.400 169.724 C 263.840 169.115,265.123 167.173,266.251 165.408 C 267.379 163.644,268.594 161.885,268.951 161.500 C 269.308 161.115,269.600 160.544,269.600 160.231 C 269.600 159.918,270.050 159.127,270.600 158.473 C 271.150 157.819,271.600 156.905,271.600 156.442 C 271.600 155.979,271.942 155.258,272.359 154.841 C 272.777 154.423,273.238 153.538,273.384 152.874 C 273.530 152.209,273.998 151.263,274.425 150.772 C 274.851 150.280,275.200 149.569,275.200 149.193 C 275.200 148.816,275.534 148.079,275.942 147.554 C 276.350 147.029,276.904 145.925,277.173 145.100 C 277.442 144.275,277.808 143.600,277.987 143.600 C 278.165 143.600,278.435 142.925,278.586 142.100 C 278.737 141.275,279.195 139.880,279.605 139.000 C 280.015 138.120,280.452 136.770,280.577 136.000 C 280.702 135.230,281.072 134.086,281.400 133.458 C 281.728 132.830,282.165 131.265,282.372 129.980 C 282.579 128.695,282.956 127.256,283.210 126.782 C 283.464 126.308,283.914 124.305,284.210 122.331 C 284.507 120.358,284.923 118.531,285.134 118.271 C 285.346 118.012,285.646 116.180,285.801 114.200 C 285.955 112.220,286.333 109.250,286.641 107.600 C 287.429 103.369,287.412 86.926,286.616 84.304 C 286.300 83.261,285.921 81.281,285.775 79.904 C 285.629 78.527,285.241 76.972,284.912 76.449 C 284.506 75.802,284.394 75.000,284.562 73.946 C 285.060 70.831,281.873 64.400,279.831 64.400 C 279.552 64.400,279.007 64.050,278.621 63.623 C 278.234 63.195,277.384 62.728,276.731 62.585 C 276.079 62.442,275.454 62.085,275.342 61.792 C 275.229 61.499,274.386 61.139,273.469 60.991 C 272.551 60.844,271.377 60.454,270.860 60.126 C 270.343 59.798,268.336 59.291,266.400 59.000 C 264.464 58.709,262.514 58.275,262.066 58.036 C 260.984 57.456,125.317 57.439,124.324 58.019 " stroke="none" fill="#fbfafa" fill-rule="evenodd"></path><path id="path1" d="M82.800 151.200 L 82.800 302.400 83.826 302.400 C 84.391 302.400,85.201 302.586,85.626 302.814 C 86.363 303.208,86.400 303.066,86.400 299.847 C 86.400 297.507,86.246 296.410,85.900 296.283 C 85.500 296.137,85.500 295.994,85.900 295.570 C 86.288 295.159,86.400 295.153,86.400 295.544 C 86.400 295.821,86.568 295.944,86.772 295.817 C 86.977 295.691,87.270 295.789,87.422 296.036 C 87.864 296.750,88.387 295.608,88.394 293.916 C 88.398 292.902,88.125 292.175,87.532 291.623 C 86.789 290.930,86.731 290.671,87.124 289.807 C 87.603 288.756,88.179 288.519,88.600 289.200 C 88.736 289.420,89.107 289.600,89.424 289.600 C 90.399 289.600,90.196 286.516,89.200 286.200 C 87.528 285.669,88.773 283.777,90.508 284.213 C 92.127 284.619,92.427 281.736,90.893 280.513 C 89.961 279.769,90.899 278.894,92.392 279.114 C 93.600 279.291,93.600 279.290,93.600 277.272 C 93.600 275.605,93.739 275.210,94.400 275.000 C 95.307 274.712,95.582 271.794,94.729 271.510 C 93.869 271.223,94.829 270.400,96.024 270.400 C 97.012 270.400,97.200 270.240,97.200 269.400 C 97.200 268.769,96.974 268.400,96.587 268.400 C 95.765 268.400,95.346 267.204,96.023 266.786 C 96.320 266.602,97.048 266.550,97.641 266.668 C 98.491 266.838,98.776 266.706,98.986 266.046 C 99.304 265.041,98.976 264.400,98.143 264.400 C 96.969 264.400,97.877 263.398,99.232 263.198 C 100.522 263.008,100.597 262.911,100.554 261.493 C 100.515 260.226,100.657 259.951,101.454 259.751 C 102.176 259.570,102.400 259.239,102.400 258.357 C 102.400 257.488,102.589 257.200,103.157 257.200 C 103.957 257.200,104.400 256.463,104.400 255.130 C 104.400 254.647,104.738 254.237,105.245 254.104 C 105.964 253.916,106.060 253.662,105.889 252.391 C 105.712 251.068,105.777 250.921,106.460 251.100 C 107.043 251.252,107.346 250.997,107.703 250.051 C 107.989 249.295,108.457 248.800,108.888 248.800 C 109.388 248.800,109.600 248.491,109.600 247.763 C 109.600 247.062,109.859 246.657,110.400 246.516 C 111.309 246.278,111.434 245.594,110.703 244.863 C 110.101 244.261,110.899 243.616,112.257 243.606 C 112.823 243.602,113.194 243.277,113.352 242.648 C 113.484 242.124,113.953 241.601,114.396 241.485 C 114.870 241.361,115.200 240.940,115.200 240.457 C 115.200 240.008,115.515 239.461,115.900 239.242 C 116.489 238.908,116.521 238.715,116.104 238.034 C 115.584 237.184,116.354 236.400,117.709 236.400 C 118.019 236.400,118.477 235.950,118.727 235.400 C 118.978 234.850,119.457 234.400,119.791 234.400 C 120.142 234.400,120.400 234.046,120.400 233.563 C 120.400 233.062,120.721 232.641,121.200 232.516 C 121.660 232.396,122.000 231.970,122.000 231.516 C 122.000 231.055,122.342 230.636,122.822 230.510 C 123.357 230.370,123.620 230.000,123.577 229.448 C 123.454 227.864,123.599 227.600,124.592 227.600 C 125.317 227.600,125.652 227.331,125.836 226.600 C 125.974 226.050,126.334 225.600,126.636 225.600 C 126.938 225.600,127.298 225.150,127.436 224.600 C 127.589 223.991,127.972 223.600,128.416 223.600 C 128.818 223.600,129.260 223.240,129.400 222.800 C 129.540 222.360,129.828 222.000,130.040 222.000 C 130.558 222.000,133.200 219.336,133.200 218.813 C 133.200 218.586,133.474 218.400,133.810 218.400 C 134.145 218.400,134.591 217.950,134.800 217.400 C 135.009 216.850,135.455 216.400,135.790 216.400 C 136.126 216.400,136.400 216.140,136.400 215.823 C 136.400 215.505,136.727 215.010,137.126 214.723 C 137.526 214.435,137.970 213.885,138.114 213.500 C 138.257 213.115,138.720 212.800,139.141 212.800 C 139.570 212.800,139.999 212.449,140.116 212.000 C 140.231 211.560,140.591 211.200,140.916 211.200 C 141.241 211.200,141.604 210.827,141.724 210.370 C 141.843 209.914,142.314 209.443,142.770 209.324 C 143.239 209.201,143.600 208.779,143.600 208.353 C 143.600 207.882,143.882 207.600,144.353 207.600 C 144.779 207.600,145.201 207.239,145.324 206.770 C 145.443 206.314,145.914 205.843,146.370 205.724 C 146.827 205.604,147.200 205.253,147.200 204.943 C 147.200 204.634,147.650 204.209,148.200 204.000 C 148.750 203.791,149.200 203.345,149.200 203.010 C 149.200 202.674,149.474 202.400,149.810 202.400 C 150.145 202.400,150.591 201.950,150.800 201.400 C 151.009 200.850,151.455 200.400,151.790 200.400 C 152.126 200.400,152.400 200.124,152.400 199.787 C 152.400 199.451,152.702 199.059,153.072 198.917 C 153.768 198.650,156.826 195.628,160.066 192.003 C 161.093 190.855,162.711 189.528,163.663 189.054 C 164.624 188.576,165.626 187.706,165.918 187.097 C 166.279 186.343,166.750 186.000,167.422 186.000 C 168.019 186.000,168.400 185.769,168.400 185.408 C 168.400 185.082,168.850 184.702,169.400 184.564 C 169.950 184.426,170.400 184.144,170.400 183.937 C 170.400 183.350,172.728 181.142,175.800 178.813 C 178.789 176.547,180.400 174.995,180.400 174.379 C 180.400 174.171,180.778 174.000,181.240 174.000 C 182.056 174.000,184.400 171.885,184.400 171.148 C 184.400 170.946,184.850 170.609,185.400 170.400 C 185.950 170.191,186.400 169.757,186.400 169.437 C 186.400 169.116,186.780 168.733,187.244 168.586 C 188.087 168.318,189.302 167.395,191.040 165.701 C 191.547 165.206,192.555 164.386,193.281 163.879 C 195.887 162.055,209.600 148.611,209.600 147.879 C 209.600 147.752,210.365 146.853,211.300 145.883 C 213.553 143.545,214.356 142.534,214.887 141.369 C 215.130 140.836,215.484 140.400,215.674 140.400 C 215.864 140.400,216.196 139.995,216.411 139.500 C 216.627 139.005,217.432 137.790,218.200 136.800 C 219.659 134.920,220.400 133.513,220.400 132.623 C 220.400 132.334,220.651 131.890,220.958 131.635 C 221.265 131.380,221.625 130.590,221.759 129.878 C 221.892 129.167,222.361 127.914,222.801 127.094 C 223.240 126.274,223.601 125.107,223.602 124.501 C 223.605 122.954,224.363 120.400,224.819 120.400 C 225.028 120.400,225.200 119.048,225.200 117.396 L 225.200 114.391 172.500 114.400 C 143.515 114.405,119.497 114.407,119.127 114.404 C 118.757 114.402,118.335 114.026,118.190 113.568 C 117.944 112.793,117.673 112.744,114.277 112.851 C 110.692 112.965,110.624 112.950,110.397 111.986 C 110.113 110.783,108.837 110.461,108.139 111.416 C 107.462 112.342,106.400 111.542,106.400 110.106 C 106.400 109.214,106.267 109.129,105.132 109.295 C 103.194 109.580,99.200 106.668,99.200 104.972 C 99.200 104.657,98.930 104.400,98.600 104.400 C 98.270 104.400,98.000 104.220,98.000 104.000 C 98.000 103.780,98.180 103.600,98.400 103.600 C 99.154 103.600,98.802 102.094,98.000 101.884 C 97.459 101.743,97.200 101.338,97.200 100.637 C 97.200 99.756,97.023 99.600,96.024 99.600 C 94.829 99.600,93.869 98.777,94.729 98.490 C 95.622 98.193,95.320 94.800,94.400 94.800 C 93.656 94.800,93.600 94.533,93.600 91.000 C 93.600 87.302,93.575 87.200,92.680 87.200 C 91.530 87.200,90.797 85.391,90.806 82.572 C 90.818 78.677,91.776 78.773,92.222 82.714 C 92.728 87.186,93.600 85.975,93.600 80.800 C 93.600 77.236,93.491 76.400,93.024 76.400 C 92.163 76.400,91.862 75.648,92.443 74.948 C 92.777 74.546,93.334 74.407,94.041 74.548 C 94.778 74.696,95.200 74.578,95.351 74.183 C 95.667 73.361,95.223 72.400,94.528 72.400 C 93.148 72.400,94.229 70.998,95.703 70.876 C 96.989 70.769,97.200 70.614,97.200 69.776 C 97.200 69.067,97.419 68.800,98.000 68.800 C 98.902 68.800,99.093 67.653,98.320 66.880 C 97.958 66.518,97.956 66.400,98.310 66.400 C 98.568 66.400,99.059 65.860,99.400 65.200 C 99.878 64.275,100.293 64.000,101.210 64.000 C 101.865 64.000,102.400 63.820,102.400 63.600 C 102.400 63.380,102.760 63.200,103.200 63.200 C 104.060 63.200,104.300 62.567,103.536 62.312 C 103.207 62.202,103.191 61.945,103.481 61.427 C 103.754 60.939,103.982 60.846,104.168 61.149 C 104.826 62.212,106.800 61.668,106.800 60.424 C 106.800 59.103,107.443 58.483,108.115 59.155 C 108.918 59.958,111.479 59.706,111.716 58.800 C 111.905 58.078,112.262 58.000,115.390 58.000 C 118.620 58.000,118.837 57.948,118.611 57.235 C 118.380 56.507,118.701 56.459,125.084 56.252 C 128.778 56.133,132.070 55.998,132.400 55.953 C 133.844 55.755,258.183 56.435,261.600 56.659 C 264.145 56.826,265.860 57.155,266.794 57.654 C 267.561 58.064,268.823 58.400,269.600 58.400 C 270.377 58.400,271.639 58.732,272.406 59.139 C 273.173 59.545,274.326 60.006,274.968 60.163 C 275.611 60.321,276.580 60.798,277.122 61.225 C 277.664 61.651,278.255 62.000,278.434 62.000 C 279.800 62.000,284.800 66.809,284.800 68.123 C 284.800 68.436,285.134 69.121,285.541 69.646 C 286.130 70.403,286.329 71.574,286.509 75.322 C 286.685 78.967,286.903 80.289,287.468 81.122 C 288.678 82.905,288.787 107.350,287.606 111.978 C 287.147 113.775,286.664 116.720,286.532 118.522 C 286.395 120.401,286.059 122.071,285.744 122.435 C 285.442 122.784,285.036 124.335,284.841 125.881 C 284.647 127.428,284.220 129.122,283.892 129.647 C 283.564 130.171,283.189 131.570,283.060 132.755 C 282.931 133.940,282.550 135.213,282.214 135.584 C 281.879 135.955,281.489 137.145,281.348 138.229 C 281.207 139.313,280.830 140.502,280.510 140.871 C 280.190 141.241,279.754 142.317,279.541 143.263 C 279.329 144.209,278.805 145.308,278.377 145.707 C 277.950 146.105,277.600 146.847,277.600 147.354 C 277.600 147.862,277.245 148.687,276.812 149.186 C 276.378 149.686,275.907 150.479,275.765 150.948 C 275.622 151.416,275.273 152.070,274.990 152.400 C 274.706 152.730,274.271 153.765,274.022 154.700 C 273.773 155.635,273.410 156.400,273.216 156.400 C 273.021 156.400,272.659 157.016,272.411 157.768 C 272.162 158.520,271.710 159.343,271.405 159.596 C 271.101 159.848,270.736 160.583,270.594 161.228 C 270.452 161.872,270.168 162.400,269.962 162.400 C 269.756 162.400,269.287 163.030,268.919 163.800 C 268.552 164.570,268.108 165.200,267.931 165.200 C 267.755 165.200,267.348 165.830,267.026 166.600 C 266.704 167.370,266.252 168.000,266.020 168.000 C 265.789 168.000,265.600 168.245,265.600 168.545 C 265.600 169.107,263.835 171.579,262.409 173.014 C 261.964 173.462,261.600 173.957,261.600 174.115 C 261.600 174.402,256.485 180.808,255.252 182.065 C 254.894 182.431,253.880 183.592,253.000 184.646 C 247.226 191.559,229.613 209.621,224.600 213.769 C 223.280 214.862,221.470 216.485,220.577 217.378 C 218.367 219.587,217.131 220.609,216.300 220.916 C 215.915 221.059,215.600 221.532,215.600 221.968 C 215.600 222.404,215.314 222.920,214.965 223.115 C 214.412 223.425,209.808 227.667,204.130 233.100 C 203.153 234.035,202.212 234.800,202.041 234.800 C 201.869 234.800,201.523 235.250,201.273 235.800 C 201.022 236.350,200.543 236.800,200.209 236.800 C 199.874 236.800,199.600 237.074,199.600 237.409 C 199.600 237.743,199.150 238.222,198.600 238.473 C 198.050 238.723,197.600 239.100,197.600 239.310 C 197.600 239.601,193.527 243.737,190.694 246.321 C 189.403 247.499,185.200 252.200,185.200 252.466 C 185.200 252.650,184.936 252.800,184.614 252.800 C 184.292 252.800,183.842 253.148,183.614 253.573 C 183.387 253.998,182.841 254.460,182.400 254.600 C 181.960 254.740,181.600 255.202,181.600 255.627 C 181.600 256.052,181.342 256.400,181.027 256.400 C 180.712 256.400,180.343 256.751,180.206 257.180 C 180.070 257.608,179.608 258.070,179.180 258.206 C 178.751 258.343,178.400 258.613,178.400 258.808 C 178.400 259.003,177.238 260.386,175.818 261.881 C 174.398 263.376,173.003 265.050,172.719 265.600 C 172.434 266.150,171.976 266.744,171.701 266.920 C 171.425 267.096,171.200 267.489,171.200 267.793 C 171.200 268.097,170.849 268.457,170.420 268.594 C 169.992 268.730,169.536 269.172,169.407 269.577 C 169.279 269.982,168.819 270.406,168.387 270.519 C 167.867 270.655,167.600 271.067,167.600 271.732 C 167.600 272.866,165.827 275.200,164.964 275.200 C 164.654 275.200,164.400 275.354,164.400 275.542 C 164.400 275.729,163.995 276.321,163.500 276.857 C 163.005 277.392,162.379 278.318,162.109 278.915 C 161.838 279.512,161.433 280.000,161.209 280.000 C 160.984 280.000,160.800 280.544,160.800 281.210 C 160.800 282.132,160.562 282.510,159.800 282.800 C 159.168 283.040,158.800 283.492,158.800 284.028 C 158.800 284.538,158.482 284.958,158.000 285.084 C 157.397 285.242,157.200 285.630,157.200 286.657 C 157.200 287.754,156.999 288.096,156.169 288.412 C 155.295 288.744,155.175 288.977,155.386 289.936 C 155.604 290.927,155.520 291.063,154.717 291.034 C 153.988 291.007,153.772 291.243,153.665 292.186 C 153.591 292.839,153.096 293.775,152.565 294.267 C 152.034 294.759,151.600 295.614,151.600 296.167 C 151.600 296.762,151.274 297.346,150.800 297.600 C 150.339 297.847,150.000 298.438,150.000 298.994 L 150.000 299.960 206.900 300.080 C 261.047 300.194,263.868 300.235,265.200 300.929 C 265.970 301.330,268.002 301.803,269.715 301.980 C 271.639 302.179,273.103 302.550,273.546 302.951 C 273.940 303.308,274.879 303.602,275.631 303.604 C 276.384 303.606,277.900 304.050,279.000 304.591 C 280.100 305.132,281.197 305.581,281.438 305.587 C 281.679 305.594,282.202 305.960,282.600 306.400 C 282.998 306.840,283.611 307.203,283.962 307.207 C 284.968 307.219,287.649 309.209,290.164 311.811 C 293.410 315.170,293.474 315.255,293.778 316.672 C 293.928 317.372,294.303 318.153,294.610 318.408 C 294.917 318.663,295.289 319.935,295.436 321.234 C 295.595 322.646,296.004 323.943,296.451 324.459 C 297.623 325.810,297.580 338.790,296.400 340.291 C 295.960 340.850,295.600 341.724,295.600 342.233 C 295.600 342.742,295.150 343.644,294.600 344.238 C 294.050 344.831,293.600 345.489,293.600 345.700 C 293.600 345.911,292.475 347.151,291.100 348.455 C 289.725 349.760,288.234 351.181,287.786 351.614 C 287.338 352.046,286.691 352.400,286.348 352.400 C 286.005 352.400,285.401 352.756,285.007 353.192 C 284.613 353.628,283.640 354.101,282.845 354.243 C 282.050 354.385,281.110 354.754,280.755 355.063 C 280.400 355.372,279.167 355.736,278.014 355.873 C 276.841 356.012,275.628 356.423,275.259 356.806 C 274.773 357.310,273.654 357.550,271.000 357.718 C 269.020 357.844,266.320 358.260,265.000 358.644 C 262.775 359.291,257.716 359.359,195.548 359.583 C 139.627 359.783,128.385 359.914,127.835 360.371 C 127.306 360.810,126.870 360.828,125.641 360.460 C 124.797 360.207,123.570 360.000,122.913 360.000 C 122.256 360.000,120.873 359.550,119.838 359.000 C 117.773 357.902,110.656 357.504,109.725 358.435 C 109.115 359.045,108.594 358.130,109.162 357.446 C 109.892 356.566,109.217 356.400,104.921 356.400 C 101.337 356.400,100.740 356.305,100.517 355.700 C 99.988 354.267,97.938 353.893,97.227 355.100 C 96.685 356.021,96.044 355.148,96.296 353.831 C 96.441 353.075,96.260 352.872,95.268 352.674 C 94.542 352.528,93.962 352.109,93.805 351.616 C 93.663 351.167,93.284 350.800,92.963 350.800 C 92.643 350.800,92.218 350.375,92.021 349.855 C 91.823 349.335,91.288 348.812,90.831 348.692 C 90.216 348.531,90.000 348.154,90.000 347.237 C 90.000 346.557,89.820 346.000,89.600 346.000 C 89.380 346.000,89.200 346.180,89.200 346.400 C 89.200 347.038,87.309 346.862,87.055 346.200 C 86.897 345.788,87.080 345.600,87.638 345.600 C 88.314 345.600,88.430 345.381,88.325 344.300 C 88.216 343.162,88.054 342.998,87.028 342.985 C 85.833 342.969,85.219 342.283,85.979 341.813 C 86.937 341.221,86.488 336.283,85.500 336.548 C 85.005 336.681,84.195 336.792,83.700 336.795 L 82.800 336.800 82.800 368.400 L 82.800 400.000 241.400 400.000 L 400.000 400.000 400.000 200.000 L 400.000 0.000 241.400 0.000 L 82.800 0.000 82.800 151.200 M82.884 309.470 C 82.990 312.695,83.069 313.000,83.800 313.000 C 85.128 313.000,85.015 306.259,83.684 306.070 C 82.781 305.942,82.770 305.992,82.884 309.470 M83.280 326.129 C 82.352 328.695,82.642 334.078,83.700 333.928 C 84.566 333.805,84.600 333.647,84.600 329.719 C 84.600 325.276,84.090 323.889,83.280 326.129 " stroke="none" fill="#c82333" fill-rule="evenodd"></path><path id="path2" d="M0.000 200.000 L 0.000 400.000 41.400 400.000 L 82.800 400.000 82.800 368.400 L 82.800 336.800 83.700 336.795 C 84.195 336.792,85.005 336.681,85.500 336.548 C 86.488 336.283,86.937 341.221,85.979 341.813 C 85.202 342.293,85.829 342.924,87.121 342.962 C 88.570 343.005,88.632 342.920,87.813 342.015 C 87.491 341.658,87.107 340.294,86.961 338.983 C 86.815 337.672,86.367 335.864,85.966 334.964 C 84.536 331.751,84.533 305.307,85.963 304.423 C 86.247 304.247,86.656 302.624,86.888 300.754 C 87.122 298.861,87.570 297.094,87.916 296.698 C 88.253 296.311,88.410 295.876,88.264 295.731 C 88.119 295.586,88.000 295.699,88.000 295.982 C 88.000 296.368,87.865 296.386,87.463 296.052 C 87.168 295.807,86.808 295.725,86.663 295.870 C 86.518 296.015,86.400 295.887,86.400 295.587 C 86.400 295.133,86.315 295.130,85.900 295.570 C 85.500 295.994,85.500 296.137,85.900 296.283 C 86.246 296.410,86.400 297.507,86.400 299.847 C 86.400 303.066,86.363 303.208,85.626 302.814 C 85.201 302.586,84.391 302.400,83.826 302.400 L 82.800 302.400 82.800 151.200 L 82.800 0.000 41.400 0.000 L 0.000 0.000 0.000 200.000 M131.200 56.000 C 130.411 56.253,130.622 56.323,132.200 56.332 C 133.662 56.341,133.985 56.251,133.400 56.000 C 132.451 55.592,132.473 55.592,131.200 56.000 M150.900 56.300 C 159.645 56.360,173.955 56.360,182.700 56.300 C 191.445 56.240,184.290 56.191,166.800 56.191 C 149.310 56.191,142.155 56.240,150.900 56.300 M118.557 57.033 C 118.691 57.381,118.800 57.763,118.800 57.882 C 118.800 58.001,119.097 57.851,119.459 57.549 C 119.880 57.198,121.651 56.918,124.359 56.773 L 128.600 56.547 123.457 56.473 C 118.914 56.409,118.343 56.474,118.557 57.033 M259.105 56.683 C 259.602 56.779,260.322 56.775,260.705 56.675 C 261.087 56.575,260.680 56.496,259.800 56.501 C 258.920 56.505,258.607 56.587,259.105 56.683 M111.716 58.800 C 111.479 59.706,108.918 59.958,108.115 59.155 C 107.443 58.483,106.800 59.103,106.800 60.424 C 106.800 61.753,106.997 61.860,107.857 61.000 C 108.187 60.670,108.856 60.400,109.344 60.400 C 109.832 60.400,110.944 60.030,111.815 59.577 C 112.687 59.124,114.480 58.607,115.800 58.428 L 118.200 58.101 115.063 58.051 C 112.239 58.005,111.904 58.080,111.716 58.800 M103.454 61.403 C 103.316 61.764,103.472 62.329,103.801 62.658 C 104.131 62.988,104.400 63.079,104.400 62.862 C 104.400 62.645,104.895 62.286,105.500 62.065 L 106.600 61.663 105.580 61.632 C 105.019 61.614,104.368 61.408,104.133 61.173 C 103.831 60.871,103.633 60.938,103.454 61.403 M102.400 63.600 C 102.400 63.820,101.865 64.000,101.210 64.000 C 100.293 64.000,99.878 64.275,99.400 65.200 C 99.059 65.860,98.568 66.400,98.310 66.400 C 97.956 66.400,97.958 66.518,98.320 66.880 C 99.093 67.653,98.902 68.800,98.000 68.800 C 97.419 68.800,97.200 69.067,97.200 69.776 C 97.200 70.614,96.989 70.769,95.703 70.876 C 94.303 70.992,93.123 72.400,94.427 72.400 C 94.693 72.400,95.151 72.715,95.443 73.100 C 95.749 73.503,95.980 73.594,95.987 73.314 C 95.994 73.047,96.546 72.057,97.213 71.114 C 97.880 70.171,98.735 68.950,99.113 68.400 C 99.491 67.850,100.340 66.844,101.000 66.166 C 103.559 63.533,103.791 63.200,103.062 63.200 C 102.698 63.200,102.400 63.380,102.400 63.600 M95.200 74.390 C 95.200 74.605,94.695 74.679,94.078 74.556 C 93.332 74.406,92.783 74.538,92.443 74.948 C 91.862 75.648,92.163 76.400,93.024 76.400 C 93.438 76.400,93.614 76.935,93.650 78.300 L 93.700 80.200 94.004 78.117 C 94.171 76.972,94.599 75.744,94.954 75.389 C 95.573 74.770,95.820 74.000,95.400 74.000 C 95.290 74.000,95.200 74.175,95.200 74.390 M91.042 80.235 C 90.637 81.290,90.771 84.464,91.280 85.872 C 91.895 87.573,93.600 87.814,93.600 86.200 C 93.600 85.615,93.370 85.200,93.047 85.200 C 92.661 85.200,92.409 84.414,92.215 82.604 C 91.935 79.983,91.486 79.078,91.042 80.235 M93.657 91.300 C 93.604 94.552,93.657 94.800,94.400 94.800 C 95.320 94.800,95.622 98.193,94.729 98.490 C 93.869 98.777,94.829 99.600,96.024 99.600 C 97.023 99.600,97.200 99.756,97.200 100.637 C 97.200 101.338,97.459 101.743,98.000 101.884 C 98.802 102.094,99.154 103.600,98.400 103.600 C 98.180 103.600,98.000 103.780,98.000 104.000 C 98.000 104.220,98.270 104.400,98.600 104.400 C 98.930 104.400,99.200 104.657,99.200 104.972 C 99.200 106.668,103.194 109.580,105.132 109.295 C 106.267 109.129,106.400 109.214,106.400 110.106 C 106.400 111.481,107.450 112.339,108.113 111.505 C 108.381 111.168,108.870 110.796,109.200 110.678 C 109.554 110.551,109.386 110.450,108.789 110.432 C 108.233 110.414,107.470 110.040,107.093 109.600 C 106.716 109.160,106.152 108.800,105.840 108.800 C 105.118 108.800,99.200 103.023,99.200 102.319 C 99.200 102.029,98.856 101.578,98.436 101.315 C 98.016 101.053,97.555 100.305,97.412 99.652 C 97.268 99.000,96.902 98.371,96.598 98.254 C 96.293 98.138,95.924 97.358,95.777 96.521 C 95.630 95.684,95.226 94.550,94.880 94.000 C 94.533 93.450,94.129 91.830,93.981 90.400 L 93.714 87.800 93.657 91.300 M110.359 111.883 L 110.649 112.966 114.287 112.851 C 117.673 112.744,117.944 112.794,118.190 113.568 C 118.335 114.026,118.757 114.402,119.127 114.404 C 119.497 114.407,143.501 114.405,172.470 114.400 C 222.413 114.392,225.150 114.428,225.347 115.096 C 225.510 115.650,225.537 115.630,225.472 115.000 C 225.390 114.206,225.021 114.199,173.356 114.000 C 129.998 113.833,121.212 113.708,120.660 113.250 C 120.247 112.907,118.600 112.629,116.298 112.513 C 113.524 112.373,112.329 112.136,111.516 111.563 C 110.105 110.570,110.014 110.595,110.359 111.883 M207.301 150.240 C 206.806 150.804,206.611 151.196,206.867 151.111 C 207.298 150.967,208.680 149.191,208.349 149.207 C 208.267 149.211,207.795 149.676,207.301 150.240 M198.400 159.260 C 197.630 159.935,197.362 160.305,197.804 160.081 C 198.535 159.711,200.347 157.978,199.962 158.016 C 199.873 158.025,199.170 158.585,198.400 159.260 M180.400 174.567 C 180.400 174.878,180.175 175.224,179.900 175.335 C 179.523 175.487,179.520 175.545,179.886 175.568 C 180.153 175.586,180.565 175.240,180.800 174.800 C 181.090 174.258,181.095 174.000,180.814 174.000 C 180.586 174.000,180.400 174.255,180.400 174.567 M173.078 180.954 C 172.265 181.699,171.600 182.434,171.600 182.588 C 171.600 182.742,172.320 182.185,173.200 181.351 C 174.080 180.517,174.800 179.782,174.800 179.718 C 174.800 179.441,174.474 179.675,173.078 180.954 M166.126 186.700 C 165.989 187.085,165.785 187.580,165.674 187.800 C 165.562 188.020,165.995 187.750,166.635 187.200 C 167.276 186.650,167.875 186.155,167.967 186.100 C 168.058 186.045,167.738 186.000,167.254 186.000 C 166.771 186.000,166.263 186.315,166.126 186.700 M162.722 189.529 C 162.130 189.898,160.870 191.078,159.922 192.150 C 158.975 193.223,157.255 195.052,156.100 196.216 C 152.528 199.813,153.789 199.091,157.700 195.300 C 159.735 193.327,162.120 191.062,163.000 190.267 C 164.681 188.749,164.547 188.394,162.722 189.529 M152.526 199.563 C 152.416 199.983,152.010 200.409,151.624 200.510 C 151.237 200.611,150.822 201.073,150.700 201.538 C 150.504 202.289,150.596 202.262,151.540 201.291 C 153.317 199.461,153.761 198.800,153.212 198.800 C 152.944 198.800,152.635 199.143,152.526 199.563 M148.100 204.012 C 147.605 204.211,147.214 204.605,147.232 204.887 C 147.256 205.289,147.307 205.291,147.465 204.900 C 147.576 204.625,147.911 204.400,148.210 204.400 C 148.508 204.400,148.864 204.220,149.000 204.000 C 149.287 203.536,149.285 203.536,148.100 204.012 M145.611 206.187 C 144.781 207.187,145.350 207.451,146.286 206.500 C 146.856 205.921,146.980 205.600,146.635 205.600 C 146.339 205.600,145.879 205.864,145.611 206.187 M143.600 208.249 C 143.600 208.780,143.709 208.808,144.200 208.400 C 144.530 208.126,144.800 207.834,144.800 207.751 C 144.800 207.668,144.530 207.600,144.200 207.600 C 143.870 207.600,143.600 207.892,143.600 208.249 M141.992 209.810 C 141.224 210.735,141.679 210.829,142.744 209.966 C 143.388 209.444,143.499 209.200,143.093 209.200 C 142.766 209.200,142.270 209.474,141.992 209.810 M138.114 213.500 C 137.970 213.885,137.526 214.435,137.126 214.723 C 136.727 215.010,136.400 215.505,136.400 215.823 C 136.400 216.140,136.126 216.400,135.790 216.400 C 135.455 216.400,135.009 216.850,134.800 217.400 C 134.591 217.950,134.145 218.400,133.810 218.400 C 133.474 218.400,133.200 218.586,133.200 218.813 C 133.200 219.336,130.558 222.000,130.040 222.000 C 129.828 222.000,129.540 222.360,129.400 222.800 C 129.260 223.240,128.818 223.600,128.416 223.600 C 127.972 223.600,127.589 223.991,127.436 224.600 C 127.298 225.150,126.938 225.600,126.636 225.600 C 126.334 225.600,125.974 226.050,125.836 226.600 C 125.652 227.331,125.317 227.600,124.592 227.600 C 123.599 227.600,123.454 227.864,123.577 229.448 C 123.620 230.000,123.357 230.370,122.822 230.510 C 122.342 230.636,122.000 231.055,122.000 231.516 C 122.000 231.970,121.660 232.396,121.200 232.516 C 120.760 232.631,120.400 233.053,120.400 233.453 C 120.400 234.286,124.373 230.151,124.390 229.300 C 124.396 229.025,124.670 228.800,125.000 228.800 C 125.330 228.800,125.600 228.581,125.600 228.314 C 125.600 228.047,125.952 227.462,126.383 227.014 C 126.813 226.566,128.118 225.150,129.283 223.866 C 130.447 222.583,132.930 219.955,134.800 218.027 C 139.817 212.853,139.861 212.800,139.049 212.800 C 138.678 212.800,138.257 213.115,138.114 213.500 M118.727 235.400 C 118.477 235.950,118.019 236.400,117.709 236.400 C 116.354 236.400,115.584 237.184,116.104 238.034 C 116.521 238.715,116.489 238.908,115.900 239.242 C 115.515 239.461,115.200 239.892,115.200 240.201 C 115.200 240.585,115.516 240.469,116.200 239.835 C 116.750 239.325,117.200 238.704,117.200 238.454 C 117.200 238.204,117.515 237.659,117.900 237.242 C 119.872 235.107,120.335 234.400,119.761 234.400 C 119.443 234.400,118.978 234.850,118.727 235.400 M194.174 242.530 C 193.060 243.668,191.992 244.870,191.799 245.200 C 191.607 245.530,192.564 244.686,193.925 243.325 C 195.286 241.963,196.400 240.748,196.400 240.625 C 196.400 240.270,196.313 240.344,194.174 242.530 M114.300 241.476 C 113.915 241.576,113.491 242.095,113.357 242.629 C 113.195 243.276,112.827 243.602,112.257 243.606 C 110.899 243.616,110.101 244.261,110.703 244.863 C 111.434 245.594,111.309 246.278,110.400 246.516 C 109.928 246.639,109.600 247.062,109.600 247.544 C 109.600 248.322,109.651 248.313,110.600 247.364 C 111.150 246.814,111.600 246.153,111.600 245.896 C 111.600 245.639,111.959 245.062,112.398 244.614 C 113.290 243.704,115.346 241.174,115.136 241.246 C 115.061 241.272,114.685 241.375,114.300 241.476 M187.081 249.662 C 185.601 251.236,184.507 252.631,184.650 252.762 C 184.793 252.893,184.992 252.768,185.093 252.484 C 185.195 252.200,186.118 251.120,187.145 250.084 C 189.094 248.119,190.214 246.800,189.934 246.800 C 189.845 246.800,188.560 248.088,187.081 249.662 M107.703 250.051 C 107.346 250.997,107.043 251.252,106.460 251.100 C 105.777 250.921,105.712 251.068,105.889 252.391 C 106.060 253.662,105.964 253.916,105.245 254.104 C 104.738 254.237,104.400 254.647,104.400 255.130 C 104.400 256.463,103.957 257.200,103.157 257.200 C 102.589 257.200,102.400 257.488,102.400 258.357 C 102.400 259.239,102.176 259.570,101.454 259.751 C 100.657 259.951,100.515 260.226,100.554 261.493 C 100.597 262.911,100.522 263.008,99.232 263.198 C 97.853 263.402,96.978 264.400,98.179 264.400 C 98.534 264.400,98.933 264.680,99.064 265.023 C 99.327 265.707,99.748 265.146,101.034 262.400 C 101.395 261.630,101.829 260.910,102.000 260.800 C 102.171 260.690,102.591 259.925,102.935 259.100 C 103.278 258.275,103.734 257.600,103.948 257.600 C 104.162 257.600,104.451 257.079,104.591 256.441 C 104.731 255.804,105.195 254.966,105.623 254.579 C 106.050 254.193,106.400 253.662,106.400 253.400 C 106.400 253.138,106.760 252.598,107.200 252.200 C 107.640 251.802,108.000 251.234,108.000 250.938 C 108.000 250.642,108.360 250.040,108.800 249.600 C 109.534 248.866,109.542 248.800,108.888 248.800 C 108.457 248.800,107.989 249.295,107.703 250.051 M98.800 266.383 C 98.800 266.736,98.444 266.829,97.681 266.676 C 97.066 266.553,96.320 266.602,96.023 266.786 C 95.346 267.204,95.765 268.400,96.587 268.400 C 96.944 268.400,97.217 268.776,97.240 269.300 C 97.277 270.139,97.297 270.146,97.540 269.400 C 97.683 268.960,98.139 268.099,98.554 267.488 C 98.969 266.876,99.194 266.261,99.054 266.121 C 98.914 265.981,98.800 266.099,98.800 266.383 M170.100 268.293 C 169.605 268.625,169.200 269.068,169.200 269.277 C 169.200 269.486,169.467 269.390,169.793 269.064 C 170.119 268.738,170.614 268.390,170.893 268.290 C 171.172 268.191,171.310 268.015,171.200 267.898 C 171.090 267.782,170.595 267.960,170.100 268.293 M94.553 270.876 C 94.391 271.138,94.470 271.423,94.729 271.510 C 95.582 271.794,95.307 274.712,94.400 275.000 C 93.741 275.209,93.607 275.585,93.641 277.127 C 93.680 278.912,93.696 278.938,93.994 277.684 C 94.165 276.960,94.574 276.060,94.902 275.684 C 95.230 275.308,95.621 274.316,95.771 273.479 C 95.921 272.642,96.304 271.858,96.622 271.736 C 96.940 271.614,97.200 271.264,97.200 270.957 C 97.200 270.264,94.973 270.196,94.553 270.876 M166.800 272.340 C 165.723 273.549,164.773 275.200,165.155 275.200 C 165.696 275.200,167.600 272.840,167.600 272.169 C 167.600 271.479,167.559 271.488,166.800 272.340 M90.733 279.481 C 90.390 279.894,90.429 280.143,90.893 280.513 C 92.427 281.736,92.127 284.619,90.508 284.213 C 88.773 283.777,87.528 285.669,89.200 286.200 C 90.196 286.516,90.399 289.600,89.424 289.600 C 89.107 289.600,88.736 289.420,88.600 289.200 C 88.175 288.512,87.601 288.759,87.107 289.844 C 86.702 290.734,86.739 290.966,87.362 291.422 C 87.763 291.715,88.233 292.550,88.405 293.278 L 88.718 294.600 88.759 293.189 C 88.782 292.413,89.105 291.343,89.478 290.811 C 89.850 290.279,90.284 288.892,90.442 287.730 C 90.600 286.568,91.105 285.139,91.564 284.554 C 92.024 283.970,92.400 282.908,92.400 282.195 C 92.400 281.482,92.670 280.674,93.000 280.400 C 93.897 279.656,93.734 279.310,92.392 279.114 C 91.667 279.007,91.004 279.154,90.733 279.481 M160.446 280.774 C 160.421 281.090,160.019 281.754,159.554 282.249 L 158.708 283.149 159.588 282.919 C 160.585 282.658,160.955 281.982,160.680 280.923 C 160.566 280.482,160.475 280.424,160.446 280.774 M158.081 284.418 C 157.772 284.913,157.746 285.200,158.009 285.200 C 158.238 285.200,158.532 284.922,158.662 284.583 C 159.022 283.645,158.633 283.534,158.081 284.418 M156.101 287.624 C 155.217 288.705,155.216 288.721,156.035 288.507 C 156.875 288.287,157.392 287.523,157.138 286.875 C 157.062 286.681,156.595 287.018,156.101 287.624 M154.667 290.169 C 154.548 290.480,154.709 290.833,155.025 290.954 C 155.357 291.082,155.600 290.937,155.600 290.611 C 155.600 289.813,154.926 289.494,154.667 290.169 M254.900 300.287 C 255.505 300.378,256.495 300.378,257.100 300.287 C 257.705 300.195,257.210 300.120,256.000 300.120 C 254.790 300.120,254.295 300.195,254.900 300.287 M84.600 309.600 C 84.600 312.733,84.537 313.000,83.800 313.000 C 83.069 313.000,82.990 312.695,82.884 309.470 C 82.770 305.992,82.781 305.942,83.684 306.070 C 84.557 306.194,84.600 306.361,84.600 309.600 M84.600 329.719 C 84.600 333.647,84.566 333.805,83.700 333.928 C 82.642 334.078,82.352 328.695,83.280 326.129 C 84.090 323.889,84.600 325.276,84.600 329.719 M88.432 344.500 C 88.408 345.317,88.197 345.600,87.613 345.600 C 87.077 345.600,86.899 345.792,87.055 346.200 C 87.182 346.530,87.639 346.800,88.071 346.800 C 88.504 346.800,89.127 346.530,89.457 346.200 C 89.787 345.870,89.879 345.600,89.662 345.600 C 89.445 345.600,89.086 345.105,88.865 344.500 L 88.463 343.400 88.432 344.500 M90.032 347.310 C 90.008 348.141,90.251 348.515,91.000 348.800 C 91.550 349.009,92.000 349.472,92.000 349.828 C 92.000 350.184,92.354 350.567,92.787 350.681 C 93.219 350.794,93.684 351.234,93.819 351.660 C 93.961 352.108,94.570 352.534,95.268 352.674 C 96.260 352.872,96.441 353.075,96.296 353.831 C 96.044 355.148,96.685 356.021,97.227 355.100 C 97.938 353.893,99.988 354.267,100.517 355.700 C 100.741 356.307,101.295 356.393,104.687 356.344 L 108.600 356.288 105.483 355.991 C 103.661 355.817,102.083 355.444,101.683 355.091 C 101.307 354.760,100.430 354.368,99.733 354.220 C 99.036 354.072,98.063 353.602,97.572 353.175 C 97.080 352.749,96.480 352.399,96.239 352.398 C 95.678 352.395,90.570 347.596,90.281 346.800 C 90.160 346.466,90.049 346.692,90.032 347.310 M109.366 356.700 C 109.491 356.824,109.399 357.160,109.162 357.446 C 108.594 358.130,109.115 359.045,109.725 358.435 C 110.656 357.504,117.773 357.902,119.838 359.000 C 120.873 359.550,122.256 360.000,122.913 360.000 C 123.570 360.000,124.809 360.210,125.666 360.467 C 126.855 360.823,127.337 360.823,127.693 360.467 C 128.020 360.140,131.053 359.981,137.780 359.938 L 147.400 359.876 137.229 359.547 C 130.042 359.314,126.522 359.041,125.229 358.617 C 124.192 358.277,120.975 357.904,117.800 357.757 C 114.720 357.613,111.511 357.266,110.670 356.984 C 109.828 356.703,109.241 356.575,109.366 356.700 " stroke="none" fill="#dc2434" fill-rule="evenodd"></path><path id="path3" d="M195.200 56.783 L 261.800 57.000 265.600 57.930 C 267.690 58.442,269.940 59.047,270.600 59.276 C 271.260 59.505,272.610 59.971,273.600 60.311 C 274.590 60.651,275.878 61.261,276.462 61.665 C 277.046 62.069,277.660 62.400,277.827 62.400 C 280.688 62.400,285.741 69.435,285.638 73.275 C 285.577 75.538,286.550 81.355,287.267 83.008 C 288.102 84.935,287.983 107.378,287.118 110.800 C 286.757 112.230,286.247 115.109,285.984 117.197 C 285.721 119.285,285.320 121.445,285.092 121.997 C 284.865 122.549,284.541 123.900,284.373 125.000 C 284.087 126.876,282.855 131.498,281.921 134.200 C 281.693 134.860,281.237 136.390,280.906 137.600 C 280.576 138.810,280.057 140.155,279.753 140.589 C 279.449 141.023,279.199 141.743,279.198 142.189 C 279.197 142.635,278.752 143.720,278.210 144.600 C 277.668 145.480,277.219 146.491,277.212 146.846 C 277.206 147.201,276.865 147.921,276.455 148.446 C 276.045 148.971,275.572 149.842,275.402 150.381 C 275.233 150.921,274.848 151.609,274.548 151.909 C 274.247 152.210,273.881 152.938,273.734 153.528 C 273.587 154.118,272.496 156.310,271.309 158.400 C 268.512 163.325,268.463 163.404,266.700 165.869 C 265.875 167.022,265.198 168.109,265.196 168.283 C 265.193 168.609,260.386 174.999,258.984 176.542 C 258.755 176.794,258.298 177.390,257.970 177.866 C 257.001 179.271,252.010 184.950,245.235 192.356 C 241.029 196.954,228.053 209.917,225.640 211.931 C 224.672 212.739,222.512 214.664,220.840 216.210 C 219.168 217.755,217.465 219.285,217.055 219.610 C 216.645 219.934,215.745 220.821,215.055 221.579 C 213.333 223.471,211.632 225.133,203.366 233.000 C 195.276 240.699,184.706 251.246,179.478 256.835 C 175.447 261.144,175.619 260.950,171.385 265.994 C 169.633 268.080,167.930 270.094,167.600 270.468 C 167.270 270.843,166.694 271.566,166.321 272.075 C 165.948 272.584,164.778 274.088,163.721 275.417 C 162.664 276.747,161.620 278.123,161.400 278.474 C 161.180 278.826,160.008 280.618,158.796 282.457 C 157.584 284.296,156.414 286.088,156.196 286.440 C 155.978 286.792,155.332 287.782,154.761 288.640 C 153.198 290.986,149.200 298.710,149.200 299.383 C 149.200 300.013,150.408 300.820,151.274 300.768 C 151.563 300.751,151.305 300.556,150.700 300.335 C 149.411 299.864,149.321 299.267,150.342 297.954 C 150.750 297.429,151.299 296.341,151.561 295.535 C 151.824 294.730,152.300 293.970,152.619 293.848 C 152.939 293.725,153.200 293.294,153.200 292.890 C 153.200 292.486,153.650 291.545,154.200 290.800 C 154.750 290.055,155.200 289.237,155.200 288.984 C 155.200 288.731,155.555 288.202,155.990 287.809 C 156.424 287.416,156.892 286.741,157.029 286.310 C 157.166 285.878,157.845 284.716,158.539 283.727 C 159.232 282.738,160.017 281.540,160.282 281.065 C 160.547 280.589,161.047 279.840,161.394 279.400 C 162.375 278.155,165.938 273.505,166.708 272.465 C 167.089 271.951,167.805 271.120,168.300 270.619 C 168.795 270.118,169.200 269.580,169.200 269.423 C 169.200 269.266,169.875 268.476,170.700 267.669 C 171.525 266.861,172.675 265.563,173.256 264.784 C 173.837 264.006,174.779 262.926,175.349 262.384 C 175.920 261.843,176.389 261.252,176.393 261.072 C 176.402 260.656,177.717 259.279,189.077 247.786 C 194.179 242.624,198.532 238.400,198.750 238.400 C 198.968 238.400,199.257 238.049,199.394 237.620 C 199.530 237.192,199.983 236.733,200.400 236.600 C 200.817 236.467,201.270 236.008,201.406 235.580 C 201.543 235.151,201.808 234.800,201.996 234.800 C 202.183 234.800,203.542 233.630,205.015 232.200 C 206.488 230.770,207.852 229.600,208.046 229.600 C 208.241 229.600,208.400 229.336,208.400 229.014 C 208.400 228.692,208.805 228.212,209.300 227.947 C 210.645 227.229,215.600 222.073,215.600 221.392 C 215.600 221.066,215.886 220.800,216.236 220.800 C 216.816 220.800,218.477 219.447,221.170 216.779 C 221.736 216.218,223.280 214.844,224.600 213.726 C 229.298 209.746,247.495 191.224,252.049 185.786 C 252.792 184.899,253.670 183.851,254.000 183.459 C 254.330 183.066,255.005 182.365,255.500 181.900 C 255.995 181.436,256.400 180.827,256.400 180.548 C 256.400 180.268,256.645 179.896,256.945 179.720 C 257.722 179.263,261.600 174.516,261.600 174.021 C 261.600 173.793,261.960 173.382,262.400 173.107 C 262.840 172.832,263.200 172.408,263.200 172.163 C 263.200 171.919,263.740 171.154,264.400 170.463 C 265.060 169.772,265.600 168.936,265.600 168.604 C 265.600 168.272,265.789 168.000,266.019 168.000 C 266.250 168.000,266.655 167.497,266.919 166.882 C 267.184 166.267,267.628 165.502,267.906 165.182 C 268.703 164.264,270.400 161.596,270.400 161.260 C 270.400 161.092,270.850 160.345,271.400 159.600 C 271.950 158.855,272.400 157.947,272.400 157.584 C 272.400 157.221,272.742 156.614,273.160 156.236 C 273.579 155.857,274.033 154.948,274.171 154.214 C 274.309 153.481,274.675 152.670,274.985 152.413 C 275.295 152.155,275.660 151.436,275.797 150.814 C 275.934 150.192,276.395 149.366,276.823 148.979 C 277.250 148.593,277.600 147.861,277.600 147.354 C 277.600 146.846,277.967 146.089,278.416 145.671 C 278.865 145.253,279.339 144.211,279.469 143.355 C 279.599 142.500,280.020 141.440,280.403 141.000 C 280.787 140.560,281.192 139.338,281.303 138.284 C 281.414 137.230,281.802 136.040,282.165 135.639 C 282.528 135.238,282.931 133.940,283.060 132.755 C 283.189 131.570,283.564 130.171,283.892 129.647 C 284.220 129.122,284.647 127.428,284.841 125.881 C 285.036 124.335,285.443 122.784,285.746 122.435 C 286.066 122.066,286.386 120.460,286.509 118.600 C 286.626 116.840,287.108 113.895,287.580 112.056 C 288.801 107.303,288.696 82.932,287.447 81.089 C 286.853 80.213,286.651 78.986,286.491 75.289 C 286.328 71.538,286.139 70.409,285.544 69.646 C 285.135 69.121,284.800 68.436,284.800 68.123 C 284.800 66.689,280.390 62.559,278.074 61.823 C 277.633 61.683,277.054 61.306,276.787 60.985 C 276.520 60.663,275.956 60.400,275.533 60.400 C 275.110 60.400,273.918 59.950,272.885 59.400 C 271.852 58.850,270.372 58.400,269.597 58.400 C 268.822 58.400,267.471 57.995,266.594 57.500 L 265.000 56.600 196.800 56.583 L 128.600 56.567 195.200 56.783 M119.663 57.441 C 119.160 57.793,117.545 58.236,116.074 58.424 C 114.603 58.613,112.687 59.134,111.815 59.583 C 110.944 60.033,109.832 60.400,109.344 60.400 C 108.856 60.400,108.219 60.637,107.929 60.927 C 107.638 61.217,106.787 61.667,106.037 61.928 C 104.738 62.380,100.575 66.271,99.113 68.400 C 98.735 68.950,97.903 70.138,97.264 71.039 C 96.625 71.941,95.889 73.324,95.629 74.113 C 95.368 74.903,94.976 75.608,94.758 75.681 C 93.358 76.147,93.356 90.889,94.755 93.600 C 95.153 94.370,95.605 95.684,95.761 96.521 C 95.917 97.358,96.293 98.138,96.598 98.254 C 96.902 98.371,97.268 99.000,97.412 99.652 C 97.555 100.305,98.016 101.053,98.436 101.315 C 98.856 101.578,99.200 102.029,99.200 102.319 C 99.200 103.012,105.113 108.800,105.820 108.800 C 106.122 108.800,106.691 109.134,107.084 109.542 C 107.478 109.951,108.387 110.397,109.104 110.533 C 109.821 110.670,110.901 111.129,111.504 111.554 C 112.331 112.138,113.506 112.372,116.298 112.513 C 118.600 112.629,120.247 112.907,120.660 113.250 C 121.212 113.708,129.999 113.833,173.361 114.000 L 225.400 114.200 225.255 117.200 C 225.175 118.850,224.937 120.309,224.726 120.441 C 224.256 120.737,223.623 123.352,223.610 125.051 C 223.604 125.739,223.346 126.513,223.035 126.771 C 222.724 127.029,222.249 128.176,221.978 129.320 C 221.708 130.464,221.242 131.544,220.943 131.720 C 220.644 131.896,220.400 132.549,220.400 133.171 C 220.400 133.793,220.125 134.530,219.789 134.809 C 219.059 135.415,216.800 138.705,216.800 139.162 C 216.800 139.338,216.395 139.927,215.900 140.470 C 215.405 141.012,214.550 142.059,214.000 142.795 C 212.504 144.797,211.501 146.001,210.500 146.997 C 210.005 147.489,209.598 148.051,209.595 148.246 C 209.588 148.719,194.962 163.200,194.491 163.200 C 194.288 163.200,193.690 163.568,193.161 164.017 C 188.221 168.218,184.449 171.583,182.980 173.100 C 182.500 173.595,181.910 174.000,181.668 174.000 C 181.426 174.000,181.035 174.360,180.800 174.800 C 180.565 175.240,180.206 175.600,180.004 175.600 C 179.802 175.600,179.217 176.005,178.704 176.500 C 178.191 176.995,176.707 178.300,175.406 179.400 C 174.105 180.500,172.271 182.165,171.331 183.100 C 170.390 184.035,169.524 184.800,169.405 184.800 C 169.287 184.800,168.517 185.409,167.695 186.154 C 166.873 186.899,164.400 189.123,162.200 191.098 C 160.000 193.073,155.986 196.873,153.281 199.544 C 150.575 202.215,148.190 204.400,147.981 204.400 C 147.771 204.400,147.600 204.565,147.600 204.768 C 147.600 205.209,141.155 211.600,140.711 211.600 C 140.540 211.600,140.400 211.753,140.400 211.939 C 140.400 212.126,138.375 214.361,135.900 216.906 C 133.424 219.451,130.447 222.583,129.283 223.867 C 128.118 225.150,126.813 226.566,126.383 227.014 C 125.952 227.462,125.600 228.047,125.600 228.314 C 125.600 228.581,125.330 228.800,125.000 228.800 C 124.670 228.800,124.396 229.025,124.391 229.300 C 124.386 229.575,123.621 230.636,122.691 231.657 C 121.761 232.678,120.460 234.188,119.800 235.013 C 119.140 235.838,118.285 236.847,117.900 237.256 C 117.515 237.665,117.200 238.204,117.200 238.454 C 117.200 238.704,116.795 239.311,116.300 239.804 C 115.805 240.297,114.950 241.370,114.400 242.189 C 113.850 243.007,112.995 244.052,112.500 244.511 C 112.005 244.969,111.600 245.574,111.600 245.854 C 111.600 246.134,111.195 246.799,110.700 247.330 C 108.904 249.259,108.000 250.478,108.000 250.972 C 108.000 251.249,107.640 251.802,107.200 252.200 C 106.760 252.598,106.400 253.138,106.400 253.400 C 106.400 253.662,106.050 254.193,105.623 254.579 C 105.195 254.966,104.731 255.804,104.591 256.441 C 104.451 257.079,104.162 257.600,103.948 257.600 C 103.734 257.600,103.285 258.256,102.950 259.058 C 102.615 259.860,102.084 260.773,101.770 261.087 C 101.457 261.401,101.200 261.890,101.200 262.175 C 101.200 262.459,100.866 263.121,100.458 263.646 C 100.050 264.171,99.501 265.261,99.238 266.068 C 98.974 266.875,98.512 267.741,98.211 267.991 C 97.909 268.241,97.545 269.142,97.401 269.992 C 97.258 270.842,96.894 271.632,96.592 271.748 C 96.291 271.863,95.916 272.642,95.759 273.479 C 95.603 274.316,95.160 275.450,94.775 276.000 C 94.390 276.550,93.963 277.657,93.827 278.460 C 93.690 279.263,93.314 280.140,92.989 280.409 C 92.665 280.678,92.400 281.482,92.400 282.195 C 92.400 282.908,92.024 283.970,91.564 284.554 C 91.105 285.139,90.600 286.558,90.442 287.708 C 90.285 288.859,89.872 290.250,89.524 290.800 C 89.176 291.350,88.769 292.789,88.619 293.998 C 88.469 295.207,88.112 296.467,87.825 296.798 C 87.538 297.129,87.116 298.909,86.888 300.754 C 86.656 302.624,86.247 304.247,85.963 304.423 C 84.533 305.307,84.536 331.751,85.966 334.964 C 86.367 335.864,86.815 337.672,86.961 338.983 C 87.107 340.294,87.468 341.644,87.763 341.983 C 88.058 342.322,88.516 343.275,88.780 344.100 C 89.045 344.925,89.416 345.600,89.604 345.600 C 89.792 345.600,90.068 346.005,90.217 346.500 C 90.513 347.482,95.528 352.394,96.239 352.398 C 96.480 352.399,97.080 352.749,97.572 353.175 C 98.063 353.602,99.036 354.072,99.733 354.220 C 100.430 354.368,101.300 354.753,101.666 355.076 C 102.047 355.412,103.754 355.807,105.666 356.003 C 107.500 356.190,109.720 356.603,110.600 356.920 C 111.518 357.251,114.630 357.612,117.900 357.766 C 121.797 357.950,124.137 358.251,125.300 358.717 C 127.999 359.799,260.879 359.765,264.800 358.681 C 266.230 358.286,268.840 357.858,270.600 357.730 C 272.538 357.589,274.273 357.223,275.000 356.801 C 275.660 356.417,277.087 355.989,278.171 355.850 C 279.255 355.710,280.425 355.350,280.771 355.049 C 281.117 354.748,282.050 354.385,282.845 354.243 C 283.640 354.101,284.613 353.628,285.007 353.192 C 285.401 352.756,286.005 352.400,286.348 352.400 C 286.691 352.400,287.338 352.045,287.786 351.611 C 288.234 351.177,289.725 349.744,291.100 348.426 C 292.475 347.108,293.600 345.850,293.600 345.630 C 293.600 345.411,293.943 344.909,294.361 344.516 C 294.780 344.122,295.321 343.056,295.564 342.147 C 295.807 341.237,296.274 340.270,296.603 339.998 C 297.601 339.169,297.469 325.633,296.451 324.459 C 296.004 323.943,295.595 322.646,295.436 321.234 C 295.289 319.935,294.917 318.663,294.610 318.408 C 294.303 318.153,293.927 317.372,293.774 316.672 C 293.622 315.973,293.163 315.040,292.753 314.600 C 288.110 309.609,285.255 307.200,283.983 307.200 C 283.621 307.200,282.998 306.840,282.600 306.400 C 282.202 305.960,281.679 305.594,281.438 305.587 C 281.197 305.581,280.100 305.132,279.000 304.591 C 277.900 304.050,276.384 303.606,275.631 303.604 C 274.879 303.602,273.940 303.308,273.546 302.951 C 273.103 302.550,271.639 302.179,269.715 301.980 C 268.002 301.803,265.970 301.330,265.200 300.929 C 263.866 300.234,261.181 300.199,208.000 300.170 L 152.200 300.140 206.800 300.395 L 261.400 300.650 264.295 301.525 C 265.887 302.006,267.603 302.400,268.108 302.400 C 268.613 302.400,270.010 302.679,271.213 303.019 C 272.416 303.360,274.390 303.869,275.600 304.151 C 276.810 304.433,278.160 304.852,278.600 305.084 C 279.040 305.315,280.778 306.162,282.461 306.965 C 284.145 307.768,285.742 308.689,286.010 309.012 C 286.279 309.336,286.634 309.600,286.800 309.600 C 287.247 309.600,291.600 313.660,291.600 314.076 C 291.600 314.273,291.951 314.810,292.380 315.271 C 292.809 315.731,293.279 316.648,293.424 317.308 C 293.569 317.967,294.024 319.248,294.435 320.154 C 294.846 321.059,295.187 322.250,295.194 322.800 C 295.200 323.350,295.518 324.340,295.901 325.000 C 296.481 326.000,296.597 327.234,296.597 332.400 C 296.597 337.566,296.481 338.800,295.901 339.800 C 295.518 340.460,295.204 341.247,295.202 341.548 C 295.196 343.036,290.512 348.802,287.839 350.613 C 286.203 351.722,283.909 353.114,283.200 353.428 C 280.729 354.524,277.499 355.600,276.681 355.600 C 276.140 355.600,275.048 355.872,274.254 356.203 C 273.459 356.535,271.412 356.986,269.705 357.205 C 267.997 357.424,264.800 357.880,262.600 358.219 C 257.412 359.018,130.718 358.910,126.600 358.103 C 125.280 357.845,121.671 357.447,118.579 357.219 C 115.488 356.991,112.068 356.552,110.979 356.244 C 109.891 355.936,107.920 355.578,106.600 355.449 C 102.625 355.060,97.748 353.083,95.001 350.748 C 92.489 348.612,89.200 344.538,89.200 343.563 C 89.200 343.342,88.832 342.405,88.383 341.481 C 87.933 340.556,87.467 338.990,87.347 338.000 C 87.227 337.010,86.743 335.030,86.273 333.600 C 84.968 329.636,85.012 309.440,86.333 305.837 C 86.810 304.538,87.200 302.896,87.200 302.188 C 87.200 301.481,87.650 299.524,88.200 297.839 C 88.750 296.154,89.200 294.412,89.200 293.968 C 89.200 293.524,89.460 292.658,89.777 292.044 C 90.095 291.430,90.620 289.864,90.944 288.564 C 91.723 285.443,92.723 282.542,93.648 280.721 C 94.062 279.907,94.400 278.972,94.400 278.642 C 94.400 278.312,94.850 277.196,95.400 276.162 C 95.950 275.127,96.400 274.081,96.400 273.836 C 96.400 273.591,97.115 271.953,97.990 270.196 C 98.864 268.438,99.584 266.799,99.590 266.554 C 99.595 266.309,99.935 265.679,100.345 265.154 C 100.755 264.629,101.230 263.753,101.401 263.208 C 101.572 262.662,102.026 261.762,102.410 261.208 C 102.793 260.653,104.163 258.429,105.454 256.265 C 107.736 252.438,108.146 251.784,109.783 249.360 C 110.597 248.154,112.053 246.223,112.906 245.218 C 113.178 244.898,113.980 243.818,114.689 242.818 C 116.543 240.202,125.547 228.932,127.200 227.157 C 127.530 226.803,129.780 224.338,132.200 221.679 C 136.768 216.660,150.722 202.658,157.015 196.778 C 159.004 194.920,161.720 192.377,163.050 191.126 C 164.381 189.876,166.627 187.896,168.041 186.726 C 169.456 185.557,171.690 183.585,173.007 182.345 C 174.323 181.104,176.750 178.979,178.400 177.622 C 180.990 175.491,183.563 173.252,187.344 169.839 C 189.092 168.262,190.601 166.993,193.800 164.415 C 195.560 162.996,197.372 161.468,197.826 161.018 C 198.280 160.568,199.720 159.187,201.026 157.948 C 207.135 152.154,214.617 143.575,217.000 139.632 C 217.220 139.268,217.628 138.707,217.906 138.385 C 219.491 136.551,222.400 130.953,222.400 129.738 C 222.400 129.426,222.674 128.754,223.009 128.242 C 223.344 127.731,223.862 126.146,224.160 124.721 C 224.459 123.295,224.893 121.774,225.125 121.340 C 225.721 120.227,226.017 114.712,225.513 114.100 C 225.188 113.705,214.463 113.600,174.338 113.600 C 129.453 113.600,123.403 113.528,122.095 112.982 C 121.281 112.642,118.883 112.198,116.766 111.997 C 114.649 111.795,112.396 111.373,111.759 111.059 C 111.121 110.745,109.366 109.895,107.857 109.170 C 105.347 107.965,99.600 102.957,99.600 101.976 C 99.600 101.801,99.351 101.408,99.046 101.103 C 94.946 97.003,92.676 81.375,95.400 76.000 C 95.950 74.915,96.400 73.751,96.400 73.413 C 96.400 73.076,96.568 72.800,96.773 72.800 C 96.978 72.800,97.256 72.453,97.391 72.029 C 98.018 70.054,105.057 62.400,106.247 62.400 C 106.528 62.400,107.604 61.950,108.638 61.400 C 109.673 60.850,110.861 60.400,111.279 60.400 C 111.698 60.400,112.595 60.113,113.273 59.762 C 113.951 59.412,115.697 58.960,117.153 58.759 C 118.609 58.558,120.294 58.193,120.899 57.949 C 121.503 57.704,123.393 57.371,125.099 57.208 L 128.200 56.912 124.389 56.856 C 121.473 56.813,120.363 56.950,119.663 57.441 " stroke="none" fill="#d9757e" fill-rule="evenodd"></path><path id="path4" d="M125.099 57.202 C 123.393 57.368,121.503 57.704,120.899 57.949 C 120.294 58.193,118.609 58.558,117.153 58.759 C 115.697 58.960,113.951 59.412,113.273 59.762 C 112.595 60.113,111.698 60.400,111.279 60.400 C 110.861 60.400,109.673 60.850,108.638 61.400 C 107.604 61.950,106.528 62.400,106.247 62.400 C 105.057 62.400,98.018 70.054,97.391 72.029 C 97.256 72.453,96.978 72.800,96.773 72.800 C 96.568 72.800,96.400 73.076,96.400 73.413 C 96.400 73.751,95.950 74.915,95.400 76.000 C 92.676 81.375,94.946 97.003,99.046 101.103 C 99.351 101.408,99.600 101.801,99.600 101.976 C 99.600 102.957,105.347 107.965,107.857 109.170 C 109.366 109.895,111.121 110.745,111.759 111.059 C 112.396 111.373,114.649 111.795,116.766 111.997 C 118.883 112.198,121.281 112.642,122.095 112.982 C 123.403 113.528,129.453 113.600,174.338 113.600 C 214.463 113.600,225.188 113.705,225.513 114.100 C 226.017 114.712,225.721 120.227,225.125 121.340 C 224.893 121.774,224.459 123.295,224.160 124.721 C 223.862 126.146,223.344 127.731,223.009 128.242 C 222.674 128.754,222.400 129.426,222.400 129.738 C 222.400 130.953,219.491 136.551,217.906 138.385 C 217.628 138.707,217.220 139.268,217.000 139.632 C 214.617 143.575,207.135 152.154,201.026 157.948 C 199.720 159.187,198.280 160.568,197.826 161.018 C 197.372 161.468,195.560 162.996,193.800 164.415 C 190.601 166.993,189.092 168.262,187.344 169.839 C 183.563 173.252,180.990 175.491,178.400 177.622 C 176.750 178.979,174.323 181.104,173.007 182.345 C 171.690 183.585,169.456 185.557,168.041 186.726 C 166.627 187.896,164.381 189.876,163.050 191.126 C 161.720 192.377,159.004 194.920,157.015 196.778 C 150.722 202.658,136.768 216.660,132.200 221.679 C 129.780 224.338,127.530 226.803,127.200 227.157 C 125.547 228.932,116.543 240.202,114.689 242.818 C 113.980 243.818,113.178 244.898,112.906 245.218 C 112.053 246.223,110.597 248.154,109.783 249.360 C 108.146 251.784,107.736 252.438,105.454 256.265 C 104.163 258.429,102.793 260.653,102.410 261.208 C 102.026 261.762,101.572 262.662,101.401 263.208 C 101.230 263.753,100.755 264.629,100.345 265.154 C 99.935 265.679,99.595 266.309,99.590 266.554 C 99.584 266.799,98.864 268.438,97.990 270.196 C 97.115 271.953,96.400 273.591,96.400 273.836 C 96.400 274.081,95.950 275.127,95.400 276.162 C 94.850 277.196,94.400 278.312,94.400 278.642 C 94.400 278.972,94.062 279.907,93.648 280.721 C 92.723 282.542,91.723 285.443,90.944 288.564 C 90.620 289.864,90.095 291.430,89.777 292.044 C 89.460 292.658,89.200 293.524,89.200 293.968 C 89.200 294.412,88.750 296.154,88.200 297.839 C 87.650 299.524,87.200 301.481,87.200 302.188 C 87.200 302.896,86.810 304.538,86.333 305.837 C 85.012 309.440,84.968 329.636,86.273 333.600 C 86.743 335.030,87.227 337.010,87.347 338.000 C 87.467 338.990,87.933 340.556,88.383 341.481 C 88.832 342.405,89.200 343.342,89.200 343.563 C 89.200 344.538,92.489 348.612,95.001 350.748 C 97.748 353.083,102.625 355.060,106.600 355.449 C 107.920 355.578,109.891 355.936,110.979 356.244 C 112.068 356.552,115.488 356.991,118.579 357.219 C 121.671 357.447,125.280 357.845,126.600 358.103 C 130.718 358.910,257.412 359.018,262.600 358.219 C 264.800 357.880,267.997 357.424,269.705 357.205 C 271.412 356.986,273.459 356.535,274.254 356.203 C 275.048 355.872,276.140 355.600,276.681 355.600 C 277.499 355.600,280.729 354.524,283.200 353.428 C 283.909 353.114,286.203 351.722,287.839 350.613 C 290.512 348.802,295.196 343.036,295.202 341.548 C 295.204 341.247,295.518 340.460,295.901 339.800 C 296.481 338.800,296.597 337.566,296.597 332.400 C 296.597 327.234,296.481 326.000,295.901 325.000 C 295.518 324.340,295.200 323.350,295.194 322.800 C 295.187 322.250,294.846 321.059,294.435 320.154 C 294.024 319.248,293.569 317.967,293.424 317.308 C 293.279 316.648,292.809 315.731,292.380 315.271 C 291.951 314.810,291.600 314.273,291.600 314.076 C 291.600 313.660,287.247 309.600,286.800 309.600 C 286.634 309.600,286.279 309.336,286.010 309.012 C 285.742 308.689,284.145 307.768,282.461 306.965 C 280.778 306.162,279.040 305.315,278.600 305.084 C 278.160 304.852,276.810 304.433,275.600 304.151 C 274.390 303.869,272.416 303.360,271.213 303.019 C 270.010 302.679,268.613 302.400,268.108 302.400 C 267.603 302.400,265.887 302.005,264.295 301.521 L 261.400 300.643 205.800 300.515 C 147.972 300.383,149.200 300.407,149.200 299.409 C 149.200 298.716,153.168 291.032,154.761 288.640 C 155.332 287.782,155.978 286.792,156.196 286.440 C 156.414 286.088,157.584 284.296,158.796 282.457 C 160.008 280.618,161.180 278.826,161.400 278.474 C 161.620 278.123,162.664 276.747,163.721 275.417 C 164.778 274.088,165.948 272.584,166.321 272.075 C 166.694 271.566,167.270 270.843,167.600 270.468 C 167.930 270.094,169.633 268.080,171.385 265.994 C 175.619 260.950,175.447 261.144,179.478 256.835 C 184.706 251.246,195.276 240.699,203.366 233.000 C 211.632 225.133,213.333 223.471,215.055 221.579 C 215.745 220.821,216.645 219.934,217.055 219.610 C 217.465 219.285,219.168 217.755,220.840 216.210 C 222.512 214.664,224.672 212.739,225.640 211.931 C 228.053 209.917,241.029 196.954,245.235 192.356 C 252.010 184.950,257.001 179.271,257.970 177.866 C 258.298 177.390,258.755 176.794,258.984 176.542 C 260.386 174.999,265.193 168.609,265.196 168.283 C 265.198 168.109,265.875 167.022,266.700 165.869 C 268.463 163.404,268.512 163.325,271.309 158.400 C 272.496 156.310,273.587 154.118,273.734 153.528 C 273.881 152.938,274.247 152.210,274.548 151.909 C 274.848 151.609,275.233 150.921,275.402 150.381 C 275.572 149.842,276.045 148.971,276.455 148.446 C 276.865 147.921,277.206 147.201,277.212 146.846 C 277.219 146.491,277.668 145.480,278.210 144.600 C 278.752 143.720,279.197 142.635,279.198 142.189 C 279.199 141.743,279.449 141.023,279.753 140.589 C 280.057 140.155,280.576 138.810,280.906 137.600 C 281.237 136.390,281.693 134.860,281.921 134.200 C 282.855 131.498,284.087 126.876,284.373 125.000 C 284.541 123.900,284.865 122.549,285.092 121.997 C 285.320 121.445,285.721 119.285,285.984 117.197 C 286.247 115.109,286.757 112.230,287.118 110.800 C 287.983 107.378,288.102 84.935,287.267 83.008 C 286.550 81.355,285.577 75.538,285.638 73.275 C 285.741 69.435,280.688 62.400,277.827 62.400 C 277.660 62.400,277.046 62.069,276.462 61.665 C 275.878 61.261,274.590 60.651,273.600 60.311 C 272.610 59.971,271.260 59.505,270.600 59.276 C 269.940 59.047,267.690 58.442,265.600 57.930 L 261.800 57.000 195.000 56.950 C 158.260 56.922,126.804 57.036,125.099 57.202 M262.066 58.036 C 262.514 58.275,264.464 58.709,266.400 59.000 C 268.336 59.291,270.343 59.798,270.860 60.126 C 271.377 60.454,272.551 60.844,273.469 60.991 C 274.386 61.139,275.229 61.499,275.342 61.792 C 275.454 62.085,276.079 62.442,276.731 62.585 C 277.384 62.728,278.234 63.195,278.621 63.623 C 279.007 64.050,279.552 64.400,279.831 64.400 C 281.873 64.400,285.060 70.831,284.562 73.946 C 284.394 75.000,284.506 75.802,284.912 76.449 C 285.241 76.972,285.629 78.527,285.775 79.904 C 285.921 81.281,286.300 83.261,286.616 84.304 C 287.412 86.926,287.429 103.369,286.641 107.600 C 286.333 109.250,285.955 112.220,285.801 114.200 C 285.646 116.180,285.346 118.012,285.134 118.271 C 284.923 118.531,284.507 120.358,284.210 122.331 C 283.914 124.305,283.464 126.308,283.210 126.782 C 282.956 127.256,282.579 128.695,282.372 129.980 C 282.165 131.265,281.728 132.830,281.400 133.458 C 281.072 134.086,280.702 135.230,280.577 136.000 C 280.452 136.770,280.015 138.120,279.605 139.000 C 279.195 139.880,278.737 141.275,278.586 142.100 C 278.435 142.925,278.165 143.600,277.987 143.600 C 277.808 143.600,277.442 144.275,277.173 145.100 C 276.904 145.925,276.350 147.029,275.942 147.554 C 275.534 148.079,275.200 148.816,275.200 149.193 C 275.200 149.569,274.851 150.280,274.425 150.772 C 273.998 151.263,273.530 152.209,273.384 152.874 C 273.238 153.538,272.777 154.423,272.359 154.841 C 271.942 155.258,271.600 155.979,271.600 156.442 C 271.600 156.905,271.150 157.819,270.600 158.473 C 270.050 159.127,269.600 159.918,269.600 160.231 C 269.600 160.544,269.308 161.115,268.951 161.500 C 268.594 161.885,267.379 163.644,266.251 165.408 C 265.123 167.173,263.840 169.115,263.400 169.724 C 261.499 172.357,257.190 177.869,256.429 178.642 C 255.973 179.105,255.600 179.625,255.600 179.796 C 255.600 179.968,255.195 180.510,254.700 181.001 C 253.916 181.779,251.483 184.448,247.773 188.600 C 247.183 189.260,245.463 191.096,243.950 192.680 C 242.438 194.264,241.200 195.737,241.200 195.953 C 241.200 196.169,240.849 196.457,240.420 196.594 C 239.992 196.730,239.533 197.183,239.400 197.600 C 239.267 198.017,238.808 198.470,238.380 198.606 C 237.951 198.743,237.600 199.043,237.600 199.273 C 237.600 199.504,236.925 200.309,236.100 201.064 C 235.275 201.818,232.710 204.273,230.400 206.518 C 228.090 208.763,225.030 211.592,223.600 212.804 C 222.170 214.016,219.865 216.131,218.477 217.504 C 217.090 218.877,215.806 220.000,215.623 220.000 C 215.441 220.000,215.020 220.416,214.687 220.923 C 213.994 221.981,208.896 227.200,208.556 227.200 C 208.432 227.200,207.172 228.370,205.756 229.800 C 204.340 231.230,203.018 232.400,202.818 232.400 C 202.618 232.400,202.340 232.760,202.200 233.200 C 202.060 233.640,201.813 234.000,201.651 234.000 C 201.159 234.000,198.400 236.676,198.400 237.154 C 198.400 237.399,198.192 237.600,197.938 237.600 C 197.319 237.600,192.009 242.801,180.900 254.289 C 179.965 255.256,179.195 256.171,179.189 256.324 C 179.183 256.476,178.373 257.304,177.389 258.165 C 176.405 259.026,175.600 259.881,175.600 260.065 C 175.600 260.250,174.914 261.076,174.075 261.900 C 172.758 263.196,167.731 269.178,165.677 271.895 C 165.304 272.387,164.550 273.299,164.000 273.921 C 162.273 275.875,161.200 277.358,161.200 277.791 C 161.200 278.020,160.840 278.432,160.400 278.707 C 159.960 278.982,159.600 279.404,159.600 279.646 C 159.600 279.887,159.150 280.619,158.600 281.273 C 158.050 281.927,157.600 282.678,157.600 282.942 C 157.600 283.206,157.240 283.730,156.800 284.107 C 156.360 284.484,156.000 285.042,156.000 285.347 C 156.000 285.652,155.720 286.135,155.377 286.419 C 155.034 286.704,154.488 287.491,154.163 288.168 C 153.838 288.846,153.129 290.120,152.589 291.000 C 151.394 292.944,150.400 295.028,150.400 295.587 C 150.400 295.814,150.237 296.000,150.038 296.000 C 149.548 296.000,148.384 299.494,148.646 300.177 C 149.026 301.167,150.225 301.189,204.800 301.199 C 250.498 301.207,259.294 301.298,260.875 301.778 C 261.906 302.091,264.065 302.476,265.673 302.635 C 267.281 302.793,269.222 303.184,269.988 303.504 C 270.753 303.824,272.464 304.241,273.790 304.431 C 275.115 304.620,276.913 305.141,277.785 305.588 C 278.656 306.034,279.669 306.400,280.036 306.400 C 280.402 306.400,280.920 306.663,281.187 306.985 C 281.454 307.306,282.061 307.686,282.536 307.830 C 283.765 308.200,287.600 310.769,287.600 311.221 C 287.600 311.430,287.786 311.600,288.013 311.600 C 288.421 311.600,291.200 314.189,291.200 314.569 C 291.200 314.676,291.650 315.428,292.200 316.238 C 292.750 317.049,293.200 318.186,293.200 318.767 C 293.200 319.347,293.447 320.177,293.750 320.611 C 294.052 321.045,294.430 322.210,294.590 323.200 C 294.749 324.190,295.222 325.788,295.640 326.751 C 296.480 328.687,296.763 336.928,296.005 337.397 C 295.788 337.531,295.317 338.667,294.959 339.920 C 294.600 341.174,294.095 342.470,293.836 342.800 C 293.577 343.130,293.141 343.850,292.866 344.400 C 292.274 345.587,288.626 349.600,288.139 349.600 C 287.953 349.601,287.277 350.051,286.638 350.600 C 285.999 351.150,285.258 351.600,284.992 351.600 C 284.726 351.600,284.048 351.962,283.486 352.404 C 282.925 352.845,281.865 353.324,281.132 353.468 C 280.400 353.611,279.440 353.957,279.000 354.235 C 278.560 354.514,277.030 354.945,275.600 355.192 C 274.170 355.440,272.280 355.891,271.400 356.195 C 270.520 356.498,267.910 356.859,265.600 356.995 C 263.290 357.132,260.230 357.507,258.800 357.829 C 254.747 358.742,138.911 358.432,130.200 357.485 C 126.900 357.127,122.658 356.826,120.773 356.817 C 118.888 356.807,116.458 356.540,115.373 356.223 C 114.288 355.906,111.521 355.443,109.225 355.195 C 106.929 354.946,104.553 354.486,103.945 354.172 C 103.337 353.857,102.426 353.599,101.920 353.598 C 101.414 353.596,100.550 353.350,100.000 353.049 C 99.450 352.749,98.481 352.224,97.847 351.882 C 96.246 351.018,91.200 346.354,91.200 345.737 C 91.200 345.459,90.856 344.909,90.435 344.516 C 90.015 344.122,89.544 343.080,89.390 342.200 C 89.236 341.320,88.837 340.166,88.504 339.636 C 88.170 339.105,87.750 337.357,87.570 335.751 C 87.390 334.145,86.947 331.969,86.587 330.916 C 85.632 328.126,85.629 310.863,86.583 308.579 C 86.938 307.730,87.381 305.587,87.568 303.818 C 87.755 302.048,88.190 300.072,88.535 299.427 C 88.879 298.782,89.285 297.260,89.437 296.044 C 89.589 294.828,90.047 293.286,90.455 292.617 C 90.863 291.948,91.198 290.821,91.199 290.112 C 91.199 289.404,91.568 288.118,92.018 287.255 C 92.468 286.391,92.943 284.991,93.072 284.142 C 93.202 283.294,93.537 282.330,93.817 282.000 C 94.097 281.670,94.540 280.595,94.802 279.612 C 95.064 278.628,95.531 277.463,95.839 277.023 C 96.148 276.582,96.406 275.857,96.412 275.411 C 96.419 274.965,96.868 273.880,97.410 273.000 C 97.952 272.120,98.397 271.107,98.398 270.749 C 98.399 270.391,98.674 269.871,99.008 269.593 C 99.343 269.315,99.811 268.316,100.049 267.371 C 100.287 266.427,100.716 265.564,101.003 265.454 C 101.290 265.344,101.646 264.700,101.795 264.023 C 101.944 263.346,102.286 262.569,102.556 262.296 C 102.827 262.023,103.325 261.260,103.663 260.600 C 104.956 258.082,105.819 256.616,106.347 256.042 C 106.648 255.716,107.071 254.943,107.286 254.324 C 107.502 253.706,107.850 253.200,108.060 253.200 C 108.270 253.200,108.630 252.660,108.860 252.000 C 109.090 251.340,109.436 250.800,109.629 250.800 C 109.822 250.800,110.278 250.215,110.644 249.500 C 111.009 248.785,111.554 248.056,111.854 247.880 C 112.154 247.704,112.400 247.390,112.400 247.182 C 112.400 246.974,113.300 245.687,114.400 244.322 C 115.500 242.957,116.400 241.696,116.400 241.520 C 116.400 241.344,116.715 240.851,117.100 240.425 C 117.485 239.999,118.160 239.172,118.600 238.586 C 119.475 237.421,120.898 235.720,122.300 234.163 C 122.795 233.613,123.200 233.043,123.200 232.896 C 123.200 232.749,123.558 232.262,123.995 231.814 C 124.432 231.366,125.557 230.112,126.495 229.027 C 127.433 227.943,128.479 226.764,128.819 226.408 C 129.160 226.053,131.140 223.882,133.219 221.586 C 135.299 219.289,137.945 216.458,139.100 215.296 C 140.255 214.134,141.200 213.007,141.200 212.791 C 141.200 212.576,141.425 212.396,141.700 212.391 C 141.975 212.387,142.740 211.738,143.400 210.951 C 144.890 209.173,145.173 208.890,146.951 207.400 C 147.738 206.740,148.387 205.975,148.391 205.700 C 148.396 205.425,148.585 205.200,148.812 205.200 C 149.039 205.200,150.164 204.283,151.312 203.163 C 152.460 202.043,155.461 199.208,157.980 196.863 C 160.499 194.518,163.406 191.745,164.440 190.700 C 165.475 189.655,166.450 188.800,166.607 188.800 C 166.765 188.800,167.592 188.080,168.446 187.200 C 169.300 186.320,170.147 185.600,170.327 185.600 C 170.508 185.600,171.030 185.195,171.488 184.700 C 171.945 184.205,172.833 183.372,173.460 182.848 C 175.386 181.240,178.725 178.287,180.638 176.500 C 181.638 175.565,182.559 174.800,182.683 174.800 C 182.807 174.800,183.317 174.395,183.816 173.900 C 184.316 173.405,184.969 172.808,185.268 172.572 C 187.068 171.155,191.895 166.959,192.400 166.372 C 192.730 165.988,193.630 165.245,194.400 164.720 C 197.661 162.496,210.400 149.998,210.400 149.022 C 210.400 148.920,210.805 148.411,211.300 147.890 C 214.081 144.967,217.600 140.472,217.600 139.841 C 217.600 139.594,217.960 139.168,218.400 138.893 C 218.840 138.618,219.200 138.196,219.200 137.954 C 219.200 137.713,219.650 136.981,220.200 136.327 C 220.750 135.673,221.200 134.792,221.200 134.369 C 221.200 133.946,221.375 133.600,221.589 133.600 C 221.803 133.600,222.274 132.565,222.635 131.300 C 222.997 130.035,223.518 128.730,223.793 128.400 C 224.067 128.070,224.403 126.944,224.539 125.897 C 224.675 124.850,225.099 123.516,225.481 122.932 C 226.434 121.478,226.765 114.401,225.913 113.694 C 225.478 113.333,213.173 113.192,174.970 113.109 C 132.962 113.018,124.401 112.908,123.400 112.444 C 122.740 112.138,120.391 111.761,118.181 111.606 C 115.663 111.430,113.796 111.092,113.181 110.702 C 112.641 110.359,111.570 109.947,110.800 109.787 C 110.030 109.627,108.971 109.159,108.446 108.748 C 107.921 108.337,107.245 108.000,106.942 108.000 C 106.640 108.000,106.084 107.640,105.707 107.200 C 105.330 106.760,104.861 106.400,104.665 106.400 C 104.168 106.400,101.958 103.931,99.518 100.649 C 98.216 98.898,96.427 95.113,96.413 94.080 C 96.406 93.574,96.093 92.584,95.718 91.880 C 94.607 89.793,94.446 79.727,95.492 77.707 C 95.921 76.878,96.393 75.708,96.542 75.108 C 97.396 71.647,104.911 63.091,107.522 62.607 C 108.335 62.456,109.283 62.079,109.628 61.769 C 109.973 61.460,111.215 61.025,112.388 60.802 C 113.561 60.580,114.750 60.207,115.031 59.974 C 115.312 59.741,117.366 59.295,119.595 58.982 C 121.824 58.669,123.952 58.235,124.324 58.019 C 125.317 57.439,260.984 57.456,262.066 58.036 " stroke="none" fill="#e4a4a4" fill-rule="evenodd"></path></g></svg>