<?xml version="1.0" encoding="utf-8"?>
<!-- Generator: Adobe Illustrator 28.3.0, SVG Export Plug-In . SVG Version: 6.00 Build 0)  -->
<svg version="1.1" id="Layer_1" xmlns="http://www.w3.org/2000/svg" xmlns:xlink="http://www.w3.org/1999/xlink" x="0px" y="0px"
	 viewBox="0 0 50 50" style="enable-background:new 0 0 50 50;" xml:space="preserve">
<style type="text/css">
	.st0{fill:#185C37;}
	.st1{fill:#33C481;}
	.st2{fill:#107C41;}
	.st3{fill:#21A366;}
</style>
<path class="st0" d="M15.2,50H4.8c-1.2,0-2.3-1-2.3-2.3V24.2l7.9-2.3l7.1,2.3v23.5C17.5,49,16.5,50,15.2,50L15.2,50z"/>
<path class="st1" d="M31.5,0h13.7c1.3,0,2.3,1,2.3,2.3c0,0,0,0,0,0v27.3c0,1.3-1,2.3-2.3,2.3h0H31.5l-2.7-17.1L31.5,0z"/>
<path class="st2" d="M2.5,2.3V25h15v16h12.7c1.3,0,2.3-1,2.3-2.3v0V0H4.8C3.5,0,2.5,1,2.5,2.3z"/>
<path class="st3" d="M17.5,0h15v17h-15V0z"/>
</svg>
