<svg viewBox="0 0 148 148" xmlns="http://www.w3.org/2000/svg"><path d="M62.33 20.5c-2.4 2.3-2.5 3-2.5 14.5 0 16.1.1 16-15.6 16-6.3 0-12.4.4-13.4 1-3.6 1.9-4.1 6.7-2.1 16.8 3.1 14.9 6.6 20.4 16.4 25.3 5.3 2.8 15.2 4.2 19.4 2.8 3.4-1.1 6.4-5.1 8.6-11.5l1.4-3.8 1.8 3.1c2.1 3.6 7.4 6.8 13 7.8 8.6 1.5 13.5 6.6 13.5 13.8 0 3.1-.7 4.6-3.4 7.3-4.4 4.4-9.4 4.7-13.2.9-2.4-2.4-2.5-2.8-1.1-4.8.8-1.2 2.4-2.3 3.6-2.5 2.9-.5 4.5-3.6 3.1-6.2-2.3-4.3-11.9-1.1-15.2 5.1-5.2 9.6 1.6 19.5 14.2 20.7 11 1 21.8-6.2 25.9-17.4 3.2-8.4 4.5-26.5 3.2-43.8-1.5-19.2-2.8-26.1-5.8-29.7-3.7-4.4-6.7-5.6-20.1-8-10.6-2-12.2-2.5-13.1-4.6-2.4-5.3-14.3-7.2-18.6-2.8zm43.3 45.7c.7.7 1.2 2.1 1.2 3.1 0 1.8-.5 1.9-5.2 1.3-6.3-.9-7.5-1.8-5.3-4 1.9-1.9 7.6-2.1 9.3-.4z"/><path d="M43.83 35.5 31.33 48h11c6.1 0 11.7-.5 12.5-1 1.1-.7 1.6-3.3 1.8-9.7.7-16.2 1.5-16.1-12.8-1.8z"/></svg>