<?xml version="1.0" encoding="UTF-8"?>
<svg version="1.1" viewBox="0 0 222.49 222.83" xmlns="http://www.w3.org/2000/svg">
<path d="m76.832 49.507c0 2.1922-0.18235 5.8458-2.3746 8.2207-2.375 2.1922-6.0286 2.3751-8.2209 2.3751h-23.383c-6.7593 0-10.778 0-13.519 0.36527-1.4614 0.18235-3.2883 0.91347-4.2017 1.2787-0.36539 0.18235-0.36539 0-0.18269-0.18292l53.343-54.257c0.18292-0.18269 0.36527-0.18269 0.18292 0.18269-0.36584 0.91341-1.0964 2.7402-1.2793 4.2017-0.36527 2.7403-0.36527 6.7592-0.36527 13.519zm49.69 164.05c-6.2113-4.0186-9.4994-9.3164-10.778-12.605-1.2787-3.1057-2.0093-6.5766-2.0093-10.048 0-15.163 12.422-27.585 27.768-27.585 4.5668 0 8.2206 3.6533 8.2206 8.2206 0 3.1057-1.644 5.6631-4.2015 7.1242-0.91347 0.54819-2.1922 0.91346-3.1057 1.0964-0.91347 0.18236-4.3844 0.5482-6.0284 2.0093-1.8269 1.4617-3.2886 3.8362-3.2886 6.3943 0 2.7398 1.0964 5.2973 2.9228 7.1242 3.2886 3.2886 7.673 5.115 12.423 5.115 12.422 0 22.47-10.048 22.47-22.47 0-11.143-7.4895-21.009-17.355-25.393-1.4611-0.73055-3.8362-1.2787-6.0284-1.8264-2.7404-0.54819-5.2979-0.91346-5.4802-0.91346-7.673-0.91347-26.855-6.9419-28.133-23.931 0 0-5.6632 25.575-16.989 32.517-1.0958 0.54819-2.5575 1.0958-4.2015 1.4617-1.644 0.36527-3.4709 0.54762-4.0191 0.54762-18.451 1.0964-37.998-4.7497-51.516-18.633 0 0-9.1341-7.4901-13.884-28.499-1.0961-5.115-3.2883-14.249-4.5671-22.835-0.54805-3.1057-0.73073-5.4808-0.91341-7.6724 0-8.9517 5.4805-14.98 12.422-15.894h37.267c6.3939 0 10.048-1.644 12.422-3.8362 3.1057-2.9228 3.8362-7.1248 3.8362-12.057v-37.45-1.0961c0.91347-6.7593 6.9419-12.422 15.894-12.422h4.3844c1.8269 0 4.0191 0.18268 6.0284 0.36536 1.4616 0.18269 2.7404 0.54805 4.9326 1.0961 11.143 2.7402 13.518 14.067 13.518 14.067s21.008 3.6537 31.604 5.4805c10.048 1.8268 34.892 3.4709 39.642 28.498 11.144 59.554 4.3844 117.28 3.8362 117.28-7.8554 56.266-54.622 53.526-54.622 53.526-10.048 0-17.538-3.2886-22.47-6.7595m42.017-119.66c-6.0284-0.54819-11.144 1.8269-12.97 6.3937-0.36584 0.91346-0.73111 2.0098-0.54819 2.5575 0.18235 0.5482 0.54819 0.73112 0.91347 0.91347 2.1922 1.0964 5.8455 1.6446 11.143 2.1922 5.2979 0.5482 8.9517 0.91347 11.326 0.5482 0.36527 0 0.73055-0.18292 1.0964-0.73055 0.36527-0.54819 0.18235-1.6446 0.18235-2.5575-0.73055-5.1155-5.115-8.5865-11.143-9.317" fill="#00a82d" stroke-width="5.6632"/>
</svg>
