<?xml version="1.0" encoding="utf-8"?>
<!-- Generator: Adobe Illustrator 22.0.0, SVG Export Plug-In . SVG Version: 6.00 Build 0)  -->
<svg version="1.1" id="Layer_1" xmlns="http://www.w3.org/2000/svg" xmlns:xlink="http://www.w3.org/1999/xlink" x="0px" y="0px"
	 viewBox="0 0 148 148" style="enable-background:new 0 0 148 148;" xml:space="preserve">
<g transform="translate(0.000000,140.000000) scale(0.100000,-0.100000)">
	<path d="M623.3,1195c-24-23-25-30-25-145c0-161,1-160-156-160c-63,0-124-4-134-10c-36-19-41-67-21-168c31-149,66-204,164-253
		c53-28,152-42,194-28c34,11,64,51,86,115l14,38l18-31c21-36,74-68,130-78c86-15,135-66,135-138c0-31-7-46-34-73c-44-44-94-47-132-9
		c-24,24-25,28-11,48c8,12,24,23,36,25c29,5,45,36,31,62c-23,43-119,11-152-51c-52-96,16-195,142-207c110-10,218,62,259,174
		c32,84,45,265,32,438c-15,192-28,261-58,297c-37,44-67,56-201,80c-106,20-122,25-131,46C785.3,1220,666.3,1239,623.3,1195z
		 M1056.3,738c7-7,12-21,12-31c0-18-5-19-52-13c-63,9-75,18-53,40C982.3,753,1039.3,755,1056.3,738z"/>
	<path d="M438.3,1045l-125-125h110c61,0,117,5,125,10c11,7,16,33,18,97C573.3,1189,581.3,1188,438.3,1045z"/>
</g>
</svg>
