<svg enable-background="new 0 0 148 148" viewBox="0 0 148 148" xmlns="http://www.w3.org/2000/svg"><g transform="matrix(.1 0 0 -.1 0 140)"><path d="m623.3 1195c-24-23-25-30-25-145 0-161 1-160-156-160-63 0-124-4-134-10-36-19-41-67-21-168 31-149 66-204 164-253 53-28 152-42 194-28 34 11 64 51 86 115l14 38 18-31c21-36 74-68 130-78 86-15 135-66 135-138 0-31-7-46-34-73-44-44-94-47-132-9-24 24-25 28-11 48 8 12 24 23 36 25 29 5 45 36 31 62-23 43-119 11-152-51-52-96 16-195 142-207 110-10 218 62 259 174 32 84 45 265 32 438-15 192-28 261-58 297-37 44-67 56-201 80-106 20-122 25-131 46-24 53-143 72-186 28zm433-457c7-7 12-21 12-31 0-18-5-19-52-13-63 9-75 18-53 40 19 19 76 21 93 4z"/><path d="m438.3 1045-125-125h110c61 0 117 5 125 10 11 7 16 33 18 97 7 162 15 161-128 18z"/></g></svg>