<?xml version="1.0" encoding="UTF-8"?>
<svg id="Layer_2" xmlns="http://www.w3.org/2000/svg" viewBox="0 0 599.99 599.99">
  <defs>
    <style>
      .cls-1 {
        fill: #fff;
      }
    </style>
  </defs>
  <g id="Layer_1-2" data-name="Layer_1">
    <circle class="cls-1" cx="299.99" cy="299.99" r="299.99"/>
    <g>
      <path d="M90.46,291.18c25.92-13.45,51.57-26.74,77.21-40.07,5.39-2.8,10.16-2.99,15.64.75,19.8,13.5,39.92,26.52,59.92,39.72.91.6,1.93,1.06,2.42,2.5l-123.54,153.24c-5.53-3.18-11.26-6.32-16.82-9.75-3.27-2.02-6.56-3.94-9.96-5.73-8.19-4.31-13.08-10.3-13-20.44.3-37.39.06-74.79-.04-112.19,0-2.75.68-4.71,3.48-5.68,1.54-.54,2.94-1.46,4.67-2.36h0ZM517.87,242.49c-.01,18.77-.11,37.13.03,55.49.03,3.62-1.13,5.72-4.42,7.39-27.37,13.84-54.67,27.81-81.96,41.82-2.08,1.07-3.65,1.09-5.65-.21-21.43-14.03-42.91-27.96-64.37-41.94-1.24-.81-2.69-1.42-3.44-3.45,4.32-5.47,8.75-11.17,13.27-16.81,32.98-41.15,65.98-82.28,98.97-123.42.34-.43.68-.86,1.04-1.27,4-4.73,3.96-4.67,9.25-1.45,8.42,5.13,16.83,10.3,25.38,15.2,8.19,4.7,11.92,11.77,11.93,20.99.03,15.76-.01,31.51-.02,47.68h0ZM138.76,450.39c27.67-.04,54.93-.18,82.19-.06,11.39.05,20.43-4.58,27.68-12.93,5.66-6.51,11.05-13.26,16.34-20.07,2.13-2.75,3.67-3.43,6.96-1.28,18.12,11.82,36.47,23.3,54.67,35,3.46,2.22,6.95,3.33,11.14,3.29,20.41-.21,40.82-.17,61.23-.24,1.28,0,2.41.22,3.45,1.02,8.13,6.28,16.28,12.53,24.4,18.81.5.38.78,1.04,1.33,1.81-5.45,4.24-11.48,7.2-17.24,10.55-32.43,18.86-65.02,37.44-97.32,56.52-9.83,5.81-18.55,5.87-28.41.06-47.9-28.23-96.01-56.1-144.05-84.1-4.61-2.69-9.2-5.42-13.78-8.16-.75-.45-1.83-.7-1.66-2.44,3.96,2.87,8.34,2.25,13.06,2.21ZM219.5,97.97c22.47-13.71,44.76-27.14,66.85-40.9,9.16-5.7,17.61-5.71,26.87-.08,51.15,31.06,102.45,61.89,153.7,92.8,1.02.62,2.31.98,2.8,2.52-1.4,1.45-3.28.82-4.91.82-30,.03-60,.04-90-.04-10.4-.03-18.92,3.35-25.11,12.11-3.23,4.58-7.11,8.69-10.56,13.12-1.67,2.15-3.12,2.41-5.49.89-15.46-9.88-31.03-19.6-46.52-29.44-2.63-1.67-5.33-2.47-8.49-2.46-20.41.09-40.82,0-61.24.11-3.13.02-5.45-.84-7.57-3.17-7.63-8.4-15.39-16.68-23.64-25.58,10.74-7.53,22.15-13.65,33.3-20.72h0Z"/>
      <path d="M338.24,326.11c2.66-3.33,5.22-6.37,7.59-9.55,1.48-2,2.85-2.57,5.12-1.07,21.93,14.48,43.89,28.91,65.88,43.3,1.96,1.28,2.19,2.7,1.65,4.87-5.82,23.49-11.6,47-17.22,70.54-.78,3.29-2.17,4.4-5.55,4.37-19.44-.15-38.88-.1-58.32-.05-2.42,0-4.48-.58-6.54-1.89-16.62-10.59-33.26-21.15-49.99-31.56-2.99-1.86-3.25-3.09-.98-5.9,19.49-24.2,38.81-48.53,58.37-73.05ZM185.69,194.79c-3.63,11.38-7.2,22.44-10.69,33.53-.82,2.6-2.1,4.54-4.65,5.87-19.51,10.24-38.95,20.6-58.42,30.91-7.62,4.03-15.25,8.05-22.91,12-1.78.92-3.48,2.19-5.68,2.16-1.33-1.56-.93-3.42-.93-5.13-.04-22.72.03-45.45-.06-68.17-.02-4.91-.64-9.8,0-14.74.92-7.05,4.52-12.19,10.46-15.84,16.91-10.39,33.83-20.78,50.73-31.17,12.24-7.52,24.51-15.01,36.69-22.64,1.99-1.24,3.04-1.27,4.14.91,4.71,9.27,9.51,18.5,14.27,27.74.76,1.48.34,2.91-.12,4.37-4.26,13.29-8.5,26.58-12.84,40.18h0ZM219.38,161.87c19.43,0,38.46,0,57.5-.05,2.14,0,3.97.47,5.79,1.63,13.75,8.74,27.49,17.48,41.34,26.04,3.27,2.02,3.56,3.43,1.03,6.54-22.29,27.38-44.44,54.89-66.51,82.45-2.12,2.65-3.55,3.21-6.6,1.19-20.64-13.7-41.41-27.21-62.2-40.68-2.28-1.47-2.25-3-1.52-5.18,6.63-19.85,13.21-39.72,19.79-59.58.6-1.82,1.12-3.66,1.69-5.49q2.13-6.87,9.7-6.86h0ZM467.02,344.66c16.72-8.75,33.16-17.36,49.45-25.88,1.85,1.55,1.41,3.16,1.41,4.59,0,29.45-.09,58.9,0,88.35.02,8.64-3.53,15.16-10.88,19.38-24.45,14.05-48.99,27.93-73.75,42.02-4.67-5.49-8.89-11.72-14.34-16.54-6.93-6.12-6.53-12.4-4.23-20.41,6.4-22.35,12.19-44.88,17.83-67.44,1.24-4.95,3.91-7.89,8.1-10.09,8.73-4.58,17.43-9.22,26.42-13.98h0Z"/>
    </g>
  </g>
</svg>