<svg xmlns="http://www.w3.org/2000/svg" height="1024" width="1024" viewBox="0 0 6551 5360"><path fill="#0C9D58" d="M5211 3636c0 91-75 166-167 166H1507c-92 0-167-75-167-166V166c0-91 75-166 167-166h3537c92 0 167 75 167 166v3470z"/><path opacity=".2" fill="#004D40" d="M5211 892L3885 721l1326 356zM3339 181l-2007 896 2219-807v-2c-39-84-134-123-212-87z"/><path opacity=".2" fill="#FFF" d="M5044 0H1507c-92 0-167 75-167 166v37c0-91 75-166 167-166h3537c92 0 167 75 167 166v-37c0-91-75-166-167-166z"/><path fill="#EA4335" d="M2198 3529c-24 89 24 180 106 202l3276 881c82 22 169-33 193-122l772-2880c23-89-24-180-106-202L3163 527c-83-22-169 33-193 122l-772 2880z"/><path opacity=".2" fill="#3E2723" d="M5806 2638l173 1047-173 643zM3901 764l154 42 96 646z"/><path opacity=".2" fill="#FFF" d="M6439 1408L3163 527c-82-22-169 33-193 122l-772 2880-2 15 766-2859c24-89 110-144 193-122l3275 881c78 21 124 104 109 188l6-22c24-89-24-180-106-202z"/><path fill="#FFC107" d="M4778 3174c32 87-8 182-88 211L1233 4643c-80 29-171-18-202-105L11 1737c-32-87 8-182 88-211L3556 268c80-29 171 18 202 105l1020 2801z"/><path opacity=".2" fill="#FFF" d="M24 1772c-31-87 8-182 88-211L3569 303c79-29 169 17 201 102l-12-32c-31-87-123-134-202-105L99 1526c-80 29-120 124-88 211l1020 2801 1 3L24 1772z"/><path fill="#4285F4" d="M5806 5192c0 92-75 168-167 168H912c-92 0-168-76-168-168V1619c0-92 76-167 168-167h4727c92 0 167 75 167 167v3573z"/><path fill="#FFF" d="M4904 2866H3489v-372h1415c41 0 74 33 74 74v224c0 41-33 74-74 74zm0 1414H3489v-372h1415c41 0 74 33 74 75v223c0 41-33 74-74 74zm223-707H3489v-372h1638c41 0 75 33 75 74v224c0 41-34 74-75 74z"/><path opacity=".2" fill="#1A237E" d="M5639 5323H912c-92 0-168-76-168-168v37c0 92 76 168 168 168h4727c92 0 167-76 167-168v-37c0 92-75 168-167 168z"/><path opacity=".2" fill="#FFF" d="M912 1489h4727c92 0 167 75 167 167v-37c0-92-75-167-167-167H912c-92 0-168 75-168 167v37c0-92 76-167 168-167z"/><path fill="#FFF" d="M2224 3238v336h482c-40 204-220 353-482 353-292 0-530-248-530-540s238-540 530-540c132 0 250 46 343 134v1l254-255a858 858 0 00-597-233 893 893 0 000 1786c516 0 855-362 855-873 0-58-5-115-14-169h-841z"/><g opacity=".2" fill="#1A237E"><path d="M2233 3574v37h473l9-37h-482z"/><path d="M2233 4280a893 893 0 01-893-874v18c0 494 400 894 893 894 516 0 855-363 855-873v-12c-11 497-347 847-855 847zm343-1299a486 486 0 00-343-134 538 538 0 00-529 540l1 19a538 538 0 01528-522c132 1 250 46 343 135l273-274-20-17-253 254v-1z"/></g><path opacity=".2" fill="#1A237E" d="M4978 2829v-38c0 42-33 75-74 75H3489v37h1415c41 0 74-33 74-74zm-74 1451H3489v38h1415c41 0 74-34 74-75v-37c0 41-33 74-74 74zm223-707H3489v37h1638c41 0 75-33 75-74v-37c0 41-34 74-75 74z"/><radialGradient id="a" cx="1476.4" cy="434.2" r="6370.6" gradientUnits="userSpaceOnUse"><stop offset="0" stop-color="#fff" stop-opacity=".1"/><stop offset="1" stop-color="#fff" stop-opacity="0"/></radialGradient><path fill="url(#a)" d="M6439 1408l-1228-330V166c0-91-75-166-167-166H1507c-92 0-167 75-167 166v908L99 1526c-80 29-120 124-88 211l733 2015v1440c0 92 76 168 168 168h4727c92 0 167-76 167-168v-827l739-2755c23-89-24-180-106-202z"/></svg>