<?xml version="1.0" encoding="utf-8"?>
<!-- Generator: Adobe Illustrator 28.3.0, SVG Export Plug-In . SVG Version: 6.00 Build 0)  -->
<svg version="1.1" id="Layer_1" xmlns="http://www.w3.org/2000/svg" xmlns:xlink="http://www.w3.org/1999/xlink" x="0px" y="0px"
	 viewBox="0 0 256 256" style="enable-background:new 0 0 256 256;" xml:space="preserve">
<style type="text/css">
	.st0{fill:#892899;}
	.st1{fill:#22002B;}
	.st2{fill:#23032B;}
	.st3{fill:#320B36;}
	.st4{fill:#260C2D;}
</style>
<g>
	<path class="st0" d="M178,8.5c1.3,0.3,1.3,0.3,2.7,0.6c26.3,5.6,52,15.3,75.3,28.4c0.8,53-2.5,114.1-36,158c-0.7,0.9-1.3,1.8-2,2.7
		c-21,26.8-51.5,47-85,54.3c-18.6,1.2-39.9-15-54-26c-0.5-0.4-1-0.8-1.6-1.2C62.6,213.6,49,199.9,38,184.5c-0.4-0.6-0.8-1.2-1.3-1.8
		C9.5,144.3-0.3,101.9-0.1,55.2c0-1.7,0-3.4,0-5.2c0-4.2,0-8.3,0-12.5C8.8,33,17.6,28.6,26.9,25c1-0.4,1.9-0.7,2.9-1.1
		C48.2,16.9,66.8,11.2,86,7.5c0.8-0.2,1.6-0.3,2.4-0.5C117,1.3,149.6,2.5,178,8.5z M50,74.5c-3.5,4.7-3.8,8.3-3,14
		c3.4,14.1,10.2,21.3,22.2,29.1c19.3,11.6,41.5,16.8,63.8,18.9c1.3,0.1,1.3,0.1,2.6,0.3c9.7,0.9,19.3,0.9,29,0.9c2.8,0,5.7,0,8.5,0
		c10,0,19.9-0.2,29.9-1.1c6.6-18.8,12.3-39.5,12.1-59.6c0-0.8,0-1.7,0-2.6c0-0.6,0-1.2,0-1.9C166.5,51,96.1,40.7,50,74.5z M97,179.5
		c6.8,14.9,21.7,26.1,35,35c0.6,0.4,1.2,0.8,1.9,1.3c2,1.3,2,1.3,5.1,2.7c2.2-0.4,2.2-0.4,4-2c0.7-0.6,1.5-1.1,2.2-1.7
		c10.2-8.9,17.8-19.1,23.8-31.3c-0.8,0.1-1.7,0.1-2.5,0.2C142.8,185.5,120.2,184,97,179.5z"/>
	<path class="st1" d="M10,128.5c1.8,2.3,3.4,4.6,5,7.1c1.8,2.9,1.8,2.9,3.8,4.7c1.2,1.2,1.2,1.2,1.2,3.2c0.6,0.2,1.1,0.5,1.7,0.8
		c2.7,1.5,5,3.3,7.4,5.2c21.3,16.4,48.1,24.2,73.9,30c0,0.3,0,0.7,0,1c-1.7,0-3.3,0-5,0c9,12.4,19.1,23,31.9,31.6
		c0.6,0.4,1.3,0.9,1.9,1.3c4.3,2.8,4.3,2.8,9.1,4.1c2.1-1.6,3.9-3.1,5.8-4.9c0.5-0.5,1-1,1.5-1.5c1.2-1.2,2.5-2.4,3.7-3.6
		c0,3,0,3-1.7,5c-14.7,13.2-31.9,21.5-51.3,25c18,11,18,11,38.2,11.4c2.4-0.7,4.7-1.6,7.1-2.4c0.9-0.3,1.7-0.6,2.6-0.9
		C162.1,240,176,233,189,223.5c0.9-0.7,1.8-1.3,2.7-2c13.4-10.3,24-22.9,33.3-37c0.3,0.7,0.7,1.3,1,2c-6,9.1-12.4,17.2-20,25
		c-0.7,0.8-1.4,1.6-2.2,2.4c-17.4,18.4-48.4,37.2-74.2,38.8c-17.6-1-37.1-15.7-50.7-26.2c-0.5-0.4-1-0.8-1.6-1.2
		C62.6,213.6,49,199.9,38,184.5c-0.4-0.6-0.8-1.2-1.3-1.8C10,144.9,10,144.9,10,128.5z"/>
	<path class="st2" d="M255,37.5c0.3,0,0.7,0,1,0c0.6,40.8-1.8,81.4-16,120c-1.2-3.6-0.7-4.6,0.4-8.1c0.3-1,0.6-2,1-3
		c0.3-1,0.7-2,1-3.1c0.3-1,0.7-2.1,1-3.1c0.8-2.6,1.7-5.1,2.5-7.7c-0.6,0.1-1.2,0.3-1.9,0.4c-7.9,1.5-15.8,2.5-23.8,3.2
		c-0.7,0.1-1.3,0.1-2,0.2c-9.8,1-19.5,1.6-29.3,1.2c0-0.3,0-0.7,0-1c4.6,0,9.2,0,14,0c0.4-1.9,0.4-1.9,0.8-3.9
		c0.9-3.9,1.9-7.8,3-11.7c4.5-16.3,7.4-32.4,7.2-49.3c8.8,2.2,16.9,5.9,25.1,9.7c4.6,2.1,9.2,4.2,13.9,6.3
		C253.7,71,254.3,54.5,255,37.5z"/>
	<path class="st3" d="M205,15.5c0,0.3,0,0.7,0,1c-5.7-0.6-11.2-1.7-16.8-3.1C127.3-1.5,58.9,7,3.7,37.8c-2,1.7-2,1.7-2.2,4.4
		c0,1.1,0,2.2,0,3.3c0,1.2,0,2.4,0,3.7c0,1.3,0.1,2.6,0.1,4c0,1.4,0,2.7,0,4.1c0.2,11.6,1,23.2,2.1,34.7c0.3,3.5,0.6,7.1,0.9,10.6
		c0.1,1,0.1,2,0.2,3c0,0.6,0.1,1.3,0.1,2c-0.3,0-0.7,0-1,0c-0.5-3.1-1-6.1-1.4-9.2c-0.1-0.8-0.3-1.7-0.4-2.6
		C0.1,82.2-0.1,68.8-0.1,55.2c0-1.7,0-3.4,0-5.2c0-4.2,0-8.3,0-12.5C8.8,33,17.6,28.6,26.9,25c1-0.4,1.9-0.7,2.9-1.1
		C48.2,16.9,66.8,11.2,86,7.5c0.8-0.2,1.6-0.3,2.4-0.5C127-0.7,167.7,4.7,205,15.5z"/>
	<path class="st4" d="M171,181.5c-0.7,1.7-1.3,3.3-2,5c-0.5-1-0.5-1-1-2c-0.8,0.1-1.5,0.1-2.3,0.2c-10.9,0.9-21.7,0.9-32.7,0.8
		c0-0.3,0-0.7,0-1c1.3,0,2.5-0.1,3.8-0.1c9.8-0.4,19.5-1.1,29.2-2.4C169,181.5,169,181.5,171,181.5z"/>
</g>
</svg>
