<?xml version="1.0" encoding="utf-8"?>
<!-- Generator: Adobe Illustrator 22.0.0, SVG Export Plug-In . SVG Version: 6.00 Build 0)  -->
<svg version="1.1"
	 id="Layer_1" xmlns:cc="http://creativecommons.org/ns#" xmlns:dc="http://purl.org/dc/elements/1.1/" xmlns:rdf="http://www.w3.org/1999/02/22-rdf-syntax-ns#"
	 xmlns="http://www.w3.org/2000/svg" xmlns:xlink="http://www.w3.org/1999/xlink" x="0px" y="0px" viewBox="0 0 73.5 73.5"
	 style="enable-background:new 0 0 73.5 73.5;" xml:space="preserve">
<style type="text/css">
	.st0{fill:#3AE7E1;}
	.st1{fill:#F5F7FA;}
</style>
<g id="XMLID_29_" transform="matrix(.1641 0 0 .1641 -8.4819 -6.6295)">
	<path id="XMLID_41_" class="st0" d="M107.8,247.8c-4.6,0.7-9.5-1-12.6-5c-4.5-5.8-3.5-14.1,2.3-18.7l37-28.9
		c5.8-4.5,14.1-3.5,18.7,2.3c4.5,5.8,3.5,14.1-2.3,18.7l-37,28.9C112.1,246.6,110,247.5,107.8,247.8z"/>
</g>
<g id="XMLID_30_" transform="matrix(.1641 0 0 .1641 -8.4819 -6.6295)">
	<path id="XMLID_40_" class="st1" d="M71.9,276c-4.6,0.7-9.5-1-12.6-4.9c-4.5-5.8-3.5-14.1,2.3-18.7l3.5-2.7
		c5.8-4.5,14.1-3.5,18.7,2.3c4.5,5.8,3.5,14.1-2.3,18.7l-3.5,2.7C76.2,274.8,74.1,275.7,71.9,276z"/>
</g>
<g id="XMLID_31_" transform="matrix(.1641 0 0 .1641 -8.4819 -6.6295)">
	<path id="XMLID_39_" class="st0" d="M67.1,351.9c-4.6,0.7-9.5-1-12.6-5c-4.5-5.8-3.5-14.1,2.3-18.7l81.2-63.4
		c5.8-4.5,14.2-3.5,18.7,2.3c4.5,5.8,3.5,14.1-2.3,18.7l-81.2,63.5C71.3,350.7,69.2,351.6,67.1,351.9z"/>
</g>
<g id="XMLID_34_" transform="matrix(.1641 0 0 .1641 -8.4819 -6.6295)">
	<path id="XMLID_38_" class="st1" d="M182.8,261.9c-4.6,0.7-9.5-1-12.6-5c-4.5-5.8-3.5-14.1,2.3-18.7l12.9-10.1
		c5.8-4.5,14.1-3.5,18.7,2.3c4.5,5.8,3.5,14.1-2.3,18.7l-12.9,10.1C187,260.6,184.9,261.5,182.8,261.9z"/>
</g>
<g id="XMLID_32_" transform="matrix(.1641 0 0 .1641 -8.4819 -6.6295)">
	<path id="XMLID_37_" class="st0" d="M175.7,339.4c-4.6,0.7-9.5-1-12.6-5c-4.5-5.8-3.5-14.1,2.3-18.7l66.6-52
		c5.8-4.5,14.2-3.5,18.7,2.3c4.5,5.8,3.5,14.1-2.3,18.7l-66.6,52C180,338.2,177.9,339.1,175.7,339.4z"/>
</g>
<path id="XMLID_36_" class="st1" d="M14.4,53.8c-0.8,0.1-1.6-0.2-2.1-0.8c-0.7-1-0.6-2.3,0.4-3.1l0.8-0.6c1-0.7,2.3-0.6,3.1,0.4
	c0.7,1,0.6,2.3-0.4,3.1l-0.8,0.6C15.1,53.6,14.7,53.8,14.4,53.8L14.4,53.8z"/>
<path id="XMLID_44_" class="st0" d="M69.5,11.2H18.8c-1.9,0-3.6,1.2-4.2,3c-0.3,0.8-0.2,1.7,0,2.5c0.2,0.8,0.7,1.5,1.4,2.1
	c0,0,19.4,15.1,24.2,18.4c1.7,1.1,3.4,0.7,4.3,0l24.6-19.2V51c0,3.2-2.6,5.9-5.9,5.9H16.8c-1.2,0-2.2,1-2.2,2.2c0,1.2,1,2.2,2.2,2.2
	h46.5c5.6,0,10.2-4.6,10.2-10.2V15.3C73.5,13,71.7,11.2,69.5,11.2L69.5,11.2z M34.4,29.3l0-0.1L34.4,29.3L34.4,29.3z M42.3,33.2
	L19.8,15.6H65L42.3,33.2z"/>
</svg>
