<svg viewBox="0 0 73.5 73.5" xmlns="http://www.w3.org/2000/svg"><path d="M9.208 34.034a2.192 2.192 0 0 1-1.69-3.89l6.072-4.741a2.192 2.192 0 0 1 3.068.377 2.192 2.192 0 0 1-.377 3.069l-6.072 4.742c-.295.247-.64.394-1 .443z" fill="#3ae7e1"/><path d="M3.317 38.662a2.218 2.218 0 0 1-2.068-.804 2.192 2.192 0 0 1 .378-3.069l.574-.443a2.192 2.192 0 0 1 3.069.378 2.192 2.192 0 0 1-.378 3.068l-.574.443c-.295.23-.64.378-1.001.427z" fill="#f5f7fa"/><path d="M2.53 51.117a2.192 2.192 0 0 1-1.69-3.89l13.324-10.403c.952-.738 2.33-.574 3.069.378s.574 2.313-.378 3.068L3.53 50.69c-.312.23-.656.378-1 .427z" fill="#3ae7e1"/><path d="M21.516 36.348a2.192 2.192 0 0 1-1.69-3.89l2.116-1.656a2.192 2.192 0 0 1 3.069.377 2.192 2.192 0 0 1-.378 3.069l-2.116 1.657c-.312.23-.657.378-1.001.443z" fill="#f5f7fa"/><path d="M20.35 49.066a2.192 2.192 0 0 1-1.69-3.89l10.93-8.532c.951-.739 2.33-.575 3.068.377s.574 2.314-.377 3.069l-10.93 8.533c-.295.246-.64.394-1 .443z" fill="#3ae7e1"/><path d="M14.4 53.8c-.8.1-1.6-.2-2.1-.8-.7-1-.6-2.3.4-3.1l.8-.6c1-.7 2.3-.6 3.1.4.7 1 .6 2.3-.4 3.1l-.8.6c-.3.2-.7.4-1 .4z" fill="#f5f7fa"/><path d="M69.5 11.2H18.8c-1.9 0-3.6 1.2-4.2 3-.3.8-.2 1.7 0 2.5s.7 1.5 1.4 2.1c0 0 19.4 15.1 24.2 18.4 1.7 1.1 3.4.7 4.3 0L69.1 18v33c0 3.2-2.6 5.9-5.9 5.9H16.8c-1.2 0-2.2 1-2.2 2.2s1 2.2 2.2 2.2h46.5c5.6 0 10.2-4.6 10.2-10.2V15.3c0-2.3-1.8-4.1-4-4.1zM34.4 29.3v-.1zm7.9 3.9L19.8 15.6H65z" fill="#3ae7e1"/></svg>