<svg enable-background="new 0 0 73.5 73.5" viewBox="0 0 73.5 73.5" xmlns="http://www.w3.org/2000/svg"><g transform="matrix(.1641 0 0 .1641 -8.4819 -6.6295)"><path d="m107.8 247.8c-4.6.7-9.5-1-12.6-5-4.5-5.8-3.5-14.1 2.3-18.7l37-28.9c5.8-4.5 14.1-3.5 18.7 2.3 4.5 5.8 3.5 14.1-2.3 18.7l-37 28.9c-1.8 1.5-3.9 2.4-6.1 2.7z" fill="#3ae7e1"/><path d="m71.9 276c-4.6.7-9.5-1-12.6-4.9-4.5-5.8-3.5-14.1 2.3-18.7l3.5-2.7c5.8-4.5 14.1-3.5 18.7 2.3 4.5 5.8 3.5 14.1-2.3 18.7l-3.5 2.7c-1.8 1.4-3.9 2.3-6.1 2.6z" fill="#f5f7fa"/><path d="m67.1 351.9c-4.6.7-9.5-1-12.6-5-4.5-5.8-3.5-14.1 2.3-18.7l81.2-63.4c5.8-4.5 14.2-3.5 18.7 2.3s3.5 14.1-2.3 18.7l-81.2 63.5c-1.9 1.4-4 2.3-6.1 2.6z" fill="#3ae7e1"/><path d="m182.8 261.9c-4.6.7-9.5-1-12.6-5-4.5-5.8-3.5-14.1 2.3-18.7l12.9-10.1c5.8-4.5 14.1-3.5 18.7 2.3 4.5 5.8 3.5 14.1-2.3 18.7l-12.9 10.1c-1.9 1.4-4 2.3-6.1 2.7z" fill="#f5f7fa"/><path d="m175.7 339.4c-4.6.7-9.5-1-12.6-5-4.5-5.8-3.5-14.1 2.3-18.7l66.6-52c5.8-4.5 14.2-3.5 18.7 2.3s3.5 14.1-2.3 18.7l-66.6 52c-1.8 1.5-3.9 2.4-6.1 2.7z" fill="#3ae7e1"/></g><path d="m14.4 53.8c-.8.1-1.6-.2-2.1-.8-.7-1-.6-2.3.4-3.1l.8-.6c1-.7 2.3-.6 3.1.4.7 1 .6 2.3-.4 3.1l-.8.6c-.3.2-.7.4-1 .4z" fill="#f5f7fa"/><path d="m69.5 11.2h-50.7c-1.9 0-3.6 1.2-4.2 3-.3.8-.2 1.7 0 2.5s.7 1.5 1.4 2.1c0 0 19.4 15.1 24.2 18.4 1.7 1.1 3.4.7 4.3 0l24.6-19.2v33c0 3.2-2.6 5.9-5.9 5.9h-46.4c-1.2 0-2.2 1-2.2 2.2s1 2.2 2.2 2.2h46.5c5.6 0 10.2-4.6 10.2-10.2v-35.8c0-2.3-1.8-4.1-4-4.1zm-35.1 18.1v-.1zm7.9 3.9-22.5-17.6h45.2z" fill="#3ae7e1"/></svg>