<svg enable-background="new 0 0 32 32" height="32" viewBox="0 0 32 32" width="32" xmlns="http://www.w3.org/2000/svg"><path d="m5 0h22c2.762 0 5 2.239 5 5v22c0 2.762-2.238 5-5 5h-22c-2.761 0-5-2.238-5-5v-22c0-2.761 2.239-5 5-5z" fill="#0082c9"/><path d="m13.958 27.497s.248-.685.538-1.308c4.692-10.104 10.719-16.759 13.393-19.78 2.164-2.447 1.317-2.062.358-1.438-3.91 2.543-11.228 10.715-14.024 13.546-.518.521-1.691 1.754-1.956 1.754-.299 0-1.298-.461-1.869-.797-2.182-1.279-4.269-2.527-5.578-2.999-2.789-1.003-2-.05-1.841.269.498.996 7.233 6.396 9.464 8.944.691.791 1.515 1.809 1.515 1.809z" fill="#fff" stroke="#fff" stroke-miterlimit="10" stroke-width=".75"/></svg>