<svg version="1.1" viewBox="0 0 100 100" xmlns="http://www.w3.org/2000/svg">
 <defs>
  <style>.st0 {
        fill: #eb2738;
      }

      .st1 {
        fill: #fefdfd;
      }</style>
 </defs>
 <path class="st0" d="M47.98.05c33.87-1.57,59.24,30.95,50.16,63.58-9.81,35.22-54.06,48.33-81.39,23.72C-16.68,57.26,3.12,2.13,47.98.05h0ZM77.69,90.27v-53.97c-.13-8.13-5.87-13.57-13.86-14.04-6.64-.4-13.68.07-20.32.19-3.75.07-8.23-.45-11.79.57-5.37,1.55-9.14,7.12-9.51,12.57.49,9.41-.63,19.46,0,28.8.56,8.18,6.26,12.94,14.21,13.34,8.98.46,18.42-.49,27.4-.01,4.33.23,7.87,1.69,10.67,5.05,1.97,2.36,2.33,4.06,2.92,6.98.04.19.01.57.27.52h0s0,0,0,0Z"/>
 <path class="st1" d="M77.69,90.27c-.25.05-.23-.33-.27-.52-.59-2.92-.94-4.62-2.92-6.98-2.81-3.35-6.34-4.82-10.67-5.05-8.98-.48-18.41.48-27.4.01-7.95-.41-13.65-5.16-14.21-13.34-.64-9.34.48-19.38,0-28.8.37-5.46,4.13-11.02,9.51-12.57,3.56-1.03,8.05-.5,11.79-.57,6.64-.12,13.68-.59,20.32-.19,7.98.48,13.73,5.92,13.87,14.04v53.97s0,0,0,0h0ZM59.15,59.18v-18.11s-.25-.26-.26-.26h-17.84s-.26.25-.26.26v18.11h18.37,0Z"/>
 <path class="st0" d="M59.15,59.18h-18.37v-18.11s.25-.26.26-.26h17.84s.26.25.26.26v18.11h0Z"/>
</svg>
