<svg height="116.929" width="116.929" xmlns="http://www.w3.org/2000/svg"><g transform="translate(0 -935.433)"><circle cx="59.067" cy="990.442" fill="#007cc3" fill-rule="evenodd" r="54.199"/><path d="m47.396023 972.44114s-1.527128-2.95852-1.628934-3.36658c-.101828-.40811-.916288-4.59081-.916288-4.59081l1.018094-1.83636 2.239817-3.36657 3.2579-2.55047.81447-.30606 7.839353-2.95854.712658-.71413-.814474-1.22421-1.119908-.61209-2.055164-.5276-5.14863-.52758-3.995263.0351-2.748853.61212-2.443439-.91817-3.05429-.40807-4.47961-.10207-2.239821-.10206-3.766943 1.42825-5.701339 6.63119-.712671 2.55045-.407238 2.24438-1.934371 4.18275-1.221738 3.9787-.610839 4.28478v.91815l-2.952483 4.48882-1.628955 3.3666v4.79485l.509045 9.89571.916289 3.57088 1.832578 3.2645 2.341609 2.1424 1.01809 4.1829 3.868776 8.5695 4.581442 5.5087.305398.3061 1.628969 8.2635-5.59952 10.202-1.527141 2.3462-1.425346.9182-2.239807-.3063-1.323517.5104-1.527149-.1012-1.018095.816-1.934382-.51-1.934379-.306-1.628956 1.0201-.407242 1.7342 1.11991-1.0201 1.730757-.3061v1.6324l2.748866-.6119 1.52714.1012 2.647047.6123s2.341623.1012 2.748865.1012c.407244 0 2.850659.5099 2.850659.5099h1.832575l.916287.51 1.32352-.2039 1.32353.8163h2.036198l.407218-1.3263v-.7142l1.32354.6122 1.018093 1.0202.610863 1.1223.101839-1.3266-.712669-1.632s-.509045-.9182-.916287-.9182c-.40723 0-1.93438-.5103-1.93438-.5103l-1.11991.3062-1.119896-.6124-1.221715.5105-1.018103-.5105-.40723-1.0199-.712668-.3064.610849-1.8361 1.832577-4.1826 2.443429-4.0807 2.138013-2.5507.814472-1.0199s1.018092-1.5303 1.018092-1.9383c0-.4083.203629-4.6928.203629-4.6928l-1.32353-2.7547-.610852-2.2444 11.809908 2.8567h.712677l10.079134 7.2432 1.425336 1.8364.509046 7.0391-.203627 1.6325-.712667 1.3261-.814473.8161-.305427 1.4281-.407252.7144-1.934368.3058-1.83259-.612-1.1199-.3061h-2.137988l-1.018103.816-.509046 1.1223.101829 1.2244.61085-1.1223.712668-.7141.61085-.1012-.101828 1.0201.71268.6121 1.730762-.5101h.814459l.101828 1.1223 2.443429.3061 1.730759-.3061 1.323519.4079 1.934393.51.712669-.1012.610839-.4079.610873 1.9382.305414-2.0406-.509035-2.4483-1.11991-.9181.40723-1.5304-.916276-1.7341.101839-6.4273 5.090476 6.0192 6.719443 5.3049s4.581428 1.6324 4.988658 1.6324c.407242 0 3.563338-.4081 3.563338-.4081l2.036184-3.3665-1.52714-4.591.610861-1.5303-3.257908-4.2845-6.901547-7.0273-1.650461-5.5211.101839-3.7747-1.527138-3.9788-1.730749-3.1625 1.018082-3.1626-.814459-4.5906-3.471946-7.81532 1.282515-.21644-2.152432-3.72617 1.398448-.4439-2.458316-4.00742 1.033985-.5574-1.842641-3.0252.600764-.33635-2.229731-1.80602.814473-.42325-5.803131-4.06557z"/></g></svg>