<svg height="116.929" width="116.929" xmlns="http://www.w3.org/2000/svg"><g transform="translate(0 -935.433)"><circle cx="59.067" cy="990.442" fill="#007cc3" fill-rule="evenodd" r="54.199"/><path d="M47.396 972.441s-1.527-2.958-1.629-3.366c-.102-.409-.916-4.591-.916-4.591l1.018-1.837 2.24-3.366 3.258-2.55.814-.307 7.84-2.958.712-.714-.814-1.225-1.12-.612-2.055-.527-5.15-.528-3.994.035-2.75.612-2.443-.918-3.054-.408-4.48-.102-2.24-.102-3.766 1.428-5.702 6.631-.712 2.55-.408 2.245-1.934 4.183-1.222 3.979-.61 4.284v.919l-2.953 4.488-1.629 3.367v4.795l.51 9.896.915 3.57 1.833 3.265 2.342 2.142 1.018 4.183 3.868 8.57 4.582 5.508.305.307 1.63 8.263-5.6 10.202-1.527 2.346-1.426.918-2.24-.306-1.323.51-1.527-.1-1.018.815-1.935-.51-1.934-.306-1.629 1.02-.407 1.735 1.12-1.02 1.73-.307v1.633l2.75-.612 1.526.101 2.647.612s2.342.102 2.75.102c.407 0 2.85.51 2.85.51h1.833l.916.51 1.323-.204 1.324.816h2.036l.407-1.326v-.715l1.324.613 1.018 1.02.61 1.122.103-1.326-.713-1.632s-.51-.919-.916-.919c-.408 0-1.935-.51-1.935-.51l-1.12.306-1.12-.612-1.221.51-1.018-.51-.408-1.02-.712-.306.61-1.837 1.833-4.182 2.444-4.08 2.138-2.552.814-1.02s1.018-1.53 1.018-1.938c0-.408.204-4.693.204-4.693l-1.324-2.754-.61-2.245 11.81 2.857h.712l10.08 7.243 1.425 1.837.509 7.039-.204 1.632-.713 1.326-.814.816-.306 1.429-.407.714-1.934.306-1.833-.612-1.12-.306h-2.138l-1.018.816-.509 1.122.102 1.224.61-1.122.713-.714.611-.101-.102 1.02.713.612 1.73-.51h.815l.102 1.122 2.444.306 1.73-.306 1.324.408 1.934.51.713-.101.61-.408.612 1.938.305-2.04-.509-2.449-1.12-.918.407-1.53-.916-1.734.102-6.428 5.09 6.02 6.72 5.304s4.581 1.633 4.989 1.633c.407 0 3.563-.408 3.563-.408l2.036-3.367-1.527-4.59.61-1.531-3.257-4.285-6.902-7.027-1.65-5.52.102-3.776-1.527-3.978-1.731-3.163 1.018-3.163-.815-4.59-3.472-7.815 1.283-.217-2.152-3.726 1.398-.444-2.458-4.007 1.034-.558-1.843-3.025.6-.336-2.229-1.806.815-.424-5.804-4.065z"/></g></svg>