<?xml version="1.0" encoding="utf-8"?>
<!-- Generator: Adobe Illustrator 28.3.0, SVG Export Plug-In . SVG Version: 6.00 Build 0)  -->
<svg version="1.1" id="Layer_1" xmlns="http://www.w3.org/2000/svg" xmlns:xlink="http://www.w3.org/1999/xlink" x="0px" y="0px"
	 viewBox="0 0 45 45" style="enable-background:new 0 0 45 45;" xml:space="preserve">
<style type="text/css">
	.st0{fill:#4D6BFE;}
</style>
<path class="st0" d="M44.5,8.7c-0.5-0.2-0.7,0.2-1,0.4c-0.1,0.1-0.2,0.2-0.3,0.3c-0.7,0.7-1.5,1.2-2.6,1.2c-1.6-0.1-2.9,0.4-4.1,1.6
	c-0.2-1.5-1.1-2.3-2.3-2.9C33.7,9,33,8.7,32.6,8.1c-0.3-0.5-0.4-1-0.6-1.5c-0.1-0.3-0.2-0.6-0.6-0.7c-0.4-0.1-0.5,0.3-0.7,0.5
	c-0.6,1.1-0.8,2.3-0.8,3.5c0.1,2.7,1.2,4.8,3.4,6.4c0.3,0.2,0.3,0.4,0.2,0.6c-0.2,0.5-0.3,1-0.5,1.6c-0.1,0.3-0.3,0.4-0.6,0.3
	c-1.2-0.5-2.3-1.3-3.3-2.2c-1.6-1.6-3.1-3.3-4.9-4.6c-0.4-0.3-0.9-0.6-1.3-0.9c-1.8-1.8,0.2-3.3,0.7-3.4c0.5-0.2,0.2-0.8-1.5-0.8
	c-1.6,0-3.1,0.6-5,1.3c-0.3,0.1-0.6,0.2-0.9,0.3C14.8,8,13,7.9,11.1,8.1C7.5,8.5,4.7,10.2,2.6,13c-2.5,3.4-3.1,7.3-2.4,11.4
	C1,28.7,3.2,32.2,6.6,35c3.5,2.9,7.5,4.3,12.1,4c2.8-0.2,5.9-0.5,9.4-3.5c0.9,0.4,1.8,0.6,3.3,0.7c1.2,0.1,2.3-0.1,3.2-0.2
	c1.4-0.3,1.3-1.6,0.8-1.8c-4-1.9-3.2-1.1-4-1.7c2.1-2.4,5.1-5,6.4-13.1c0.1-0.6,0-1.1,0-1.6c0-0.3,0.1-0.4,0.4-0.5
	c1-0.1,2-0.4,2.9-0.9c2.6-1.4,3.7-3.8,3.9-6.6C45,9.4,45,8.9,44.5,8.7z M21.7,34.1c-3.9-3.1-5.8-4.1-6.6-4c-0.7,0-0.6,0.9-0.4,1.4
	c0.2,0.5,0.4,0.9,0.7,1.4c0.2,0.3,0.4,0.8-0.2,1.1c-1.3,0.8-3.5-0.3-3.6-0.3c-2.6-1.5-4.7-3.5-6.2-6.2C4,24.8,3.1,22,3,19
	c0-0.7,0.2-1,0.9-1.1c0.9-0.2,1.9-0.2,2.9-0.1c4,0.6,7.4,2.4,10.3,5.2c1.6,1.6,2.9,3.5,4.1,5.4c1.3,2,2.8,3.9,4.6,5.5
	c0.7,0.5,1.2,1,1.7,1.3C25.9,35.4,23.4,35.4,21.7,34.1L21.7,34.1z M23.6,22c0-0.3,0.3-0.6,0.6-0.6c0.1,0,0.1,0,0.2,0
	c0.1,0,0.2,0.1,0.2,0.1c0.1,0.1,0.2,0.2,0.2,0.4c0,0.3-0.3,0.6-0.6,0.6C23.8,22.6,23.6,22.3,23.6,22L23.6,22z M29.4,25
	c-0.4,0.2-0.7,0.3-1.1,0.3c-0.6,0-1.2-0.2-1.5-0.5c-0.5-0.4-0.9-0.7-1-1.4c-0.1-0.3,0-0.8,0-1.1c0.1-0.6,0-1-0.4-1.4
	c-0.4-0.3-0.8-0.4-1.3-0.4c-0.2,0-0.4-0.1-0.5-0.1c-0.2-0.1-0.4-0.4-0.2-0.7c0.1-0.1,0.3-0.4,0.4-0.4c0.7-0.4,1.4-0.3,2.1,0
	c0.7,0.3,1.2,0.8,1.9,1.5c0.7,0.8,0.9,1.1,1.3,1.7c0.3,0.5,0.6,1,0.8,1.6C30,24.5,29.9,24.8,29.4,25L29.4,25z"/>
</svg>
