<svg version="1.1" viewBox="0 0 100 100" xmlns="http://www.w3.org/2000/svg">
 <defs>
  <style>.st0 {
        fill: #fff;
      }

      .st1 {
        fill: url(#linear-gradient1);
      }

      .st2 {
        fill: url(#linear-gradient);
      }</style>
  <linearGradient id="linear-gradient" x1="50" x2="50" y1="100" gradientUnits="userSpaceOnUse">
   <stop stop-color="#008cea" offset="0"/>
   <stop stop-color="#00e995" offset="1"/>
  </linearGradient>
  <linearGradient id="linear-gradient1" x1="49.99" x2="49.99" y1="93.08" y2="6.92" gradientUnits="userSpaceOnUse">
   <stop stop-color="#6c46c3" offset="0"/>
   <stop stop-color="#7d53dc" offset="1"/>
  </linearGradient>
 </defs>
 <path class="st2" d="M97.93,64.35c1.2-3.95,1.8-8.05,2.06-12.17v-.19s.01-3.7.01-3.7c-.19-2.87-.47-5.75-1.09-8.57-.95-4.47-2.52-8.82-4.64-12.86-2.25-4.25-5.06-8.19-8.4-11.6C76.51,5.43,63.06-.12,49.61,0c-12.81.01-25.52,5.27-34.67,14.35-3.6,3.54-6.68,7.62-9.03,12.11-1.84,3.46-3.26,7.14-4.27,10.94-1.02,3.61-1.41,7.37-1.64,11.11v2.89c.22,3.37.62,6.75,1.42,10.04.99,4.2,2.51,8.27,4.53,12.07,2.52,4.66,5.73,8.95,9.56,12.57,4.57,4.4,9.97,7.89,15.81,10.26,12.87,5.26,27.9,4.84,40.4-1.26,1.52-.65,2.97-1.57,4.63-1.8,1.15-.18,2.14.54,3.13.97,5.44,2.44,11.53,3.44,17.45,2.85,1.12-.09,2.21-.49,3.06-1.24v-.82c-.52-1.07-1.44-1.82-2.27-2.65-1.74-1.64-3.36-3.47-4.36-5.69-1.53-3.32-1.18-7.17-.09-10.57,1.33-4.01,3.57-7.67,4.64-11.79ZM65.24,55.39c-10.75-.01-21.49,0-32.23-.01-1.83.03-3.59-1.11-4.36-2.79-.56-1.11-.51-2.4-.43-3.61.25-1.64,1.33-3.11,2.84-3.77,1.1-.52,2.33-.44,3.52-.44,10.74.01,21.49-.01,32.22.01,2.34-.05,4.48,1.86,4.8,4.2.33,2.17-.37,4.69-2.41,5.77-1.18.72-2.62.65-3.95.64ZM45.13,71.62c-4.17,0-8.34.04-12.51-.01-2.51-.11-4.47-2.45-4.5-4.94-.25-2.7,1.7-5.51,4.49-5.65,4.1-.07,8.21-.01,12.32-.03,1.83-.06,3.63.99,4.46,2.65.74,1.49.64,3.25.27,4.82-.75,1.82-2.54,3.19-4.52,3.15ZM54.67,28.46c4.11,0,8.22-.01,12.33.01,2.09.01,4.04,1.57,4.53,3.62.39,1.77.22,3.77-.93,5.24-.96,1.09-2.36,1.77-3.81,1.76-4.04,0-8.07.01-12.11-.01-1.72,0-3.27-1.04-4.16-2.47-.64-1.41-.77-3.04-.41-4.55.52-2.04,2.47-3.6,4.55-3.6Z"/>
 <path class="st1" d="M92.11,40.01c-.22-.89-.49-1.75-.77-2.62-1.23-3.65-2.88-7.15-4.89-10.42-.31-.51-.64-1.01-.97-1.51-2.78-3.9-6.18-7.34-9.97-10.24-4.69-3.32-9.98-5.77-15.51-7.25-6.59-1.36-13.46-1.4-20.05-.03-5.43,1.45-10.61,3.85-15.24,7.06-3.89,2.92-7.38,6.42-10.22,10.41-.26.38-.51.76-.75,1.16-2.18,3.52-3.94,7.34-5.21,11.3-.01.05-.05.12-.06.18-1.22,3.52-1.42,7.27-1.62,10.97-.04,1.25.04,2.5.11,3.75.2,2.86.52,5.75,1.35,8.5.85,2.74,1.88,5.41,3.16,7.97.75,1.49,1.55,2.95,2.47,4.35,3.11,4.7,7.17,8.76,11.76,11.99,4.43,2.87,9.26,5.14,14.35,6.46,6.44,1.34,13.14,1.36,19.6.12,3.62-.83,7.06-2.31,10.4-3.92,1.96-1.01,4.15-1.5,6.31-1.87,3.89.01,7.11,2.5,10.8,3.36-.23-.75-.47-1.47-.67-2.22-.44-1.95-1.04-3.89-.99-5.9,0-1.92.47-3.77.9-5.62.47-2.21,1.18-4.36,2.11-6.41.85-1.82,1.7-3.64,2.38-5.52,1.33-3.4,1.94-7.02,2.15-10.66,0-.12.02-.39.02-.51.23-4.31-.04-8.65-.95-12.86ZM49.65,68.47c-.75,1.82-2.54,3.19-4.52,3.15-4.17,0-8.34.04-12.51-.01-2.51-.11-4.47-2.45-4.5-4.94-.25-2.7,1.7-5.51,4.49-5.65,4.1-.07,8.21-.01,12.32-.03,1.83-.06,3.63.99,4.46,2.65.74,1.49.64,3.25.27,4.82ZM69.18,54.75c-1.18.72-2.62.65-3.95.64-10.75-.01-21.49,0-32.23-.01-1.83.03-3.59-1.11-4.36-2.79-.56-1.11-.51-2.4-.43-3.61.25-1.64,1.33-3.11,2.84-3.77,1.1-.52,2.33-.44,3.52-.44,10.74.01,21.49-.01,32.22.01,2.34-.05,4.48,1.86,4.8,4.2.33,2.17-.37,4.69-2.41,5.77ZM70.6,37.34c-.96,1.09-2.36,1.77-3.81,1.76-4.04,0-8.07.01-12.11-.01-1.72,0-3.27-1.04-4.16-2.47-.64-1.41-.77-3.04-.41-4.55.52-2.04,2.47-3.6,4.55-3.6,4.11,0,8.22-.01,12.33.01,2.09.01,4.04,1.57,4.53,3.62.39,1.77.22,3.77-.93,5.24Z"/>
 <path class="st0" d="M69.18,54.75c-1.18.72-2.62.65-3.95.64-10.75-.01-21.49,0-32.23-.01-1.83.03-3.59-1.11-4.36-2.79-.56-1.11-.51-2.4-.43-3.61.25-1.64,1.33-3.11,2.84-3.77,1.1-.52,2.33-.44,3.52-.44,10.74.01,21.49-.01,32.22.01,2.34-.05,4.48,1.86,4.8,4.2.33,2.17-.37,4.69-2.41,5.77Z"/>
 <path class="st0" d="M49.65,68.47c-.75,1.82-2.54,3.19-4.52,3.15-4.17,0-8.34.04-12.51-.01-2.51-.11-4.47-2.45-4.5-4.94-.25-2.7,1.7-5.51,4.49-5.65,4.1-.07,8.21-.01,12.32-.03,1.83-.06,3.63.99,4.46,2.65.74,1.49.64,3.25.27,4.82Z"/>
 <path class="st0" d="M70.6,37.34c-.96,1.09-2.36,1.77-3.81,1.76-4.04,0-8.07.01-12.11-.01-1.72,0-3.27-1.04-4.16-2.47-.64-1.41-.77-3.04-.41-4.55.52-2.04,2.47-3.6,4.55-3.6,4.11,0,8.22-.01,12.33.01,2.09.01,4.04,1.57,4.53,3.62.39,1.77.22,3.77-.93,5.24Z"/>
</svg>
