<svg version="1.1" viewBox="0 0 100 100" xmlns="http://www.w3.org/2000/svg">
 <defs>
  <style>.st0 {
        fill: #44cc74;
        fill-rule: evenodd;
      }</style>
 </defs>
 <path class="st0" d="M5.35,38.78C5.35,17.36,22.72,0,44.13,0h11.74c21.42,0,38.78,17.36,38.78,38.78v11.74c0,20.54-15.98,37.36-36.18,38.69-3.62,5.69-7.75,10.79-8.46,10.79s-4.83-5.11-8.45-10.79c-20.21-1.33-36.2-18.15-36.2-38.69v-11.74ZM63.38,73.07c4-1.89,7.54-4.59,10.39-7.9-8.16-22.06-28.64-36.52-50.84-36.46-2.3,3.9-3.79,8.35-4.21,13.1,19.72-.6,37.73,12.17,44.66,31.26ZM55.06,75.65c-5.79-15.49-20.33-25.52-35.92-25.14,2.75,14.54,15.52,25.54,30.86,25.54,1.72,0,3.41-.14,5.06-.41ZM30.04,20.4c20.99,2.45,39.63,15.94,49.26,35.59,1.36-3.52,2.11-7.34,2.11-11.34,0-17.35-14.06-31.41-31.41-31.41-7.58,0-14.53,2.69-19.96,7.16Z"/>
</svg>
