<svg data-name="Layer 1" xmlns="http://www.w3.org/2000/svg" width="100" height="100"><defs><linearGradient id="a" x1="50" y1="-687.73" x2="50" y2="-603.9" gradientTransform="translate(0 696)" gradientUnits="userSpaceOnUse"><stop offset="0" stop-color="#f58536"/><stop offset="1" stop-color="#d16929"/></linearGradient></defs><path fill="url(#a)" d="M13 28.9 50 7.8l37 21.1v42.2L50 92.2 13 71.1V28.9z"/><path d="M71.4 35.8v9l-22.1 9.8-22.1-9.8v-9h-3.9v33h51.9v-33zm0 29.2H27.3V49.2L49.4 59l22.1-9.8V65z" fill="#fff"/><path fill="#fff" d="M49.3 21.7 23.4 33.3v5.1h3.9v-2.5l22-9.9 22.1 9.9v2.5h3.9v-5.1l-26-11.6z"/><path fill="#fff" d="M35.1 48.4v-6.3h28.4v6.3l4-1.8v-8.5H31.2v8.5l3.9 1.8z"/></svg>