<svg xmlns="http://www.w3.org/2000/svg" width="1024" height="1024" viewBox="0 0 6646.438 1808.406" xml:space="preserve"><path d="M1941.854 952.33c-.512-32.421-5.264-64.387-14.122-95.011-9.537-32.967-23.609-65.392-41.926-96.65 11.562-71.547 6.978-144.915-13.69-218.44-11.541-41.057-28.131-81.21-49.311-119.345-19.672-35.419-43.919-70.187-72.067-103.338-31.684-37.315-67.901-72.117-107.644-103.438-36.9-29.08-78.065-56.116-122.353-80.358-76.318-41.774-158.534-74.302-244.365-96.68-80.719-21.046-167.156-33.759-256.909-37.786A1279.65 1279.65 0 0 0 962.389 0C902.42 0 842.222 4.356 783.467 12.947c-49.226 7.197-97.431 17.164-143.274 29.621-47.951 13.031-94.886 29.212-139.502 48.094-50.894 21.539-98.682 46.347-142.038 73.735-46.704 29.503-90.009 63.091-128.712 99.831-30.691 29.134-58.024 59.827-81.24 91.227-25.369 34.312-46.777 70.74-63.63 108.273C34.264 576.882 22.98 690.81 51.395 802.857c-13.528 21.175-24.311 41.972-32.686 62.988-6.265 15.721-14.832 39.938-16.9 68.624-3.352 46.483-1.35 74.447.446 91.438 3.527 33.355 10.771 62.672 22.147 89.623 9.278 21.98 21.334 42.17 36 60.321-.038 55.804 2.98 101.921 9.485 144.999 17.548 116.225 71.921 214.712 161.608 292.724 42.596 37.051 91.335 67.933 149.001 94.414 61.356 28.177 128.956 49.795 206.661 66.092 91.77 19.246 187.74 29.994 293.393 32.86 36.408.987 70.274 1.467 103.535 1.467 95.347 0 181.456-4.039 263.248-12.347 71.786-7.292 131.36-17.139 187.483-30.992 70.859-17.49 131.694-41.03 185.98-71.965 94.394-53.789 163.459-130.731 205.276-228.689 22.346-52.347 37.618-107.851 46.687-169.684 7.049-48.052 9.616-97.096 7.777-149.204a201.595 201.595 0 0 0 24.056-30.978c13.297-21.082 22.762-44.8 28.131-70.495 6.527-31.234 9.599-62.094 9.131-91.723z"/><path d="M1841.519 882.767c-9.519-32.904-24.211-63.411-42.839-92.013-5.019-7.706-6.967-14.699-4.97-24.129 14.215-67.133 10.532-133.702-7.988-199.588-19.997-71.141-56.157-133.497-103.742-189.539-57.67-67.919-127.362-120.972-205.17-163.561-144.174-78.916-299.675-116.421-462.965-123.748-73.351-3.291-146.507.178-219.324 10.825-90.079 13.171-177.328 36.182-261.21 71.682-90.368 38.245-173.043 88.552-244.462 156.349-52.215 49.566-95.568 105.782-125.177 171.723-44.799 99.771-54.933 202.215-21.193 307.444 2.806 8.75.969 14.945-4.178 21.984-15.76 21.55-29.588 44.29-39.522 69.219-5.448 13.672-9.811 27.599-10.877 42.378-1.823 25.289-2.482 50.613.187 75.853 4.82 45.579 19.235 87.007 53.508 119.497 1.912 1.812 3.432 4.037 5.131 6.065 0 10.788.016 21.433-.003 32.079-.08 44.657 1.805 89.103 8.496 133.419 14.547 96.349 59.101 175.753 132.348 239.464 38.498 33.486 81.716 59.599 127.97 80.84 60.211 27.65 123.288 46.365 188 59.937 91.58 19.206 184.374 28.487 277.715 31.018 118.642 3.217 237.235 1.552 355.504-10.462 59.061-5.999 117.636-14.649 175.288-28.879 57.127-14.1 112.161-33.731 163.499-62.986 76.69-43.701 133.218-105.512 167.911-186.781 20.239-47.41 33.079-96.953 40.553-147.905 7.668-52.278 9.002-104.788 5.718-157.473-.369-5.917-.05-11.877-.05-17.788 2.937-2.42 5.384-4.666 8.055-6.603 25.484-18.481 40.785-43.486 47.171-74.041 10.102-48.333 10.449-96.465-3.384-144.28zM273.867 580.67c15.423-42.429 38.733-80.259 67.65-114.756 40.234-47.999 88.394-86.664 141.548-119.316 73.876-45.381 153.785-76.141 237.75-96.764 95.823-23.535 193.199-32.104 291.593-27.342 125.71 6.083 246.702 32.789 360.861 87.046 35.042 16.654 67.728 37.215 97.231 62.528 23.562 20.216 42.46 44.094 55.294 72.539 16.478 36.523 19.064 74.81 12.038 113.527-15.228 83.918-58.692 150.389-127.298 200.746-32.412 23.79-67.708 42.405-104.55 58.172-20.812 8.907-41.971 17.004-62.867 25.72-7.361 3.07-14.59 6.571-21.522 10.505-3.959 2.247-7.641 5.372-10.657 8.798-4.344 4.935-3.62 12.412 2.112 15.637 6.241 3.512 13.196 6.269 20.18 7.856 23.675 5.38 47.793 4.368 71.702 2.586 65.971-4.916 130.798-16.558 194.256-35.383 50.825-15.077 98.652-36.471 141.532-68.104 2.101-1.55 4.531-2.67 6.872-3.865.376-.192 1.089.274 3.01.832-1.404 3.592-2.525 7.189-4.163 10.534-16.054 32.79-38.637 60.526-65.915 84.585-32.228 28.425-68.48 50.64-107.041 69.312-59.692 28.903-122.562 48.447-187.144 62.572-73.692 16.117-148.341 25.041-223.671 29.451a1731.16 1731.16 0 0 1-223.814-1.368c-101.981-7.228-202.484-23.047-299.874-55.364-44.368-14.723-87.216-32.925-127.631-56.556-28.293-16.544-54.72-35.628-78.267-58.519-36.726-35.705-62.921-77.555-72.806-128.322-10.437-53.609-5.017-106.093 13.591-157.287zm1396.166 701.072c-8.101 41.406-27.413 77.619-54.541 109.731-25.214 29.846-55.533 53.561-89.028 73.404-49.683 29.433-103.323 49.099-158.883 63.855-61.283 16.276-123.648 26.403-186.707 32.902-83.649 8.621-167.494 11.972-251.526 10.673-70.68-1.093-141.17-5.56-211.156-15.835-73.337-10.767-145.27-27.245-214.044-55.647-45.182-18.658-87.775-41.863-125.646-73.045-49.531-40.783-86.178-90.48-104.447-152.657-6.983-23.767-11.09-47.992-10.655-72.847.067-3.835.752-7.66 1.215-12.106 6.243 0 11.477-.532 16.57.091 23.922 2.923 47.923 3.145 71.869 1.405 62.28-4.526 118.645 11.676 169.981 46.75 30.914 21.121 59.273 45.329 86.364 71.028 21.268 20.174 42.006 40.908 62.869 61.506 24.355 24.045 51.325 44.453 82.109 59.635 34.598 17.062 71.038 26.674 109.767 25.979 35.863-.644 69.714-9.88 101.889-25.541 25.92-12.617 49.414-28.871 71.493-47.294 7.668-6.399 15.33-12.846 23.393-18.726 39.874-29.078 84.492-37.586 132.713-30.067 27.076 4.222 53.037 12.712 79.27 20.262 24.931 7.175 49.896 14.553 75.274 19.761 26.933 5.527 54.233 5.383 81.262-1.556 27.675-7.105 47.969-23.078 58.815-49.476 6.295-15.322 10.566-31.488 15.514-47.346 4.161-13.334 7.463-26.955 12.058-40.131 12.111-34.733 36.079-56.777 72.07-65.367 28.995-6.921 58.004-13.777 88.193-20.943.968 4.127 2.269 7.174 2.313 10.24.586 40.68-.536 81.331-8.368 121.362zM4754.837 846.604c.25-8.047.625-14.539.628-21.031.04-81.269.021-162.538.036-243.807.001-5.993-.217-12.017.287-17.974 1.016-11.998 6.368-17.986 18.249-20.347 4.525-.899 9.262-.995 13.903-1.006 33.992-.079 67.985-.189 101.976.002 26.485.149 32.59 6.49 32.909 33.322.111 9.325.021 18.652.021 27.978 0 271.785.005 543.569-.03 815.354-.001 7.311.258 14.726-.819 21.91-1.931 12.875-8.39 18.499-21.341 19.654-4.632.413-9.324.203-13.988.205-29.327.014-58.653.019-87.979.006-36.106-.017-39.074-2.967-39.195-38.232-.028-7.967-.461-15.933-.8-23.896-.016-.381-.924-.723-2.549-1.912-2.149 1.495-4.933 2.977-7.167 5.05-41.858 38.859-91.688 61.052-147.653 69.94-48.109 7.64-95.742 4.109-142.536-8.988-103.222-28.891-172.573-95.666-209.9-194.566-36.394-96.426-36.333-194.55-.391-291.28 30.077-80.943 84.25-141.18 163.827-176.927 36.188-16.256 74.413-24.861 114.015-27.194 34.112-2.009 67.803.272 101.191 8.308 40.206 9.676 76.457 26.966 108.604 52.922 4.65 3.755 9.325 7.481 14.03 11.167.478.377 1.249.383 4.672 1.342zm-361.096 283.71c-.173 30.822 7.36 70.336 27.476 106.88 20.781 37.751 51.123 64.76 91.991 78.667 39.561 13.462 79.97 13.83 119.984 2.004 46.643-13.786 80.11-43.782 101.864-86.944 21.968-43.584 27.306-90.043 23.115-138.06-2.879-32.98-11.881-64.083-28.619-92.759-19.105-32.732-46.097-56.384-81.237-70.991-27.811-11.56-56.788-13.897-86.308-12.177-63.634 3.707-111.128 33.439-141.911 89.312-19.466 35.333-26.277 73.718-26.355 124.068zM5183.233 1395.071c0 14.258.08 23.548-.033 32.836-.057 4.647.025 9.38-.813 13.916-2.153 11.643-8.463 17.405-20.148 18.746-3.953.454-7.986.287-11.982.289-32.654.019-65.309.01-97.963.01-1.333 0-2.666.021-3.999-.012-21.945-.553-28.016-6.723-28.466-28.99-.081-3.995-.018-7.992-.018-11.988 0-278.406-.001-556.811.006-835.217 0-6.659-.268-13.345.218-19.973.949-12.948 6.652-19.234 19.457-21.485 4.549-.8 9.28-.765 13.928-.773 33.321-.06 66.647.352 99.96-.157 26.292-.401 34.153 8.085 34.022 34.506-.41 83.253-.167 166.51-.116 249.765.004 6.422.484 12.843.724 18.782 5.469 1.846 7.432-1.518 9.729-3.54 51.161-45.019 111.537-66.156 178.934-69.286 40.306-1.872 79.866 2.643 118.395 14.579 87.111 26.987 149.418 83.16 188.096 164.788 31.783 67.076 41.916 138.437 34.469 212.261-3.761 37.287-11.619 73.69-25.635 108.483-33.104 82.175-88.385 143.807-171.258 177.541-71.232 28.995-144.688 33.748-219.292 13.07-37.187-10.308-70.279-28.255-99.802-52.96-4.927-4.123-9.909-8.179-18.413-15.191zm-2.182-277.165c.845 11.951 1.496 23.919 2.569 35.85 3.169 35.191 14.793 67.533 34.244 96.904 16.507 24.926 38.221 44.36 65.325 57.276 44.74 21.319 91.397 23.483 138.339 10.107 53.661-15.29 88.808-51.756 109.838-102.603 17.813-43.071 19.818-87.972 14.779-133.532-3.187-28.814-12.392-55.848-26.863-80.946-19.275-33.428-46.724-57.529-82.642-72.219-26.571-10.867-54.184-13.262-82.354-11.946-69.49 3.246-119.557 36.389-150.528 98.5-16.1 32.29-21.687 66.896-22.707 102.609zM2948.944 1173.122c8.583 87.081 69.183 151.718 154.136 160.354 77.035 7.832 146.25-13.263 209.823-55.766 5.536-3.702 10.771-7.889 16.481-11.288 12.116-7.212 21.544-6.051 29.853 4.981 17.628 23.405 34.835 47.139 51.706 71.096 6.995 9.933 6.257 18.115-2.09 27.183-6.735 7.317-14.318 13.951-22.062 20.226-43.739 35.435-93.71 57.864-148.215 71.082-34.466 8.358-69.399 12.919-104.73 14.434-48.41 2.075-96.027-3.828-141.614-20.143-104.308-37.33-169.995-111.189-200.149-216.993-16.072-56.394-20.834-113.939-11.974-172.086 18.846-123.689 82.095-215.44 198.391-265.672 83.986-36.277 171.208-39.413 257.572-8.954 104.928 37.006 168.758 112.427 195.356 219.925 10.362 41.878 11.401 84.315 7.596 127.028-.471 5.292-1.634 10.521-2.434 15.785-1.64 10.781-8.536 16.375-18.735 17.753-6.558.886-13.296.576-19.954.577-141.28.026-282.56.013-423.84.038-7.911.002-15.824.271-25.117.44zm328.486-128.687c-8.28-41.497-26.153-76.131-57.278-103.364-36.465-31.904-79.867-40.092-126.724-35.82-27.156 2.476-51.79 11.941-73.879 27.522-26.19 18.474-44.688 43.296-57.236 72.706-9.208 21.581-10.47 26.546-8.868 39.305 16.743 2.424 302.41 2.518 323.985-.349zM3671.839 1172.664c.664 7.234.674 11.912 1.578 16.41 4.089 20.352 10.839 39.803 20.898 58.003 28.219 51.06 72.311 78.984 129.431 85.972 73.073 8.939 139.932-9.936 201.786-48.51 8.47-5.282 16.463-11.326 24.9-16.665 14.254-9.021 23.095-8.099 32.856 4.809 16.867 22.305 33.307 44.948 49.368 67.84 8.679 12.37 7.824 21.49-3.229 31.985-10.595 10.059-21.917 19.481-33.665 28.178-43.566 32.254-92.913 51.578-145.519 62.958-53.1 11.487-106.75 15.816-160.851 8.874-159.059-20.407-247.398-125.348-276.889-243.517-11.223-44.969-15.71-90.58-12.101-136.688 4.47-57.101 18.94-111.502 49.268-160.762 46.106-74.886 111.806-123.71 196.784-146.588 63.804-17.177 127.671-17.788 191.408-.032 99.319 27.668 167.78 90.008 204.447 186.01 21.771 56.998 26.951 116.428 18.454 176.934-.278 1.978-.413 3.984-.815 5.936-2.432 11.789-8.046 17.173-20.229 18.499-5.933.646-11.978.34-17.972.341-141.253.014-282.506.011-423.759.011-7.915.002-15.832.002-26.149.002zm327.09-128.181c-1.975-33.699-25.47-77.185-55.583-103.407-36.637-31.902-79.988-40.062-126.854-35.807-27.17 2.467-51.787 12.042-73.921 27.629-25.082 17.664-43.048 41.285-55.614 69.173-10.364 23.001-12.05 29.357-10.588 42.934 12.757 1.594 292.896 2.91 315.265 1.362 2.507-.173 4.951-1.257 7.295-1.884zM6223.843 842.625c4.109-3.728 7.5-6.834 10.922-9.906 41.238-37.018 90.01-56.065 144.893-59.846 36.82-2.537 73.097.957 108.768 11.099 60.244 17.129 102.746 54.494 128.26 111.291 16.279 36.239 23.967 74.746 27.038 114.081 1.915 24.533 2.505 49.22 2.562 73.84.256 112.552.122 225.105.089 337.657-.002 6.65.218 13.373-.639 19.935-1.687 12.924-7.828 18.499-20.995 19.844-3.962.405-7.987.241-11.984.243-33.984.015-67.979-.488-101.95.174-24.98.487-33.669-6.296-33.419-32.616.303-31.965.064-63.934.062-95.902-.004-80.585.106-161.169-.072-241.754-.062-27.958.401-56.058-5.418-83.58-2.733-12.923-6.682-25.758-11.626-38.01-9.569-23.71-27.542-39.294-51.959-46.052-32.908-9.107-65.923-8.574-98.083 3.973-25.841 10.081-44.88 28.148-58.683 51.956-15.267 26.334-24.081 54.885-27.214 84.96-2.273 21.817-3.682 43.823-3.77 65.751-.392 97.899-.166 195.8-.186 293.7-.001 5.991.205 12.021-.384 17.963-1.072 10.811-6.846 16.953-17.442 18.795-3.904.679-7.964.616-11.954.621-35.983.042-71.978-.519-107.946.213-24.449.497-30.984-10.844-30.832-31.245.497-66.595.182-133.196.182-199.795-.001-135.862-.008-271.724.022-407.585.001-6.652-.258-13.386.65-19.937 1.479-10.661 7.77-16.366 18.461-17.772 3.289-.432 6.645-.477 9.971-.48 36.65-.034 73.302.215 109.949-.126 19.333-.18 30.569 3.383 29.371 29.478-.395 8.61.218 17.267.45 25.9.011.443.766.867 2.906 3.132zM2474.127 691.75c-2.333 21.359-2.048 315.435.128 332.306 5.426 4.524 12.336 2.87 18.738 2.887 50.641.132 101.282.074 151.923.077 8.662 0 17.325-.039 25.987.032 3.992.033 8.025-.024 11.967.501 13.176 1.753 18.807 7.452 20.454 20.465.333 2.63.297 5.317.298 7.978.019 29.968.012 59.936.01 89.905 0 1.332.03 2.666-.039 3.995-.943 18.38-7.121 24.541-25.952 25.635-4.65.27-9.326.101-13.99.102-55.305.005-110.611-.012-165.917.023-7.265.005-14.531.269-20.9.396-6.386 6.627-4.199 13.63-4.217 19.979-.171 59.27-.101 118.541-.103 177.811 0 19.313.168 38.628-.055 57.938-.262 22.662-6.077 28.849-28.157 29.008-37.979.273-75.961.088-113.942.039-3.318-.004-6.707-.073-9.941-.721-9.523-1.908-15.191-7.759-16.547-17.511-.729-5.244-.658-10.623-.659-15.942-.028-283.033-.028-566.066-.005-849.098 0-5.321.005-10.673.53-15.958.975-9.802 6.646-15.668 16.21-17.707 3.237-.69 6.548-1.112 9.848-1.4 2.646-.232 5.326-.092 7.992-.092 161.252-.002 322.504-.025 483.756.081 6.59.004 13.302.653 19.739 2.026 8.755 1.867 13.56 8.026 14.614 16.855.471 3.952.502 7.972.507 11.961.039 29.302.026 58.605.015 87.907-.001 2.663.054 5.34-.18 7.987-1.26 14.183-6.799 19.93-21.367 21.385-6.606.66-13.307.475-19.965.477-105.28.025-210.561.005-315.841.045-7.884.002-15.771.387-24.939.628zM5786.38 1121.425c-.003-99.25-.02-198.5.028-297.751.003-7.314-.068-14.695.836-21.927 1.293-10.335 6.592-15.403 16.647-16.876 3.935-.576 7.971-.629 11.961-.634 36.656-.042 73.313-.022 109.969-.014 1.999 0 4.005-.041 5.996.103 15.1 1.092 21.375 7.053 22.954 22.225.48 4.619.253 9.316.253 13.978.01 201.165.02 402.33-.047 603.494-.002 6.622-.288 13.328-1.356 19.845-1.596 9.73-8.168 14.959-17.667 16.409-3.925.599-7.969.56-11.959.564-35.324.04-70.647.129-105.971-.008-26.518-.103-31.559-5.011-31.591-31.668-.122-102.579-.05-205.159-.053-307.74zM5973.13 633.585c-.131 56.361-39.766 88.261-76.766 96.267-23.746 5.138-46.324 3.109-68.545-4.942-44.754-16.215-70.072-64.831-58.948-113.307 8.458-36.861 31.512-60.414 67.715-71.337 20.206-6.096 40.432-6.788 60.991-1.871 45.63 10.912 75.427 48.313 75.553 95.19z"/></svg>