<svg height="2500" viewBox="0 0 276 322" width="2500" xmlns="http://www.w3.org/2000/svg"><path d="m250.8.9h-225.8c-18.2 0-25 6.8-25 25.1v220.9c0 2.1.1 4 .3 5.8.4 4 .5 7.9 4.2 12.3.4.4 4.2 3.3 4.2 3.3 2 1 3.4 1.7 5.7 2.7l111.1 46.6c5.8 2.6 8.2 3.7 12.4 3.6 4.2.1 6.6-.9 12.4-3.6l111.1-46.6c2.3-.9 3.7-1.7 5.7-2.7 0 0 3.8-2.8 4.2-3.3 3.7-4.4 3.8-8.3 4.2-12.3.2-1.8.3-3.7.3-5.8v-220.9c0-18.3-6.7-25.1-25-25.1" fill="#5f5f5f"/><path d="m235.6 223-.1.5-.1.6-.1.5-.2.5-.1.5-.2.5-.2.5-.2.4-.2.5-.3.4-.3.4-.3.4-.3.4-.3.4-.4.4-.3.3-.4.4-.4.3-.4.3-.4.2-.4.3-.5.3-.5.2-.5.3-.5.2-.5.2-.5.2v-.1l-.5.2-.5.1-.9.2-.5.1-.5.1-.5.1-.5.1-.6.1-.5.1h-2l-.5-.1h-.6l-.5-.1-.5-.1-.6-.1-.5-.1-.5-.1-.5-.1-.5-.1-.5-.1-.5-.1-.5-.2-.5-.1-.5-.2-.5-.2-.5-.2-.5-.2-.5-.2-.5-.2-.5-.2-.5-.2-.5-.2-.5-.2-.5-.3-.4-.3-.5-.3-.4-.3-.4-.3-.4-.3-.4-.3-.4-.3-.4-.3-.4-.3-.4-.4.3-.4.4-.4.3-.4.4-.4.3-.4.3-.4.4-.4.3-.4.4-.4.3-.4.4-.4.3-.4.3-.4.4-.4.3-.4.4-.4.3-.4.4.3.5.3.4.3.5.3.4.3.5.3.4.3.5.2.4.3.5.2.5.2.5.2.5.2.5.2.5.2.5.2.5.2.5.1 1 .2.6.1.5.1h.5l.6.1h1.1l.6-.1.5-.1.5-.1.5-.1.4-.2.4-.2.4-.3.3-.4.2-.4.2-.5.1-.5v-.1l-.1-.6-.2-.5-.3-.4-.4-.3-.4-.3-.4-.2-.5-.2-.5-.2-.6-.3-.4-.1-.4-.1-.5-.2-.5-.1-.5-.2-.5-.1-.6-.2-.5-.1-.6-.2-.5-.1-.5-.2-.5-.1-.5-.2-.5-.2-.5-.1-.5-.2-.5-.2-.5-.2-.6-.2-.5-.2-.5-.2-.5-.2-.5-.3-.5-.3-.4-.3-.5-.3-.4-.3-.4-.3-.4-.3-.4-.4-.4-.4-.3-.4-.3-.4-.3-.4-.3-.4-.3-.5-.2-.4-.2-.4-.1-.5-.2-.4-.1-.5-.1-.5-.1-.5-.1-.5-.1-.6v-1.2l.1-.5.1-.5.1-.5.1-.5.1-.5.2-.5.1-.5.2-.5.2-.5.2-.5.3-.5.3-.5.3-.4.3-.4.4-.4.4-.4.4-.4.4-.4.4-.3.4-.3.4-.3.4-.3.5-.3.5-.2.5-.3.5-.2.5-.2.5-.2.5-.2.4-.1.5-.1.5-.1.5-.1.5-.1.5-.1.5-.1.5-.1.5-.1h2.2l.6.1.6.1h.5l.6.1.5.1.6.1.5.1.5.1.5.1.5.1.5.1.5.2.5.2.5.1.5.2.5.2.5.2.5.2.5.2.5.3.4.2.5.3.5.3.4.3.5.3.4.3.4.3.4.3.4.3-.3.4-.3.4-.3.4-.3.4-.3.5-.3.4-.3.4-.3.4-.3.4-.3.4-.3.4-.3.4-.3.5-.3.4-.3.4-1 2.2-.3.4-.4-.3-.5-.3-.4-.3-.4-.3-.5-.2-.4-.3-.5-.2-.4-.2-.5-.2-.4-.2-.5-.2-.4-.2-.6-.2-.5-.2-.5-.2-.5-.1-.3.2-.5-.1-.5-.1-.5-.1-.5-.1h-1.1l-.6.1-.5.1-.5.1-.4.2-.4.2-.5.4-.3.5-.2.5-.1.5v.1l.1.7.2.6.2.3.4.4.5.3.4.3.5.2.6.2.6.2.4.1.4.2.5.1.5.2.5.1.6.2.6.2.6.2.6.1.5.2.6.2.5.1.5.2.5.2.5.2.5.2.5.2.5.1.6.2.5.3.5.2.5.3.5.3.5.3.4.3.4.3.4.3.4.4.4.4.4.4.4.4.3.4.3.5.3.4.3.5.2.4.2.5.1.5.1.5.2 1 .1.5.1.6v1.2l-.7-.6zm-35.5 10.2h-29.1v-37.1h29.3v8.4h-19.6v6.1h17.6v7.9h-17.6v6.3h19.9v8.4zm-37.1 0h-9.3v-21.9l-.3.4-.3.5-.3.4-.3.4-.3.5-.3.4-.3.4-.3.5-.3.4-.3.4-.3.4-.3.5-.3.4-.3.4-.3.5-.3.4-.3.4-.3.5-.2.4-.3.4-.3.5-.3.4-.3.4-.3.5-.3.4-.2.4-.3.4-.3.5-.3.4-.3.4-.2.5-.3.4-.3.4-.3.5-.3.4h-.2l-.3-.5-.3-.4-.3-.5-.3-.4-.3-.5-.3-.4-.3-.5-.3-.4-.3-.5-.2-.4-.3-.5-.3-.4-.3-.5.5-.5-.3-.5-.3-.4-.3-.5-.3-.4-.3-.5-.3-.4-.2-.3-.3-.4-.3-.5-.3-.4-.3-.5-.3-.4-.3-.5-.2-.3-.3-.5-.3-.4-.3-.5-.3-.4-.3-.5-.3-.4v21.8h-9.6v-37.1h10.4l.3.4.3.5.3.4.3.5.3.4.3.5.3.4.3.5.3.4.3.4.3.5.3.4.3.5.3.4.3.5.3.4.3.4.3.5.3.4.3.5.3.4.3.5.3.4.2.5.3.4.2.4.3.5.3.4.3.5.3.4.2.5.3.4.3.5.3.4.3-.4.3-.5.3-.4.3-.5.3-.4.3-.5.3-.4.3-.5.3-.4.2-.4.3-.5.3-.4.3-.5.3-.4.3-.5.3-.4.3-.5.3-.4.3-.4.3-.5.3-.4.3-.5.3-.4.3-.5.2-.4.3-.4.3-.5.3-.4.3-.5.3-.4.3-.5.3-.4.3-.5.3-.4h10.4v37.1zm-58.8-15.3-.2-.5-.2-.5-.2-.5-.2-.5-.2-.5-.2-.5-.2-.5-.2-.5-.2-.5-.2-.5-.2-.5-.2-.5-.2-.5-.2-.5-.2-.5-.2-.5-.2-.5-.2-.5-.2-.5-.2-.5-.2-.5-.2-.5-.2.5-.2.5-.2.5-.2.5-.2.5-.2.5-.2.5-.2.5-.2.5-.2.5-.2.5-.2.5-.2.5-.2.5-.2.5-.2.5-.2.5-.2.5-.2.5-.2.5-.2.5-.2.5-.2.5h8.6l.4-.5zm15.9 15.3h-9.9l-.2-.5-.2-.5-.2-.5-.2-.5-.2-.5-.2-.5-.2-.5-.2-.5-.2-.5-.2-.5-.2-.5-.2-.5-.2-.5-.2-.5-.2-.5h-14.4l-.2.5-.2.5-.2.5-.2.5-.2.5-.4.9-.2.5-.2.5-.2.5-.2.5-.2.5-.2.5-.2.5-.2.5h-10l.2-.5.4-.9.2-.5.2-.5.4-.9.2-.5.2-.5.2-.5.2-.3.2-.5.2-.5.2-.5.2-.5.2-.5.2-.5.2-.5.2-.5.2-.5.2-.5.2-.5.4-.9.2-.5.2-.5.2-.5.2-.5.2-.5.2-.5.2-.5.2-.5.2-.5.2-.5.2-.5.2-.5.2-.5.2-.5.2-.5.2-.5.2-.5.2-.5.2-.5.2-.5.2-.5.2-.5.2-.5.2-.5.2-.5.2-.5.2-.5.2-.5.2-.5.2-.5.2-.5.2-.5.4-.9.2-.5.2-.5.2-.5.2-.5.2-.5.2-.5.2-.5.2-.5.2-.5.2-.5.1-.5.2-.5.2-.5.2-.5.2-.5.2-.5.2-.5.2-.5.2-.5.4-.9.2-.5h9.4l.2.5.2.5.2.5.2.5.2.5.2.5.2.5.2.5.2.5.2.5.2.5.2.5.2.5.2.5.2.5.2.5.2.5.2.5.2.5.2.5.2.5.2.5.2.5.2.5.2.5.2.5.2.5.2.5.2.5.2.5.4.9.2.5.2.5.2.5.2.5.2.5.2.5.2.5.2.5.2.5.2.5.2.5.2.5.2.5.2.5.2.5.2.5.2.5.2.5.2.5.2.5.2.5.2.5.2.5.2.5.2.5.2.5.2.5.2.5.2.5.2.5.2.5.2.5.2.5.2.5.2.5.2.5.2.5.2.5.2.5.2.5.2.5.2.5.2.5.2.5.2.5.2.5.4.9-1-.4zm-44.4-4.8-.4.3-.4.3-.4.3-.4.3-.4.3-.4.3-.4.3-.5.3-.5.3-.5.3-.5.2-.5.3-.5.2-.5.2-.5.2-.5.2-.5.2-.5.2-.5.2-.5.2-.5.2-.5.1-.5.1-.5.1-.5.1-.5.1-.6.1-.5.1-.6.1-.5.1-.6.1h-1.6l-.5-.1-.6-.1-.5-.1-.5-.1-.5-.1-.5-.1-.5-.1-.5-.1-.5-.1-.5-.1-.5-.1-.5-.2-.5-.2-.5-.2-.5-.2-.5-.2-.5-.2-.5-.2-.5-.3-.4-.2-.5-.3-.4-.3-.4-.3-.4-.3-.4-.3-.4-.3-.4-.3-.4-.3-.4-.4-.4-.3-.4-.4-.4-.4-.3-.4-.3-.4-.3-.4-.3-.4-.3-.4-.3-.4-.2-.4-.3-.5-.3-.4-.2-.5-.2-.5-.2-.5-.2-.5-.2-.4-.2-.5-.1-.5-.2-.5-.1-.5-.2-.5-.1-.5v-.5l-.1-.5v-.5l-.1-.5v-4.3l.1-.6.1-.5.1-.5.1-.5.2-.5.1-.5.2-.5.2-.5.2-.5.2-.5.2-.5.2-.5.2-.5.2-.5.3-.5.3-.4.2-.4.3-.4.3-.4.3-.4.3-.4.3-.4.3-.4.4-.4.3-.4.4-.4.4-.4.4-.3.4-.4.4-.3.4-.3.4-.3.4-.3.4-.3.4-.3.5-.3.5-.3.5-.3.5-.2.5-.2.5-.3.4-.2.5-.2.5-.2.5-.1.5-.2.5-.1.5-.2.5-.1.5-.1.5-.1.5-.1.5-.1.5-.1.5-.1h2.1l.6.1.6.1h.5l.5.1.6.1.5.1.5.1.5.1.5.1.5.1.5.1.5.2.5.1.4.2.5.2.9.4.5.2.5.3.5.2.4.3.5.3.4.3.5.3.4.3.4.3.4.3.4.3.4.4.4.3-.3.4-.4.4-.3.4-.4.4-.3.4-.3.4-.4.4-.3.4-.3.4-.4.4-.3.4-.4.4-.3.4-.3.4-.4.4-.3.4-.4.4-.3.4-.4-.3-.4-.4-.4-.3-.4-.3-.4-.3-.4-.3-.4-.3-.5-.3-.4-.2-.4-.2-.4-.2-.5-.2-.5-.2-.5-.1-.5-.1-.5-.1-.5-.1-.6-.1-.6-.1h-1.1l-.5.1-.5.1-.5.1-.5.1-.5.2-.5.2-.4 1.2-.5.2-.4.3-.4.3-.4.3-.4.3-.4.3-.4.3-.3.4-.4.4-.3.4-.3.4-.3.4-.2.5-.3.4-.2.5-.2.5-.2.5-.2.5-.1.5-.1.5-.1.6v3.7l.1.5.1.5.1.5.2.5.6-.2.2.5.2.5.3.5.5.8.3.4.3.4.4.4.3.4.4.3.4.3.4.3.4.3.4.3.5.2.5.2.5.2.5.2.5.2.5.1.5.1.5.1.6.1h.9l.6-.1.6-.1.5-.1.5-.1.5-.1.5-.1.5-.1.5-.2.4-.2.5-.2.4-.2.4-.3v-5h-7.4v-7.4h16.5v16.6zm-16.3-116.2h22v-17h-22v-34.7h22.9v-17h-41.6v122.7h41.9v-17h-23.2zm157.4 3.7v27.7c0 4.9-2.3 7.2-7 7.2h-3.5c-4.9 0-7.2-2.3-7.2-7.2v-77.5c0-4.9 2.3-7.2 7.2-7.2h3.1c4.7 0 7 2.3 7 7.2v24h18.3v-25.1c0-15.2-7.3-22.6-22.5-22.6h-9.1c-15.2 0-22.7 7.5-22.7 22.8v79.2c0 15.3 7.5 22.8 22.7 22.8h9.2c15.2 0 22.7-7.5 22.7-22.8v-28.6h-18.2m-64.8-72.3h18.7v122.7h-18.7zm-27.1 54.5c0 4.9-2.3 7.2-7 7.2h-7.7v-45.2h7.7c4.7 0 7 2.3 7 7.2zm-4-54.5h-29.3v122.7h18.7v-44.5h10.6c15.2 0 22.7-7.5 22.7-22.8v-32.6c0-15.3-7.5-22.8-22.7-22.8zm-36.2 233.6h106.9l-54.5 18z" fill="#fff"/></svg>